<svg xmlns="http://www.w3.org/2000/svg" viewBox="0 0 43.52 29.35"><defs><style>.cls-1{fill:#20294e;}.cls-2{fill:none;stroke:#20294e;stroke-linecap:round;stroke-linejoin:round;}</style></defs><title>jobs</title><g id="Laag_2" data-name="Laag 2"><g id="Laag_3" data-name="Laag 3"><path class="cls-1" d="M3.67,21.25h.12c.29,0,.58.05.89.05a1,1,0,0,0,1-.41,3.22,3.22,0,0,0,.22-1.65V6.41H7.63V18.85c0,1.37,0,2.72-.86,3.56A2.64,2.64,0,0,1,4.94,23a5.68,5.68,0,0,1-1.27-.14Z"/><path class="cls-1" d="M12.39,9.75c.22-1.32.77-3.48,3.22-3.48s3,2.16,3.22,3.48a35.25,35.25,0,0,1,.33,4.92,35.49,35.49,0,0,1-.33,4.93c-.22,1.32-.77,3.48-3.22,3.48s-3-2.16-3.22-3.48a35.49,35.49,0,0,1-.33-4.93A35.25,35.25,0,0,1,12.39,9.75Zm4.73,9.46c.12-.93.22-3.55.22-4.56s-.1-3.63-.22-4.56c-.07-.6-.31-2.26-1.51-2.26-.6,0-1.3.43-1.51,2.26-.12,1.12-.2,3.31-.2,4.56s.08,3.43.2,4.56c.21,1.83.91,2.26,1.51,2.26C16.81,21.47,17.05,19.81,17.12,19.21Z"/><path class="cls-1" d="M23.73,6.41h1.78a4.5,4.5,0,0,1,2.86.77,4.41,4.41,0,0,1,1.1,3.39,5.93,5.93,0,0,1-.5,2.54,2.22,2.22,0,0,1-1.28,1,2.68,2.68,0,0,1,1.42,1,5.3,5.3,0,0,1,.82,3.12,5.63,5.63,0,0,1-1,3.56,4.24,4.24,0,0,1-3.53,1.13H23.73Zm2.28,7a1.58,1.58,0,0,0,1.39-.6,3.86,3.86,0,0,0,.49-2.09,3.49,3.49,0,0,0-.58-2.28A1.4,1.4,0,0,0,26,8h-.57v5.48Zm-.14,7.88a2,2,0,0,0,1.68-.58c.21-.24.62-.86.62-2.64a3.91,3.91,0,0,0-.62-2.57A1.61,1.61,0,0,0,26.11,15h-.67v6.37Z"/><path class="cls-1" d="M34.56,18.85a3.4,3.4,0,0,0,.53,2,1.46,1.46,0,0,0,2.57-.22,3.69,3.69,0,0,0,.39-1.8,4.72,4.72,0,0,0-.82-2.91c-.79-1-2.11-1.34-3.12-2.86a5.08,5.08,0,0,1-.84-2.9A4.6,4.6,0,0,1,34,7.44a2.72,2.72,0,0,1,2.45-1.2,2.69,2.69,0,0,1,2.18.94,4.39,4.39,0,0,1,.94,2.62L38,10.11a3.51,3.51,0,0,0-.58-1.8,1.12,1.12,0,0,0-1-.48,1.28,1.28,0,0,0-1,.43A2.29,2.29,0,0,0,35,9.68a4,4,0,0,0,.77,2.4A6.28,6.28,0,0,0,37,13.18a7.25,7.25,0,0,1,1.58,1.33,6.1,6.1,0,0,1,1.3,3.81A7.14,7.14,0,0,1,39,21.73a3.1,3.1,0,0,1-2.73,1.37A2.92,2.92,0,0,1,34,22.21a5,5,0,0,1-1.08-3.12Z"/><rect class="cls-2" x="0.5" y="0.5" width="42.52" height="28.35"/></g></g></svg>