<svg xmlns="http://www.w3.org/2000/svg" viewBox="0 0 98.35 93.96"><defs><style>.cls-1,.cls-2{fill:none;stroke-linecap:round;stroke-miterlimit:10;stroke-width:2px;}.cls-1{stroke:#20294e;}.cls-2{stroke:#e30613;}</style></defs><g id="Laag_2" data-name="Laag 2"><g id="Laag_3" data-name="Laag 3"><ellipse class="cls-1" cx="48.8" cy="10.64" rx="8.1" ry="9.64"/><line class="cls-1" x1="37.97" y1="38.71" x2="37.97" y2="92.96"/><line class="cls-1" x1="59.64" y1="38.71" x2="59.64" y2="92.96"/><path class="cls-1" d="M30.65,60.17V34.61s0-10.28,18.52-10.28S67.7,34.61,67.7,34.61V60.17"/><line class="cls-1" x1="48.8" y1="60.17" x2="48.8" y2="92.96"/><ellipse class="cls-2" cx="82.23" cy="20.55" rx="6.48" ry="7.71"/><line class="cls-2" x1="73.56" y1="43" x2="73.56" y2="86.4"/><line class="cls-2" x1="90.9" y1="43" x2="90.9" y2="86.4"/><path class="cls-2" d="M73.56,32.93a24.16,24.16,0,0,1,9-1.44c14.82,0,14.82,8.23,14.82,8.23V60.17"/><line class="cls-2" x1="82.53" y1="60.17" x2="82.53" y2="86.4"/><ellipse class="cls-2" cx="15.53" cy="20.55" rx="6.48" ry="7.71"/><line class="cls-2" x1="6.86" y1="43" x2="6.86" y2="86.4"/><line class="cls-2" x1="24.19" y1="43" x2="24.19" y2="86.4"/><path class="cls-2" d="M1,60.17V39.72s0-8.23,14.82-8.23a25.19,25.19,0,0,1,8.38,1.22"/><line class="cls-2" x1="15.82" y1="60.17" x2="15.82" y2="86.4"/></g></g></svg>