<svg xmlns="http://www.w3.org/2000/svg" viewBox="0 0 65.06 89.21"><defs><style>.cls-1,.cls-2{fill:none;stroke-linecap:round;stroke-linejoin:round;stroke-width:2px;}.cls-1{stroke:#20294e;}.cls-2{stroke:#e30613;}</style></defs><g id="Laag_2" data-name="Laag 2"><g id="Laag_3" data-name="Laag 3"><path class="cls-1" d="M36.47,62.09A41.76,41.76,0,0,1,6.91,81.38"/><path class="cls-1" d="M42.39,40.41a41.13,41.13,0,0,1-4,17.74"/><path class="cls-1" d="M56.18,22.68a29.43,29.43,0,0,1,5.91,17.73V58.15"/><path class="cls-1" d="M12.82,18.38a29.55,29.55,0,0,1,39.81.36"/><path class="cls-1" d="M3,42.39v-2A29.43,29.43,0,0,1,8.88,22.68"/><path class="cls-1" d="M24.65,34.5a9.86,9.86,0,0,1,17.74,5.91"/><path class="cls-1" d="M1,62.09A21.68,21.68,0,0,0,22.68,40.42v-2"/><path class="cls-2" d="M48.3,28.59a19.64,19.64,0,0,1,3.94,11.82V56.18A11.82,11.82,0,0,0,64.06,68"/><path class="cls-2" d="M24.65,22.68a17.16,17.16,0,0,1,7.88-2,19.6,19.6,0,0,1,11.83,3.94"/><path class="cls-2" d="M1,52.24A11.83,11.83,0,0,0,12.82,40.41a19.86,19.86,0,0,1,5.92-13.79"/><path class="cls-1" d="M45.17,67.51c3.82,5.81,8.39,10,14.95,11.36"/><path class="cls-1" d="M52.24,87a41.54,41.54,0,0,1-9-6A8.1,8.1,0,0,0,33,80.49C28,84.21,22.58,87.14,16.77,88.21"/><path class="cls-1" d="M23.9,62.09a31.43,31.43,0,0,0,8.63-21.68v-2"/><path class="cls-1" d="M1,72A31.36,31.36,0,0,0,19.39,66"/><path class="cls-1" d="M20.71,3A39.51,39.51,0,0,1,32.53,1,39.32,39.32,0,0,1,62.48,14.79"/><path class="cls-1" d="M2.58,14.79A40.55,40.55,0,0,1,14.8,4.94"/></g></g></svg>