<svg xmlns="http://www.w3.org/2000/svg" viewBox="0 0 113.6 91.13"><defs><style>.cls-1,.cls-2{fill:none;stroke-miterlimit:10;stroke-width:2px;}.cls-1{stroke:#e30613;}.cls-2{stroke:#20294e;}</style></defs><g id="Laag_2" data-name="Laag 2"><g id="Laag_3" data-name="Laag 3"><circle class="cls-1" cx="54.41" cy="36.19" r="9.33"/><line class="cls-1" x1="61.38" y1="42.39" x2="69.62" y2="50.63"/><path class="cls-2" d="M29.58,24.08c5.39-6,6.19-17.49,5.08-22.79-3.13.66-6.76,3.31-9.4,7"/><path class="cls-2" d="M20.58,22.1a27.18,27.18,0,0,0-5.8-16.8c-3,3.5-4.41,9.81-3.48,15.59"/><path class="cls-2" d="M13.13,33.67C11.61,29,5,25.72,1,24.42c0,7.16,1.86,21.79,13.54,23.11"/><path class="cls-2" d="M28.19,44.22c3.5-5.47,1.63-11.86-.91-15.17C21.36,32.21,14.21,42.4,22.2,49"/><path class="cls-2" d="M35.41,73c6.29-8.35-2.84-16.23-7.91-18.42-1.08,3.13-3.15,11.1,2,15.74"/><path class="cls-2" d="M20.41,59.12c-4.64-5.71-12.79-6.71-17-6.94.38,6,6.16,21.69,19.4,18.5"/><path class="cls-2" d="M17.22,78.2c4.17,6.29,16.53,17.49,32.3,8.67C46.06,75.31,23.64,76.32,17.22,78.2Z"/><path class="cls-2" d="M84,24.08c-5.39-6-6.19-17.49-5.08-22.79a19.38,19.38,0,0,1,9.4,7"/><path class="cls-2" d="M93,22.1a27.18,27.18,0,0,1,5.8-16.8c3,3.5,4.41,9.81,3.48,15.59"/><path class="cls-2" d="M100.47,33.67c1.52-4.69,8.11-8,12.13-9.25,0,7.16-1.86,21.79-13.54,23.11"/><path class="cls-2" d="M85.41,44.22c-3.5-5.47-1.63-11.86.91-15.17C92.24,32.21,99.39,42.4,91.4,49"/><path class="cls-2" d="M78.19,73C71.9,64.64,81,56.76,86.1,54.57c1.08,3.13,3.15,11.1-2,15.74"/><path class="cls-2" d="M93.19,59.12c4.64-5.71,12.79-6.71,17-6.94-.38,6-6.16,21.69-19.41,18.5"/><path class="cls-2" d="M96.38,78.2c-4.17,6.29-16.53,17.49-32.3,8.67C67.54,75.31,90,76.32,96.38,78.2Z"/></g></g></svg>