<svg xmlns="http://www.w3.org/2000/svg" viewBox="0 0 42.82 28.63"><defs><style>.cls-1{fill:none;stroke-linejoin:round;stroke-width:2px;}.cls-1,.cls-3{stroke:#e30613;}.cls-2,.cls-3{fill:#20294e;}.cls-3{stroke-linecap:round;stroke-miterlimit:10;}</style></defs><g id="Laag_2" data-name="Laag 2"><g id="Laag_3" data-name="Laag 3"><line class="cls-1" y1="14.46" x2="42.52" y2="14.46"/><line class="cls-1" x1="21.26" y1="0.29" x2="21.26" y2="28.63"/><polygon class="cls-2" points="0.65 0 19.11 9.99 19.11 0 0.65 0 0.65 0"/><polygon class="cls-2" points="42.82 0 24.36 9.99 24.36 0 42.82 0 42.82 0"/><polygon class="cls-2" points="30.79 11.89 42.82 5.38 42.82 11.89 30.79 11.89 30.79 11.89"/><polygon class="cls-2" points="12.32 11.89 0.3 5.38 0.3 11.89 12.32 11.89 12.32 11.89"/><polygon class="cls-2" points="42.46 28.35 24.01 18.36 24.01 28.35 42.46 28.35 42.46 28.35"/><polygon class="cls-2" points="0.3 28.35 18.75 18.36 18.75 28.35 0.3 28.35 0.3 28.35"/><polygon class="cls-2" points="12.32 16.45 0.3 22.96 0.3 16.45 12.32 16.45 12.32 16.45"/><polygon class="cls-2" points="30.79 16.45 42.82 22.96 42.82 16.45 30.79 16.45 30.79 16.45"/><line class="cls-3" x1="25.65" y1="17.03" x2="41.24" y2="25.47"/><line class="cls-3" x1="16.86" y1="17.03" x2="1.26" y2="25.47"/><line class="cls-3" x1="25.65" y1="11.69" x2="41.25" y2="3.25"/><line class="cls-3" x1="16.87" y1="11.69" x2="1.27" y2="3.25"/></g></g></svg>