<svg xmlns="http://www.w3.org/2000/svg" viewBox="0 0 114.19 85.21"><defs><style>.cls-1,.cls-2{fill:none;stroke-linecap:round;stroke-linejoin:round;stroke-width:2px;}.cls-1{stroke:#20294e;}.cls-2{stroke:#e30613;}</style></defs><g id="Laag_2" data-name="Laag 2"><g id="Laag_3" data-name="Laag 3"><polyline class="cls-1" points="13.39 37.56 1 37.56 1 1 74.13 1 74.13 17.85"/><line class="cls-2" x1="12.04" y1="20.37" x2="12.04" y2="28.35"/><line class="cls-2" x1="18.12" y1="18.07" x2="18.12" y2="20.46"/><line class="cls-2" x1="24.2" y1="15.69" x2="24.2" y2="20.46"/><line class="cls-2" x1="30.29" y1="13.01" x2="30.29" y2="20.46"/><line class="cls-2" x1="36.37" y1="11.94" x2="36.37" y2="20.46"/><line class="cls-2" x1="42.45" y1="10.96" x2="42.45" y2="20.46"/><line class="cls-2" x1="48.54" y1="9.43" x2="48.54" y2="20.46"/><line class="cls-2" x1="54.62" y1="7.74" x2="54.62" y2="20.46"/><line class="cls-2" x1="60.71" y1="5.27" x2="60.71" y2="20.46"/><polyline class="cls-1" points="33.83 61.56 20.54 61.56 20.54 25 93.66 25 93.66 41.03"/><rect class="cls-1" x="40.07" y="47.64" width="73.13" height="36.56"/><polyline class="cls-2" points="27.92 48.58 33.89 42.61 40.07 40.1 46.29 34.89 50.97 40.05 54.62 37.29 65.98 40.53 86.15 30.44"/><path class="cls-2" d="M76.22,65.76,87,59.55a12.42,12.42,0,0,1-4.55,17,11.8,11.8,0,0,1-6.21,1.67Z"/><path class="cls-2" d="M76.22,65.76,65.46,59.55a12.42,12.42,0,0,1,17-4.55A11.84,11.84,0,0,1,87,59.55Z"/><path class="cls-2" d="M76.22,65.76V78.19A12.44,12.44,0,0,1,63.79,65.76a11.91,11.91,0,0,1,1.67-6.21Z"/></g></g></svg>