<svg xmlns="http://www.w3.org/2000/svg" viewBox="0 0 2000 2000"><defs><style>.cls-1{fill:#70228d;}.cls-2,.cls-3{fill:#ebdfef;}.cls-2{stroke:#b6b6b6;stroke-width:10px;}.cls-10,.cls-2{stroke-linecap:round;}.cls-4{fill:#d7ae98;}.cls-5{fill:#24a8c2;}.cls-6{fill:#66c2d4;}.cls-7{fill:#0099b8;}.cls-8{fill:#b7957e;}.cls-9{fill:#4c2d2a;}.cls-10,.cls-14{fill:none;stroke-miterlimit:10;}.cls-10{stroke:#4c2d2a;stroke-width:4px;}.cls-11{fill:#ad81be;}.cls-12{fill:#d6c0de;}.cls-13{fill:#fff;}.cls-14{stroke:#d6c0de;stroke-width:16.45px;}.cls-15{fill:#84429d;}</style></defs><g id="Layer_2" data-name="Layer 2"><g id="Achtergrond"><polygon class="cls-1" points="2000 2000 1543.02 2000 0 2000 0 0 1709.79 0 2000 290 2000 2000"/><line class="cls-2" x1="1761.89" y1="66.13" x2="1946.14" y2="66.13"/><line class="cls-2" x1="1761.89" y1="107.39" x2="1946.14" y2="107.39"/><line class="cls-2" x1="1761.89" y1="148.66" x2="1946.14" y2="148.66"/><line class="cls-2" x1="1761.89" y1="189.93" x2="1946.14" y2="189.93"/><polygon class="cls-3" points="1999.02 290.03 1709.02 290.03 1709.02 0.03 1999.02 290.03"/></g><g id="Patient"><path class="cls-4" d="M1132.5,1325.58s-3.5-123.24-69.81-134.46c-10.09-1.71-27.08-10.1-38.91-9.9-61.37,1-52.7,1.64-97.73,17.33-17,5.91-29.12,54-27,72.23l-28.89,53.52C969.15,1359.24,1061.07,1373,1132.5,1325.58Z"/><path class="cls-5" d="M1161.38,1412.8c2-36-1.14-57-9.11-107.09-5.32-33.42-17.78-68.58-26-87.81-6.62-15.38-15.1-22-31.64-24.56l-7-.77-30.1-2.73,0,0a15.36,15.36,0,0,1-3.91,10.18c-7.43,8.22-16.56,10.07-23.47,10.56-15.95,1.14-28.16-3.12-40.29-6.25-26.68-6.89-29.32-19.44-33.43-17.08l-39.16,11.84c-132,35-101.58,71.82-71.86,142.85h0c0,.12,34.87,124.47,34.5,175"/><path class="cls-4" d="M1010.09,1206.25l17.05-3.43c14.53,2.21,13.69,2.34,14.58-4.44l7.82-80.62c1.39-14.3-9.36-27.81-23.89-30l-4.31-.65c-14.53-2.22-36.39,3.31-37.77,17.61l-11.89,85.43C970.29,1204.42,995.56,1204,1010.09,1206.25Z"/><path class="cls-4" d="M960.54,1005c11-22.57,30-28.27,48.82-17.84,17-9.24,39-.42,56.81,25.84,24.78,36.57,35.37,97.41,19.36,130.33-7,14.37-19.62,18.58-31.74,20.07a89.81,89.81,0,0,1-34.28-2.76c-40.36-10.9-40.59-5-57.1-29.39C937.63,1094.68,944.53,1037.91,960.54,1005Z"/><path class="cls-6" d="M986.64,1016.39c-11.82,38.83-8.37,125.83-9.73,137.5,0,0-79.29,2.43-74.2-87.58,6.35-112,73-59.64,73-59.64Z"/><path class="cls-7" d="M884.85,1512.9s.43-142.91.21-204.68-62.74-56.48-62.74-56.48S759.56,1480,813.48,1558.9"/><path class="cls-8" d="M1045.58,1164s-34.75,3.13-59.48-29.91c0,0,24.82,47.93,56.82,52.16Z"/><path class="cls-4" d="M949.19,1110.81c6.37,13.92,21.47,23.21,33.73,20.76s17-15.73,10.67-29.65-21.46-23.21-33.73-20.75S942.83,1096.9,949.19,1110.81Z"/><path class="cls-6" d="M974.09,1047.14c44.43-12.53,99.11-60.38,117.34,33,1.65,8.43-2.23-14.09,5.69-31.9-5.69-19.37-1.47-40.41-16.07-49.84-30.51-19.71-46-30.42-78.12-35.44l-7.74-.38c-46.71-2.29-70.2,17-77.39,62.27-.64,4-7.47,22.39-7.53,25.71l14.56-5.88C924.33,1071.25,947.24,1045.1,974.09,1047.14Z"/><path class="cls-9" d="M1071,1073.4c1.83,3.14,1.35,7.33-1.07,9.36s-5.85,1.13-7.67-2-1.35-7.33,1.06-9.36S1069.16,1070.26,1071,1073.4Z"/><path class="cls-9" d="M1030.54,1078.28c1.83,3.14,1.35,7.33-1.06,9.36s-5.86,1.12-7.68-2-1.35-7.33,1.06-9.36S1028.71,1075.14,1030.54,1078.28Z"/><path class="cls-10" d="M1068,1130.88c-1.77.88-6.27,1.89-10.64,2.66-7.53,1.33-12,.44-12,.44"/></g><g id="Formulier"><path class="cls-11" d="M1270.55,1160.87c0-.94,0-1.88,0-2.81h483c0,417.35-338.33,755.67-755.68,755.67V1432.29h1.24C1149,1432.3,1270.55,1310.78,1270.55,1160.87Z"/><path class="cls-12" d="M727.71,1158.08c0,.93,0,1.86,0,2.79,0,149.49,120.85,270.74,270.19,271.42v481.46c-417.35,0-755.68-338.32-755.68-755.67Z"/><path class="cls-11" d="M725,1155.56c0,.94,0,1.88,0,2.81H242C242,741,580.32,402.7,997.67,402.7V884.15l-1.24,0C846.52,884.13,725,1005.66,725,1155.56Z"/><path class="cls-12" d="M1267.83,1158.35c0-.93,0-1.85,0-2.79,0-149.49-120.85-270.74-270.19-271.41V402.68c417.36,0,755.68,338.32,755.68,755.67Z"/></g><g id="Tekst"><path class="cls-13" d="M670.28,161.9h55.4c44.4,0,74.4,29.2,74.4,70s-30,70-74.4,70h-55.4Zm54.6,130.8c39.6,0,65-25.2,65-60.8s-25.4-60.8-65-60.8h-44.4V292.7Z"/><path class="cls-13" d="M835.48,161.9h10.2v140h-10.2Z"/><path class="cls-13" d="M921.27,171.1H870.88v-9.2h111v9.2h-50.4V301.9h-10.2Z"/><path class="cls-13" d="M990.28,283.9l4.6-7.6c9.6,10,27.4,17.6,46.19,17.6,28,0,40.4-12.2,40.4-27.4,0-42-87.39-16.8-87.39-68.4,0-19.8,15.2-37.2,49.6-37.2,15.39,0,31.39,4.8,42.19,12.6l-3.8,8.2a69.16,69.16,0,0,0-38.39-11.8c-27.2,0-39.4,12.6-39.4,28,0,42,87.39,17.2,87.39,68,0,19.8-15.8,37-50.39,37C1020.48,302.9,1000.48,295.1,990.28,283.9Z"/><path class="cls-13" d="M1258.67,301.9l-.2-119.8-58.6,101.2h-5l-58.6-100.8V301.9h-10v-140h8.6l62.6,108.2,62.6-108.2h8.4l.2,140Z"/><path class="cls-13" d="M1317.47,161.9h10.2v140h-10.2Z"/></g><g id="Oog"><path class="cls-13" d="M1000.34,855c-318.17,0-576.1,303.1-576.1,303.1s257.93,303.1,576.1,303.1,576.09-303.1,576.09-303.1S1318.51,855,1000.34,855Zm-1.23,574.59c-148.41,0-268.72-120.31-268.72-268.72S850.7,892.11,999.11,892.11s268.72,120.31,268.72,268.72S1147.52,1429.55,999.11,1429.55Z"/></g><g id="pil"><path class="cls-3" d="M758.92,1736.27S623.08,1691.71,604,1628.92c-6-19.92-13.29-57.51,39.25-73.46s71.49,35.36,71.49,35.36-8.69-54.42,41.22-69.57,67.41,19.32,73.46,39.25C848,1621.53,758.92,1736.27,758.92,1736.27Z"/><circle class="cls-3" cx="1373.69" cy="743.7" r="95.84"/><line class="cls-14" x1="1292.99" y1="649.55" x2="1447.67" y2="824.41"/></g><g id="huis"><rect class="cls-15" x="624.51" y="657.93" width="140.36" height="141.04"/><polygon class="cls-15" points="624.51 646.63 764.87 646.63 698.59 558.9 624.51 646.63"/></g><g id="Sociaal_poppetjes" data-name="Sociaal poppetjes"><path class="cls-15" d="M1324.46,1636.08c-1.71-32.8-24.7-58.79-52.83-58.79s-51.12,26-52.83,58.79h-.11v57h105.88v-57Z"/><circle class="cls-15" cx="1271.63" cy="1545.58" r="40.26"/><path class="cls-15" d="M1451.52,1636.08c-1.71-32.8-24.7-58.79-52.83-58.79s-51.12,26-52.83,58.79h-.11v57h105.88v-57Z"/><circle class="cls-15" cx="1398.69" cy="1545.58" r="40.26"/></g></g></svg>