<svg xmlns="http://www.w3.org/2000/svg" viewBox="0 0 2000 2000"><defs><style>.cls-1{fill:#e31c79;}.cls-13,.cls-2,.cls-45{fill:none;stroke-linecap:round;}.cls-2{stroke:#b6b6b6;stroke-width:10px;}.cls-3{fill:#f7bed9;}.cls-4{fill:#5ed9e0;}.cls-5{fill:#1ecad3;}.cls-36,.cls-6{fill:#fff;}.cls-7{fill:#6484c4;}.cls-8{fill:#9fe8ec;}.cls-9{fill:#bff0f2;}.cls-10{fill:#3ed2d9;}.cls-11{fill:#7ee1e6;}.cls-12{fill:#dff7f9;}.cls-13{stroke:#bff0f2;stroke-linejoin:round;stroke-width:4.96px;}.cls-14{fill:#fcfcfc;}.cls-15{fill:#f0f4f7;}.cls-16{fill:#e1e6ea;}.cls-17{fill:#eaf0f4;}.cls-18{fill:#e4e8ed;}.cls-19{fill:#eff5f9;}.cls-20{fill:#ffb206;}.cls-21{fill:#ededed;}.cls-22{fill:#f4f4f4;}.cls-23{fill:#dfe7ed;}.cls-24{fill:#90afbf;}.cls-25{fill:#dbf0f5;}.cls-26{fill:#b6e2eb;}.cls-27{fill:#6dc5d6;}.cls-28{fill:#0099b8;}.cls-29{fill:#49b6cc;}.cls-30{fill:#71b7ea;}.cls-31{fill:#5499dd;}.cls-32{fill:#fff16c;}.cls-33{fill:#ffde1a;}.cls-34{fill:#fffdd7;}.cls-35{fill:#ad0000;opacity:0.15;}.cls-36{opacity:0.31;}.cls-37{fill:#dfecf4;}.cls-38{fill:#cbe8f7;}.cls-39{fill:#f4d41e;}.cls-40{fill:#ff766c;}.cls-41{fill:#f39ec6;}.cls-42{fill:#fbdfec;}.cls-43{fill:#e73c8c;}.cls-44{fill:#ef7db2;}.cls-45{stroke:#aa155b;stroke-miterlimit:10;stroke-width:27px;}</style></defs><g id="Layer_2" data-name="Layer 2"><g id="Achtergrond"><polygon class="cls-1" points="2000 2000 0 2000 0 0 1710 0 2000 289.99 2000 2000"/><line class="cls-2" x1="1762.88" y1="66.1" x2="1947.12" y2="66.1"/><line class="cls-2" x1="1762.88" y1="107.37" x2="1947.12" y2="107.37"/><line class="cls-2" x1="1762.88" y1="148.64" x2="1947.12" y2="148.64"/><line class="cls-2" x1="1762.88" y1="189.91" x2="1947.12" y2="189.91"/><polygon class="cls-3" points="2000 290 1710 290 1710 0 2000 290"/></g><g id="Medicijnen"><path class="cls-4" d="M1346.56,699.89H1236l-7.65,24c-73.9,42.31-90.86,83.7-90.86,169.28V1320.9c0,29.74,16.91,44,45.24,44h147.62Z"/><path class="cls-4" d="M1289.82,699.89h180.87l7.65,24c73.91,42.31,90.87,83.7,90.87,169.28V1320.9c0,29.74-50,44-78.32,44H1293.58Z"/><rect class="cls-4" x="1221.85" y="616.23" width="266.84" height="119.15"/><path class="cls-5" d="M1488.69,730V616.23h-67.27V730c65.13,40.26,80.52,81.69,80.52,163.1V1320.9c0,29.74-46.8,44-75.12,44h64.07c28.32,0,78.32-14.28,78.32-44V893.12C1569.21,811.71,1553.82,770.28,1488.69,730Z"/><path class="cls-6" d="M1435.93,916.79H1167.27v380.53h268.66a12.73,12.73,0,0,0,12.72-12.73V929.52A12.73,12.73,0,0,0,1435.93,916.79Z"/><path class="cls-5" d="M1339.78,1018H1206.07a10.45,10.45,0,1,1,0-20.89h133.71a10.45,10.45,0,0,1,0,20.89Z"/><path class="cls-7" d="M1254.3,1092.07h-44.87a10.44,10.44,0,1,1,0-20.88h44.87a10.44,10.44,0,0,1,0,20.88Z"/><rect class="cls-8" x="1190.21" y="568.49" width="330.6" height="71.38" rx="16.54"/><rect class="cls-8" x="1193.32" y="657.34" width="327.49" height="18.46" rx="6.53"/><path class="cls-5" d="M1504.27,568.49H1410.4v71.38h93.87a16.54,16.54,0,0,0,16.55-16.54V585A16.55,16.55,0,0,0,1504.27,568.49Z"/><path class="cls-5" d="M1511.59,657.34H1410.4V675.8h101.19a9.23,9.23,0,1,0,0-18.46Z"/><path class="cls-9" d="M766.75,803l14.63,26.62v316.74a12.14,12.14,0,0,0,12.14,12.14H993.37a12.15,12.15,0,0,0,12.14-12.14V832.4L1020.14,803Z"/><path class="cls-10" d="M822.75,803c151.63,31.88,139,171.6,137.42,304,0,42.82-58.44,51.5-65.14,51.5h98.34a12.15,12.15,0,0,0,12.14-12.14V832.4L1020.14,803Z"/><path class="cls-4" d="M991.34,702.77H791.18A19.14,19.14,0,0,0,772,721.91v29.73h238.44V721.91a19.14,19.14,0,0,0-19.14-19.14Z"/><path class="cls-11" d="M769.7,751.64h243.6a19.77,19.77,0,0,1,19.77,19.77V803a0,0,0,0,1,0,0H749.93a0,0,0,0,1,0,0V771.41A19.77,19.77,0,0,1,769.7,751.64Z"/><rect class="cls-12" x="781.38" y="902.74" width="112.06" height="159.05"/><line class="cls-13" x1="772.04" y1="751.64" x2="1005.38" y2="751.64"/><line class="cls-13" x1="806.65" y1="710.5" x2="806.65" y2="749.18"/><line class="cls-13" x1="849.91" y1="710.5" x2="849.91" y2="749.18"/><line class="cls-13" x1="893.16" y1="710.5" x2="893.16" y2="749.18"/><line class="cls-13" x1="936.41" y1="710.5" x2="936.41" y2="749.18"/><line class="cls-13" x1="970.12" y1="710.5" x2="970.12" y2="749.18"/></g><g id="potje"><path class="cls-4" d="M733.67,690.6,546.3,692.38l3.35,352.53a25.93,25.93,0,0,0,26.18,25.69l135.49-1.28A25.94,25.94,0,0,0,737,1043.13Z"/><path class="cls-5" d="M733.67,690.6l-51,.48,3.23,340.12a25.93,25.93,0,0,1-25.69,26.18l-106.67,1a25.92,25.92,0,0,0,22.26,12.21l135.49-1.28A25.94,25.94,0,0,0,737,1043.13Z"/><rect class="cls-5" x="546.36" y="691.49" width="187.37" height="12.87" transform="translate(-6.59 6.1) rotate(-0.54)"/><rect class="cls-14" x="552.82" y="597.81" width="172.88" height="33.98" transform="translate(-5.8 6.09) rotate(-0.54)"/><rect class="cls-15" x="685.72" y="597.18" width="39.97" height="33.98" transform="translate(-5.79 6.72) rotate(-0.54)"/><path class="cls-15" d="M724.86,626.48,554.14,628.1a5.45,5.45,0,0,0-5.4,5.49l.16,16.54,181.62-1.72-.16-16.54A5.44,5.44,0,0,0,724.86,626.48Z"/><path class="cls-16" d="M724.86,626.48l-40.07.38a4.79,4.79,0,0,1,4.84,4.75l.17,17.18,40.72-.38-.16-16.54A5.44,5.44,0,0,0,724.86,626.48Z"/><path class="cls-14" d="M740.08,634.83l-201.75,1.91a6.3,6.3,0,0,0-6.24,6.35l.36,37.18,214.34-2-.35-37.17A6.29,6.29,0,0,0,740.08,634.83Z"/><path class="cls-17" d="M740.08,634.83l-49.21.46a6.29,6.29,0,0,1,6.35,6.24l.36,37.17,49.21-.47-.35-37.17A6.29,6.29,0,0,0,740.08,634.83Z"/><path class="cls-18" d="M578.06,642.11a1.5,1.5,0,1,0-3,0l.27,28.23a1.5,1.5,0,1,0,3,0Z"/><path class="cls-18" d="M571.31,642.17a1.5,1.5,0,0,0-3,0l.27,28.23a1.5,1.5,0,1,0,3,0Z"/><path class="cls-18" d="M564.57,642.24a1.5,1.5,0,1,0-3,0l.27,28.23a1.5,1.5,0,1,0,3,0Z"/><path class="cls-18" d="M557.82,642.3a1.5,1.5,0,0,0-3,0l.27,28.23a1.5,1.5,0,0,0,3,0Z"/><path class="cls-18" d="M551.08,642.37a1.5,1.5,0,1,0-3,0l.27,28.23a1.5,1.5,0,1,0,3,0Z"/><path class="cls-18" d="M544.33,642.43a1.5,1.5,0,1,0-3,0l.27,28.23a1.5,1.5,0,0,0,3,0Z"/><path class="cls-18" d="M584.8,642.05a1.5,1.5,0,0,0-1.51-1.49h0a1.5,1.5,0,0,0-1.49,1.51l.27,28.23a1.5,1.5,0,1,0,3,0Z"/><path class="cls-18" d="M591.55,642a1.5,1.5,0,0,0-3,0l.27,28.23a1.5,1.5,0,1,0,3,0Z"/><path class="cls-18" d="M598.29,641.92a1.5,1.5,0,0,0-1.51-1.49,1.51,1.51,0,0,0-1.49,1.52l.27,28.23a1.5,1.5,0,0,0,3,0Z"/><path class="cls-18" d="M605,641.85a1.5,1.5,0,0,0-1.52-1.48,1.49,1.49,0,0,0-1.48,1.51l.27,28.23a1.5,1.5,0,1,0,3,0Z"/><path class="cls-18" d="M611.78,641.79a1.5,1.5,0,1,0-3,0l.27,28.23a1.5,1.5,0,0,0,3,0Z"/><path class="cls-18" d="M618.53,641.73a1.5,1.5,0,1,0-3,0L615.8,670a1.5,1.5,0,1,0,3,0Z"/><path class="cls-18" d="M625.27,641.66a1.5,1.5,0,0,0-3,0l.27,28.23a1.5,1.5,0,0,0,3,0Z"/><path class="cls-18" d="M632,641.6a1.5,1.5,0,1,0-3,0l.27,28.23a1.5,1.5,0,1,0,3,0Z"/><path class="cls-18" d="M638.76,641.53a1.5,1.5,0,0,0-3,0l.27,28.23a1.5,1.5,0,1,0,3,0Z"/><path class="cls-18" d="M645.51,641.47a1.5,1.5,0,1,0-3,0l.27,28.23a1.5,1.5,0,1,0,3,0Z"/><path class="cls-18" d="M652.25,641.41a1.5,1.5,0,0,0-3,0l.27,28.23a1.5,1.5,0,1,0,3,0Z"/><path class="cls-18" d="M659,641.34a1.5,1.5,0,0,0-3,0l.27,28.23a1.48,1.48,0,0,0,1.51,1.48h0a1.48,1.48,0,0,0,1.48-1.51Z"/><path class="cls-18" d="M665.74,641.28a1.5,1.5,0,0,0-1.51-1.49,1.51,1.51,0,0,0-1.49,1.52l.27,28.23a1.5,1.5,0,0,0,3,0Z"/><path class="cls-18" d="M672.49,641.21a1.5,1.5,0,0,0-3,0l.27,28.23a1.5,1.5,0,1,0,3,0Z"/><path class="cls-18" d="M679.23,641.15a1.5,1.5,0,1,0-3,0l.27,28.23a1.5,1.5,0,0,0,3,0Z"/><path class="cls-18" d="M686,641.09a1.5,1.5,0,1,0-3,0l.27,28.23a1.5,1.5,0,1,0,3,0Z"/><path class="cls-18" d="M692.72,641a1.5,1.5,0,0,0-3,0l.27,28.23a1.5,1.5,0,0,0,3,0Z"/><path class="cls-18" d="M699.47,641a1.5,1.5,0,1,0-3,0l.27,28.23a1.5,1.5,0,1,0,3,0Z"/><path class="cls-18" d="M706.21,640.89a1.5,1.5,0,0,0-3,0l.27,28.23a1.5,1.5,0,1,0,3,0Z"/><path class="cls-18" d="M713,640.83a1.5,1.5,0,1,0-3,0l.27,28.23a1.5,1.5,0,1,0,3,0Z"/><path class="cls-18" d="M719.7,640.77a1.5,1.5,0,0,0-3,0L717,669a1.5,1.5,0,1,0,3,0Z"/><path class="cls-18" d="M726.45,640.7a1.5,1.5,0,0,0-3,0l.27,28.23a1.5,1.5,0,1,0,3,0Z"/><path class="cls-18" d="M733.19,640.64a1.5,1.5,0,0,0-1.51-1.49,1.51,1.51,0,0,0-1.49,1.52l.27,28.23a1.5,1.5,0,0,0,3,0Z"/><path class="cls-18" d="M739.94,640.57a1.5,1.5,0,0,0-3,0l.27,28.23a1.5,1.5,0,1,0,3,0Z"/><path class="cls-6" d="M755.77,677.2a4,4,0,0,0-4.08-4L528,675.31a4.05,4.05,0,0,0-4,4.09l.13,13.39a4.05,4.05,0,0,0,4.09,4l223.73-2.12a4.05,4.05,0,0,0,4-4.09Z"/><path class="cls-19" d="M755.77,677.2a4,4,0,0,0-4.08-4l-53.46.51a4,4,0,0,1,4.08,4l.13,13.39a4,4,0,0,1-4,4.08l53.46-.5a4.05,4.05,0,0,0,4-4.09Z"/><path class="cls-20" d="M755.87,687.14,524,689.34l0,3.95a3.54,3.54,0,0,0,3.58,3.51l224.73-2.13a3.56,3.56,0,0,0,3.52-3.58Z"/><path class="cls-11" d="M755.87,687.14,524,689.34l0,3.95a3.54,3.54,0,0,0,3.58,3.51l224.73-2.13a3.56,3.56,0,0,0,3.52-3.58Z"/><path class="cls-5" d="M755.87,687.14l-52.21.5,0,4a3.55,3.55,0,0,1-3.51,3.58l52.21-.5a3.56,3.56,0,0,0,3.52-3.58Z"/><rect class="cls-6" x="565.66" y="598.37" width="29.35" height="29.35" transform="translate(-5.79 5.53) rotate(-0.54)"/><path class="cls-21" d="M580.45,604.36l-29.73.28a2.81,2.81,0,0,0,0,5.5l29.73-.28a2.81,2.81,0,0,0,0-5.5Z"/><path class="cls-21" d="M649.24,613.7l-98.43.94a2.8,2.8,0,0,0,.05,5.49l98.43-.93a2.81,2.81,0,0,0,0-5.5Z"/><path class="cls-16" d="M727.88,607.21l-30.48.29c-1.24,0-2.24,1.31-2.22,2.89h0c0,1.59,1,2.87,2.27,2.85l30.48-.28a2.62,2.62,0,0,0,2.22-2.9C730.14,608.47,729.12,607.2,727.88,607.21Z"/><path class="cls-6" d="M592.68,629.48l-27.23.26a2.5,2.5,0,1,0,0,5l27.23-.25a2.5,2.5,0,1,0,0-5Z"/><path class="cls-6" d="M580.43,603.11l-29.72.28a2.25,2.25,0,1,0,0,4.5l29.73-.28a2.25,2.25,0,0,0-.05-4.5Z"/><path class="cls-6" d="M649.23,612.45l-98.43.94a2.25,2.25,0,1,0,0,4.49l98.43-.93a2.25,2.25,0,0,0,0-4.5Z"/><path class="cls-6" d="M727.87,606.21l-30.48.29a2.25,2.25,0,0,0-2.23,2.27h0a2.26,2.26,0,0,0,2.27,2.23l30.48-.29a2.25,2.25,0,0,0,0-4.5Z"/><path class="cls-12" d="M592.84,778.45a9,9,0,0,0-9.08-8.91l-7.62.07a9,9,0,0,0-8.91,9.08l2.2,231a9,9,0,0,0,9.07,8.91l7.62-.07a9,9,0,0,0,8.91-9.08Z"/><rect class="cls-12" x="566.87" y="724.94" width="22.61" height="29.79" rx="8.99" transform="translate(-6.99 5.52) rotate(-0.54)"/><rect class="cls-22" x="620.49" y="785.66" width="114.67" height="126.32" transform="translate(-8.02 6.47) rotate(-0.54)"/><path class="cls-23" d="M708,785.37c6.89,33.72.35,66.59-19.2,87.79-18.38,19.92-42.24,25.38-42.24,25.38A78.29,78.29,0,0,1,621,900.07l.12,12.45,114.66-1.09-1.2-126.31Z"/><path class="cls-24" d="M668.43,839.28l-25,.23c-1.91,0-3.45,1.2-3.43,2.63s1.57,2.58,3.48,2.57l25-.24c1.9,0,3.44-1.2,3.43-2.63S670.33,839.26,668.43,839.28Z"/><path class="cls-24" d="M687.34,852.48l-43.81.42c-1.91,0-3.45,1.19-3.43,2.62h0c0,1.44,1.57,2.59,3.47,2.57l43.82-.42c1.91,0,3.45-1.19,3.43-2.63S689.25,852.46,687.34,852.48Z"/><path class="cls-24" d="M687.62,881.33l-43.82.41c-1.91,0-3.44,1.2-3.43,2.63s1.57,2.58,3.48,2.57l43.82-.42c1.9,0,3.44-1.2,3.43-2.63S689.53,881.31,687.62,881.33Z"/><path class="cls-24" d="M668.68,866.31l-25,.24c-1.91,0-3.45,1.19-3.44,2.63s1.58,2.58,3.48,2.56l25-.24c1.91,0,3.45-1.19,3.43-2.62S670.59,866.29,668.68,866.31Z"/><path class="cls-24" d="M713.73,865.88l-25,.24c-1.91,0-3.44,1.2-3.43,2.63s1.57,2.58,3.48,2.56l25-.23c1.91,0,3.44-1.2,3.43-2.63S715.64,865.87,713.73,865.88Z"/><path class="cls-24" d="M720.13,838.79l-38.34.36c-1.91,0-3.44,1.19-3.43,2.63s1.57,2.58,3.48,2.56l38.34-.36c1.9,0,3.44-1.2,3.43-2.63S722,838.77,720.13,838.79Z"/><path class="cls-5" d="M695.3,806.8l-48.48.46a6.09,6.09,0,1,0,.11,12.17l48.49-.46a6.09,6.09,0,1,0-.12-12.17Z"/></g><g id="Medicijnen_2" data-name="Medicijnen 2"><path class="cls-25" d="M1733.94,768.73l-153.63-36.89a36.91,36.91,0,0,0-44.51,27.26l-104.29,434.24a36.91,36.91,0,0,0,27.26,44.51l153.63,36.89a36.91,36.91,0,0,0,44.51-27.26L1761.2,813.24A36.91,36.91,0,0,0,1733.94,768.73Z"/><path class="cls-26" d="M1646.46,1210.81a36.9,36.9,0,0,1-44.5,27.27l-153.63-36.9a36.69,36.69,0,0,1-16.57-8.91l-.25,1.07a36.91,36.91,0,0,0,27.26,44.51l153.63,36.89a36.91,36.91,0,0,0,44.51-27.26L1761.2,813.24a36.89,36.89,0,0,0-10.7-35.6Z"/><circle class="cls-27" cx="1589.15" cy="810.92" r="33.21" transform="translate(-51.32 1512.26) rotate(-50.18)"/><path class="cls-28" d="M1616.73,811.67a33.18,33.18,0,0,1-57.25,14.12,33.19,33.19,0,1,0,54.63-36.74A33.08,33.08,0,0,1,1616.73,811.67Z"/><circle class="cls-26" cx="1589.15" cy="810.92" r="25.49" transform="translate(744.28 2382.29) rotate(-88.77)"/><path class="cls-27" d="M1606.35,807.11a25.49,25.49,0,0,1-40.52,14.1,25.49,25.49,0,1,0,39.05-30.34A25.42,25.42,0,0,1,1606.35,807.11Z"/><path class="cls-6" d="M1576.87,796.73c-3.53,3.71-4.19,8.81-1.48,11.38s7.76,1.64,11.28-2.07,4.19-8.81,1.48-11.38S1580.39,793,1576.87,796.73Z"/><circle class="cls-29" cx="1567.5" cy="901.04" r="33.21" transform="translate(-234.21 750.15) rotate(-25.1)"/><path class="cls-28" d="M1595.08,901.79a33.19,33.19,0,0,1-57.25,14.12,33.19,33.19,0,1,0,54.63-36.75A33.06,33.06,0,0,1,1595.08,901.79Z"/><circle class="cls-26" cx="1567.5" cy="901.04" r="25.49" transform="translate(311.71 2201.78) rotate(-75.9)"/><path class="cls-27" d="M1584.7,897.23a25.48,25.48,0,0,1-40.51,14.1,25.49,25.49,0,1,0,39-30.34A25.35,25.35,0,0,1,1584.7,897.23Z"/><path class="cls-6" d="M1555.22,886.85c-3.52,3.71-4.18,8.81-1.48,11.38s7.76,1.64,11.29-2.07,4.18-8.81,1.47-11.38S1558.75,883.14,1555.22,886.85Z"/><circle class="cls-29" cx="1545.86" cy="991.16" r="33.21" transform="translate(-110.48 1784.02) rotate(-58.25)"/><path class="cls-28" d="M1573.44,991.91a33.19,33.19,0,0,1-57.25,14.12,33.19,33.19,0,1,0,54.63-36.75A33.11,33.11,0,0,1,1573.44,991.91Z"/><path class="cls-26" d="M1551.81,966.38a25.48,25.48,0,1,0,18.83,30.73A25.47,25.47,0,0,0,1551.81,966.38Z"/><path class="cls-27" d="M1563.06,987.35a25.49,25.49,0,0,1-40.52,14.1,25.49,25.49,0,1,0,39-30.34A25.42,25.42,0,0,1,1563.06,987.35Z"/><path class="cls-6" d="M1533.58,977c-3.53,3.71-4.19,8.8-1.48,11.37s7.76,1.65,11.28-2.07,4.19-8.8,1.48-11.37S1537.1,973.26,1533.58,977Z"/><circle class="cls-30" cx="1524.21" cy="1081.28" r="33.21" transform="translate(-66.8 100.95) rotate(-3.71)"/><path class="cls-31" d="M1551.79,1082a33.19,33.19,0,0,1-57.25,14.12,33.19,33.19,0,1,0,54.63-36.75A33,33,0,0,1,1551.79,1082Z"/><path class="cls-32" d="M1530.17,1056.5a25.49,25.49,0,1,0,18.83,30.73A25.49,25.49,0,0,0,1530.17,1056.5Z"/><path class="cls-33" d="M1541.41,1077.47a25.48,25.48,0,0,1-40.51,14.1,25.49,25.49,0,1,0,39-30.34A25.35,25.35,0,0,1,1541.41,1077.47Z"/><path class="cls-34" d="M1511.93,1067.09c-3.52,3.71-4.18,8.8-1.48,11.37s7.76,1.65,11.29-2.07,4.18-8.8,1.47-11.37S1515.46,1063.38,1511.93,1067.09Z"/><circle class="cls-30" cx="1502.57" cy="1171.4" r="33.21" transform="translate(-376.04 1488.74) rotate(-47.53)"/><path class="cls-31" d="M1530.15,1172.14a33.19,33.19,0,0,1-57.25,14.13,33.19,33.19,0,1,0,54.63-36.75A33.08,33.08,0,0,1,1530.15,1172.14Z"/><circle class="cls-32" cx="1502.57" cy="1171.4" r="25.49" transform="translate(-18.56 2318.59) rotate(-74.96)"/><path class="cls-33" d="M1519.77,1167.59a25.49,25.49,0,0,1-40.52,14.1,25.49,25.49,0,1,0,39-30.34A25.35,25.35,0,0,1,1519.77,1167.59Z"/><path class="cls-34" d="M1490.29,1157.21c-3.53,3.71-4.19,8.8-1.48,11.37s7.76,1.64,11.28-2.07,4.19-8.8,1.48-11.37S1493.81,1153.49,1490.29,1157.21Z"/><circle class="cls-29" cx="1690.14" cy="835.18" r="33.21" transform="translate(-67.13 1517.9) rotate(-47.53)"/><path class="cls-28" d="M1717.72,835.93a33.19,33.19,0,0,1-57.25,14.12,33.19,33.19,0,1,0,54.63-36.75A33.11,33.11,0,0,1,1717.72,835.93Z"/><path class="cls-26" d="M1696.09,810.4a25.48,25.48,0,1,0,18.83,30.73A25.48,25.48,0,0,0,1696.09,810.4Z"/><path class="cls-27" d="M1707.34,831.37a25.48,25.48,0,0,1-40.51,14.1,25.48,25.48,0,1,0,39-30.34A25.35,25.35,0,0,1,1707.34,831.37Z"/><path class="cls-6" d="M1677.86,821c-3.52,3.71-4.19,8.8-1.48,11.37s7.76,1.65,11.28-2.07,4.19-8.8,1.48-11.37S1681.38,817.28,1677.86,821Z"/><circle class="cls-29" cx="1668.5" cy="925.3" r="33.21" transform="translate(-140.63 1531.2) rotate(-47.53)"/><path class="cls-28" d="M1696.07,926a33.19,33.19,0,0,1-57.25,14.13,33.19,33.19,0,1,0,54.63-36.75A33,33,0,0,1,1696.07,926Z"/><path class="cls-26" d="M1674.45,900.52a25.49,25.49,0,1,0,18.83,30.73A25.49,25.49,0,0,0,1674.45,900.52Z"/><path class="cls-27" d="M1685.7,921.49a25.49,25.49,0,0,1-40.52,14.1,25.49,25.49,0,1,0,39-30.34A25.42,25.42,0,0,1,1685.7,921.49Z"/><path class="cls-6" d="M1656.21,911.11c-3.52,3.71-4.18,8.8-1.47,11.37s7.75,1.64,11.28-2.07,4.18-8.8,1.48-11.37S1659.74,907.39,1656.21,911.11Z"/><circle class="cls-29" cx="1646.85" cy="1015.42" r="33.21" transform="translate(283.76 2388.44) rotate(-76.87)"/><path class="cls-28" d="M1674.43,1016.16a33.19,33.19,0,0,1-57.25,14.13,33.19,33.19,0,1,0,54.63-36.75A33.08,33.08,0,0,1,1674.43,1016.16Z"/><circle class="cls-26" cx="1646.85" cy="1015.42" r="25.49" transform="translate(399.9 2494.71) rotate(-81.53)"/><path class="cls-27" d="M1664.05,1011.61a25.48,25.48,0,0,1-40.51,14.1,25.48,25.48,0,1,0,39-30.34A25.35,25.35,0,0,1,1664.05,1011.61Z"/><path class="cls-6" d="M1634.57,1001.23c-3.52,3.71-4.19,8.8-1.48,11.37s7.76,1.64,11.28-2.07,4.19-8.8,1.48-11.37S1638.09,997.51,1634.57,1001.23Z"/><circle class="cls-30" cx="1625.21" cy="1105.54" r="33.21" transform="translate(413.1 2652.89) rotate(-86.15)"/><path class="cls-31" d="M1652.78,1106.28a33.19,33.19,0,0,1-57.25,14.13,33.19,33.19,0,1,0,54.63-36.75A33,33,0,0,1,1652.78,1106.28Z"/><circle class="cls-32" cx="1625.21" cy="1105.54" r="25.49" transform="translate(-289.92 1548.01) rotate(-47.23)"/><path class="cls-33" d="M1642.41,1101.73a25.48,25.48,0,0,1-40.52,14.09,25.48,25.48,0,1,0,39-30.33A25.42,25.42,0,0,1,1642.41,1101.73Z"/><path class="cls-34" d="M1612.93,1091.34c-3.53,3.72-4.19,8.81-1.48,11.38s7.75,1.64,11.28-2.07,4.18-8.81,1.48-11.37S1616.45,1087.63,1612.93,1091.34Z"/><circle class="cls-30" cx="1603.56" cy="1195.66" r="33.21" transform="translate(-282.38 1862.15) rotate(-56.17)"/><path class="cls-31" d="M1631.14,1196.4a33.18,33.18,0,0,1-57.25,14.12,33.19,33.19,0,1,0,54.63-36.74A33,33,0,0,1,1631.14,1196.4Z"/><path class="cls-32" d="M1609.51,1170.87a25.49,25.49,0,1,0,18.84,30.74A25.5,25.5,0,0,0,1609.51,1170.87Z"/><path class="cls-33" d="M1620.76,1191.84a25.48,25.48,0,0,1-30.73,18.83,25.19,25.19,0,0,1-9.78-4.73,25.49,25.49,0,1,0,39-30.34A25.36,25.36,0,0,1,1620.76,1191.84Z"/><path class="cls-34" d="M1591.28,1181.46c-3.52,3.72-4.19,8.81-1.48,11.38s7.76,1.64,11.28-2.07,4.19-8.81,1.48-11.38S1594.8,1177.75,1591.28,1181.46Z"/><polygon class="cls-6" points="1659.75 750.92 1654.49 749.65 1626.99 864.17 1516.92 837.73 1515.65 842.99 1625.73 869.43 1604.98 955.79 1494.91 929.35 1493.65 934.61 1603.72 961.04 1583.79 1044.02 1473.72 1017.59 1472.46 1022.84 1582.53 1049.28 1561.87 1135.29 1451.8 1108.85 1450.54 1114.11 1560.61 1140.55 1532.96 1255.66 1538.22 1256.93 1565.87 1141.81 1675.94 1168.24 1677.2 1162.99 1567.13 1136.55 1587.79 1050.54 1697.86 1076.98 1699.12 1071.72 1589.05 1045.29 1608.98 962.31 1719.05 988.74 1720.31 983.49 1610.24 957.05 1630.98 870.69 1741.06 897.13 1742.32 891.87 1632.25 865.43 1659.75 750.92"/><path class="cls-6" d="M1171.92,969.28s-14.65,7.21-18.4,6.42c-4.58-1-15-13.4-15-13.4s5.56,14.18,4.77,18c-1,4.57-11.74,15.4-11.74,15.4s13.43-5.71,18-4.75c3.77.78,15.35,11.72,15.35,11.72s-5.87-13.45-5-17.82C1160.83,980.84,1171.92,969.28,1171.92,969.28Z"/><path class="cls-11" d="M1193,864.1c-8.89-17.78-73.37-18.9-79.53,0-3.82,11.71-24.07,35-39.11,51.22a63,63,0,0,0-16.81,42.87v259.67a21.54,21.54,0,0,0,21.54,21.54h148.29a21.54,21.54,0,0,0,21.54-21.54v-260a63,63,0,0,0-16.3-42.32C1218.83,900.3,1200.21,878.49,1193,864.1Z"/><path class="cls-5" d="M1193,864.1c-5.51-11-32.37-15.64-53.47-13.06,8.93,13,22.22,28.44,32.72,40a62.92,62.92,0,0,1,16.31,42.32s15.25,219-2.23,252.66c-28.17,54.3-128.78,28.93-128.78,28.93v2.91a21.54,21.54,0,0,0,21.54,21.54h148.29a21.54,21.54,0,0,0,21.54-21.54v-260a63,63,0,0,0-16.3-42.32C1218.84,900.3,1200.21,878.49,1193,864.1Z"/><path class="cls-8" d="M1158.45,709.29h-12.9A21.72,21.72,0,0,0,1123.84,731v60.54a21.71,21.71,0,0,0,21.71,21.72s34.62-9.72,34.62-21.72V731A21.72,21.72,0,0,0,1158.45,709.29Z"/><path class="cls-8" d="M1187.34,785.4h-70.68a15.19,15.19,0,0,0-15.19,15.19v57.83h101.07V800.59A15.19,15.19,0,0,0,1187.34,785.4Z"/><path class="cls-5" d="M1187.34,785.4h-26.81a13.84,13.84,0,0,1,13.84,13.84V846h-72.9v12.42h101.07V800.59A15.19,15.19,0,0,0,1187.34,785.4Z"/><path class="cls-9" d="M1204.36,850.34H1099.65a9,9,0,0,0,0,17.91h104.71a9,9,0,0,0,0-17.91Z"/><path class="cls-12" d="M1090.9,959.28a10.59,10.59,0,0,0-10.56,10.56v205.62a10.57,10.57,0,0,0,21.13,0V969.84A10.6,10.6,0,0,0,1090.9,959.28Z"/><path class="cls-12" d="M1109.64,905.77c-5.78-2.35-13.43,3-17.08,12s-1.93,18.15,3.86,20.51,13.42-3,17.07-12S1115.42,908.12,1109.64,905.77Z"/><rect class="cls-12" x="1111.15" y="794.61" width="10.7" height="43.47" rx="5.35"/><path class="cls-12" d="M1136.51,723.78a3.63,3.63,0,0,0-3.63,3.62v40.7a3.63,3.63,0,0,0,7.25,0V727.4A3.63,3.63,0,0,0,1136.51,723.78Z"/><path class="cls-5" d="M1158.45,709.29l.3,76.6s21.91-.32,21.93,0l-.51-.54V731A21.72,21.72,0,0,0,1158.45,709.29Z"/></g><g id="Pillen"><path class="cls-12" d="M537,775.39l-270.17,57.9a26.26,26.26,0,0,0-20.18,31.17l85.95,401.06a26.26,26.26,0,0,0,31.18,20.17L634,1227.79a26.26,26.26,0,0,0,20.17-31.18l-85.94-401A26.26,26.26,0,0,0,537,775.39Z"/><path class="cls-9" d="M537.84,775.24c24.6,80.61,69.74,275.18,19.95,360.3-45.95,78.56-128,125-223.12,135.91a26.27,26.27,0,0,0,29.14,14.24L634,1227.79a26.26,26.26,0,0,0,20.17-31.18l-85.94-401A26.25,26.25,0,0,0,537.84,775.24Z"/><path class="cls-6" d="M403.73,812.69a5.48,5.48,0,0,0-4.2,6.51l91.82,428.46a5.47,5.47,0,0,0,6.5,4.21h0a5.48,5.48,0,0,0,4.21-6.5L410.24,816.9A5.49,5.49,0,0,0,403.73,812.69Z"/><path class="cls-9" d="M361.09,838.52,298.41,852a26.06,26.06,0,0,0,10.92,51L372,889.48a26.06,26.06,0,0,0-10.92-51Z"/><path class="cls-8" d="M386.11,852.7a26.09,26.09,0,0,1-20,30.94l-62.67,13.43a26,26,0,0,1-20.58-4.27,26.11,26.11,0,0,0,26.49,10.11L372,889.48a26,26,0,0,0,9.65-46.69A26.06,26.06,0,0,1,386.11,852.7Z"/><path class="cls-11" d="M363,847.44l-62.67,13.43a17,17,0,0,0-13,20.11h0a17,17,0,0,0,20.1,13l62.67-13.43a17,17,0,0,0,13-20.1h0A17,17,0,0,0,363,847.44Z"/><path class="cls-5" d="M363,847.44l-31.34,6.72,7.1,33.11,31.33-6.72A16.93,16.93,0,1,0,363,847.44Z"/><path class="cls-35" d="M368.36,872.45l-62.67,13.43A17,17,0,0,1,287,876.82,16.91,16.91,0,0,0,307.42,894l62.67-13.43a16.93,16.93,0,0,0,11.64-24A17,17,0,0,1,368.36,872.45Z"/><path class="cls-36" d="M357.22,853.41,305.47,864.5a2.68,2.68,0,0,0,1.12,5.24l51.76-11.09a2.68,2.68,0,1,0-1.13-5.24Z"/><path class="cls-9" d="M380.21,927.76l-62.67,13.43a26.05,26.05,0,1,0,10.92,50.95l62.67-13.43a26.05,26.05,0,1,0-10.92-51Z"/><path class="cls-8" d="M405.23,941.93a26.09,26.09,0,0,1-20,30.94L322.54,986.3A26,26,0,0,1,302,982a26.08,26.08,0,0,0,26.49,10.1l62.67-13.43A26,26,0,0,0,400.78,932,26,26,0,0,1,405.23,941.93Z"/><path class="cls-11" d="M382.12,936.68l-62.67,13.43a16.93,16.93,0,1,0,7.1,33.11l62.67-13.43a16.93,16.93,0,0,0-7.1-33.11Z"/><path class="cls-5" d="M382.12,936.68l-31.33,6.71,7.09,33.11,31.34-6.71a16.93,16.93,0,0,0-7.1-33.11Z"/><path class="cls-35" d="M387.48,961.69l-62.67,13.43a17,17,0,0,1-18.73-9.07,16.81,16.81,0,0,0,.36,4.16,17,17,0,0,0,20.11,13l62.67-13.43a17,17,0,0,0,13-20.1,16.78,16.78,0,0,0-1.37-4A17,17,0,0,1,387.48,961.69Z"/><path class="cls-36" d="M376.35,942.64l-51.76,11.09a2.69,2.69,0,0,0-2.06,3.19h0a2.69,2.69,0,0,0,3.19,2.05l51.75-11.09a2.68,2.68,0,1,0-1.12-5.24Z"/><path class="cls-37" d="M399.33,1017l-62.67,13.43a26.06,26.06,0,0,0,10.92,51L410.25,1068a26.06,26.06,0,1,0-10.92-51Z"/><path class="cls-38" d="M424.35,1031.17a26.09,26.09,0,0,1-20,30.94l-62.67,13.43a26,26,0,0,1-20.57-4.27,26.09,26.09,0,0,0,26.49,10.11L410.25,1068a26,26,0,0,0,9.65-46.69A25.76,25.76,0,0,1,424.35,1031.17Z"/><path class="cls-39" d="M401.24,1025.92l-62.67,13.43a17,17,0,0,0-13,20.1h0a17,17,0,0,0,20.1,13L408.34,1059a17,17,0,0,0,13-20.1h0A17,17,0,0,0,401.24,1025.92Z"/><path class="cls-40" d="M401.24,1025.92l-31.33,6.71,7.09,33.11,31.34-6.72a16.93,16.93,0,1,0-7.1-33.1Z"/><path class="cls-35" d="M406.6,1050.92l-62.67,13.43a17,17,0,0,1-18.73-9.06,16.94,16.94,0,0,0,20.47,17.16L408.34,1059A16.9,16.9,0,0,0,420,1035,17,17,0,0,1,406.6,1050.92Z"/><path class="cls-36" d="M395.47,1031.88,343.72,1043a2.68,2.68,0,1,0,1.12,5.24l51.75-11.09a2.68,2.68,0,0,0-1.12-5.24Z"/><path class="cls-37" d="M418.46,1106.23l-62.68,13.43a26.05,26.05,0,0,0,10.92,50.95l62.68-13.43a26.05,26.05,0,0,0-10.92-51Z"/><path class="cls-38" d="M443.48,1120.41a26.09,26.09,0,0,1-20,30.94l-62.67,13.43a26,26,0,0,1-20.57-4.27,26.06,26.06,0,0,0,26.48,10.1l62.68-13.43A26,26,0,0,0,439,1110.5,26.06,26.06,0,0,1,443.48,1120.41Z"/><path class="cls-39" d="M420.37,1115.15l-62.67,13.43a16.93,16.93,0,0,0,7.09,33.11l62.67-13.43a16.93,16.93,0,1,0-7.09-33.11Z"/><path class="cls-40" d="M420.37,1115.15,389,1121.87l7.1,33.11,31.33-6.72a16.93,16.93,0,1,0-7.09-33.11Z"/><path class="cls-35" d="M425.73,1140.16l-62.67,13.43a17,17,0,0,1-18.73-9.06,16.78,16.78,0,0,0,.36,4.15,17,17,0,0,0,20.1,13l62.67-13.43a16.93,16.93,0,0,0,11.64-24A17,17,0,0,1,425.73,1140.16Z"/><path class="cls-36" d="M414.59,1121.11l-51.75,11.1a2.68,2.68,0,1,0,1.12,5.24l51.76-11.09a2.69,2.69,0,1,0-1.13-5.25Z"/><path class="cls-37" d="M437.58,1195.46l-62.67,13.43a26.06,26.06,0,0,0,10.92,51l62.67-13.43a26.06,26.06,0,1,0-10.92-51Z"/><path class="cls-38" d="M462.6,1209.64a26.09,26.09,0,0,1-20,30.94L379.91,1254a25.94,25.94,0,0,1-20.57-4.27,26.09,26.09,0,0,0,26.49,10.11l62.67-13.43a26,26,0,0,0,9.65-46.69A25.91,25.91,0,0,1,462.6,1209.64Z"/><path class="cls-39" d="M439.49,1204.39l-62.67,13.43a17,17,0,0,0-13,20.1h0a17,17,0,0,0,20.11,13l62.67-13.43a17,17,0,0,0,13-20.11h0A17,17,0,0,0,439.49,1204.39Z"/><path class="cls-40" d="M439.49,1204.39l-31.33,6.71,7.09,33.11,31.34-6.71a16.93,16.93,0,0,0-7.1-33.11Z"/><path class="cls-35" d="M444.85,1229.4l-62.67,13.43a17,17,0,0,1-18.73-9.07,16.92,16.92,0,0,0,20.47,17.17l62.67-13.43a16.94,16.94,0,0,0,11.63-24A17,17,0,0,1,444.85,1229.4Z"/><path class="cls-36" d="M433.72,1210.35,382,1221.44a2.68,2.68,0,1,0,1.13,5.24l51.75-11.09a2.68,2.68,0,0,0-1.12-5.24Z"/><path class="cls-9" d="M515.89,805.34l-62.67,13.43a26.06,26.06,0,0,0,10.92,51l62.67-13.43a26.06,26.06,0,1,0-10.92-51Z"/><path class="cls-8" d="M540.91,819.52a26.09,26.09,0,0,1-20,30.94l-62.67,13.43a26,26,0,0,1-20.57-4.27,26.09,26.09,0,0,0,26.49,10.11l62.67-13.43a26,26,0,0,0,9.65-46.69A25.76,25.76,0,0,1,540.91,819.52Z"/><path class="cls-11" d="M517.8,814.27,455.13,827.7a16.93,16.93,0,0,0,7.1,33.11l62.67-13.43a16.93,16.93,0,1,0-7.1-33.11Z"/><path class="cls-5" d="M517.8,814.27,486.47,821l7.09,33.11,31.34-6.71a16.93,16.93,0,1,0-7.1-33.11Z"/><path class="cls-35" d="M523.16,839.28l-62.67,13.43a17,17,0,0,1-18.73-9.07,17,17,0,0,0,20.47,17.17l62.67-13.43a16.9,16.9,0,0,0,11.63-24A17,17,0,0,1,523.16,839.28Z"/><path class="cls-36" d="M512,820.23l-51.75,11.09a2.68,2.68,0,1,0,1.12,5.24l51.75-11.09a2.68,2.68,0,0,0-1.12-5.24Z"/><path class="cls-9" d="M535,894.58,472.34,908a26.06,26.06,0,0,0,10.92,51l62.68-13.43a26.06,26.06,0,0,0-10.92-51Z"/><path class="cls-8" d="M560,908.76a26.09,26.09,0,0,1-20,30.94l-62.67,13.43a26,26,0,0,1-20.58-4.27A26.11,26.11,0,0,0,483.26,959l62.68-13.43a26,26,0,0,0,9.65-46.69A26.06,26.06,0,0,1,560,908.76Z"/><path class="cls-11" d="M536.93,903.5l-62.67,13.43a17,17,0,0,0-13,20.11h0a17,17,0,0,0,20.1,13L544,936.61a17,17,0,0,0,13-20.1h0A17,17,0,0,0,536.93,903.5Z"/><path class="cls-5" d="M536.93,903.5l-31.34,6.72,7.1,33.11L544,936.61a16.93,16.93,0,1,0-7.09-33.11Z"/><path class="cls-35" d="M542.29,928.51l-62.67,13.43a17,17,0,0,1-18.73-9.06A16.91,16.91,0,0,0,481.35,950L544,936.61a16.93,16.93,0,0,0,11.64-24A17,17,0,0,1,542.29,928.51Z"/><path class="cls-36" d="M531.15,909.47,479.4,920.56a2.68,2.68,0,1,0,1.12,5.24l51.76-11.09a2.68,2.68,0,1,0-1.13-5.24Z"/><path class="cls-9" d="M554.14,983.82l-62.67,13.43a26.05,26.05,0,1,0,10.92,51l62.67-13.43a26.05,26.05,0,1,0-10.92-50.95Z"/><path class="cls-8" d="M579.16,998a26.08,26.08,0,0,1-20,30.93l-62.67,13.43a26,26,0,0,1-20.57-4.26,26.08,26.08,0,0,0,26.49,10.1l62.67-13.43a26,26,0,0,0,9.65-46.69A26,26,0,0,1,579.16,998Z"/><path class="cls-11" d="M556.05,992.74l-62.67,13.43a16.93,16.93,0,1,0,7.1,33.11l62.67-13.43a16.93,16.93,0,0,0-7.1-33.11Z"/><path class="cls-5" d="M556.05,992.74l-31.33,6.71,7.09,33.11,31.34-6.71a16.93,16.93,0,0,0-7.1-33.11Z"/><path class="cls-35" d="M561.41,1017.75l-62.67,13.43a17,17,0,0,1-18.73-9.07,16.81,16.81,0,0,0,.36,4.16,17,17,0,0,0,20.11,13l62.67-13.43a17,17,0,0,0,13-20.1,16.78,16.78,0,0,0-1.37-4A17,17,0,0,1,561.41,1017.75Z"/><path class="cls-36" d="M550.28,998.7l-51.76,11.09a2.69,2.69,0,1,0,1.13,5.25l51.75-11.1a2.68,2.68,0,1,0-1.12-5.24Z"/><path class="cls-37" d="M573.26,1073.05l-62.67,13.43a26.06,26.06,0,0,0,10.92,51L584.18,1124a26.06,26.06,0,1,0-10.92-51Z"/><path class="cls-38" d="M598.28,1087.23a26.09,26.09,0,0,1-20,30.94l-62.67,13.43a26,26,0,0,1-20.57-4.27,26.09,26.09,0,0,0,26.49,10.11L584.18,1124a26,26,0,0,0,9.65-46.69A25.76,25.76,0,0,1,598.28,1087.23Z"/><path class="cls-39" d="M575.17,1082l-62.67,13.43a17,17,0,0,0-13,20.1h0a17,17,0,0,0,20.1,13l62.67-13.44a17,17,0,0,0,13-20.1h0A17,17,0,0,0,575.17,1082Z"/><path class="cls-40" d="M575.17,1082l-31.33,6.71,7.09,33.11,31.34-6.72a16.93,16.93,0,1,0-7.1-33.1Z"/><path class="cls-35" d="M580.53,1107l-62.67,13.43a17,17,0,0,1-18.72-9.06,16.39,16.39,0,0,0,.36,4.16,17,17,0,0,0,20.1,13l62.67-13.44a16.9,16.9,0,0,0,11.63-24A17,17,0,0,1,580.53,1107Z"/><path class="cls-36" d="M569.4,1087.94,517.65,1099a2.68,2.68,0,1,0,1.12,5.24l51.75-11.09a2.68,2.68,0,1,0-1.12-5.24Z"/><path class="cls-37" d="M592.39,1162.29l-62.68,13.43a26.06,26.06,0,0,0,10.93,51l62.67-13.43a26.06,26.06,0,0,0-10.92-51Z"/><path class="cls-38" d="M617.41,1176.47a26.09,26.09,0,0,1-20,30.94l-62.67,13.43a26,26,0,0,1-20.57-4.27,26.1,26.1,0,0,0,26.49,10.11l62.67-13.43a26,26,0,0,0,9.65-46.69A26.06,26.06,0,0,1,617.41,1176.47Z"/><path class="cls-39" d="M594.3,1171.21l-62.67,13.43a16.93,16.93,0,0,0,7.09,33.11l62.67-13.43a16.93,16.93,0,1,0-7.09-33.11Z"/><path class="cls-40" d="M594.3,1171.21,563,1177.93l7.1,33.11,31.33-6.72a16.93,16.93,0,1,0-7.09-33.11Z"/><path class="cls-35" d="M599.66,1196.22,537,1209.65a17,17,0,0,1-18.73-9.06,16.78,16.78,0,0,0,.36,4.15,17,17,0,0,0,20.1,13l62.67-13.43a16.93,16.93,0,0,0,11.64-24A17,17,0,0,1,599.66,1196.22Z"/><path class="cls-36" d="M588.52,1177.17l-51.75,11.1a2.68,2.68,0,1,0,1.12,5.24l51.76-11.09a2.69,2.69,0,0,0-1.13-5.25Z"/></g><g id="Mandje_2" data-name="Mandje 2"><path class="cls-41" d="M1468.12,1763.52H537.28c-106.11,0-106.54-49.48-122.25-116.34L296.44,1142.35H1694.71l-103.82,502.44C1576.85,1712.73,1575.66,1763.52,1468.12,1763.52Z"/><path class="cls-3" d="M1750.54,1205.69H257.85c-39.89,0-49.54-32.64-49.54-72.53v-40.82c0-39.89,9.65-72.53,49.54-72.53H1750.54c39.89,0,49.53,32.64,49.53,72.53v40.81C1800.07,1173.05,1790.43,1205.69,1750.54,1205.69Z"/><rect class="cls-42" x="960.04" y="498.34" width="105.14" height="675.29" rx="48.47"/><circle class="cls-43" cx="1012.61" cy="1115.85" r="24.75"/><path class="cls-44" d="M1570.2,1308.47h-86.68l4.65-39.1a25.41,25.41,0,1,0-50.47-6l-5.36,45.1H1300.22v-39.29a25.42,25.42,0,0,0-50.83,0v39.29H1124.86v-39.29a25.42,25.42,0,0,0-50.83,0v39.29H949.5v-39.29a25.42,25.42,0,0,0-50.83,0v39.29H774.14v-39.29a25.42,25.42,0,0,0-50.83,0v39.29H588.9l-5.37-45.1a25.41,25.41,0,1,0-50.47,6l4.65,39.1H439.27a25.42,25.42,0,0,0,0,50.83H543.75l9.34,78.58H467.4a25.42,25.42,0,0,0,0,50.83h91.73l8.68,73H495.54a25.42,25.42,0,1,0,0,50.83h78.31l7,59.17a25.42,25.42,0,0,0,25.21,22.41,25.92,25.92,0,0,0,3-.18,25.41,25.41,0,0,0,22.24-28.24L625,1612.5h98.27v56.17a25.42,25.42,0,0,0,50.83,0V1612.5H898.67v56.17a25.42,25.42,0,0,0,50.83,0V1612.5H1074v56.17a25.42,25.42,0,0,0,50.83,0V1612.5h124.53v56.17a25.42,25.42,0,0,0,50.83,0V1612.5h96l-6.32,53.16a25.42,25.42,0,0,0,22.24,28.24,25.92,25.92,0,0,0,3,.18,25.42,25.42,0,0,0,25.21-22.41l7-59.17h63.74a25.42,25.42,0,0,0,0-50.83h-57.7l8.68-73h74.34a25.42,25.42,0,0,0,0-50.83h-68.3l9.34-78.58h92.72a25.42,25.42,0,0,0,0-50.83Zm-320.81,50.83v78.58H1124.86V1359.3Zm-175.36,0v78.58H949.5V1359.3Zm-175.36,0v78.58H774.14V1359.3Zm-303.73,0H723.31v78.58h-119ZM619,1561.67l-8.68-73h113v73Zm155.14,0v-73H898.67v73Zm175.36,0v-73H1074v73Zm175.36,0v-73h124.53v73Zm277.38,0h-102v-73h110.69ZM1417,1437.88H1300.22V1359.3h126.07Z"/><line class="cls-45" x1="348.69" y1="1759.9" x2="1660.32" y2="1759.9"/></g><g id="Tekst"><path class="cls-6" d="M531.25,146.17h48c45.28,0,76.56,31.08,76.56,71.62v.41c0,40.54-31.28,72-76.56,72h-48Zm10.7,9.88v124.3H579.2c40.13,0,65.44-27.37,65.44-61.74v-.41c0-34.16-25.31-62.15-65.44-62.15Z"/><path class="cls-6" d="M689.92,185.27H700v29.84c8.23-18.73,25.72-32.31,46.51-31.48v11.11h-1c-24.29,0-45.48,18.31-45.48,52.48v43H689.92Z"/><path class="cls-6" d="M759.89,238.16v-.41c0-29.43,22.85-54.95,54.13-54.95,31.07,0,53.71,25.11,53.71,54.54v.41c0,29.43-22.84,54.95-54.12,54.95C782.53,292.7,759.89,267.59,759.89,238.16Zm96.93,0v-.41c0-25.31-18.93-45.48-43.21-45.48-24.9,0-42.81,20.37-42.81,45.07v.41c0,25.31,18.93,45.48,43.22,45.48C838.92,283.23,856.82,262.86,856.82,238.16Z"/><path class="cls-6" d="M896.75,307.51l6-8.23c12.55,9.68,27,14.82,42.39,14.82,24.08,0,41.16-13.79,41.16-40.75V258.12c-9,13-23,24.29-43.83,24.29C917.13,282.41,892,263.06,892,233v-.42c0-30.25,25.11-49.8,50.42-49.8,21,0,35.19,11.12,43.83,23.46v-21h10.09V274c0,15.23-4.94,27.16-13.38,35.6-9.06,9.06-22.64,14-38.07,14A79.22,79.22,0,0,1,896.75,307.51Zm90.14-74.7v-.41c0-24.28-21.61-39.93-43.42-39.93-22,0-40.54,15.23-40.54,39.72v.41c0,23.67,18.93,40.14,40.54,40.14C965.28,272.74,986.89,256.68,986.89,232.81Z"/><path class="cls-6" d="M1034.84,144.11h12.55V157.9h-12.55Zm1.23,41.16h10.09v105h-10.09Z"/><path class="cls-6" d="M1076.82,277.06l6-8c11.52,8.85,24.28,13.79,37.66,13.79,14.2,0,25.31-7.82,25.31-20v-.41c0-12.35-13.17-16.88-27.78-21-17.08-4.94-36-10.08-36-28.81v-.41c0-16.87,14.2-29,34.57-29,12.55,0,26.75,4.53,37.25,11.53l-5.35,8.44c-9.67-6.38-21.2-10.5-32.31-10.5-14.41,0-23.87,7.82-23.87,18.32v.41c0,11.73,14.2,16.05,29.22,20.37,16.88,4.73,34.57,10.91,34.57,29.43v.41c0,18.73-16,30.67-36.22,30.67C1104.6,292.29,1087.94,286.11,1076.82,277.06Z"/><path class="cls-6" d="M1191.66,263.27V194.53h-15.23v-9.26h15.23V151.73h10.08v33.54h36.84v9.26h-36.84v67.71c0,15,8.85,20.37,21,20.37,5.15,0,9.47-1,15.44-3.7v9.46a38.54,38.54,0,0,1-17.08,3.71C1204.83,292.08,1191.66,283.23,1191.66,263.27Z"/><path class="cls-6" d="M1258.13,238v-.42c0-30.45,21.4-54.74,49.8-54.74,29.43,0,48.16,23.87,48.16,54.95a25.81,25.81,0,0,1-.21,4.12h-87.05c1.85,26.13,20.58,41.36,41.16,41.36,16.26,0,27.37-7.2,36-16.46l7,6.17c-10.7,11.52-23.25,19.76-43.42,19.76C1282,292.7,1258.13,270.68,1258.13,238Zm87-5.15c-1.44-21.2-13.58-40.75-37.66-40.75-20.78,0-36.84,17.5-38.69,40.75Z"/><path class="cls-6" d="M1385.52,185.27h10.08v19.55c7-12.35,18.73-22,37.87-22,26.55,0,42,18.11,42,43.22v64.21h-10.08V227.87c0-21.61-12.14-35.81-33.34-35.81-20.58,0-36.43,15.64-36.43,37.46v60.71h-10.08Z"/><text/></g></g></svg>