<svg xmlns="http://www.w3.org/2000/svg" viewBox="0 0 2000 2000"><defs><style>.cls-1{fill:#0099b8;}.cls-12,.cls-2,.cls-5,.cls-6{fill:none;stroke-linecap:round;}.cls-2{stroke:#b6b6b6;stroke-width:10px;}.cls-3{fill:#b6e2eb;}.cls-4{fill:#ad81be;}.cls-5{stroke:#0099b8;}.cls-5,.cls-6{stroke-linejoin:round;stroke-width:12.76px;}.cls-6{stroke:#92d3e1;}.cls-7{fill:#6dc5d6;}.cls-8{fill:#84429d;}.cls-9{fill:#d87e7c;}.cls-10{fill:#e2857e;}.cls-11{fill:#541a6a;}.cls-12{stroke:#494949;stroke-miterlimit:10;stroke-width:12px;}.cls-13{fill:#9961ae;}.cls-14{fill:#ebdfef;}.cls-15{fill:#c2a0ce;}.cls-16{fill:#fff;}</style></defs><g id="Layer_2" data-name="Layer 2"><g id="Achtergrond"><polygon class="cls-1" points="2000 2000 0 2000 0 0 1710 0 2000 289.99 2000 2000"/><line class="cls-2" x1="1762.88" y1="66.1" x2="1947.12" y2="66.1"/><line class="cls-2" x1="1762.88" y1="107.37" x2="1947.12" y2="107.37"/><line class="cls-2" x1="1762.88" y1="148.64" x2="1947.12" y2="148.64"/><line class="cls-2" x1="1762.88" y1="189.91" x2="1947.12" y2="189.91"/><polygon class="cls-3" points="2000 290 1710 290 1710 0 2000 290"/></g><g id="Tafel"><polygon class="cls-4" points="2.56 1210.26 692.31 1010.26 1443.59 1051.28 1997.44 1189.74 2000 2000 0 2000 2.56 1210.26"/></g><g id="Boek"><path class="cls-3" d="M373.81,610.09S926,819.29,942.85,825.4s5.61,30.06,67.77,29.55c55-.45,45.34-25,66.74-32.1,9.17-2.54,570.3-215.71,570.3-215.71l2.95,754.87-569.1,174s-14.87,22.16-66.82,23.6c-55,1.53-65.88-20.65-74.72-23.6s-554.36-168.08-554.36-168.08Z"/><path class="cls-5" d="M1087.3,1516c-4.58-222.82-5-444.83-9.59-667.66"/><path class="cls-5" d="M945.94,1518.37c2-216.82-7.56-455.63-5.59-672.45"/><path class="cls-6" d="M432.23,582S984.52,812.8,1010,812.8,1604.58,582,1604.58,582"/><path class="cls-6" d="M462.8,550.34s526.57,262.48,547.46,262.48,543.88-256.37,543.88-256.37"/><polygon class="cls-7" points="1185.04 880.33 1540.72 743.23 1544.69 987.63 1187.03 1136.66 1185.04 880.33"/></g><g id="Gezicht"><path class="cls-8" d="M656.16,642s67.34-21.26,120.51-31.9,237.47-10.63,237.47-10.63l-3.88,213.37Z"/><path class="cls-8" d="M1365,642s-67.35-21.26-120.51-31.9-237.47-10.63-237.47-10.63l3.88,213.37Z"/><path class="cls-9" d="M823.63,383.69c-1,1.38-49.18,0-66.48,16.67-25.21,24.3,1.73,119.63,48.23,118.49"/><path class="cls-9" d="M1196.73,383.69c1,1.38,49.18,0,66.48,16.67,25.21,24.3-1.73,119.63-48.23,118.49"/><path class="cls-9" d="M1194.46,383.69c-1,1.38-49.18,0-66.49,16.67-25.21,24.3,1.73,119.63,48.24,118.49"/><path class="cls-10" d="M1207.79,363.49c-2.7-110-93.36-179.9-203-177.21s-196.82,76.91-194.12,187c0,0-5.17,140.62-5,147.43,2.56,104.57,133.83,234.08,213,232.14,91.43-2.25,203.33-163.1,201.38-242.31C1219.89,503.68,1207.79,363.49,1207.79,363.49Z"/><path class="cls-11" d="M797.93,429.32s-41.73-155.12,3.55-248.1c57-116.95,244-129.62,371.87-60.27,98.44,53.41,51.68,310.14,51.68,310.14l-202-74.43-42.53-14.17-23.93,20.38-6-10.38-12.59-22.41-19.25,13.33-18-22.19-21.37,11-8.76-18.07Z"/><path class="cls-10" d="M382.89,1074.58s32.62-.11,57.44-3.21,45.77-8.58,53.07-20.37c7-11.26,11.8-80.53,11.8-80.53s4.67-30.13-13.94-33.24-58.58,4.83-77.2,4.83-35.64-1.5-35.64-1.5l-.27-23.7s-37.14-1.12-55.76,26.81-4.53,99,6.35,115.37C337.32,1071.9,388.82,1075.44,382.89,1074.58Z"/><path class="cls-10" d="M1644.72,1079s-32.63-.11-57.45-3.21-45.77-8.58-53.07-20.38c-7-11.25-11.8-80.52-11.8-80.52s-4.67-30.14,13.94-33.24,58.58,4.83,77.2,4.83,35.64-1.5,35.64-1.5l.28-23.7s37.13-1.12,55.75,26.8,4.53,99-6.35,115.38C1690.28,1076.31,1638.78,1079.85,1644.72,1079Z"/><path class="cls-6" d="M462.8,550.34s526.57,262.48,547.46,262.48,543.88-256.37,543.88-256.37"/><line class="cls-12" x1="1043.4" y1="671.71" x2="983.47" y2="671.9"/></g><g id="ogen"><circle class="cls-13" cx="930.55" cy="489.92" r="73.52" transform="translate(426.7 1413) rotate(-89.14)"/><path class="cls-8" d="M982.36,437.76,878.74,542.08A73.52,73.52,0,0,0,982.36,437.76Z"/><path class="cls-14" d="M885.63,535.14a63.74,63.74,0,1,1,90.14-.31A63.82,63.82,0,0,1,885.63,535.14Z"/><path class="cls-13" d="M982.36,437.76c-8.08,19.62-5,13.38-83.27,92.15-4.76,4.86-15.26,9.9-20.35,12.17,0,0,1-2.26,2.88-6.05,6.68-13.19,5.68-10.94,9.15-14.39C967.44,444.45,963.45,445.69,982.36,437.76Z"/><path class="cls-15" d="M982.36,437.76,878.74,542.08c5.09-2.27,15.59-7.31,20.35-12.17C977.33,451.14,974.28,457.38,982.36,437.76Z"/><circle class="cls-13" cx="1095.16" cy="484.16" r="73.52" transform="translate(542.68 1546.5) rotate(-86.37)"/><path class="cls-8" d="M1149.42,434.56l-108.52,99.2a73.51,73.51,0,1,0,108.52-99.2Z"/><path class="cls-14" d="M1048.11,527.17a63.74,63.74,0,1,1,90.05,4A63.83,63.83,0,0,1,1048.11,527.17Z"/><path class="cls-13" d="M1149.42,434.56c-9,19.21-5.67,13.13-87.61,88-5,4.63-15.73,9.15-20.91,11.17,0,0,1.09-2.21,3.16-5.9,7.31-12.86,6.21-10.65,9.84-13.93C1134.2,440.53,1130.16,441.57,1149.42,434.56Z"/><path class="cls-15" d="M1149.42,434.56l-108.52,99.2c5.18-2,15.92-6.54,20.91-11.17C1143.75,447.69,1140.4,453.77,1149.42,434.56Z"/></g><g id="Tekst"><path class="cls-16" d="M392.59,1762.84h10v53.44c-12.85,12.24-31.41,18.36-51,18.36-43,0-74.66-30.8-74.66-72.42s31.62-72.41,74.87-72.41c20.6,0,38.76,6.52,51.41,19.58l-6.53,6.94c-12.45-12.24-27.34-16.94-44.68-16.94-37.12,0-64.66,26.93-64.66,62.83,0,35.7,27.54,62.84,64.66,62.84,15.1,0,29-3.68,40.6-13.06Z"/><path class="cls-16" d="M532.94,1782.83H441.35c1,25.29,19.58,42.43,45.08,42.43,13.46,0,25.91-4.9,34.07-14.89l5.91,6.73c-9.38,11.42-24.07,17.34-40.19,17.34-32.23,0-54.87-22.44-54.87-54.06s21.83-54.06,51-54.06,50.79,22,50.79,53.65C533.14,1780.79,532.94,1781.81,532.94,1782.83Zm-91.39-8h81.6c-1.43-23-18.16-39.57-40.8-39.57S443.18,1751.62,441.55,1774.87Z"/><path class="cls-16" d="M633.71,1824.85v8.77H549.06v-6.93l70.17-90.78H550.08v-8.77h82.41v6.93l-70.38,90.78Z"/><path class="cls-16" d="M648.81,1780.38c0-31.62,22.65-54.06,53.25-54.06s53.24,22.44,53.24,54.06-22.65,54.06-53.24,54.06S648.81,1812,648.81,1780.38Zm96.08,0c0-26.72-18.35-44.88-42.83-44.88s-42.84,18.16-42.84,44.88,18.36,44.88,42.84,44.88S744.89,1807.1,744.89,1780.38Z"/><path class="cls-16" d="M880.15,1771.4v62.22H870v-61.4c0-24.07-12.86-36.72-34.48-36.72-25.09,0-40.39,16.12-40.39,41.41v56.71h-10.2V1727.14h9.79v23c7.14-14.89,22-23.87,42.23-23.87C862.81,1726.32,880.15,1741.62,880.15,1771.4Z"/><path class="cls-16" d="M1015,1682.26v151.36h-10v-25.09c-8.36,16.53-24.48,25.91-43.66,25.91-30,0-52.63-22.24-52.63-54.06,0-32,22.65-54.06,52.63-54.06,19,0,34.89,9.39,43.46,25.5v-69.56Zm-10.2,98.12c0-26.72-18.36-44.88-42.84-44.88s-42.84,18.16-42.84,44.88,18.36,44.88,42.84,44.88S1004.79,1807.1,1004.79,1780.38Z"/><path class="cls-16" d="M1146,1782.83h-91.59c1,25.29,19.58,42.43,45.08,42.43,13.46,0,25.91-4.9,34.07-14.89l5.91,6.73c-9.38,11.42-24.07,17.34-40.18,17.34-32.24,0-54.88-22.44-54.88-54.06s21.83-54.06,51-54.06,50.79,22,50.79,53.65C1146.15,1780.79,1146,1781.81,1146,1782.83Zm-91.39-8h81.6c-1.43-23-18.16-39.57-40.8-39.57S1056.19,1751.62,1054.56,1774.87Z"/><path class="cls-16" d="M1238.16,1711.63v15.51h34.06v8.77h-33.86v97.71h-10.2v-97.71h-19.58v-8.77h19.58v-16.32c0-17.75,10.61-29.38,29.58-29.38,7.75,0,15.91,2.25,21,6.94l-4.08,7.75a24.45,24.45,0,0,0-16.52-5.92C1244.89,1690.21,1238.16,1697.56,1238.16,1711.63Z"/><path class="cls-16" d="M1277.53,1780.38c0-31.62,22.64-54.06,53.24-54.06s53.24,22.44,53.24,54.06-22.64,54.06-53.24,54.06S1277.53,1812,1277.53,1780.38Zm96.08,0c0-26.72-18.36-44.88-42.84-44.88s-42.84,18.16-42.84,44.88,18.36,44.88,42.84,44.88S1373.61,1807.1,1373.61,1780.38Z"/><path class="cls-16" d="M1402,1780.38c0-31.82,22.64-54.06,53.85-54.06,16.93,0,31.62,6.53,40.39,19.59l-7.54,5.5c-7.76-10.81-19.59-15.91-32.85-15.91-25.09,0-43.45,18-43.45,44.88s18.36,44.88,43.45,44.88c13.26,0,25.09-5.1,32.85-15.91l7.54,5.51c-8.77,12.85-23.46,19.58-40.39,19.58C1424.61,1834.44,1402,1812,1402,1780.38Z"/><path class="cls-16" d="M1618,1727.14v106.48h-9.79v-22.84c-6.94,14.89-21.42,23.66-40.19,23.66-27.13,0-44.47-15.3-44.47-45.08v-62.22h10.2v61.4c0,24.07,12.85,36.72,35.09,36.72,24.07,0,39-16.12,39-41.41v-56.71Z"/><path class="cls-16" d="M1643.5,1820.77l4.69-8.16c8.16,6.94,22.65,12.85,38.35,12.85,22.44,0,31.42-8,31.42-20,0-31-70.58-8.16-70.58-50,0-16.11,13.46-29.17,40.39-29.17,13.46,0,28.15,4.08,36.51,10.41l-4.69,8.16c-9-6.53-20.6-9.59-32-9.59-20.8,0-30,8.57-30,20,0,32,70.58,9.38,70.58,50,0,17.34-14.89,29.17-42,29.17C1668.59,1834.44,1651.86,1828.52,1643.5,1820.77Z"/><text/></g><g id="college-cap"><path class="cls-8" d="M1413.07,191.85l-399.78-139a15.55,15.55,0,0,0-10,0l-399.79,139c-4,1.4-6.57,4.34-6.57,7.58s2.56,6.17,6.57,7.57l175.18,55.14V326.3a243.47,243.47,0,0,1,36.25-21.53c52.29-25.53,121-39.58,193.38-39.58s141.09,14.05,193.38,39.58a243.35,243.35,0,0,1,36.24,21.53V260.85l106.43-29.94V305a31,31,0,0,0-4.72,52.58l-9.12,79.59H1386l-9.13-79.59a31,31,0,0,0-4.72-52.58V221.23L1413.07,207c4-1.4,6.58-4.34,6.58-7.57S1417.09,193.25,1413.07,191.85Z"/></g></g></svg>