<svg xmlns="http://www.w3.org/2000/svg" xmlns:xlink="http://www.w3.org/1999/xlink" viewBox="0 0 2000 2000"><defs><style>.cls-1,.cls-4,.cls-43,.cls-44,.cls-45,.cls-46,.cls-48,.cls-6{fill:none;}.cls-2{isolation:isolate;}.cls-3{fill:#e31c79;}.cls-4{stroke:#b6b6b6;stroke-width:10px;}.cls-4,.cls-44,.cls-46,.cls-48{stroke-linecap:round;}.cls-5{fill:#fbdfec;}.cls-6{stroke:#ef7db2;stroke-width:41.82px;}.cls-44,.cls-45,.cls-46,.cls-6{stroke-miterlimit:10;}.cls-25,.cls-26,.cls-7{fill:#fff;}.cls-8{fill:#c2a0ce;}.cls-9{fill:#ff9782;}.cls-10{fill:#e66a5e;}.cls-11{fill:#71433f;}.cls-12{fill:#4b2c2a;}.cls-13,.cls-23,.cls-27,.cls-29{fill:#70228d;}.cls-14{clip-path:url(#clip-path);}.cls-15{fill:#e69690;}.cls-16,.cls-30,.cls-47{fill:#ad81be;}.cls-17{fill:#eaa8a3;}.cls-18{fill:#e2857e;}.cls-19{fill:#9961ae;}.cls-20{fill:#582916;opacity:0.3;}.cls-20,.cls-24,.cls-27{mix-blend-mode:multiply;}.cls-21{fill:#eaeaea;}.cls-22{mask:url(#mask);}.cls-23,.cls-25,.cls-26{mix-blend-mode:overlay;}.cls-24{fill:#ddd;opacity:0.6;}.cls-25{opacity:0.34;}.cls-26{opacity:0.5;}.cls-28{fill:#ebdfef;}.cls-29,.cls-30{fill-rule:evenodd;}.cls-31,.cls-41,.cls-42{fill:#d6c0de;}.cls-32{fill:#e6e7e8;}.cls-33{fill:#f0f1f2;}.cls-34{fill:#dcddde;}.cls-35{fill:#cdcecf;}.cls-36{fill:#bbbcbd;}.cls-37{fill:#84429d;}.cls-38{fill:#f1f2f2;}.cls-39{fill:#d7d8d9;}.cls-40{fill:#cacbcc;}.cls-41,.cls-42,.cls-43,.cls-47,.cls-48{stroke:#70228d;stroke-linejoin:round;}.cls-41{stroke-width:4.4px;}.cls-42,.cls-43{stroke-width:7px;}.cls-44{stroke:#fff;}.cls-44,.cls-45,.cls-46{stroke-width:5.5px;}.cls-45,.cls-46{stroke:#ad81be;}.cls-47{stroke-width:6px;}.cls-48{stroke-width:5.72px;}</style><clipPath id="clip-path"><circle class="cls-1" cx="841.16" cy="1364.76" r="216.33"/></clipPath><mask id="mask" x="1301.23" y="-9192" width="176.49" height="32766" maskUnits="userSpaceOnUse"/></defs><g class="cls-2"><g id="Layer_2" data-name="Layer 2"><g id="Achtergrond_2" data-name="Achtergrond 2"><polygon class="cls-3" points="2000 2000 0 2000 0 0 1710 0 2000 289.99 2000 2000"/><line class="cls-4" x1="1762.67" y1="66.1" x2="1946.91" y2="66.1"/><line class="cls-4" x1="1762.67" y1="107.37" x2="1946.91" y2="107.37"/><line class="cls-4" x1="1762.67" y1="148.64" x2="1946.91" y2="148.64"/><line class="cls-4" x1="1762.67" y1="189.91" x2="1946.91" y2="189.91"/><polygon class="cls-5" points="2000 290 1710 290 1710 0 2000 290"/></g><g id="Ovaal"><ellipse class="cls-6" cx="1000" cy="872.78" rx="750.19" ry="529.16"/></g><g id="Person"><circle class="cls-7" cx="1167.45" cy="379.92" r="212.01"/><path class="cls-8" d="M1259.35,363.47c-2-8.29-5.68-16.07-7.46-24.45a62.68,62.68,0,0,1-.78-12.43c.15-3,.23-6.12.23-9.17v-.13a32.15,32.15,0,0,0-.16-6.36c-.86-18.77-5.58-37.06-18.82-52.4-6.87-8-16-14-26.33-16.31-11.46-2.53-23.09,0-34.58-.58-22.55-13.63-55.72,6.19-68.34,30.16-3.45,6.53-27.19,51.15-35.38,91.27-4.57,22.37-2.34,43.14,6.22,55.59,14,20.3,37.5,15.1,42.42,14,5.44-1.23,10.58-.9,15.68-3.59a25.57,25.57,0,0,0,13.42-22.22c.1-5.05-4.62-7.37-8.57-6.69a34.5,34.5,0,0,0-7.06-12.26c-5.4-6.38-10.4-11.76-13.47-19l0-.38a5.28,5.28,0,0,0-1.18-2.94c-.18-.6-.4-1.17-.56-1.8-5-19.35.59-39.49,2.77-58.82a5.6,5.6,0,0,0-.18-2.18c2.09-8.46,4.89-16.76,3.29-25.86a6,6,0,0,0-.62-1.76l36.08-1.21c7.63-.25,9.89-9.46,6-13.57a48.27,48.27,0,0,1,12.22,2.86c5,1.91,9.48-2.14,10.07-6.66,12.77-.23,25.16.36,34.9,10.57,11,11.52,14.42,26.89,15.57,42.4a8.43,8.43,0,0,0-.19,1.56,20.68,20.68,0,0,0,.54,5.25c-.81,12.17-7.74,27.57-10.38,32.64-3.55,6.8-3.93,13.63-5.88,20.88-1.9,7.08-6.09,13.07-10.61,18.72-8.47,10.57-17.72,19.93-23.38,32.34-.26.54-.52,1.1-.75,1.7-3.45,8.91,9.41,13.51,14,6.25.19.35.88.52,2.1.49l6.51,2.13c4.12,1.34,8.25,2.95,12.46,4,6.4,1.6,12.06,1.07,17.59-2.62,10.16-6.77,17.2-19.42,20.94-30.75A70.54,70.54,0,0,0,1259.35,363.47Z"/><path class="cls-9" d="M1204.32,468.55c-4-9.8-1.41-47,.21-69.3.58-7.94-5.26-2.76-8.32,3.05a3.9,3.9,0,0,0-.36.25,6.14,6.14,0,0,0-8.09,4.29c-.16.57-.3,1.15-.46,1.72-3.1-2.28-8.59-1.14-10.48,3.29-.36.87-.7,1.74-1,2.61-.76-6-9.22-8.5-11.89-3.31,0-.13,0-.25,0-.38-.53-4.24-5-6-8.51-4.92-1.79-5.06-10.12-5-11.93.22a6.6,6.6,0,0,0-2.09-.51l.06-2c.1-.2.21-.4.29-.61a9.55,9.55,0,0,0,.49-4.51c-.07-1.06-.83-4.91-.61-1-.48-8.67-12.64-9.68-12.94-.58,0,.78,0,1.56-.07,2.34s-4.71,2.6-2,4.26c5,37.22,6.41,56.28,0,62.3-6.13,5.76,15.56,21.19,16.22,12.08,0-.59.09-1.19.13-1.79a6.46,6.46,0,0,0,4.36.46l.32.72a6.25,6.25,0,0,0,9.23,2.45c2.48,3.8,7.57,4.24,10.29,1.41,3.05,3.34,8,2.2,10.11-1.34,3.15,1.56,8-.49,9.54-4.42a6.09,6.09,0,0,0,2,.53c3.16,3.7,9.93,4,11-2.09.11-.61.78.85.78.85Z"/><path class="cls-10" d="M1203.06,401.57c-5.07-.31-10.39.87-15.52,1.86-.15.55-.28,1.09-.43,1.64a6,6,0,0,0-2.67-1.07l-1.06.18c-1,.16-2,.3-3.05.45a7.08,7.08,0,0,0-3.7,3.74c-.37.86-.71,1.73-1.05,2.6a6.92,6.92,0,0,0-3.65-5.19q-3.78.47-7.57.89a6.12,6.12,0,0,0-.67,1c0-.13,0-.25,0-.38a4.94,4.94,0,0,0-.13-.52c-2.52.27-5,.53-7.56.75-7.86.71-23-10.82-29.47-4.48,1.3,10.51,3.69,29,4,36.08a32.81,32.81,0,0,0,22.29,5.95c6.62-.68,12.15-3.93,18.29-6.09,8.58-3,16-2,24.69-.93a18.79,18.79,0,0,0,6.3-.25c.22-11.78,1.05-25.1,1.83-36.13C1203.62,401.63,1203.36,401.59,1203.06,401.57Z"/><path class="cls-9" d="M1228.81,330a78.69,78.69,0,0,1,.41-8.27,19.52,19.52,0,0,1-10.56-12.24c-6.67-20.77-22.56-38.3-44-43.87-10.48-2.72-23.42-4.79-34-1.4-10.17,3.26-17.47,13.22-28,15.32-3.7,9-7.42,19.42-7.44,26.58l2,41.07c0,11.38.61,26.47,5.18,37,10.69,24.66,43.46,46.79,49,48.45,3.75,1.12,4.85,1.11,7.34.26,11.68-4,41.11-27.69,47.78-39.68,9-16.24,14.78-36.1,18.34-55.61A8.49,8.49,0,0,1,1228.81,330Z"/><path class="cls-11" d="M1185.8,393.91c-6.19,2.09-11.93,5.57-17.8,5.4-6.18-.19-11.42-3.87-17.52-4.84-.46-.07-.83-.11-1.11.2-.55.61,0,2.19.92,2.65,14.31,7.05,21.64,8.46,36.36-.76.34-.21.39-.63.49-1C1187.47,394.55,1186.74,393.59,1185.8,393.91Z"/><path class="cls-10" d="M1172.87,369.35c-4.13.37-9,0-11.76-3.55s-.85-8-.07-11.79c.45-2.19-3-2.74-3.41-.56-1.1,5.37-2.77,10.53,1.27,15.07,3.61,4.06,9.21,4.73,14.34,4.27C1175.45,372.6,1175.09,369.16,1172.87,369.35Z"/><path class="cls-9" d="M1239.42,344.16c-3.73-8.86-12.17-6-15.29,1.39a2.9,2.9,0,0,0,.78,3.55,153.85,153.85,0,0,0-5,15.92c-.15.56-.31,1.17-.45,1.8h0a3.6,3.6,0,0,0-.4,4.51,4.74,4.74,0,0,0,1.94,3.41c3.15,2.28,7.55-.36,10.07-2.34C1238.45,366.65,1243.15,353,1239.42,344.16Z"/><path class="cls-9" d="M1204.58,558.18c8-42.95,138.31-19.83,102.47-50-16.44-13.86-35.35-18.39-55.36-22.87-18-4-47-10.65-52.29-32.9-2-8.64-14.47-5-12.44,3.68a39.89,39.89,0,0,0,1.4,4.57,10.71,10.71,0,0,0-9.45-2.05,11.34,11.34,0,0,0-11.14,3.78c-.38-.73-.79-1.45-1.25-2.17-4.12-6.41-13.5-9.34-19-2.62l-1,1.24c.28-.9.55-1.8.78-2.75,2-8.64-10.4-12.32-12.44-3.68-5.25,22.25-34.32,28.87-52.29,32.9-20,4.48-38.92,9-55.37,22.87-35.84,30.2,67.2,1.91,75.18,44.86"/><path class="cls-8" d="M1213.31,253.87c-11.82-8.32-26.52-11.51-40.8-10.63-13.8.85-30.13,4.3-39.2,15.55-1.59,2-1.22,4.85.22,6.89-2.75,3.61-1.6,9.93,4.07,9.67,19.42-.91,42.77-5.33,61.43,1.61,23.13,8.59,27.82,35.67,26.09,56.31-.56,6.66,10.27,9,11.79,2.21C1243.33,306.94,1239.89,272.58,1213.31,253.87Z"/><path class="cls-12" d="M1204.55,344.59c-.24,3.48-2.2,6.18-4.38,6s-3.75-3.1-3.5-6.58,2.2-6.18,4.38-6S1204.79,341.11,1204.55,344.59Z"/><path class="cls-12" d="M1139.78,342c-.25,3.49-2.21,6.19-4.38,6s-3.75-3.1-3.51-6.59,2.21-6.18,4.39-6S1140,338.5,1139.78,342Z"/><path class="cls-8" d="M1214.35,285.37c-.57-.73-1.13-1.44-1.63-2.11a8,8,0,0,0-1.81-1.78l-2.06-2.29c-6.35-7.07-14.54-15.93-24.29-18-5.75-1.24-10.93,1.6-12.31,6.39A60.66,60.66,0,0,0,1156,256c-8.9-4.34-17.51,8.65-8.52,13,17.6,8.58,24.22,23.89,34.87,39.14,4.62,6.63,10.13,12.76,17.21,16.82s20.62,5.6,26.3,11.58c5,5.28,7.5,1.79,8.57-4.67C1237.4,314.12,1225.78,298.45,1214.35,285.37Z"/><path class="cls-8" d="M1150,261.06a59.35,59.35,0,0,0-7.5,7.28c.27-.8.52-1.61.74-2.42a4.38,4.38,0,0,0-3.89-5.68,8.39,8.39,0,0,0-4.59.88c-1.93-.86-4.45-.56-5.54,1.28a4.2,4.2,0,0,0-5.06.43c-1.4,1.25-.1-8.63-1.23-7.13-1.93-2.16-9,9.34-10.15,12.7-2,6-11.08,31.07-9.45,45.28,0,.79-.09,1.58-.08,2.38a4.57,4.57,0,0,0,1.27,3.19,62.91,62.91,0,0,1-3.5,6.23,4.36,4.36,0,0,0,3.4,6.68c13.24,1.24,28.3-5.17,31.81-19,1.87-7.34,1.11-15,3.37-22.31a48.27,48.27,0,0,1,16.2-23.43C1160.1,264,1154.28,257.56,1150,261.06Z"/><path class="cls-13" d="M1226.21,297c-1.12-1.91-4.2-.34-3.07,1.59a60.52,60.52,0,0,1,8.56,33.77c-.09,2.23,3.37,2.41,3.45.18A63.89,63.89,0,0,0,1226.21,297Z"/><path class="cls-13" d="M1112.76,287.26c1.21-1.86,4.22-.16,3,1.72a60.56,60.56,0,0,0-9.94,33.39c0,2.23-3.46,2.27-3.46,0A64.11,64.11,0,0,1,1112.76,287.26Z"/><path class="cls-13" d="M1229.78,331.47a88.85,88.85,0,0,0-11.22-22.13c-1.27-1.83-3.82.51-2.57,2.32a83.07,83.07,0,0,1,10.42,20.56C1227.12,334.3,1230.51,333.57,1229.78,331.47Z"/><path class="cls-13" d="M1236,407.37a79.93,79.93,0,0,0-10.6,19.41c-.79,2.09,2.5,3.16,3.29,1.09a75.85,75.85,0,0,1,10.2-18.6C1240.18,407.48,1237.27,405.6,1236,407.37Z"/><path class="cls-13" d="M1108.07,418a52.67,52.67,0,0,1-8.76-14.91c-.8-2.07-3.87-.47-3.07,1.59a55.44,55.44,0,0,0,9.26,15.64C1106.93,422,1109.5,419.7,1108.07,418Z"/><path class="cls-13" d="M1094.37,421.56a27.65,27.65,0,0,1-9.92-14.27c-.63-2.12-4-1.39-3.38.75a31.71,31.71,0,0,0,11.4,16.42C1094.25,425.8,1096.13,422.9,1094.37,421.56Z"/><path class="cls-13" d="M1167.91,592a211,211,0,0,0,154.17-66.68,75.88,75.88,0,0,0-15-17.08c-14.19-11.95-30.2-17-47.18-21-22.2,10.5-47,15.64-71.84,16.81-36.4,1.72-76-.92-108.71-18-18.81,4.27-36.58,9-52.15,22.14a76,76,0,0,0-14.37,16.08A211,211,0,0,0,1167.91,592Z"/><g class="cls-14"><circle class="cls-7" cx="841.16" cy="1364.76" r="216.33"/><path class="cls-9" d="M882,1437.94c-4.51-11.13-1.61-53.46.23-78.79.66-9-6-3.14-9.45,3.47-.14.09-.28.18-.41.28a7,7,0,0,0-9.2,4.89c-.18.64-.35,1.29-.52,1.94-3.53-2.59-9.78-1.29-11.92,3.75-.41,1-.8,2-1.19,3-.86-6.84-10.47-9.66-13.51-3.76,0-.14,0-.29,0-.43-.6-4.82-5.72-6.8-9.68-5.59-2-5.75-11.5-5.69-13.56.25a7.29,7.29,0,0,0-2.37-.58l.06-2.29a7.5,7.5,0,0,0,.33-.7,10.8,10.8,0,0,0,.55-5.12c-.07-1.21-.93-5.58-.69-1.11-.53-9.86-14.36-11-14.71-.67,0,.89-.05,1.78-.07,2.67s-5.36,3-2.28,4.84c5.69,42.32,7.29,64,0,70.83-7,6.55,17.69,24.1,18.45,13.74l.15-2a7.44,7.44,0,0,0,4.95.52c.12.27.23.54.37.82a7.1,7.1,0,0,0,10.48,2.79c2.83,4.31,8.62,4.82,11.71,1.6,3.47,3.79,9.1,2.49,11.49-1.53,3.59,1.77,9.06-.55,10.85-5a6.76,6.76,0,0,0,2.3.61c3.6,4.2,11.29,4.5,12.5-2.38.12-.69.88,1,.89,1Z"/><path class="cls-15" d="M862.86,1369.2l-.14.53a6.32,6.32,0,0,0-1-.52h-6.7a8.15,8.15,0,0,0-4.26,4.27c-.41,1-.8,2-1.19,3-.86-6.84-10.47-9.66-13.51-3.76,0-.14,0-.29-.05-.43a6.34,6.34,0,0,0-1.42-3.29c-.34,0-.68,0-1,0-6.84-.49-13.49-2.13-20.24-3.17a7,7,0,0,0-.55,1.17,7.29,7.29,0,0,0-2.37-.58l0-1c-1.55-.19-3.09-.36-4.65-.44a45.64,45.64,0,0,0-12,.71c1.79,13.38,3.15,24.65,3.93,34,1.92,1.22,3.88,2.38,5.92,3.41a52.44,52.44,0,0,0,20,5.48,128.58,128.58,0,0,0,46.85-4.89c2.19-.62,4.88-3.92,8.18-4.81.35-8,2.28-21,2.79-28.49A107.4,107.4,0,0,0,862.86,1369.2Z"/><path class="cls-16" d="M1017.87,1481.74c-18.7-15.76-59-31-81.74-36.07-11.57-2.59-27.17-6.15-39.63-13.32-6.56-4.5-4.35-13.58-5.66-23.74-.77-6-5.33-10.3-13.19-9.75-22.87,1.59-44.62,2.41-67,2.54-7.89,0-16.79-2.59-22.27,6.67-4.17,7,2.78,15.85-5.18,24.63l-.11-.12c-12.39,7-27.81,10.53-39.27,13.09-22.75,5.1-25.45,20.31-44.15,36.07-40.75,34.34-36.65,92.44-27.58,141.28,1.12,6,6.72,6.81,10.58,4.34,4,11.29,20.49,12.94,25.16,2A13.88,13.88,0,0,0,718.5,1625c3.08,3.85,8,5.85,13.81,4.67a16,16,0,0,0,7.11-3.38,55.41,55.41,0,0,0,.5,6.64c1.77,12.86,19.83,13.84,25.13,3.52a99.54,99.54,0,0,0,5.32-12.54c6,11.27,20.72,10.52,25.38-2.56.6-1.69,1.15-3.4,1.7-5.1a14.16,14.16,0,0,0,5.22,3.08c6.3,1.93,11.86-1.53,15.53-6.78a42.53,42.53,0,0,0,2.92-4.88c4,8.73,16.16,11.76,22.5,4.15a14,14,0,0,0,4.57,2.57c15.13,5,30.86,3.06,46.29,1,2.36-.31,4.69-.67,7-1.05,3,5.42,10.16,7.74,15.6,6.44,5.65-1.35,9.87-5.1,13.1-10.15a22.63,22.63,0,0,0,7.71,9.92c6.61,4.53,15.11,2.41,19.91-3.78a31.3,31.3,0,0,0,8.06,13.12c6.74,6.23,16,5.11,20.76-1.92,4.6,7,14.89,7.24,21,1.58a19.52,19.52,0,0,0,4.29-5.89c.3.09.59.16.89.23.09.08.16.17.25.25,5.53,5,14,5.78,19.18.41,3,5.35,11.82,6.16,13.25-1.52C1054.53,1574.18,1058.62,1516.08,1017.87,1481.74Z"/><path class="cls-17" d="M907.83,1254.06c0-2.54-.11-5.08-.22-7.61-2.81-4.6-16.66-14.59-68.49-17.13-46.76-2.29-69.6,18-72.68,21.43a43.13,43.13,0,0,0-1,10l4.64,46.52c.63,12.92,2.21,30,8,41.72,13.55,27.39,45.68,49.09,52,50.65,4.32,1.06,15.45,2.22,22,0,13.24-4.59,37.79-32.31,44.68-46.31,9.33-19,16.91-55.21,19.83-77.57C913,1274.87,907.94,1263,907.83,1254.06Z"/><path class="cls-18" d="M850.47,1349.91c-4.67.65-10.25.54-13.56-3.36s-1.42-9-.75-13.39c.38-2.51-3.53-2.94-3.91-.44-.94,6.16-2.54,12.12,2.3,17,4.34,4.41,10.73,4.85,16.53,4C853.58,1353.44,853,1349.56,850.47,1349.91Z"/><path class="cls-18" d="M861.71,1360.48c-5.53,1.21-11.94,6.76-17.67,7.35-10.44,1.08-16.16-3.71-21.16-6.21-4-2-1.76,2.5-1.11,3.37,11.7,15.68,29.36,13.74,40.78-1.91C862.81,1362.73,865.29,1359.7,861.71,1360.48Z"/><path class="cls-13" d="M811,1207.42c-3.42,1.45-28.93,25.7-30.91,25.55-6.56-.5-12.92,8-15.67,13-5.14,9.35-4.13,11.16-2.77,21.53.68,5.19,2.56,34,5.05,37.18,3.51,4.52,9.5,3.45,11.9-1.59,2.23-4.68,1.85-36.22,3.79-42.62,3.88-12.84,17.88-19.65,31-25.22C819.15,1232.75,816.77,1205,811,1207.42Z"/><path class="cls-13" d="M919.08,1269.8c-.14-2.1-3.34-2.8-3.86-.52l-1,4.44a1,1,0,0,0-.25,0l-.73-1.43c-1-1.87-5.71-2.53-7-5.61-.77-1.85-12.09-1.75-10-.25,9.57,7,7.51,22,7.75,33.07.06,2.91-1,11.3,4.16,11.34,4.65,0,5.76-8.48,6.64-11.35C917.75,1289.72,919.78,1280.05,919.08,1269.8Z"/><path class="cls-17" d="M761.26,1309.3c4.74-9.86,14.17-6.08,17.29,2.44.64,1.75,3.87,10.27,2.75,11.11,2,5.94-.41,5.23.87,11.24.13.64.28,1.35.41,2.07h0a4.09,4.09,0,0,1,.18,5.15,5.37,5.37,0,0,1-2.39,3.76c-3.71,2.41-8.55-.84-11.3-3.23C761.07,1334.89,756.51,1319.16,761.26,1309.3Z"/><path class="cls-17" d="M914.76,1311c-4.74-9.86-14.17-6.08-17.29,2.45a3.31,3.31,0,0,0,1.09,4,179.17,179.17,0,0,0-4.71,18.36c-.14.64-.28,1.34-.41,2.06v0a4.11,4.11,0,0,0-.19,5.15,5.47,5.47,0,0,0,2.39,3.76c3.72,2.4,8.55-.85,11.3-3.24C915,1336.57,919.5,1320.85,914.76,1311Z"/><path class="cls-13" d="M928.66,1260.36c-3.52-19.22-15.18-57.07-43.2-73.42-30-17.48-64.7,4.08-67.42,6.75-23.24-1.65-45.8,9.63-57.5,30.74-16,28.88-3.64,62.58,3.79,92.12,1.91,7.57,13.51,5.92,13.52-1.83,0-18.44.47-36.5,10.35-52.74a168.46,168.46,0,0,1,21.06-27,91.34,91.34,0,0,0,4.82,16.63c5.45,13.81,12,27.48,21.11,39.25,9,11.57,19.35,12.94,33.24,10.61,3.84-.65,5.48-5.13,4.81-8.47q-4.15-20.6-9.61-40.88c3.66,1.45,4.82,6.66,5.93,9.82,2.26,6.4,3.72,13,5.72,19.47,3,9.85,8.25,17.69,18,21.71,6.26,2.59,19.72,6,26,2,3.08-1.91,4.76-5.46,5.58-9.54C931.6,1286.63,930.33,1269.46,928.66,1260.36Z"/><path class="cls-12" d="M876.48,1313.69c-.07,4-2.15,7.14-4.63,7.1s-4.43-3.31-4.35-7.28,2.15-7.14,4.63-7.1S876.56,1309.72,876.48,1313.69Z"/><path class="cls-12" d="M816,1314.52c-.07,4-2.14,7.15-4.62,7.1s-4.43-3.3-4.36-7.27,2.15-7.15,4.63-7.1S816.06,1310.55,816,1314.52Z"/><path class="cls-13" d="M812.64,1222.91a60.21,60.21,0,0,1-6.47-15.23c-.67-2.44-4.46-1.41-3.79,1a64.33,64.33,0,0,0,6.87,16.18C810.54,1227.07,814,1225.09,812.64,1222.91Z"/><path class="cls-19" d="M900.11,1273.55a134.56,134.56,0,0,0-10.15-30c-1.09-2.29-4.48-.29-3.4,2a129.52,129.52,0,0,1,9.76,29C896.84,1277.07,900.63,1276,900.11,1273.55Z"/><path class="cls-19" d="M910.09,1243.37A114.89,114.89,0,0,0,897.34,1211c-1.27-2.19-4.67-.21-3.4,2a110.46,110.46,0,0,1,12.35,31.41C906.85,1246.89,910.65,1245.84,910.09,1243.37Z"/><path class="cls-13" d="M913.58,1260.36c-.7-2.43-4.5-1.4-3.8,1a37.2,37.2,0,0,1,1.43,12c-.1,2.53,3.83,2.53,3.93,0A41.07,41.07,0,0,0,913.58,1260.36Z"/><path class="cls-19" d="M765.48,1229.59a44.53,44.53,0,0,0-3,14c-.15,2.52,3.78,2.52,3.93,0a41.26,41.26,0,0,1,2.91-12.92C770.21,1228.28,766.41,1227.26,765.48,1229.59Z"/><path class="cls-13" d="M840.81,1455.83c17.18-.3,49.62-3.91,61.29-20.63-1.23-.58-2.43-1.2-3.62-1.84-3,4.1-7.49,7.3-12.72,9.82-3.14-12.24,1.66-33.78-7-44.37l-1,0c-1.51.11-3,.18-4.49.28,10.93,8.13,5.49,33.37,8.94,45.67a98.11,98.11,0,0,1-21.36,5.46c-1.79-14.36.41-28.86-2.2-43.18-.45-2.49-4.24-1.43-3.79,1,2.57,14.12.45,28.48,2.13,42.67-5.32.66-10.26,1-14.21,1.08-4.24.13-8.51.09-12.77,0a90.33,90.33,0,0,1-1.13-18.07c.09-2.54-3.84-2.53-3.93,0a93.91,93.91,0,0,0,1.08,17.89c-3.38-.16-6.76-.38-10.12-.67-.89-14.75-2.6-30,1.76-44.26.73-2.43-3.06-3.46-3.8-1-4.43,14.58-2.82,29.94-1.91,44.95a58.22,58.22,0,0,1-16.85-4.95,82.45,82.45,0,0,0,1.26-14.54c0-2.53-3.95-2.53-3.94,0a76.75,76.75,0,0,1-1,12.58c-4.48-2.7-8.13-6.18-9.37-10.5-1,.56-2.07,1.12-3.13,1.63,2.77,7.06,10.21,12.85,16.66,16.07C808.36,1457.3,827,1456.07,840.81,1455.83Z"/><path class="cls-13" d="M870.54,1403.62c-1.37-2.11-4.78-.14-3.4,2,3.35,5.18,3.07,11.17,2.7,17.09-.15,2.52,3.78,2.52,3.93,0C874.18,1416.08,874.27,1409.39,870.54,1403.62Z"/><path class="cls-13" d="M826,1409.36a41.73,41.73,0,0,0-1.41,14.79c.21,2.51,4.15,2.53,3.93,0a38.64,38.64,0,0,1,1.27-13.74C830.47,1408,826.67,1406.93,826,1409.36Z"/><path class="cls-13" d="M796.1,1405.27a34.94,34.94,0,0,0-3.51,19.69c.29,2.49,4.23,2.52,3.94,0a31.18,31.18,0,0,1,3-17.7C800.61,1405,797.22,1403,796.1,1405.27Z"/><path class="cls-13" d="M844.87,1422.77q-.09,6.56-.17,13.1c0,2.54,3.9,2.54,3.93,0q.09-6.54.17-13.1C848.83,1420.24,844.9,1420.24,844.87,1422.77Z"/><path class="cls-13" d="M727.5,1502.39c-7.91,12.33,6.36,35.95,5.14,50.53-.21,2.52,3.72,2.51,3.93,0,1.16-13.9-13.21-36.8-5.68-48.54C732.26,1502.24,728.86,1500.27,727.5,1502.39Z"/><path class="cls-13" d="M963.76,1515.31c-.86-2.36-4.66-1.34-3.79,1,3.75,10.33-3.76,52.13-3.56,63.13.05,2.52-12.77-2.6-12.82-5.13C943.38,1563,967.63,1526,963.76,1515.31Z"/></g></g><g id="Potje"><path class="cls-19" d="M1597.29,1230.82s-23.7-18.3-27.45-21a9.22,9.22,0,0,1-3.74-6.91l0-8.84a7.6,7.6,0,0,0,4.84-7.12v-12.2H1566v-.43H1338.3v.43h-4.91v12.2a7.6,7.6,0,0,0,4.84,7.12l0,8.84a9.22,9.22,0,0,1-3.74,6.91c-3.74,2.73-27.45,21-27.45,21s-5.78,2.72-5.78,11.78v159.1c0,11.16,29.42,30.57,34.48,33.83-.36.16-.55.32-.55.48,0,2.74,52.09,5,116.33,5s116.34-2.22,116.34-5c0,0,35.24-22.1,35.24-34.31V1242.6C1603.07,1233.54,1597.29,1230.82,1597.29,1230.82Z"/><path class="cls-20" d="M1338.23,1194l0,7.91H1566.1l0-7.91a7.6,7.6,0,0,0,4.84-7.12v-12.2H1566v-.43H1338.3v.43h-4.91v12.2A7.6,7.6,0,0,0,1338.23,1194Z"/><rect class="cls-21" x="1338.18" y="1252.28" width="264.89" height="113.58"/><g class="cls-22"><path class="cls-23" d="M1387.6,1436c0-.16.21-.32.56-.48-5.06-3.26-34.49-22.67-34.49-33.83V1242.6c0-9.06,5.79-11.78,5.79-11.78s23.71-18.3,27.45-21a9.22,9.22,0,0,0,3.74-6.91l0-8.84a7.6,7.6,0,0,1-4.84-7.12v-12.2h4.91v-.43H1338.3v.43h-4.91v12.2a7.6,7.6,0,0,0,4.84,7.12l0,8.84a9.22,9.22,0,0,1-3.74,6.91c-3.74,2.73-27.45,21-27.45,21s-5.78,2.72-5.78,11.78v159.1c0,11.16,29.42,30.57,34.48,33.83-.36.16-.55.32-.55.48,0,2.74,52.09,5,116.33,5,9,0,17.8,0,26.23-.13C1426.1,1440.33,1387.6,1438.36,1387.6,1436Z"/></g><path class="cls-13" d="M1597.29,1230.82s-23.7-18.3-27.45-21a9.22,9.22,0,0,1-3.74-6.91l0-8.84a7.6,7.6,0,0,0,4.84-7.12v-12.2H1566v-.43h-53.27v.43h4.91v12.2a7.6,7.6,0,0,1-4.84,7.12l0,8.84a9.21,9.21,0,0,0,3.75,6.91c3.74,2.73,27.45,21,27.45,21s5.78,2.72,5.78,11.78v159.1c0,12.21-35.24,34.31-35.24,34.31,0,2.35-38.29,4.31-89.7,4.82,8.56.09,17.47.14,26.63.14,64.26,0,116.34-2.22,116.34-5,0,0,35.24-22.1,35.24-34.31V1242.6C1603.07,1233.54,1597.29,1230.82,1597.29,1230.82Z"/><path class="cls-21" d="M1574.28,1156.75v-80.69c0-7.24-5.58-13.11-12.47-13.11H1343.39c-6.88,0-12.47,5.87-12.47,13.11v80.69Z"/><path class="cls-21" d="M1580.2,1159.58v-13.46a8.21,8.21,0,0,0-8-8.41H1332.1a8.21,8.21,0,0,0-8,8.41v13.46Z"/><polygon class="cls-21" points="1572.53 1159.58 1462 1159.58 1442.3 1159.58 1331.77 1159.58 1324.1 1168.12 1324.1 1181.44 1442.3 1181.44 1462 1181.44 1580.2 1181.44 1580.2 1168.12 1572.53 1159.58"/><polygon class="cls-24" points="1580.13 1168.04 1572.53 1159.58 1462 1159.58 1442.3 1159.58 1331.77 1159.58 1324.17 1168.04 1580.13 1168.04"/><polygon class="cls-24" points="1580.13 1168.04 1572.53 1159.58 1462 1159.58 1442.3 1159.58 1331.77 1159.58 1324.17 1168.04 1580.13 1168.04"/><path class="cls-24" d="M1456.67,1145.25a4.07,4.07,0,0,1-4.07,4.07h0a4.07,4.07,0,0,1-4.07-4.07v-59.41a4.07,4.07,0,0,1,4.07-4.07h0a4.07,4.07,0,0,1,4.07,4.07Z"/><path class="cls-24" d="M1430.38,1145.25a4.08,4.08,0,0,1-4.08,4.07h0a4.07,4.07,0,0,1-4.07-4.07v-59.41a4.07,4.07,0,0,1,4.07-4.07h0a4.08,4.08,0,0,1,4.08,4.07Z"/><path class="cls-24" d="M1404.08,1145.25a4.07,4.07,0,0,1-4.07,4.07h0a4.08,4.08,0,0,1-4.08-4.07v-59.41a4.08,4.08,0,0,1,4.08-4.07h0a4.07,4.07,0,0,1,4.07,4.07Z"/><path class="cls-24" d="M1377.75,1145.25a4.07,4.07,0,0,1-4.07,4.07h0a4.07,4.07,0,0,1-4.08-4.07v-59.41a4.07,4.07,0,0,1,4.08-4.07h0a4.07,4.07,0,0,1,4.07,4.07Z"/><path class="cls-24" d="M1351.45,1145.25a4.07,4.07,0,0,1-4.07,4.07h0a4.08,4.08,0,0,1-4.08-4.07v-59.41a4.08,4.08,0,0,1,4.08-4.07h0a4.07,4.07,0,0,1,4.07,4.07Z"/><path class="cls-24" d="M1561.9,1145.25a4.07,4.07,0,0,1-4.08,4.07h0a4.07,4.07,0,0,1-4.07-4.07v-59.41a4.07,4.07,0,0,1,4.07-4.07h0a4.07,4.07,0,0,1,4.08,4.07Z"/><path class="cls-24" d="M1535.6,1145.25a4.07,4.07,0,0,1-4.07,4.07h0a4.08,4.08,0,0,1-4.08-4.07v-59.41a4.08,4.08,0,0,1,4.08-4.07h0a4.07,4.07,0,0,1,4.07,4.07Z"/><path class="cls-24" d="M1509.3,1145.25a4.07,4.07,0,0,1-4.07,4.07h0a4.08,4.08,0,0,1-4.08-4.07v-59.41a4.08,4.08,0,0,1,4.08-4.07h0a4.07,4.07,0,0,1,4.07,4.07Z"/><path class="cls-24" d="M1483,1145.25a4.07,4.07,0,0,1-4.07,4.07h0a4.08,4.08,0,0,1-4.08-4.07v-59.41a4.08,4.08,0,0,1,4.08-4.07h0a4.07,4.07,0,0,1,4.07,4.07Z"/><path class="cls-21" d="M1580.2,1159.58v-13.46a8.21,8.21,0,0,0-8-8.41H1332.1a8.21,8.21,0,0,0-8,8.41v13.46Z"/><path class="cls-24" d="M1580.14,1145.15a8.14,8.14,0,0,0-7.94-7.44H1332.1a8.15,8.15,0,0,0-7.94,7.44Z"/><path class="cls-24" d="M1580.2,1146.12a7.77,7.77,0,0,0-.06-1h0a8.48,8.48,0,0,0-.85-2.9v0a8,8,0,0,0-.73-1.2.22.22,0,0,0-.07-.09,8.39,8.39,0,0,0-.88-1l-.12-.12a7.73,7.73,0,0,0-1-.79s-.1-.07-.15-.11a7.68,7.68,0,0,0-1.14-.59l-.15-.06a7.16,7.16,0,0,0-.74-.25v-62c0-7.24-5.58-13.11-12.47-13.11H1452.6v118.49h127.6v-13.32l-.07-.08-7.6-8.46h7.67Z"/><path class="cls-25" d="M1574.23,1075.05c-.49-6.76-5.85-12.1-12.42-12.1H1343.39c-6.57,0-11.93,5.34-12.42,12.1Z"/><path class="cls-25" d="M1580.2,1149.32v-3.2a7.77,7.77,0,0,0-.06-1h-256a7.77,7.77,0,0,0-.06,1v3.2Z"/><path class="cls-25" d="M1580.2,1172.6v-3.21a7.61,7.61,0,0,0-.06-1h-256a7.61,7.61,0,0,0-.06,1v3.21Z"/><path class="cls-26" d="M1409.11,1159.58v-70.3A17.08,17.08,0,0,0,1392,1072.2H1381.6a17.08,17.08,0,0,0-17.08,17.08v70.3Z"/><rect class="cls-7" x="1364.52" y="1168.04" width="44.59" height="13.4"/><path class="cls-27" d="M1553.28,1335h-87.14a4.73,4.73,0,1,1,0-9.45h87.14a4.73,4.73,0,0,1,0,9.45Z"/><path class="cls-13" d="M1572.31,1296.56a16.29,16.29,0,0,1-16.29,16.29h-92.63a16.29,16.29,0,0,1-16.29-16.29h0a16.29,16.29,0,0,1,16.29-16.29H1556a16.29,16.29,0,0,1,16.29,16.29Z"/></g><g id="klembord"><rect class="cls-13" x="1586.21" y="596.38" width="269.1" height="341.36" rx="19.82"/><rect class="cls-28" x="1603.03" y="617.71" width="235.46" height="298.69"/><path class="cls-29" d="M1675.69,588.51h17.13a24.92,24.92,0,1,1,49.83,0h17.13a33.11,33.11,0,0,1,33,33v13.11H1642.67V621.52h0a33.12,33.12,0,0,1,33-33Zm42-16.82a8.41,8.41,0,1,0,8.41,8.41,8.42,8.42,0,0,0-8.41-8.41Z"/><path class="cls-30" d="M1630.47,676.91h54.92V734h-57.13V676.91Zm50.5,4.41h-48.3v48.3H1681Z"/><path class="cls-30" d="M1630.47,758h54.92v57.13h-57.13V758Zm50.5,4.41h-48.3v48.3H1681Z"/><path class="cls-30" d="M1630.47,839h54.92v57.13h-57.13V839Zm50.5,4.41h-48.3v48.3H1681Z"/><polygon class="cls-29" points="1635.92 707.1 1639.91 703.11 1650.1 713.3 1673.73 689.67 1677.72 693.65 1654.09 717.29 1650.1 721.27 1646.12 717.29 1635.92 707.1"/><rect class="cls-16" x="1702.81" y="676.91" width="97.88" height="10.67"/><rect class="cls-16" x="1702.81" y="700.14" width="97.88" height="10.67"/><rect class="cls-16" x="1702.81" y="757.39" width="97.88" height="10.67"/><rect class="cls-16" x="1702.81" y="780.62" width="97.88" height="10.67"/><rect class="cls-16" x="1702.81" y="839.59" width="97.88" height="10.67"/><rect class="cls-16" x="1702.81" y="862.82" width="97.88" height="10.67"/></g><g id="losse_pillen" data-name="losse pillen"><path class="cls-31" d="M648,628.31l-58.57,53.62a42.26,42.26,0,0,0-2.64,59.71l4.14,4.53a42.27,42.27,0,0,0,59.71,2.63l58.58-53.62Z"/><path class="cls-19" d="M709.24,695.18l58.58-53.62a42.27,42.27,0,0,0,2.64-59.72l-4.15-4.52a42.26,42.26,0,0,0-59.71-2.64L648,628.31Z"/><path class="cls-28" d="M623.8,739l1.09,1.19a11,11,0,0,0,15.6.68l60.18-55.09-16-17.47-60.18,55.09A11,11,0,0,0,623.8,739Z"/><path class="cls-8" d="M744.86,613.25a11,11,0,0,1,15.6.69l1.08,1.18a11,11,0,0,1-.69,15.6l-60.18,55.09-16-17.47Z"/><path class="cls-8" d="M601.53,695.13a42.13,42.13,0,0,0-6.17,55,40.76,40.76,0,0,1-4.41-3.94l-4.14-4.52a42.26,42.26,0,0,1,2.64-59.71L648,628.31l12.09,13.19Z"/><path class="cls-13" d="M718.68,587.88,660.11,641.5,648,628.31l58.58-53.63a42.26,42.26,0,0,1,59.71,2.64l4.15,4.52a42.83,42.83,0,0,1,3.53,4.74A42.14,42.14,0,0,0,718.68,587.88Z"/><path class="cls-32" d="M559.48,395.91a22.15,22.15,0,0,1-14-20.57V305.7H432.78v69.64a22.13,22.13,0,0,1-14,20.57l-17,6.78a31.28,31.28,0,0,0-19.72,29.06V597.81a18,18,0,0,0,18,18H578.2a18,18,0,0,0,18-18V431.75a31.26,31.26,0,0,0-19.72-29.06Z"/><path class="cls-33" d="M457.14,615.85a18,18,0,0,1-18-18V431.75a31.27,31.27,0,0,1,19.71-29.06l17-6.78a22.13,22.13,0,0,0,14-20.57V305.7h-41v69.64a22.13,22.13,0,0,1-14,20.57l-17,6.78a31.28,31.28,0,0,0-19.72,29.06V597.81a18,18,0,0,0,18,18Z"/><path class="cls-34" d="M537.16,615.85a18,18,0,0,0,18-18V431.75a31.28,31.28,0,0,0-19.72-29.06l-17-6.78a22.13,22.13,0,0,1-14-20.57V305.7h41v69.64a22.14,22.14,0,0,0,14,20.57l17,6.78a31.26,31.26,0,0,1,19.72,29.06V597.81a18,18,0,0,1-18,18Z"/><path class="cls-35" d="M432.78,361.5c.58.05,1.16.09,1.76.09H543.77c.59,0,1.18,0,1.75-.09V303.72H432.78Z"/><path class="cls-36" d="M544.77,361.59c.26,0,.5,0,.76,0V305.7h-41v55.89Z"/><path class="cls-34" d="M489.82,361.59V305.7h-41v55.8c.58.05,1.16.09,1.76.09Z"/><path class="cls-32" d="M518.82,223.79,505.59,102.46c-1-4.55-7.59-4.7-16.94-4.7s-15.77.22-16.94,4.7L458.49,223.79Z"/><path class="cls-33" d="M481.39,97.91c-4.16,0-9.5,2.2-9.68,4.55L458.49,223.79h13.89l6-120.1A7.86,7.86,0,0,1,481.39,97.91Z"/><path class="cls-34" d="M495.91,97.91c4.74,0,9.52,2.45,9.68,4.55l13.22,121.33H504.92l-6-120.1A7.83,7.83,0,0,0,495.91,97.91Z"/><rect class="cls-32" x="415.32" y="223.79" width="147.66" height="126.59" rx="19.22"/><path class="cls-33" d="M490.75,350.38a19.21,19.21,0,0,1-19.21-19.22V243a19.21,19.21,0,0,1,19.21-19.21H450.54A19.21,19.21,0,0,0,431.32,243v88.16a19.21,19.21,0,0,0,19.22,19.22Z"/><path class="cls-34" d="M503.48,350.38a19.21,19.21,0,0,0,19.21-19.22V243a19.21,19.21,0,0,0-19.21-19.21H543.7A19.21,19.21,0,0,1,562.91,243v88.16a19.21,19.21,0,0,1-19.21,19.22Z"/><rect class="cls-16" x="440.88" y="447.12" width="155.36" height="131.54"/><rect class="cls-37" x="555.2" y="447.12" width="41.04" height="131.54"/><rect class="cls-13" x="453.74" y="460.77" width="91.79" height="37.45"/><rect class="cls-38" x="453.74" y="524.14" width="91.79" height="7.42"/><rect class="cls-38" x="453.74" y="539.22" width="91.79" height="7.42"/><path class="cls-38" d="M488.65,97.76c-9,0-15.25.21-16.76,4.2h33.54C504,97.91,497.64,97.76,488.65,97.76Z"/><polygon class="cls-38" points="459.05 218.66 458.5 223.79 518.82 223.79 518.26 218.66 459.05 218.66"/><path class="cls-39" d="M416.84,338.66a19.21,19.21,0,0,0,17.7,11.72H543.77a19.21,19.21,0,0,0,17.69-11.72Z"/><path class="cls-32" d="M450.48,350.38h40.21A19.21,19.21,0,0,1,473,338.66H432.78A19.21,19.21,0,0,0,450.48,350.38Z"/><path class="cls-40" d="M521.18,338.66a19.23,19.23,0,0,1-17.7,11.72H543.7a19.21,19.21,0,0,0,17.69-11.72Z"/><path class="cls-7" d="M452.49,301.72V241a34,34,0,0,1,.43-5.37h-7.59A5.38,5.38,0,0,0,440,241v37.23A28.31,28.31,0,0,0,452.49,301.72Z"/><path class="cls-7" d="M421.06,518.07V432.33a47.9,47.9,0,0,1,4.25-19.8l-6.75,2.68A18.34,18.34,0,0,0,407,432.33v55.19A40.11,40.11,0,0,0,421.06,518.07Z"/><circle class="cls-38" cx="261.07" cy="367.59" r="74.89" transform="translate(-145.56 172.84) rotate(-29.02)"/><path class="cls-39" d="M335.41,358.51,186.73,376.67a74.89,74.89,0,1,0,148.68-18.16Z"/><path class="cls-32" d="M196.61,375.46a64.94,64.94,0,1,1,72.33,56.59A65,65,0,0,1,196.61,375.46Z"/><path class="cls-39" d="M335.41,358.51c-18.84,10.61-12.46,7.54-124.72,21.25-6.88.89-18.46-1.7-24-3.09,0,0,2.21-1.18,6.11-3,13.67-6.34,11.45-5.17,16.4-5.74C319.26,354.47,315.28,352.94,335.41,358.51Z"/><path class="cls-38" d="M335.41,358.51,186.73,376.67c5.5,1.39,17.08,4,24,3.09C323,366.05,316.57,369.12,335.41,358.51Z"/></g><g id="Tekst"><path class="cls-7" d="M234.52,1830.85l-.2-122.19-59.77,103.22h-5.1l-59.77-102.81v121.78H99.48V1688.06h8.77l63.85,110.36L236,1688.06h8.57l.2,142.79Z"/><path class="cls-7" d="M374.46,1780.06H282.87c1,25.29,19.58,42.43,45.08,42.43,13.47,0,25.91-4.9,34.07-14.89l5.92,6.73c-9.39,11.42-24.07,17.34-40.19,17.34-32.23,0-54.87-22.44-54.87-54.06s21.82-54.06,51-54.06,50.8,22,50.8,53.65C374.67,1778,374.46,1779,374.46,1780.06Zm-91.39-8h81.6c-1.43-23-18.15-39.57-40.8-39.57S284.71,1748.85,283.07,1772.1Z"/><path class="cls-7" d="M494.21,1679.49v151.36h-10v-25.09c-8.36,16.53-24.48,25.91-43.65,25.91-30,0-52.63-22.24-52.63-54.06,0-32,22.64-54.06,52.63-54.06,19,0,34.88,9.39,43.45,25.5v-69.56ZM484,1777.61c0-26.72-18.36-44.88-42.84-44.88s-42.84,18.16-42.84,44.88,18.36,44.88,42.84,44.88S484,1804.33,484,1777.61Z"/><path class="cls-7" d="M527.26,1690.3a8.39,8.39,0,0,1,8.36-8.36,8.26,8.26,0,1,1-8.36,8.36Zm3.26,34.07h10.2v106.48h-10.2Z"/><path class="cls-7" d="M565.4,1777.61c0-31.82,22.65-54.06,53.86-54.06,16.93,0,31.62,6.53,40.39,19.59l-7.55,5.5c-7.75-10.81-19.58-15.91-32.84-15.91-25.09,0-43.45,18-43.45,44.88s18.36,44.88,43.45,44.88c13.26,0,25.09-5.1,32.84-15.91l7.55,5.51c-8.77,12.85-23.46,19.58-40.39,19.58C588.05,1831.67,565.4,1809.23,565.4,1777.61Z"/><path class="cls-7" d="M760.42,1763.33v67.52h-9.79v-19c-6.73,12.24-19.79,19.79-38.35,19.79-23.87,0-38.35-12.24-38.35-30.4,0-16.11,10.2-29.78,39.78-29.78h36.51v-8.57c0-19.78-10.81-30.39-31.62-30.39-14.68,0-27.94,5.51-36.71,13.46l-5.1-7.34c10.6-9.39,26.11-15.1,42.63-15.1C745.74,1723.55,760.42,1737,760.42,1763.33Zm-10.2,36.11v-20H713.91c-22,0-29.78,9.18-29.78,21.42,0,13.87,10.81,22.44,29.58,22.44C731.66,1823.31,744.1,1814.74,750.22,1799.44Z"/><path class="cls-7" d="M848.55,1824.12c-5.3,5.1-13.87,7.55-21.83,7.55-18.76,0-29-11-29-29v-69.56H778.17v-8.77h19.59v-23.26H808v23.26h33.86v8.77H808v68.54c0,13.67,6.73,21.22,19.78,21.22a24.47,24.47,0,0,0,16.53-5.92Z"/><path class="cls-7" d="M866.91,1690.3a8.4,8.4,0,0,1,8.37-8.36,8.26,8.26,0,1,1-8.37,8.36Zm3.26,34.07h10.21v106.48H870.17Z"/><path class="cls-7" d="M1006.65,1780.06h-91.6c1,25.29,19.59,42.43,45.08,42.43,13.47,0,25.91-4.9,34.07-14.89l5.92,6.73c-9.39,11.42-24.07,17.34-40.19,17.34-32.23,0-54.87-22.44-54.87-54.06s21.82-54.06,51-54.06,50.8,22,50.8,53.65C1006.85,1778,1006.65,1779,1006.65,1780.06Zm-91.39-8h81.59c-1.42-23-18.15-39.57-40.8-39.57S916.89,1748.85,915.26,1772.1Z"/><path class="cls-7" d="M1115.17,1724.37,1067,1830.85h-10.4l-47.94-106.48h10.81l42.43,95.26,42.84-95.26Z"/><path class="cls-7" d="M1217.58,1780.06H1126c1,25.29,19.58,42.43,45.08,42.43,13.46,0,25.91-4.9,34.07-14.89l5.91,6.73c-9.38,11.42-24.07,17.34-40.18,17.34-32.24,0-54.88-22.44-54.88-54.06s21.83-54.06,51-54.06,50.79,22,50.79,53.65C1217.78,1778,1217.58,1779,1217.58,1780.06Zm-91.39-8h81.6c-1.43-23-18.16-39.57-40.8-39.57S1127.82,1748.85,1126.19,1772.1Z"/><path class="cls-7" d="M1239.41,1690.3a8.39,8.39,0,0,1,8.36-8.36,8.26,8.26,0,1,1-8.36,8.36Zm3.26,34.07h10.2v106.48h-10.2Z"/><path class="cls-7" d="M1289.18,1679.49h10.2v151.36h-10.2Z"/><path class="cls-7" d="M1332.43,1690.3a8.39,8.39,0,0,1,8.36-8.36,8.26,8.26,0,1,1-8.36,8.36Zm3.26,34.07h10.2v106.48h-10.2Z"/><path class="cls-7" d="M1478.08,1724.37v95.06c0,35.7-17.34,51.81-51.61,51.81-19.38,0-38-6.12-48.76-16.93l5.51-7.75c10.61,9.79,25.91,15.5,43,15.5,28.36,0,41.62-13,41.62-41.41v-18c-8.77,15.51-25.09,24.28-44.27,24.28-30.19,0-53-21.42-53-51.82s22.85-51.61,53-51.61c19.58,0,36.11,9,44.68,24.89v-24.07Zm-10,50.79c0-25.09-18.36-42.43-43.65-42.43-25.1,0-43.45,17.34-43.45,42.43s18.35,42.64,43.45,42.64C1449.72,1817.8,1468.08,1800.25,1468.08,1775.16Z"/><path class="cls-7" d="M1609.86,1768.63v62.22h-10.2v-61.4c0-24.07-12.85-36.72-34.48-36.72-25.09,0-40.39,16.12-40.39,41.41v56.71h-10.2V1679.49h10.2v67.11c7.35-14.48,22-23,41.82-23C1592.52,1723.55,1609.86,1738.85,1609.86,1768.63Z"/><path class="cls-7" d="M1735.32,1780.06h-91.6c1,25.29,19.59,42.43,45.08,42.43,13.47,0,25.91-4.9,34.07-14.89l5.92,6.73c-9.39,11.42-24.07,17.34-40.19,17.34-32.23,0-54.87-22.44-54.87-54.06s21.82-54.06,51-54.06,50.8,22,50.8,53.65C1735.52,1778,1735.32,1779,1735.32,1780.06Zm-91.39-8h81.59c-1.42-23-18.15-39.57-40.8-39.57S1645.56,1748.85,1643.93,1772.1Z"/><path class="cls-7" d="M1757.14,1690.3a8.4,8.4,0,0,1,8.37-8.36,8.26,8.26,0,1,1-8.37,8.36Zm3.27,34.07h10.2v106.48h-10.2Z"/><path class="cls-7" d="M1901.57,1679.49v151.36h-10v-25.09c-8.36,16.53-24.48,25.91-43.65,25.91-30,0-52.63-22.24-52.63-54.06,0-32,22.64-54.06,52.63-54.06,19,0,34.88,9.39,43.45,25.5v-69.56Zm-10.2,98.12c0-26.72-18.36-44.88-42.84-44.88s-42.84,18.16-42.84,44.88,18.36,44.88,42.84,44.88S1891.37,1804.33,1891.37,1777.61Z"/></g><g id="Scholing_zelf_maken" data-name="Scholing zelf maken"><path class="cls-41" d="M283,973.75s50.91-18.09,76-21.44c43.87-5.85,57.51,6.82,57.51,6.82V1125.8s-28.26-7.79-57.51-3.89-76,23.39-76,23.39Z"/><path class="cls-8" d="M359,952.31c46.79-4.22,57.51,6.82,57.51,6.82V1125.8s-28.26-7.79-57.51-3.89C359,1121.91,358.38,952.37,359,952.31Z"/><path class="cls-42" d="M284,973.75s-50.9-18.09-76-21.44c-43.86-5.85-57.51,6.82-57.51,6.82V1125.8s28.27-7.79,57.51-3.89,76,23.39,76,23.39Z"/><path class="cls-43" d="M283,973.75s50.91-18.09,76-21.44c43.87-5.85,57.51,6.82,57.51,6.82V1125.8s-28.26-7.79-57.51-3.89-76,23.39-76,23.39Z"/><path class="cls-44" d="M300.61,1033.42c17.12-5.58,42.43-13.25,57.93-15.32,18.69-2.49,31.89-1.62,40.89.2"/><path class="cls-44" d="M300.61,1066.32c17.12-5.58,42.43-13.26,57.93-15.32,18.69-2.5,31.89-1.62,40.89.2"/><path class="cls-44" d="M300.61,1099.22c17.12-5.58,42.43-13.26,57.93-15.33,18.69-2.49,31.89-1.62,40.89.2"/><path class="cls-44" d="M264.93,1033.42c-17.12-5.58-42.43-13.25-57.93-15.32-18.69-2.49-31.89-1.62-40.89.2"/><path class="cls-44" d="M264.93,1066.32c-17.12-5.58-42.43-13.26-57.93-15.32-18.69-2.5-31.89-1.62-40.89.2"/><path class="cls-44" d="M264.93,1099.22c-17.12-5.58-42.43-13.26-57.93-15.33-18.69-2.49-31.89-1.62-40.89.2"/><path class="cls-45" d="M358.54,1018.1c18.69-2.49,31.89-1.62,40.89.2"/><path class="cls-46" d="M381.77,1016.57a95,95,0,0,1,17.66,1.73"/><path class="cls-45" d="M358.54,1051c18.69-2.5,31.89-1.62,40.89.2"/><path class="cls-45" d="M358.54,1083.89a164.78,164.78,0,0,1,21.28-1.54,98,98,0,0,1,19.61,1.74"/><path class="cls-46" d="M380.79,1049.46a95.91,95.91,0,0,1,18.64,1.74"/><path class="cls-46" d="M379.82,1082.35a98,98,0,0,1,19.61,1.74"/></g><g id="Scholing"><path class="cls-47" d="M221.74,906.23v62.21s30.16,15.71,65.64,15.71,60.56-15.71,60.56-15.71v-66"/><polygon class="cls-47" points="186.32 902.42 287.69 871.79 383.36 902.42 287.69 933.33 186.32 902.42"/><polyline class="cls-48" points="287.38 903.69 383.36 903.69 383.36 983.52"/><polygon class="cls-13" points="383.39 967.88 376.22 992.19 389.93 992.19 383.39 967.88"/></g></g></g></svg>