<svg xmlns="http://www.w3.org/2000/svg" xmlns:xlink="http://www.w3.org/1999/xlink" viewBox="0 0 2000 2000"><defs><style>.cls-1{fill:none;}.cls-2{isolation:isolate;}.cls-3{fill:#d6c0de;}.cls-4,.cls-5{fill:#ebdfef;}.cls-4{stroke:#b6b6b6;stroke-linecap:round;stroke-width:10px;}.cls-6{clip-path:url(#clip-path);}.cls-13,.cls-21,.cls-7{fill:#ddd;}.cls-12,.cls-13,.cls-21,.cls-23,.cls-24,.cls-30,.cls-37,.cls-40,.cls-44,.cls-7,.cls-9{mix-blend-mode:multiply;}.cls-40,.cls-7{opacity:0.6;}.cls-8{fill:#eaeaea;}.cls-9{fill:#444;opacity:0.29;}.cls-10,.cls-17,.cls-20,.cls-25,.cls-26,.cls-32,.cls-38,.cls-39,.cls-41{fill:#fff;}.cls-11{fill:#5ed9e0;}.cls-12,.cls-19,.cls-35{fill:#1ecad3;}.cls-13{opacity:0.46;}.cls-14,.cls-31,.cls-37,.cls-40{fill:#dbdbdb;}.cls-14,.cls-20,.cls-25,.cls-26,.cls-29,.cls-38,.cls-41{mix-blend-mode:overlay;}.cls-14,.cls-20{opacity:0.34;}.cls-15{fill:#ffab03;}.cls-16{clip-path:url(#clip-path-2);}.cls-17{opacity:0.14;}.cls-18,.cls-46{fill:#3ed2d9;}.cls-22{fill:#b6b6b6;}.cls-23{fill:#6d6d6d;opacity:0.42;}.cls-24{fill:#c1c1c1;opacity:0.17;}.cls-25,.cls-44{opacity:0.3;}.cls-27,.cls-36,.cls-44{fill:#582916;}.cls-28{fill:#7ee1e6;}.cls-29{fill:#dff7f9;}.cls-30{fill:#929292;}.cls-32{opacity:0.38;}.cls-33{fill:#67adc6;}.cls-34{fill:#939393;}.cls-35,.cls-36,.cls-46{mix-blend-mode:color-burn;}.cls-36{opacity:0.21;}.cls-38{opacity:0.43;}.cls-39{opacity:0.8;}.cls-41{opacity:0.5;}.cls-42{fill:#9fe8ec;}.cls-43{fill:#8fccc2;}.cls-45{fill:#bff0f2;}.cls-47{fill:#c2a0ce;}.cls-48{fill:#9961ae;}.cls-49{fill:#ad81be;}.cls-50{fill:#70228d;}.cls-51{fill:#ecf0f1;}</style><clipPath id="clip-path"><rect class="cls-1" x="335.65" y="824.58" width="236.39" height="399.08"/></clipPath><clipPath id="clip-path-2"><path class="cls-1" d="M1512.82,1122.34h131.55l-6,39a12.16,12.16,0,0,0-4.11,6.66c-.66,4-29.12,388.32-29.12,388.32s-.39,11.31-7.33,11.31h.66l-.76,64.61A8.75,8.75,0,0,1,1589,1641H1468.3a8.74,8.74,0,0,1-8.74-8.74l-.76-64.61h.7c-6.94,0-7.33-11.31-7.33-11.31S1423.71,1172,1423.05,1168a12.22,12.22,0,0,0-4.11-6.66l-6-39Z"/></clipPath></defs><g class="cls-2"><g id="Layer_2" data-name="Layer 2"><g id="Achtergrond"><polygon class="cls-3" points="2000 2000 1543.02 2000 0 2000 0 0 1709.79 0 2000 290 2000 2000"/><line class="cls-4" x1="1762.88" y1="66.1" x2="1947.12" y2="66.1"/><line class="cls-4" x1="1762.88" y1="107.37" x2="1947.12" y2="107.37"/><line class="cls-4" x1="1762.88" y1="148.64" x2="1947.12" y2="148.64"/><line class="cls-4" x1="1762.88" y1="189.91" x2="1947.12" y2="189.91"/><polygon class="cls-5" points="2000 290 1710 290 1710 0 2000 290"/></g><g id="Medicijnen"><g class="cls-6"><path class="cls-7" d="M357.76,860.73l.17-.05,1.83-1.75,5.52-12.13H556.9l5.52,12.13,1.83,1.75.16.05Z"/><path class="cls-8" d="M357.93,860.68l1.83-1.75,5.52-12.13H556.9l5.52,12.13,1.83,1.75a4.27,4.27,0,0,1,3.24,4.21v11.75c0,4.5-2,5.18-2,5.18l-2.43,1.28v5.77a13,13,0,0,1-2.46,7.43l-7.4,10.13v303.44L540,1222.14s-37.22,10.44-78.87,10.44-79.75-10.44-79.75-10.44L369,1209.87V906.43l-7.39-10.13a13,13,0,0,1-2.47-7.43V883.1l-2.43-1.28s-2-.68-2-5.18V864.89A4.28,4.28,0,0,1,357.93,860.68Z"/><path class="cls-9" d="M390.62,1092.48h54a4.08,4.08,0,1,0,0-8.15h-54a4.08,4.08,0,0,0,0,8.15Z"/><path class="cls-10" d="M493.11,1222.14l13.26-12.27V906.43l7.39-10.13a13,13,0,0,0,2.47-7.43V883.1l2.43-1.28s2-.68,2-5.18V864.89a4.28,4.28,0,0,0-3.25-4.21l-1.83-1.75-4.93-10.85h10V834.86a8.51,8.51,0,0,0-8.51-8.51H559a8.51,8.51,0,0,1,8.51,8.51v13.22h-10l4.94,10.85,1.83,1.75a4.27,4.27,0,0,1,3.24,4.21v11.75c0,4.5-2,5.18-2,5.18l-2.43,1.28v5.77a13,13,0,0,1-2.46,7.43l-7.4,10.13v303.44L540,1222.14s-37.22,10.44-78.87,10.44c-8,0-15.94-.39-23.47-1A330.45,330.45,0,0,0,493.11,1222.14Z"/><path class="cls-10" d="M493.11,1222.14l13.26-12.27V906.43l7.39-10.13a13,13,0,0,0,2.47-7.43V883.1l2.43-1.28s2-.68,2-5.18V864.89a4.28,4.28,0,0,0-3.25-4.21l-1.83-1.75-4.93-10.85h10V834.86a8.51,8.51,0,0,0-8.51-8.51H559a8.51,8.51,0,0,1,8.51,8.51v13.22h-10l4.94,10.85,1.83,1.75a4.27,4.27,0,0,1,3.24,4.21v11.75c0,4.5-2,5.18-2,5.18l-2.43,1.28v5.77a13,13,0,0,1-2.46,7.43l-7.4,10.13v303.44L540,1222.14s-37.22,10.44-78.87,10.44c-8,0-15.94-.39-23.47-1A330.45,330.45,0,0,0,493.11,1222.14Z"/><path class="cls-7" d="M562.73,891.67a12.88,12.88,0,0,1-2.12,4.63l-7.4,10.13v.26H369v-.26l-7.39-10.13a13,13,0,0,1-2.13-4.63Z"/><path class="cls-7" d="M565.5,881.82l-1.91,1h-205l-1.92-1s-1.72-.6-2-4.29H567.46C567.22,881.22,565.5,881.82,565.5,881.82Z"/><polygon class="cls-11" points="506.74 936.7 517.25 936.7 517.25 958.4 517.25 984.66 517.25 1069.04 368.96 1069.04 368.96 995.93 368.96 958.4 368.96 936.7 506.74 936.7"/><path class="cls-12" d="M369,958.85H474.15a14.67,14.67,0,0,1,14.67,14.67v6.05a14.67,14.67,0,0,1-14.67,14.67H369Z"/><path class="cls-8" d="M375,1018.13a9.21,9.21,0,0,0,9.21,9.21H455a9.21,9.21,0,0,0,9.22-9.21h0a9.22,9.22,0,0,0-9.22-9.22H384.16a9.21,9.21,0,0,0-9.21,9.22Z"/><polygon class="cls-7" points="359.72 858.96 359.76 858.93 365.28 846.8 443.18 846.8 479 846.8 556.9 846.8 562.42 858.93 562.46 858.96 359.72 858.96"/><polygon class="cls-13" points="359.72 858.96 359.76 858.93 365.28 846.8 443.18 846.8 479 846.8 556.9 846.8 562.42 858.93 562.46 858.96 359.72 858.96"/><path class="cls-8" d="M354.68,848.08V834.86a8.51,8.51,0,0,1,8.51-8.51H559a8.51,8.51,0,0,1,8.51,8.51v13.22Z"/><path class="cls-14" d="M493.11,1222.14l13.26-12.27V906.43l7.39-10.13a13,13,0,0,0,2.47-7.43V883.1l2.43-1.28s2-.68,2-5.18V864.89a4.28,4.28,0,0,0-3.25-4.21l-1.83-1.75-4.93-10.85h10V834.86a8.51,8.51,0,0,0-8.51-8.51H559a8.51,8.51,0,0,1,8.51,8.51v13.22h-10l4.94,10.85,1.83,1.75a4.27,4.27,0,0,1,3.24,4.21v11.75c0,4.5-2,5.18-2,5.18l-2.43,1.28v5.77a13,13,0,0,1-2.46,7.43l-7.4,10.13v303.44L540,1222.14s-37.22,10.44-78.87,10.44c-8,0-15.94-.39-23.47-1A330.45,330.45,0,0,0,493.11,1222.14Z"/><path class="cls-7" d="M354.68,834.86a8.51,8.51,0,0,1,8.51-8.51h43.63a8.51,8.51,0,0,0-8.51,8.51v13.22h10l-4.93,10.85-1.83,1.75-.17.05h0a4.22,4.22,0,0,0-3.08,4.16v11.75c0,.31,0,.61,0,.89v0a8.86,8.86,0,0,0,.4,2.21h0c.05.13.09.25.14.36s0,0,0,0a2.75,2.75,0,0,0,.14.3l0,.06c0,.08.09.16.14.24l0,.06.13.2,0,.05c.05.06.09.12.14.17l0,0,.12.13,0,0,.12.1,0,0,.1.07,0,0,.08,0,0,0,.06,0h.07l2.43,1.28v5.77a12.2,12.2,0,0,0,.34,2.8h0a13.36,13.36,0,0,0,2.06,4.54h0l.06.08,7.39,10.13v303.44L425,1222.14a346,346,0,0,0,57.89,9.55c-7,.55-14.31.89-21.77.89-41.66,0-79.75-10.44-79.75-10.44L369,1209.87V906.43l-7.39-10.13-.06-.08h0a13.36,13.36,0,0,1-2.06-4.54h0a12.2,12.2,0,0,1-.34-2.8V883.1l-2.43-1.28h-.07l-.06,0,0,0-.08,0,0,0-.1-.07,0,0-.12-.1,0,0-.12-.13,0,0c-.05,0-.09-.11-.14-.17l0-.05-.13-.2,0-.06-.14-.24,0-.06a2.75,2.75,0,0,1-.14-.3s0,0,0,0a3,3,0,0,1-.14-.36h0a9.29,9.29,0,0,1-.41-2.21v0c0-.28,0-.58,0-.89V864.89a4.22,4.22,0,0,1,3.08-4.16h0l.17-.05,1.83-1.75,4.93-10.85h-10Z"/></g><path class="cls-15" d="M1598.5,1567.65l-.76,64.61A8.75,8.75,0,0,1,1589,1641H1468.3a8.74,8.74,0,0,1-8.74-8.74l-.76-64.61Z"/><g class="cls-16"><path class="cls-8" d="M1512.82,1122.34h131.55l-6,39a12.16,12.16,0,0,0-4.11,6.66c-.66,4-29.12,388.32-29.12,388.32s-.39,11.31-7.33,11.31H1459.5c-6.94,0-7.33-11.31-7.33-11.31S1423.71,1172,1423.05,1168a12.22,12.22,0,0,0-4.11-6.66l-6-39Z"/><path class="cls-17" d="M1565,1556.34S1593.44,1172,1594.1,1168a12.22,12.22,0,0,1,4.11-6.66l6-39h40.19l-6,39a12.16,12.16,0,0,0-4.11,6.66c-.66,4-29.12,388.32-29.12,388.32s-.39,11.31-7.33,11.31h-40.19C1564.59,1567.65,1565,1556.34,1565,1556.34Z"/><path class="cls-18" d="M1427.47,1225c-2.54-33.6-4.26-56-4.42-57a12.22,12.22,0,0,0-4.11-6.66l-6-39h231.4l-6,39a12.16,12.16,0,0,0-4.11,6.66c-.16,1-1.88,23.35-4.42,57l-101.2-43.38Z"/><path class="cls-19" d="M1528.67,1181.6l101.2,43.38c-.51,6.72-1,13.9-1.62,21.44l-99.58-42.68-99.58,42.68c-.57-7.54-1.11-14.72-1.62-21.45Z"/><path class="cls-7" d="M1456.19,1122.34l6,39a12.16,12.16,0,0,1,4.11,6.66c.67,4,29.12,388.32,29.12,388.32s.39,11.31,7.33,11.31H1459.5c-6.94,0-7.33-11.31-7.33-11.31S1423.71,1172,1423.05,1168a12.22,12.22,0,0,0-4.11-6.66l-6-39Z"/><path class="cls-15" d="M1598.5,1567.65l-.76,64.61A8.75,8.75,0,0,1,1589,1641H1468.3a8.74,8.74,0,0,1-8.74-8.74l-.76-64.61Z"/><path class="cls-20" d="M1568.92,1632.26l.76-64.61h28.82l-.76,64.61A8.75,8.75,0,0,1,1589,1641h-28.82A8.74,8.74,0,0,0,1568.92,1632.26Z"/><rect class="cls-21" x="1459.56" y="1620.1" width="138.18" height="1.79"/><path class="cls-21" d="M1493.84,1621.89v-19a17.41,17.41,0,0,1,17.41-17.4h34.8a17.4,17.4,0,0,1,17.4,17.4v19Z"/><path class="cls-22" d="M1533.78,1248.81a14.8,14.8,0,0,0-14.8,14.79v169.88a14.8,14.8,0,0,0,14.8,14.79h0a14.79,14.79,0,0,0,14.79-14.79V1263.6a14.79,14.79,0,0,0-14.79-14.79Z"/><path class="cls-23" d="M1504,1281.18a4.25,4.25,0,0,0-4.25,4.25v119.13a4.25,4.25,0,0,0,4.25,4.25h0a4.25,4.25,0,0,0,4.26-4.25V1285.43a4.25,4.25,0,0,0-4.26-4.25Z"/><path class="cls-19" d="M1610.14,1489.25c-3,39.94-5,67.09-5,67.09s-.39,11.31-7.33,11.31H1459.5c-6.94,0-7.33-11.31-7.33-11.31s-2-27.15-5-67.09l81.48,34.92Z"/><path class="cls-7" d="M1486.86,1567.65l.76,64.61a8.74,8.74,0,0,0,8.74,8.74H1468.3a8.74,8.74,0,0,1-8.74-8.74l-.76-64.61Z"/><rect class="cls-24" x="1412.97" y="1161.36" width="225.44" height="5.3"/><path class="cls-12" d="M1605.25,1555.21c0,.73-.08,1.13-.08,1.13s-.39,11.31-7.33,11.31H1459.5c-6.94,0-7.33-11.31-7.33-11.31s0-.4-.08-1.13Z"/><polygon class="cls-19" points="1528.67 1513.49 1610.96 1478.21 1612.23 1461.17 1528.67 1496.99 1445.11 1461.17 1446.38 1478.21 1528.67 1513.49"/><path class="cls-25" d="M1565,1556.34S1593.44,1172,1594.1,1168a12.22,12.22,0,0,1,4.11-6.66l6-39h40.19l-6,39a12.16,12.16,0,0,0-4.11,6.66c-.66,4-29.12,388.32-29.12,388.32s-.39,11.31-7.33,11.31h-40.19C1564.59,1567.65,1565,1556.34,1565,1556.34Z"/><path class="cls-7" d="M1597.17,1635.34A8.75,8.75,0,0,1,1589,1641H1468.3a8.75,8.75,0,0,1-8.17-5.66Z"/><polygon class="cls-25" points="1413.41 1125.27 1412.97 1122.34 1512.82 1122.34 1544.52 1122.34 1644.37 1122.34 1643.92 1125.27 1413.41 1125.27"/></g><path class="cls-26" d="M1578.85,1547a3.09,3.09,0,0,0,3.08-2.86l26.73-358.25a3.09,3.09,0,0,0-6.16-.46l-26.73,358.25a3.09,3.09,0,0,0,2.85,3.31Z"/><path class="cls-27" d="M1677.19,1292.47h87.93v4.41a4.14,4.14,0,0,1-3.82,4.41h-84.11c-2.1,0-3.8-2-3.8-4.41v-4.41Z"/><path class="cls-28" d="M1641,1366.76l36.1-42.53a11.11,11.11,0,0,0,2.06-6.47c0-3.9.07-27.13.07-27.13l35.64-3.37v-.83l4.36.41,4.37-.41v.83l35.63,3.37s.08,23.23.08,27.13a11.14,11.14,0,0,0,2.05,6.47l36.1,42.53s15.88,17.39,15.88,33.37v199.35c0,20.43-21.64,41.42-21.64,41.42,0,3.06-32.44,5.55-72.47,5.55s-72.47-2.49-72.47-5.55c0,0-21.64-21-21.64-41.42V1400.13C1625.14,1384.15,1641,1366.76,1641,1366.76Z"/><path class="cls-29" d="M1759.51,1640.9s21.64-21,21.64-41.42V1400.13c0-16-15.89-33.37-15.89-33.37l-36.1-42.53a11.14,11.14,0,0,1-2.05-6.47c0-3.9-.08-27.13-.08-27.13l-23.88-2.26,11.74-1.11v-.83l4.36.41,4.37-.41v.83l35.63,3.37s.08,23.23.08,27.13a11.14,11.14,0,0,0,2.05,6.47l36.1,42.53s15.88,17.39,15.88,33.37v199.35c0,20.43-21.64,41.42-21.64,41.42,0,3.06-32.44,5.55-72.47,5.55-5.54,0-10.92,0-16.1-.14C1735.41,1645.75,1759.51,1643.54,1759.51,1640.9Z"/><rect class="cls-10" x="1667.57" y="1289.11" width="103.36" height="4.41"/><path class="cls-30" d="M1761.3,1301.29h-2c0,4.8,0,10.12,0,13.52h-80.14c0-3.4,0-8.72,0-13.52h-2c-2.1,0-3.8-2-3.8-4.41v-4.41h5.85c0-1.15,0-1.84,0-1.84l35.64-3.37v-.83l4.36.41,4.37-.41v.83l35.63,3.37s0,.69,0,1.84h5.86v4.41A4.14,4.14,0,0,1,1761.3,1301.29Z"/><path class="cls-31" d="M1679.41,1226.25h79.68c5.05,0,8,7.72,8,7.72v58.45h-95.58V1234S1674.36,1226.25,1679.41,1226.25Z"/><path class="cls-31" d="M1667.57,1289.11a4.36,4.36,0,0,0,4.29,4.42h94.78a4.36,4.36,0,0,0,4.29-4.42h0a4.35,4.35,0,0,0-4.29-4.41h-94.78a4.36,4.36,0,0,0-4.29,4.41Z"/><rect class="cls-31" x="1667.57" y="1289.11" width="103.36" height="4.41"/><path class="cls-10" d="M1720.43,1287.58c-1.71,0-3.43,0-5.14,0v-41.69a4,4,0,1,1,7.93,0v41.59C1722.29,1287.54,1721.36,1287.58,1720.43,1287.58Z"/><path class="cls-10" d="M1738.47,1287.58c-1.71,0-3.43,0-5.14,0v-41.69a4,4,0,1,1,7.93,0v41.59C1740.33,1287.54,1739.4,1287.58,1738.47,1287.58Z"/><path class="cls-10" d="M1756.9,1287.58c-1.71,0-3.43,0-5.14,0v-41.69a4,4,0,1,1,7.93,0v41.59C1758.76,1287.54,1757.83,1287.58,1756.9,1287.58Z"/><path class="cls-10" d="M1667.57,1289.11a4.36,4.36,0,0,0,4.29,4.42h94.78a4.36,4.36,0,0,0,4.29-4.42h0a4.35,4.35,0,0,0-4.29-4.41h-94.78a4.36,4.36,0,0,0-4.29,4.41Z"/><path class="cls-10" d="M1767,1241.94a4,4,0,0,1,4,4v45c-.93,0-1.86-3.38-2.79-3.38H1767Z"/><path class="cls-10" d="M1700,1287.58c1.71,0,3.43,0,5.15,0v-41.69a4,4,0,0,0-7.94,0v41.59C1698.17,1287.54,1699.1,1287.58,1700,1287.58Z"/><path class="cls-10" d="M1681.6,1287.58c1.71,0,3.43,0,5.14,0v-41.69a4,4,0,1,0-7.92,0v41.59C1679.74,1287.54,1680.67,1287.58,1681.6,1287.58Z"/><path class="cls-10" d="M1671.46,1241.94a4,4,0,0,0-4,4v45c.92,0,1.85-3.38,2.78-3.38h1.18Z"/><path class="cls-32" d="M1671.5,1233.87c.36-.89,3.2-7.62,7.91-7.62h79.68c4.72,0,7.55,6.73,7.91,7.62Z"/><rect class="cls-10" x="1667.57" y="1289.11" width="103.36" height="4.41"/><rect class="cls-10" x="1671.46" y="1432.41" width="141.9" height="154.71"/><rect class="cls-33" x="1671.46" y="1558.2" width="141.9" height="28.92"/><path class="cls-19" d="M1712,1467.69a12.27,12.27,0,0,0,12.28,12.27H1794a12.27,12.27,0,0,0,12.28-12.27h0a12.28,12.28,0,0,0-12.28-12.28h-69.79a12.28,12.28,0,0,0-12.28,12.28Z"/><path class="cls-34" d="M1736.44,1502.36h45.37a5.76,5.76,0,0,0,0-11.51h-45.37a5.76,5.76,0,0,0,0,11.51Z"/><path class="cls-34" d="M1736.44,1521.27h45.37a5.76,5.76,0,0,0,0-11.51h-45.37a5.76,5.76,0,0,0,0,11.51Z"/><path class="cls-35" d="M1641,1366.76l36.1-42.53a11.11,11.11,0,0,0,2.06-6.47c0-3.9.07-27.13.07-27.13l35.64-3.37v-.83l4.36.41,4.37-.41v.83l11.74,1.11-23.89,2.26s-.08,23.23-.08,27.13a11.14,11.14,0,0,1-2.05,6.47l-36.1,42.53s-15.88,17.39-15.88,33.37v199.35c0,20.43,21.63,41.42,21.63,41.42,0,2.64,24.1,4.85,56.37,5.41-5.18.09-10.57.14-16.11.14-40,0-72.47-2.49-72.47-5.55,0,0-21.64-21-21.64-41.42V1400.13C1625.14,1384.15,1641,1366.76,1641,1366.76Z"/><rect class="cls-36" x="1671.46" y="1432.41" width="109.69" height="154.71"/><path class="cls-37" d="M1671.46,1241.94v-8s2.9-7.72,8-7.72h39.84v67.28h-51.68v-2.59l-.07,0v-45A4,4,0,0,1,1671.46,1241.94Z"/><rect class="cls-37" x="1667.57" y="1289.11" width="103.36" height="4.41"/><path class="cls-38" d="M1798.22,1415.55a4.29,4.29,0,0,0,4.29-4.29v-10.77c0-13-17.78-34.45-19.8-36.86a4.3,4.3,0,0,0-6.57,5.54c6.88,8.16,17.78,23.88,17.78,31.32v10.77A4.3,4.3,0,0,0,1798.22,1415.55Z"/><path class="cls-39" d="M1792.57,1394.77a49.06,49.06,0,0,0-2-4.5c-3.28-5.76,3.35-11.38,5.92-7.09a66,66,0,0,1,3.68,7.46C1802.29,1396.26,1794.35,1399.76,1792.57,1394.77Z"/><path class="cls-8" d="M1334.25,1406.3c.43-11.48,1.12-29.14,1.49-34,.57-6.57,4.66-7.91,4.66-7.91s6.41-3.41,9.95-5.2,4.21-6.89,4.21-6.89l6.58-60.06,4.92-5.11h26.48l4.93,5.11,6.58,60.06s.66,5.1,4.2,6.89,10,5.2,10,5.2,4.09,1.34,4.66,7.91c.38,4.82,1.06,22.48,1.49,34h2.4v13.93h-94.9V1406.3Z"/><path class="cls-10" d="M1410.74,1406.3c-.43-11.48-1.11-29.14-1.49-34-.57-6.57-4.66-7.91-4.66-7.91s-6.4-3.41-9.95-5.2-4.21-6.89-4.21-6.89l-6.57-60.06-4.93-5.11h13.61l4.93,5.11,6.58,60.06s.66,5.1,4.2,6.89,10,5.2,10,5.2,4.09,1.34,4.66,7.91c.38,4.82,1.06,22.48,1.49,34h2.4v13.93h-13.61V1406.3Z"/><path class="cls-40" d="M1334.25,1406.3c.43-11.48,1.12-29.14,1.49-34,.57-6.57,4.66-7.91,4.66-7.91s6.41-3.41,9.95-5.2,4.21-6.89,4.21-6.89l6.58-60.06,4.92-5.11h13.61l-4.92,5.11-6.58,60.06s-.67,5.1-4.21,6.89-10,5.2-10,5.2-4.09,1.34-4.66,7.91c-.37,4.82-1.06,22.48-1.49,34h-2.4v13.93h-13.61V1406.3Z"/><path class="cls-8" d="M1326.54,1483.08l16.63-13.13s4.74-3.3,4.74-8.16v-11.94h-.76s-4.89,0-4.89-4.65v-3.29c-2.24-.24-8.18-1.54-8.18-8.55V1423.3l3.45-3.07h83.69l3.44,3.07v10.06c0,7-5.93,8.31-8.18,8.55v3.29c0,4.66-4.88,4.65-4.88,4.65h-.91v11.94c0,4.86,4.75,8.16,4.75,8.16l16.62,13.13s4.83,4.15,4.83,13.58V1610c0,11.66-12.63,13.61-12.63,13.61h-89.92s-12.63-2-12.63-13.61V1496.66C1321.71,1487.23,1326.54,1483.08,1326.54,1483.08Z"/><path class="cls-10" d="M1411.77,1610V1496.66c0-9.43-4.84-13.58-4.84-13.58L1390.31,1470s-4.75-3.3-4.75-8.16v-11.94h.91s4.89,0,4.89-4.65v-3.29c2.24-.24,8.18-1.54,8.18-8.55V1423.3l-3.45-3.07h25.13l3.44,3.07v10.06c0,7-5.93,8.31-8.18,8.55v3.29c0,4.66-4.88,4.65-4.88,4.65h-.91v11.94c0,4.86,4.75,8.16,4.75,8.16l16.62,13.13s4.83,4.15,4.83,13.58V1610c0,11.66-12.63,13.61-12.63,13.61h-25.12S1411.77,1621.7,1411.77,1610Z"/><path class="cls-40" d="M1326.54,1483.08l16.63-13.13s4.74-3.3,4.74-8.16v-11.94h-.76s-4.89,0-4.89-4.65v-3.29c-2.24-.24-8.18-1.54-8.18-8.55V1423.3l3.45-3.07h24.08l-3.45,3.07v10.06c0,7,5.94,8.31,8.18,8.55v3.29c0,4.66,4.89,4.65,4.89,4.65h.76v11.94c0,4.86-4.74,8.16-4.74,8.16l-16.63,13.13s-4.83,4.15-4.83,13.58V1610c0,11.66,12.63,13.61,12.63,13.61h-24.08s-12.63-2-12.63-13.61V1496.66C1321.71,1487.23,1326.54,1483.08,1326.54,1483.08Z"/><path class="cls-7" d="M1334.08,1432.22v-8.92l3.45-3.07h83.69l3.44,3.07v8.92Z"/><rect class="cls-41" x="1331.85" y="1406.3" width="94.9" height="7.45"/><path class="cls-19" d="M1367.62,1543.77h69.27V1573h-69.27a13.94,13.94,0,0,1-13.94-13.93v-1.41A13.94,13.94,0,0,1,1367.62,1543.77Z"/><rect class="cls-42" x="1386.14" y="1498.25" width="33.41" height="33.41" rx="3.89"/><path class="cls-19" d="M1382,1512.21a3.89,3.89,0,0,0,0,5.5l18.12,18.12a3.88,3.88,0,0,0,5.51,0l18.12-18.12a3.89,3.89,0,0,0,0-5.5l-18.12-18.13a3.92,3.92,0,0,0-5.51,0Z"/><path class="cls-43" d="M1385.37,1589.46h35a4.43,4.43,0,0,0,0-8.86h-35a4.43,4.43,0,1,0,0,8.86Z"/><path class="cls-20" d="M1411.77,1610V1496.66c0-9.43-4.84-13.58-4.84-13.58l-.2-.17h25.12l.21.17s4.83,4.15,4.83,13.58V1610c0,11.66-12.63,13.61-12.63,13.61h-25.12S1411.77,1621.7,1411.77,1610Z"/><path class="cls-28" d="M565.86,1014.09c4.31-4.3,12.44-11.8,16.19-15.2s4-9,4-9V974.81h-.27a2.87,2.87,0,0,1-2.87-2.87v-5.89a2.86,2.86,0,0,1,2.87-2.87h70.82a2.86,2.86,0,0,1,2.86,2.87v5.89a2.87,2.87,0,0,1-2.86,2.87h-.17v15.08s.26,5.6,4,9,11.89,10.9,16.19,15.2,4.58,10.72,4.58,10.72V1203c0,9.39-11.7,15.7-11.7,15.7h0c0,2.72-21.63,4.92-48.32,4.92s-48.31-2.2-48.31-4.92v0c-1-.55-11.63-6.7-11.63-15.66V1024.81S561.56,1018.4,565.86,1014.09Z"/><path class="cls-44" d="M656.62,974.81h-.17v6.28H586.07v-6.28h-.27a2.87,2.87,0,0,1-2.87-2.87v-5.89a2.86,2.86,0,0,1,2.87-2.87h70.82a2.86,2.86,0,0,1,2.86,2.87v5.89A2.87,2.87,0,0,1,656.62,974.81Z"/><rect class="cls-45" x="561.28" y="1054.38" width="105.45" height="115.16"/><path class="cls-12" d="M574.73,1094.55a10.94,10.94,0,0,0,10.94,11h16.12a10.94,10.94,0,0,0,10.94-11v-16.12a10.94,10.94,0,0,0-10.94-10.94H585.67a10.94,10.94,0,0,0-10.94,10.94Z"/><path class="cls-12" d="M576.26,1153.22H611.2a4.44,4.44,0,1,0,0-8.87H576.26a4.44,4.44,0,0,0,0,8.87Z"/><path class="cls-26" d="M561.28,1116.85a10.09,10.09,0,0,1,3.85-.76h57.2a10.06,10.06,0,0,1,0,20.12h-57.2a10.09,10.09,0,0,1-3.85-.76Z"/><path class="cls-35" d="M565.86,1014.09c4.31-4.3,12.44-11.8,16.19-15.2s4-9,4-9V974.81h-.27a2.87,2.87,0,0,1-2.87-2.87v-5.89a2.86,2.86,0,0,1,2.87-2.87h22a2.86,2.86,0,0,0-2.86,2.87v5.89a2.87,2.87,0,0,0,2.86,2.87h.27v15.08s-.25,5.6-4,9-11.88,10.9-16.19,15.2-4.58,10.72-4.58,10.72V1203c0,9,10.64,15.11,11.62,15.66v0c0,2.33,15.94,4.28,37.33,4.79-3.54.08-7.21.13-11,.13-26.68,0-48.31-2.2-48.31-4.92v0c-1-.55-11.63-6.7-11.63-15.66V1024.81S561.56,1018.4,565.86,1014.09Z"/><path class="cls-38" d="M646.5,1218.74s11.7-6.31,11.7-15.7V1024.81s-.27-6.41-4.58-10.72-12.43-11.8-16.19-15.2-4-9-4-9V974.81h.16a2.87,2.87,0,0,0,2.87-2.87v-5.89a2.86,2.86,0,0,0-2.87-2.87h23a2.86,2.86,0,0,1,2.86,2.87v5.89a2.87,2.87,0,0,1-2.86,2.87h-.17v15.08s.26,5.6,4,9,11.89,10.9,16.19,15.2,4.58,10.72,4.58,10.72V1203c0,9.39-11.7,15.7-11.7,15.7,0,2.72-21.63,4.92-48.32,4.92-4,0-7.82-.05-11.51-.14C630.82,1223,646.5,1221.05,646.5,1218.74Z"/><path class="cls-31" d="M582.16,961.9V921.18c0-4.31,5.93-8.37,5.93-8.37h66.23s5.94,4.06,5.94,8.37v40.69a5.29,5.29,0,0,1,3.42,5.09v2H578.84v-2A5.32,5.32,0,0,1,582.16,961.9Z"/><path class="cls-10" d="M622.07,965H619V931.55a2.36,2.36,0,0,1,4.72,0v33.36Z"/><path class="cls-10" d="M660.89,965h-3.06V931.55a2.36,2.36,0,0,1,4.72,0v33.36Z"/><path class="cls-10" d="M642.28,965h-3.06V931.55a2.36,2.36,0,0,1,4.72,0v33.36Z"/><path class="cls-10" d="M581.39,965h3.06V931.55a2.36,2.36,0,0,0-4.71,0v33.36Z"/><path class="cls-10" d="M600.47,965h3.06V931.55a2.36,2.36,0,0,0-4.72,0v33.36Z"/><path class="cls-10" d="M663,964.22a5.66,5.66,0,0,1,.7,2.74v2H578.84v-2a5.66,5.66,0,0,1,.7-2.74Z"/><path class="cls-32" d="M582.59,919.12c1.35-3.46,5.5-6.31,5.5-6.31h66.23s4.15,2.85,5.5,6.31Z"/><path class="cls-37" d="M578.9,966.17c0-.14.05-.28.08-.42s0-.2.07-.3a4.27,4.27,0,0,1,.18-.54.3.3,0,0,1,0-.1,4.68,4.68,0,0,1,.47-.92V931.55a2.35,2.35,0,0,1,2.35-2.35h.07v-8c0-4.31,5.93-8.37,5.93-8.37h33.28v53.77h42.28c0,.12,0,.25,0,.38v2H578.84v-2A5.16,5.16,0,0,1,578.9,966.17Z"/><path class="cls-38" d="M668.78,1029.3a2.62,2.62,0,0,0,2.62-2.62v-4.92a10.35,10.35,0,0,0-3.1-7l-10.48-11.09a2.61,2.61,0,1,0-3.8,3.59l10.64,11.26h0a5.26,5.26,0,0,1,1.5,3.27v4.92A2.62,2.62,0,0,0,668.78,1029.3Z"/><path class="cls-39" d="M663.78,1017.55l-3.76-4c-2-2.09,1.36-6.18,3.31-4.11l4.24,4.48C669.91,1016.45,666.11,1020.17,663.78,1017.55Z"/><path class="cls-19" d="M217.11,1051.94s17.44-13.46,20.19-15.47a6.79,6.79,0,0,0,2.76-5.09l0-6.5a5.57,5.57,0,0,1-3.56-5.23v-9h3.61v-.32H407.61v.32h3.61v9a5.57,5.57,0,0,1-3.56,5.23l0,6.5a6.8,6.8,0,0,0,2.75,5.09c2.75,2,20.19,15.47,20.19,15.47s4.25,2,4.25,8.66v117c0,8.22-21.64,22.49-25.36,24.89.26.12.4.23.4.35,0,2-38.31,3.65-85.57,3.65s-85.57-1.63-85.57-3.65c0,0-25.92-16.25-25.92-25.24v-117C212.86,1053.94,217.11,1051.94,217.11,1051.94Z"/><path class="cls-44" d="M407.66,1024.88l0,5.82H240.06l0-5.82a5.57,5.57,0,0,1-3.56-5.23v-9h3.61v-.32H407.61v.32h3.61v9A5.57,5.57,0,0,1,407.66,1024.88Z"/><rect class="cls-8" x="212.86" y="1067.72" width="194.84" height="83.54"/><rect class="cls-19" x="362.23" y="1067.72" width="45.48" height="83.54"/><path class="cls-12" d="M235.49,1100.29a12,12,0,0,0,12,12H315.6a12,12,0,0,0,12-12h0a12,12,0,0,0-12-12H247.47a12,12,0,0,0-12,12Z"/><path class="cls-12" d="M249.49,1128.59h64.09a3.48,3.48,0,1,0,0-6.95H249.49a3.48,3.48,0,1,0,0,6.95Z"/><rect class="cls-8" x="374.03" y="1090.27" width="11.35" height="38.46"/><path class="cls-38" d="M371.35,1202.86c0-.12-.15-.23-.41-.35,3.72-2.4,25.37-16.67,25.37-24.89v-117c0-6.66-4.26-8.66-4.26-8.66s-17.44-13.46-20.19-15.47a6.8,6.8,0,0,1-2.75-5.09l0-6.5a5.58,5.58,0,0,0,3.57-5.23v-9H369v-.32h38.58v.32h3.61v9a5.57,5.57,0,0,1-3.56,5.23l0,6.5a6.8,6.8,0,0,0,2.75,5.09c2.75,2,20.19,15.47,20.19,15.47s4.25,2,4.25,8.66v117c0,8.22-21.64,22.49-25.36,24.89.26.12.4.23.4.35,0,2-38.31,3.65-85.57,3.65-6.64,0-13.09,0-19.29-.09C343,1206,371.35,1204.6,371.35,1202.86Z"/><path class="cls-46" d="M217.11,1051.94s17.44-13.46,20.19-15.47a6.79,6.79,0,0,0,2.76-5.09l0-6.5a5.57,5.57,0,0,1-3.56-5.23v-9h3.61v-.32h39.18v.32H275.7v9a5.59,5.59,0,0,0,3.56,5.23l0,6.5a6.8,6.8,0,0,1-2.75,5.09c-2.75,2-20.19,15.47-20.19,15.47s-4.26,2-4.26,8.66v117c0,9,25.93,25.24,25.93,25.24,0,1.73,28.16,3.18,66,3.55-6.3.06-12.85.1-19.6.1-47.26,0-85.57-1.63-85.57-3.65,0,0-25.92-16.25-25.92-25.24v-117C212.86,1053.94,217.11,1051.94,217.11,1051.94Z"/><path class="cls-8" d="M234,997.45V938.1a9.41,9.41,0,0,1,9.17-9.64H403.87A9.42,9.42,0,0,1,413,938.1v59.35Z"/><path class="cls-8" d="M229.68,999.54v-9.91a6,6,0,0,1,5.89-6.18H412.18a6,6,0,0,1,5.88,6.18v9.91Z"/><polygon class="cls-8" points="235.33 999.54 316.62 999.54 331.12 999.54 412.42 999.54 418.06 1005.82 418.06 1015.62 331.12 1015.62 316.62 1015.62 229.68 1015.62 229.68 1005.82 235.33 999.54"/><polygon class="cls-7" points="229.74 1005.76 235.33 999.54 316.62 999.54 331.12 999.54 412.42 999.54 418 1005.76 229.74 1005.76"/><polygon class="cls-7" points="229.74 1005.76 235.33 999.54 316.62 999.54 331.12 999.54 412.42 999.54 418 1005.76 229.74 1005.76"/><path class="cls-7" d="M320.55,989a3,3,0,0,0,3,3h0a3,3,0,0,0,3-3V945.3a3,3,0,0,0-3-3h0a3,3,0,0,0-3,3Z"/><path class="cls-7" d="M339.88,989a3,3,0,0,0,3,3h0a3,3,0,0,0,3-3V945.3a3,3,0,0,0-3-3h0a3,3,0,0,0-3,3Z"/><path class="cls-7" d="M359.23,989a3,3,0,0,0,3,3h0a3,3,0,0,0,3-3V945.3a3,3,0,0,0-3-3h0a3,3,0,0,0-3,3Z"/><path class="cls-7" d="M378.6,989a3,3,0,0,0,3,3h0a3,3,0,0,0,3-3V945.3a3,3,0,0,0-3-3h0a3,3,0,0,0-3,3Z"/><path class="cls-7" d="M397.94,989a3,3,0,0,0,3,3h0a3,3,0,0,0,3-3V945.3a3,3,0,0,0-3-3h0a3,3,0,0,0-3,3Z"/><path class="cls-7" d="M243.15,989a3,3,0,0,0,3,3h0a3,3,0,0,0,3-3V945.3a3,3,0,0,0-3-3h0a3,3,0,0,0-3,3Z"/><path class="cls-7" d="M262.49,989a3,3,0,0,0,3,3h0a3,3,0,0,0,3-3V945.3a3,3,0,0,0-3-3h0a3,3,0,0,0-3,3Z"/><path class="cls-7" d="M281.83,989a3,3,0,0,0,3,3h0a3,3,0,0,0,3-3V945.3a3,3,0,0,0-3-3h0a3,3,0,0,0-3,3Z"/><path class="cls-7" d="M301.2,989a3,3,0,0,0,3,3h0a3,3,0,0,0,3-3V945.3a3,3,0,0,0-3-3h0a3,3,0,0,0-3,3Z"/><path class="cls-8" d="M229.68,999.54v-9.91a6,6,0,0,1,5.89-6.18H412.18a6,6,0,0,1,5.88,6.18v9.91Z"/><path class="cls-7" d="M229.72,988.92a6,6,0,0,1,5.85-5.47H412.18a6,6,0,0,1,5.83,5.47Z"/><path class="cls-7" d="M229.68,989.63c0-.24,0-.47,0-.71h0a6.56,6.56,0,0,1,.63-2.14v0a6.11,6.11,0,0,1,.54-.88l0-.07a6.4,6.4,0,0,1,.65-.73l.08-.08a5.88,5.88,0,0,1,.75-.59l.11-.08a6.71,6.71,0,0,1,.84-.44l.12,0a4.27,4.27,0,0,1,.54-.18V938.1a9.41,9.41,0,0,1,9.17-9.64h80.33v87.16H229.68v-9.8l.06-.06,5.59-6.22h-5.65Z"/><path class="cls-20" d="M234.07,937.36a9.37,9.37,0,0,1,9.14-8.9H403.87a9.37,9.37,0,0,1,9.14,8.9Z"/><path class="cls-20" d="M229.68,992v-2.36c0-.24,0-.47,0-.71H418a5.65,5.65,0,0,1,.05.71V992Z"/><path class="cls-20" d="M229.68,1009.11v-2.36c0-.24,0-.48,0-.71H418a5.52,5.52,0,0,1,.05.71v2.36Z"/><path class="cls-41" d="M355.53,999.54V947.83a12.56,12.56,0,0,1,12.56-12.56h7.67a12.56,12.56,0,0,1,12.57,12.56v51.71Z"/><path class="cls-38" d="M418,1082.55a2.62,2.62,0,0,0,2.62-2.62v-18.28c0-4.72-3.54-7.89-3.94-8.24l-11-9.82a2.62,2.62,0,1,0-3.49,3.9l11,9.86a6.63,6.63,0,0,1,2.16,4.3v18.28A2.61,2.61,0,0,0,418,1082.55Z"/><path class="cls-10" d="M414.91,1059.68a8,8,0,0,0-1.68-2.33l-2.09-1.87c-4-3.44.7-6.39,3.8-3.62l1.74,1.55a12.55,12.55,0,0,1,3.35,4.93C421.13,1061.52,416.1,1062.43,414.91,1059.68Z"/><rect class="cls-10" x="355.53" y="1005.76" width="32.8" height="9.86"/></g><g id="Mandjes"><path class="cls-5" d="M1566.49,980.93l-272.88,581.14a3.83,3.83,0,0,0,1.84,5.1,3.85,3.85,0,0,0,5.1-1.84L1570,991.59"/><path class="cls-5" d="M1570,991.59l269.41,573.74a3.83,3.83,0,0,0,6.94-3.26L1573.43,980.93"/><path class="cls-47" d="M1856.81,1564.33c0,113.37-223.09,126.78-286.85,126.78s-286.85-13.41-286.85-126.78Z"/><path class="cls-48" d="M1320.53,1564.33c26.52,93.45,224.42,105.12,283.86,105.12,40.56,0,145.59-5.44,216.65-38.57-65.18,52.57-204.17,60.23-252.32,60.23-63.76,0-286.85-13.41-286.85-126.78Z"/><path class="cls-5" d="M451.63,588.84,178.75,1173.79a3.83,3.83,0,0,0,1.85,5.1,3.77,3.77,0,0,0,1.62.36,3.85,3.85,0,0,0,3.48-2.21L455.1,599.53"/><path class="cls-5" d="M455.1,599.53,724.5,1177a3.84,3.84,0,0,0,7-3.25L458.58,588.84"/><path class="cls-49" d="M742,1172.23C742,1285.6,518.86,1299,455.1,1299s-286.85-13.4-286.85-126.77Z"/><path class="cls-50" d="M206.91,1172.23c26.52,93.45,224.42,105.11,283.87,105.11,40.56,0,145.58-5.43,216.65-38.56C642.25,1291.34,503.25,1299,455.1,1299c-63.76,0-286.85-13.4-286.85-126.77Z"/></g><g id="Weegschaal"><path class="cls-47" d="M168.28,1849.37H1857.55a22.57,22.57,0,0,1,22.5,22.5h0a22.57,22.57,0,0,1-22.5,22.5H168.28a22.57,22.57,0,0,1-22.5-22.5h0A22.56,22.56,0,0,1,168.28,1849.37Z"/><path class="cls-51" d="M1574.4,979.85a3.83,3.83,0,0,0-6.86-1.06"/><polygon class="cls-49" points="462.84 619.36 998.05 848.4 1562.98 988.99 1570.33 967.12 470.18 597.49 462.84 619.36"/><path class="cls-48" d="M733.36,1807.58h76.82a14.88,14.88,0,0,1-14.88-14.88v-16.24a14.88,14.88,0,0,1,14.88-14.88h405.46a14.88,14.88,0,0,1,14.88,14.88v16.24a14.88,14.88,0,0,1-14.88,14.88h76.82a27.86,27.86,0,0,1,27.86,27.86V1844a27.86,27.86,0,0,1-27.86,27.86H733.36A27.87,27.87,0,0,1,705.5,1844v-8.57A27.86,27.86,0,0,1,733.36,1807.58Z"/><rect class="cls-48" x="986.12" y="720.9" width="53.58" height="1040.68" transform="translate(2025.82 2482.48) rotate(-180)"/><rect class="cls-50" x="986.12" y="720.9" width="26.79" height="1040.68" transform="translate(1999.03 2482.48) rotate(-180)"/><circle class="cls-48" cx="455.1" cy="601.19" r="37.01" transform="translate(-208.64 958.97) rotate(-81.2)"/><path class="cls-50" d="M460.76,564.84,449.44,638a37,37,0,0,1,11.32-73.15Z"/><circle class="cls-48" cx="1012.91" cy="720.9" r="59.88"/><path class="cls-50" d="M1012.91,661V780.78a59.88,59.88,0,0,1,0-119.76Z"/><circle class="cls-48" cx="1570.72" cy="980.93" r="37.01" transform="translate(361.05 2383.11) rotate(-81.2)"/><path class="cls-50" d="M1576.38,944.58l-11.32,73.14a37,37,0,1,1,11.32-73.14Z"/><path class="cls-50" d="M733.36,1807.58h76.82a14.88,14.88,0,0,1-14.88-14.88v-16.24a14.88,14.88,0,0,1,14.88-14.88h202.73v110.29H733.36A27.87,27.87,0,0,1,705.5,1844v-8.57A27.86,27.86,0,0,1,733.36,1807.58Z"/></g><g id="Tekst"><path class="cls-10" d="M774.68,147.48V290.27h-8.57l-97.31-124v124H658.4V147.48h8.77l97.1,124v-124Z"/><path class="cls-10" d="M815.89,149.72a8.39,8.39,0,0,1,8.36-8.36,8.26,8.26,0,1,1-8.36,8.36Zm3.26,34.07h10.2V290.27h-10.2Z"/><path class="cls-10" d="M960.31,239.48H868.72c1,25.29,19.58,42.43,45.08,42.43,13.47,0,25.91-4.9,34.07-14.89l5.92,6.73c-9.39,11.42-24.08,17.34-40.19,17.34-32.23,0-54.88-22.44-54.88-54.06s21.83-54.06,51-54.06,50.8,22,50.8,53.65C960.52,237.44,960.31,238.46,960.31,239.48Zm-91.39-8h81.6c-1.43-23.05-18.15-39.57-40.8-39.57S870.56,208.27,868.92,231.52Z"/><path class="cls-10" d="M1083.32,183.79V290.27h-9.79V267.42c-6.94,14.9-21.42,23.67-40.19,23.67-27.13,0-44.47-15.3-44.47-45.08V183.79h10.2v61.4c0,24.07,12.85,36.72,35.09,36.72,24.07,0,39-16.12,39-41.41V183.79Z"/><path class="cls-10" d="M1276.71,183.79l-40.39,106.48h-9.59l-35.9-92.41-36.11,92.41h-9.38L1105,183.79h9.79l35.49,95.06,36.31-95.06h8.78l36.1,94.85,35.91-94.85Z"/><path class="cls-10" d="M1385.24,239.48h-91.59c1,25.29,19.58,42.43,45.08,42.43,13.46,0,25.91-4.9,34.07-14.89l5.91,6.73c-9.38,11.42-24.07,17.34-40.18,17.34-32.24,0-54.88-22.44-54.88-54.06s21.83-54.06,51-54.06,50.79,22,50.79,53.65C1385.44,237.44,1385.24,238.46,1385.24,239.48Zm-91.39-8h81.6c-1.43-23.05-18.16-39.57-40.8-39.57S1295.48,208.27,1293.85,231.52Z"/><path class="cls-10" d="M285.6,413.79v95.06c0,35.7-17.34,51.81-51.61,51.81-19.38,0-38-6.12-48.76-16.93l5.51-7.75c10.61,9.79,25.91,15.5,43,15.5,28.36,0,41.62-13.05,41.62-41.41V492.12c-8.77,15.5-25.09,24.28-44.27,24.28-30.19,0-53-21.42-53-51.82s22.85-51.61,53-51.61c19.59,0,36.11,9,44.68,24.89V413.79Zm-10,50.79c0-25.09-18.36-42.43-43.65-42.43-25.09,0-43.45,17.34-43.45,42.43s18.36,42.64,43.45,42.64C257.24,507.22,275.6,489.67,275.6,464.58Z"/><path class="cls-10" d="M416.77,469.48H325.18c1,25.29,19.58,42.43,45.08,42.43,13.46,0,25.91-4.9,34.07-14.89l5.91,6.73c-9.38,11.42-24.07,17.34-40.19,17.34-32.23,0-54.87-22.44-54.87-54.06S337,413,366.18,413,417,435,417,466.62C417,467.44,416.77,468.46,416.77,469.48Zm-91.39-8H407c-1.43-23-18.16-39.57-40.8-39.57S327,438.27,325.38,461.52Z"/><path class="cls-10" d="M541.82,458.05v62.22h-10.2v-61.4c0-24.07-12.85-36.72-34.48-36.72-25.09,0-40.39,16.12-40.39,41.41v56.71h-10.2V413.79h9.79v23c7.14-14.89,22-23.87,42.23-23.87C524.48,413,541.82,428.27,541.82,458.05Z"/><path class="cls-10" d="M672,469.48h-91.6c1,25.29,19.59,42.43,45.09,42.43,13.46,0,25.9-4.9,34.06-14.89l5.92,6.73c-9.39,11.42-24.07,17.34-40.19,17.34-32.23,0-54.87-22.44-54.87-54.06S592.2,413,621.38,413s50.79,22,50.79,53.65C672.17,467.44,672,468.46,672,469.48Zm-91.39-8h81.59C660.75,438.47,644,422,621.38,422S582.21,438.27,580.58,461.52Z"/><path class="cls-10" d="M791.71,469.48H700.12c1,25.29,19.58,42.43,45.08,42.43,13.46,0,25.91-4.9,34.07-14.89l5.91,6.73c-9.38,11.42-24.07,17.34-40.18,17.34-32.24,0-54.88-22.44-54.88-54.06S712,413,741.12,413s50.79,22,50.79,53.65C791.91,467.44,791.71,468.46,791.71,469.48Zm-91.39-8h81.6c-1.43-23-18.16-39.57-40.8-39.57S702,438.27,700.32,461.52Z"/><path class="cls-10" d="M805.79,507.42l4.69-8.16c8.16,6.94,22.64,12.85,38.35,12.85,22.44,0,31.41-7.95,31.41-20,0-31-70.58-8.16-70.58-50,0-16.11,13.47-29.17,40.39-29.17,13.47,0,28.15,4.08,36.52,10.4l-4.69,8.16c-9-6.52-20.61-9.58-32-9.58-20.81,0-30,8.56-30,20,0,32,70.58,9.38,70.58,50,0,17.34-14.89,29.17-42,29.17C830.88,521.09,814.15,515.17,805.79,507.42Z"/><path class="cls-10" d="M1092,458.05v62.22h-10.2v-61.4c0-24.07-12.44-36.72-33.25-36.72-24.07,0-39,16.12-39,41.41v56.71h-10.2v-61.4c0-24.07-12.44-36.72-33.25-36.72-24.07,0-39,16.12-39,41.41v56.71H917V413.79h9.8v22.84c6.93-14.89,21.42-23.66,40.8-23.66,19.17,0,33.25,8.77,39,25.7,6.94-15.5,22.44-25.7,43-25.7C1075.27,413,1092,428.27,1092,458.05Z"/><path class="cls-10" d="M1128.72,379.72a8.39,8.39,0,0,1,8.36-8.36,8.26,8.26,0,1,1-8.36,8.36Zm3.26,34.07h10.2V520.27H1132Z"/><path class="cls-10" d="M1277.83,368.91V520.27h-10V495.18c-8.36,16.52-24.48,25.91-43.66,25.91-30,0-52.63-22.24-52.63-54.06,0-32,22.65-54.06,52.63-54.06,19,0,34.89,9.38,43.45,25.5V368.91ZM1267.63,467c0-26.72-18.35-44.88-42.83-44.88S1182,440.31,1182,467s18.36,44.88,42.84,44.88S1267.63,493.75,1267.63,467Z"/><path class="cls-10" d="M1413.49,368.91V520.27h-10V495.18c-8.37,16.52-24.48,25.91-43.66,25.91-30,0-52.63-22.24-52.63-54.06,0-32,22.64-54.06,52.63-54.06,19,0,34.88,9.38,43.45,25.5V368.91ZM1403.29,467c0-26.72-18.36-44.88-42.84-44.88s-42.84,18.16-42.84,44.88,18.36,44.88,42.84,44.88S1403.29,493.75,1403.29,467Z"/><path class="cls-10" d="M1544.46,469.48h-91.6c1,25.29,19.59,42.43,45.09,42.43,13.46,0,25.9-4.9,34.06-14.89l5.92,6.73c-9.38,11.42-24.07,17.34-40.19,17.34-32.23,0-54.87-22.44-54.87-54.06s21.83-54.06,51-54.06,50.79,22,50.79,53.65C1544.66,467.44,1544.46,468.46,1544.46,469.48Zm-91.39-8h81.6c-1.43-23-18.16-39.57-40.8-39.57S1454.7,438.27,1453.07,461.52Z"/><path class="cls-10" d="M1574.24,368.91h10.2V520.27h-10.2Z"/><path class="cls-10" d="M1715.4,469.48h-91.59c1,25.29,19.58,42.43,45.08,42.43,13.47,0,25.91-4.9,34.07-14.89l5.92,6.73c-9.39,11.42-24.07,17.34-40.19,17.34-32.23,0-54.87-22.44-54.87-54.06s21.82-54.06,51-54.06,50.8,22,50.8,53.65C1715.61,467.44,1715.4,468.46,1715.4,469.48Zm-91.39-8h81.6c-1.43-23-18.15-39.57-40.8-39.57S1625.65,438.27,1624,461.52Z"/><path class="cls-10" d="M1840.45,458.05v62.22h-10.2v-61.4c0-24.07-12.85-36.72-34.47-36.72-25.09,0-40.39,16.12-40.39,41.41v56.71h-10.2V413.79H1755v23c7.14-14.89,22-23.87,42.23-23.87C1823.11,413,1840.45,428.27,1840.45,458.05Z"/></g></g></g></svg>