<svg xmlns="http://www.w3.org/2000/svg" viewBox="0 0 2000.21 2000"><defs><style>.cls-1{fill:#0099b8;}.cls-2{fill:none;stroke:#b6b6b6;stroke-linecap:round;stroke-width:10px;}.cls-3{fill:#dbf0f5;}.cls-4{fill:#6dc5d6;}.cls-5{fill:#b6e2eb;}.cls-6{fill:#702283;}.cls-7{fill:#fff;}.cls-8{fill:#84429d;}.cls-9{fill:#d6c0de;}.cls-10{fill:#ad81be;}.cls-11{fill:#ebdfef;}.cls-12{fill:#c2a0ce;}.cls-13{fill:#9961ae;}.cls-14{fill:#70228d;}.cls-15{fill:#f0fffa;}</style></defs><g id="Layer_2" data-name="Layer 2"><g id="Achtergrond"><polygon class="cls-1" points="2000 2000 0 2000 0 0 1710 0 2000 289.99 2000 2000"/><line class="cls-2" x1="1762.88" y1="66.1" x2="1947.12" y2="66.1"/><line class="cls-2" x1="1762.88" y1="107.37" x2="1947.12" y2="107.37"/><line class="cls-2" x1="1762.88" y1="148.64" x2="1947.12" y2="148.64"/><line class="cls-2" x1="1762.88" y1="189.91" x2="1947.12" y2="189.91"/><path class="cls-3" d="M499.05,752.38c4.87-11.47,2.49-25.44,18.57-25.34s30.58,5.09,37.29-5,11.79-16.84,25.62-27.56,23.49-35.25,30.48-39,4.8-13.05,35.31-9.53,39.55,5.84,60.83,2.32,38.1,13.86,27.9,25.83S687.61,692.6,681,704.24s-9.74,23-2.35,28.59,18,3.09,50.35,8,62.54.59,61.3,13.32S766.64,786.27,760,797.91s-24.67,49.54-36.93,55.39-26.21,13.43-29.44,21.61-17,20.47-4.12,28.75,41.45,8.82,55,32.81,10.65,40,14.74,52.25-1.21,55.28,15.41,68,38.44,21.71,44.65,41.64,12.82,49.27,13,54,9.91,22.74,8.67,35.46,4.63,24.8-5.71,33.63-13.63,15.43-4.53,19.33,20.54-20.79,47.83-9.1,62.11,32.16,49.15,63.29-43.07,37-58.75,46.36-35,17.38-28.9,34.16,22.09,15.33,36.26,12.46,29.87,30.37-2,38-56.06,25.61-88.35,22.25-41,2.17-66.17-1.83-53.84-6.12-75.06-1-42.7,3.9-55.42-1.24-34.48-12.62-46.66-5.2-21.45,41.37-39.58,35.14-25.65-15-41.66-13.53-40.59,11.59-52.77,19-51.67,3.14-41.33-5.69,47.37-20.09,55.93-28.75,32.8-26.64,41.22-38.45,25.61-27.56,45.32-26.2,43.17,7.09,57-3.63,4.4-22.48-13.73-28.7-31.45-25.5-52.87-25.12-60.16,13.37-57.54-8.93,5.91-28.92,36.09-33.25,51.32-11,55.65-35-21-31.18-18.22-50.35,9.26-33.95,32.52-32.92,39.68,9,66.5,9.69,32.47-34.5,30.15-46.89.64-26.86-10.71-41.59-28.17-32.11-17.89-42.5,29.44-21.61,18.36-30.05-37.57-1.3-49.95,1.41-65.7,9.15-64.66-8.28,14.54-36,32-45.49,23.77-29,10.71-42-47.06-14.62-47.87-33.46,12.82-34.28,21.18-47.65,14.54-36-3.79-46.95S499.05,752.38,499.05,752.38Z"/><path class="cls-4" d="M359.43,1210.31c-2.21-11.81-11.26-24.5,5.37-33.52s46.8-19.29,47.86-34.4-4.06-55.18-6.14-64-16.08-18.05-38.3-20.53-29.38-10.82-51.6-13.3-44.57-7.94-57.42,9.75-7.39,26.2-15.16,43.42-15.92,25.48-36.57,19.86-21.42-23.57-44.76-12.43-39.77,24.65-40.51,47.24,17,40.48,23,59.45,9.94,33.63-15.22,41.93S89.6,1265,76.68,1281.17s-24.59,21.77-16.85,43.58,35.07,64.35,70.4,55.12,48.69-15,78.87-25.22,31.56-17.89,64-16.35,50.89-3.15,60.16-25,22.19-38.06,26.57-55S359.43,1210.31,359.43,1210.31Z"/><path class="cls-4" d="M501.31,1806.83s-17.33-7.42-29.58-15.31-23.11-23.41-45.4-27.38-42.55-.62-51.79-17.79,14-29.81,12-37.13-13.2-30.32,13.91-32.8,42.42-2.37,67.84-4.69,24.3,11.29,53.49,17.63,37.92,11.55,58.19,8.2,25.28-5.32,28.1-19.09-3.23-35.73-7.26-50.38-34-38.93-1.6-37.38,27-4,39.93,18.87,36.87,26.66,59,27.64,39-3.56,45.3-14.65,3.81-30.37,32.68-31.51,43.92-7,48.56-18,9.75-50.43,9.75-50.43-6.11-23.46,17.55-27.13,49-7.48,75.61-21.92,31.69-14.9,43.23-23.46,40.57-45.74,55.31-59.1,24.07-33.73,27.07-43,13.46-43.26,13.46-43.26c27.11-2.48,35.87-36.31,35.27-10.73s-4,25.89-6.68,42.64,6.17,25,17.77,17.9,26.73-11.45,19.25-27.28-17.78-17.9-18.23-28.36-10.55-8,.87-19.6,24.58-21.76,38.14-23l45.75-4.18c6.78-.62,20.33-1.86,30.24-8.77s38.59-12.53,45.37-13.15,14.19,13.72,26.12,14.13-.13-3,9.53-15.88,33.69-7.59,33.05-22.54-14.51-21.19-16.59-30,.61-25.58,2.11-30.22S1326,1122,1326,1122s25.64-36.87,9.75-50.44-42.29,5.37-36.67-22.17-6.3-27.95-2.24-52.34,12.82-58.22,16-63,21.2-21.46,36.45-22.85,40.21-14.18,41.65-20.32,10.52-32.49,31-29.86,34.91,20.83,22.06,38.52-24.27,29.24-22.06,41,18.22,28.36,28.39,27.43,16.21,21,7.93,26.3-23.66,3.66-28,20.58-15.79,28.46-13.84,34.29,28.74-4.13,34.33,7.37,11.32,26,3.11,32.75-50.26,18.1-50.26,18.1,3.48,41.72,7.13,47.39,39.55,9.9,44.63,9.44,43.16-25,30.5-2.79-24.14,32.23-12.15,34.14,37.47,1.08,42.3-5.37,16-22.48,29.47-26.71-9.87-32.13,19.57-19.8,34.91,20.83,57.32,27.79,46.14,4.79,52.92,4.17,34-1.6,45.56-8.66,43.6-14.49,50.12-21.1,27.92-23.56,32.81-28.51,33.12-21,41.46-24.81,19.82-13.82,38.46-15.52,45.5-10.16,51-.16,26.25,17.12,33,16.5,21.54.95,32.18,5.38c.57.24.14,901,.14,901l-1409.61.15s-12.66-75.46-16.24-79.64-18.67-38.82-18.67-38.82a267.3,267.3,0,0,0-26.63-26.1c-15.89-13.56-16.79-34.49-16.79-34.49Z"/><path class="cls-4" d="M1076.26,1294.54c-5.72.52-8.41-2.61-5.37-6.26s5.45-6.7,6.65-8.49,5-1.59,5.16,1.21,1,7.8-1.48,10.27A13.39,13.39,0,0,1,1076.26,1294.54Z"/><path class="cls-4" d="M1087.35,1270.44c7.43-5.18,12.91-11.31,19.22-13s14,.41,8.45,3.73-11.91,5-15,7.56-8,8-11.83,6.71S1087.35,1270.44,1087.35,1270.44Z"/><path class="cls-4" d="M1126.68,1250.53c-3,4.77-2.25,7,3.45,5.87s9.57.25,15.25-1.39,15.74-4.82,10.58-6-10.36-3.56-14.76-2S1126.68,1250.53,1126.68,1250.53Z"/><path class="cls-4" d="M1173.59,1243.43c-5.7,1.08-10.88-.7-9.44,3.11s4,4.7,8.43,3.17,7.58-1.82,11.34-3.29,8.68-5.86,4.23-5.45S1173.59,1243.43,1173.59,1243.43Z"/><path class="cls-4" d="M1203.31,1237.33c-5.63,2.77-10.66,4.35-6.78,5.69s8.33.93,11.42-1.61,4.23-5.45,2.32-5.28S1203.31,1237.33,1203.31,1237.33Z"/><path class="cls-4" d="M1227.24,1230.08c-5.09.46-7,1.2-6.87,3.44s-1.11,4,3.93,2.46,8.82-2.5,8.75-4.18l-.07-1.68Z"/><path class="cls-4" d="M1248.06,1224.8c-5.11-.1-7,.08-6.89,2.88s.19,4.49,5.22,2.9,10.1-2.61,12-3.9,1.1-4-.81-3.87S1248.06,1224.8,1248.06,1224.8Z"/><path class="cls-4" d="M1276.91,349.58c-27.42,17.42-64.79,65.57-81,82s-32,42.69-30.7,72.4-2.22,79.74-1.38,99.55,9.43,88.62,10.27,108.42-1.37,99.55,27.11,106.89,145.45-23.23,145.45-23.23,58.54-79.91,92.2-83,46.16,25.61,47.43,55.32,32.5,101.43,38.75,115.77,47.42,55.32,42.66,75.64-20.32,51.57-36.94,58.06-61.3,15.54-55,29.88,13.76,58.4,13.76,58.4,6.88,29.19,34.51,16.73,48-64,70.4-66.09,68,8.71,84.79,7.17,2.65-69.83,36.1-77.86,35.57,41.49,66.91-16.05,41.07-93.24,34-127.38-53.47-64.72-15.89-107.92,83.11-32.44,86.6-82.47,30.27-82.31-26.89-101.94-92.31-51.22-82.79-91.86,17.36-120.89,39-142.75,70.61-61.13,86.8-77.52c10.23-10.35-112.2-94.47-190.3-172.57-.59-.59-2.68-50.3-2.68-65.07,0-.11-83.48-.06-96.77-.06-.4,0-1.7,5.57-1.79,5.84C1604.68,25.6,1603,71.24,1587,92.59S1527.8,157.65,1511.6,174L1463,223.22c-21.59,21.85-43.19,43.71-48.16,59.08s-48.8,44.22-48.8,44.22Z"/><polygon class="cls-5" points="2000 290 1710 290 1710 0 2000 290"/><path class="cls-6" d="M407.45,1574.8c-5.7,0-11.29-.21-16.62-.61l1.3-17a212.59,212.59,0,0,0,23.86.41l.62,17C413.53,1574.74,410.45,1574.8,407.45,1574.8Zm34.65-2.27L440,1555.66c7.74-1,15.78-2.28,23.9-3.9l3.33,16.67C458.69,1570.13,450.24,1571.51,442.1,1572.53ZM365,1570.26a104.61,104.61,0,0,1-25.31-9.33l8.09-15a87.49,87.49,0,0,0,21.18,7.75Zm126.94-7.59-4.36-16.43c7.65-2,15.52-4.34,23.38-6.89l5.24,16.17C508,1558.16,499.85,1560.57,491.91,1562.67ZM540,1547.15l-6-15.9,3.5-1.34c6.86-2.65,13.55-5.15,19.89-7.42l5.74,16c-6.21,2.23-12.77,4.68-19.5,7.28C542.4,1546.23,541.19,1546.7,540,1547.15Zm-221.88-5.69c-.49-.83-1-1.68-1.38-2.52a228.51,228.51,0,0,1-9.46-21.45l15.91-6a209.62,209.62,0,0,0,8.76,19.83c.24.48.5,1,.79,1.45Zm268.21-10.84-5.13-16.2c8.58-2.72,16.77-5.06,24.34-7l4.17,16.48C602.44,1525.76,594.57,1528,586.31,1530.62Zm144.69-8.7-.36-17a210.44,210.44,0,0,0,23.78-1.65l2.26,16.85A229.5,229.5,0,0,1,731,1521.92Zm-25.68-.6c-6.32-.52-12.14-1.27-17.77-2-2.4-.31-4.79-.62-7.2-.91l2-16.88c2.46.29,4.9.61,7.35.93,5.44.7,11.06,1.43,17,1.92Zm-72.1-2.3-2.63-16.79a181.58,181.58,0,0,1,25.91-2.29l.22,17A165.4,165.4,0,0,0,633.22,1519Zm149.16-4.83L777,1498.08a186.43,186.43,0,0,0,21.86-9.18l7.39,15.31A201.32,201.32,0,0,1,782.38,1514.19Zm46.2-21.36-7.88-15.06,7-3.7,6.14-3.22,8.76-4.6,7.93,15q-4.27,2.27-8.8,4.63l-6.13,3.21ZM300.15,1492a87.17,87.17,0,0,1-1.27-14.46,65.43,65.43,0,0,1,1.32-13.38l16.64,3.48a48.55,48.55,0,0,0-1,9.9,71.52,71.52,0,0,0,1,11.64Zm572.4-22.41-8-15,14-7.51,7.87-4.22,8,15-7.86,4.22Zm-545.79-21.79-14.94-8.1c3.34-6.17,6.44-15.32,8.49-21.66l16.18,5.21C332.86,1434.53,329.86,1442.1,326.76,1447.82Zm589.51-1.53-7.85-15.08c8.57-4.46,15.71-8,22.47-11.25l7.3,15.36C931.62,1438.44,924.65,1441.93,916.27,1446.29Zm44.64-21.14-7.45-15.28a34.68,34.68,0,0,0,14.88-13.14l14.32,9.17A51.48,51.48,0,0,1,960.91,1425.15ZM343.8,1399.36l-16.26-5c2.23-7.33,4.92-15.92,7.92-24.08l16,5.86C348.56,1383.94,346,1392.25,343.8,1399.36Zm649.69-18-16.1-5.47c.77-2.26,1.55-4.62,2.35-7.05,1.73-5.25,3.52-10.67,5.68-16.63l16,5.81c-2.08,5.71-3.82,11-5.52,16.14C995.06,1376.67,994.27,1379.07,993.49,1381.38ZM361,1354.94l-14.65-8.62c5.11-8.7,10.62-14.74,16.84-18.47.9-.54,1.83-1.14,2.74-1.77l9.65,14c-1.2.83-2.43,1.62-3.64,2.34C368.27,1344.63,364.59,1348.84,361,1354.94Zm649.58-19.12-15.38-7.24c.85-1.8,1.73-3.6,2.6-5.35q2.88-5.76,5.72-11.54l2.74-5.54,15.23,7.54-2.72,5.52c-1.92,3.88-3.83,7.76-5.76,11.62C1012.19,1332.46,1011.38,1334.14,1010.58,1335.82Zm-615.22-14-12.86-11.11a171,171,0,0,0,14.08-19l14.29,9.2A186.7,186.7,0,0,1,395.36,1321.78Zm637.3-30-15-8c4.47-8.38,8.63-15.6,12.73-22.06l14.36,9.09C1040.87,1276.92,1036.92,1283.77,1032.66,1291.78Zm-609.1-13.52L408.21,1271c3.91-8.22,4.87-12.15,5.08-13.16.46-2.31,1.26-5.31,2.45-9.18l16.25,5c-1.25,4.08-1.8,6.35-2,7.53C428.9,1266.39,425.9,1273.35,423.56,1278.26Zm635-26.68-13-10.89A134.62,134.62,0,0,1,1064.3,1222l10.69,13.23A116.7,116.7,0,0,0,1058.6,1251.58Zm-618.62-21-15.93-5.93c2.88-7.75,6-15.84,9.14-23.42l15.74,6.44C445.9,1215.07,442.8,1223,440,1230.57Zm654.23-7.36L1087,1207.8a107.48,107.48,0,0,1,13.11-5.09c3.64-1.15,7.66-2.27,11.95-3.33l4.08,16.5c-3.94,1-7.61,2-10.91,3A90.29,90.29,0,0,0,1094.21,1223.21Zm45.73-12.2-2.91-16.75c7-1.22,14.92-2.45,24.81-3.87l2.42,16.83C1154.53,1208.61,1146.8,1209.82,1139.94,1211Zm48.92-7.24-2.37-16.84c7.45-1,16.17-2.3,24.37-3.68l2.81,16.76C1205.29,1201.42,1196.42,1202.7,1188.86,1203.77Zm49.91-8.92-4.31-16.44c11.92-3.12,16.92-6.05,19-8l11.42,12.6C1259.65,1187.81,1251.35,1191.56,1238.77,1194.85Zm-780.08-9.43-15.25-7.51.31-.63c3.64-7.28,7.06-14.13,10-21.32l15.71,6.49c-3.21,7.76-6.93,15.2-10.53,22.4Zm-433.5-6-14.84-8.29c4.09-7.33,8.26-14.64,12.39-21.73l14.69,8.54C33.35,1165,29.23,1172.18,25.19,1179.42Zm1249.13-25.29-16.94-1.31c.5-6.56.76-14.62.76-24v-.22h17v.22C1275.14,1138.64,1274.87,1147.13,1274.32,1154.13Zm-797-17-16.69-3.19a88.11,88.11,0,0,0,1.58-16.66c0-1.94-.06-3.93-.19-5.91l17-1.1c.15,2.34.23,4.7.23,7A104.36,104.36,0,0,1,477.3,1137.11Zm-427.25-.4-14.52-8.83c4.47-7.36,8.94-14.52,13.26-21.26l14.31,9.17C58.85,1122.43,54.46,1129.46,50.05,1136.71Zm1207.59-32.6c-.29-7.82-.71-16.1-1.24-24.6l17-1.06c.54,8.64,1,17.07,1.26,25Zm-1181-8.83-14-9.61c5-7.36,10-14.27,14.7-20.52l13.58,10.22C86.39,1081.43,81.59,1088.12,76.68,1095.28Zm380.42-5.77a200.59,200.59,0,0,0-9.57-21.83l15.21-7.6a218.06,218.06,0,0,1,10.36,23.69Zm-351-33-12.82-11.17a178.53,178.53,0,0,1,18.36-18.55l11,12.94A162.24,162.24,0,0,0,106.15,1056.48Zm1148.43-1.57c-.71-8.34-1.5-16.59-2.36-24.55l16.9-1.82c.88,8.08,1.68,16.47,2.4,24.93Zm-818.51-9.24c-1.55-3.08-2.64-5.42-3.42-7.38-.45-1.11-2.19-4.19-8.74-8.78l9.75-13.93c7.68,5.38,12.51,10.74,14.77,16.4.59,1.46,1.51,3.43,2.81,6ZM140.2,1029.84l-3-16.74c7-1.26,15.8-3,24.22-4.71l3.37,16.67C156.28,1026.78,147.4,1028.55,140.2,1029.84Zm49-9.72-3.35-16.66c9.31-1.88,17.08-3.41,24.47-4.82l3.19,16.7C206.14,1016.74,198.42,1018.26,189.16,1020.12Zm214.41-1.43c-6.72-2.86-14.3-5.62-22.53-8.18l5.06-16.23a254.14,254.14,0,0,1,24.14,8.78Zm-165.79-7.82-2.93-16.75c8.69-1.52,17-2.89,24.73-4.06l2.55,16.81C254.54,1008,246.34,1009.36,237.78,1010.87Zm1011.46-4.93c-1.3-9.32-2.62-17.41-4-24l16.67-3.33c1.39,6.95,2.78,15.37,4.11,25Zm-891.59-1.8q-2.68-.63-5.44-1.25a101,101,0,0,0-17.47-2l.66-17a117.69,117.69,0,0,1,20.5,2.4c1.91.42,3.8.86,5.66,1.3Zm-71.18-.57-2-16.89c9.05-1.06,17.53-1.84,25.2-2.32l1.07,17C303.4,1001.79,295.22,1002.54,286.47,1003.57Zm954.08-47.39c0-.69,0-1.38,0-2a48.91,48.91,0,0,1,7.46-26.28l14.55,8.79a32.2,32.2,0,0,0-5,17.49c0,.47,0,1,0,1.43Zm36.38-39.13-14-9.62a48.58,48.58,0,0,0,7.26-15.07c.41-1.53.74-3,1-4.28l16.73,3c-.32,1.82-.76,3.76-1.31,5.78A65.31,65.31,0,0,1,1276.93,917.05Zm-9.82-40.36c-4.14-1.81-10.49-2.8-17.84-4l-4.32-.68,2.71-16.78,4.23.67c8.52,1.32,15.88,2.47,22,5.17Zm-46.69-8.93c-8-1.34-16.64-2.89-25.09-5.09l4.28-16.45c8.2,2.13,16.49,3.58,23.61,4.78Zm-50.17-14.43c-9.22-4.87-16.55-11-21.8-18.28l13.77-10c3.76,5.2,9,9.53,16,13.22Zm-32.16-44.39c-1.48-6.78-3-15.19-4.53-25l16.8-2.61c1.47,9.46,2.93,17.52,4.34,24Zm-8-49.86c-1-7.83-2-16.19-2.92-24.85l16.9-1.84c.93,8.56,1.9,16.82,2.89,24.55Zm-5.44-49.72c-.78-8.22-1.52-16.6-2.19-24.88l16.94-1.38c.67,8.21,1.4,16.51,2.17,24.66Zm-4-49.81c-.6-9-1.08-17.44-1.43-25l17-.78c.35,7.46.82,15.75,1.41,24.66Zm-2.09-50.23c0-6.14-.19-13.49-.56-24.6l17-.56c.38,11.28.55,18.78.57,25.09Zm-1.43-49.42c-.21-6.19-.51-15.5-.72-24.94l17-.37c.2,9.35.5,18.59.71,24.73Zm16-49.93-17-.07c0-9.44.26-17.69.66-25.25l17,.9C1133.37,492.83,1133.16,500.82,1133.12,510Zm3-48.18L1119.36,459c1.34-8,3.08-14.32,5.33-19.27,1-2.12,2-4.31,3.06-6.53l15.32,7.38c-1,2.11-2,4.18-2.9,6.18C1138.56,450.29,1137.21,455.35,1136.13,461.79Zm18.28-42.59-14.71-8.52c4.4-7.59,9-14.85,13.69-21.57l13.95,9.72C1162.92,405.17,1158.57,412,1154.41,419.2ZM1182,380l-12.78-11.21A155.28,155.28,0,0,1,1188,350.43l10.7,13.21A139,139,0,0,0,1182,380Zm36.33-28.85-8.15-14.92c6.65-3.63,14-7.4,22.42-11.53l7.48,15.26C1231.87,344,1224.75,347.62,1218.33,351.12Zm44-21.76-7.14-15.42c7.65-3.55,15.41-7.07,22.66-10.36l7,15.49C1277.67,322.34,1270,325.85,1262.35,329.36Zm45.17-20.55-7-15.47c8.72-4,15.86-7.26,22.48-10.36l7.21,15.4C1323.48,301.5,1316.29,304.82,1307.52,308.81Zm45.43-23-9.38-14.18a191.43,191.43,0,0,0,18.92-14.39l11.07,12.91A208.7,208.7,0,0,1,1353,285.77Zm39.24-33.23L1380,240.69c5.36-5.52,10.83-11.58,16.26-18l13,11C1403.57,240.38,1397.83,246.73,1392.19,252.54ZM1425,213.88l-13.56-10.25c5.82-7.69,10.78-14.71,14-19.31l.45-.64,13.82,9.89-.35.51C1436.09,198.78,1431,206,1425,213.88Zm30.3-37.06L1444,164.11c5.94-5.28,12.44-10.41,18.74-15.38l.85-.67,10.54,13.34-.86.68C1466.93,167.11,1460.9,171.87,1455.33,176.82Zm38.39-31.55-11.32-12.68a139.58,139.58,0,0,0,16.23-16.83l13.27,10.63A156.67,156.67,0,0,1,1493.72,145.27Zm32.83-39.06-13.42-10.44c4.82-6.2,9.23-11.2,13.12-15.61,1.11-1.26,2.19-2.48,3.22-3.67l12.84,11.15c-1.06,1.22-2.17,2.47-3.31,3.77C1535.27,95.64,1531,100.43,1526.55,106.21Zm30.7-42.14-16.1-5.46a38.34,38.34,0,0,0,1.75-8.19c.49-4.36.92-9.14,1.28-14.2l17,1.22c-.38,5.28-.83,10.27-1.34,14.85A55.86,55.86,0,0,1,1557.25,64.07Z"/></g><g id="Tekst"><path class="cls-7" d="M914.8,151.25v140h-8.4L811,169.65V291.24H800.8v-140h8.6l95.2,121.59V151.25Z"/><path class="cls-7" d="M1077.6,151.25v140h-10.2v-66.6H973.8v66.6H963.6v-140h10.2v64.4h93.6v-64.4Z"/><path class="cls-7" d="M1112.2,273.24l4.6-7.6c9.6,10,27.4,17.6,46.2,17.6,28,0,40.4-12.2,40.4-27.4,0-42-87.4-16.8-87.4-68.39,0-19.8,15.2-37.2,49.6-37.2,15.4,0,31.4,4.8,42.2,12.6l-3.8,8.2a69.19,69.19,0,0,0-38.4-11.8c-27.2,0-39.4,12.6-39.4,28,0,42,87.4,17.19,87.4,68,0,19.8-15.8,37-50.4,37C1142.4,292.24,1122.4,284.44,1112.2,273.24Z"/></g><g id="asperinte"><path class="cls-8" d="M800,1764.46c-16.22-14.11-48.11-23.32-84.63-22.62s-68,11.14-83.7,25.86l-10.95.21,1.85,37.29.32.18c4.42,23.26,45.7,40.83,95.6,39.87s90.77-20.47,94.36-43.85c-.13,0,0,.13,0,.13L811,1764.25Z"/><path class="cls-9" d="M811,1767.15c.48,25.08-41.72,46.23-94.25,47.24-6.61.13-13.07-.07-19.32-.57a174.65,174.65,0,0,1-18.82-2.49c-33.72-6.36-57.49-21.91-57.85-40.52-.48-25.08,41.72-46.23,94.25-47.24,6.61-.13,13.07.07,19.32.57a172.18,172.18,0,0,1,18.82,2.49C786.88,1733,810.65,1748.53,811,1767.15Z"/><path class="cls-10" d="M753.16,1726.63l-55.72,87.19a174.65,174.65,0,0,1-18.82-2.49l55.72-87.19A172.18,172.18,0,0,1,753.16,1726.63Z"/><path class="cls-11" d="M755,1789.6s-23.08,2.44-16.22,12S765.35,1794.66,755,1789.6Z"/><path class="cls-11" d="M772.87,1740.73s27.18,15.61,22.09,30.76-22.64,24.63-29.13,22.6-5.53-8,4.55-15.14,12.11-13.13,2.2-25.31S772.87,1740.73,772.87,1740.73Z"/></g><g id="medicijnen"><path class="cls-12" d="M1092.1,1642.36l85-29.66a47.91,47.91,0,0,0,29.45-61l-2.29-6.56a47.9,47.9,0,0,0-61-29.45l-85,29.65Z"/><path class="cls-8" d="M1058.24,1545.32l-85,29.66a47.91,47.91,0,0,0-29.45,61l2.29,6.56a47.9,47.9,0,0,0,61,29.45l85-29.65Z"/><path class="cls-9" d="M1166.84,1537.86l-.6-1.72a12.5,12.5,0,0,0-15.94-7.69L1063,1558.91l8.85,25.36,87.32-30.47A12.51,12.51,0,0,0,1166.84,1537.86Z"/><path class="cls-13" d="M984.51,1614.73a12.5,12.5,0,0,1-15.94-7.69l-.6-1.72a12.51,12.51,0,0,1,7.69-15.94l87.32-30.47,8.85,25.36Z"/><path class="cls-10" d="M1170.41,1593.55a47.76,47.76,0,0,0,31-54.5,46.06,46.06,0,0,1,2.83,6.07l2.29,6.56a47.91,47.91,0,0,1-29.45,61l-85,29.66-6.68-19.15Z"/><path class="cls-14" d="M1000.42,1652.86l85-29.65,6.68,19.15-85,29.65a47.9,47.9,0,0,1-61-29.45L943.8,1636a46.07,46.07,0,0,1-1.56-6.52A47.75,47.75,0,0,0,1000.42,1652.86Z"/><circle class="cls-14" cx="1306.94" cy="1361.28" r="58.11"/><circle class="cls-8" cx="1307.96" cy="1355.67" r="58.11"/><ellipse class="cls-10" cx="1314.9" cy="1378.85" rx="31.02" ry="16.21" transform="translate(-274.71 328.45) rotate(-12.9)"/><path class="cls-12" d="M289.54,1235.06l41.71-58.7a38.34,38.34,0,0,0-9.05-53.44l-4.54-3.23a38.33,38.33,0,0,0-53.44,9l-41.71,58.71Z"/><path class="cls-8" d="M222.51,1187.45l-41.7,58.71a38.33,38.33,0,0,0,9,53.44l4.54,3.22a38.32,38.32,0,0,0,53.44-9l41.71-58.71Z"/><path class="cls-9" d="M289.9,1132.28l-1.19-.84a10,10,0,0,0-14,2.36l-42.85,60.32,17.51,12.44,42.85-60.32A10,10,0,0,0,289.9,1132.28Z"/><path class="cls-13" d="M206.56,1266.87a10,10,0,0,1-14,2.37l-1.19-.84a10,10,0,0,1-2.36-14l42.85-60.31,17.51,12.44Z"/><path class="cls-10" d="M318,1167a38.22,38.22,0,0,0-5-49.92,39.92,39.92,0,0,1,4.65,2.65l4.54,3.23a38.34,38.34,0,0,1,9.05,53.44l-41.71,58.7-13.23-9.39Z"/><path class="cls-14" d="M234.6,1284.38l41.71-58.71,13.23,9.39-41.71,58.71a38.32,38.32,0,0,1-53.44,9l-4.54-3.22a38,38,0,0,1-4-3.53A38.22,38.22,0,0,0,234.6,1284.38Z"/></g><g id="Vlag_GB" data-name="Vlag GB"><rect class="cls-7" x="646.01" y="771.84" width="311.31" height="207.54" transform="translate(-119.22 126.38) rotate(-8.39)"/><rect class="cls-12" x="782.64" y="771.84" width="38.05" height="207.54" transform="matrix(0.99, -0.15, 0.15, 0.99, -119.22, 126.38)"/><rect class="cls-12" x="646.01" y="855.55" width="311.31" height="40.13" transform="translate(-119.22 126.38) rotate(-8.39)"/><polygon class="cls-14" points="765.86 839.58 756.68 777.36 670.21 790.12 765.86 839.58"/><polygon class="cls-14" points="636.13 820.07 642.95 866.27 706.77 856.85 636.13 820.07"/><polygon class="cls-12" points="656.22 792.18 632.53 795.67 632.53 795.71 738.59 849.61 762.32 846.11 656.22 792.18"/><polygon class="cls-14" points="777.79 920.46 786.97 982.68 700.5 995.44 777.79 920.46"/><polygon class="cls-14" points="659.19 976.36 652.37 930.16 716.19 920.74 659.19 976.36"/><polygon class="cls-12" points="748.83 918.73 772.52 915.23 772.53 915.26 686.56 997.49 662.82 1001 748.83 918.73"/><polygon class="cls-14" points="837.23 911.69 846.41 973.91 932.88 961.15 837.23 911.69"/><polygon class="cls-14" points="967.17 930.92 960.35 884.72 896.53 894.14 967.17 930.92"/><polygon class="cls-12" points="864.7 901.63 841.01 905.13 841.01 905.16 947.06 959.06 970.8 955.56 864.7 901.63"/><polygon class="cls-14" points="825.3 830.81 816.12 768.59 902.59 755.83 825.3 830.81"/><polygon class="cls-14" points="944.11 774.63 950.93 820.83 887.11 830.25 944.11 774.63"/><polygon class="cls-12" points="916.82 753.73 940.51 750.24 940.52 750.27 854.55 832.5 830.81 836 916.82 753.73"/><rect class="cls-14" x="1557.51" y="1630.68" width="310.05" height="206.7"/><polyline class="cls-7" points="1645.59 1708.87 1652.68 1703.92 1659.38 1708.87 1656.86 1700.91 1663.56 1695.95 1655.4 1695.95 1652.68 1688.09 1649.77 1695.95 1641.41 1695.95 1648.41 1700.91"/><polyline class="cls-7" points="1764.96 1708.87 1772.05 1703.92 1778.75 1708.87 1776.22 1700.91 1782.93 1695.95 1774.77 1695.95 1772.05 1688.09 1769.13 1695.95 1760.78 1695.95 1767.77 1700.91"/><polyline class="cls-7" points="1774.52 1742.98 1781.61 1738.03 1788.31 1742.98 1785.79 1735.01 1792.49 1730.06 1784.33 1730.06 1781.61 1722.19 1778.69 1730.06 1770.34 1730.06 1777.33 1735.01"/><polyline class="cls-7" points="1636.55 1742.98 1643.64 1738.03 1650.34 1742.98 1647.82 1735.01 1654.52 1730.06 1646.36 1730.06 1643.64 1722.19 1640.72 1730.06 1632.37 1730.06 1639.36 1735.01"/><polyline class="cls-7" points="1645.59 1777.34 1652.68 1772.39 1659.38 1777.34 1656.86 1769.38 1663.56 1764.42 1655.4 1764.42 1652.68 1756.55 1649.77 1764.42 1641.41 1764.42 1648.41 1769.38"/><polyline class="cls-7" points="1764.96 1777.34 1772.05 1772.39 1778.75 1777.34 1776.22 1769.38 1782.93 1764.42 1774.77 1764.42 1772.05 1756.55 1769.13 1764.42 1760.78 1764.42 1767.77 1769.38"/><polyline class="cls-7" points="1671.17 1683.81 1678.26 1678.86 1684.96 1683.81 1682.44 1675.85 1689.14 1670.89 1680.98 1670.89 1678.26 1663.02 1675.35 1670.89 1666.99 1670.89 1673.98 1675.85"/><polyline class="cls-7" points="1705.64 1673.99 1712.73 1669.04 1719.43 1673.99 1716.91 1666.03 1723.61 1661.07 1715.45 1661.07 1712.73 1653.2 1709.81 1661.07 1701.46 1661.07 1708.45 1666.03"/><polyline class="cls-7" points="1705.64 1812.22 1712.73 1807.27 1719.43 1812.22 1716.91 1804.26 1723.61 1799.3 1715.45 1799.3 1712.73 1791.43 1709.81 1799.3 1701.46 1799.3 1708.45 1804.26"/><polyline class="cls-7" points="1740 1683.81 1747.09 1678.86 1753.8 1683.81 1751.27 1675.85 1757.97 1670.89 1749.81 1670.89 1747.09 1663.02 1744.18 1670.89 1735.82 1670.89 1742.82 1675.85"/><polyline class="cls-7" points="1671.17 1803.18 1678.26 1798.23 1684.96 1803.18 1682.44 1795.21 1689.14 1790.26 1680.98 1790.26 1678.26 1782.39 1675.35 1790.26 1666.99 1790.26 1673.98 1795.21"/><polyline class="cls-7" points="1740 1803.18 1747.09 1798.23 1753.8 1803.18 1751.27 1795.21 1757.97 1790.26 1749.81 1790.26 1747.09 1782.39 1744.18 1790.26 1735.82 1790.26 1742.82 1795.21"/></g><g id="astma_medicijn" data-name="astma medicijn"><path class="cls-15" d="M1494.43,348a.76.76,0,0,1,1,.39l108.87,250.35a13.6,13.6,0,0,0-3.17,15.33l2.25,5.16a13.47,13.47,0,0,0,7.48,7.23,13.63,13.63,0,0,0,5.89.93l4.34,10-75.49,32.83-4.34-10,.35-.35a13.7,13.7,0,0,0,1.79-2.22,14.76,14.76,0,0,0,1.2-2.38,13.57,13.57,0,0,0-.18-10.39l-2.24-5.16a13.63,13.63,0,0,0-13.38-8.14L1419.91,381.19a.75.75,0,0,1,.39-1Z"/><path class="cls-11" d="M1536.06,648.47l-2.24-5.15a4.5,4.5,0,0,0-6-2.3,4.46,4.46,0,0,1-4.5-.63.45.45,0,0,1-.13-.1,4.81,4.81,0,0,1-.51-.5,4.64,4.64,0,0,1-.31-.4,4.78,4.78,0,0,1-.4-.74L1411.58,384.82a9.84,9.84,0,0,1,5.09-12.94l74.13-32.24a9.85,9.85,0,0,1,12.94,5.1l110.38,253.83a4.52,4.52,0,0,1-1.83,5.67,3.5,3.5,0,0,1-.51.27,4.5,4.5,0,0,0-2.33,5.92l2.24,5.15a4.52,4.52,0,0,0,5.93,2.35,4.51,4.51,0,0,1,5.94,2.33l4,9.32a4.51,4.51,0,0,1-2.34,5.94L1541.38,672a4.51,4.51,0,0,1-5.94-2.34l-4-9.32a5.13,5.13,0,0,1-.27-.81,4.82,4.82,0,0,1-.11-.93,3.86,3.86,0,0,1,.07-.84s0,0,0,0a4.65,4.65,0,0,1,.24-.83,4.49,4.49,0,0,1,2.32-2.44,4.72,4.72,0,0,0,.94-.54,3.73,3.73,0,0,0,.52-.45,4,4,0,0,0,.62-.76,4.37,4.37,0,0,0,.39-.78A4.45,4.45,0,0,0,1536.06,648.47Z"/><path class="cls-8" d="M1536.06,648.47l-2.24-5.15a4.5,4.5,0,0,0-6-2.3,4.31,4.31,0,0,1-4.5-.63.45.45,0,0,1-.13-.1,4.81,4.81,0,0,1-.51-.5,4.64,4.64,0,0,1-.31-.4,4.78,4.78,0,0,1-.4-.74L1411.58,384.82a9.84,9.84,0,0,1,5.09-12.94l24.57-10.68c-5.39,2.34-6.36,7.57-4.19,12.54l110.37,253.82a4.49,4.49,0,0,0,5.92,2.31l59-25.63a3.5,3.5,0,0,1-.51.27,4.5,4.5,0,0,0-2.33,5.92l2.24,5.15a4.52,4.52,0,0,0,5.93,2.35l-58.43,25.41a4.49,4.49,0,0,0-2.34,5.91l4.06,9.33a4.51,4.51,0,0,1-2.34,5.95L1541.38,672a4.51,4.51,0,0,1-5.94-2.34l-4-9.32a5.13,5.13,0,0,1-.27-.81,4.82,4.82,0,0,1-.11-.93,4.68,4.68,0,0,1,.07-.84s0,0,0,0a4.65,4.65,0,0,1,.24-.83h0a3.34,3.34,0,0,1,.37-.73v0a4.1,4.1,0,0,1,1.94-1.68,4.72,4.72,0,0,0,.94-.54,3.73,3.73,0,0,0,.52-.45,4,4,0,0,0,.62-.76,4.37,4.37,0,0,0,.39-.78A4.45,4.45,0,0,0,1536.06,648.47Z"/><rect class="cls-9" x="1544.53" y="333.07" width="8.64" height="281.39" rx="4.3" transform="translate(3158.14 290.57) rotate(156.5)"/><rect class="cls-11" x="1442.22" y="386.73" width="100.51" height="116.21" transform="translate(3038.53 257.58) rotate(156.5)"/><rect class="cls-13" x="1422.56" y="390.81" width="100.51" height="17.62" transform="translate(-37.18 620.49) rotate(-23.5)"/><rect class="cls-10" x="1505.32" y="374.79" width="8.64" height="17.62" transform="translate(-27.74 633.85) rotate(-23.5)"/><rect class="cls-9" x="1520.5" y="389.26" width="8.64" height="58.48" transform="translate(-40.4 642.8) rotate(-23.5)"/><rect class="cls-7" x="1613.34" y="620.72" width="8.64" height="14.9" rx="4.13" transform="translate(3351.62 559.13) rotate(156.5)"/><polygon class="cls-8" points="1677.48 660.96 1760.22 620.02 1734.84 561.66 1648.47 594.26 1677.48 660.96"/><polygon class="cls-14" points="1760.22 620.02 1677.48 660.96 1667.5 638.02 1750.24 597.09 1760.22 620.02"/><rect class="cls-14" x="1425.57" y="405.31" width="27.77" height="17.62" transform="translate(-45.73 608.39) rotate(-23.5)"/><rect class="cls-8" x="1441.15" y="419.7" width="27.77" height="60.48" transform="translate(-58.72 617.58) rotate(-23.5)"/><path class="cls-10" d="M1540.65,397.29l81.08,186.44a20.32,20.32,0,0,0,26.74,10.53h0l29,66.7-18.64,8.11-94.28,41a20.32,20.32,0,0,1-26.74-10.53L1435.59,464.45Z"/><path class="cls-13" d="M1435.6,464.46l102.22,235.06a20.32,20.32,0,0,0,26.74,10.55L1677.48,661l-7-16.18L1603.22,674a20.33,20.33,0,0,1-26.74-10.53l-98.37-226.22Z"/></g></g></svg>