<svg xmlns="http://www.w3.org/2000/svg" viewBox="0 0 2000.01 2000.02"><defs><style>.cls-1{fill:#fd6210;}.cls-10,.cls-11,.cls-2,.cls-7{fill:none;stroke-linecap:round;}.cls-2{stroke:#b6b6b6;stroke-width:10px;}.cls-3{fill:#fed2bb;}.cls-4{fill:#ad81be;}.cls-5{fill:#c2a0ce;}.cls-6{fill:#70228d;}.cls-10,.cls-7{stroke:#70228d;stroke-miterlimit:10;}.cls-7,.cls-8{stroke-width:13px;}.cls-8,.cls-9{fill:#ebdfef;}.cls-8{stroke:#ebdfef;}.cls-11,.cls-8{stroke-linejoin:round;}.cls-10,.cls-11{stroke-width:28px;}.cls-11{stroke:#fd6210;}.cls-12{fill:#fff;}</style></defs><g id="Layer_2" data-name="Layer 2"><g id="Achtergrond"><polygon class="cls-1" points="2000 2000 0 2000 0 0 1710 0 2000 289.99 2000 2000"/><line class="cls-2" x1="1762.88" y1="66.1" x2="1947.12" y2="66.1"/><line class="cls-2" x1="1762.88" y1="107.37" x2="1947.12" y2="107.37"/><line class="cls-2" x1="1762.88" y1="148.64" x2="1947.12" y2="148.64"/><line class="cls-2" x1="1762.88" y1="189.91" x2="1947.12" y2="189.91"/><polygon class="cls-3" points="2000 290 1710 290 1710 0 2000 290"/></g><g id="Boek"><polygon class="cls-4" points="852.13 1113.82 970.87 1066.27 1685.35 1999.91 1523.64 1999.91 852.13 1113.82"/><polygon class="cls-5" points="0 1234.14 879 1103 1567.88 2000.02 0 2000 0 1234.14"/><polygon class="cls-5" points="950.35 1074.38 1668.82 2000 2000.01 1999.98 2000 521.07 950.35 1074.38"/><ellipse class="cls-6" cx="1028.25" cy="1353.35" rx="12.1" ry="16.28" transform="translate(-668.58 1451.53) rotate(-56.08)"/><path class="cls-7" d="M1155.5,1297.23s-40.11-22.87-76-2.36-36.26,32.24-40.76,39c-3.55,5.32-6.2,20.38-6.2,20.38"/><ellipse class="cls-6" cx="1100.05" cy="1437.97" rx="12.1" ry="16.28" transform="translate(-707.06 1548.51) rotate(-56.08)"/><path class="cls-7" d="M1227.29,1381.85s-40.11-22.88-76-2.36-36.26,32.24-40.76,39c-3.54,5.31-6.2,20.38-6.2,20.38"/><ellipse class="cls-6" cx="961.58" cy="1263.61" rx="12.1" ry="16.28" transform="matrix(0.56, -0.83, 0.83, 0.56, -623.57, 1356.54)"/><path class="cls-7" d="M1088.83,1207.49s-40.11-22.87-76-2.36-36.26,32.24-40.76,39c-3.54,5.31-6.2,20.38-6.2,20.38"/><ellipse class="cls-6" cx="895.59" cy="1175.56" rx="12.1" ry="16.28" transform="translate(-579.67 1262.85) rotate(-56.08)"/><path class="cls-7" d="M1022.84,1119.44s-40.11-22.87-76-2.36-36.26,32.24-40.76,39c-3.54,5.31-6.2,20.38-6.2,20.38"/><ellipse class="cls-6" cx="1164.82" cy="1524.28" rx="12.1" ry="16.28" transform="translate(-750.05 1640.42) rotate(-56.08)"/><path class="cls-7" d="M1292.07,1468.16s-40.11-22.88-76-2.36-36.26,32.24-40.76,39c-3.54,5.32-6.2,20.38-6.2,20.38"/><ellipse class="cls-6" cx="1234.05" cy="1611.46" rx="12.1" ry="16.28" transform="translate(-791.8 1736.41) rotate(-56.08)"/><path class="cls-7" d="M1361.3,1555.34s-40.11-22.88-76-2.36-36.26,32.24-40.76,39c-3.54,5.32-6.2,20.38-6.2,20.38"/><ellipse class="cls-6" cx="1305.85" cy="1706.33" rx="12.1" ry="16.28" transform="translate(-838.79 1837.93) rotate(-56.08)"/><path class="cls-7" d="M1433.1,1650.21s-40.12-22.88-76-2.36-36.27,32.24-40.76,39c-3.55,5.31-6.21,20.38-6.21,20.38"/><ellipse class="cls-6" cx="1375.08" cy="1793.51" rx="12.1" ry="16.28" transform="translate(-880.54 1933.91) rotate(-56.08)"/><path class="cls-7" d="M1502.33,1737.39s-40.11-22.88-76-2.36-36.26,32.24-40.76,39c-3.55,5.32-6.2,20.38-6.2,20.38"/><ellipse class="cls-6" cx="1444.31" cy="1885.82" rx="12.1" ry="16.28" transform="translate(-926.54 2032.17) rotate(-56.08)"/><path class="cls-7" d="M1571.56,1829.7s-40.11-22.88-76-2.37-36.26,32.25-40.76,39c-3.55,5.32-6.2,20.38-6.2,20.38"/><ellipse class="cls-6" cx="1508.41" cy="1967.87" rx="12.1" ry="16.28" transform="translate(-966.29 2121.63) rotate(-56.08)"/><path class="cls-7" d="M1635.66,1911.75s-40.11-22.88-76-2.36-36.26,32.24-40.76,39c-3.54,5.32-6.2,20.38-6.2,20.38"/><ellipse class="cls-6" cx="1168.72" cy="1303.96" rx="12.1" ry="16.28" transform="translate(-565.5 1546.26) rotate(-56.08)"/><ellipse class="cls-6" cx="1240.51" cy="1388.58" rx="12.1" ry="16.28" transform="translate(-603.98 1643.25) rotate(-56.08)"/><ellipse class="cls-6" cx="1102.05" cy="1214.22" rx="12.1" ry="16.28" transform="translate(-520.49 1451.27) rotate(-56.08)"/><ellipse class="cls-6" cx="1036.06" cy="1126.17" rx="12.1" ry="16.28" transform="translate(-476.59 1357.59) rotate(-56.08)"/><ellipse class="cls-6" cx="1305.29" cy="1474.88" rx="12.1" ry="16.28" transform="translate(-646.97 1735.16) rotate(-56.08)"/><ellipse class="cls-6" cx="1374.52" cy="1562.06" rx="12.1" ry="16.28" transform="translate(-688.72 1831.14) rotate(-56.08)"/><ellipse class="cls-6" cx="1446.32" cy="1656.94" rx="12.1" ry="16.28" transform="translate(-735.71 1932.66) rotate(-56.08)"/><ellipse class="cls-6" cx="1515.55" cy="1744.12" rx="12.1" ry="16.28" transform="translate(-777.46 2028.65) rotate(-56.08)"/><ellipse class="cls-6" cx="1584.78" cy="1836.42" rx="12.1" ry="16.28" transform="translate(-823.46 2126.9) rotate(-56.08)"/><ellipse class="cls-6" cx="1648.88" cy="1918.47" rx="12.1" ry="16.28" transform="translate(-863.21 2216.37) rotate(-56.08)"/></g><g id="voorbeeld"><polygon class="cls-8" points="756.76 1333.78 840.54 1437.84 970.27 1400 894.6 1297.3 756.76 1333.78"/><polygon class="cls-8" points="964.87 1598.65 1043.24 1701.35 1169.01 1659.37 1093.34 1556.67 964.87 1598.65"/><polygon class="cls-8" points="1140.54 1828.38 1218.92 1936.49 1344.69 1886.4 1269.01 1783.69 1140.54 1828.38"/><polygon class="cls-8" points="1754.06 850 1835.14 958.11 1937.84 887.84 1864.87 781.08 1754.06 850"/><polygon class="cls-9" points="1937.84 1087.84 1999.91 1168.54 1999.86 1041.32 1937.84 1087.84"/><line class="cls-10" x1="1162.44" y1="1108.66" x2="1378.66" y2="992.45"/><line class="cls-10" x1="1218.4" y1="1186.52" x2="1679.21" y2="932.47"/><line class="cls-10" x1="1266.22" y1="1255.41" x2="1727.03" y2="998.65"/><line class="cls-10" x1="1358.25" y1="1361.5" x2="1574.46" y2="1245.29"/><line class="cls-10" x1="1414.21" y1="1436.8" x2="1879.07" y2="1178.69"/><line class="cls-10" x1="1462.16" y1="1510.81" x2="1924.33" y2="1255.41"/><path class="cls-6" d="M1604.9,1706.21a14,14,0,0,1-6.74-26.28l377-206.76a14,14,0,0,1,13.47,24.55l-377,206.76A14,14,0,0,1,1604.9,1706.21Z"/><path class="cls-6" d="M1658.12,1785.62a14,14,0,0,1-6.74-26.27l348.55-191.14,0,31.92L1664.84,1783.9A13.92,13.92,0,0,1,1658.12,1785.62Z"/><line class="cls-10" x1="93.24" y1="1414.87" x2="383.79" y2="1356.76"/><line class="cls-10" x1="157.87" y1="1493.56" x2="665.97" y2="1389.5"/><line class="cls-10" x1="209.88" y1="1571.76" x2="717.98" y2="1467.71"/><line class="cls-10" x1="313.93" y1="1701.77" x2="603.12" y2="1631.5"/><line class="cls-10" x1="369.37" y1="1783.96" x2="855.86" y2="1656.93"/><line class="cls-10" x1="437.84" y1="1860.81" x2="927.03" y2="1731.08"/><path class="cls-6" d="M560.3,2000l468.09-143.44a14,14,0,1,1,8.21,26.77L656.12,2000Z"/><path class="cls-6" d="M853.46,1999.89l219.23-65.2a14,14,0,1,1,8,26.84L951.39,2000Z"/><polyline class="cls-11" points="748.72 1292.31 887.18 1389.74 858.98 1274.36"/><polyline class="cls-11" points="958.98 1555.13 1097.44 1652.56 1069.23 1537.18"/><polyline class="cls-11" points="1130.77 1785.9 1269.23 1883.33 1241.03 1767.95"/></g><g id="Tekst"><path class="cls-12" d="M400.78,156.33H350.56v-9.88H461.69v9.88H411.48V290.51h-10.7Z"/><path class="cls-12" d="M471.37,185.56h10.08V215.4c8.23-18.73,25.73-32.31,46.51-31.49V195h-1c-24.28,0-45.48,18.32-45.48,52.48v43H471.37Z"/><path class="cls-12" d="M539.9,260.05v-.41c0-21.81,18.73-34.16,45.89-34.16A126.08,126.08,0,0,1,620.57,230v-4.53c0-21.2-13-32.1-34.57-32.1-12.76,0-23.26,3.49-32.93,8.43l-3.7-8.85c11.52-5.35,22.84-9.05,37.25-9.05,14.2,0,25.51,3.91,33.13,11.52,7,7,10.7,16.67,10.7,29.64v65.44h-9.88V273c-7.2,10.08-20.17,20-40.13,20C560.89,293,539.9,281.87,539.9,260.05Zm80.88-8.85V239.27a138.84,138.84,0,0,0-35.61-4.74c-22.22,0-34.57,9.88-34.57,24.49v.42c0,15.22,14.41,24.07,30.46,24.07C602.46,283.51,620.78,270.34,620.78,251.2Z"/><path class="cls-12" d="M666.67,185.56h10.08v19.55c7-12.35,18.73-22,37.87-22,26.55,0,42,18.11,42,43.21v64.21H746.52V228.15c0-21.6-12.14-35.8-33.34-35.8-20.58,0-36.43,15.64-36.43,37.45v60.71H666.67Z"/><path class="cls-12" d="M783.77,277.34l6-8c11.52,8.85,24.28,13.79,37.66,13.79,14.2,0,25.31-7.82,25.31-20v-.41c0-12.35-13.17-16.88-27.78-21-17.08-4.94-36-10.09-36-28.81v-.41c0-16.88,14.2-29,34.58-29,12.55,0,26.75,4.52,37.25,11.52l-5.35,8.44c-9.68-6.38-21.2-10.5-32.31-10.5-14.41,0-23.88,7.82-23.88,18.32v.41c0,11.73,14.2,16.05,29.23,20.37C845.3,236.8,863,243,863,261.49v.42c0,18.72-16,30.66-36.22,30.66C811.55,292.57,794.88,286.4,783.77,277.34Z"/><path class="cls-12" d="M895.11,185.56h10.08V209c9-13.79,22.43-25.93,43.22-25.93,25.31,0,51,20.37,51,54.53V238c0,34.17-25.72,55-51,55-21,0-34.58-11.94-43.22-25.11v55.57H895.11Zm93.43,52.88V238c0-27.57-19.14-45.27-41.16-45.27-21.82,0-42.81,18.31-42.81,45.07v.41c0,27,21,45.07,42.81,45.07C970.22,283.31,988.54,266.64,988.54,238.44Z"/><path class="cls-12" d="M1022.29,260.05v-.41c0-21.81,18.72-34.16,45.89-34.16A126.14,126.14,0,0,1,1103,230v-4.53c0-21.2-13-32.1-34.57-32.1-12.76,0-23.26,3.49-32.93,8.43l-3.71-8.85c11.53-5.35,22.85-9.05,37.25-9.05,14.2,0,25.52,3.91,33.14,11.52,7,7,10.7,16.67,10.7,29.64v65.44H1103V273c-7.2,10.08-20.17,20-40.13,20C1043.28,293,1022.29,281.87,1022.29,260.05Zm80.87-8.85V239.27a138.75,138.75,0,0,0-35.6-4.74c-22.22,0-34.57,9.88-34.57,24.49v.42c0,15.22,14.4,24.07,30.46,24.07C1084.85,283.51,1103.16,270.34,1103.16,251.2Z"/><path class="cls-12" d="M1149.06,185.56h10.08V215.4c8.23-18.73,25.73-32.31,46.51-31.49V195h-1c-24.28,0-45.48,18.32-45.48,52.48v43h-10.08Z"/><path class="cls-12" d="M1217.59,260.05v-.41c0-21.81,18.72-34.16,45.89-34.16a126.08,126.08,0,0,1,34.78,4.53v-4.53c0-21.2-13-32.1-34.57-32.1-12.76,0-23.26,3.49-32.93,8.43l-3.71-8.85c11.53-5.35,22.85-9.05,37.25-9.05,14.2,0,25.52,3.91,33.14,11.52,7,7,10.7,16.67,10.7,29.64v65.44h-9.88V273c-7.2,10.08-20.17,20-40.13,20C1238.58,293,1217.59,281.87,1217.59,260.05Zm80.88-8.85V239.27a138.84,138.84,0,0,0-35.61-4.74c-22.22,0-34.57,9.88-34.57,24.49v.42c0,15.22,14.4,24.07,30.46,24.07C1280.15,283.51,1298.47,270.34,1298.47,251.2Z"/><path class="cls-12" d="M1348.89,263.55V194.82h-15.23v-9.26h15.23V152H1359v33.55h36.84v9.26H1359v67.7c0,15,8.85,20.38,21,20.38,5.15,0,9.47-1,15.44-3.71v9.47a38.54,38.54,0,0,1-17.08,3.7C1362.06,292.36,1348.89,283.51,1348.89,263.55Z"/><path class="cls-12" d="M1425.86,144.4h12.55v13.79h-12.55Zm1.23,41.16h10.08v105h-10.08Z"/><path class="cls-12" d="M1469.69,238.24v-.41c0-30.46,21.4-54.74,49.8-54.74,29.43,0,48.16,23.87,48.16,54.94a25.74,25.74,0,0,1-.21,4.12h-87c1.85,26.14,20.58,41.36,41.16,41.36,16.26,0,27.37-7.2,36-16.46l7,6.17c-10.7,11.53-23.25,19.76-43.42,19.76C1493.56,293,1469.69,271,1469.69,238.24Zm87-5.15c-1.44-21.19-13.58-40.74-37.66-40.74-20.78,0-36.84,17.49-38.69,40.74Z"/><path class="cls-12" d="M1592.35,223.63h55.15v11.52h-55.15Z"/><path class="cls-12" d="M378.45,415.56h10.08V445.4c8.23-18.73,25.73-32.31,46.51-31.49V425h-1c-24.28,0-45.48,18.32-45.48,52.48v43H378.45Z"/><path class="cls-12" d="M448.42,468.24v-.41c0-30.46,21.4-54.74,49.8-54.74,29.43,0,48.16,23.87,48.16,54.94a25.74,25.74,0,0,1-.21,4.12h-87c1.86,26.14,20.58,41.36,41.16,41.36,16.26,0,27.37-7.2,36-16.46l7,6.17C532.59,514.75,520,523,499.87,523,472.29,523,448.42,501,448.42,468.24Zm87.05-5.15c-1.44-21.19-13.58-40.74-37.66-40.74-20.78,0-36.83,17.49-38.69,40.74Z"/><path class="cls-12" d="M573.75,537.8l6-8.23c12.56,9.67,27,14.81,42.4,14.81,24.07,0,41.15-13.78,41.15-40.74V488.41c-9,13-23,24.28-43.83,24.28-25.31,0-50.42-19.34-50.42-49.39v-.41c0-30.25,25.11-49.8,50.42-49.8,21,0,35.19,11.11,43.83,23.46v-21h10.09v88.69c0,15.23-4.94,27.17-13.38,35.61-9.05,9-22.64,14-38.07,14A79.3,79.3,0,0,1,573.75,537.8Zm90.14-74.71v-.41c0-24.28-21.61-39.92-43.42-39.92-22,0-40.54,15.23-40.54,39.72v.41c0,23.67,18.93,40.13,40.54,40.13C642.28,503,663.89,487,663.89,463.09Z"/><path class="cls-12" d="M711.84,374.4H724.4v13.79H711.84Zm1.24,41.16h10.08v105H713.08Z"/><path class="cls-12" d="M753.82,507.34l6-8c11.53,8.85,24.29,13.79,37.66,13.79,14.2,0,25.32-7.82,25.32-20v-.41c0-12.35-13.17-16.88-27.79-21-17.08-4.94-36-10.09-36-28.81v-.41c0-16.88,14.2-29,34.57-29,12.56,0,26.76,4.52,37.25,11.52l-5.35,8.44c-9.67-6.38-21.2-10.5-32.31-10.5-14.4,0-23.87,7.82-23.87,18.32v.41c0,11.73,14.2,16.05,29.22,20.37,16.88,4.74,34.58,10.91,34.58,29.43v.42c0,18.72-16.06,30.66-36.22,30.66C781.61,522.57,764.94,516.4,753.82,507.34Z"/><path class="cls-12" d="M868.66,493.55V424.82H853.43v-9.26h15.23V382h10.08v33.55h36.84v9.26H878.74v67.7c0,15,8.85,20.38,21,20.38,5.14,0,9.46-1,15.43-3.71v9.47a38.54,38.54,0,0,1-17.08,3.7C881.83,522.36,868.66,513.51,868.66,493.55Z"/><path class="cls-12" d="M935.13,468.24v-.41c0-30.46,21.41-54.74,49.81-54.74,29.42,0,48.15,23.87,48.15,54.94a27,27,0,0,1-.2,4.12H945.83c1.86,26.14,20.58,41.36,41.16,41.36,16.26,0,27.37-7.2,36-16.46l7,6.17c-10.7,11.53-23.25,19.76-43.42,19.76C959,523,935.13,501,935.13,468.24Zm87-5.15c-1.44-21.19-13.58-40.74-37.66-40.74-20.78,0-36.83,17.49-38.69,40.74Z"/><path class="cls-12" d="M1062.52,415.56h10.09V445.4c8.23-18.73,25.72-32.31,46.51-31.49V425h-1c-24.29,0-45.48,18.32-45.48,52.48v43h-10.09Z"/><path class="cls-12" d="M1199.38,514.75l75.73-90.14h-72.85v-9.05h87.87v5.76l-75.73,90.14h75.73v9.05h-90.75Z"/><path class="cls-12" d="M1310.3,468.44V468c0-29.43,22.84-54.94,54.12-54.94,31.08,0,53.72,25.1,53.72,54.53V468c0,29.43-22.85,55-54.13,55C1332.94,523,1310.3,497.87,1310.3,468.44Zm96.93,0V468c0-25.31-18.93-45.48-43.22-45.48-24.9,0-42.8,20.38-42.8,45.07V468c0,25.32,18.93,45.48,43.21,45.48C1389.32,513.51,1407.23,493.14,1407.23,468.44Z"/><path class="cls-12" d="M1449.21,415.56h10.09V445.4c8.23-18.73,25.72-32.31,46.51-31.49V425h-1c-24.29,0-45.48,18.32-45.48,52.48v43h-10.09Z"/><path class="cls-12" d="M1524.33,537.8l6-8.23c12.55,9.67,27,14.81,42.39,14.81,24.08,0,41.16-13.78,41.16-40.74V488.41c-9,13-23,24.28-43.83,24.28-25.32,0-50.42-19.34-50.42-49.39v-.41c0-30.25,25.1-49.8,50.42-49.8,21,0,35.19,11.11,43.83,23.46v-21h10.08v88.69c0,15.23-4.93,27.17-13.37,35.61-9.06,9-22.64,14-38.07,14A79.25,79.25,0,0,1,1524.33,537.8Zm90.14-74.71v-.41c0-24.28-21.61-39.92-43.42-39.92-22,0-40.55,15.23-40.55,39.72v.41c0,23.67,18.94,40.13,40.55,40.13C1592.86,503,1614.47,487,1614.47,463.09Z"/><text/></g></g></svg>