<svg xmlns="http://www.w3.org/2000/svg" viewBox="0 0 238.8 238.8">
<defs>
<style>.cls-1{fill:#202a52;}.cls-2{fill:#fff;}</style>
</defs>
<g>
<rect class="cls-1" width="238.8" height="238.8"/>
<path class="cls-2" d="M16.12,46.9h9.65L36,80.71h.19L47,46.9H56L67.5,80.71h.19L77.43,46.9h9.08L71.9,92.17H63.2L51.27,58.36h-.19L40.28,92.17H31Z"/>
<path class="cls-2" d="M93.1,46.9h8V54h.19c.86-2.68,6.4-8.22,14.52-8.22,6.68,0,11.27,2.87,14.13,8.41a16.36,16.36,0,0,1,14.33-8.41c13.94,0,17.19,9.94,17.19,20.06V92.17h-8.6V67c0-6.87-1.43-13.18-9.74-13.18s-11.56,5.64-11.56,13.66V92.17H123V68.48c0-8.59-1.24-14.71-9.55-14.71-6.21,0-11.75,4.68-11.75,14.9v23.5H93.1Z"/>
<path class="cls-2" d="M173.51,46.9h8.59v6.49h.19c3.35-4.87,9.65-7.64,15.76-7.64,14,0,23,10.41,23,23.78,0,13.57-9.07,23.78-23,23.78-6.49,0-12.7-3-15.76-7.64h-.19V119.1h-8.59Zm8.59,22.63c0,9.17,5.73,15.76,14.9,15.76s14.9-6.59,14.9-15.76S206.17,53.77,197,53.77,182.1,60.36,182.1,69.53Z"/>
</g>
</svg>