<?xml version="1.0" encoding="utf-8"?>
<!-- Generator: Adobe Illustrator 25.2.3, SVG Export Plug-In . SVG Version: 6.00 Build 0)  -->
<svg version="1.1" xmlns="http://www.w3.org/2000/svg" xmlns:xlink="http://www.w3.org/1999/xlink" x="0px" y="0px"
	 viewBox="0 0 600 600" style="enable-background:new 0 0 600 600;" xml:space="preserve">
<style type="text/css">
	.st0{display:none;}
	.st1{opacity:0.4;fill:#1ECAD3;}
	.st2{fill:#1ECAD3;}
	.st3{fill:none;stroke:#1ECAD3;stroke-width:21.2201;stroke-miterlimit:10;}
	.st4{fill:#FCEE21;}
	.st5{opacity:0.6;fill:#1ECAD3;}
	.st6{fill:#E7EBEE;}
	.st7{fill:none;stroke:#0A9EE8;stroke-width:0.1686;stroke-linecap:round;stroke-linejoin:round;stroke-miterlimit:10;}
	.st8{fill:#F2F7F8;}
	.st9{fill:#F1F6F5;}
	.st10{fill:#A6ACB3;}
	.st11{fill:#D7DBDE;}
	.st12{fill:#E6E6E6;}
	.st13{opacity:0.4;fill:url(#SVGID_1_);}
	.st14{opacity:0.4;fill:url(#SVGID_2_);}
	.st15{opacity:0.7;fill:#FFFFFF;}
	.st16{fill:#F2F0F1;}
	.st17{opacity:0.4;fill:url(#SVGID_3_);}
	.st18{opacity:0;fill:url(#SVGID_4_);}
	.st19{opacity:0.4;fill:url(#SVGID_5_);}
	.st20{opacity:0.4;fill:url(#SVGID_6_);}
	.st21{opacity:0.4;fill:url(#SVGID_7_);}
	.st22{opacity:0.4;fill:url(#SVGID_8_);}
	.st23{opacity:0.4;fill:url(#SVGID_9_);}
</style>
<g id="Layer_1">
</g>
<g id="Schets" class="st0">
	
		<image style="display:inline;overflow:visible;" width="1512" height="2016" xlink:href="../Schets-duurzaam-medicijngebruik.jpg"  transform="matrix(0.3287 0 0 0.3287 52 -17)">
	</image>
</g>
<g id="Achtergrondkleur">
	<rect class="st1" width="600" height="600"/>
</g>
<g id="Bloem_2">
	<path class="st2" d="M17.7,479.4c0,0,34.4-9.7,69-11.8s79.7,1,100.3,9.4c20.7,8.4,47.7,22.5,63.5,42
		c15.8,19.5,83.1,123.5,83.1,123.5s-33.2,7.3-71.9,1c-38.6-6.3-114.3-31.8-148-51.5S17.7,479.4,17.7,479.4z"/>
	<path class="st3" d="M271.2,376c0,0-21,56.5-9.1,118.2c11.9,61.7,27.3,106.9,49.6,139"/>
	<path class="st2" d="M273.4,430.3c16.1,24.9,54.9,31.7,79.8,15.6c24.9-16.1,26.5-49,10.3-74c-16.1-24.9-49.4-32-74.3-15.9
		C264.4,372.1,257.3,405.4,273.4,430.3z"/>
	<path class="st2" d="M262.9,421.3c-16.1,24.9-53.3,32.1-77.6,16.4c-24.3-15.8-26.6-48.5-10.5-73.4s48.9-32.3,73.3-16.6
		C272.4,363.4,279.1,396.3,262.9,421.3z"/>
	<path class="st4" d="M-93,48"/>
	<path class="st2" d="M349.2,627.1c14.7,22.7,50.1,28.9,72.8,14.2s24.1-44.7,9.4-67.5c-14.7-22.7-45.1-29.2-67.8-14.5
		C340.9,574,334.5,604.3,349.2,627.1z"/>
	<path class="st2" d="M364.4,549.4c14.7,22.6,49.9,28.8,72.5,14.1c22.6-14.6,24-44.5,9.4-67.2c-14.7-22.6-44.9-29.1-67.5-14.5
		C356.2,496.5,349.8,526.8,364.4,549.4z"/>
	<path class="st2" d="M437.5,518.5c14.7,22.7,50.1,28.9,72.8,14.2s24.1-44.7,9.4-67.5c-14.7-22.7-45.1-29.2-67.8-14.5
		C429.3,465.4,422.8,495.7,437.5,518.5z"/>
	<path class="st2" d="M508,497.7c12.9,20,44,25.4,64,12.5c20-12.9,21.2-39.3,8.3-59.3c-12.9-20-39.6-25.7-59.5-12.8
		C500.7,451.1,495,477.7,508,497.7z"/>
	<path class="st2" d="M562.5,519.2c12.9,20,44,25.4,64,12.5c20-12.9,21.2-39.3,8.3-59.3c-12.9-20-39.6-25.7-59.5-12.8
		C555.3,472.6,549.6,499.2,562.5,519.2z"/>
	<path class="st2" d="M569.5,585.2c12.9,20,44,25.4,64,12.5c20-12.9,21.2-39.3,8.3-59.3c-12.9-20-39.6-25.7-59.5-12.8
		C562.3,538.6,556.6,565.2,569.5,585.2z"/>
	<path class="st5" d="M68.3,430c0,0,30.5-1.5,59.9,3.3s66.2,16.1,81.8,27.1c15.6,11,35.5,27.9,44.9,47.2
		c9.4,19.3,45.6,118.9,45.6,118.9s-29.1-0.3-60.1-12.9s-89.2-48.4-113.6-71.3S68.3,430,68.3,430z"/>
	<path class="st2" d="M506.2,667.7c20.3,31.4,71.3,38.7,104.7,17s36.7-64,16.4-95.4c-20.3-31.4-63.9-39.3-97.4-17.7
		C496.5,593.2,485.9,636.2,506.2,667.7z"/>
	<g>
		<path class="st6" d="M392.8,573.3l12,31.7c1.7,4.4,4.5,8.1,8.1,11.1c14.9,12.4,41.4,13.4,61.4,11.1c19.8-2.2,40.9-8,60.4-16.3
			c28.3-12.1,53.4-29.4,67.1-48.5c7.6-10.6,12.7-23.4,8.3-35.2l-12-31.6c4.4,11.8-0.8,24.7-8.4,35.3l1.9,5.1
			c-5.5,7.5-12.5,14.5-19.7,20.4l-1.9-5.1c-13.5,11.1-29.9,20.6-47.3,27.9c-16.7,7.1-34.3,12.3-51.1,15c-17.6,2.9-37.9,3.6-54.5-1.5
			C406.4,589.4,396.7,583.4,392.8,573.3L392.8,573.3z"/>
		<path class="st6" d="M403.7,534.5c-16.8,23.7-10.3,44,15.7,51.9c15.8,4.8,35.1,4.1,51.8,1.4c33.1-5.4,68.7-20.4,93.6-40.7
			C557.3,546.6,413,535.3,403.7,534.5z"/>
		<path class="st7" d="M401.9,537.1c0.2-0.3,0.4-0.5,0.6-0.8C402.2,536.6,402.1,536.8,401.9,537.1z"/>
		<path class="st8" d="M401.1,538.2c-18.1,25.7-10.4,46.4,16.2,54.5c16.6,5.1,36.9,4.3,54.5,1.5c34.1-5.6,71.7-21.2,98.3-43
			c-1.9-1.4-3.4-2.6-5.3-4c-33.7,27.3-87.5,45.6-127.7,42.4c-10.5-0.8-21.9-3.3-30.5-9.1c-6.1-4.1-10.3-9.5-11.7-16.5
			c-2-10.1,2.6-20.7,8.8-29.5c-2.5,3.4-1.7,2.3-1.8,2.5C401.8,537.2,401.1,538.1,401.1,538.2z"/>
		<path class="st9" d="M409.8,535l155,12.2c1.9,1.4,3.4,2.6,5.3,4c0.6,1.7,1.3,3.4,1.9,5.1c7.3-5.9,14.3-12.9,19.7-20.4l-168.8-13.3
			C418.4,526.4,413.8,530.6,409.8,535z"/>
		<path class="st10" d="M421,517.6c0.6,1.7,1.3,3.4,1.9,5.1L591.7,536c-0.6-1.7-1.3-3.4-1.9-5.1c-1.8-1.3-3.5-2.7-5.3-4l-161.1-12.7
			C422.6,515.3,421.8,516.4,421,517.6z"/>
		<path class="st11" d="M423.4,514.1l161.1,12.7c17.4-24.6,10-46-19.9-53c-20.4-4.8-45.1-1.8-65.9,3.6
			C472.3,484.3,444.5,497.1,423.4,514.1z"/>
		<path class="st8" d="M584.5,526.8c1.8,1.3,3.5,2.7,5.3,4c19.2-26.6,10.4-49.1-21.6-56.2c-0.6-0.1-1.2-0.3-1.8-0.4
			c8.5,2.2,17.2,6.3,22.4,13.1C597.9,499.2,593.4,514.2,584.5,526.8z"/>
		<path class="st7" d="M568.2,474.6c-1.2-0.3-2.4-0.5-3.5-0.8c0.6,0.1,1.2,0.3,1.7,0.4C567,474.3,567.6,474.5,568.2,474.6z"/>
		<path class="st12" d="M392.8,573.3l12,31.7c1.7,4.4,4.5,8.1,8.1,11.1c14.9,12.4,41.4,13.4,61.4,11.1c19.8-2.2,40.9-8,60.4-16.3
			l-12-31.7c-16.7,7.1-34.3,12.3-51.1,15c-17.6,2.9-37.9,3.6-54.5-1.5C406.4,589.4,396.7,583.4,392.8,573.3L392.8,573.3z"/>
	</g>
	<path class="st2" d="M196,355.4c-14.3,22.1-48.8,27.5-72,12.4c-23.2-15-26.3-44.8-12-66.9s44.7-27.8,67.9-12.8
		C203.1,303.2,210.3,333.3,196,355.4z"/>
	<path class="st2" d="M241.7,290.3c-13.7,21.1-46.6,26.2-68.9,11.8c-22.2-14.4-25.3-42.8-11.6-63.9c13.7-21.1,42.7-26.5,64.9-12.1
		C248.4,240.4,255.4,269.2,241.7,290.3z"/>
	<path class="st2" d="M300.4,262.9c-12.5,19.3-42.2,24.3-62,11.4c-19.8-12.8-22.2-38.6-9.7-57.9c12.5-19.3,38.7-24.5,58.5-11.7
		S312.9,243.6,300.4,262.9z"/>
	<path class="st2" d="M449.1,387.1c-16.1,24.9-53.4,32.1-77.8,16.3s-26.7-48.6-10.6-73.5c16.1-24.9,49-32.3,73.4-16.5
		S465.2,362.2,449.1,387.1z"/>
	<path class="st2" d="M427.1,304.4c-12.2,18.9-42.9,22.8-63.9,9.1s-24.6-39.6-12.3-58.5c12.2-18.9,39.2-23.2,60.3-9.5
		S439.3,285.5,427.1,304.4z"/>
	<path class="st2" d="M363.6,268.2c-10.9,16.9-37.4,21-55.2,9.5c-17.8-11.5-20.2-34.3-9.3-51.2c10.9-16.9,34.3-21.3,52.1-9.7
		C369,228.2,374.6,251.3,363.6,268.2z"/>
	<g>
		<path class="st6" d="M173.4,294.4v33.9c0,4.7,1.3,9.1,3.7,13.2c9.5,16.9,34,27.2,53.5,32.2c19.3,5,41.1,7,62.3,6.1
			c30.7-1.3,60.4-8.6,80-21.6c10.8-7.2,20.2-17.4,20.2-30v-33.8c0,12.6-9.5,22.8-20.4,30v5.5c-7.8,5.1-16.8,9.1-25.7,12.1v-5.5
			c-16.6,5.6-35.3,8.6-54.1,9.4c-18.1,0.7-36.4-0.6-53.1-4c-17.5-3.5-36.7-10-50.4-20.7C180.4,314.3,173.4,305.3,173.4,294.4
			L173.4,294.4z"/>
		<path class="st6" d="M197.3,262c-24.1,16.2-25.2,37.5-3.7,54.1c13.1,10.1,31.4,16.3,47.9,19.6c32.8,6.7,71.4,5.2,101.9-4.9
			C336.7,327.7,205.7,266,197.3,262z"/>
		<path class="st7" d="M194.7,263.8c0.3-0.2,0.5-0.4,0.8-0.5C195.2,263.4,195,263.6,194.7,263.8z"/>
		<path class="st8" d="M193.6,264.5c-26,17.6-26.2,39.7-4.2,56.7c13.7,10.6,32.9,17.1,50.4,20.7c33.8,6.8,74.5,5.6,107.2-5.4
			c-1.2-2-2.3-3.6-3.5-5.6c-41.2,13.6-98,11.7-134.4-5.5c-9.5-4.5-19.3-10.9-25.3-19.3c-4.2-5.9-6.3-12.6-5.1-19.6
			c1.7-10.2,9.7-18.5,18.7-24.5c-3.5,2.3-2.4,1.6-2.6,1.7C194.6,263.8,193.6,264.5,193.6,264.5z"/>
		<path class="st9" d="M202.8,264.6l140.6,66.3c1.2,2,2.3,3.6,3.5,5.6c0,1.8,0,3.6,0,5.5c8.9-3,17.9-7,25.7-12.1l-153.2-72.1
			C213.9,259.6,208.1,262,202.8,264.6z"/>
		<path class="st10" d="M219.5,252.3c0,1.8,0,3.6,0,5.5l153.2,72.1c0-1.8,0-3.6,0-5.5c-1.2-1.9-2.3-3.8-3.5-5.6L223,250
			C221.8,250.7,220.6,251.5,219.5,252.3z"/>
		<path class="st11" d="M223,250l146.1,68.9c25-16.8,25.6-39.5,0.2-56.6c-17.4-11.7-41.5-17.7-62.9-20
			C279.3,239.3,248.7,241.5,223,250z"/>
		<path class="st8" d="M369.1,318.8c1.2,1.9,2.3,3.8,3.5,5.6c27.4-18.1,27.1-42.2-0.3-60.2c-0.5-0.3-1-0.7-1.6-1
			c7.2,5,13.8,12,16.3,20.2C391.4,297.7,381.9,310.2,369.1,318.8z"/>
		<path class="st7" d="M372.3,264.2c-1-0.7-2-1.3-3-2c0.5,0.3,1,0.7,1.5,1C371.3,263.5,371.8,263.9,372.3,264.2z"/>
		<path class="st12" d="M173.4,294.4v33.9c0,4.7,1.3,9.1,3.7,13.2c9.5,16.9,34,27.2,53.5,32.2c19.3,5,41.1,7,62.3,6.1v-33.9
			c-18.1,0.7-36.4-0.6-53.1-4c-17.5-3.5-36.7-10-50.4-20.7C180.4,314.3,173.4,305.3,173.4,294.4L173.4,294.4z"/>
	</g>
</g>
<g id="Vlieg_1">
	<g>
		
			<linearGradient id="SVGID_1_" gradientUnits="userSpaceOnUse" x1="376.0352" y1="49.8546" x2="439.6375" y2="49.8546" gradientTransform="matrix(-0.817 0.5766 0.5766 0.817 469.6718 -206.4716)">
			<stop  offset="0" style="stop-color:#CCE0F4"/>
			<stop  offset="6.003439e-02" style="stop-color:#C7D7EE"/>
			<stop  offset="0.1599" style="stop-color:#BBBDDF"/>
			<stop  offset="0.2873" style="stop-color:#A794C7"/>
			<stop  offset="0.4356" style="stop-color:#8B5BA5"/>
			<stop  offset="0.5679" style="stop-color:#702283"/>
			<stop  offset="0.8663" style="stop-color:#702283"/>
			<stop  offset="0.9953" style="stop-color:#702283"/>
		</linearGradient>
		<path class="st13" d="M154.2,108.9c0,0-5.2-15.1-5.2-25.7c0.1-10.6-2.5-28.3,7.6-42.4c10.1-14.1,14.4-14,18.5-11.6
			c4.1,2.4,7.9,14.4,7.5,22.2c-0.4,7.8-2.2,22.4-4.9,28.6c-2.7,6.2-7.7,15.4-10.9,20.6c-3.2,5.3-6.2,10.4-6.2,10.4l-0.7,0.8
			c0,0-1.3-1.7-2.4-2.1C156.4,109.3,154.2,108.9,154.2,108.9"/>
		
			<linearGradient id="SVGID_2_" gradientUnits="userSpaceOnUse" x1="382.688" y1="158.308" x2="435.1167" y2="158.308" gradientTransform="matrix(-0.9598 0.2807 0.2807 0.9598 523.1929 -189.2963)">
			<stop  offset="0" style="stop-color:#CCE0F4"/>
			<stop  offset="6.003439e-02" style="stop-color:#C7D7EE"/>
			<stop  offset="0.1599" style="stop-color:#BBBDDF"/>
			<stop  offset="0.2873" style="stop-color:#A794C7"/>
			<stop  offset="0.4356" style="stop-color:#8B5BA5"/>
			<stop  offset="0.5679" style="stop-color:#702283"/>
			<stop  offset="0.8663" style="stop-color:#702283"/>
			<stop  offset="0.9953" style="stop-color:#702283"/>
		</linearGradient>
		<path class="st14" d="M157.1,109.2c0,0-2-17.1,0.1-27.1c2.1-10,3.1-28.1,15.4-35.9s16.3-5.4,19.7-0.9s4.7,17.9,2.8,25
			s-6.4,20-10.1,24.4c-3.7,4.4-10.3,10.3-14.3,13.6s-7.8,6.4-7.8,6.4l-0.8,0.4c0,0-0.9-2.4-1.8-3.3
			C159.2,110.8,157.1,109.2,157.1,109.2"/>
	</g>
	<path class="st12" d="M462.3,245.7c22.5-11.2,28.3-14.2,29.8-14.9c-0.1,0-0.1,0.1-0.2,0.1c9.8-4.9,19.5-9.8,29.3-14.7
		c2.9-1.5,5.4-3.4,7.4-5.6c-1.1,6.2-5,11.9-11.2,15c-8.2,4.1-16.4,8.2-24.6,12.3c0.1,0,0.1-0.1,0.2-0.1c-1.2,0.6-6.1,3.1-25,12.5
		c-7.8,3.9-16.8,2.5-23-2.8C450.5,249,456.6,248.5,462.3,245.7z"/>
	<path class="st15" d="M504.2,192.6c-0.1,0.1-48.4,24.2-50.4,25.2"/>
	<g>
		<g>
			<g>
				<g>
					<path class="st16" d="M107.7,205.6c14.7-6.5,46.9-19.2,61.6-25.6c-3.7,1.5-7.4,1.5-11.3,0.2c0,0,0,0,0,0
						c-19-6.1-32.8-37.4-26-55.7c0,0,0,0,0,0c1.4-3.8,3.8-7.4,7.4-9.4c0,0,0,0,0,0c0.3-0.2,0.6-0.4,1-0.5
						c-14.7,6.4-46.8,19.1-61.4,25.6C56.5,150,49.8,178.9,66.3,197C76.8,208.4,93.5,211.8,107.7,205.6z"/>
				</g>
				<g>
					<g>
						<path class="st2" d="M169.7,179.8c0.2-0.1,0.4-0.2,0.5-0.3C170,179.6,169.9,179.7,169.7,179.8z M141.5,114.1
							c-0.1,0-0.3,0.1-0.4,0.1C141.2,114.2,141.3,114.1,141.5,114.1z M202.4,87.3c16.1-7,34.5-1.7,44.2,12
							c12.8,18,5.9,43.7-14.6,53.1c-2.1,0.9-62.3,27.3-62.3,27.4c-3.7,1.6-7.5,1.6-11.5,0.3c0,0,0,0,0,0c-18.3-6-32.9-36.2-26-55.7
							c0,0,0,0,0,0c1.5-4,3.7-7.2,7.4-9.4C139.5,114.9,160,105.9,202.4,87.3z"/>
					</g>
				</g>
			</g>
		</g>
		<path class="st12" d="M233.2,139.4c-40.2,17.5-69.7,31.1-72.3,32.2c0.1,0,0.3-0.1,0.4-0.1c-17.5,7.6-51,21.6-68.4,29.2
			c-5.2,2.3-10.5,3.4-15.8,3.6c9.5,5.4,21.5,6.6,32.6,1.7c14.7-6.4,45.4-19.1,60.1-25.5c-0.1,0-0.2,0.1-0.3,0.1
			c2.2-0.9,30-13.8,63.8-28.5c13.9-6,19.6-19.1,19.3-33.3C248.2,127.9,243.2,135,233.2,139.4z"/>
	</g>
	
		<linearGradient id="SVGID_3_" gradientUnits="userSpaceOnUse" x1="40.2525" y1="83.9242" x2="136.1325" y2="116.7718" gradientTransform="matrix(0.9161 -0.401 0.401 0.9161 -38.6734 54.8415)">
		<stop  offset="0" style="stop-color:#CCE0F4"/>
		<stop  offset="6.003439e-02" style="stop-color:#C7D7EE"/>
		<stop  offset="0.1599" style="stop-color:#BBBDDF"/>
		<stop  offset="0.2873" style="stop-color:#A794C7"/>
		<stop  offset="0.4356" style="stop-color:#8B5BA5"/>
		<stop  offset="0.5679" style="stop-color:#702283"/>
		<stop  offset="0.8663" style="stop-color:#702283"/>
		<stop  offset="0.9953" style="stop-color:#702283"/>
	</linearGradient>
	<path class="st17" d="M134,120.6c0,0-9.9-18.1-20.7-24.6c-10.8-6.4-26.2-21.5-50.8-12.9s-29,16-30.8,24.4
		c-1.8,8.4,6.5,22.3,14.8,26.3s25,10,34,9.2s23.5-3.8,32.1-5.9s16.8-4.1,16.8-4.1l0.6,0.1c0,0,0.6-4.1,1.3-6.2
		C132,124.7,134,120.6,134,120.6"/>
	<linearGradient id="SVGID_4_" gradientUnits="userSpaceOnUse" x1="885.2186" y1="88.0087" x2="885.7186" y2="88.0087">
		<stop  offset="0" style="stop-color:#CCE0F4"/>
		<stop  offset="5.691348e-02" style="stop-color:#C3DDF1"/>
		<stop  offset="0.1516" style="stop-color:#A9D4EA"/>
		<stop  offset="0.2724" style="stop-color:#80C5DE"/>
		<stop  offset="0.4146" style="stop-color:#46B1CD"/>
		<stop  offset="0.5676" style="stop-color:#0099B8"/>
		<stop  offset="0.8652" style="stop-color:#0099B8"/>
		<stop  offset="0.9944" style="stop-color:#0099B8"/>
	</linearGradient>
	<path class="st18" d="M139.5,115c0,0-1.8-20.6-9.1-30.8S115,54,89,52s-33,3-38,10s-3,23,3,30s18.9,19.2,27.4,22.1
		c8.6,2.9,23.1,5.9,31.8,7.4c8.7,1.5,17.1,3,17.1,3l1.7,0c0,0,0.9-3.2,2.4-4.8C136,118,139.5,115,139.5,115"/>
	
		<linearGradient id="SVGID_5_" gradientUnits="userSpaceOnUse" x1="49.8223" y1="72.8008" x2="146.7747" y2="106.0158" gradientTransform="matrix(0.9696 -0.2448 0.2448 0.9696 -28.2132 35.4683)">
		<stop  offset="0" style="stop-color:#CCE0F4"/>
		<stop  offset="6.003439e-02" style="stop-color:#C7D7EE"/>
		<stop  offset="0.1599" style="stop-color:#BBBDDF"/>
		<stop  offset="0.2873" style="stop-color:#A794C7"/>
		<stop  offset="0.4356" style="stop-color:#8B5BA5"/>
		<stop  offset="0.5679" style="stop-color:#702283"/>
		<stop  offset="0.8663" style="stop-color:#702283"/>
		<stop  offset="0.9953" style="stop-color:#702283"/>
	</linearGradient>
	<path class="st19" d="M139,115c0,0-8-18.9-17.6-27s-22.3-25.5-48-21.1c-25.7,4.4-31.3,11-34.4,19s2.7,23,10.3,28.4s23,13.9,32,14.7
		c9,0.7,23.8,0.1,32.7-0.6c8.8-0.7,17.3-1.3,17.3-1.3l-0.3,0c0,0,1.9-4.1,3-6s4-5,4-5"/>
</g>
<g id="Vlieg_2">
	<g>
		<linearGradient id="SVGID_6_" gradientUnits="userSpaceOnUse" x1="421.472" y1="191.337" x2="473.9881" y2="191.337">
			<stop  offset="0" style="stop-color:#CCE0F4"/>
			<stop  offset="6.003439e-02" style="stop-color:#C7D7EE"/>
			<stop  offset="0.1599" style="stop-color:#BBBDDF"/>
			<stop  offset="0.2873" style="stop-color:#A794C7"/>
			<stop  offset="0.4356" style="stop-color:#8B5BA5"/>
			<stop  offset="0.5679" style="stop-color:#702283"/>
			<stop  offset="0.8663" style="stop-color:#702283"/>
			<stop  offset="0.9953" style="stop-color:#702283"/>
		</linearGradient>
		<path class="st20" d="M474,206.9c0,0-1-11.8-5.2-17.7c-4.2-5.9-8.8-17.4-23.8-18.5c-15-1.2-19,1.7-21.9,5.8
			c-2.9,4-1.7,13.2,1.7,17.3c3.5,4,10.9,11,15.8,12.7c4.9,1.7,13.3,3.4,18.3,4.3c5,0.9,9.8,1.7,9.8,1.7l1,0c0,0,0.5-1.8,1.4-2.8
			C472,208.6,474,206.9,474,206.9"/>
		
			<linearGradient id="SVGID_7_" gradientUnits="userSpaceOnUse" x1="372.1586" y1="303.4489" x2="424.6748" y2="303.4489" gradientTransform="matrix(0.946 -0.3241 0.3241 0.946 -33.8252 44.8926)">
			<stop  offset="0" style="stop-color:#CCE0F4"/>
			<stop  offset="6.003439e-02" style="stop-color:#C7D7EE"/>
			<stop  offset="0.1599" style="stop-color:#BBBDDF"/>
			<stop  offset="0.2873" style="stop-color:#A794C7"/>
			<stop  offset="0.4356" style="stop-color:#8B5BA5"/>
			<stop  offset="0.5679" style="stop-color:#702283"/>
			<stop  offset="0.8663" style="stop-color:#702283"/>
			<stop  offset="0.9953" style="stop-color:#702283"/>
		</linearGradient>
		<path class="st21" d="M471.3,209c0,0-4.8-10.9-10.7-15.1c-5.9-4.2-14-13.6-28.5-9.8c-14.5,3.8-17.4,7.8-18.8,12.5
			s2.7,13.1,7.2,15.8c4.6,2.7,13.8,6.9,19,6.9c5.2,0,13.7-1.1,18.7-1.9c5-0.8,9.8-1.6,9.8-1.6l0.9-0.3c0,0-0.1-1.9,0.4-3.1
			S471.3,209,471.3,209"/>
	</g>
	<g>
		<g>
			<g>
				<g>
					<path class="st2" d="M474.1,199.4c-0.1,0.1-0.2,0.1-0.3,0.2C473.9,199.5,474,199.4,474.1,199.4z M467.8,248.3
						c-9,4.5-19.7,1.9-25.7-5.6c-7.8-9.9-4.6-24.9,6.8-30.8c1.2-0.6,25.1-12.5,25.1-12.6c2.1-1,4.3-1.1,6.6-0.5c0,0,0,0,0,0
						c10.6,2.9,19.9,19.8,16.5,31.2c0,0,0,0,0,0c-0.7,2.3-1.9,4.2-4,5.6C493.2,235.6,491.5,236.5,467.8,248.3z M492.1,236.2
						c0.1,0,0.1-0.1,0.2-0.1C492.3,236.1,492.2,236.1,492.1,236.2z"/>
				</g>
			</g>
			<g>
				<path class="st16" d="M499,186.9c-8.2,4.1-16.5,8.2-24.7,12.4c2.1-1,4.2-1.1,6.4-0.4c0,0,0,0,0,0c11.1,2.9,19.8,20.5,16.5,31.2
					c0,0,0,0,0,0c-0.7,2.2-2,4.4-4,5.6c0,0,0,0,0,0c-0.2,0.1-0.4,0.2-0.6,0.3c8.2-4.1,16.4-8.2,24.6-12.3c12.6-6.3,15.6-23.1,5.6-33
					C516.6,184.3,506.9,182.9,499,186.9z"/>
			</g>
		</g>
	</g>
	<g>
		
			<linearGradient id="SVGID_8_" gradientUnits="userSpaceOnUse" x1="405.6917" y1="189.19" x2="465.9881" y2="189.19" gradientTransform="matrix(-1 0 0 1 955.9646 0)">
			<stop  offset="0" style="stop-color:#CCE0F4"/>
			<stop  offset="6.003439e-02" style="stop-color:#C7D7EE"/>
			<stop  offset="0.1599" style="stop-color:#BBBDDF"/>
			<stop  offset="0.2873" style="stop-color:#A794C7"/>
			<stop  offset="0.4356" style="stop-color:#8B5BA5"/>
			<stop  offset="0.5679" style="stop-color:#702283"/>
			<stop  offset="0.8663" style="stop-color:#702283"/>
			<stop  offset="0.9953" style="stop-color:#702283"/>
		</linearGradient>
		<path class="st22" d="M490,207c0,0,1.2-13.6,6-20.3c4.8-6.7,10.1-20,27.3-21.3c17.2-1.3,21.8,2,25.1,6.6c3.3,4.6,2,15.2-2,19.8
			c-4,4.6-12.5,12.6-18.1,14.6c-5.7,1.9-15.2,3.9-21,4.9c-5.8,1-11.3,1.9-11.3,1.9l-1.1,0c0,0-0.6-2.1-1.6-3.2S490,207,490,207"/>
		
			<linearGradient id="SVGID_9_" gradientUnits="userSpaceOnUse" x1="356.2814" y1="298.8735" x2="416.5779" y2="298.8735" gradientTransform="matrix(-0.946 -0.3241 -0.3241 0.946 989.7898 44.8926)">
			<stop  offset="0" style="stop-color:#CCE0F4"/>
			<stop  offset="6.003439e-02" style="stop-color:#C7D7EE"/>
			<stop  offset="0.1599" style="stop-color:#BBBDDF"/>
			<stop  offset="0.2873" style="stop-color:#A794C7"/>
			<stop  offset="0.4356" style="stop-color:#8B5BA5"/>
			<stop  offset="0.5679" style="stop-color:#702283"/>
			<stop  offset="0.8663" style="stop-color:#702283"/>
			<stop  offset="0.9953" style="stop-color:#702283"/>
		</linearGradient>
		<path class="st23" d="M493.1,209.5c0,0,5.5-12.5,12.3-17.3s16-15.6,32.7-11.3c16.7,4.3,20,8.9,21.6,14.4c1.6,5.4-3,15-8.3,18.1
			c-5.2,3.1-15.9,7.9-21.9,7.9c-6,0-15.7-1.2-21.5-2.2c-5.8-0.9-11.3-1.8-11.3-1.8l-1.1-0.4c0,0,0.1-2.2-0.5-3.5
			C494.6,212.1,493.1,209.5,493.1,209.5"/>
	</g>
</g>
</svg>
