<?xml version="1.0" encoding="utf-8"?>
<!-- Generator: Adobe Illustrator 25.2.3, SVG Export Plug-In . SVG Version: 6.00 Build 0)  -->
<svg version="1.1" xmlns="http://www.w3.org/2000/svg" xmlns:xlink="http://www.w3.org/1999/xlink" x="0px" y="0px"
	 viewBox="0 0 2000 2000" style="enable-background:new 0 0 2000 2000;" xml:space="preserve">
<style type="text/css">
	.st0{fill:#92D3E1;}
	.st1{fill:#1ECAD3;}
	.st2{fill:none;stroke:#1ECAD3;stroke-width:70.6814;stroke-miterlimit:10;}
	.st3{opacity:0.6;fill:#1ECAD3;}
	.st4{fill:#E7EBEE;}
	.st5{fill:none;stroke:#0A9EE8;stroke-width:0.5616;stroke-linecap:round;stroke-linejoin:round;stroke-miterlimit:10;}
	.st6{fill:#F2F7F8;}
	.st7{fill:#F1F6F5;}
	.st8{fill:#A6ACB3;}
	.st9{fill:#D7DBDE;}
	.st10{fill:#E6E6E6;}
	.st11{opacity:0.4;fill:url(#SVGID_1_);}
	.st12{opacity:0.4;fill:url(#SVGID_2_);}
	.st13{opacity:0.7;fill:#FFFFFF;}
	.st14{fill:#F2F0F1;}
	.st15{opacity:0.4;fill:url(#SVGID_3_);}
	.st16{opacity:0;fill:url(#SVGID_4_);}
	.st17{opacity:0.4;fill:url(#SVGID_5_);}
	.st18{opacity:0.4;fill:url(#SVGID_6_);}
	.st19{opacity:0.4;fill:url(#SVGID_7_);}
	.st20{opacity:0.4;fill:url(#SVGID_8_);}
	.st21{opacity:0.4;fill:url(#SVGID_9_);}
	.st22{fill:#9FE8EC;}
	.st23{fill:#FFFFFF;}
	.st24{fill:#DBF0F5;stroke:#B6B6B6;stroke-width:10;stroke-linecap:round;}
	.st25{fill:#DBF0F5;}
</style>
<g id="Deksel">
	<polygon class="st0" points="2000,2000 0,2000 0,0 1709.9,0 2000,290 	"/>
	<path class="st1" d="M58.9,1596.8c0,0,114.4-32.4,230-39.4s265.3,3.3,334.1,31.4c68.8,28.1,158.9,74.8,211.5,139.9
		s276.7,411.3,276.7,411.3s-110.7,24.2-239.4,3.3c-128.7-20.9-380.7-106-493.1-171.7S58.9,1596.8,58.9,1596.8z"/>
	<path class="st2" d="M903.4,1252.3c0,0-69.9,188.2-30.3,393.7c39.6,205.5,91,356,165.2,463"/>
	<path class="st1" d="M910.7,1433.2c53.7,83,183,105.6,265.9,51.9s88.1-163.3,34.4-246.3c-53.7-83-164.5-106.7-247.5-53
		S857,1350.2,910.7,1433.2z"/>
	<path class="st1" d="M875.8,1403.2c-53.7,83-177.5,107-258.6,54.5s-88.6-161.5-34.9-244.5c53.7-83,163-107.7,244-55.3
		C907.5,1210.4,929.6,1320.2,875.8,1403.2z"/>
	<path class="st1" d="M1163.1,2088.7c49,75.7,167,96.3,242.6,47.3c75.7-49,80.4-149,31.3-224.7c-49-75.7-150.1-97.4-225.8-48.4
		C1135.7,1911.9,1114.1,2013,1163.1,2088.7z"/>
	<path class="st1" d="M1213.8,1829.9c48.8,75.4,166.2,95.9,241.5,47.1s80-148.3,31.2-223.7s-149.4-96.9-224.7-48.2
		S1165,1754.6,1213.8,1829.9z"/>
	<path class="st1" d="M1457.4,1726.9c49,75.7,167,96.3,242.6,47.3c75.7-49,80.4-149,31.3-224.7c-49-75.7-150.1-97.4-225.8-48.4
		C1430,1550.1,1408.4,1651.2,1457.4,1726.9z"/>
	<path class="st1" d="M1691.9,1657.8c43.1,66.5,146.7,84.6,213.1,41.6c66.5-43,70.6-130.9,27.5-197.4
		c-43.1-66.5-131.9-85.5-198.3-42.5C1667.8,1502.5,1648.8,1591.3,1691.9,1657.8z"/>
	<path class="st1" d="M1873.8,1729.4c43.1,66.5,146.7,84.6,213.1,41.6c66.5-43,70.6-130.9,27.5-197.4
		c-43.1-66.5-131.9-85.5-198.3-42.5C1849.7,1574.1,1830.7,1662.9,1873.8,1729.4z"/>
	<path class="st1" d="M1897.1,1949.2c43.1,66.5,146.7,84.6,213.1,41.6c66.5-43,70.6-130.9,27.5-197.4
		c-43.1-66.5-131.9-85.5-198.3-42.5C1873,1793.9,1854,1882.7,1897.1,1949.2z"/>
	<path class="st3" d="M227.4,1432.2c0,0,101.6-5.1,199.4,11.1c97.7,16.2,220.6,53.5,272.6,90.1s118.2,92.8,149.6,157.1
		s152,396,152,396s-96.9-1-200.3-43.1S503.5,1882.2,422.4,1806S227.4,1432.2,227.4,1432.2z"/>
	<path class="st1" d="M1686.1,2223.9c67.8,104.7,237.4,128.8,348.8,56.7c111.4-72.1,122.3-213.2,54.5-317.9
		c-67.8-104.7-213-131-324.4-58.9C1653.7,1975.9,1618.3,2119.2,1686.1,2223.9z"/>
	<g>
		<path class="st4" d="M1308.4,1909.5l40,105.6c5.5,14.6,15,26.9,27,36.9c49.5,41.5,138,44.5,204.7,37.1
			c66.1-7.3,136.2-26.7,201.2-54.4c94.3-40.2,178-97.8,223.6-161.6c25.2-35.2,42.3-77.9,27.5-117.1l-39.9-105.3
			c14.8,39.3-2.7,82.4-28.1,117.6l6.4,17c-18.2,25.1-41.6,48.3-65.7,67.9l-6.4-17c-45.1,36.8-99.6,68.5-157.4,93.1
			c-55.6,23.7-114.2,40.9-170.1,50.1c-58.7,9.6-126.2,12-181.4-4.9C1353.8,1963.3,1321.3,1943.2,1308.4,1909.5L1308.4,1909.5z"/>
		<path class="st4" d="M1344.7,1780.5c-56.1,78.9-34.4,146.5,52.3,172.9c52.6,16,116.9,13.7,172.4,4.7
			c110.2-17.9,228.7-68.1,311.7-135.4C1856.2,1820.7,1375.6,1782.9,1344.7,1780.5z"/>
		<path class="st5" d="M1338.6,1789c0.6-0.9,1.3-1.7,1.9-2.6C1339.8,1787.2,1339.2,1788.1,1338.6,1789z"/>
		<path class="st6" d="M1335.9,1792.6c-60.3,85.4-34.7,154.5,53.8,181.7c55.3,16.9,122.7,14.5,181.4,4.9
			c113.4-18.6,238.7-70.5,327.5-143.2c-6.2-4.7-11.3-8.7-17.5-13.4c-112.2,90.9-291.4,151.8-425.3,141.3
			c-35-2.8-73.1-11.1-101.5-30.2c-20.2-13.5-34.4-31.8-39-55c-6.8-33.7,8.5-69.1,29.4-98.3c-8.2,11.4-5.5,7.7-6.1,8.5
			C1338.4,1789.2,1336.1,1792.4,1335.9,1792.6z"/>
		<path class="st7" d="M1364.9,1782.1l516.2,40.6c6.2,4.7,11.3,8.7,17.5,13.4c2.2,5.7,4.3,11.4,6.4,17
			c24.2-19.7,47.6-42.9,65.7-67.9l-562.2-44.2C1393.5,1753.4,1378.2,1767.5,1364.9,1782.1z"/>
		<path class="st8" d="M1402.2,1724c2.2,5.7,4.3,11.4,6.5,17l562.2,44.2c-2.1-5.7-4.3-11.3-6.4-17c-5.8-4.5-11.7-8.9-17.5-13.4
			l-536.5-42.2C1407.6,1716.4,1404.9,1720.2,1402.2,1724z"/>
		<path class="st9" d="M1410.3,1712.6l536.5,42.2c58.1-81.9,33.4-153.2-66.2-176.7c-67.9-16-150.2-6.1-219.5,12
			C1573.3,1613.1,1480.5,1655.8,1410.3,1712.6z"/>
		<path class="st6" d="M1946.8,1754.8c5.9,4.5,11.7,9,17.5,13.4c63.9-88.6,34.5-163.5-71.9-187.3c-2-0.4-4-0.9-6-1.3
			c28.2,7.2,57.1,21.1,74.6,43.7C1991.5,1662.8,1976.6,1712.8,1946.8,1754.8z"/>
		<path class="st5" d="M1892.5,1580.8c-3.9-0.9-7.9-1.8-11.8-2.7c1.9,0.5,3.9,0.9,5.8,1.5C1888.5,1580,1890.5,1580.4,1892.5,1580.8z
			"/>
		<path class="st10" d="M1308.4,1909.5l40,105.6c5.5,14.6,15,26.9,27,36.9c49.5,41.5,138,44.5,204.7,37.1
			c66.1-7.3,136.2-26.7,201.2-54.4l-39.9-105.5c-55.6,23.7-114.2,40.9-170.1,50.1c-58.7,9.6-126.2,12-181.4-4.9
			C1353.8,1963.3,1321.3,1943.2,1308.4,1909.5L1308.4,1909.5z"/>
	</g>
	<path class="st1" d="M652.7,1183.7c-47.7,73.6-162.6,91.5-239.9,41.5s-87.7-149.2-40.1-222.8s149-92.7,226.3-42.6
		S700.4,1110.1,652.7,1183.7z"/>
	<path class="st1" d="M805.2,966.9c-45.5,70.2-155.3,87.2-229.3,39.3c-74-47.9-84.1-142.6-38.6-212.8
		c45.5-70.2,142.3-88.3,216.3-40.4S850.6,896.6,805.2,966.9z"/>
	<path class="st1" d="M1000.5,875.8c-41.6,64.2-140.5,80.8-206.4,38.1c-66-42.7-74-128.5-32.4-192.8s128.8-81.7,194.8-39
		C1022.4,724.8,1042.1,811.5,1000.5,875.8z"/>
	<path class="st1" d="M1495.8,1289.4c-53.7,83-177.7,106.8-259,54.2c-81.3-52.6-89-161.8-35.2-244.7c53.7-83,163.2-107.6,244.4-55
		C1527.3,1096.5,1549.6,1206.4,1495.8,1289.4z"/>
	<path class="st1" d="M1422.5,1013.9c-40.8,63-142.8,75.8-213,30.4c-70.1-45.4-81.8-132-41-194.9s130.7-77.2,200.8-31.7
		C1439.4,863.1,1463.2,951,1422.5,1013.9z"/>
	<path class="st1" d="M1211.2,893.2c-36.5,56.3-124.5,69.9-183.8,31.5c-59.3-38.4-67.4-114.3-31-170.6
		c36.5-56.3,114.1-70.8,173.4-32.4C1229.1,760.1,1247.6,836.9,1211.2,893.2z"/>
	<g>
		<path class="st4" d="M577.5,980.6v112.9c0,15.7,4.5,30.4,12.2,44.1c31.6,56.3,113.3,90.4,178.3,107.1
			c64.4,16.5,136.8,23.2,207.5,20.3c102.4-4.2,201.1-28.5,266.4-72c36-24,67.2-57.9,67.2-99.8V980.6c-0.1,42-31.7,76.1-67.9,100
			v18.2c-25.9,17.1-56,30.5-85.5,40.3v-18.2c-55.2,18.5-117.4,28.8-180.2,31.3c-60.4,2.5-121.3-2.1-176.8-13.4
			c-58.2-11.8-122.2-33.4-167.9-68.8C601,1047,577.7,1016.8,577.5,980.6L577.5,980.6z"/>
		<path class="st4" d="M657.1,872.8c-80.4,54-84,124.9-12.2,180.3c43.6,33.6,104.5,54.2,159.6,65.4c109.4,22.2,238,17.2,339.5-16.3
			C1121.4,1091.5,685.2,886.1,657.1,872.8z"/>
		<path class="st5" d="M648.5,878.6c0.9-0.6,1.8-1.2,2.7-1.8C650.2,877.4,649.4,878,648.5,878.6z"/>
		<path class="st6" d="M644.7,881.1c-86.6,58.6-87.1,132.2-14,189c45.7,35.4,109.7,57,167.9,68.8c112.7,22.8,248.3,18.5,357-18
			c-4.1-6.6-7.5-12.1-11.7-18.8c-137.1,45.3-326.3,38.9-447.8-18.4c-31.8-15-64.4-36.2-84.3-64.1c-14.1-19.8-20.9-41.9-17-65.2
			c5.6-33.9,32.4-61.6,62.3-81.6c-11.7,7.8-7.9,5.3-8.7,5.8C648.2,878.8,645,880.9,644.7,881.1z"/>
		<path class="st7" d="M675.5,881.5l468.4,220.7c4.1,6.6,7.5,12.1,11.7,18.8c0,6.1,0,12.1,0,18.2c29.6-9.9,59.7-23.3,85.5-40.3
			L731,858.6C712.4,864.7,693.1,872.6,675.5,881.5z"/>
		<path class="st8" d="M731,840.3c0,6.1,0,12.1,0,18.2l510.1,240.3c0-6.1,0-12.1,0-18.2c-3.9-6.2-7.8-12.5-11.7-18.8L742.6,832.6
			C738.7,835.2,734.9,837.8,731,840.3z"/>
		<path class="st9" d="M742.6,832.6l486.8,229.3c83.3-56,85.4-131.4,0.6-188.6c-57.8-39-138.3-58.9-209.5-66.5
			C930.2,797.2,828.3,804.3,742.6,832.6z"/>
		<path class="st6" d="M1229.4,1061.9c3.9,6.3,7.8,12.5,11.7,18.8c91.2-60.2,90.2-140.7-0.9-200.6c-1.7-1.1-3.4-2.2-5.2-3.3
			c23.9,16.8,45.9,40,54.3,67.3C1303.8,991.7,1272.2,1033.2,1229.4,1061.9z"/>
		<path class="st5" d="M1240.2,880c-3.4-2.2-6.7-4.5-10.1-6.7c1.6,1.1,3.3,2.2,4.9,3.4C1236.7,877.8,1238.5,878.9,1240.2,880z"/>
		<path class="st10" d="M577.5,980.6v112.9c0,15.7,4.5,30.4,12.2,44.1c31.6,56.3,113.3,90.4,178.3,107.1
			c64.4,16.5,136.8,23.2,207.5,20.3v-112.8c-60.4,2.5-121.3-2.1-176.8-13.4c-58.2-11.8-122.2-33.4-167.9-68.8
			C601,1047,577.7,1016.8,577.5,980.6L577.5,980.6z"/>
	</g>
	<g>
		
			<linearGradient id="SVGID_1_" gradientUnits="userSpaceOnUse" x1="948.9007" y1="128.5404" x2="1160.752" y2="128.5404" gradientTransform="matrix(-0.817 0.5766 0.5766 0.817 1337.9795 -482.0087)">
			<stop  offset="0" style="stop-color:#CCE0F4"/>
			<stop  offset="6.003439e-02" style="stop-color:#C7D7EE"/>
			<stop  offset="0.1599" style="stop-color:#BBBDDF"/>
			<stop  offset="0.2873" style="stop-color:#A794C7"/>
			<stop  offset="0.4356" style="stop-color:#8B5BA5"/>
			<stop  offset="0.5679" style="stop-color:#702283"/>
			<stop  offset="0.8663" style="stop-color:#702283"/>
			<stop  offset="0.9953" style="stop-color:#702283"/>
		</linearGradient>
		<path class="st11" d="M513.5,362.8c0,0-17.4-50.2-17.2-85.6S488,182.8,521.7,136s48-46.7,61.6-38.7s26.3,48,24.8,73.9
			s-7.3,74.7-16.2,95.3s-25.8,51.1-36.3,68.8c-10.5,17.6-20.5,34.5-20.5,34.5l-2.4,2.7c0,0-4.3-5.8-7.9-7.1S513.5,362.8,513.5,362.8
			"/>
		
			<linearGradient id="SVGID_2_" gradientUnits="userSpaceOnUse" x1="1155.7618" y1="277.7584" x2="1330.3953" y2="277.7584" gradientTransform="matrix(-0.9598 0.2807 0.2807 0.9598 1698.5863 -357.6286)">
			<stop  offset="0" style="stop-color:#CCE0F4"/>
			<stop  offset="6.003439e-02" style="stop-color:#C7D7EE"/>
			<stop  offset="0.1599" style="stop-color:#BBBDDF"/>
			<stop  offset="0.2873" style="stop-color:#A794C7"/>
			<stop  offset="0.4356" style="stop-color:#8B5BA5"/>
			<stop  offset="0.5679" style="stop-color:#702283"/>
			<stop  offset="0.8663" style="stop-color:#702283"/>
			<stop  offset="0.9953" style="stop-color:#702283"/>
		</linearGradient>
		<path class="st12" d="M523.4,363.8c0,0-6.8-57,0.2-90.4c7-33.4,10.4-93.7,51.3-119.7c40.8-25.9,54.4-18,65.7-3
			c11.3,15,15.6,59.8,9.3,83.4c-6.4,23.7-21.3,66.7-33.7,81.3c-12.4,14.7-34.3,34.3-47.6,45.2c-13.3,10.9-26,21.5-26,21.5l-2.8,1.3
			c0,0-3-7.9-6.1-11.1C530.4,369.2,523.4,363.8,523.4,363.8"/>
	</g>
	<path class="st13" d="M1679.3,641.7c-0.5,0.3-161.1,80.5-167.8,83.9"/>
	<g>
		<g>
			<g>
				<g>
					<path class="st14" d="M358.9,684.7c49-21.5,156.2-63.9,205.3-85.4c-12.3,5-24.8,4.9-37.5,0.7c0,0,0,0,0,0
						c-63.3-20.3-109.1-124.7-86.7-185.6c0,0,0,0,0,0c4.6-12.8,12.6-24.7,24.6-31.4c0,0,0,0,0,0c1.1-0.6,2.2-1.2,3.3-1.7
						C419,402.8,312,445.1,263.1,466.5c-74.9,33-97.2,129.4-42.2,189.6C255.9,694.3,311.6,705.5,358.9,684.7z"/>
				</g>
				<g>
					<g>
						<path class="st1" d="M565.2,598.8c0.6-0.3,1.2-0.5,1.7-0.9C566.4,598.2,565.8,598.5,565.2,598.8z M471.2,380
							c-0.4,0.1-0.9,0.3-1.3,0.5C470.3,380.3,470.7,380.1,471.2,380z M674.1,290.8c53.5-23.5,115-5.6,147.2,40.1
							c42.5,59.9,19.5,145.6-48.7,176.9c-6.9,3.1-207.4,91-207.7,91.1c-12.4,5.4-25,5.4-38.3,1.1c0,0,0,0,0,0
							c-60.9-20-109.6-120.4-86.7-185.6c0,0,0,0,0,0c4.9-13.4,12.2-24.1,24.6-31.4C464.5,382.6,533.1,352.7,674.1,290.8z"/>
					</g>
				</g>
			</g>
		</g>
		<path class="st10" d="M776.1,464.2C642.2,522.6,544,567.9,535.2,571.6c0.4-0.2,0.9-0.3,1.3-0.5c-58.2,25.3-169.8,71.8-228,97.1
			c-17.3,7.5-37.4,12.5-54.9,13.1c31.6,18,72.6,17.9,109.8,1.8c48.9-21.3,152.3-62,201.2-83.3c-0.4,0.1,0.4-0.9,0.1-0.7
			c7.4-3.1,95-42,207.5-91.1c46.2-20.1,71.4-65.3,70.7-112.6C828.3,426,809.5,449.7,776.1,464.2z"/>
	</g>
	
		<linearGradient id="SVGID_3_" gradientUnits="userSpaceOnUse" x1="339.7075" y1="138.5267" x2="659.0715" y2="247.9379" gradientTransform="matrix(0.9161 -0.401 0.401 0.9161 -260.6379 394.3122)">
		<stop  offset="0" style="stop-color:#CCE0F4"/>
		<stop  offset="6.003439e-02" style="stop-color:#C7D7EE"/>
		<stop  offset="0.1599" style="stop-color:#BBBDDF"/>
		<stop  offset="0.2873" style="stop-color:#A794C7"/>
		<stop  offset="0.4356" style="stop-color:#8B5BA5"/>
		<stop  offset="0.5679" style="stop-color:#702283"/>
		<stop  offset="0.8663" style="stop-color:#702283"/>
		<stop  offset="0.9953" style="stop-color:#702283"/>
	</linearGradient>
	<path class="st15" d="M446.2,401.7c0,0-32.9-60.4-68.9-81.8c-36-21.3-87.1-71.7-169.1-43.1s-96.7,53.2-102.6,81.3
		s21.6,74.2,49.2,87.5S238,478.9,268,476.3c30-2.5,78.3-12.7,107-19.8c28.7-7.1,56.1-13.8,56.1-13.8l2,0.3c0,0,1.8-13.7,4.3-20.6
		S446.2,401.7,446.2,401.7"/>
	<linearGradient id="SVGID_4_" gradientUnits="userSpaceOnUse" x1="2948.5527" y1="293.1461" x2="2950.218" y2="293.1461">
		<stop  offset="0" style="stop-color:#CCE0F4"/>
		<stop  offset="5.691348e-02" style="stop-color:#C3DDF1"/>
		<stop  offset="0.1516" style="stop-color:#A9D4EA"/>
		<stop  offset="0.2724" style="stop-color:#80C5DE"/>
		<stop  offset="0.4146" style="stop-color:#46B1CD"/>
		<stop  offset="0.5676" style="stop-color:#0099B8"/>
		<stop  offset="0.8652" style="stop-color:#0099B8"/>
		<stop  offset="0.9944" style="stop-color:#0099B8"/>
	</linearGradient>
	<path class="st16" d="M464.5,383c0,0-5.9-68.6-30.4-102.6c-24.4-34-51.1-100.6-137.7-107.3c-86.6-6.7-109.9,10-126.6,33.3
		s-10,76.6,10,99.9c20,23.3,62.9,63.8,91.4,73.5c28.5,9.7,76.9,19.8,106,24.8c29.1,5,56.9,9.8,56.9,9.8l5.8-0.1c0,0,3.1-10.6,8.1-16
		S464.5,383,464.5,383"/>
	
		<linearGradient id="SVGID_5_" gradientUnits="userSpaceOnUse" x1="274.6422" y1="156.4642" x2="597.5787" y2="267.0993" gradientTransform="matrix(0.9696 -0.2448 0.2448 0.9696 -178.2943 228.1598)">
		<stop  offset="0" style="stop-color:#CCE0F4"/>
		<stop  offset="6.003439e-02" style="stop-color:#C7D7EE"/>
		<stop  offset="0.1599" style="stop-color:#BBBDDF"/>
		<stop  offset="0.2873" style="stop-color:#A794C7"/>
		<stop  offset="0.4356" style="stop-color:#8B5BA5"/>
		<stop  offset="0.5679" style="stop-color:#702283"/>
		<stop  offset="0.8663" style="stop-color:#702283"/>
		<stop  offset="0.9953" style="stop-color:#702283"/>
	</linearGradient>
	<path class="st17" d="M463,383.1c0,0-26.5-63-58.5-90s-74.2-85-159.8-70.3c-85.6,14.7-104.1,36.6-114.6,63.3
		c-10.4,26.7,9.1,76.7,34.2,94.4c25.1,17.7,76.6,46.5,106.6,48.9c30,2.5,79.4,0.4,108.8-1.9c29.5-2.3,57.6-4.4,57.6-4.4l-1,0
		c0,0,6.5-13.5,10-20c3.5-6.5,13.3-16.7,13.3-16.7"/>
	<g>
		<linearGradient id="SVGID_6_" gradientUnits="userSpaceOnUse" x1="1403.8705" y1="637.3195" x2="1578.7953" y2="637.3195">
			<stop  offset="0" style="stop-color:#CCE0F4"/>
			<stop  offset="6.003439e-02" style="stop-color:#C7D7EE"/>
			<stop  offset="0.1599" style="stop-color:#BBBDDF"/>
			<stop  offset="0.2873" style="stop-color:#A794C7"/>
			<stop  offset="0.4356" style="stop-color:#8B5BA5"/>
			<stop  offset="0.5679" style="stop-color:#702283"/>
			<stop  offset="0.8663" style="stop-color:#702283"/>
			<stop  offset="0.9953" style="stop-color:#702283"/>
		</linearGradient>
		<path class="st18" d="M1578.8,689c0,0-3.4-39.4-17.5-59c-14.1-19.6-29.4-57.9-79.2-61.7c-49.8-3.8-63.2,5.7-72.8,19.2
			c-9.6,13.4-5.7,44.1,5.7,57.5c11.5,13.4,36.2,36.7,52.6,42.3s44.2,11.4,61,14.2c16.8,2.9,32.7,5.7,32.7,5.7l3.3-0.1
			c0,0,1.8-6.1,4.6-9.2C1572.2,694.8,1578.8,689,1578.8,689"/>
		
			<linearGradient id="SVGID_7_" gradientUnits="userSpaceOnUse" x1="1395.7668" y1="895.1031" x2="1570.6917" y2="895.1031" gradientTransform="matrix(0.946 -0.3241 0.3241 0.946 -222.9107 309.5456)">
			<stop  offset="0" style="stop-color:#CCE0F4"/>
			<stop  offset="6.003439e-02" style="stop-color:#C7D7EE"/>
			<stop  offset="0.1599" style="stop-color:#BBBDDF"/>
			<stop  offset="0.2873" style="stop-color:#A794C7"/>
			<stop  offset="0.4356" style="stop-color:#8B5BA5"/>
			<stop  offset="0.5679" style="stop-color:#702283"/>
			<stop  offset="0.8663" style="stop-color:#702283"/>
			<stop  offset="0.9953" style="stop-color:#702283"/>
		</linearGradient>
		<path class="st19" d="M1569.9,696.2c0,0-16-36.2-35.7-50.2c-19.6-13.9-46.6-45.2-94.9-32.7c-48.4,12.5-58,25.9-62.7,41.7
			s8.8,43.6,24.1,52.5c15.2,9,46.1,23,63.5,23c17.3,0,45.5-3.5,62.3-6.3c16.8-2.7,32.8-5.3,32.8-5.3l3.1-1.2c0,0-0.3-6.3,1.4-10.2
			S1569.9,696.2,1569.9,696.2"/>
	</g>
	<g>
		<g>
			<g>
				<path class="st14" d="M1662,622.5c-27.5,13.7-54.9,27.5-82.4,41.2c6.9-3.2,14.1-3.5,21.5-1.5c0,0,0,0,0,0
					c36.8,9.8,66.1,68.3,55,103.8c0,0,0,0,0,0c-2.2,7.4-6.5,14.5-13.2,18.7c0,0,0,0,0,0c-0.6,0.4-1.2,0.7-1.8,1.1
					c27.4-13.7,54.7-27.4,82.1-41c42-21,51.9-76.9,18.7-109.8C1720.7,614,1688.5,609.2,1662,622.5z"/>
			</g>
			<g>
				<g>
					<path class="st1" d="M1579,664c-0.3,0.2-0.7,0.3-1,0.5C1578.4,664.4,1578.7,664.2,1579,664z M1558.2,827.2
						c-29.9,15-65.7,6.5-85.4-18.7c-26-33.1-15.4-82.8,22.8-102.7c3.8-2,83.5-41.7,83.6-41.8c6.9-3.5,14.2-3.8,21.9-1.7c0,0,0,0,0,0
						c35.5,9.7,66.2,65.8,55,103.8c0,0,0,0,0,0c-2.4,7.8-6.3,14.2-13.2,18.7C1642.9,784.9,1637.2,787.7,1558.2,827.2z M1639.2,786.6
						c0.2-0.1,0.5-0.2,0.7-0.3C1639.7,786.4,1639.4,786.5,1639.2,786.6z"/>
				</g>
			</g>
		</g>
	</g>
	<g>
		
			<linearGradient id="SVGID_8_" gradientUnits="userSpaceOnUse" x1="523.0741" y1="630.1682" x2="723.9141" y2="630.1682" gradientTransform="matrix(-1 0 0 1 2355.9646 0)">
			<stop  offset="0" style="stop-color:#CCE0F4"/>
			<stop  offset="6.003439e-02" style="stop-color:#C7D7EE"/>
			<stop  offset="0.1599" style="stop-color:#BBBDDF"/>
			<stop  offset="0.2873" style="stop-color:#A794C7"/>
			<stop  offset="0.4356" style="stop-color:#8B5BA5"/>
			<stop  offset="0.5679" style="stop-color:#702283"/>
			<stop  offset="0.8663" style="stop-color:#702283"/>
			<stop  offset="0.9953" style="stop-color:#702283"/>
		</linearGradient>
		<path class="st20" d="M1632.1,689.5c0,0,3.9-45.3,20.1-67.7s33.7-66.5,90.9-70.9c57.2-4.4,72.6,6.6,83.6,22
			c11,15.4,6.6,50.6-6.6,66c-13.2,15.4-41.5,42.1-60.4,48.6c-18.8,6.4-50.8,13.1-70,16.4c-19.2,3.3-37.6,6.5-37.6,6.5l-3.8-0.1
			c0,0-2-7-5.3-10.6C1639.6,696.2,1632.1,689.5,1632.1,689.5"/>
		
			<linearGradient id="SVGID_9_" gradientUnits="userSpaceOnUse" x1="559.3529" y1="611.4333" x2="760.1929" y2="611.4333" gradientTransform="matrix(-0.946 -0.3241 -0.3241 0.946 2578.8752 309.5456)">
			<stop  offset="0" style="stop-color:#CCE0F4"/>
			<stop  offset="6.003439e-02" style="stop-color:#C7D7EE"/>
			<stop  offset="0.1599" style="stop-color:#BBBDDF"/>
			<stop  offset="0.2873" style="stop-color:#A794C7"/>
			<stop  offset="0.4356" style="stop-color:#8B5BA5"/>
			<stop  offset="0.5679" style="stop-color:#702283"/>
			<stop  offset="0.8663" style="stop-color:#702283"/>
			<stop  offset="0.9953" style="stop-color:#702283"/>
		</linearGradient>
		<path class="st21" d="M1642.3,697.8c0,0,18.4-41.6,40.9-57.6c22.5-16,53.5-51.9,109-37.6s66.5,29.8,72,47.9
			c5.4,18.1-10.2,50-27.6,60.3c-17.5,10.3-52.9,26.4-72.9,26.4c-19.9,0-52.3-4.1-71.5-7.2c-19.3-3.1-37.7-6-37.7-6l-3.6-1.3
			c0,0,0.4-7.3-1.6-11.7C1647.3,706.5,1642.3,697.8,1642.3,697.8"/>
	</g>
	<path class="st1" d="M1579,664c-0.3,0.2-0.7,0.3-1,0.5C1578.4,664.4,1578.7,664.2,1579,664z M1558.2,827.2
		c-29.9,15-65.7,6.5-85.4-18.7c-26-33.1-15.4-82.8,22.8-102.7c3.8-2,83.5-41.7,83.6-41.8c6.9-3.5,14.2-3.8,21.9-1.7c0,0,0,0,0,0
		c35.5,9.7,66.2,65.8,55,103.8c0,0,0,0,0,0c-2.4,7.8-6.3,14.2-13.2,18.7C1642.9,784.9,1637.2,787.7,1558.2,827.2z M1639.2,786.6
		c0.2-0.1,0.5-0.2,0.7-0.3C1639.7,786.4,1639.4,786.5,1639.2,786.6z"/>
	<path class="st22" d="M1539.7,813.6c74.9-37.4,94.4-47.2,99.3-49.7c-0.2,0.1-0.4,0.3-0.7,0.4c32.5-16.3,65.1-32.6,97.6-48.8
		c9.7-4.9,17.9-11.3,24.6-18.7c-3.7,20.5-16.6,38.3-37.4,48.8c-27.3,13.7-54.7,27.4-82.1,41c0.2-0.1,0.4-0.2,0.6-0.3
		c-4.1,2.1-24.4,11.8-82.3,40.6c-47.9,23.9-80.4-11.8-77.6-9.3C1500.5,822.3,1521,822.9,1539.7,813.6z"/>
	<g>
		<path class="st23" d="M560.6,254.6c0,23.6-17.2,37-51.6,37h-62.4v-140H505c30,0,48.2,12.6,48.2,35.8c0,16.6-9.4,27.4-23.4,32
			C549.6,223.2,560.6,235.2,560.6,254.6z M456.8,160.4v55.8h47.8c24.2,0,38.2-9.4,38.2-28c0-18.4-14-27.8-38.2-27.8H456.8z
			 M550.4,253.8c0-20-14.6-28.8-41.4-28.8h-52.2v57.8H509C535.8,282.8,550.4,274,550.4,253.8z"/>
		<path class="st23" d="M590.6,153.8c0-4.4,3.6-8.2,8.2-8.2c4.6,0,8.2,3.6,8.2,8c0,4.6-3.6,8.2-8.2,8.2
			C594.2,161.8,590.6,158.2,590.6,153.8z M593.8,187.2h10v104.4h-10V187.2z"/>
		<path class="st23" d="M634.6,239.4c0-31,22.2-53,52.2-53s52.2,22,52.2,53s-22.2,53-52.2,53S634.6,270.4,634.6,239.4z M728.8,239.4
			c0-26.2-18-44-42-44s-42,17.8-42,44s18,44,42,44S728.8,265.6,728.8,239.4z"/>
		<path class="st23" d="M770,143.2h10v148.4h-10V143.2z"/>
		<path class="st23" d="M810.8,239.4c0-31,22.2-53,52.2-53s52.2,22,52.2,53s-22.2,53-52.2,53S810.8,270.4,810.8,239.4z M905,239.4
			c0-26.2-18-44-42-44s-42,17.8-42,44s18,44,42,44S905,265.6,905,239.4z"/>
		<path class="st23" d="M1040.2,187.2v93.2c0,35-17,50.8-50.6,50.8c-19,0-37.2-6-47.8-16.6l5.4-7.6c10.4,9.6,25.4,15.2,42.2,15.2
			c27.8,0,40.8-12.8,40.8-40.6V264c-8.6,15.2-24.6,23.8-43.4,23.8c-29.6,0-52-21-52-50.8c0-29.8,22.4-50.6,52-50.6
			c19.2,0,35.4,8.8,43.8,24.4v-23.6H1040.2z M1030.4,237c0-24.6-18-41.6-42.8-41.6c-24.6,0-42.6,17-42.6,41.6s18,41.8,42.6,41.8
			C1012.4,278.8,1030.4,261.6,1030.4,237z"/>
		<path class="st23" d="M1079.4,153.8c0-4.4,3.6-8.2,8.2-8.2s8.2,3.6,8.2,8c0,4.6-3.6,8.2-8.2,8.2S1079.4,158.2,1079.4,153.8z
			 M1082.6,187.2h10v104.4h-10V187.2z"/>
		<path class="st23" d="M1119.4,279l4.6-8c8,6.8,22.2,12.6,37.6,12.6c22,0,30.8-7.8,30.8-19.6c0-30.4-69.2-8-69.2-49
			c0-15.8,13.2-28.6,39.6-28.6c13.2,0,27.6,4,35.8,10.2l-4.6,8c-8.8-6.4-20.2-9.4-31.4-9.4c-20.4,0-29.4,8.4-29.4,19.6
			c0,31.4,69.2,9.2,69.2,49c0,17-14.6,28.6-41.2,28.6C1144,292.4,1127.6,286.6,1119.4,279z"/>
		<path class="st23" d="M1219,239.4c0-31.2,22.2-53,52.8-53c16.6,0,31,6.4,39.6,19.2l-7.4,5.4c-7.6-10.6-19.2-15.6-32.2-15.6
			c-24.6,0-42.6,17.6-42.6,44s18,44,42.6,44c13,0,24.6-5,32.2-15.6l7.4,5.4c-8.6,12.6-23,19.2-39.6,19.2
			C1241.2,292.4,1219,270.4,1219,239.4z"/>
		<path class="st23" d="M1433,230.6v61h-10v-60.2c0-23.6-12.6-36-33.8-36c-24.6,0-39.6,15.8-39.6,40.6v55.6h-10V143.2h10V209
			c7.2-14.2,21.6-22.6,41-22.6C1416,186.4,1433,201.4,1433,230.6z"/>
		<path class="st23" d="M1562.6,241.8h-89.8c1,24.8,19.2,41.6,44.2,41.6c13.2,0,25.4-4.8,33.4-14.6l5.8,6.6
			c-9.2,11.2-23.6,17-39.4,17c-31.6,0-53.8-22-53.8-53s21.4-53,50-53s49.8,21.6,49.8,52.6C1562.8,239.8,1562.6,240.8,1562.6,241.8z
			 M1473,234h80c-1.4-22.6-17.8-38.8-40-38.8C1490.8,195.2,1474.6,211.2,1473,234z"/>
		<path class="st23" d="M627.8,460.6v61h-10v-60.2c0-23.6-12.2-36-32.6-36c-23.6,0-38.2,15.8-38.2,40.6v55.6h-10v-60.2
			c0-23.6-12.2-36-32.6-36c-23.6,0-38.2,15.8-38.2,40.6v55.6h-10V417.2h9.6v22.4c6.8-14.6,21-23.2,40-23.2
			c18.8,0,32.6,8.6,38.2,25.2c6.8-15.2,22-25.2,42.2-25.2C611.4,416.4,627.8,431.4,627.8,460.6z"/>
		<path class="st23" d="M757.4,471.8h-89.8c1,24.8,19.2,41.6,44.2,41.6c13.2,0,25.4-4.8,33.4-14.6l5.8,6.6
			c-9.2,11.2-23.6,17-39.4,17c-31.6,0-53.8-22-53.8-53s21.4-53,50-53c28.6,0,49.8,21.6,49.8,52.6
			C757.6,469.8,757.4,470.8,757.4,471.8z M667.8,464h80c-1.4-22.6-17.8-38.8-40-38.8C685.6,425.2,669.4,441.2,667.8,464z"/>
		<path class="st23" d="M881.4,373.2v148.4h-9.8V497c-8.2,16.2-24,25.4-42.8,25.4c-29.4,0-51.6-21.8-51.6-53c0-31.4,22.2-53,51.6-53
			c18.6,0,34.2,9.2,42.6,25v-68.2H881.4z M871.4,469.4c0-26.2-18-44-42-44s-42,17.8-42,44s18,44,42,44S871.4,495.6,871.4,469.4z"/>
		<path class="st23" d="M920.4,383.8c0-4.4,3.6-8.2,8.2-8.2c4.6,0,8.2,3.6,8.2,8c0,4.6-3.6,8.2-8.2,8.2
			C924,391.8,920.4,388.2,920.4,383.8z M923.6,417.2h10v104.4h-10V417.2z"/>
		<path class="st23" d="M964.4,469.4c0-31.2,22.2-53,52.8-53c16.6,0,31,6.4,39.6,19.2l-7.4,5.4c-7.6-10.6-19.2-15.6-32.2-15.6
			c-24.6,0-42.6,17.6-42.6,44s18,44,42.6,44c13,0,24.6-5,32.2-15.6l7.4,5.4c-8.6,12.6-23,19.2-39.6,19.2
			C986.6,522.4,964.4,500.4,964.4,469.4z"/>
		<path class="st23" d="M1083.6,383.8c0-4.4,3.6-8.2,8.2-8.2c4.6,0,8.2,3.6,8.2,8c0,4.6-3.6,8.2-8.2,8.2
			C1087.2,391.8,1083.6,388.2,1083.6,383.8z M1086.8,417.2h10v104.4h-10V417.2z"/>
		<path class="st23" d="M1100.2,554.2l4-7.4c4.2,3.8,10.2,5.8,17,5.8c12.2,0,18.8-7.4,18.8-21V417.2h10V532
			c0,17.6-10,29.2-28.2,29.2C1113.4,561.2,1105.2,559,1100.2,554.2z M1136.8,383.8c0-4.4,3.6-8.2,8.2-8.2c4.6,0,8.2,3.6,8.2,8
			c0,4.6-3.6,8.2-8.2,8.2C1140.4,391.8,1136.8,388.2,1136.8,383.8z"/>
		<path class="st23" d="M1285.6,460.6v61h-10v-60.2c0-23.6-12.6-36-33.8-36c-24.6,0-39.6,15.8-39.6,40.6v55.6h-10V417.2h9.6v22.6
			c7-14.6,21.6-23.4,41.4-23.4C1268.6,416.4,1285.6,431.4,1285.6,460.6z"/>
		<path class="st23" d="M1415.2,471.8h-89.8c1,24.8,19.2,41.6,44.2,41.6c13.2,0,25.4-4.8,33.4-14.6l5.8,6.6
			c-9.2,11.2-23.6,17-39.4,17c-31.6,0-53.8-22-53.8-53s21.4-53,50-53s49.8,21.6,49.8,52.6C1415.4,469.8,1415.2,470.8,1415.2,471.8z
			 M1325.6,464h80c-1.4-22.6-17.8-38.8-40-38.8C1343.4,425.2,1327.2,441.2,1325.6,464z"/>
		<path class="st23" d="M1539.8,460.6v61h-10v-60.2c0-23.6-12.6-36-33.8-36c-24.6,0-39.6,15.8-39.6,40.6v55.6h-10V417.2h9.6v22.6
			c7-14.6,21.6-23.4,41.4-23.4C1522.8,416.4,1539.8,431.4,1539.8,460.6z"/>
	</g>
</g>
<g id="Achtergrond">
	<g>
		<line class="st24" x1="1762.9" y1="66.1" x2="1947.1" y2="66.1"/>
		<line class="st24" x1="1762.9" y1="107.4" x2="1947.1" y2="107.4"/>
		<line class="st24" x1="1762.9" y1="148.6" x2="1947.1" y2="148.6"/>
		<line class="st24" x1="1762.9" y1="189.9" x2="1947.1" y2="189.9"/>
		<polygon class="st25" points="2000,290 1710,290 1710,0 		"/>
	</g>
</g>
</svg>
