<?xml version="1.0" encoding="utf-8"?>
<!-- Generator: Adobe Illustrator 25.2.3, SVG Export Plug-In . SVG Version: 6.00 Build 0)  -->
<svg version="1.1" xmlns="http://www.w3.org/2000/svg" xmlns:xlink="http://www.w3.org/1999/xlink" x="0px" y="0px"
	 viewBox="0 0 2000 2000" style="enable-background:new 0 0 2000 2000;" xml:space="preserve">
<style type="text/css">
	.st0{fill:#70228D;}
	.st1{fill:none;stroke:#B6B6B6;stroke-width:10;stroke-linecap:round;}
	.st2{fill:#EBDFEF;}
	.st3{fill:#FE8F54;}
	.st4{fill:#FD6210;}
	.st5{fill:#EAA8A3;}
	.st6{fill:#242424;}
	.st7{fill:#494949;}
	.st8{fill:#AD81BE;}
	.st9{fill:#9961AE;}
	.st10{fill:#C2A0CE;}
	.st11{fill:#151517;}
	.st12{fill:#383639;}
	.st13{fill:#2F6D93;}
	.st14{fill:#FFFFFF;}
</style>
<g id="Achtergrond">
	<polygon class="st0" points="2000,2000 1543,2000 0,2000 0,0 1709.8,0 2000,290 	"/>
	<g>
		<line class="st1" x1="1762.7" y1="66.1" x2="1946.9" y2="66.1"/>
		<line class="st1" x1="1762.7" y1="107.4" x2="1946.9" y2="107.4"/>
		<line class="st1" x1="1762.7" y1="148.6" x2="1946.9" y2="148.6"/>
		<line class="st1" x1="1762.7" y1="189.9" x2="1946.9" y2="189.9"/>
		<polygon class="st2" points="1999.8,290 1709.8,290 1709.8,0 		"/>
	</g>
</g>
<g id="Corona">
	<path class="st3" d="M970.4,1071.8c-0.4-62.3,49.7-113.2,112-113.6c62.3-0.4,113.2,49.7,113.6,112c0.4,62.3-49.7,113.2-112,113.6
		C1021.7,1184.2,970.9,1134.1,970.4,1071.8 M641.4,990.5c-0.4-60,48.5-109,109.3-109.5c60.8-0.4,110.4,47.9,110.8,107.9
		c0.4,60-48.5,109-109.3,109.5C691.4,1098.8,641.8,1050.5,641.4,990.5 M1124.8,736.3c-0.5-69.1,55.1-125.6,124.3-126.1
		c69.1-0.5,125.6,55.1,126.1,124.3c0.5,69.1-55.1,125.6-124.3,126.1C1181.8,861.1,1125.3,805.5,1124.8,736.3 M613.3,661.4
		c-0.3-41.6,33.2-75.6,74.8-75.9c41.6-0.3,75.6,33.2,75.9,74.8c0.3,41.6-33.2,75.6-74.8,75.9C647.6,736.5,613.6,703,613.3,661.4
		 M845.4,503.5c-0.4-53.2,42.4-96.6,95.6-97c53.2-0.4,96.6,42.4,97,95.6c0.4,53.2-42.4,96.6-95.6,97
		C889.2,599.5,845.8,556.7,845.4,503.5 M841.4,1471.6c9.3-26.2-3.4-56.1-29.5-77.1c16.1-40.1,39-83.3,57-115.3
		c36.6,8.5,74.7,13,113.9,12.7c4.9,0,9.7-0.3,14.6-0.5c7.1,26.2,15.3,60.2,19.4,91c-23,10.5-37.8,30.1-35.8,50.9
		c2.7,28.7,36.1,49.1,74.6,45.4c38.5-3.6,67.5-29.9,64.7-58.6c-2-20.9-20.2-37.3-44.7-43.3c-1.8-31.8,0-67.6,2.1-95
		c34.4-7.1,67.5-17.9,98.8-31.8c23.8,28,54.4,66.1,77.7,102.5c-21.7,25.5-28.6,57.3-14.5,81.3c19.4,33,70.9,38.8,115.2,12.8
		c44.2-25.9,64.3-73.8,44.9-106.8c-14.1-24-45.2-33.5-78.1-27c-20.4-38.1-38.8-83.4-51.6-117.8c44.7-33.5,83.4-74.6,114.2-121.3
		c25.6,11.6,60.8,28.7,89.8,47.1c-6.7,24.4-1.3,48.3,16,60.2c23.8,16.4,60.8,3.9,82.7-27.9c21.9-31.8,20.5-70.9-3.3-87.3
		c-17.3-11.9-41.5-8.5-61.9,6.4c-30.8-23-62.8-53.9-82.7-73.9c18.9-43.9,31.5-91.2,36.6-140.6c36.1-6.6,84.5-14,127.6-16
		c11.3,31.6,35.3,53.4,63.2,53.2c38.3-0.3,69-42.1,68.7-93.3c-0.4-51.3-31.7-92.6-70-92.3c-27.8,0.2-51.6,22.4-62.4,54.1
		c-43.2-1.4-91.7-8.1-127.9-14.2c-5.2-43.8-16.2-85.7-32.3-125c22.2-15.6,51.3-34.9,78.8-49.3c17.8,18,41.2,25.2,60.1,16.2
		c26.1-12.4,33.8-50.7,17.2-85.6c-16.6-34.9-51.2-53.2-77.2-40.8c-19,9-28.1,31.7-25.4,56.8c-29.2,12.5-63.5,23.1-90,30.5
		c-18.3-29.6-39.8-56.9-63.8-81.8c18.1-31.9,43.6-73.8,69.8-108.2c31.4,11.7,63.6,7.3,81.3-14.2c24.4-29.5,12.2-79.9-27.3-112.6
		c-39.5-32.7-91.3-35.2-115.7-5.7c-17.7,21.4-16,53.9,1.3,82.6c-28.8,32.2-65.1,65-93,88.8c-35.8-23.5-75-42.3-116.5-55.6
		c2.3-27,6.3-61.7,12.9-92c25.2-2,45.8-15.3,51.1-35.6c7.3-27.9-17.2-58.5-54.6-68.2c-37.4-9.7-73.6,5-80.9,33
		c-5.3,20.3,6.2,41.9,27.2,56c-9.2,30.5-23.1,63.5-34.5,88.5c-24-3.5-48.5-5.2-73.5-5c-10.2,0.1-20.2,0.6-30.2,1.2
		c-12.8-34.4-28.5-80.8-38-122.9c29.1-16.6,46.4-44.1,41.4-71.4c-6.9-37.7-53.4-60.7-103.8-51.4c-50.4,9.3-85.7,47.3-78.8,85
		c5,27.4,31,46.9,64.1,52c6.2,42.8,7.9,91.6,8.2,128.3c-41.9,12.7-81.3,30.8-117.5,53.6c-19.2-19.1-43.3-44.5-62.2-69
		c14.6-20.6,17.7-44.9,5.5-62c-16.7-23.5-55.8-24.4-87.3-2c-31.5,22.4-43.5,59.6-26.7,83.1c12.1,17.1,36.1,22.2,60.4,15.1
		c17.5,26.7,33.9,58.7,45.8,83.5c-25.9,23.1-49.3,48.8-69.7,76.8c-34.6-12.3-80.1-30.1-118.5-49.9c6-33-3.9-63.9-28.1-77.7
		c-33.3-18.9-80.8,1.9-106.1,46.5c-25.3,44.6-18.8,96.1,14.5,115c24.2,13.7,55.9,6.4,81.1-15.7c36.7,22.8,75.3,52.8,103.6,76.2
		c-16.8,39.1-28.5,80.9-34.5,124.5c-27,2.4-61.9,4.6-92.9,3.3c-6.4-24.5-23-42.4-44-44.1c-28.8-2.3-54.6,27.1-57.7,65.6
		c-3.1,38.5,17.7,71.6,46.5,73.9c20.9,1.7,40.2-13.4,50.4-36.5c31.7,3.8,66.8,11.8,93.4,18.6c1,35.3,5.8,69.7,14,102.7
		c-31.7,18.5-74.5,42.1-114.4,58.7c-21.4-25.8-51.5-38.1-77.5-28.4c-35.9,13.4-50.5,63.1-32.6,111.2c17.9,48,61.5,76.2,97.4,62.8
		c26.1-9.7,40.8-38.7,40.1-72.2c41-13.5,88.9-23.7,125-30.4c19.6,38.8,44.3,74.5,73.2,106.4c-15.5,22.3-36.3,50.4-57.2,73.3
		c-22.8-10.8-47.3-9.6-62,5.3c-20.3,20.6-14.4,59.2,13.1,86.3c27.5,27.1,66.3,32.5,86.5,11.9c14.7-14.9,15.6-39.4,4.4-62.1
		c23.2-21.8,51.9-43.6,74.2-59.5c27.1,21.4,56.5,40,87.8,55.3c-6.1,36.2-15.7,84.1-28.6,125.4c-33.5-0.2-62.3,14.9-71.6,41.2
		c-12.8,36.1,15.9,79.3,64.2,96.4C779,1523,828.6,1507.7,841.4,1471.6"/>
</g>
<g id="Schaduw">
	<path class="st4" d="M811.9,1394.5c15.7-39.2,37.9-81.3,55.8-113C698.2,1200.4,674,994.2,674,793.8
		c0-262.2,107.6-444.4,363.6-468.3c-12.8-1.5-25.7-2.6-38.7-3.1c-7.6-0.3-15.3-0.4-23-0.4c-10.2,0.1-20.2,0.6-30.2,1.2
		c-12.8-34.4-28.5-80.8-38-122.9c29.1-16.6,46.4-44.1,41.4-71.4c-6.9-37.7-53.4-60.7-103.8-51.4c-50.4,9.3-85.7,47.3-78.8,85
		c5,27.4,31,46.9,64.1,52c6.2,42.8,7.9,91.6,8.2,128.3c-41.9,12.7-81.3,30.8-117.5,53.5c-19.2-19.1-43.3-44.5-62.2-69
		c14.6-20.6,17.7-44.9,5.5-62c-16.7-23.5-55.8-24.4-87.3-2c-31.5,22.4-43.5,59.6-26.7,83.1c12.1,17.1,36.1,22.2,60.4,15.1
		c17.5,26.7,33.9,58.7,45.8,83.5c-25.9,23.1-49.3,48.8-69.7,76.8c-34.6-12.3-80.1-30.1-118.5-49.9c6-33-3.9-63.9-28.1-77.7
		c-33.3-18.9-80.8,1.9-106.1,46.5c-25.3,44.6-18.8,96.1,14.5,115c24.2,13.7,55.9,6.4,81.1-15.7c36.7,22.8,75.3,52.8,103.6,76.2
		c-16.8,39.1-28.5,80.9-34.5,124.5c-27,2.4-61.9,4.6-92.9,3.3c-6.4-24.5-23-42.4-44-44.1c-28.8-2.3-54.6,27.1-57.7,65.6
		c-3.1,38.5,17.7,71.6,46.5,73.9c20.9,1.7,40.2-13.4,50.4-36.5c31.7,3.8,66.8,11.8,93.4,18.6c1,35.3,5.8,69.7,14,102.7
		c-31.7,18.5-74.5,42.1-114.4,58.7c-21.4-25.8-51.5-38.1-77.5-28.4c-35.9,13.4-50.5,63.1-32.6,111.2c17.9,48,61.5,76.2,97.4,62.8
		c26.1-9.7,40.8-38.7,40.1-72.2c41-13.5,88.9-23.7,125-30.4c19.6,38.8,44.3,74.5,73.2,106.4c-15.5,22.3-36.3,50.4-57.2,73.3
		c-22.8-10.8-47.3-9.6-62,5.3c-20.3,20.6-14.4,59.2,13.1,86.3c27.5,27.1,66.3,32.5,86.5,11.9c14.7-14.9,15.6-39.4,4.4-62.1
		c23.2-21.8,51.9-43.6,74.2-59.5c27.1,21.4,56.5,40,87.8,55.3c-6.1,36.2-15.7,84.1-28.6,125.4c-33.5-0.2-62.3,14.9-71.6,41.2
		c-12.8,36.1,15.9,79.3,64.2,96.4c48.3,17.2,97.9,1.9,110.7-34.2C850.7,1445.4,838.1,1415.5,811.9,1394.5z"/>
</g>
<g id="Basis">
	<g>
		<defs>
			<rect id="SVGID_1_" x="276.6" y="75.5" width="1444.5" height="1437.4"/>
		</defs>
		<clipPath id="SVGID_2_">
			<use xlink:href="#SVGID_1_"  style="overflow:visible;"/>
		</clipPath>
	</g>
	<circle class="st0" cx="690.9" cy="662.9" r="77.9"/>
	<circle class="st0" cx="753.9" cy="994.3" r="114.3"/>
	<g>
		<path class="st5" d="M1622.3,1677.6c-21.6-7.3-41.7-53.3-41.7-53.3c-3.7,3.1-30.3,8.8-30.3,8.8c-10.4,2.5-29.6,19.3-29.6,19.3
			c-52.3,7.2-51.8-13.3-51.8-13.3c5.9-18.3,33.3-43.4,33.3-43.4c6.7-10.4,26.8-16.2,26.8-16.2c6.4-2.3,16.7-7.9,16.7-7.9
			c9.9-6.4,37.4-17.1,37.4-17.1c7.5-4.9,21.5-0.8,21.5-0.8c20.2,10.6,31.5,24.2,31.5,24.2L1622.3,1677.6z"/>
		<g>
			<path class="st6" d="M1404.8,1118.1c57.8,94,12.8,194.9-67.6,233.1s-179.3,17.9-223.6-94.6c-36.7-93.3-12.8-194.9,67.6-233.1
				C1261.6,985.3,1352.2,1032.8,1404.8,1118.1z"/>
			<path class="st7" d="M1430.1,1106.3c57.8,94,9.3,196-71.1,234.2c-80.4,38.3-179.3,17.9-223.6-94.6
				c-36.7-93.3-12.8-194.9,67.6-233.1C1283.5,974.6,1377.6,1021,1430.1,1106.3z"/>
			<polygon class="st8" points="1620.5,1407 1286.4,1590.5 1186.3,1392.3 1497.1,1221.1 			"/>
			<polygon class="st9" points="1631.1,1476 1366.2,1627.2 1287.1,1589.3 1621.2,1405.8 			"/>
			<g>
				<polygon class="st9" points="1710.5,1873.8 1623.9,1921.7 1421.9,1562.6 1508.5,1514.7 				"/>
				<polygon class="st10" points="1722.2,1867.4 1667.2,1897.7 1465.2,1538.7 1520.2,1508.3 				"/>
				<path class="st11" d="M1699.4,1908.2l-28.2,15.6c-11.5,6.4-26.1,2.2-32.4-9.4l-8.7-15.8l70-38.7l8.7,15.8
					C1715.1,1887.3,1710.9,1901.9,1699.4,1908.2z"/>
				<path class="st12" d="M1699.7,1908L1699.7,1908c-11.3,6.3-25.6,2.2-31.9-9.2l-8.9-16.1l41.1-22.7l8.9,16.1
					C1715.2,1887.5,1711.1,1901.8,1699.7,1908z"/>
			</g>
		</g>
		<path class="st5" d="M1610.7,1667.6c0,0,4.2,89.1-14.3,93.2c0,0-30.3,15.4-50.7-26.1L1500,1803c0,0,10.2,35.4,29.3,53.7
			c0,0,55,58.5,85.2,85.6c0,0,35.5,24.6,52.1,47.8l183.8,5c0,0-28.7-132.3-27-152.6c0,0-1.6-93.4,0.6-102.8c0,0-6.8-23.7-18-28.8
			c0,0,5.4-23.4-10.4-38.3c0,0-20.4-16-32.9-21.9c0,0-15-16.3-33.1-27.3l-84.2-51.4c0,0-19.5-3-24.7,2.7
			C1620.7,1574.6,1609.4,1619.9,1610.7,1667.6z"/>
		<path class="st5" d="M1532.5,1713.4c0,0-20.5-33.4-46.4-40.1c0,0-34.1-8.5-38.3,22.6c0,0-3.3,11.3,8,36.9l17.4,35.7
			c0,0,1.2,9,16.6,25.2c0,0,19.6,24.9,21.4,38l41.5-77.1C1552.6,1754.4,1534.6,1720.6,1532.5,1713.4z"/>
		<path class="st9" d="M1854.8,1802.4l133.4,197.6h-430.8C1557.4,2000,1716.4,1931.1,1854.8,1802.4z"/>
	</g>
	<g>
		<g>
			<path class="st13" d="M771.7,1045.7l-31.7-7c14.2-64.6,6-85.6-3.4-97c-9.2-11.2-23.6-19.9-36.3-19.6l3.3-30.4
				c12.6-0.3,38.1,3,58.1,27.3C782.3,944.1,785.6,982.8,771.7,1045.7z"/>
			<circle class="st13" cx="758.3" cy="1033.8" r="20.3"/>
		</g>
		<g>
			<g>
				<polygon class="st9" points="149.8,1703.1 89.9,1617.8 389.4,1265.3 466.2,1330.5 				"/>
				
					<rect x="262" y="1260.5" transform="matrix(0.7622 0.6474 -0.6474 0.7622 1044.0991 167.5583)" class="st10" width="64" height="488.7"/>
				<path class="st12" d="M118,1709.1l-9.4-8c-7.5-6.4-8.4-17.6-2-25.1l16.1-19l36.5,31l-16.1,19
					C136.7,1714.5,125.5,1715.5,118,1709.1z"/>
			</g>
			<path class="st9" d="M467.9,1391.2l-130.4-110.7c-10.9-9.3-12.3-25.7-3-36.6l11.6-13.7c9.3-10.9,25.7-12.3,36.6-3l130.4,110.7
				c10.9,9.3,12.3,25.7,3,36.6l-11.6,13.7C495.3,1399.2,478.9,1400.5,467.9,1391.2z"/>
			<path class="st6" d="M522.8,1358.4l-139.2-142.8L751.7,804c31.4-35.1,85-39.2,121.3-9.1l22.2,18.4c38.4,31.7,42.7,88.9,9.6,126.1
				L522.8,1358.4z"/>
			<path class="st7" d="M533.4,1369.4l-139.2-142.8l368.1-411.6c31.4-35.1,85-39.2,121.3-9.1l22.2,18.4
				c38.4,31.7,42.7,88.9,9.6,126.1L533.4,1369.4z"/>
			<path class="st8" d="M532.5,1407.1l-194-171.5c-7.4-6.6-8.2-18-1.6-25.4l84.1-95.4c6.6-7.5,18.1-8.2,25.5-1.5l193.8,173.2
				c7.4,6.6,8.1,18,1.4,25.4l-83.9,93.7C551.2,1413,539.9,1413.7,532.5,1407.1z"/>
		</g>
		<g>
			<path class="st5" d="M3.3,1874.1L64.7,1759c0,0,25.4-44.9,18.4-115.8l-3.8-92.2c0,0-8.5-27.6,20-26.8c0,0,3.1-40.2,27.7-44.1
				c0,0-5.4-24.2,16.8-28.2c0,0,7-30.9,41.6-19.9l52.5,12.1c0,0-31.8,32,61.2,63.5c0,0,40,22.1,66.1-7.1c0,0-0.8-27.2,13.1-45.6
				c10.4-13.8,20.4-23.3,27.8-32.7c1-1.2-1.6-0.1,0,0c0,0,47.5,4.1,37.5,96.4c0,0-35.4,114.2-52.3,148.9c0,0-48.4,89.8-89.2,104.8
				c0,0-27.7,14.2-42.3,51.2l-61.1,173.1L3.3,1874.1z"/>
			<polygon class="st8" points="0.1,1714.1 321.2,1834.7 255.2,2000 0,2000 			"/>
		</g>
	</g>
	<g>
		<path class="st14" d="M654.1,1763c0-40.8,31-71,72.6-71c19.8,0,37.6,6.4,49.8,19.4l-6.4,6.6c-12-11.8-26.6-16.6-43-16.6
			c-35.8,0-62.8,26.4-62.8,61.6c0,35.2,27,61.6,62.8,61.6c16.4,0,31-5,43-16.8l6.4,6.6c-12.2,13-30,19.6-49.8,19.6
			C685.1,1834,654.1,1803.8,654.1,1763z"/>
		<path class="st14" d="M791.3,1780.8c0-31,22.2-53,52.2-53c30,0,52.2,22,52.2,53c0,31-22.2,53-52.2,53
			C813.5,1833.8,791.3,1811.8,791.3,1780.8z M885.5,1780.8c0-26.2-18-44-42-44s-42,17.8-42,44c0,26.2,18,44,42,44
			S885.5,1807,885.5,1780.8z"/>
		<path class="st14" d="M976.1,1727.8v9.8c-0.8,0-1.6-0.2-2.4-0.2c-23.2,0-37,15.4-37,41.2v54.4h-10v-104.4h9.6v22.8
			C942.7,1736.2,956.5,1727.8,976.1,1727.8z"/>
		<path class="st14" d="M991.3,1780.8c0-31,22.2-53,52.2-53s52.2,22,52.2,53c0,31-22.2,53-52.2,53S991.3,1811.8,991.3,1780.8z
			 M1085.5,1780.8c0-26.2-18-44-42-44s-42,17.8-42,44c0,26.2,18,44,42,44S1085.5,1807,1085.5,1780.8z"/>
		<path class="st14" d="M1220.1,1772v61h-10v-60.2c0-23.6-12.6-36-33.8-36c-24.6,0-39.6,15.8-39.6,40.6v55.6h-10v-104.4h9.6v22.6
			c7-14.6,21.6-23.4,41.4-23.4C1203.1,1727.8,1220.1,1742.8,1220.1,1772z"/>
		<path class="st14" d="M1336.7,1766.8v66.2h-9.6v-18.6c-6.6,12-19.4,19.4-37.6,19.4c-23.4,0-37.6-12-37.6-29.8
			c0-15.8,10-29.2,39-29.2h35.8v-8.4c0-19.4-10.6-29.8-31-29.8c-14.4,0-27.4,5.4-36,13.2l-5-7.2c10.4-9.2,25.6-14.8,41.8-14.8
			C1322.3,1727.8,1336.7,1741,1336.7,1766.8z M1326.7,1802.2v-19.6h-35.6c-21.6,0-29.2,9-29.2,21c0,13.6,10.6,22,29,22
			C1308.5,1825.6,1320.7,1817.2,1326.7,1802.2z"/>
	</g>
</g>
</svg>
