<?xml version="1.0" encoding="utf-8"?>
<!-- Generator: Adobe Illustrator 25.2.3, SVG Export Plug-In . SVG Version: 6.00 Build 0)  -->
<svg version="1.1" xmlns="http://www.w3.org/2000/svg" xmlns:xlink="http://www.w3.org/1999/xlink" x="0px" y="0px"
	 viewBox="0 0 2000 2000" style="enable-background:new 0 0 2000 2000;" xml:space="preserve">
<style type="text/css">
	.st0{fill:#0099B8;}
	.st1{fill:none;stroke:#B6B6B6;stroke-width:10;stroke-linecap:round;}
	.st2{fill:#DBF0F5;}
	.st3{fill:none;stroke:#FFFFFF;stroke-width:9;stroke-linecap:round;stroke-linejoin:round;stroke-miterlimit:10;}
	.st4{fill:none;stroke:#B6E2EB;stroke-width:10;}
	.st5{clip-path:url(#SVGID_2_);fill:#B6E2EB;}
	.st6{clip-path:url(#SVGID_2_);}
	.st7{fill:#BC6F69;}
	.st8{fill:#FF9782;}
	.st9{fill:#D6C0DE;}
	.st10{fill:#C2A0CE;}
	.st11{fill:#9961AE;}
	.st12{fill:#975954;}
	.st13{fill:#FFFFFF;}
	.st14{fill:#702727;}
	.st15{fill:#111326;}
	.st16{fill:#70228D;}
	.st17{clip-path:url(#SVGID_4_);fill:#B6E2EB;}
	.st18{clip-path:url(#SVGID_4_);}
	.st19{fill:#EAA8A3;}
	.st20{fill:#E2857E;}
	.st21{fill:#FCF2F0;}
	.st22{fill:#84429D;}
	.st23{fill:#71433F;}
	.st24{fill:#4B2C2A;}
	.st25{fill:#FCEBE8;}
	.st26{clip-path:url(#SVGID_6_);fill:#B6E2EB;}
	.st27{clip-path:url(#SVGID_6_);}
	.st28{fill:#F3CBC8;}
	.st29{fill:#EEB9B5;}
	.st30{fill:#E69690;}
	.st31{fill:#1E2144;}
	.st32{fill:#E66A5E;}
	.st33{fill:#AD81BE;}
	.st34{fill:none;stroke:#D6C0DE;stroke-width:9;stroke-linecap:round;stroke-linejoin:round;stroke-miterlimit:10;}
	.st35{fill:none;stroke:#0099B8;stroke-width:6.5974;stroke-linecap:round;stroke-linejoin:round;stroke-miterlimit:10;}
	.st36{fill:#0099B8;stroke:#0099B8;stroke-width:6.5974;stroke-linecap:round;stroke-linejoin:round;stroke-miterlimit:10;}
	.st37{fill:none;stroke:#D6C0DE;stroke-width:6.5974;stroke-linecap:round;stroke-linejoin:round;stroke-miterlimit:10;}
</style>
<g id="Achtergrond">
	<polygon class="st0" points="2000,2000 0,2000 0,0 1710,0 2000,290 	"/>
	<g>
		<line class="st1" x1="1762.3" y1="66.1" x2="1946.6" y2="66.1"/>
		<line class="st1" x1="1762.3" y1="107.4" x2="1946.6" y2="107.4"/>
		<line class="st1" x1="1762.3" y1="148.6" x2="1946.6" y2="148.6"/>
		<line class="st1" x1="1762.3" y1="189.9" x2="1946.6" y2="189.9"/>
		<polygon class="st2" points="2000,290 1710,290 1710,0 		"/>
	</g>
</g>
<g id="Lijnen">
	<path class="st3" d="M555.2,972.3"/>
	<path class="st3" d="M950.6,867.4"/>
	<line class="st4" x1="1001.3" y1="511" x2="1527.7" y2="1099.2"/>
	<polyline class="st4" points="1000,524.2 464.6,1085.9 1024.3,1235.9 1534.2,1108 	"/>
	<polyline class="st4" points="337,487.2 1009.1,361.3 1656.7,487.2 	"/>
	<line class="st4" x1="1013.6" y1="1136.9" x2="1013.6" y2="460.8"/>
	<path class="st4" d="M1024.3,508.3"/>
	<line class="st4" x1="460.3" y1="1085.9" x2="337" y2="487.2"/>
	<line class="st4" x1="1541.5" y1="1085.9" x2="1664.8" y2="487.2"/>
</g>
<g id="personen">
	<g>
		<defs>
			<circle id="SVGID_1_" cx="1535.4" cy="1085.9" r="267.7"/>
		</defs>
		<clipPath id="SVGID_2_">
			<use xlink:href="#SVGID_1_"  style="overflow:visible;"/>
		</clipPath>
		<circle class="st5" cx="1535.4" cy="1085.9" r="267.7"/>
		<g class="st6">
			<path class="st7" d="M1581.8,1174.7c-5.2-12.9-1.9-61.8,0.3-91.1c0.8-10.4-6.9-3.6-10.9,4c-0.2,0.1-0.3,0.2-0.5,0.3
				c-4.1-1.3-9.1,0.2-10.6,5.6c-0.2,0.7-0.4,1.5-0.6,2.2c-4.1-3-11.3-1.5-13.8,4.3c-0.5,1.1-0.9,2.3-1.4,3.4
				c-1-7.9-12.1-11.2-15.6-4.4c0-0.2,0-0.3-0.1-0.5c-0.7-5.6-6.6-7.9-11.2-6.5c-2.4-6.6-13.3-6.6-15.7,0.3c-0.9-0.4-1.8-0.6-2.7-0.7
				c0-0.9,0-1.8,0.1-2.6c0.1-0.3,0.3-0.5,0.4-0.8c0.8-2.1,0.8-3.7,0.6-5.9c-0.1-1.4-1.1-6.4-0.8-1.3c-0.6-11.4-16.6-12.7-17-0.8
				c0,1-0.1,2.1-0.1,3.1c-0.1,1-6.2,3.4-2.6,5.6c6.6,48.9,8.4,74,0,81.9c-8.1,7.6,20.5,27.9,21.3,15.9c0.1-0.8,0.1-1.6,0.2-2.4
				c1.7,0.9,3.8,1,5.7,0.6c0.1,0.3,0.3,0.6,0.4,0.9c2.4,5.1,8.2,5.8,12.1,3.2c3.3,5,10,5.6,13.5,1.9c4,4.4,10.5,2.9,13.3-1.8
				c4.1,2,10.5-0.6,12.5-5.8c0.8,0.4,1.7,0.6,2.7,0.7c4.2,4.9,13.1,5.2,14.4-2.7c0.1-0.8,1,1.1,1,1.1
				C1576.9,1182.7,1581.8,1174.7,1581.8,1174.7z"/>
			<path class="st8" d="M1717.2,1226c-21.6-18.2-46.5-24.2-72.8-30.1c-23.6-5.3-61.8-14-68.7-43.2c-2.7-11.4-15.2,8.9-14.5,10.8
				c-4.2-3.1-8.5-3.8-12.4-2.7c-5.7-1.2-11.1,0.8-14.6,5c-0.5-1-1-1.9-1.6-2.9c-5.4-8.4-17.7-12.3-25-3.4c-0.5,0.6-0.9,1.1-1.4,1.6
				c0.4-1.2-12.6-19.8-15.3-8.5c-6.9,29.2-45.1,37.9-68.7,43.2c-26.3,5.9-51.2,11.8-72.8,30.1c-47.1,39.7-42.4,106.9-31.9,163.3
				c1.3,6.9,7.8,7.9,12.2,5c4.6,13.1,23.7,15,29.1,2.3c4.5,0.1,9.1-1.5,12.3-5c3.6,4.5,9.3,6.8,16,5.4c3.3-0.7,5.9-2,8.2-3.9
				c0,2.5,0.2,5.1,0.6,7.7c2,14.9,22.9,16,29.1,4.1c2.4-4.6,4.4-9.5,6.1-14.5c6.9,13,24,12.2,29.3-3c0.7-2,1.3-3.9,2-5.9
				c1.8,1.6,3.9,2.9,6,3.6c7.3,2.2,13.7-1.8,18-7.8c1.2-1.8,2.4-3.7,3.4-5.6c4.6,10.1,18.7,13.6,26,4.8c1.5,1.3,3.2,2.3,5.3,3
				c17.5,5.8,35.7,3.5,53.5,1.1c2.7-0.4,5.4-0.8,8.1-1.2c3.5,6.3,11.7,9,18,7.5c6.5-1.6,11.4-5.9,15.1-11.7
				c2.1,4.7,4.9,8.7,8.9,11.5c7.6,5.2,17.5,2.8,23-4.4c2,5.9,5,11.1,9.3,15.2c7.8,7.2,18.4,5.9,24-2.2c5.3,8.1,17.2,8.4,24.2,1.8
				c2.2-2,3.8-4.3,5-6.8c0.3,0.1,0.7,0.2,1,0.3c0.1,0.1,0.2,0.2,0.3,0.3c6.4,5.8,16.2,6.7,22.2,0.5c3.5,6.2,13.7,7.1,15.3-1.8
				C1759.5,1332.9,1764.3,1265.7,1717.2,1226z"/>
			<path class="st9" d="M1750.3,1382.3c0.2-1.1,0.4-2.2,0.6-3.4c0.1-0.8,0.3-1.7,0.4-2.5c0.1-0.9,0.3-1.8,0.4-2.8
				c0.2-1,0.3-1.9,0.4-2.9c0.1-0.8,0.2-1.6,0.4-2.4c0.2-1.1,0.3-2.1,0.4-3.2c0.1-0.7,0.2-1.4,0.3-2.1c0.1-1.1,0.3-2.2,0.4-3.4
				c0.1-0.7,0.2-1.3,0.2-2c0.1-1.2,0.3-2.4,0.4-3.6c0.1-0.6,0.1-1.2,0.2-1.8c0.1-1.2,0.2-2.5,0.4-3.7c0-0.5,0.1-1.1,0.1-1.6
				c0.1-1.3,0.2-2.6,0.3-3.9c0-0.5,0.1-0.9,0.1-1.4c0.1-1.4,0.2-2.7,0.2-4.1c0-0.4,0-0.8,0.1-1.2c0.1-1.4,0.1-2.8,0.2-4.2
				c0-0.4,0-0.7,0-1.1c0-1.5,0.1-2.9,0.1-4.4c0-0.3,0-0.6,0-0.9c0-1.5,0-3,0-4.6c0-0.2,0-0.4,0-0.6c0-1.6-0.1-3.2-0.1-4.8
				c0-0.1,0-0.2,0-0.3c-1.3-31.4-9.8-61.4-32.5-83.9l0,0c-2-1.9-4-3.9-6.2-5.7c-3.8-3.2-7.8-6.1-11.8-8.6c-0.8-0.5-1.6-1-2.4-1.4
				c-0.6-0.3-1.1-0.7-1.7-1c-0.9-0.5-1.8-1-2.6-1.4c-0.5-0.3-0.9-0.5-1.4-0.7c-1-0.5-2-1-3-1.5c-0.4-0.2-0.7-0.3-1.1-0.5
				c-1.1-0.5-2.2-1-3.4-1.5c-14.4-6.2-29.6-9.8-45.4-13.3c-23.6-5.3-61.8-14-68.7-43.2c-2.7-11.4-15.2,8.9-14.5,10.8
				c-4.2-3.1-8.5-3.8-12.4-2.7c-5.7-1.2-11.1,0.8-14.6,5c-0.5-1-1-1.9-1.6-2.9c-2.7-4.2-7.1-7.3-11.8-8.2c-0.6,0-1.2,0-1.7,0
				c0-0.1-0.1-0.2-0.1-0.3c-4.1-0.3-8.2,1.1-11.4,5c-0.5,0.6-0.9,1.1-1.4,1.6c0.4-1.2-12.6-19.8-15.3-8.5
				c-6.9,29.2-45.1,37.9-68.7,43.2c-23.1,5.2-45.1,10.4-64.8,24v0c-1.3,0.9-2.7,1.9-4,2.9c-1.3,1-2.6,2.1-4,3.2
				c-4.3,3.6-8.1,7.4-11.5,11.4c-0.4,0.5-0.8,1-1.2,1.5c-6,7.3-10.8,15.2-14.5,23.6c-0.8,1.9-1.6,3.8-2.4,5.7
				c-0.5,1.2-0.9,2.4-1.3,3.6c-0.8,2.3-1.5,4.6-2.2,7c-3,10.8-4.7,22.2-5.4,33.8c-0.2,3.5-0.3,7.1-0.3,10.7c0,0,0,0.1,0,0.1
				c-0.1,16.6,1.6,33.5,4.2,49.9c0.8,5.5,1.8,10.8,2.8,16.1c1.1,6.2,6.4,7.6,10.7,5.8c0.5-0.2,1-0.5,1.5-0.8v0l0,0
				c2.6,7.3,9.8,11.2,16.5,10.8c5.2-0.3,10.2-3,12.6-8.6c2,0.1,3.9-0.2,5.8-0.8c1.2-0.4,2.3-0.9,3.4-1.6c0.5-0.3,1-0.6,1.4-1
				c0.6-0.5,1.2-1,1.7-1.6c1.9,2.3,4.4,4.1,7.3,5c2.6,0.8,5.5,1,8.7,0.4c1.6-0.3,3.1-0.8,4.5-1.5c0.2-0.1,0.3-0.2,0.4-0.2
				c1.2-0.6,2.3-1.3,3.3-2.2c0,2.5,0.2,5.1,0.6,7.7c0.5,3.7,2.2,6.6,4.5,8.6c2.2,1.9,4.9,3,7.8,3.4c0.3,0,0.6,0.1,0.9,0.1
				c6.2,0.6,12.9-2.1,15.9-8c2.4-4.6,4.4-9.5,6.2-14.5l0,0l0,0c0.2,0.3,0.4,0.6,0.5,0.9c0.7,1.3,1.6,2.4,2.5,3.4
				c0.6,0.6,1.2,1.1,1.8,1.6c2.4,1.9,5.2,2.9,8,3.2c0.1,0,0.2,0,0.3,0c6.5,0.5,13.2-3.5,16.3-12c0.7-2,1.3-3.9,2-5.9
				c0.1,0.1,0.3,0.2,0.4,0.3c1.7,1.5,3.7,2.6,5.7,3.2c1.4,0.4,2.7,0.6,4,0.6c0.6,0,1.1,0,1.6-0.1c1.6-0.2,3.1-0.6,4.5-1.3
				c0.1,0,0.1-0.1,0.1-0.1c0.5-0.3,1.1-0.6,1.6-0.9c0.8-0.5,1.5-1.1,2.2-1.7c0.4-0.4,0.9-0.8,1.3-1.2c0.3-0.4,0.7-0.7,1-1.1
				c0.6-0.7,1.1-1.3,1.6-2.1c0.6-0.9,1.2-1.8,1.8-2.8s1.1-1.9,1.6-2.9l0,0v0c2.9,6.3,9.4,10,15.8,9.8c3.8-0.1,7.5-1.7,10.2-5
				c1.1,0.9,2.4,1.8,3.8,2.4c0.5,0.2,1,0.4,1.5,0.6c1.1,0.4,2.2,0.7,3.3,1c16.5,4.5,33.5,2.4,50.2,0.2c2.7-0.4,5.4-0.8,8.1-1.2
				c3.1,5.5,9.7,8.2,15.6,7.8c0.8-0.1,1.7-0.2,2.4-0.4c4.5-1.1,8.2-3.5,11.3-6.8c0.5-0.6,1-1.1,1.5-1.7c0.8-1,1.6-2.1,2.3-3.2l0,0v0
				c2.1,4.7,4.9,8.7,8.9,11.5c2.9,2,6,2.8,9.2,2.8c5.2-0.1,10.4-2.7,13.8-7.2l0,0v0c0.5,1.3,1,2.6,1.5,3.8c1.9,4.3,4.4,8.2,7.8,11.3
				c2.1,1.9,4.4,3.2,6.7,4c6.4,2,13.2-0.3,17.3-6.2v0v0c0.5,0.8,1.1,1.4,1.7,2c3,3.1,7.2,4.5,11.5,4.4c0.1,0,0.1,0,0.2,0
				c3.9-0.2,7.9-1.7,10.9-4.6c0.5-0.5,1-1,1.5-1.6c1.4-1.6,2.5-3.4,3.4-5.2h0v0c0.3,0.1,0.7,0.2,1,0.3c0.1,0.1,0.2,0.2,0.3,0.3
				c5.4,4.9,13.1,6.2,19,2.9c1.1-0.6,2.2-1.4,3.2-2.4l0,0v0c2.6,4.6,9,6.3,12.7,3.1c0.8-0.7,1.4-1.6,1.9-2.8
				c0.3-0.6,0.5-1.3,0.7-2.1c0.3-1.7,0.6-3.5,0.9-5.2C1750.1,1383.6,1750.2,1382.9,1750.3,1382.3z"/>
			<path class="st9" d="M1501.1,1196c0.1-0.8,0.1-1.6,0.2-2.4c1.7,0.9,3.8,1,5.7,0.6c0.1,0.3,0.3,0.6,0.4,0.9
				c2.4,5.1,8.2,5.8,12.1,3.2c3.3,5,10,5.6,13.5,1.9c4,4.4,10.5,2.9,13.3-1.8c4.1,2,10.5-0.6,12.5-5.8c0.8,0.4,1.7,0.6,2.7,0.7
				c4.2,4.9,13.1,5.2,14.4-2.7c0.1-0.8,1,1.1,1,1.1c0,0,5-8,5-8c-2.6-6.3-3.1-21.4-2.6-38.5c-15.5,1.7-31,3.4-46.8,3.2
				c-15.9-0.3-31.7-1.4-47.5-2.9c1.2,18.8-7.7,27.6-12.8,32.3C1464.2,1185.4,1500.2,1208,1501.1,1196z"/>
			<path class="st9" d="M1751,1377.4c0-0.3,0.1-0.6,0.1-0.9c0.1-0.9,0.3-1.8,0.4-2.8c0.2-1,0.3-1.9,0.4-2.9c0.1-0.8,0.2-1.6,0.4-2.4
				c0.2-1.1,0.3-2.1,0.4-3.2c0.1-0.7,0.2-1.4,0.3-2.1c0.1-1.1,0.3-2.2,0.4-3.4c0.1-0.7,0.2-1.3,0.2-2c0.1-1.2,0.3-2.4,0.4-3.6
				c0.1-0.6,0.1-1.2,0.2-1.8c0.1-1.2,0.2-2.5,0.4-3.7c0-0.5,0.1-1.1,0.1-1.6c0.1-1.3,0.2-2.6,0.3-3.9c0-0.5,0.1-0.9,0.1-1.4
				c0.1-1.4,0.2-2.7,0.2-4.1c0-0.4,0-0.8,0.1-1.2c0.1-1.4,0.1-2.8,0.2-4.2c0-0.4,0-0.7,0-1.1c0-1.5,0.1-2.9,0.1-4.4
				c0-0.3,0-0.6,0-0.9c0-1.5,0-3,0-4.6c0-0.2,0-0.4,0-0.6c0-1.6-0.1-3.2-0.1-4.8c0-0.1,0-0.2,0-0.3c-1.3-31.4-9.8-61.4-32.5-83.9
				c-2-1.9-4-3.9-6.2-5.7c-3.8-3.2-7.8-6.1-11.8-8.6c-0.8-0.5-1.6-1-2.4-1.4c-0.6-0.3-1.1-0.7-1.7-1c-0.9-0.5-1.8-1-2.6-1.4
				c-0.5-0.3-0.9-0.5-1.4-0.7c-1-0.5-2-1-3-1.5c-0.4-0.2-0.7-0.3-1.1-0.5c-1.1-0.5-2.2-1-3.4-1.5c-14.4-6.2-29.6-9.8-45.4-13.3
				c-14.4-3.2-34.2-7.7-49-17.3c-17.1,14.7-38.6,24.5-61.3,25.3c-24,0.8-47.2-8.3-63.9-24.7c-14.7,9.2-34.1,13.6-48.2,16.8
				c-23.1,5.2-45.1,10.4-64.8,24v0c-1.3,0.9-2.7,1.9-4,2.9c-1.3,1-2.6,2.1-4,3.2c-4.3,3.6-8.1,7.4-11.5,11.4c-0.4,0.5-0.8,1-1.2,1.5
				c-6,7.3-10.8,15.2-14.5,23.6c-0.8,1.9-1.6,3.8-2.4,5.7c-0.5,1.2-0.9,2.4-1.3,3.6c-0.8,2.3-1.5,4.6-2.2,7
				c-3,10.8-4.7,22.2-5.4,33.8c-0.2,3.5-0.3,7.1-0.3,10.7c0,0,0,0.1,0,0.1c-0.1,12.3,0.9,24.7,2.4,36.9c1.1-0.1,2.2-0.3,3.3-0.7
				c1.5,11.2,19.1,17.4,27.9,5.5c1.1-1.5,2.2-3,3.3-4.5c-1.6,12.4,12.9,21.7,22.6,14.7c0.6,6.6,6,10.8,12.3,11.6
				c0,4.1,2,7.7,4.9,10.2c1.6-0.3,3-0.8,4.4-1.5c0.2-0.1,0.3-0.2,0.4-0.2c1.2-0.6,2.3-1.3,3.3-2.2c0,2.5,0.2,5.1,0.6,7.7
				c0,0.1,0,0.1,0,0.2c4.1,0.5,8.4-0.6,11.7-4.1c6.7-7,13.1-14.1,19.4-21.5c4.1,1.7,9,1.3,13.3-2.2c2.1,4.4,6.5,8,11.6,9.1
				c1.1,3.7,3.5,6.9,6.7,9c0.7-1.2,1.4-2.5,1.9-4c0.7-2,1.3-3.9,2-5.9c0.1,0.1,0.3,0.2,0.4,0.3c1.7,1.5,3.7,2.6,5.7,3.2
				c1.4,0.4,2.7,0.6,4,0.6c0.6,0,1.1,0,1.6-0.1c1.6-0.2,3.1-0.6,4.5-1.3c0.1,0,0.1-0.1,0.1-0.1c0.5-0.3,1.1-0.6,1.6-0.9
				c0.8-0.5,1.5-1.1,2.2-1.7c0.4-0.4,0.9-0.8,1.3-1.2c0.3-0.4,0.7-0.7,1-1.1c0.6-0.7,1.1-1.3,1.6-2.1c0.6-0.9,1.2-1.8,1.8-2.8
				c0.6-0.9,1.1-1.9,1.6-2.9l0,0c2.9,6.3,9.4,10,15.8,9.8c3.8-0.1,7.5-1.7,10.2-5c1.1,0.9,2.4,1.8,3.8,2.4c0.5,0.2,1,0.4,1.5,0.6
				c1.1,0.4,2.2,0.7,3.3,1c16.5,4.5,33.5,2.4,50.2,0.2c2.7-0.4,5.4-0.8,8.1-1.2c3.1,5.5,9.7,8.2,15.6,7.8c0.8-0.1,1.7-0.2,2.4-0.4
				c4.5-1.1,8.2-3.5,11.3-6.8c0.5-0.6,1-1.1,1.5-1.7c0.8-1,1.6-2.1,2.3-3.2l0,0v0c2.1,4.7,4.9,8.7,8.9,11.5c2.9,2,6,2.8,9.2,2.8
				c5.2-0.1,10.4-2.7,13.8-7.2h0l0,0c0.5,1.3,1,2.6,1.5,3.8c1.9,4.3,4.4,8.2,7.8,11.3c2.1,1.9,4.4,3.2,6.7,4
				c1.8,0.6,3.6,0.8,5.3,0.7c1.9-0.5,3.8-1,5.7-1.5c2.4-1.2,4.5-2.9,6.2-5.4c0.5,0.8,1.1,1.4,1.7,2c0.3,0.3,0.7,0.6,1,0.9
				c8.8-2.4,17.6-5,26.3-7.6c0.1-0.1,0.1-0.2,0.2-0.3h0v0c0.2,0,0.3,0.1,0.5,0.1c9.8-3,19.6-6.1,29.4-9.2
				C1743.7,1379.9,1747.3,1378.6,1751,1377.4z"/>
			<path class="st10" d="M1421.9,1196.1c-23.1,5.2-45.1,10.4-64.8,24v0c-1.3,0.9-2.7,1.9-4,2.9c-1.3,1-2.6,2.1-4,3.2
				c-4.3,3.6-8.1,7.4-11.5,11.4c-0.4,0.5-0.8,1-1.2,1.5c-6,7.3-10.8,15.2-14.5,23.6c-0.8,1.9-1.6,3.8-2.4,5.7
				c-0.5,1.2-0.9,2.4-1.3,3.6c-0.8,2.3-1.5,4.6-2.2,7c-3,10.8-4.7,22.2-5.4,33.8c-0.2,3.5-0.3,7.1-0.3,10.7c0,0,0,0.1,0,0.1
				c-0.1,12.3,0.9,24.7,2.4,36.9c1.1-0.1,2.2-0.3,3.3-0.7c1.5,11.2,19.1,17.4,27.9,5.5c1.1-1.5,2.2-3,3.3-4.5
				c-1.6,12.4,12.9,21.7,22.6,14.7c0.6,6.6,6,10.8,12.3,11.6c0,4.1,2,7.7,4.9,10.2c1.6-0.3,3-0.8,4.4-1.5c0.2-0.1,0.3-0.2,0.4-0.2
				c1.2-0.6,2.3-1.3,3.3-2.2c0,2.5,0.2,5.1,0.6,7.7c0,0.1,0,0.1,0,0.2c4.1,0.5,8.4-0.6,11.7-4.1c6.7-7,13.1-14.1,19.4-21.5
				c4.1,1.7,9,1.3,13.3-2.2c2.1,4.4,6.5,8,11.6,9.1c1.1,3.7,3.5,6.9,6.7,9c0.7-1.2,1.4-2.5,1.9-4c0.7-2,1.3-3.9,2-5.9
				c0.1,0.1,0.3,0.2,0.4,0.3c0.8,0.7,1.7,1.3,2.6,1.8c8.5-29.1,7.9-61.4,8.7-91c0.9-37.3-3.2-113-3.7-113.5
				C1455.4,1188.5,1436.1,1192.9,1421.9,1196.1z"/>
			<path class="st10" d="M1644.2,1196.1c23.1,5.2,45.1,10.4,64.8,24v0c1.3,0.9,2.7,1.9,4,2.9c1.3,1,2.6,2.1,4,3.2
				c4.3,3.6,8.1,7.4,11.5,11.4c0.4,0.5,0.8,1,1.2,1.5c6,7.3,10.8,15.2,14.5,23.6c0.8,1.9,1.6,3.8,2.4,5.7c0.5,1.2,0.9,2.4,1.3,3.6
				c0.8,2.3,1.5,4.6,2.2,7c3,10.8,4.7,22.2,5.4,33.8c0.2,3.5,0.3,7.1,0.3,10.7c0,0,0,0.1,0,0.1c0.1,12.3-0.9,24.7-2.4,36.9
				c-1.1-0.1-2.2-0.3-3.3-0.7c-1.5,11.2-19.1,17.4-27.9,5.5c-1.1-1.5-2.2-3-3.3-4.5c1.6,12.4-12.9,21.7-22.6,14.7
				c-0.6,6.6-6,10.8-12.3,11.6c0,4.1-2,7.7-4.9,10.2c-1.6-0.3-3-0.8-4.4-1.5c-0.2-0.1-0.3-0.2-0.4-0.2c-1.2-0.6-2.3-1.3-3.3-2.2
				c0,2.5-0.2,5.1-0.6,7.7c0,0.1,0,0.1,0,0.2c-4.1,0.5-8.4-0.6-11.7-4.1c-6.7-7-13.1-14.1-19.4-21.5c-4.1,1.7-9,1.3-13.3-2.2
				c-2.1,4.4-6.5,8-11.6,9.1c-1.1,3.7-3.5,6.9-6.7,9c-0.7-1.2-1.4-2.5-1.9-4c-0.7-2-1.3-3.9-2-5.9c-0.1,0.1-0.3,0.2-0.4,0.3
				c-0.8,0.7-1.7,1.3-2.6,1.8c-8.5-29.1-7.9-61.4-8.7-91c-0.9-37.3,3.2-113,3.7-113.5C1610.8,1188.5,1630.1,1192.9,1644.2,1196.1z"
				/>
			<path class="st11" d="M1421.9,1196.1c-3.2,0.7-6.4,1.4-9.6,2.2c-3.5,9.1-7,18.3-10.5,27.4c-0.8,2.1,0.1,5.2,1.8,6.6
				c7.7,6.3,16,12.5,23.9,19.1c-9,6.9-17.9,14-26.7,21.2c-4.2,3.5-11.2,7.3-12.8,12.8c-1.8,6.4,3.9,16.5,6,22.4
				c8.8,25.6,17.1,51.4,24,77.6c2.9-3.3,5.9-6.6,8.7-10c4.1,1.7,9,1.3,13.3-2.2c2.1,4.4,6.5,8,11.6,9.1c1.1,3.7,3.5,6.9,6.7,9
				c0.7-1.2,1.4-2.5,1.9-4c0.7-2,1.3-3.9,2-5.9c0.1,0.1,0.3,0.2,0.4,0.3c0.8,0.7,1.7,1.3,2.6,1.8c8.5-29.1,7.9-61.4,8.7-91
				c0.9-37.3-3.2-113-3.7-113.5C1455.3,1188.5,1436,1192.9,1421.9,1196.1z"/>
			<path class="st11" d="M1644.2,1196.1c3.2,0.7,6.4,1.4,9.6,2.2c3.5,9.1,7,18.3,10.5,27.4c0.8,2.1-0.1,5.2-1.8,6.6
				c-7.7,6.3-16,12.5-23.9,19.1c9,6.9,17.9,14,26.7,21.2c4.2,3.5,11.2,7.3,12.8,12.8c1.8,6.4-3.9,16.5-6,22.4
				c-8.8,25.6-17.1,51.4-24,77.6c-2.9-3.3-5.9-6.6-8.7-10c-4.1,1.7-9,1.3-13.3-2.2c-2.1,4.4-6.5,8-11.6,9.1c-1.1,3.7-3.5,6.9-6.7,9
				c-0.7-1.2-1.4-2.5-1.9-4c-0.7-2-1.3-3.9-2-5.9c-0.1,0.1-0.3,0.2-0.4,0.3c-0.8,0.7-1.7,1.3-2.6,1.8c-8.5-29.1-7.9-61.4-8.7-91
				c-0.9-37.3,3.2-113,3.7-113.5C1610.8,1188.5,1630.1,1192.9,1644.2,1196.1z"/>
			<path class="st12" d="M1578.6,1102c-11.5,0.7-22.8,2.4-34.2,4.4c-3.1,0.5-6.7,0.9-10.2,1.6c-0.6-1.3-1.8-2.2-3.8-2.2
				c-14.3-0.2-28.6,0.1-43,0.8c-1.1,0.1-2,0.4-2.7,1c-1-0.1-1.9-0.1-2.8-0.1c1.4,11.5,2.4,21.3,2.9,29.5c12.7,6.2,26.8,8.8,41.4,7.2
				c11.3-1.3,22.1-5,33.2-7.2c6.5-1.3,13.1-2.2,19.7-2.7c0.3-10.4,0.9-21.4,1.5-31.7C1580.2,1102.2,1579.4,1102,1578.6,1102z"/>
			<path class="st7" d="M1605,983.5c-0.7-9.5,1.1-53.8-70.5-53.6c-71.1,0.1-76.9,38.9-77.9,61.6l-4.4,42.2c0.2,15,1.4,34.8,7.7,48.5
				c14.6,32.2,57.2,59.3,64.5,61.3c5,1.4,6.4,1.3,9.7,0.2c15.2-5.5,54.4-36.2,62.9-52.1c11.5-21.6,17.9-46.3,22.1-72.1
				C1614.7,1018.5,1607.8,1019.6,1605,983.5z"/>
			<path class="st13" d="M1555.1,1083.9c-7.3,1.4-18,1.1-25.7,1c-8.1-0.1-15.8-1.3-23.9-2.4c-0.6-0.1-1.1-0.1-1.4,0.3
				c-0.7,0.7-1.1,2.2-0.3,3.2c6.4,7.9,15.7,13,23.9,13.2c10.4,0.2,19.5-3.1,28.6-11.6c0.4-0.3,0.5-0.8,0.6-1.2
				C1557.3,1085.1,1556.3,1083.6,1555.1,1083.9z"/>
			<path class="st14" d="M1540.1,1064.3c-5.2,0.6-11.4,0.2-15-4.2c-3.4-4.3-1.3-10.1-0.3-14.9c0.5-2.8-3.8-3.4-4.3-0.6
				c-1.3,6.8-3.3,13.4,1.9,19c4.7,5.1,11.8,5.8,18.2,5.1C1543.5,1068.3,1542.9,1064,1540.1,1064.3z"/>
			<path class="st7" d="M1625.8,1026.6c-5.1-11.6-16.1-7.6-20.1,2.2c-0.8,2-0.1,3.6,1.1,4.6c-2.5,6.8-4.4,14.1-6.1,21
				c-0.2,0.7-0.4,1.5-0.6,2.4c0,0,0,0,0,0c-1.7,1.9-1.5,4.2-0.4,5.9c0.3,1.7,1,3.3,2.6,4.4c4.2,2.9,9.9-0.7,13.2-3.3
				C1625,1056.2,1630.9,1038.2,1625.8,1026.6z"/>
			<path class="st7" d="M1442.4,1024.3c5.1-11.6,16.1-7.6,20.1,2.2c0.8,2,0.1,3.6-1.1,4.6c2.5,6.8,4.4,14.1,6.1,21
				c0.2,0.7,0.4,1.5,0.6,2.4c0,0,0,0,0,0c1.7,1.9,1.5,4.2,0.4,5.9c-0.3,1.7-1,3.3-2.6,4.4c-4.2,2.9-9.9-0.7-13.2-3.3
				C1443.1,1053.9,1437.3,1035.9,1442.4,1024.3z"/>
			<path class="st15" d="M1577.7,1029.1c-0.2,4.4-2.6,7.9-5.4,7.7c-2.8-0.1-4.8-3.8-4.6-8.2c0.2-4.4,2.6-7.9,5.4-7.7
				C1575.9,1021,1578,1024.7,1577.7,1029.1z"/>
			<path class="st15" d="M1497.9,1027.3c-0.2,4.4-2.6,7.9-5.4,7.7c-2.8-0.1-4.8-3.8-4.6-8.2c0.2-4.4,2.6-7.9,5.4-7.7
				C1496.1,1019.2,1498.2,1022.9,1497.9,1027.3z"/>
			<path class="st16" d="M1556.7,990.6c12.1-1,14.1-1.2,26.4-0.3c9.3,0.7,18.7,8,19.8,13.6c0.6,2.8-15.2-3.1-34.5-2.9
				c-9.4,0.1-14.8,0-16.1-4.4C1551.5,994,1552.4,991,1556.7,990.6z"/>
			<path class="st16" d="M1510.6,989.9c-12-1.8-14-2.1-26.3-2.1c-9.3,0.1-19.1,6.8-20.6,12.3c-0.8,2.8,15.3-2.1,34.6-0.7
				c9.3,0.7,14.7,1,16.4-3.3C1515.5,993.6,1514.8,990.5,1510.6,989.9z"/>
			<path class="st16" d="M1616.5,941.4c-15.8-20.7-37-32.2-62.3-34.9c-27-2.9-59.7,1.4-82.4,17.3c-13.2,9.2-25.3,19.3-29.9,38.9
				c-2.9,12-6.3,30.9,1.9,56.9c4,12.5,28.8-20.3,25.7-33.1c-3.2-13.4-2.5-25.4,3.7-35.1c2.8,3.5,7.5,5.1,12.3,1.8
				c23.1-15.9,53.2-20.5,78.7-7.4c27.9,14.3,37.2,40.4,40.3,69.9c0.9,8.8,15.7,16,19.1,5.2C1632.4,992,1629.2,958.2,1616.5,941.4z"
				/>
		</g>
	</g>
	<g>
		<defs>
			<circle id="SVGID_3_" cx="1014.5" cy="377.3" r="267.7"/>
		</defs>
		<clipPath id="SVGID_4_">
			<use xlink:href="#SVGID_3_"  style="overflow:visible;"/>
		</clipPath>
		<circle class="st17" cx="1014.5" cy="377.3" r="267.7"/>
		<g class="st18">
			<path class="st10" d="M1092.4,369.2c-3.9-7.5-15.2-0.9-11.3,6.6c1.4,2.8,2.8,5.6,4,8.3c-1.1,0-2.2,0.2-3.2,0.7
				c-3.4-1.4-8.1-0.2-9.2,4.1c-4.4,16.2-9.4,32.2-15.1,48c-0.6,1.7-0.5,3.2,0.1,4.4c-1.5,0.7-3,1.3-4.5,1.9
				c-6.3,2.7-2.7,12.2,3.3,12.2c20.8,0.2,34.5-10.8,42.3-30C1106.7,405.6,1101.8,387.4,1092.4,369.2z"/>
			<path class="st10" d="M1010,413.3c-2.8-16.9-15.3-26-28.7-27.4c-0.1-6.6-2.4-13.1-7.9-17.5c-2.7-2.2-5.9-3.5-9.3-4
				c-1.1-2.5-2.8-4.4-4.8-6c1.1-1.7,1.9-3.6,2.6-5.7c3.5-11.7,2.4-26.1,3.2-38.2c0.5-7.6-3.5-12.5-8.8-14.6
				c-6.4-11-26.2-12.7-30.2,3.2c-1.4,5.5-2.8,10.9-5.5,15.9c-3,5.7-5.9,11-7,17.5c-2.1,12.4,4,24.4,15.2,29.6
				c-5.4,7-8.5,16.3-8.5,24.4c0,7.7,3,14.6,7.8,19.8c-1.6,4.5-2.4,9.3-2.2,14.4c0.8,14.8,10.1,28.1,23.9,33.4
				c13.1,5.1,29.1,5.1,41.1-2.9C1004.2,446.4,1012.7,429.3,1010,413.3z"/>
			<path class="st10" d="M1121.7,297.4c-2.4-4.9-5.8-9.2-9.5-13.2c-1.7-1.8-3.9-3.5-5.9-5.4c-1.4-5.8-6.5-10.7-11.9-12.6
				c-0.3-0.1-0.6-0.2-0.9-0.3c-8-2.8-18.4,3.2-20.2,11.5c-0.6,2.6-0.6,4.9-0.4,7c-2.7,1.5-5.1,3.6-6.6,6.1c-5,8.3-1.2,17.2,5.9,22.4
				c14.3,10.5,2.2,36.4-2.5,48.4c-6.3,16.2,16.4,26.3,27.4,16c14.9-13.9,27.4-30.8,29.5-51.6C1127.5,316.1,1126,306.1,1121.7,297.4z
				"/>
			<path class="st19" d="M1197.9,534.8c-19.8-18.6-43.4-25.6-68.4-32.7c-22.4-6.3-58.7-16.7-63.8-45.1c-2-11.1-17.9-7.2-16,3.8
				c0.4,2,0.9,4,1.4,5.9c-3.8-3.2-8-4-11.8-3.2c-5.4-1.5-10.7,0.2-14.3,4c-0.4-0.9-0.9-1.9-1.4-2.8c-4.8-8.4-16.4-12.7-23.8-4.6
				c-0.5,0.5-0.9,1-1.4,1.5c0.4-1.1,0.8-2.2,1.2-3.4c3.2-10.8-12.3-16.3-15.5-5.5c-8.1,27.8-45.3,34.1-68.3,38
				c-25.6,4.3-49.8,8.7-71.5,25.1c-47.3,35.7-46.3,100.5-39.1,155.3c0.9,6.7,7.1,8,11.5,5.5c3.7,12.8,22,15.6,27.8,3.7
				c4.3,0.4,8.8-0.9,12.1-4.2c3.2,4.5,8.5,7,15.1,6c3.2-0.5,5.8-1.7,8.1-3.3c-0.1,2.4,0,4.9,0.2,7.4c1.2,14.4,21.2,16.6,27.7,5.4
				c2.5-4.3,4.7-8.9,6.7-13.6c6,12.9,22.4,12.9,28.4-1.3c0.8-1.8,1.5-3.7,2.2-5.6c1.7,1.7,3.6,3,5.6,3.7c6.9,2.5,13.3-1,17.7-6.6
				c1.3-1.6,2.5-3.4,3.5-5.2c3.9,9.9,17.2,14,24.8,6c1.4,1.3,3,2.4,4.9,3.1c16.5,6.5,34.1,5.2,51.4,3.9c2.6-0.2,5.2-0.5,7.8-0.8
				c3,6.2,10.8,9.2,16.9,8.1c6.4-1.2,11.3-5.1,15.2-10.5c1.7,4.7,4.3,8.7,8,11.5c7.1,5.4,16.6,3.6,22.3-3c1.6,5.8,4.2,11,8.2,15.1
				c7.1,7.3,17.4,6.6,23.2-0.9c4.7,8,16.1,8.9,23.2,3c2.2-1.8,3.8-4,5.1-6.3c0.3,0.1,0.6,0.2,1,0.3c0.1,0.1,0.2,0.2,0.3,0.3
				c5.8,5.9,15.2,7.3,21.3,1.6c3.1,6.1,12.8,7.6,14.8-0.9C1233.1,639.7,1241.1,575.4,1197.9,534.8z"/>
			<path class="st19" d="M1076.1,479.8c-5.4-12.4-2.1-38.2,0-66.4c0.8-10-7.1-24.8-11.2-17.5c-0.2,0.1-0.3,0.2-0.5,0.3
				c-4.2-1.3-9.4,0.2-10.9,5.4c-0.2,0.7-0.4,1.4-0.6,2.2c-4.2-2.9-11.6-1.5-14.1,4.1c-0.5,1.1-0.9,2.2-1.4,3.3
				c-1.1-7.6-12.5-10.8-16.1-4.2c0-0.2,0-0.3-0.1-0.5c-0.7-5.4-6.8-7.6-11.5-6.3c-2.4-6.4-13.7-6.4-16.1,0.2
				c-0.9-0.4-1.9-0.6-2.8-0.7c0-0.8,0-1.7,0.1-2.5c0.1-0.3,0.3-0.5,0.4-0.8c0.8-2,0.8-3.5,0.6-5.7c-0.1-1.3-1.1-6.2-0.8-1.2
				c-0.7-11-17.1-12.3-17.5-0.8c0,1,0,2-0.1,3c-0.1,0.9,3.8,4.3,3.9,5.2c6.9,47.1,2.2,71.5-6.4,79c-8.3,7.3,21.1,26.9,22,15.4
				c0.1-0.8,0.1-1.5,0.2-2.3c1.8,0.8,3.9,1,5.9,0.6c0.1,0.3,0.3,0.6,0.4,0.9c2.5,4.9,8.5,5.6,12.5,3.1c3.4,4.8,10.2,5.4,13.9,1.8
				c4.1,4.2,10.8,2.8,13.7-1.7c4.3,2,10.8-0.6,12.9-5.6c0.9,0.4,1.8,0.6,2.7,0.7c4.3,4.7,13.4,5,14.8-2.6c0.1-0.8,1.1,1.1,1.1,1.1
				C1071,487.4,1076.1,479.8,1076.1,479.8z"/>
			<path class="st20" d="M1076.2,411.6c0.7-6.9,3.3-28.4,0-30.1c-6.5,5.6-17.5,25.3-25.6,29.5c-8.7,4.6-18.7,6-28.4,6.7
				c-12.2,0.9-20.7-0.5-31.4-6.3c-3.7-2-7.6-4.2-11.7-2.5c2.4,21.1,2.2,36.9,0.2,48c7.3,3.1,14.7,5.9,22.7,4.3
				c5.5-1.1,9-4.3,13.5-7.3c6.7-4.5,13.3-2.7,20.8-3C1059,450.1,1068.2,430.2,1076.2,411.6z"/>
			<path class="st19" d="M1100.5,264.4c-3.2-15.4-12.3-30.3-22.9-39.2c-22.2-18.6-58.2-17.1-81,0c-11.1,8.3-58.4,6-60.6,19.3
				c-1.8,10.8-9.9,40.6-6.8,55.8l12.8,50.4c2.8,14.1,18.6,49.4,44.3,67.9c12.2,8.8,32.6,18.2,39.9,18.9c4.9,0.5,9.7-0.2,12.6-1.9
				c13.5-7.9,44-39.8,49.2-56.3c10.6-33.1,11.3-73.1,7.7-107.2C1095.2,268.7,1102.4,266.1,1100.5,264.4z"/>
			<path class="st10" d="M1104.6,300.9c3.9-29.6-2.2-61.1-21.2-86.4c-18.8-25-48.4-31.9-77-28.7c-27.4,3-78.7,15.9-88.2,69.8
				c-3.9,22.6-1.3,48.4,5,61.4c4.9,10,14.3,21.1,12.3,9.9c-5-27.7-4.9-51,4.8-62c14.6-16.5,49.2-26.3,71.1-29.4
				c17.3-2.5,36.1-2.5,51.5,5.7c20.4,10.8,22.8,37.1,24,59.7c0.5,9.2,15.8,12.6,17.2,2.3C1104.4,302.5,1104.5,301.7,1104.6,300.9
				L1104.6,300.9C1104.6,300.9,1104.6,300.9,1104.6,300.9z"/>
			<path class="st7" d="M1048.3,380.8c-6.6,2.8-15.1,4.8-22.4,6c-7.7,1.3-17.3,1.9-25.1,2.2c-0.6,0-1.1,0.1-1.3,0.5
				c-0.5,0.9-0.6,2.5,0.3,3.3c16.9,15.8,37.2,11,50-7.8c0.3-0.4,0.3-0.9,0.4-1.3C1050.2,382.3,1049.5,380.3,1048.3,380.8z"/>
			<path class="st19" d="M1107.7,313.2c-6.8-10.1-16.6-4.3-18.6,5.5c-0.4,2,0.5,3.5,1.9,4.2c-1.2,6.9-1.7,14.2-2.2,21
				c0,0.7-0.1,1.5-0.1,2.3c0,0,0,0,0,0c-1.3,2.1-0.7,4.3,0.6,5.7c0.6,1.6,1.5,3,3.3,3.7c4.5,2,9.3-2.3,11.9-5.4
				C1112.1,341.3,1114.5,323.3,1107.7,313.2z"/>
			<path class="st19" d="M956.1,354.2c0.7-1.6,0.6-3.6-1.2-5.1c-5.3-4.3-11.5-10.9-19-8.3c-7,2.4-8.5,10.4-6.8,16.8
				c2.5,8.9,19.3,34.6,30.5,20.9C964.9,371.9,962,361.4,956.1,354.2z"/>
			<path class="st10" d="M1101.1,300.6c-5.8-17.2-10.4-39.5-23-53.3c-11.8-12.9-30.7-18.3-46.4-24.9c-4.2-1.8-7.1,2.6-6.6,6.3
				c-5.8-1.7-11.7-2.2-17.5-4.5c-6.6-2.5-9.4,8-2.9,10.5c4,1.5,8.4,1.2,12.5,2.4c6,1.6,11.5,4.8,16.3,8.7c8.8,7.1,15.2,16.6,21.4,26
				c9,13.7,21.9,35.8,40.8,35.7C1099.2,307.5,1102.3,304,1101.1,300.6z"/>
			<path class="st10" d="M947.6,249c-0.1,0.1-0.1,0.2-0.2,0.2c-0.9-2.2-4.7-3.1-6-0.5c-3.3,6.8-5.7,13.8-7.3,20.9
				c-4.7,16.5-7.1,33.5-7,50.9c0,2.3,2,3.3,3.7,3.1c0.1,2.1,0.2,4.2,0.3,6.3c0.2,3.8,5,4.2,6.4,0.9c4.4-9.8,7.4-21.7,8.6-34.8
				c2.1-23.5,9.3-40.5,31.1-52.3C980.9,241.8,950,245.6,947.6,249z"/>
			<path class="st21" d="M1222.2,684.4c11.6-51.7,16.5-111.2-24.3-149.6c-19.8-18.6-43.4-25.6-68.4-32.7c-12.6-3.6-29.7-8.4-43-17
				c-4,4.7-8.6,8.9-13,12c-14.6,10.2-31.8,12-49.3,11.1c-16.7-0.9-34.4-2.7-48.3-13c-6.4-4.7-11.4-10.5-15.2-17.1
				c-14.3,7.3-31.9,10.3-44.9,12.5c-25.6,4.3-49.8,8.7-71.5,25.1c-47.3,35.7-46.3,100.5-39.1,155.3c0.9,6.7,7.1,8,11.5,5.5
				c3.7,12.8,22,15.6,27.8,3.7c4.3,0.4,8.8-0.9,12.1-4.2c3.2,4.5,8.5,7,15.1,6c3.2-0.5,5.8-1.7,8.1-3.3c-0.1,2.4,0,4.9,0.2,7.4
				c0.2,2.9,1.3,5.3,2.8,7.3c7.8,0.1,15.6,0.2,23.5,0.1c0.5-0.6,1-1.3,1.4-2c2.5-4.3,4.7-8.9,6.7-13.6c6,12.9,22.4,12.9,28.4-1.3
				c0.8-1.8,1.5-3.7,2.2-5.6c1.7,1.7,3.6,3,5.6,3.7c6.9,2.5,13.3-1,17.7-6.6c1.3-1.6,2.5-3.4,3.5-5.2c3.9,9.9,17.2,14,24.8,6
				c1.4,1.3,3,2.4,4.9,3.1c16.5,6.5,34.1,5.2,51.4,3.9c2.6-0.2,5.2-0.5,7.8-0.8c3,6.2,10.8,9.2,16.9,8.1c6.4-1.2,11.3-5.1,15.2-10.5
				c1.7,4.7,4.3,8.7,8,11.5c7.1,5.4,16.6,3.6,22.3-3c0.6,2.2,1.4,4.3,2.3,6.3c20.7-0.6,41.5-1.2,62.2-1.8
				C1199.2,685.4,1210.7,685,1222.2,684.4z"/>
			<path class="st11" d="M982,303.9c-10.3,0.2-12,0.2-22.3,2c-7.8,1.4-15.1,8.6-15.7,13.6c-0.3,2.5,12.6-4,28.9-5.6
				c7.9-0.8,12.5-1.2,13.3-5.2C986.6,306.4,985.6,303.8,982,303.9z"/>
			<path class="st11" d="M1032.2,295.2c9.7-3.5,11.3-4.1,21.6-6c7.8-1.5,17.2,2.7,19.5,7.2c1.1,2.2-13.2,0.7-29,5.1
				c-7.7,2.1-12.1,3.3-14.3-0.2C1028.7,299.2,1028.7,296.5,1032.2,295.2z"/>
			<path class="st10" d="M1099.8,299.6c-1-1.3-3.3-0.5-3.7,1c-0.3,1.2-0.6,2.5-0.9,3.8c-0.7-1.1-2.2-1.1-3.1-0.4
				c-0.3-0.6-0.6-1.1-1-1.7c-0.9-1.4-2.6-1.2-3.5-0.3c-0.1-0.1-0.2-0.3-0.3-0.4c-1-1.1-2.3-0.8-3.1,0.2c-1.2-2-2.4-4-3.6-6
				c-1.4-2.4-11-3.5-9.2-1.4c5.4,6.6,11.8,14.2,14.9,19.5c1.8,3,3.9,8.6,8.4,7.6c4.3-1,4.9-6.8,5.5-10.4
				C1100.9,307.4,1102.3,302.7,1099.8,299.6z"/>
			<path class="st20" d="M1026,362c-6,1.9-12.1,1.7-13.8-5.6c-0.5-2.3-0.4-4.8-0.5-7.2c-0.1-6.6,0.4-13.2,1.3-19.8
				c0.4-2.8-3.9-3.5-4.3-0.7c-1.3,9.3-3.9,23.7,0.4,32.5c3.7,7.6,11.4,7,18.4,4.8C1030.2,365.2,1028.6,361.2,1026,362z"/>
			<path class="st22" d="M981.1,638.3c-4.4-54.2-9-108.3-16.3-162.1c-14.8,8.6-34.1,11.9-48.2,14.2c-25.6,4.3-49.8,8.7-71.5,25.1
				c-32.8,24.8-42.4,63.5-42.7,103.2c1.1,2,2.6,3.7,4.4,5.3c3.4,2.8,7.1,3.9,10.5,3.7c2.4,5.8,9,8.8,15.6,7.6
				c6.2-1.1,9.9-5,12.4-9.8c0,0.5,0,1,0.1,1.5c0.5,9.4,10.9,17,19.7,11.3c2.5-1.6,4.4-3.5,5.9-5.5c3.5,6.1,11.8,8.6,18.1,4.9
				c4.4-2.6,6.8-5.9,8.1-9.8c1.1,2.5,2.3,4.9,3.7,7.2c3.4,5.7,11.5,7.6,17.4,5.1c0,0.1,0,0.2,0.1,0.3c3,13.5,18.7,11.2,24.1,1.7
				c0.5,1.2,1.2,2.2,2,3.1c-0.2,2.1,0.2,4.4,1.1,6.6l0.3,0.7c1.7,4,7.2,6.7,11.3,6.5c0.3,0,0.6,0,0.9,0c5.7-0.3,11.2-3.9,12.7-9.6
				c0.5-1.9,0.7-3.8,0.8-5.8C975.7,645.8,981.6,644,981.1,638.3z"/>
			<path class="st22" d="M1198.9,535.2c-19.8-18.6-43.4-25.6-68.4-32.7c-14.6-4.1-35.1-10-49.1-21.4c-5.2,30.7-10.4,61.4-15.6,92
				l-8.5,50.5c-2.2,13.1-7.7,29.1,0.5,41c4.5,6.5,15.8,9.2,21.1,2.5c6.9,3.2,16.3,1.2,18-8c0.1-0.3,0.1-0.5,0.2-0.8
				c0.1,0.5,0.2,1,0.3,1.5c1.8,7.5,8.4,10.3,14.5,9.1c0.1,6.9,5.1,12.4,10.8,14c0.4-0.4,0.9-0.8,1.3-1.3c0.2,0.6,0.3,1.1,0.5,1.6
				c3.4,0.4,6.9-0.7,9.7-3.9c4.6,7.7,15.9,10,21.3,2.3c2.1,11.8,21.4,12.2,25.6,0.1c5.7,7.4,18.2,7.6,22.6-4.1
				c0.5-1.4,1-2.7,1.5-4.1c1.7-0.2,3.4-0.8,4.9-1.8c4.5-0.1,9.2-2.1,11-6.3c0.5-1,0.9-2.1,1.3-3.1l0,0c0,0,0,0,0,0
				c2.6-6.5,4.8-13.5,7-20.4c0.3-0.6,0.6-1.2,0.9-1.8C1233.9,601.3,1228.2,562.8,1198.9,535.2z"/>
			<path class="st23" d="M1059.7,319.3c0.6,4.4-1.2,8.2-3.9,8.6c-2.7,0.4-5.4-2.9-6-7.3c-0.6-4.4,1.2-8.2,3.9-8.6
				C1056.5,311.7,1059.2,315,1059.7,319.3z"/>
			<path class="st24" d="M978.4,332.5c0.6,4.4-1.2,8.2-3.9,8.6c-2.7,0.4-5.4-2.9-6-7.3c-0.6-4.4,1.2-8.2,3.9-8.6
				C975.1,324.8,977.8,328.1,978.4,332.5z"/>
			<path class="st16" d="M939.7,252.8c-7.9,12.5-9.4,27-10.2,41.4c-0.2,2.8,4.2,2.8,4.4,0c0.7-13.7,2.1-27.3,9.6-39.2
				C944.9,252.6,941.2,250.4,939.7,252.8z"/>
			<path class="st16" d="M1002.9,226.5c-6.9-3.4-14.2-5.4-21.8-6.3c-2.8-0.3-2.8,4.1,0,4.4c6.9,0.8,13.4,2.7,19.6,5.7
				C1003.2,231.5,1005.4,227.7,1002.9,226.5z"/>
			<path class="st16" d="M1087.8,239.6c-1.8-2.2-4.9,0.9-3.1,3.1c7.9,9.5,12.8,20.5,14.7,32.6c0.4,2.8,4.7,1.6,4.2-1.2
				C1101.6,261.3,1096.2,249.7,1087.8,239.6z"/>
			<path class="st16" d="M957.2,437.8c-5.2-2.8-8.6-7.8-9.2-13.8c-0.2-2.8-4.6-2.8-4.4,0c0.6,7.4,4.7,14,11.3,17.5
				C957.5,443,959.7,439.2,957.2,437.8z"/>
			<path class="st25" d="M954.6,385.8c-0.7-3.7-4.1-7.4-6.9-9.7c-0.3-0.2-0.7-0.4-1.1-0.5c-0.9-0.3-1.9-0.2-2.5,0.9
				c-1.9,3.4-3.9,8.2-3.2,12.1c0.6,3.7,6.1,3.3,8.9,3.2C953.3,391.8,955.3,389.7,954.6,385.8z"/>
			<path class="st25" d="M1109.6,358.3c-0.7-3.7-4.1-7.4-6.9-9.7c-0.3-0.2-0.7-0.4-1.1-0.5c-0.9-0.3-1.9-0.2-2.5,0.9
				c-1.9,3.4-3.9,8.2-3.2,12.1c0.6,3.7,6.1,3.3,8.9,3.2C1108.4,364.3,1110.4,362.2,1109.6,358.3z"/>
			<path class="st16" d="M964.9,476.1c-14.8,8.6-34.1,11.9-48.2,14.2c-0.8,0.1-1.6,0.3-2.4,0.4c-5.1,15.4-6.5,31.7,3.7,45.9
				c4.2,5.9,9.7,10.3,15.8,13.7c-4.4,15.3-6.9,30.9-1.5,45.9c7.6,21.2,19.6,41.5,30.9,61.5c3.6-1.5,6.6-4.5,7.6-8.4
				c0.5-1.9,0.7-3.8,0.8-5.8c4.1,2.1,10,0.3,9.5-5.5C976.8,584,972.2,529.9,964.9,476.1z"/>
			<path class="st16" d="M1081.5,481.1c-0.2,1.1-0.4,2.2-0.6,3.3c-5,29.6-10,59.1-15,88.7l-8.2,48.5c-1,7.1-2,14.3-2.9,21.4
				c-0.7,5.7,7.8,7,12,5.1c0.1,2,0.2,3.9,0.6,5.8c0.8,4,3.6,7.1,7.2,8.8c12.2-19.5,25.2-39.2,33.7-60c6.1-14.8,4.3-30.5,0.7-46
				c6.3-3.2,12-7.3,16.5-13c9.7-12.3,10.3-26.7,7.1-40.8c-0.7-0.2-1.3-0.4-2-0.6C1115.9,498.4,1095.4,492.6,1081.5,481.1z"/>
		</g>
	</g>
	<g>
		<defs>
			<circle id="SVGID_5_" cx="464.6" cy="1085.9" r="267.7"/>
		</defs>
		<use xlink:href="#SVGID_5_"  style="overflow:visible;fill:#B6E2EB;"/>
		<clipPath id="SVGID_6_">
			<use xlink:href="#SVGID_5_"  style="overflow:visible;"/>
		</clipPath>
		<circle class="st26" cx="464.6" cy="1085.9" r="267.7"/>
		<g class="st27">
			<path class="st28" d="M511.3,1227.6c-5-12.4-1.8-59.5,0.3-87.7c0.7-10-6.7-3.5-10.5,3.9c-0.2,0.1-0.3,0.2-0.5,0.3
				c-4-1.3-8.8,0.2-10.2,5.4c-0.2,0.7-0.4,1.4-0.6,2.2c-3.9-2.9-10.9-1.4-13.3,4.2c-0.5,1.1-0.9,2.2-1.3,3.3
				c-1-7.6-11.7-10.7-15-4.2c0-0.2,0-0.3-0.1-0.5c-0.7-5.4-6.4-7.6-10.8-6.2c-2.3-6.4-12.8-6.3-15.1,0.3c-0.8-0.4-1.7-0.6-2.6-0.6
				c0-0.8,0-1.7,0.1-2.5c0.1-0.3,0.3-0.5,0.4-0.8c0.8-2,0.8-3.5,0.6-5.7c-0.1-1.3-1-6.2-0.8-1.2c-0.6-11-16-12.2-16.4-0.7
				c0,1-0.1,2-0.1,3c-0.1,0.9-6,3.3-2.5,5.4c6.3,47.1,8.1,71.2,0,78.8c-7.8,7.3,19.7,26.8,20.5,15.3c0.1-0.8,0.1-1.5,0.2-2.3
				c1.7,0.8,3.6,1,5.5,0.6c0.1,0.3,0.3,0.6,0.4,0.9c2.4,4.9,7.9,5.5,11.7,3.1c3.1,4.8,9.6,5.4,13,1.8c3.9,4.2,10.1,2.8,12.8-1.7
				c4,2,10.1-0.6,12.1-5.6c0.8,0.4,1.7,0.6,2.6,0.7c4,4.7,12.6,5,13.9-2.6c0.1-0.8,1,1.1,1,1.1
				C506.5,1235.3,511.3,1227.6,511.3,1227.6z"/>
			<path class="st29" d="M501.2,1143.6c0,0.1-0.1,0.2-0.1,0.2c-0.2,0.1-0.3,0.2-0.5,0.3c-4-1.3-8.8,0.2-10.2,5.4
				c-0.2,0.7-0.4,1.4-0.6,2.2c-3.9-2.9-10.9-1.4-13.3,4.2c-0.5,1.1-0.9,2.2-1.3,3.3c-1-7.6-11.7-10.7-15-4.2c0-0.2,0-0.3-0.1-0.5
				c-0.7-5.4-6.4-7.6-10.8-6.2c-0.2-0.6-0.5-1.2-0.9-1.7c-4.1,0.5-8.2,1.2-11.7,2.6c-0.8-0.2-1.7-0.4-2.5-0.6c0,0,0,0,0,0
				c0,0-0.1,0-0.1,0c-0.7-0.2-1.5-0.4-2.2-0.6c-0.1,0-0.2,0-0.3-0.1c0,0,0,0,0,0c-1.1-0.3-2.2-0.6-3.4-0.9c-1-0.2-2-0.3-3-0.1
				c-3.8-2.8-8.5-4.3-12.9-2.1c0.2,0.1,0.3,0.3,0.6,0.4c2,14.6,3.5,27,4.4,37.4c5.5,3.3,11.3,5.9,17.8,6c14.8,0.3,28.9-7.7,43.9-8.2
				c9.7-0.4,20.2,2.5,30,1.3c0.5-12.7,1.4-26,2.2-37C508,1144,504.7,1143.7,501.2,1143.6z"/>
			<path class="st22" d="M582.1,1060.2c-3-3.8-3.6-25-2.9-31.6c1.2-11.2-17.1-11.1-18.3,0c-0.3,3.1-0.5,6.1-0.5,8.9
				c-0.3-1.3-0.8-2.5-1.5-3.6c-0.1-1.2-0.1-2.5-0.2-3.7c-0.8-11.4-17.2-11.2-18.3,0c-0.2,1.9-0.4,3.7-0.6,5.6
				c-1.2-2.2-2.7-4.2-4.7-6.1c-16.8-15.8-50.6-12.8-71.8-10.7c-14,1.4-28,4-41.2,8.6c-5.9,2-11.7,4.4-17.3,7.1
				c-2.4,1.1-5.1,3.1-7.9,5c0.3-2.3,0.3-4.6,0.4-5.3c0.7-5,1.4-10.1,2.2-15.1c0.1-0.8,0.1-1.6,0-2.3c0.8-1.2,1.6-2.3,2.4-3.4
				c1.2-1.5,3.9-5.9,6.3-7.7c3.3,0.3,6.9-0.6,10.1-3.4c0.4-0.4,0.9-0.8,1.3-1.2c8.5-7.6,1.8-21.6-9.4-21.6c-0.5,0-1,0-1.5,0
				c-2.1-2.9-5.4-4.9-10-5.3c-12.8-0.9-26.5,2.2-34,13c-6.6,9.4-6.9,24.7-2.9,35c0.7,1.7,1.5,3.2,2.5,4.5c-0.4,0.5-0.7,1.1-1.2,1.6
				c-4.9,5.8-12.2,9.3-17.5,14.8c-9.3,9.6-13.9,24-6.3,35.9c3,4.6,7.3,7.9,12.2,9.6c-0.3,6.3-4.4,16.7-4.6,19.7
				c-0.5,8.8,2.8,17.3,8.4,24.2c10.6,13.1,32.5,21.3,49.3,15.4c6.6-2.3,13.8-7.6,13.4-15.1c-0.5-8.6-9.6-10.6-16.9-10.8
				c-0.6,0-1.2,0-1.9,0c0.8-0.8,1.5-1.7,2.2-2.5c5.9-7.7-4.6-15.2-12.1-11.8c0.2-2.1,0.4-4.1,0.7-6.2c0.5-3.6,1-7.1,1.5-10.6
				c0.9-7,2.3-15-0.1-21.8c-0.8-2.3-2.3-4.1-4.3-5.2c0.3-0.9,0.5-1.7,0.7-2.6c3.5,0.2,7.3-0.9,10.7-2.9c23.2-13.9,47.4-21.6,74.9-23
				c12.1-0.6,25.3-1,37.2,1.5c4.9,1,10.5,2.6,13.3,6.9c3.2,5,2.6,11.9,5.9,17.2c-1.2,2.8-2.2,5.5-3.3,8.3c-0.5-0.1-0.9-0.1-1.2-0.1
				c-6.7-0.5-13.1-0.3-19.8,0.6c-14.5,1.9-29.1,6.6-43.8,3.5c-11.5-2.4-16.4,14.5-4.9,16.9c14.6,3,28.5,0.6,43-1.9
				c7-1.2,13.9-2.1,20.9-1.9c-0.8,2.9-1.6,5.9-2.4,8.8c-1,4.1,1.2,9.5,5.9,10.7c-0.4,1.1-0.5,2.1-0.4,3.1c-0.2,0.2-0.4,0.4-0.6,0.6
				c-4.1,4.5-6.2,13.3-12.8,14.3c-0.5,0.1-0.8,0.2-1.2,0.3c-4.3-6.9-17.7-5.7-17,4c1.2,16,17.1,30.6,34.2,25.7
				c34.5-9.7,21.2-25.6,37.1-33.4c8.1-4,10.8-6.3,17.7-12.3c6.8-5.9,10.4-14.3,10.5-23.1C591.8,1076.2,587.9,1067.6,582.1,1060.2z"
				/>
			<path class="st22" d="M537.7,976.6c-25.9-33.8-74.1-34.5-109.8-22.9c-19.9,6.4-38.3,20.2-46.3,42.2c-8.5,23.5-3.1,49.8,5,72.5
				c3.7,10.3,19,5.8,15.2-4.7c-4.2-11.7-8-25.2-8.7-38.3c1.5,3.2,4.2,5.9,8.5,7.6c8.8,3.5,20.5-0.4,29.6-0.9
				c12.6-0.7,25.3-0.5,37.8,1.7c9.8,1.7,19.5,4.6,28.6,9c9.9,4.7,17.1,12.1,26.1,18.4c15.1,10.6,24.1-19.2,26.5-31.1
				C554.3,1010.6,549.1,991.5,537.7,976.6z"/>
			<path class="st28" d="M640.6,1265.6c-20.8-17.5-44.7-23.3-70-28.9c-22.7-5.1-59.5-13.5-66.2-41.6c-2.6-10.9-18.3-6.3-15.7,4.7
				c0.5,2,1.1,3.9,1.8,5.8c-4-3-8.2-3.6-11.9-2.6c-5.5-1.2-10.7,0.8-14.1,4.8c-0.5-0.9-1-1.8-1.6-2.7c-5.2-8.1-17.1-11.8-24-3.3
				c-0.4,0.5-0.9,1.1-1.3,1.6c0.4-1.1,0.7-2.3,1-3.5c2.6-10.9-13.2-15.6-15.7-4.7c-6.6,28.2-43.4,36.5-66.2,41.6
				c-25.3,5.7-49.2,11.4-70,28.9c-45.3,38.2-40.8,102.9-30.7,157.2c1.2,6.7,7.5,7.6,11.8,4.8c4.4,12.6,22.8,14.4,28,2.2
				c4.3,0.1,8.7-1.4,11.9-4.8c3.4,4.3,8.9,6.5,15.4,5.2c3.1-0.6,5.7-2,7.9-3.8c0,2.4,0.2,4.9,0.6,7.4c2,14.3,22.1,15.4,28,3.9
				c2.3-4.5,4.2-9.1,5.9-14c6.7,12.5,23.1,11.7,28.2-2.8c0.7-1.9,1.3-3.8,1.9-5.7c1.7,1.6,3.7,2.8,5.8,3.4c7,2.1,13.2-1.7,17.3-7.5
				c1.2-1.7,2.3-3.5,3.3-5.4c4.4,9.7,18,13.1,25,4.6c1.4,1.2,3.1,2.2,5.1,2.9c16.8,5.6,34.3,3.4,51.5,1.1c2.6-0.4,5.2-0.7,7.8-1.2
				c3.4,6,11.3,8.6,17.4,7.2c6.3-1.5,11-5.7,14.6-11.3c2,4.6,4.8,8.4,8.6,11c7.4,5,16.8,2.7,22.2-4.2c1.9,5.7,4.8,10.7,9,14.6
				c7.5,6.9,17.8,5.7,23.1-2.1c5.1,7.8,16.6,8.1,23.3,1.8c2.1-1.9,3.6-4.2,4.8-6.5c0.3,0.1,0.7,0.2,1,0.2c0.1,0.1,0.2,0.2,0.3,0.3
				c6.1,5.6,15.6,6.4,21.3,0.4c3.4,6,13.2,6.9,14.7-1.7C681.4,1368.5,686,1303.9,640.6,1265.6z"/>
			<path class="st28" d="M540,1025.2c0-2.8-0.1-5.6-0.3-8.5c-3.1-5.1-18.5-16.2-76.2-19.1c-52-2.6-77.4,20-80.9,23.8
				c-0.8,4.1-1.2,7.9-1.1,11.1l9,54.6c0.7,14.4,2.5,33.4,8.9,46.4c15.1,30.5,53.1,47.4,60.1,49.1c4.8,1.2,6.2,1.1,9.3-0.1
				c14.5-5.8,48.4-32.1,56-47.6c10.4-21.1,18.8-61.4,22.1-86.3C543,1047.8,540.1,1035.1,540,1025.2z"/>
			<path class="st30" d="M473.8,1102.4c-5.2,0.7-11.4,0.6-15.1-3.7c-3.6-4.2-1.6-10-0.8-14.9c0.4-2.8-3.9-3.3-4.3-0.5
				c-1,6.9-2.8,13.5,2.6,19c4.8,4.9,11.9,5.4,18.4,4.5C477.3,1106.3,476.6,1102,473.8,1102.4z"/>
			<path class="st31" d="M509.8,1069.1c-0.1,4.4-2.4,8-5.2,7.9c-2.8-0.1-4.9-3.7-4.8-8.1c0.1-4.4,2.4-8,5.2-7.9
				C507.7,1061,509.9,1064.7,509.8,1069.1z"/>
			<path class="st31" d="M432.5,1066.9c-0.1,4.4-2.4,8-5.2,7.9c-2.8-0.1-4.9-3.7-4.8-8.1c0.1-4.4,2.4-8,5.2-7.9
				C430.4,1058.9,432.5,1062.5,432.5,1066.9z"/>
			<path class="st32" d="M487.7,1123.5c-6.1,0.8-11.7,1-18.1,1.2c-6.7,0.3-18.5-0.2-25.1-0.8c-5-0.5-1.9,1.7-1.2,2.3
				c13.2,10.7,32.8,9.6,45.4-0.9C488.9,1125,491.6,1123,487.7,1123.5z"/>
			<path class="st22" d="M423.5,989.8c-3.8,1.6-7.2,3.7-10.1,6.2c-1.9-2.2-5.4-3.3-8.3-0.9c-0.9,0.8-1.7,1.6-2.6,2.4
				c-1-1.1-2.4-1.9-4.6-2.1c-7.3-0.5-14.4,8.9-17.4,14.4c-5.7,10.4-4.6,12.4-3.1,24c0.8,5.8,2.9,37.8,5.6,41.4
				c3.9,5,10.6,3.8,13.2-1.8c2.5-5.2,2.1-40.3,4.2-47.4c4.3-14.3,15.2-20.2,29.7-26.4C436.6,996.9,429.9,987,423.5,989.8z"/>
			<path class="st22" d="M552.5,1044.3c-0.2-2.3-0.3-46.7-0.9-44.2c-0.4,1.6-56.8-2.2-42.3,2.8c37.8,13,26.1,62.2,26.3,74.4
				c0.1,3.2-1.1,12.6,4.6,12.6c5.2,0,6.4-9.4,7.4-12.6C551.1,1066.5,553.3,1055.8,552.5,1044.3z"/>
			<path class="st28" d="M376.5,1086.5c5.3-11,15.8-6.8,19.2,2.7c0.7,1.9,4.3,11.4,3.1,12.4c2.2,6.6-0.5,5.8,1,12.5
				c0.2,0.7,0.3,1.5,0.5,2.3c0,0,0,0,0,0c1.6,1.9,1.3,4.1,0.2,5.7c-0.3,1.7-1.1,3.2-2.7,4.2c-4.1,2.7-9.5-0.9-12.6-3.6
				C376.3,1115,371.2,1097.5,376.5,1086.5z"/>
			<path class="st28" d="M548.9,1086.5c-5.3-11-15.8-6.8-19.2,2.7c-0.7,1.9,0,3.5,1.2,4.4c-2.2,6.6-3.8,13.7-5.2,20.4
				c-0.2,0.7-0.3,1.5-0.5,2.3c0,0,0,0,0,0c-1.6,1.9-1.3,4.1-0.2,5.7c0.3,1.7,1.1,3.2,2.7,4.2c4.1,2.7,9.5-0.9,12.6-3.6
				C549.1,1115,554.2,1097.5,548.9,1086.5z"/>
			<path class="st33" d="M672.2,1423.1c10.1-54.3,14.7-119-30.7-157.2c-20.8-17.5-44.7-23.3-70-28.9c-7.9-1.8-17.6-4-27.1-7.2
				c-1.6,0.4-3.1,1-4.8,2.2c-24.3,16.9-50.3,19.1-79.1,17.5c-25.7-1.5-51.2-6-72.8-20.8c-10.5,3.9-21.5,6.4-30.3,8.4
				c-25.3,5.7-49.2,11.4-70,28.9c-45.3,38.2-40.8,102.9-30.7,157.2c1.2,6.7,7.5,7.6,11.8,4.8c4.4,12.6,22.8,14.4,28,2.2
				c4.3,0.1,8.7-1.4,11.9-4.8c3.4,4.3,8.9,6.5,15.4,5.2c3.1-0.6,5.7-2,7.9-3.8c0,2.4,0.2,4.9,0.6,7.4c2,14.3,22.1,15.4,28,3.9
				c2.3-4.5,4.2-9.1,5.9-14c6.7,12.5,23.1,11.7,28.2-2.8c0.7-1.9,1.3-3.8,1.9-5.7c1.7,1.6,3.7,2.8,5.8,3.4c7,2.1,13.2-1.7,17.3-7.5
				c1.2-1.7,2.3-3.5,3.3-5.4c4.4,9.7,18,13.1,25,4.6c1.4,1.2,3.1,2.2,5.1,2.9c16.8,5.6,34.3,3.4,51.5,1.1c2.6-0.4,5.2-0.7,7.8-1.2
				c3.4,6,11.3,8.6,17.4,7.2c6.3-1.5,11-5.7,14.6-11.3c2,4.6,4.8,8.4,8.6,11c7.4,5,16.8,2.7,22.2-4.2c1.9,5.7,4.8,10.7,9,14.6
				c7.5,6.9,17.8,5.7,23.1-2.1c5.1,7.8,16.6,8.1,23.3,1.8c2.1-1.9,3.6-4.2,4.8-6.5c0.3,0.1,0.7,0.2,1,0.2c0.1,0.1,0.2,0.2,0.3,0.3
				c6.1,5.6,15.6,6.4,21.3,0.4C660.9,1430.8,670.7,1431.7,672.2,1423.1z"/>
			<path class="st22" d="M574.2,989.9c-14.4-13.8-39.3-19-60.7-13.4c-10.6,2.8-6.1,16,4.7,13.2c2.4-0.6,4.9-1.1,7.5-1.3
				c-0.3,1.4,0,2.9,1.2,4.2c9.3,10.3,16,21.4,20.2,33.3c0,1.5-0.1,3-0.2,4.5c-0.2,2.5,1.1,4.2,3,5.3c0.1,0.3,0.1,0.5,0.2,0.8
				c0.9,4,5.8,5.4,10.2,4.7c0.2,2.4,0.3,4.9,0.4,7.3c0.3,7.4,15,9.6,17.2,1.8C583.5,1029.7,593.2,1008,574.2,989.9z"/>
			<path class="st22" d="M490.7,889.2c-10.5-3.4-18,2.6-28,4.1c-8.9,1.3-17.4,0.8-24.5,7.5c-6.5,6.2-9,15.5-8.2,24.2
				c0.2,2.7,8.1,27.8,11,25.7c-9.2,6.4-0.5,21.6,8.8,15.1c5.1-3.5,7.5-8.1,7.7-13.1c1.2,0.4,2.3,0.6,3.6,0.7c1.4,0.8,2.7,1.4,4,1.7
				c0.8,3.9,4.5,7.1,8.7,7.1c17.4,0.2,36.6-13.9,41.6-30.8C520.3,914.6,506.7,894.5,490.7,889.2z"/>
			<path class="st16" d="M425.5,956.5c-11,10.5-14.9,26.1-10,40.5c0.9,2.6,5.1,1.5,4.2-1.2c-4.5-13-1.2-26.8,8.8-36.3
				C430.7,957.6,427.6,954.5,425.5,956.5z"/>
			<path class="st16" d="M434.9,978.1c-0.2,3.4-0.3,6.8-0.5,10.2c-0.1,2.8,4.2,2.8,4.4,0c0.2-3.4,0.3-6.8,0.5-10.2
				C439.4,975.3,435,975.3,434.9,978.1z"/>
			<path class="st16" d="M489.3,960c-0.9-2.7-5.1-1.5-4.2,1.2c3.2,9.9,4.4,20,3.5,30.4c-0.2,2.8,4.1,2.8,4.4,0
				C493.8,980.8,492.6,970.3,489.3,960z"/>
			<path class="st16" d="M519.1,961.2c-1.5-2.4-5.3-0.2-3.8,2.2c6.7,10.7,7.4,22.9,6.5,35.2c-0.2,2.8,4.2,2.8,4.4,0
				C527.1,985.5,526.1,972.5,519.1,961.2z"/>
			<path class="st16" d="M511.7,982.8c-0.1-2.8-4.5-2.8-4.4,0c0.2,3.5,0,6.9-0.5,10.4c-0.4,2.8,3.8,3.9,4.2,1.2
				C511.6,990.5,511.8,986.7,511.7,982.8z"/>
			<path class="st16" d="M394.1,1019.2c-4.6-7.6-6.3-15.9-5.3-24.7c0.3-2.8-4.1-2.8-4.4,0c-1.1,9.5,1,18.7,5.9,26.9
				C391.8,1023.8,395.6,1021.6,394.1,1019.2z"/>
			<path class="st16" d="M543.8,998.7c-0.6-2.7-4.8-1.6-4.2,1.2c1.7,7.6,0.8,15.1-2.6,22.1c-1.2,2.5,2.5,4.7,3.8,2.2
				C544.7,1016.1,545.8,1007.5,543.8,998.7z"/>
			<path class="st31" d="M555.7,1073.8c-5.7-5.4-11.5-11.7-18.5-15.4c-2.3-16.3-16.2-28.8-33.1-28.8c-15.1,0-27.8,10-32,23.7
				c-2.5-1.1-5.1-2-7.9-2.2c-2.7-0.1-5.3,0.6-7.8,1.5c-4.4-13.4-17-23.1-31.8-23.1c-17.5,0-31.9,13.5-33.3,30.7
				c-5.9,5.3-11.6,10.8-17.1,16.4c-2,2,1.1,5.1,3.1,3.1c4.5-4.7,9.3-9.2,14.1-13.6c1.6,17,15.9,30.3,33.3,30.3
				c18.5,0,33.5-15,33.5-33.5c0-2.1-0.2-4.1-0.6-6.1c4.8-1.8,8.8-1.5,13.5,0.7c-0.3,1.8-0.5,3.6-0.5,5.4c0,18.5,15,33.5,33.5,33.5
				c18.3,0,33.1-14.7,33.5-32.9c5.6,3.6,10.4,8.8,15.1,13.3C554.7,1078.8,557.8,1075.7,555.7,1073.8z M424.6,1092.1
				c-16,0-29.1-13.1-29.1-29.1c0-16,13.1-29.1,29.1-29.1c16,0,29.1,13.1,29.1,29.1C453.7,1079,440.7,1092.1,424.6,1092.1z
				 M504.1,1092.1c-16.1,0-29.1-13.1-29.1-29.1c0-16,13.1-29.1,29.1-29.1c16,0,29.1,13.1,29.1,29.1
				C533.2,1079,520.1,1092.1,504.1,1092.1z"/>
		</g>
	</g>
	<g>
		<circle class="st22" cx="1014.6" cy="856.1" r="146.9"/>
		<g>
			<path class="st34" d="M1016.2,786.4c-28.2,0-51.1,22.9-51.1,51.1c0,14.2,6.9,26.1,15.2,36.3c13.3,16.5,11.5,35.5,11.5,35.5h48.7
				c0,0-1.8-19,11.5-35.5c8.3-10.3,15.2-22.1,15.2-36.3C1067.2,809.3,1044.4,786.4,1016.2,786.4"/>
			<line class="st34" x1="992.5" y1="922.2" x2="1039.9" y2="922.2"/>
			<line class="st34" x1="992.5" y1="935.1" x2="1039.9" y2="935.1"/>
			<line class="st34" x1="992.5" y1="948" x2="1039.9" y2="948"/>
			<path class="st34" d="M1031.6,948c0,7.1-6.9,12.9-15.4,12.9c-8.5,0-15.4-5.8-15.4-12.9"/>
			<line class="st34" x1="1016.1" y1="764.6" x2="1016.1" y2="743.2"/>
			<line class="st34" x1="1067.7" y1="781.9" x2="1083.4" y2="766.2"/>
			<line class="st34" x1="961.4" y1="781.9" x2="945.7" y2="766.2"/>
			<line class="st34" x1="1088.9" y1="834.1" x2="1111.4" y2="833.7"/>
			<line class="st34" x1="940.3" y1="834.1" x2="917.7" y2="833.7"/>
			<line class="st34" x1="1072.6" y1="884" x2="1088.9" y2="899.6"/>
			<line class="st34" x1="956.5" y1="884" x2="940.3" y2="899.6"/>
		</g>
	</g>
</g>
<g id="Rondjes">
	<g>
		<circle class="st13" cx="1656.7" cy="487.2" r="146.9"/>
		<path class="st0" d="M1644.9,438.8C1644.9,438.8,1644.9,438.8,1644.9,438.8c1.7-1.2,3.6-2.3,5.6-3.3c10.8-5.1,26-5.7,46.8,5.8
			l7.4-24.7c0,0-26.8-12.9-54.2-6c-1.9,0.5-3.7,1-5.6,1.7c0,0,0,0,0,0c-16.9,6-33.4,20.4-43.4,51h-11.7l-4,15.5h14.2
			c0,0-0.3,9.6-0.6,12h-10.2l-4,15.8h16.7c0,0,6.8,42.8,43.1,55.7c0,0,0,0,0,0c1.8,0.6,3.6,1.2,5.6,1.7c13.5,3.4,30.7,2.8,52.4-4.8
			l-3.7-25.6c0,0-26.5,17.6-48.7,6.7c-1.9-0.9-3.8-2.1-5.6-3.5c0,0,0,0,0,0c-7.3-5.5-13.7-14.8-18.1-29.8h58.7l3.7-16.4h-64.6
			c0,0-2.2-6.2-0.3-9.6h64.6l5.9-17.6h-67.7C1627.1,463.3,1631.9,448,1644.9,438.8z"/>
	</g>
	<g>
		<circle class="st13" cx="337" cy="487.2" r="146.9"/>
		<path id="document_1_" class="st0" d="M373.9,392.2h-95.1c-6.4,0-11.6,5.2-11.6,11.6v165.8c0,6.4,5.2,11.6,11.6,11.6h116.5
			c6.4,0,11.6-5.2,11.6-11.6V428.1L373.9,392.2z M376.6,409.6l14.5,15.7h-14.5V409.6z M397.1,569.7c0,1-0.8,1.9-1.9,1.9H278.7
			c-1,0-1.9-0.8-1.9-1.9V403.8c0-1,0.8-1.9,1.9-1.9h88.1v28.2c0,2.7,2.2,4.9,4.9,4.9h25.4V569.7z M294,444h82.7c2,0,3.6,1.6,3.6,3.6
			c0,2-1.6,3.6-3.6,3.6H294c-2,0-3.6-1.6-3.6-3.6C290.4,445.6,292,444,294,444z M380.3,472.1c0,2-1.6,3.6-3.6,3.6H294
			c-2,0-3.6-1.6-3.6-3.6c0-2,1.6-3.6,3.6-3.6h82.7C378.7,468.5,380.3,470.1,380.3,472.1z M380.3,495.9c0,2-1.6,3.6-3.6,3.6H294
			c-2,0-3.6-1.6-3.6-3.6c0-2,1.6-3.6,3.6-3.6h82.7C378.7,492.2,380.3,493.8,380.3,495.9z M380.3,520c0,2-1.6,3.6-3.6,3.6H294
			c-2,0-3.6-1.6-3.6-3.6c0-2,1.6-3.6,3.6-3.6h82.7C378.7,516.3,380.3,517.9,380.3,520z"/>
	</g>
	<g>
		<circle class="st13" cx="1014.6" cy="1220.5" r="146.9"/>
		<g>
			<g>
				<rect x="937.3" y="1224.9" class="st35" width="35.5" height="71.4"/>
				<rect x="996.8" y="1130.7" class="st36" width="35.5" height="165.6"/>
				<rect x="1056.4" y="1175.5" class="st35" width="35.5" height="120.8"/>
				<line class="st35" x1="970.7" y1="1225.2" x2="937.2" y2="1258.8"/>
				<line class="st35" x1="972.8" y1="1245.8" x2="937.2" y2="1281.3"/>
				<path class="st37" d="M937.2,1258.4"/>
				<path class="st37" d="M970.7,1224.9"/>
				<line class="st35" x1="972.8" y1="1268.3" x2="944.8" y2="1296.3"/>
				<line class="st35" x1="972.8" y1="1290.9" x2="967.3" y2="1296.3"/>
				<line class="st35" x1="947.8" y1="1224.9" x2="937.2" y2="1235.5"/>
				<line class="st35" x1="1089.9" y1="1225.2" x2="1056.4" y2="1258.8"/>
				<line class="st35" x1="1091.9" y1="1245.8" x2="1056.4" y2="1281.3"/>
				<line class="st35" x1="1089.9" y1="1201.9" x2="1056.4" y2="1235.5"/>
				<line class="st35" x1="1089.9" y1="1179" x2="1056.4" y2="1212.5"/>
				<line class="st35" x1="1070.4" y1="1175.5" x2="1056.4" y2="1189.6"/>
				<line class="st35" x1="1091.9" y1="1268.3" x2="1063.9" y2="1296.3"/>
				<line class="st35" x1="1091.9" y1="1290.9" x2="1086.5" y2="1296.3"/>
			</g>
		</g>
	</g>
	<path class="st4" d="M530.2,560.5"/>
</g>
<g id="Titel">
	<g>
		<path class="st13" d="M304.8,1463.7h55.4c44.4,0,74.4,29.2,74.4,70c0,40.8-30,70-74.4,70h-55.4V1463.7z M359.4,1594.5
			c39.6,0,65-25.2,65-60.8s-25.4-60.8-65-60.8H315v121.6H359.4z"/>
		<path class="st13" d="M555,1553.9h-89.8c1,24.8,19.2,41.6,44.2,41.6c13.2,0,25.4-4.8,33.4-14.6l5.8,6.6c-9.2,11.2-23.6,17-39.4,17
			c-31.6,0-53.8-22-53.8-53c0-31,21.4-53,50-53c28.6,0,49.8,21.6,49.8,52.6C555.2,1551.9,555,1552.9,555,1553.9z M465.4,1546.1h80
			c-1.4-22.6-17.8-38.8-40-38.8C483.2,1507.3,467,1523.3,465.4,1546.1z"/>
		<path class="st13" d="M626.2,1551.5c0-31,22.2-53,52.2-53s52.2,22,52.2,53c0,31-22.2,53-52.2,53S626.2,1582.5,626.2,1551.5z
			 M720.4,1551.5c0-26.2-18-44-42-44s-42,17.8-42,44c0,26.2,18,44,42,44S720.4,1577.7,720.4,1551.5z"/>
		<path class="st13" d="M811,1498.5v9.8c-0.8,0-1.6-0.2-2.4-0.2c-23.2,0-37,15.4-37,41.2v54.4h-10v-104.4h9.6v22.8
			C777.6,1506.9,791.4,1498.5,811,1498.5z"/>
		<path class="st13" d="M931.6,1499.3v93.2c0,35-17,50.8-50.6,50.8c-19,0-37.2-6-47.8-16.6l5.4-7.6c10.4,9.6,25.4,15.2,42.2,15.2
			c27.8,0,40.8-12.8,40.8-40.6v-17.6c-8.6,15.2-24.6,23.8-43.4,23.8c-29.6,0-52-21-52-50.8s22.4-50.6,52-50.6
			c19.2,0,35.4,8.8,43.8,24.4v-23.6H931.6z M921.8,1549.1c0-24.6-18-41.6-42.8-41.6c-24.6,0-42.6,17-42.6,41.6s18,41.8,42.6,41.8
			C903.8,1590.9,921.8,1573.7,921.8,1549.1z"/>
		<path class="st13" d="M1049.4,1537.5v66.2h-9.6v-18.6c-6.6,12-19.4,19.4-37.6,19.4c-23.4,0-37.6-12-37.6-29.8
			c0-15.8,10-29.2,39-29.2h35.8v-8.4c0-19.4-10.6-29.8-31-29.8c-14.4,0-27.4,5.4-36,13.2l-5-7.2c10.4-9.2,25.6-14.8,41.8-14.8
			C1035,1498.5,1049.4,1511.7,1049.4,1537.5z M1039.4,1572.9v-19.6h-35.6c-21.6,0-29.2,9-29.2,21c0,13.6,10.6,22,29,22
			C1021.2,1596.3,1033.4,1587.9,1039.4,1572.9z"/>
		<path class="st13" d="M1184,1542.7v61h-10v-60.2c0-23.6-12.6-36-33.8-36c-24.6,0-39.6,15.8-39.6,40.6v55.6h-10v-104.4h9.6v22.6
			c7-14.6,21.6-23.4,41.4-23.4C1167,1498.5,1184,1513.5,1184,1542.7z"/>
		<path class="st13" d="M1222,1465.9c0-4.4,3.6-8.2,8.2-8.2c4.6,0,8.2,3.6,8.2,8c0,4.6-3.6,8.2-8.2,8.2
			C1225.6,1473.9,1222,1470.3,1222,1465.9z M1225.2,1499.3h10v104.4h-10V1499.3z"/>
		<path class="st13" d="M1262,1591.1l4.6-8c8,6.8,22.2,12.6,37.6,12.6c22,0,30.8-7.8,30.8-19.6c0-30.4-69.2-8-69.2-49
			c0-15.8,13.2-28.6,39.6-28.6c13.2,0,27.6,4,35.8,10.2l-4.6,8c-8.8-6.4-20.2-9.4-31.4-9.4c-20.4,0-29.4,8.4-29.4,19.6
			c0,31.4,69.2,9.2,69.2,49c0,17-14.6,28.6-41.2,28.6C1286.6,1604.5,1270.2,1598.7,1262,1591.1z"/>
		<path class="st13" d="M1448.4,1537.5v66.2h-9.6v-18.6c-6.6,12-19.4,19.4-37.6,19.4c-23.4,0-37.6-12-37.6-29.8
			c0-15.8,10-29.2,39-29.2h35.8v-8.4c0-19.4-10.6-29.8-31-29.8c-14.4,0-27.4,5.4-36,13.2l-5-7.2c10.4-9.2,25.6-14.8,41.8-14.8
			C1434,1498.5,1448.4,1511.7,1448.4,1537.5z M1438.4,1572.9v-19.6h-35.6c-21.6,0-29.2,9-29.2,21c0,13.6,10.6,22,29,22
			C1420.2,1596.3,1432.4,1587.9,1438.4,1572.9z"/>
		<path class="st13" d="M1541.4,1597.1c-5.2,5-13.6,7.4-21.4,7.4c-18.4,0-28.4-10.8-28.4-28.4v-68.2h-19.2v-8.6h19.2v-22.8h10v22.8
			h33.2v8.6h-33.2v67.2c0,13.4,6.6,20.8,19.4,20.8c6.2,0,12-2,16.2-5.8L1541.4,1597.1z"/>
		<path class="st13" d="M1566,1465.9c0-4.4,3.6-8.2,8.2-8.2c4.6,0,8.2,3.6,8.2,8c0,4.6-3.6,8.2-8.2,8.2
			C1569.6,1473.9,1566,1470.3,1566,1465.9z M1569.2,1499.3h10v104.4h-10V1499.3z"/>
		<path class="st13" d="M1709.6,1553.9h-89.8c1,24.8,19.2,41.6,44.2,41.6c13.2,0,25.4-4.8,33.4-14.6l5.8,6.6
			c-9.2,11.2-23.6,17-39.4,17c-31.6,0-53.8-22-53.8-53c0-31,21.4-53,50-53s49.8,21.6,49.8,52.6
			C1709.8,1551.9,1709.6,1552.9,1709.6,1553.9z M1620,1546.1h80c-1.4-22.6-17.8-38.8-40-38.8
			C1637.8,1507.3,1621.6,1523.3,1620,1546.1z"/>
		<path class="st13" d="M597.9,1767.5v66.2h-9.6v-18.6c-6.6,12-19.4,19.4-37.6,19.4c-23.4,0-37.6-12-37.6-29.8
			c0-15.8,10-29.2,39-29.2h35.8v-8.4c0-19.4-10.6-29.8-31-29.8c-14.4,0-27.4,5.4-36,13.2l-5-7.2c10.4-9.2,25.6-14.8,41.8-14.8
			C583.5,1728.5,597.9,1741.7,597.9,1767.5z M587.9,1802.9v-19.6h-35.6c-21.6,0-29.2,9-29.2,21c0,13.6,10.6,22,29,22
			C569.7,1826.3,581.9,1817.9,587.9,1802.9z"/>
		<path class="st13" d="M639.1,1685.3h10v148.4h-10V1685.3z"/>
		<path class="st13" d="M675.9,1821.1l4.6-8c8,6.8,22.2,12.6,37.6,12.6c22,0,30.8-7.8,30.8-19.6c0-30.4-69.2-8-69.2-49
			c0-15.8,13.2-28.6,39.6-28.6c13.2,0,27.6,4,35.8,10.2l-4.6,8c-8.8-6.4-20.2-9.4-31.4-9.4c-20.4,0-29.4,8.4-29.4,19.6
			c0,31.4,69.2,9.2,69.2,49c0,17-14.6,28.6-41.2,28.6C700.5,1834.5,684.1,1828.7,675.9,1821.1z"/>
		<path class="st13" d="M932.3,1729.3v93.2c0,35-17,50.8-50.6,50.8c-19,0-37.2-6-47.8-16.6l5.4-7.6c10.4,9.6,25.4,15.2,42.2,15.2
			c27.8,0,40.8-12.8,40.8-40.6v-17.6c-8.6,15.2-24.6,23.8-43.4,23.8c-29.6,0-52-21-52-50.8s22.4-50.6,52-50.6
			c19.2,0,35.4,8.8,43.8,24.4v-23.6H932.3z M922.5,1779.1c0-24.6-18-41.6-42.8-41.6c-24.6,0-42.6,17-42.6,41.6s18,41.8,42.6,41.8
			C904.5,1820.9,922.5,1803.7,922.5,1779.1z"/>
		<path class="st13" d="M1062.9,1783.9h-89.8c1,24.8,19.2,41.6,44.2,41.6c13.2,0,25.4-4.8,33.4-14.6l5.8,6.6
			c-9.2,11.2-23.6,17-39.4,17c-31.6,0-53.8-22-53.8-53c0-31,21.4-53,50-53c28.6,0,49.8,21.6,49.8,52.6
			C1063.1,1781.9,1062.9,1782.9,1062.9,1783.9z M973.3,1776.1h80c-1.4-22.6-17.8-38.8-40-38.8S974.9,1753.3,973.3,1776.1z"/>
		<path class="st13" d="M1187.5,1772.7v61h-10v-60.2c0-23.6-12.6-36-33.8-36c-24.6,0-39.6,15.8-39.6,40.6v55.6h-10v-148.4h10v65.8
			c7.2-14.2,21.6-22.6,41-22.6C1170.5,1728.5,1187.5,1743.5,1187.5,1772.7z"/>
		<path class="st13" d="M1317.1,1783.9h-89.8c1,24.8,19.2,41.6,44.2,41.6c13.2,0,25.4-4.8,33.4-14.6l5.8,6.6
			c-9.2,11.2-23.6,17-39.4,17c-31.6,0-53.8-22-53.8-53c0-31,21.4-53,50-53s49.8,21.6,49.8,52.6
			C1317.3,1781.9,1317.1,1782.9,1317.1,1783.9z M1227.5,1776.1h80c-1.4-22.6-17.8-38.8-40-38.8
			C1245.3,1737.3,1229.1,1753.3,1227.5,1776.1z"/>
		<path class="st13" d="M1436.5,1783.9h-89.8c1,24.8,19.2,41.6,44.2,41.6c13.2,0,25.4-4.8,33.4-14.6l5.8,6.6
			c-9.2,11.2-23.6,17-39.4,17c-31.6,0-53.8-22-53.8-53c0-31,21.4-53,50-53s49.8,21.6,49.8,52.6
			C1436.7,1781.9,1436.5,1782.9,1436.5,1783.9z M1346.9,1776.1h80c-1.4-22.6-17.8-38.8-40-38.8
			C1364.7,1737.3,1348.5,1753.3,1346.9,1776.1z"/>
		<path class="st13" d="M1467.7,1685.3h10v148.4h-10V1685.3z"/>
	</g>
</g>
</svg>
