<?xml version="1.0" encoding="utf-8"?>
<!-- Generator: Adobe Illustrator 25.2.3, SVG Export Plug-In . SVG Version: 6.00 Build 0)  -->
<svg version="1.1" xmlns="http://www.w3.org/2000/svg" xmlns:xlink="http://www.w3.org/1999/xlink" x="0px" y="0px"
	 viewBox="0 0 2000 2000" style="enable-background:new 0 0 2000 2000;" xml:space="preserve">
<style type="text/css">
	.st0{fill:#FD6210;}
	.st1{fill:none;stroke:#B6B6B6;stroke-width:10;stroke-linecap:round;}
	.st2{fill:#FFE9DD;}
	.st3{fill:none;stroke:#FED2BB;stroke-width:14.2655;stroke-miterlimit:10;}
	.st4{fill:#FED2BB;}
	.st5{fill:#AD81BE;}
	.st6{fill:#C2A0CE;}
	.st7{fill:#84429D;}
	.st8{fill:#CDCECF;}
	.st9{fill:#DCDDDE;}
	.st10{fill:#B8B9BA;}
	.st11{fill:#9961AE;}
	.st12{fill:#D6C0DE;}
	.st13{fill:#F3F4F5;}
	.st14{fill:#FFFFFF;}
	.st15{fill:#EBDFEF;}
	.st16{fill:#70228D;}
	.st17{fill:#F1F2F2;}
	.st18{fill:#FEA576;}
	.st19{fill:#FFF3E8;}
	.st20{fill:#FE8F54;}
	.st21{fill:#FD7832;}
</style>
<g id="Achtergrond">
	<polygon class="st0" points="2000,2000 1543,2000 0,2000 0,0 1709.8,0 2000,290 	"/>
	<g>
		<line class="st1" x1="1762.7" y1="66.1" x2="1946.9" y2="66.1"/>
		<line class="st1" x1="1762.7" y1="107.4" x2="1946.9" y2="107.4"/>
		<line class="st1" x1="1762.7" y1="148.6" x2="1946.9" y2="148.6"/>
		<line class="st1" x1="1762.7" y1="189.9" x2="1946.9" y2="189.9"/>
		<polygon class="st2" points="1999.8,290 1709.8,290 1709.8,0 		"/>
	</g>
</g>
<g id="Takken">
	<g>
		<path class="st3" d="M847,510c-6,14.2-14.6,34.7-74.8,53.9C711.9,583,655,651.4,632.7,670.4c-22.2,19-87.6,60.7-132.8,89.9
			c-45.2,29.2-78.5,79.2-118.3,126.5s-69.6,116.7-86.7,166.1c-17.1,49.4-122.2,219.2-122.2,219.2"/>
		<path class="st3" d="M776,612.8c0,0-25.2-4.9-59.8,11.1s-83.5,46.5-83.5,46.5"/>
		<path class="st3" d="M683.1,533.5c0,0-18.1,34.5-25.7,67.6c-7.6,33-45.1,83.2-58.6,94.8"/>
		<path class="st3" d="M363.7,400.3c0,0,62.2,107.6,55.2,201s-10.1,142.2-27.3,192.2c-17.2,50-39.2,97.2-41.8,111
			c-2.6,13.8,0,29.8,0,29.8"/>
		<path class="st3" d="M286.4,843.7c0,0-3.3,42.1-13.3,90.7c-9.9,48.6-15,86-25.9,123.5c-10.9,37.4-32,141.3-48.3,168.9"/>
		<path class="st4" d="M732.4,194.3c0,0,19.6,86.3,13.1,148.5C739,405,732.3,474.1,720.1,496c-12.2,21.9-37,49-37,49
			s-16.6-58.4-32.1-106.9c-15.5-48.4-48.4-77.5-21.3-122.1C656.8,271.5,732.4,194.3,732.4,194.3z"/>
		<path class="st4" d="M776,619.9c14.4,4,27.6-0.5,54.6,22.2s104.5,29.9,149.1,28.2s96.9-25.6,129.8-20.4
			c32.9,5.2-13.9-6.1-65.7-20.6c-51.8-14.6-77.8-50.7-128-52s-149.7,29-149.7,29L776,619.9z"/>
		<path class="st4" d="M884.9,501.4c0,0,90.2-68.8,143.3-65.5c53.1,3.3,109.2-30.3,177.5,31c68.3,61.3,100,98.6,113.7,134.3
			c13.7,35.7,21.5,62.5,21.5,62.5s-4.2-25.6-56.5-27.1c-52.3-1.5-123-7.6-163-34.2c-39.9-26.6-54.3-49.1-113-52.2
			c-58.7-3.1-68.7-2.5-109.4-12.7c-40.7-10.2-52-23.4-52-23.4L884.9,501.4z"/>
		<path class="st4" d="M835.5,523.2c0,0,33-112.5,43.5-136.8c10.5-24.3,6-50.2,48.3-75.9c42.4-25.7,76.5-48.8,108.6-57.7
			c32.1-8.9,50.9-8,90.1-12.2c39.2-4.2,72.1,6.1,89.6,0c17.4-6.1,11.6,11.3-13.6,28.8s-58.1,32.9-94.9,62s-28.9,57.3-69.5,65.7
			c-40.5,8.3-56.4-7-89.4,27.3C915.1,458.7,835.5,523.2,835.5,523.2z"/>
		<path class="st4" d="M285.7,865.6c0,0-24.3-55.7-41.9-109.3c-17.6-53.6-37.6-51.7-18.8-118.9s31.7-73.6,26.6-124
			c-5.1-50.4-10.9-66.9-10.9-66.9s24.2,32,45,86.2c20.9,54.3,66.2,100.6,53.8,154.6s-16.3,91.1-22.7,111.9S285.7,865.6,285.7,865.6z
			"/>
		<path class="st4" d="M377.7,429.6c0,0-51.4-32.4-96.1-66.8s-60.1-21.6-82.4-87.7s-15.2-78.7-47.7-117.5S105,108.4,105,108.4
			s38,12.9,85.7,46s111.3,46,131.4,97.7s37.7,84.5,44.1,105.4C372.6,378.2,377.7,429.6,377.7,429.6z"/>
		<line class="st4" x1="835.5" y1="614.7" x2="776" y2="619.9"/>
		<path class="st4" d="M884.9,501.4c0,0,126.7-4.2,179.8-0.9c53.1,3.3,92.7-6.7,160.9,54.6s49.4,38.8,77.5,64.8
			c23.1,21.3,37.8,43.7,37.8,43.7s-4.2-25.6-56.5-27.1c-52.3-1.5-123-7.6-163-34.2c-39.9-26.6-54.3-49.1-113-52.2
			c-58.7-3.1-68.7-2.5-109.4-12.7c-40.7-10.2-56.4-25.2-56.4-25.2L884.9,501.4z"/>
		<path class="st4" d="M851.5,510c0,0,35.1-56.1,45.6-80.4c10.5-24.3,31.2-53.9,73.5-79.7c42.4-25.7,61.8-45.4,93.9-54.3
			c32.1-8.9,42.2-22.5,81.4-26.7c39.2-4.2,52.1-22.4,69.6-28.5c17.4-6.1,11.6,11.3-13.6,28.8s-58.1,32.9-94.9,62
			s-28.9,57.3-69.5,65.7c-40.5,8.3-56.4-7-89.4,27.3C915.1,458.7,851.5,510,851.5,510z"/>
		<path class="st4" d="M732.4,194.3c0,0-38.9,85.3-45.4,147.6c-6.5,62.3,0,120,0,145c0,23.1-9.4,46.6-9.4,46.6s-11.1-46.9-26.6-95.4
			c-15.5-48.4-48.4-77.5-21.3-122.1C656.8,271.5,732.4,194.3,732.4,194.3z"/>
		<path class="st4" d="M776,619.9c14.4,4,27.6-0.5,54.6,22.2s104.5,29.9,149.1,28.2s96.9-25.6,129.8-20.4
			c32.9,5.2-48.9-8.7-105.3-11.5c-53.7-2.6-32.7-19.8-82.9-21.2c-50.2-1.3-155.2-11-155.2-11L776,619.9z"/>
		<path class="st4" d="M278.4,848.3c0,0-17-38.3-34.5-91.9c-17.6-53.6-37.6-51.7-18.8-118.9s31.7-73.6,26.6-124
			c-5.1-50.4-10.9-66.9-10.9-66.9s33.1,61.8,34,91.5c0.6,20.5,7.7,49.1-4.8,103.1c-12.4,54,7.4,92.4,9.6,130.6
			C280.9,793.6,278.4,848.3,278.4,848.3z"/>
		<path class="st4" d="M367.2,422.9c0,0-40.9-25.6-85.6-60.1s-60.1-21.6-82.4-87.7s-15.2-78.7-47.7-117.5S105,108.4,105,108.4
			s35.8,28.6,78.5,68.1c26.8,24.8,39.1,29.7,59.2,81.4s62,75,76.1,91.6C331,363.9,367.2,422.9,367.2,422.9z"/>
	</g>
</g>
<g id="Vaasjes">
	<g>
		<path class="st5" d="M1799,1452.6h-137.4c-24.9,0-45-20.2-45-45V543.4H1844v864.1C1844,1432.4,1823.8,1452.6,1799,1452.6z"/>
		<path class="st6" d="M1721.7,1452.6c-17.9,0-32.4-14.9-32.4-33.3V543.4h-47.7v875.9c0,18.4,14.5,33.3,32.4,33.3H1721.7z"/>
		<path class="st7" d="M1796.3,1419.3V543.4h47.7v875.9c0,18.4-14.5,33.3-32.4,33.3h-47.7
			C1781.8,1452.6,1796.3,1437.7,1796.3,1419.3z"/>
		<rect x="1616.5" y="559.3" class="st8" width="227.5" height="40"/>
		<rect x="1641.5" y="559.3" class="st9" width="47.7" height="40"/>
		<rect x="1796.3" y="559.3" class="st10" width="47.7" height="40"/>
		<path class="st6" d="M1861,571.2h-261.5c-11.3,0-20.5-9.2-20.5-20.5v-65.3c0-22.1,17.9-40.1,40.1-40.1h222.5
			c22.1,0,40.1,17.9,40.1,40.1v65.3C1881.5,562,1872.4,571.2,1861,571.2z"/>
		<path class="st11" d="M1852.7,445.3h-55.4c15.9,0,28.8,13.3,28.8,29.6V556c0,8.4-6.6,15.2-14.8,15.2h55.4
			c8.2,0,14.8-6.8,14.8-15.2v-81.1C1881.5,458.6,1868.6,445.3,1852.7,445.3z"/>
		<path class="st12" d="M1607.8,445.3h55.4c-15.9,0-28.8,13.3-28.8,29.6V556c0,8.4,6.6,15.2,14.8,15.2h-55.4
			c-8.2,0-14.8-6.8-14.8-15.2v-81.1C1579,458.6,1591.9,445.3,1607.8,445.3z"/>
		<rect x="1579" y="520.1" class="st7" width="302.6" height="5.5"/>
		<path class="st13" d="M1730.3,559.3c26.3,0,47.7-15.1,47.7-33.8h-95.4C1682.6,544.2,1703.9,559.3,1730.3,559.3z"/>
		<path class="st7" d="M1730.3,491.8c-26.3,0-47.7,15.1-47.7,33.8h95.4C1778,506.9,1756.6,491.8,1730.3,491.8z"/>
		<path class="st14" d="M1674.8,1070.1c0,6.9-5.4,12.4-12.1,12.4l0,0c-6.7,0-12.1-5.6-12.1-12.4V667.9c0-6.9,5.4-12.4,12.1-12.4l0,0
			c6.7,0,12.1,5.6,12.1,12.4V1070.1z"/>
	</g>
	<g>
		<g>
			<path class="st11" d="M442.1,1129.3c-31-31.2-48.5-73.5-48.5-117.5v-77.9H226.2v79.9c0,42.9-16.5,84.1-46.1,115.1l-37,38.8
				c-36.8,38.6-57.4,89.8-57.4,143.2v419.7c0,38.7,31.4,70.1,70.1,70.1H464c38.7,0,70.1-31.4,70.1-70.1v-417.3
				c0-54.8-15.9-107.3-54.5-146.2L442.1,1129.3z"/>
			<path class="st7" d="M479.7,1167l-37.6-37.8c-31-31.2-48.5-73.5-48.5-117.5v-77.9l-44.7,7.8l1.5,67.5c0,44,7.9,88.9,38.9,120.1
				l37.6,37.8c38.6,38.8,46,91.4,46,146.2v417.3c0,38.7-31.4,70.1-70.1,70.1H464c38.7,0,70.1-31.4,70.1-70.1v-417.3
				C534.1,1258.4,518.3,1205.9,479.7,1167z"/>
			<path class="st12" d="M245.8,1800.6c-38.7,0-70.1-31.4-70.1-70.1v-419.7c0-53.3,13.4-104.6,50.2-143.2l37-38.8
				c29.6-31,33.5-79.8,33.5-122.7v-69.5l-41.1-2.7v79.9c0,42.9-16.5,84.1-46.1,115.1l-37,38.8c-36.8,38.6-57.4,89.8-57.4,143.2
				v419.7c0,38.7,31.4,70.1,70.1,70.1H245.8z"/>
			<path class="st15" d="M132.4,1310.8c12.8,0,26.2-9.3,27.6-22.1c10.1-87.6,52.5-136.4,51.7-137.3l-27,28.2
				c-20.4,21.3-35.2,46.7-43.8,74.1C135.2,1272,132.4,1310.8,132.4,1310.8z"/>
			<rect x="233.7" y="1335.3" class="st6" width="300.4" height="353.7"/>
			<rect x="473" y="1335.3" class="st16" width="61.2" height="353.7"/>
			<rect x="230.6" y="1335.3" class="st7" width="85.4" height="353.7"/>
		</g>
		<path class="st5" d="M391.3,943.9H226.8c-7.4,0-13.5-6.1-13.5-13.5v0c0-7.4,6.1-13.5,13.5-13.5h164.5c7.4,0,13.5,6.1,13.5,13.5v0
			C404.8,937.8,398.7,943.9,391.3,943.9z"/>
	</g>
	<g>
		<path class="st15" d="M1516.9,813.6c-11.1-3.7-18.6-14.2-18.6-26.1v-47.4h-235v47.4c0,11.9-7.5,22.4-18.6,26.1
			c-27.3,9.1-47,35.1-47,65.9v470.2c0,20.9,16.7,37.9,37.2,37.9h291.7c20.5,0,37.2-16.9,37.2-37.9V879.5
			C1563.8,848.7,1544.1,822.7,1516.9,813.6z"/>
		<path class="st15" d="M1319.5,1387.6c-20.5,0-37.2-16.9-37.2-37.9V879.5c0-30.8,19.7-56.8,47-65.9c11.1-3.7,18.6-14.2,18.6-26.1
			v-47.4h-65.5v47.4c0,11.9-7.5,22.4-18.6,26.1c-27.3,9.1-47,35.1-47,65.9v470.2c0,20.9,16.7,37.9,37.2,37.9H1319.5z"/>
		<path class="st12" d="M1461.1,1387.6c20.5,0,37.2-16.9,37.2-37.9V879.5c0-30.8-19.7-56.8-47-65.9c-11.1-3.7-18.6-14.2-18.6-26.1
			v-47.4h65.5v47.4c0,11.9,7.5,22.4,18.6,26.1c27.3,9.1,47,35.1,47,65.9v470.2c0,20.9-16.7,37.9-37.2,37.9H1461.1z"/>
		<path class="st6" d="M1253.5,735.6v28c0,5.8,4.2,10.6,9.7,11.4v9.2h235v-9.2c5.5-0.8,9.7-5.6,9.7-11.4v-28H1253.5z"/>
		<polygon class="st6" points="1282.3,746.7 1282.3,784.3 1347.9,784.3 1347.9,740.1 		"/>
		<path class="st16" d="M1235.3,753.2c0.7,5.7,5.3,10.1,11.1,10.1h269.9c5.7,0,10.4-4.4,11.1-10.1H1235.3z"/>
		<rect x="1197.7" y="934.5" class="st11" width="366.1" height="330.5"/>
		<rect x="1498.3" y="934.5" class="st16" width="65.5" height="330.5"/>
		<rect x="1197.7" y="934.5" class="st16" width="65.5" height="330.5"/>
		<rect x="1197.7" y="924.9" class="st6" width="366.1" height="48.1"/>
		<rect x="1498.3" y="924.9" class="st5" width="65.5" height="48.1"/>
		<rect x="1197.7" y="924.9" class="st5" width="65.5" height="48.1"/>
		<path class="st17" d="M1469.5,1075.3h-176.2c-3.5,0-6.4-2.8-6.4-6.4v-43.1c0-3.5,2.8-6.4,6.4-6.4h176.2c3.5,0,6.4,2.8,6.4,6.4
			v43.1C1475.8,1072.4,1473,1075.3,1469.5,1075.3z"/>
		<path class="st17" d="M1400.8,1144.2h-107.5c-3.5,0-6.4-2.8-6.4-6.4v-25.1c0-3.5,2.8-6.4,6.4-6.4h107.5c3.5,0,6.4,2.8,6.4,6.4
			v25.1C1407.1,1141.4,1404.3,1144.2,1400.8,1144.2z"/>
	</g>
</g>
<g id="Pillen">
	<g>
		<g>
			<path class="st4" d="M967.3,1235.9l-90.9,12.2c-26.7,3.6-51.3-15.2-54.9-41.9l-0.9-7c-3.6-26.7,15.2-51.3,41.9-54.9l90.9-12.2
				L967.3,1235.9z"/>
			<path class="st18" d="M953.4,1132.2l90.9-12.2c26.7-3.6,51.3,15.2,54.9,41.9l0.9,7c3.6,26.7-15.2,51.3-41.9,54.9l-90.9,12.2
				L953.4,1132.2z"/>
		</g>
		<path class="st19" d="M851.2,1175.4l-0.2-1.8c-0.9-7,4-13.4,10.9-14.3l93.4-12.5l3.6,27.1l-93.4,12.5
			C858.6,1187.2,852.1,1182.3,851.2,1175.4z"/>
		<path class="st4" d="M1052.3,1161.3c7-0.9,11.9-7.4,10.9-14.3l-0.2-1.8c-0.9-7-7.4-11.9-14.3-10.9l-93.4,12.5l3.6,27.1
			L1052.3,1161.3z"/>
		<g>
			<path class="st20" d="M873.6,1227.6c-24.4,3.3-46.8-12.2-53.3-35.3c0,2.3-0.1,4.5,0.2,6.8l0.9,7c3.6,26.7,28.1,45.5,54.9,41.9
				l90.9-12.2l-2.7-20.5L873.6,1227.6z"/>
			<path class="st20" d="M1055.4,1203.3l-90.9,12.2l2.7,20.5l90.9-12.2c26.7-3.6,45.5-28.1,41.9-54.9l-0.9-7c-0.3-2.3-1-4.5-1.6-6.6
				C1097.4,1179.2,1079.8,1200,1055.4,1203.3z"/>
		</g>
	</g>
	<g>
		<g>
			<path class="st4" d="M841.1,1326l-95.5-9.3c-28.1-2.7-48.6-27.7-45.8-55.8l0.7-7.4c2.7-28.1,27.7-48.6,55.8-45.8l95.5,9.3
				L841.1,1326z"/>
			<path class="st18" d="M851.7,1217.1l95.5,9.3c28.1,2.7,48.6,27.7,45.8,55.8l-0.7,7.4c-2.7,28.1-27.7,48.6-55.8,45.8l-95.5-9.3
				L851.7,1217.1z"/>
		</g>
		<path class="st19" d="M737.4,1236.7l0.2-1.9c0.7-7.3,7.2-12.7,14.6-12l98.1,9.6l-2.8,28.5l-98.1-9.6
			C742,1250.5,736.7,1244,737.4,1236.7z"/>
		<path class="st4" d="M945.5,1270.4c7.3,0.7,13.9-4.6,14.6-12l0.2-1.9c0.7-7.3-4.6-13.9-12-14.6l-98.1-9.6l-2.8,28.5L945.5,1270.4z
			"/>
		<g>
			<path class="st20" d="M747.7,1295.2c-25.6-2.5-44.8-23.6-45.8-48.6c-0.6,2.3-1.2,4.6-1.4,7l-0.7,7.4c-2.7,28.1,17.8,53,45.8,55.8
				l95.5,9.3l2.1-21.5L747.7,1295.2z"/>
			<path class="st21" d="M938.6,1313.8l-95.5-9.3l-2.1,21.5l95.5,9.3c28.1,2.7,53-17.8,55.8-45.8l0.7-7.4c0.2-2.4,0.1-4.8,0-7.1
				C987.1,1299.3,964.2,1316.3,938.6,1313.8z"/>
		</g>
	</g>
</g>
<g id="Tekst">
	<g>
		<path class="st14" d="M495.2,1463.5h55.4c44.4,0,74.4,29.2,74.4,70c0,40.8-30,70-74.4,70h-55.4V1463.5z M549.8,1594.3
			c39.6,0,65-25.2,65-60.8s-25.4-60.8-65-60.8h-44.4v121.6H549.8z"/>
		<path class="st14" d="M748.6,1499.1v104.4H739v-22.4c-6.8,14.6-21,23.2-39.4,23.2c-26.6,0-43.6-15-43.6-44.2v-61h10v60.2
			c0,23.6,12.6,36,34.4,36c23.6,0,38.2-15.8,38.2-40.6v-55.6H748.6z"/>
		<path class="st14" d="M882.4,1499.1v104.4h-9.6v-22.4c-6.8,14.6-21,23.2-39.4,23.2c-26.6,0-43.6-15-43.6-44.2v-61h10v60.2
			c0,23.6,12.6,36,34.4,36c23.6,0,38.2-15.8,38.2-40.6v-55.6H882.4z"/>
		<path class="st14" d="M974.2,1498.3v9.8c-0.8,0-1.6-0.2-2.4-0.2c-23.2,0-37,15.4-37,41.2v54.4h-10v-104.4h9.6v22.8
			C940.8,1506.7,954.6,1498.3,974.2,1498.3z"/>
		<path class="st14" d="M1074.2,1594.9v8.6h-83v-6.8l68.8-89h-67.8v-8.6h80.8v6.8l-69,89H1074.2z"/>
		<path class="st14" d="M1179.6,1537.3v66.2h-9.6v-18.6c-6.6,12-19.4,19.4-37.6,19.4c-23.4,0-37.6-12-37.6-29.8
			c0-15.8,10-29.2,39-29.2h35.8v-8.4c0-19.4-10.6-29.8-31-29.8c-14.4,0-27.4,5.4-36,13.2l-5-7.2c10.4-9.2,25.6-14.8,41.8-14.8
			C1165.2,1498.3,1179.6,1511.5,1179.6,1537.3z M1169.6,1572.7v-19.6H1134c-21.6,0-29.2,9-29.2,21c0,13.6,10.6,22,29,22
			C1151.4,1596.1,1163.6,1587.7,1169.6,1572.7z"/>
		<path class="st14" d="M1296.2,1537.3v66.2h-9.6v-18.6c-6.6,12-19.4,19.4-37.6,19.4c-23.4,0-37.6-12-37.6-29.8
			c0-15.8,10-29.2,39-29.2h35.8v-8.4c0-19.4-10.6-29.8-31-29.8c-14.4,0-27.4,5.4-36,13.2l-5-7.2c10.4-9.2,25.6-14.8,41.8-14.8
			C1281.8,1498.3,1296.2,1511.5,1296.2,1537.3z M1286.2,1572.7v-19.6h-35.6c-21.6,0-29.2,9-29.2,21c0,13.6,10.6,22,29,22
			C1268,1596.1,1280.2,1587.7,1286.2,1572.7z"/>
		<path class="st14" d="M1509,1542.5v61h-10v-60.2c0-23.6-12.2-36-32.6-36c-23.6,0-38.2,15.8-38.2,40.6v55.6h-10v-60.2
			c0-23.6-12.2-36-32.6-36c-23.6,0-38.2,15.8-38.2,40.6v55.6h-10v-104.4h9.6v22.4c6.8-14.6,21-23.2,40-23.2
			c18.8,0,32.6,8.6,38.2,25.2c6.8-15.2,22-25.2,42.2-25.2C1492.6,1498.3,1509,1513.3,1509,1542.5z"/>
		<path class="st14" d="M370.7,1772.5v61h-10v-60.2c0-23.6-12.2-36-32.6-36c-23.6,0-38.2,15.8-38.2,40.6v55.6h-10v-60.2
			c0-23.6-12.2-36-32.6-36c-23.6,0-38.2,15.8-38.2,40.6v55.6h-10v-104.4h9.6v22.4c6.8-14.6,21-23.2,40-23.2
			c18.8,0,32.6,8.6,38.2,25.2c6.8-15.2,22-25.2,42.2-25.2C354.3,1728.3,370.7,1743.3,370.7,1772.5z"/>
		<path class="st14" d="M500.3,1783.7h-89.8c1,24.8,19.2,41.6,44.2,41.6c13.2,0,25.4-4.8,33.4-14.6l5.8,6.6
			c-9.2,11.2-23.6,17-39.4,17c-31.6,0-53.8-22-53.8-53c0-31,21.4-53,50-53c28.6,0,49.8,21.6,49.8,52.6
			C500.5,1781.7,500.3,1782.7,500.3,1783.7z M410.7,1775.9h80c-1.4-22.6-17.8-38.8-40-38.8C428.5,1737.1,412.3,1753.1,410.7,1775.9z
			"/>
		<path class="st14" d="M624.3,1685.1v148.4h-9.8v-24.6c-8.2,16.2-24,25.4-42.8,25.4c-29.4,0-51.6-21.8-51.6-53
			c0-31.4,22.2-53,51.6-53c18.6,0,34.2,9.2,42.6,25v-68.2H624.3z M614.3,1781.3c0-26.2-18-44-42-44s-42,17.8-42,44
			c0,26.2,18,44,42,44S614.3,1807.5,614.3,1781.3z"/>
		<path class="st14" d="M663.3,1695.7c0-4.4,3.6-8.2,8.2-8.2c4.6,0,8.2,3.6,8.2,8c0,4.6-3.6,8.2-8.2,8.2
			C666.9,1703.7,663.3,1700.1,663.3,1695.7z M666.5,1729.1h10v104.4h-10V1729.1z"/>
		<path class="st14" d="M707.3,1781.3c0-31.2,22.2-53,52.8-53c16.6,0,31,6.4,39.6,19.2l-7.4,5.4c-7.6-10.6-19.2-15.6-32.2-15.6
			c-24.6,0-42.6,17.6-42.6,44s18,44,42.6,44c13,0,24.6-5,32.2-15.6l7.4,5.4c-8.6,12.6-23,19.2-39.6,19.2
			C729.5,1834.3,707.3,1812.3,707.3,1781.3z"/>
		<path class="st14" d="M826.5,1695.7c0-4.4,3.6-8.2,8.2-8.2c4.6,0,8.2,3.6,8.2,8c0,4.6-3.6,8.2-8.2,8.2
			C830.1,1703.7,826.5,1700.1,826.5,1695.7z M829.7,1729.1h10v104.4h-10V1729.1z"/>
		<path class="st14" d="M843.1,1866.1l4-7.4c4.2,3.8,10.2,5.8,17,5.8c12.2,0,18.8-7.4,18.8-21v-114.4h10v114.8
			c0,17.6-10,29.2-28.2,29.2C856.3,1873.1,848.1,1870.9,843.1,1866.1z M879.7,1695.7c0-4.4,3.6-8.2,8.2-8.2c4.6,0,8.2,3.6,8.2,8
			c0,4.6-3.6,8.2-8.2,8.2C883.3,1703.7,879.7,1700.1,879.7,1695.7z"/>
		<path class="st14" d="M1028.5,1772.5v61h-10v-60.2c0-23.6-12.6-36-33.8-36c-24.6,0-39.6,15.8-39.6,40.6v55.6h-10v-104.4h9.6v22.6
			c7-14.6,21.6-23.4,41.4-23.4C1011.5,1728.3,1028.5,1743.3,1028.5,1772.5z"/>
		<path class="st14" d="M1163.9,1729.1v93.2c0,35-17,50.8-50.6,50.8c-19,0-37.2-6-47.8-16.6l5.4-7.6c10.4,9.6,25.4,15.2,42.2,15.2
			c27.8,0,40.8-12.8,40.8-40.6v-17.6c-8.6,15.2-24.6,23.8-43.4,23.8c-29.6,0-52-21-52-50.8s22.4-50.6,52-50.6
			c19.2,0,35.4,8.8,43.8,24.4v-23.6H1163.9z M1154.1,1778.9c0-24.6-18-41.6-42.8-41.6c-24.6,0-42.6,17-42.6,41.6s18,41.8,42.6,41.8
			C1136.1,1820.7,1154.1,1803.5,1154.1,1778.9z"/>
		<path class="st14" d="M1294.5,1783.7h-89.8c1,24.8,19.2,41.6,44.2,41.6c13.2,0,25.4-4.8,33.4-14.6l5.8,6.6
			c-9.2,11.2-23.6,17-39.4,17c-31.6,0-53.8-22-53.8-53c0-31,21.4-53,50-53s49.8,21.6,49.8,52.6
			C1294.7,1781.7,1294.5,1782.7,1294.5,1783.7z M1204.9,1775.9h80c-1.4-22.6-17.8-38.8-40-38.8
			C1222.7,1737.1,1206.5,1753.1,1204.9,1775.9z"/>
		<path class="st14" d="M1429.7,1781.3c0,31.2-22.2,53-51.6,53c-18.8,0-34.6-9.4-42.8-25.4v24.6h-9.6v-148.4h10v67.8
			c8.4-15.6,24-24.6,42.4-24.6C1407.5,1728.3,1429.7,1749.9,1429.7,1781.3z M1419.7,1781.3c0-26.2-18.2-44-42.2-44
			c-24,0-42,17.8-42,44c0,26.2,18,44,42,44C1401.5,1825.3,1419.7,1807.5,1419.7,1781.3z"/>
		<path class="st14" d="M1510.1,1728.3v9.8c-0.8,0-1.6-0.2-2.4-0.2c-23.2,0-37,15.4-37,41.2v54.4h-10v-104.4h9.6v22.8
			C1476.7,1736.7,1490.5,1728.3,1510.1,1728.3z"/>
		<path class="st14" d="M1630.9,1729.1v104.4h-9.6v-22.4c-6.8,14.6-21,23.2-39.4,23.2c-26.6,0-43.6-15-43.6-44.2v-61h10v60.2
			c0,23.6,12.6,36,34.4,36c23.6,0,38.2-15.8,38.2-40.6v-55.6H1630.9z"/>
		<path class="st14" d="M1670.1,1695.7c0-4.4,3.6-8.2,8.2-8.2c4.6,0,8.2,3.6,8.2,8c0,4.6-3.6,8.2-8.2,8.2
			C1673.7,1703.7,1670.1,1700.1,1670.1,1695.7z M1673.3,1729.1h10v104.4h-10V1729.1z"/>
		<path class="st14" d="M1762.7,1777.7l-27.2,24.8v31h-10v-148.4h10v105l66.8-61h12.8l-45,42.2l49.4,62.2h-12.4L1762.7,1777.7z"/>
	</g>
</g>
</svg>
