<?xml version="1.0" encoding="utf-8"?>
<!-- Generator: Adobe Illustrator 25.2.3, SVG Export Plug-In . SVG Version: 6.00 Build 0)  -->
<svg version="1.1" xmlns="http://www.w3.org/2000/svg" xmlns:xlink="http://www.w3.org/1999/xlink" x="0px" y="0px"
	 viewBox="0 0 2000 2000" style="enable-background:new 0 0 2000 2000;" xml:space="preserve">
<style type="text/css">
	.st0{fill:#F39EC6;}
	.st1{fill:none;stroke:#B6B6B6;stroke-width:10;stroke-linecap:round;}
	.st2{fill:#FBDFEC;}
	.st3{fill:#494949;}
	.st4{fill:#242424;}
	.st5{fill:#E37B7B;}
	.st6{fill:#FFA9A8;}
	.st7{fill:#FFFFFF;}
	.st8{fill:#AEAECF;}
	.st9{fill:#9A9AB5;}
	.st10{fill:#EEB9B5;}
	.st11{fill:#EB5D9F;}
	.st12{fill:#6D6D6D;}
	.st13{fill:none;stroke:#F7BED9;stroke-width:9.8874;stroke-linecap:round;stroke-linejoin:round;stroke-miterlimit:10;}
	.st14{fill:#EAA8A3;}
	.st15{fill:#975954;}
	.st16{fill:#E31C79;}
	.st17{fill:#E69690;}
	.st18{fill:#E2857E;}
	.st19{fill:#EF7DB2;}
	.st20{fill:#B6B6B6;}
	.st21{fill:#71433F;}
	.st22{fill:#BC6F69;}
	.st23{fill:#DBDBDB;}
	.st24{opacity:0.43;}
	.st25{fill:#C2E0F2;}
</style>
<g id="Achtergrond">
	<polygon class="st0" points="2000,2000 1543,2000 0,2000 0,0 1709.8,0 2000,290 	"/>
	<g>
		<line class="st1" x1="1762.7" y1="66.1" x2="1946.9" y2="66.1"/>
		<line class="st1" x1="1762.7" y1="107.4" x2="1946.9" y2="107.4"/>
		<line class="st1" x1="1762.7" y1="148.6" x2="1946.9" y2="148.6"/>
		<line class="st1" x1="1762.7" y1="189.9" x2="1946.9" y2="189.9"/>
		<polygon class="st2" points="1999.8,290 1709.8,290 1709.8,0 		"/>
	</g>
</g>
<g id="Tafeldame-1">
	<g>
		<path class="st3" d="M1441.6,414.1c0,0-97.7,291.4,67.7,310.4C1674.6,743.5,1690,517,1690,517L1441.6,414.1z"/>
		<path class="st4" d="M1459,414.1c0,0-51.2,251.8,25.9,253.6c95.6,2.2,95.3-301.9,95.3-301.9L1459,414.1z"/>
		<line class="st5" x1="1393.9" y1="1546.1" x2="1610.6" y2="1582.9"/>
		<path class="st6" d="M1314.8,1583.1L1314.8,1583.1c30.4,5.2,58.5-10.4,62.5-34.6l-7.7-93.9c4-24.3-1.1-7.6-31.6-12.9h0
			c-30.4-5.2-30.4-29-48.3,15.7l-9.7,68.8c-1.3,9-1.4,18.1,0.4,27C1283.7,1569.8,1290.9,1579,1314.8,1583.1z"/>
		<path class="st7" d="M1367.6,805.8l-54.7,275.6c0,0-34.6,101.9-19.6,361.2l70.5,15.5l65.5-337.1l16.5-377l0,0
			C1411.5,728.2,1374.1,768.7,1367.6,805.8z"/>
		<line class="st6" x1="1600.3" y1="1608.6" x2="1824.2" y2="1623.3"/>
		<path class="st8" d="M1783.1,1303.9c-123.4-14.3-385.4-55.6-385.4-55.6"/>
		<path class="st9" d="M1783.1,1304c-28.1-3.3-63.5-7.9-101.4-13.2c8.6,73,25.9,192.7,59.8,388.4"/>
		<path class="st10" d="M1400.7,849.5c0,0-5.4-196.7,102.4-197.2c15-0.1,39.7-14.8,57-14.5c90,1.5,77.3,2.4,143.3,25.4
			c24.9,8.7,42.7,79.2,39.6,105.9l42.4,78.5C1640.2,898.8,1505.4,919.1,1400.7,849.5z"/>
		<path class="st11" d="M1484.9,647c9.3-1.5,16.3,8.2,11.9,16.6c-13.7,26.2-33.3,71.9-48.8,109.6c-14.7,35.5,8.2,76.1,46.3,80.6
			c180.9,21.7,180.7-205.6,186.8-202.1l35.9,13c193.5,51.4,148.9,105.3,105.4,209.5c0,0-51.1,182.5-50.6,256.7
			c0.5,64.2,61.6,161.1,73.2,181.2c15.1,26.1-64.7,195.8-312.7,176.6c-195.4-15.1-176.3-96.1-176.1-202.3
			c0.1-66.8,34.2-246.2,31.3-299.1c-2.9-52.8-44.9-90.9-19.8-176.9c13.9-47.6,30.6-89.9,42.7-118.1c9.7-22.6,30.4-38.4,54.7-42.2
			L1484.9,647z"/>
		<path class="st10" d="M1583.5,697.2l-6.3,1c-21.3,3.2-40.4-11.2-42.4-32.2l-11.5-118.2c-2-21,13.7-40.8,35-44l6.3-1
			c21.3-3.2,53.4,4.9,55.4,25.8l17.4,125.3C1639.4,674.8,1604.8,693.9,1583.5,697.2z"/>
		<path class="st10" d="M1653.4,378.5c-16.1-33.1-44-41.4-71.6-26.1c-24.9-13.6-57.2-0.6-83.3,37.9
			c-36.3,53.6-51.9,142.8-28.4,191.1c10.2,21.1,28.8,27.3,46.5,29.4c16.6,2,33.7,0.4,50.3-4.1c59.2-16,59.5-7.4,83.7-43.1
			C1687,510,1676.9,426.7,1653.4,378.5z"/>
		<path class="st3" d="M1615.1,395.2c17.3,56.9,12.3,184.5,14.3,201.6c0,0,116.3,3.6,108.8-128.4c-9.3-164.3-107.1-87.5-107.1-87.5
			L1615.1,395.2z"/>
		<g>
			<g>
				<path class="st7" d="M1495.2,565c0,0-14.2-7.9-8.9-37.9l24.7,7.5l29.7,9C1528.7,562.6,1517,573.2,1495.2,565z"/>
			</g>
		</g>
		<path class="st7" d="M1834.6,1290.8c-33.7-88.6,25.5-334.8,25.5-334.8s24.2-165.7,0-215.5c-24.2-49.9-140.8-80.6-140.8-80.6
			s-6.2,46.4-42.5,106.1c-55.6,91.7-69.2,256.2-59.5,390.3c9.7,134,20.2,421.4,20.2,421.4"/>
		<path class="st7" d="M1355.6,1254.4l21.7-312c0,0-56-74.5,0-185.6c44.1-87.5,47.1-89.8,50.1-92.4c18.2-15.5,57.5-17.4,57.5-17.4
			s-84.7,141.8-84.3,219.8c0.5,77.9,11.8,710.9,11.8,710.9"/>
		<path class="st12" d="M1401.4,1325.9l167.9,36c32.8,7,51.1-10.3,40.6-38.6l-95.1-255.5c-10.5-28.3-46-57.1-78.8-64.2l-167.9-36
			c-32.8-7-51.1,10.3-40.6,38.6l95.1,255.5C1333.1,1290,1368.6,1318.9,1401.4,1325.9z"/>
		<path class="st10" d="M1446.5,1212.9l4.2,14c4.8,11.3,3.3,16.2,38.1,29.2l71,3.8c35.3,0,37.1-15.5,35.2-37.4l0,0
			c-1.9-21.9-22.8-58.2-44.1-57.7l4.2,11.1l2.9,8l-36.3,1.6l-41.9-4.9C1458.4,1181.1,1444.5,1191,1446.5,1212.9z"/>
		<path class="st7" d="M1862.7,747c0,0,172.1,397.7,93,513.4c-72.9,106.7-375.6-4.5-375.6-4.5l-4.9-104.1l240.4-35.9l-45-286
			L1862.7,747z"/>
		<path class="st13" d="M1700,1156.3c0,0,140.4,27.7,145.7-16.8c5.3-44.5-61.3-223.1-61.3-223.1"/>
		<path class="st14" d="M1528.7,611.6c0,0,51,4.6,87.2-43.8c0,0-36.4,70.3-83.3,76.5L1528.7,611.6z"/>
		<path class="st3" d="M1629.4,596.8c0,0-39.9,97.2-21.5,143.7c29.6,74.9,82.4-48.8,124.9-76.6c46.4-30.4,5.8-57,5.7-150.9
			c-0.1-158.2-50.1-47.3-50.1-47.3L1629.4,596.8z"/>
		<path class="st10" d="M1670,533.6c-9.3,20.4-31.5,34-49.5,30.4c-18-3.6-25-23.1-15.7-43.5c9.3-20.4,31.5-34,49.5-30.4
			C1672.4,493.8,1679.4,513.2,1670,533.6z"/>
		<path class="st3" d="M1653.3,419.9c-54.4-26.4-116.8-75-217,73.2c-7.1,10.4,13.4-59.7,1.2-50.6c-6.5-14.4,15.4-59.9,36.9-73.7
			c44.7-28.9,67.5-44.6,114.6-52l11.3-0.6c68.5-3.4,102.9,25,113.5,91.3c0.9,5.8,10.9,32.8,11,37.7l-21.3-8.6
			C1704.1,475.6,1692.7,417,1653.3,419.9z"/>
	</g>
	<path class="st15" d="M1498.7,464.9c-3.2,3.6-3.6,9.2-1,12.5c2.6,3.3,7.4,3,10.6-0.7c3.2-3.6,3.6-9.2,1-12.5
		C1506.6,461,1501.9,461.3,1498.7,464.9z"/>
	<path class="st15" d="M1558.6,478c-3.2,3.6-3.6,9.2-1,12.5c2.6,3.3,7.4,3,10.6-0.7c3.2-3.6,3.6-9.2,1-12.5
		C1566.5,474,1561.8,474.3,1558.6,478z"/>
</g>
<g id="Tafel">
	<polygon class="st16" points="0,1717.3 1064.6,1116 2000,1369.7 2000,2000 0,2000 	"/>
</g>
<g id="Tafeldame-2">
	<g>
		<g>
			<g>
				<g>
					<path class="st17" d="M606.5,846.1c0,0,47,69.6,73.8,215.8c23.5,128.1,44.1,175.4,78,201.6c33.9,26.3,222.9,103.8,222.9,103.8
						l-14.1,33.1c0,0-276.9-37.7-308-84c-31.1-46.3-149.7-319.8-140.5-382.7C527.7,870.8,606.5,846.1,606.5,846.1z"/>
					<path class="st2" d="M542.1,392c-21.2-14-47.6-17.2-66.2-17.3c5.1-4.6,14.6-5.8,14.6-5.8c-11.4-2.5-37.7,7.2-37.7,7.2
						c-155.6-72.2-196.3,161.2-196.6,216.1c-0.3,54.8-4.1,117.7-87.1,161.4c-163.2,85.9-42.1,263-42.1,263
						c1.2,0.8,108.8,143.3,108.8,143.3c-1.1-44.4,174.1-279.8,285-342.4c28.4-36.4,42.1-103,43.1-108.2c-8,53-19.1,82.3-28.4,98.6
						C630.9,731,598.4,429.1,542.1,392z"/>
					<path class="st17" d="M351.4,766c0,0,44.6-4.2,89.2,0c30.3,2.9,60.3,12.3,77.4,19.4c42.2,17.6,37.8,92.3-50.8,78.5
						C378.6,850.1,345.2,788.1,351.4,766z"/>
					<path class="st17" d="M514.2,820.5c0.5,0.3,12.6,64.3-45.3,61.7c-38.1-1.7-120.1-47.7-112.9-80.3c3.4-15.5,32.2-55.7,38-147.4
						l6.9,1.9l116.5,31.2c0,0-5.2,37-7.6,72C507.7,788.9,507.7,816.9,514.2,820.5z"/>
					<path class="st18" d="M517.4,687.6c0,0-5.2,37-7.6,72c-65.9-6.3-96.8-68.9-108.9-103.2L517.4,687.6z"/>
					<path class="st2" d="M389.5,642.6c0,0-31-57-36.2-104.3c-3.7-33.8,21.6-156.4,144.7-130.3c0,0,35.9,6,68.3,31.2
						c25.8,20,62.1,62,11.4,167.1L564,642L389.5,642.6z"/>
					<path class="st17" d="M537.2,722.2c0,0-156.5-7.8-150.1-105.2c6.4-97.4-9.5-163.9,90.7-163.1c100.2,0.9,117.1,39.3,122.9,72.3
						C606.4,559.3,578.1,721.7,537.2,722.2z"/>
					<path class="st2" d="M549.1,456.3c0,0-50.4,111.4-117.2,123.9c-66.8,12.5-94.1-7-94.1-7s2.6-70.3,17.7-139.4
						C355.5,433.7,520.5,399.8,549.1,456.3z"/>
					<path class="st2" d="M537.9,464.8c0,0,30.3,27.6,36.4,52.9c6.1,25.3,6.2,76.6,21.2,75.8c0,0,37.4-75.5,4.1-121.8
						C564.3,422.7,537.9,464.8,537.9,464.8z"/>
					<path class="st19" d="M693.8,1420.2c-12.7,15.1-52.2,19.8-94.4,26.7c-33.2,5.5-68.2,12.4-93,27
						c-56.4,33.1-240.7,145-294.7,139.9c-20.9-2-17-41.9-4.3-95c20-83.8,61.8-200.1,61.8-250.7c0-27.6,9.2-92.9,21.4-167.6
						c1-6,2-12.1,3-18.2C317.8,937.2,351.4,766,351.4,766s37.5,81.8,110.5,81.8c73,0,56-62.4,56-62.4s66.6,7.8,82.4,24.8
						c15.8,17,55.7,90.2,63.6,110.2c0,0,1.6,25.4-61.4,37.5c0,0,15.3,69,17.2,115.1c1.4,34-23.2,140.4-30.3,206.6
						c-2.5,23.4-2.8,41.8,1,50.2c4.9,10.7,20.6,21.3,38.6,31.8C664.5,1382.3,708.8,1402.2,693.8,1420.2z"/>
					<path class="st11" d="M576.9,1396.9c-15.1,67.8-57.5,54.3-82.4,68.9c-56.4,33.1-228.9,153.2-282.9,148.1
						c-20.9-2-17-41.9-4.3-95c20-83.8,61.8-200.1,61.8-250.7c0-27.6,9.2-92.9,21.4-167.6l65-62.4c0,0,69.7,180,136.1,209.5
						c34.8,15.4,71.1,25.7,97.9,31.9c-2.5,23.4-2.8,41.8,1,50.2C595.3,1340.5,558.9,1386.4,576.9,1396.9z"/>
					<path class="st17" d="M331.4,819.9c0,0-55.6-33.8-109.3,30.3c-53.7,64,38.2,521.8,117.8,545.3c88.5,26.1,344-4.2,344-4.2
						l-4.9-39.9c0,0-272-52.2-283.3-66.7C384.3,1270.1,359.7,827.3,331.4,819.9z"/>
					<path class="st11" d="M351.4,766c0,0-114.2,10.3-147.3,47.8c-33.2,37.5-42.8,139.3-42.8,139.3s100.5,81.1,221.6,49.7L351.4,766
						z"/>
					<g>
						<polygon class="st12" points="796.5,1572.2 596.1,1491.5 900.5,1312.4 844.5,1381.4 						"/>
					</g>
					<path class="st14" d="M631.3,1360.3c0,0,88.6-17.1,98.6-12.9c10,4.3,65.7,54.3,60,64.3c-5.7,10-28.6,17.1-54.3,8.6
						c-25.7-8.6-81.4-12.9-91.4-25.7C634.2,1381.8,631.3,1360.3,631.3,1360.3z"/>
				</g>
			</g>
		</g>
	</g>
	<path class="st20" d="M796.5,1572.2c0.9-8,7-326.6,7-326.6l398.1-204.6l-33.6,309.8L796.5,1572.2z"/>
	<polygon class="st16" points="0,1717.3 565,1402 683.9,1391.3 710.8,1406.1 669.5,1448.7 600,1448 201.6,1717.3 	"/>
	
		<ellipse transform="matrix(0.9969 -7.879798e-02 7.879798e-02 0.9969 -42.9984 46.518)" class="st21" cx="567.9" cy="568.1" rx="7.7" ry="11.7"/>
	
		<ellipse transform="matrix(0.9969 -7.879798e-02 7.879798e-02 0.9969 -43.508 42.2311)" class="st21" cx="513.4" cy="572.4" rx="7.7" ry="11.7"/>
	<circle class="st19" cx="386.9" cy="616.8" r="15.2"/>
	<path class="st22" d="M568.1,651.4c-6.2,1.3-10.4,7.5-16.8,8.2c-11.6,1.2-18-4.1-23.5-6.9c-4.5-2.2-2,2.8-1.2,3.8
		c13,17.4,32.7,15.3,45.4-2.1C572.2,653.9,572.1,650.5,568.1,651.4z"/>
	<g>
		<path class="st7" d="M826.4,1702.2v59.8H901v9.2h-74.6v61.8h-10.2v-140h93.6v9.2H826.4z"/>
		<path class="st7" d="M990.2,1702.2h-50.4v-9.2h111v9.2h-50.4V1833h-10.2V1702.2z"/>
		<path class="st7" d="M1055.6,1763c0-40.6,31-71,72.8-71c41.6,0,72.8,30.2,72.8,71c0,40.8-31.2,71-72.8,71
			C1086.6,1834,1055.6,1803.6,1055.6,1763z M1190.8,1763c0-35.4-26.8-61.6-62.4-61.6c-35.8,0-62.6,26.2-62.6,61.6
			s26.8,61.6,62.6,61.6C1164,1824.6,1190.8,1798.4,1190.8,1763z"/>
	</g>
	<text transform="matrix(1 0 0 1 2144.7803 443.4995)" style="font-family:'MyriadPro-Regular'; font-size:12px;">Lorem ipsum</text>
	<text transform="matrix(1 0 0 1 2085.5977 1517.3047)" style="font-family:'Montserrat-Light'; font-size:12px;">Lorem ipsum</text>
</g>
<g id="Tekst_balloon">
	<g>
		<g>
			<path class="st2" d="M1157.7,530.4L1157.7,530.4c79-5.7,141.7-92.3,141.7-198.3"/>
			<path class="st2" d="M1299.4,332.1c0-109.7-67.1-198.6-149.9-198.6H868c-82.8,0-149.9,88.9-149.9,198.6
				c0,109.7,67.1,198.6,149.9,198.6l289.7-0.3"/>
		</g>
		<g>
			<polyline class="st2" points="868.1,471.6 692.2,556.4 772.6,443.8 868.1,471.6 			"/>
			<polyline class="st2" points="1161.4,483.5 1310.1,554.6 1229.8,442 1161.4,483.5 			"/>
		</g>
	</g>
</g>
<g id="Medicijnen">
	<g>
		<g>
			<path class="st11" d="M1139.2,420.8l-239.4,49.9c-11.2,2.3-22.1-4.6-24.4-15.6l-35.3-169.2c-2.3-10.9,4.9-21.6,15.9-24
				c0.1,0,0.1,0,0.2,0l239.4-49.9c11.2-2.3,22.1,4.6,24.4,15.6l35.3,169.2c0.7,3.6,0.5,7.1-0.6,10.4
				C1152.5,413.8,1146.8,419.2,1139.2,420.8z"/>
		</g>
		<g>
			<g>
				<circle class="st23" cx="1073.6" cy="267.5" r="27.2"/>
			</g>
			<g class="st24">
				<g>
					<path class="st25" d="M1092.8,285.3c0.1-0.1,0.1-0.1,0.2-0.2c0.4-0.8-0.1-2.1-1.2-3.2l-33.7-31.4c-1.1-1.1-2.5-1.5-3.3-1
						c-0.1,0-0.2,0.1-0.2,0.2c-0.7,0.7-0.2,2.2,1.1,3.4l33.7,31.4C1090.6,285.6,1092.1,286,1092.8,285.3z"/>
				</g>
			</g>
			<g>
				<path class="st7" d="M1092.9,285.1c0.4-0.8-0.1-2.1-1.2-3.2l-33.7-31.4c-1.1-1.1-2.5-1.5-3.3-1L1092.9,285.1z"/>
			</g>
		</g>
		<g>
			<g>
				
					<ellipse transform="matrix(0.979 -0.204 0.204 0.979 -54.2037 231.7593)" class="st23" cx="1096.8" cy="378.7" rx="27.2" ry="27.2"/>
			</g>
			<g class="st24">
				<g>
					<path class="st25" d="M1116,396.6c0.1-0.1,0.1-0.1,0.2-0.2c0.4-0.8-0.1-2.1-1.2-3.2l-33.7-31.4c-1.1-1.1-2.5-1.5-3.3-1
						c-0.1,0-0.2,0.1-0.2,0.2c-0.7,0.7-0.2,2.2,1.1,3.4l33.7,31.4C1113.8,396.9,1115.3,397.3,1116,396.6z"/>
				</g>
			</g>
			<g>
				<path class="st7" d="M1116.1,396.3c0.4-0.8-0.1-2.1-1.2-3.2l-33.7-31.4c-1.1-1.1-2.5-1.5-3.3-1L1116.1,396.3z"/>
			</g>
		</g>
		<g>
			<g>
				<g>
					<circle class="st23" cx="988.8" cy="285.3" r="27.2"/>
				</g>
				<g class="st24">
					<g>
						<path class="st25" d="M1007.9,303.1c0.1-0.1,0.1-0.1,0.2-0.2c0.4-0.8-0.1-2.1-1.2-3.2l-33.7-31.4c-1.1-1.1-2.5-1.5-3.3-1
							c-0.1,0-0.2,0.1-0.2,0.2c-0.7,0.7-0.2,2.2,1.1,3.4l33.7,31.4C1005.7,303.5,1007.3,303.8,1007.9,303.1z"/>
					</g>
				</g>
				<g>
					<path class="st7" d="M1008.1,302.9c0.4-0.8-0.1-2.1-1.2-3.2l-33.7-31.4c-1.1-1.1-2.5-1.5-3.3-1L1008.1,302.9z"/>
				</g>
			</g>
			<g>
				<g>
					<circle class="st23" cx="1012" cy="396.6" r="27.2"/>
				</g>
				<g class="st24">
					<g>
						<path class="st25" d="M1031.1,414.4c0.1-0.1,0.1-0.1,0.2-0.2c0.4-0.8-0.1-2.1-1.2-3.2l-33.7-31.4c-1.1-1.1-2.5-1.5-3.3-1
							c-0.1,0-0.2,0.1-0.2,0.2c-0.7,0.7-0.2,2.2,1.1,3.4l33.7,31.4C1028.9,414.7,1030.4,415.1,1031.1,414.4z"/>
					</g>
				</g>
				<g>
					<path class="st7" d="M1031.3,414.2c0.4-0.8-0.1-2.1-1.2-3.2l-33.7-31.4c-1.1-1.1-2.5-1.5-3.3-1L1031.3,414.2z"/>
				</g>
			</g>
		</g>
		<g>
			<g>
				<g>
					<circle class="st23" cx="906.2" cy="302.5" r="27.2"/>
				</g>
				<g class="st24">
					<g>
						<path class="st25" d="M925.3,320.3c0.1-0.1,0.1-0.1,0.2-0.2c0.4-0.8-0.1-2.1-1.2-3.2l-33.7-31.4c-1.1-1.1-2.5-1.5-3.3-1
							c-0.1,0-0.2,0.1-0.2,0.2c-0.7,0.7-0.2,2.2,1.1,3.4l33.7,31.4C923.1,320.7,924.7,321,925.3,320.3z"/>
					</g>
				</g>
				<g>
					<path class="st7" d="M925.5,320.1c0.4-0.8-0.1-2.1-1.2-3.2l-33.7-31.4c-1.1-1.1-2.5-1.5-3.3-1L925.5,320.1z"/>
				</g>
			</g>
			<g>
				<g>
					<circle class="st23" cx="929.4" cy="413.8" r="27.2"/>
				</g>
				<g class="st24">
					<g>
						<path class="st25" d="M948.5,431.6c0.1-0.1,0.1-0.1,0.2-0.2c0.4-0.8-0.1-2.1-1.2-3.2l-33.7-31.4c-1.1-1.1-2.5-1.5-3.3-1
							c-0.1,0-0.2,0.1-0.2,0.2c-0.7,0.7-0.2,2.2,1.1,3.4l33.7,31.4C946.3,432,947.8,432.3,948.5,431.6z"/>
					</g>
				</g>
				<g>
					<path class="st7" d="M948.7,431.4c0.4-0.8-0.1-2.1-1.2-3.2l-33.7-31.4c-1.1-1.1-2.5-1.5-3.3-1L948.7,431.4z"/>
				</g>
			</g>
		</g>
		<g>
			
				<rect x="888.7" y="339.2" transform="matrix(0.979 -0.204 0.204 0.979 -48.8442 210.0436)" class="st0" width="211" height="5.4"/>
		</g>
	</g>
	<path class="st17" d="M631.3,1360.3c0,0,88.6-17.1,98.6-12.9c10,4.3,65.7,54.3,60,64.3c-5.7,10-28.6,17.1-54.3,8.6
		c-25.7-8.6-81.4-12.9-91.4-25.7C634.2,1381.8,631.3,1360.3,631.3,1360.3z"/>
</g>
</svg>
