<?xml version="1.0" encoding="utf-8"?>
<!-- Generator: Adobe Illustrator 25.2.3, SVG Export Plug-In . SVG Version: 6.00 Build 0)  -->
<svg version="1.1" xmlns="http://www.w3.org/2000/svg" xmlns:xlink="http://www.w3.org/1999/xlink" x="0px" y="0px"
	 viewBox="0 0 2000 2000" style="enable-background:new 0 0 2000 2000;" xml:space="preserve">
<style type="text/css">
	.st0{fill:#0099B8;}
	.st1{fill:#EBDFEF;stroke:#B6B6B6;stroke-width:10;stroke-linecap:round;}
	.st2{fill:#DBF0F5;}
	.st3{fill:#C2A0CE;}
	.st4{fill:#70228D;}
	.st5{fill:url(#SVGID_1_);}
	.st6{fill:#AD81BE;}
	.st7{fill:#84429D;}
	.st8{fill:none;stroke:#AD81BE;stroke-width:10.5563;stroke-miterlimit:10;}
	.st9{fill:#EBDFEF;}
	.st10{fill:#FFFFFF;}
	.st11{fill:#EAA8A3;}
	.st12{fill:#E69690;}
	.st13{fill:#9961AE;}
	.st14{fill:#491B02;}
	.st15{fill:#BC6F69;}
	.st16{fill:#D6C0DE;}
</style>
<g id="Achtergrond">
	<polygon class="st0" points="2000,2000 0,2000 0,0 1710,0 2000,290 	"/>
	<g>
		<line class="st1" x1="1762.9" y1="66.1" x2="1947.1" y2="66.1"/>
		<line class="st1" x1="1762.9" y1="107.4" x2="1947.1" y2="107.4"/>
		<line class="st1" x1="1762.9" y1="148.6" x2="1947.1" y2="148.6"/>
		<line class="st1" x1="1762.9" y1="189.9" x2="1947.1" y2="189.9"/>
		<polygon class="st2" points="2000,290 1710,290 1710,0 		"/>
	</g>
</g>
<g id="Computer">
</g>
<g id="Computer_1_">
</g>
<g id="Toestenbord">
	<g>
		<path class="st3" d="M1741.3,1342.9L733.7,1151.3c-44.6-0.5-80.2-33.4-79.1-73.2c0,0-0.6-20.1-1.8-53.3
			C646.5,861.2,624,392,624,392c0-59.8,15.2-59.9,72.7-59.8l1137.3,4.9c56-0.3,79.2,25.3,79.1,73.2l-88.7,861.4
			C1818.5,1344.8,1806.1,1354.3,1741.3,1342.9z"/>
		<path class="st4" d="M1772.5,1332c48.3,8.5,30,69.8,15.9,84.5L1469.7,1840c-25.5,30-65.8,36.3-125.9,19.8
			c0,0-1278.3-416.7-1305-425.7s-20.3-59.4-20.3-59.4"/>
		<path class="st4" d="M698.8,1158.1"/>
		<path class="st4" d="M610.9,1166.6"/>
		<linearGradient id="SVGID_1_" gradientUnits="userSpaceOnUse" x1="671.6677" y1="825.7174" x2="1820.8018" y2="825.7174">
			<stop  offset="0" style="stop-color:#70228D"/>
			<stop  offset="6.655797e-02" style="stop-color:#83409C"/>
			<stop  offset="0.1922" style="stop-color:#A472B6"/>
			<stop  offset="0.3206" style="stop-color:#C09DCD"/>
			<stop  offset="0.4496" style="stop-color:#D7C1DF"/>
			<stop  offset="0.5793" style="stop-color:#E8DCED"/>
			<stop  offset="0.71" style="stop-color:#F5EFF7"/>
			<stop  offset="0.8425" style="stop-color:#FDFBFD"/>
			<stop  offset="0.9793" style="stop-color:#FFFFFF"/>
			<stop  offset="0.982" style="stop-color:#EEE5F2"/>
			<stop  offset="0.9945" style="stop-color:#A271B5"/>
			<stop  offset="1" style="stop-color:#84429D"/>
		</linearGradient>
		<polygon class="st5" points="1745.2,1257.3 696.3,1068.4 671.7,394.2 1820.8,406.5 		"/>
		<path class="st6" d="M1343.9,1815.6l-1305-425.7c-29.5-10.2-27.2-24.9,7.9-38.5l564.1-229c18-6.3,45.9-17,87.9-8.5L1772.5,1332
			c34.6,6.2,30,25.5,15.9,40.2l-318.6,423.5C1444.2,1825.8,1404,1832,1343.9,1815.6z"/>
		<path class="st7" d="M824.7,1612.8l-401.4-125.4c-29.2-7.4-12.6-20.5,16.4-29.5l187.1-99.2c17.6-10.2,21.9-9.1,51-1.6l347.5,93
			c29.2,7.4,45.4,7.9,11.4,30.5L871.1,1603C860.9,1610.9,853.8,1620.2,824.7,1612.8z"/>
		<polygon class="st7" points="1571.1,1556 409.1,1246 661.3,1145 1724.9,1367.3 		"/>
		<path class="st8" d="M419,1294.5"/>
		<path class="st8" d="M733.7,1151.3"/>
		<path class="st8" d="M576.4,1318.5"/>
		<path class="st8" d="M786,1164.3"/>
		<path class="st8" d="M677.8,1357"/>
		<path class="st8" d="M839.6,1179.4"/>
	</g>
</g>
<g id="Dame_met_tekstballon">
	<path class="st9" d="M434.1,121.8h386.8c113.8,0,206,92.2,206,206c0,110-51.8,199.8-160.3,205.7l0,0v96.3l-154.2-96H434.1
		c-85.2,0.6-193.3-62.1-193.3-213.8S357.2,121.8,434.1,121.8"/>
	<g>
		
			<ellipse transform="matrix(0.6808 -0.7325 0.7325 0.6808 100.7152 1368.4177)" class="st6" cx="1620.4" cy="568.7" rx="93.3" ry="107"/>
		<g id="XMLID_4_">
			<path id="XMLID_6_" class="st10" d="M1619.7,589.3c-2.3-0.4-4.5-1.3-6.5-2.6l-37.6-25.1l-0.8,26.5c0,1.2,0.3,2.4,0.9,3.5
				c6.3,11.9,23.2,22.4,43.2,25.7c20,3.3,37.4-1.6,44.4-11.3c0.7-0.9,1-2,1.1-3.2l0.8-26.5l-38.8,12.5
				C1624.2,589.5,1622,589.7,1619.7,589.3z"/>
			<path id="XMLID_5_" class="st10" d="M1686.9,563l0.5-0.2c0.7-0.2,1.2-0.6,1.7-1.1c0,0,0.1-0.1,0.1-0.1c0,0,0.1-0.1,0.1-0.1
				c0.1-0.1,0.1-0.2,0.2-0.3c0.1-0.2,0.3-0.5,0.4-0.7c0,0,0-0.1,0-0.1c0-0.1,0-0.1,0.1-0.2c0,0,0-0.1,0-0.1c0-0.1,0-0.1,0-0.2
				c0,0,0-0.1,0-0.1c0-0.1,0-0.2,0-0.2c0,0,0,0,0-0.1c0-0.1,0-0.2,0-0.3c0,0,0,0,0,0c0.1-1.7-0.7-3.6-2.4-4.8l-44.1-29.4l-17.6-11.7
				c-0.3-0.2-0.6-0.4-0.9-0.5c-0.3-0.2-0.6-0.3-1-0.4c-0.5-0.2-1-0.3-1.5-0.5c-0.1,0-0.2,0-0.2-0.1c-0.1,0-0.2,0-0.2,0
				c-0.6-0.1-1.3-0.1-1.9-0.1c-0.2,0-0.4,0-0.5,0c-0.2,0-0.3,0-0.5,0.1c-0.3,0.1-0.6,0.1-0.9,0.2l-21.2,6.8l-42.5,13.7
				c-1.1,0.4-1.8,1.1-2.3,2c0,0.1-0.1,0.1-0.1,0.2c0,0,0,0.1,0,0.1c0,0.1,0,0.1-0.1,0.2c0,0,0,0.1,0,0.1c0,0.1,0,0.1-0.1,0.2
				c0,0,0,0,0,0.1c0,0.1,0,0.2-0.1,0.2c0,0,0,0,0,0.1c0,0.1,0,0.2,0,0.3c0,0,0,0,0,0c0,0.1,0,0.2,0,0.3c0,0,0,0,0,0
				c-0.1,1.1,0.3,2.3,1,3.4c0,0,0,0,0,0c0.1,0.1,0.1,0.2,0.2,0.3c0,0,0.1,0.1,0.1,0.1c0.1,0.1,0.2,0.2,0.3,0.3
				c0.1,0.1,0.1,0.1,0.2,0.2c0,0,0.1,0.1,0.1,0.1c0.2,0.1,0.3,0.3,0.5,0.4l61.7,41.2c1.2,0.8,2.5,1.3,3.9,1.5
				c1.3,0.2,2.7,0.1,3.9-0.3l57.6-18.6l-0.2,6.4l-0.6,19.2c-1.9,0.6-3.3,2.4-3.4,4.6l-0.4,13.8c0,1.5,1.2,3,2.8,3.2l6.2,1
				c1.6,0.3,2.9-0.8,2.9-2.3l0.4-13.8c0.1-2.2-1.2-4.4-3-5.7l0.7-21.9L1686.9,563z"/>
		</g>
	</g>
	<g>
		
			<ellipse transform="matrix(0.6808 -0.7325 0.7325 0.6808 -85.8762 1433.8148)" class="st6" cx="1602.2" cy="815.4" rx="92.6" ry="106.1"/>
		<g>
			<g>
				<path class="st6" d="M1655.7,836.5c-11.4-15.3-32.1-20.1-46.1-10.8c-14,9.3-16.1,29.3-4.7,44.6c11.4,15.3,32.1,20.1,46.1,10.8
					C1665,871.8,1667.1,851.8,1655.7,836.5z M1609.1,867.5c-9-12-7.9-27.5,2-35.8l34.4,46.1C1633.8,883.8,1618,879.5,1609.1,867.5z
					 M1649.6,875.1l-34.4-46.1c11.6-6,27.4-1.7,36.4,10.3C1660.5,851.3,1659.5,866.8,1649.6,875.1z"/>
				<path class="st10" d="M1645.4,877.8c-11.6,6-27.4,1.7-36.4-10.3c-9-12-7.9-27.5,2-35.8L1645.4,877.8z"/>
				<path class="st10" d="M1649.6,875.1l-34.4-46.1c11.6-6,27.4-1.7,36.4,10.3C1660.5,851.3,1659.5,866.8,1649.6,875.1z"/>
			</g>
			<g>
				<path class="st6" d="M1574.9,754.8c-14.9-3.5-28.2,5.4-29.7,19.7l-6.8,64c-1.5,14.4,9.3,28.9,24.2,32.4
					c14.9,3.5,28.2-5.4,29.7-19.7l6.8-64C1600.6,772.8,1589.8,758.3,1574.9,754.8z M1586.9,849.9c-1.2,11.5-11.9,18.6-23.8,15.8
					c-11.9-2.8-20.6-14.5-19.4-26l3.1-29.4l43.2,10.2L1586.9,849.9z M1593.8,785.9l-3.1,29.4l-43.2-10.2l3.1-29.4
					c1.2-11.5,11.9-18.6,23.8-15.8C1586.3,762.7,1595,774.4,1593.8,785.9z"/>
				<path class="st10" d="M1590.1,820.5l-3.1,29.4c-1.2,11.5-11.9,18.6-23.8,15.8c-11.9-2.8-20.6-14.5-19.4-26l3.1-29.4
					L1590.1,820.5z"/>
				<path class="st10" d="M1593.8,785.9l-3.1,29.4l-43.2-10.2l3.1-29.4c1.2-11.5,11.9-18.6,23.8-15.8
					C1586.3,762.7,1595,774.4,1593.8,785.9z"/>
			</g>
			<g>
				<path class="st6" d="M1654.3,762.7c-12.4-9.9-29.2-9-37.6,2l-37.4,49c-8.4,11-5.2,28,7.2,37.9c12.4,9.9,29.2,9,37.6-2l37.4-49
					C1669.9,789.6,1666.7,772.6,1654.3,762.7z M1619.7,846c-6.7,8.8-20.3,9.5-30.2,1.6c-9.9-7.9-12.5-21.5-5.8-30.4l17.2-22.5
					l35.9,28.8L1619.7,846z M1657.1,797l-17.2,22.5l-35.9-28.8l17.2-22.5c6.7-8.8,20.3-9.5,30.2-1.6
					C1661.2,774.6,1663.8,788.2,1657.1,797z"/>
				<path class="st10" d="M1636.9,823.5l-17.2,22.5c-6.7,8.8-20.3,9.5-30.2,1.6c-9.9-7.9-12.5-21.5-5.8-30.4l17.2-22.5L1636.9,823.5
					z"/>
				<path class="st10" d="M1657.1,797l-17.2,22.5l-35.9-28.8l17.2-22.5c6.7-8.8,20.3-9.5,30.2-1.6
					C1661.2,774.6,1663.8,788.2,1657.1,797z"/>
			</g>
		</g>
	</g>
	<g>
		<path class="st11" d="M1155.2,827.1c0,48.5,14.4,85.7,60.6,120c56.3,41.7,91.4,46.9,140.3,86.4c58.7,47.4,71.4,98.2,82.4,166.6
			l-621.9-111.5c0-7.8,25.7-69.9,36.9-104.6c10.7-33.1,37.9-44.4,98.4-58.8c71-16.9,64.7-76.9,56.7-150.7
			C1001.7,710.7,1155.2,742.9,1155.2,827.1z"/>
		<path class="st12" d="M1012.7,852.5c1.6-19.6-0.3-42-2.8-66.1c44.7,13.4,102,23.9,145,35.8c0.1,1.6,0.3,3.2,0.3,4.9
			c0,33.2,6.7,61.1,25.8,86.4C1155.7,936,1045.9,924.5,1012.7,852.5z"/>
		<path class="st9" d="M1204.1,938.1c3.8,2.6,7.7,5.8,11.7,9c54.6,44.4,91.4,46.9,140.3,86.4c58.7,47.4,71.4,98.2,82.4,166.6
			l-621.9-111.5c13.8-45.2,16.3-68.7,34.2-99.8c16.9-29.4,30.7-50,85.3-61.9c15.3-3.3,52.1-18.5,52.6-19.3
			c-1.5,20.1,8.3,66.2,85.6,83.5C1125.2,1002.5,1205.9,968.9,1204.1,938.1z"/>
		<path class="st4" d="M1217.5,948.6c48.1,27.5,84.1,38.9,134.2,79.2c60.1,48.5,75.5,102.3,86.7,172.3l-176.7-31.7
			C1265.2,1071.2,1246.3,996.2,1217.5,948.6z"/>
		<path class="st4" d="M911.9,1105.7l-102.8-18.4c3.4-25.4,14.5-74.7,30.6-100.5c20.9-33.3,51.8-55.4,91.7-65.1
			c17.9-4.4,38.8-6,42-7.6c0.8-0.4,0.5,0.4-1.3,2.6C904.1,998.3,911.9,1105.7,911.9,1105.7z"/>
		<path class="st11" d="M1209.6,652.4c5,35.8-1.8,54.7-4.1,87.1c-4.1,57.3-17.8,93.5-30.8,110.1c-23,29.4-65.3,36.5-88.9,30
			c-52.2-14.4-88.7-63.6-91.9-118c-2.8-48.7,5.2-54.4,0.7-92.1c-11.3-93.6,19.3-104,93.4-96.4C1151,579.5,1203.4,607.7,1209.6,652.4
			z"/>
		<path class="st13" d="M1017,599.2c0,0-22.1-57.2,24.1-78.6c50.8-23.5,114.2-5.7,161.9,54.6c25,31.6,30.3,27.8,38.8,22.2
			c5,15.4-10.4,20.6-10.4,20.6s18.9,9.6,25.5-6.5c7.3,20.6-6.8,46.1-24.8,53.1c-40.7,15.8-126.3-49.9-150-63
			C1042.2,579.5,1017,599.2,1017,599.2z"/>
		<path class="st13" d="M1055.1,580.8c0,0-43.5,5-49.1,41.2c-4.3,28,1,49.7-2.1,64.6c-4.9,23.8-10.4,22.2-10.4,22.2
			s-29.1,5.4-30.9-38.6c-1.8-44-3.7-126.2,56.1-129.8C1063.5,537.9,1055.1,580.8,1055.1,580.8z"/>
		<path class="st13" d="M1205.5,739.6c-3.6-64.3,9.2-67.9-4.8-110.6c-13-39.7-5.8-31,14.8-10.2c20.6,20.8,14.1,98.7,3.8,120
			C1208.9,760.1,1205.5,739.6,1205.5,739.6z"/>
		<path class="st11" d="M1001.2,700.6c-2.3-5.7-15.3-44.7-27.2-33.9c-7,6.3-7.6,27.7,0.2,46.6c7.3,17.6,22.8,34,26,35.3
			C1003.3,750,1001.2,700.6,1001.2,700.6z"/>
		<path class="st11" d="M1194.8,756.2c2.8-4.5,20.7-27,31.2-11.1c6.1,9.3-0.6,26.6-10.2,41.5c-8.9,13.8-25.8,22.7-29.1,22.5
			C1183.5,808.9,1194.8,756.2,1194.8,756.2z"/>
		<path class="st13" d="M1070,679.2c7.8,4.7,10.3-0.3,9.4-5.2c-0.8-4.4-8.7-12.5-16.2-16.6c-16.3-8.9-27.2-8.4-38.3-3.9
			c-11.3,4.6-13.7,11.4,4.4,11.9C1048.3,666.1,1059.1,672.6,1070,679.2z"/>
		<path class="st13" d="M1146.4,707.9c-7.8-0.1-8.6-6.2-6.6-10.2c1.8-3.6,10.4-6.5,17.8-6c15.9,1.2,24.9,7.9,33.2,18.5
			c8.4,10.8,8.7,18.4-6.7,8.5C1168,708.3,1157.3,708.1,1146.4,707.9z"/>
		<path class="st14" d="M1148.1,734.8c-0.9,6.3,2.7,12.8,8,14.5c5.3,1.7,10.3-2.1,11.1-8.4c0.9-6.3-2.7-12.8-8-14.5
			S1149,728.4,1148.1,734.8z"/>
		<path class="st14" d="M1043.2,705.9c-0.9,6.6,2.8,13.3,8.3,15c5.5,1.7,10.7-2.2,11.5-8.8c0.9-6.6-2.8-13.3-8.3-15
			C1049.2,695.4,1044,699.3,1043.2,705.9z"/>
		<g>
			<g>
				<path class="st15" d="M1119.5,709.7c-4.9,6.6-8.4,14.2-10.8,22.6c-2.1,8.4-2.8,18.1,0.5,28.2c0.9,2.5,1.8,5,3.2,7.3l1.9,3.5
					c0.5,0.9,1,1.8,1.4,2.7c0.9,1.6,1.4,3.3,1.3,3.8c-0.1,0.3,0.4,0-0.5,0.7c-1.9,1.2-6.2,1.5-10.1,1.7l-12.7,0.1l-0.1,1
					c4.2,2.6,8.5,4.7,13.1,6.1c4.6,1.3,9.3,2.5,15,0.8c1.4-0.6,3-1.4,4.1-3.1c1.2-1.6,1.7-3.9,1.6-5.9c-0.3-4-2-6.8-3.4-9.2
					c-0.8-1.2-1.6-2.3-2.4-3.4l-1.9-2.6c-1.3-1.6-2.2-3.5-3.1-5.3c-3.5-7.5-4-16.3-3-24.5c1-8.3,3.4-16.3,6.8-23.8L1119.5,709.7z"/>
			</g>
		</g>
		<path class="st15" d="M1140.5,828.6c0.5-2-1.5-5.9-3.4-4.7c-26.7,16.7-46.4,22.1-66.5-7.7c-11.1-16.3-13.5,8.8,6,23.2
			c16.3,12.1,25.8,11.3,37.3,8.2C1122.9,845.2,1139.4,833.3,1140.5,828.6z"/>
	</g>
</g>
<g id="Medicijnen">
	<g>
		
			<ellipse transform="matrix(0.4797 -0.8774 0.8774 0.4797 -52.4186 563.3947)" class="st7" cx="448.9" cy="325.9" rx="90.5" ry="90.5"/>
		<path class="st7" d="M535.2,298.9l-172.7,54.1c14.9,47.7,65.7,74.3,113.4,59.3C523.6,397.3,550.2,346.6,535.2,298.9z"/>
		<path class="st6" d="M374,349.4c-12.9-41.3,10.1-85.4,51.4-98.3c41.3-12.9,85.4,10.1,98.3,51.4c12.9,41.3-10.1,85.4-51.4,98.3
			C431,413.7,386.9,390.6,374,349.4z"/>
		<path class="st4" d="M535.2,298.9c-20.1,16.7-13.2,11.7-143.6,52.5c-8,2.6-22.3,2-29.1,1.6c0,0,2.4-1.9,6.6-4.9
			c14.9-10.5,12.5-8.7,18.2-10.4C515.2,297.6,510.1,296.6,535.2,298.9z"/>
		<path class="st7" d="M535.2,298.9l-172.7,54.1c6.8,0.4,21.2,1,29.1-1.6C522.1,310.5,515.2,315.6,535.2,298.9z"/>
	</g>
	<g>
		<g>
			<path class="st3" d="M747.4,380.1l105.9-0.5c31.1-0.2,56.2-25.5,56.1-56.6l0-8.2c-0.2-31.1-25.5-56.2-56.6-56.1l-105.9,0.5
				L747.4,380.1z"/>
			<path class="st7" d="M746.8,259.2l-105.9,0.5c-31.1,0.2-56.2,25.5-56.1,56.6l0,8.2c0.2,31.1,25.5,56.2,56.6,56.1l105.9-0.5
				L746.8,259.2z"/>
		</g>
		<path class="st16" d="M870.5,292.4l0-2.1c0-8.1-6.7-14.7-14.8-14.7l-108.8,0.5l0.2,31.6l108.8-0.5
			C864,307.2,870.6,300.6,870.5,292.4z"/>
		<path class="st13" d="M638.3,308.3c-8.1,0-14.8-6.5-14.8-14.7l0-2.1c0-8.1,6.5-14.8,14.7-14.8l108.8-0.5l0.2,31.6L638.3,308.3z"/>
		<g>
			<path class="st6" d="M853.2,355.8c28.4-0.1,51.6-21.4,55.3-48.8c0.4,2.6,0.8,5.2,0.8,7.8l0,8.2c0.2,31.1-25,56.5-56.1,56.6
				l-105.9,0.5l-0.1-23.9L853.2,355.8z"/>
			<path class="st4" d="M641.4,356.8l105.9-0.5l0.1,23.9l-105.9,0.5c-31.1,0.2-56.5-25-56.6-56.1l0-8.2c0-2.7,0.4-5.3,0.8-7.8
				C589.6,335.9,613,356.9,641.4,356.8z"/>
		</g>
	</g>
	<g>
		<path class="st10" d="M304,1693.2h10.2v140H304V1693.2z"/>
		<path class="st10" d="M473,1693.2l-62.4,140h-10.2l-62.4-140h11.2l56.6,126.8l56.6-126.8H473z"/>
		<path class="st10" d="M628,1833.2l-0.2-119.8l-58.6,101.2h-5l-58.6-100.8v119.4h-10v-140h8.6l62.6,108.2l62.6-108.2h8.4l0.2,140
			H628z"/>
		<path class="st10" d="M824.8,1793.8h-81.2l-17.8,39.4h-11l64.4-140h10.2l64.4,140h-11L824.8,1793.8z M821,1785.2l-36.8-80.8
			l-36.6,80.8H821z"/>
		<path class="st10" d="M863.6,1781c0-31.2,22.2-53,52.8-53c16.6,0,31,6.4,39.6,19.2l-7.4,5.4c-7.6-10.6-19.2-15.6-32.2-15.6
			c-24.6,0-42.6,17.6-42.6,44c0,26.4,18,44,42.6,44c13,0,24.6-5,32.2-15.6l7.4,5.4c-8.6,12.6-23,19.2-39.6,19.2
			C885.8,1834,863.6,1812,863.6,1781z"/>
		<path class="st10" d="M1061.4,1767v66.2h-9.6v-18.6c-6.6,12-19.4,19.4-37.6,19.4c-23.4,0-37.6-12-37.6-29.8
			c0-15.8,10-29.2,39-29.2h35.8v-8.4c0-19.4-10.6-29.8-31-29.8c-14.4,0-27.4,5.4-36,13.2l-5-7.2c10.4-9.2,25.6-14.8,41.8-14.8
			C1047,1728,1061.4,1741.2,1061.4,1767z M1051.4,1802.4v-19.6h-35.6c-21.6,0-29.2,9-29.2,21c0,13.6,10.6,22,29,22
			C1033.2,1825.8,1045.4,1817.4,1051.4,1802.4z"/>
		<path class="st10" d="M1195.6,1684.8v148.4h-9.8v-24.6c-8.2,16.2-24,25.4-42.8,25.4c-29.4,0-51.6-21.8-51.6-53
			c0-31.4,22.2-53,51.6-53c18.6,0,34.2,9.2,42.6,25v-68.2H1195.6z M1185.6,1781c0-26.2-18-44-42-44s-42,17.8-42,44
			c0,26.2,18,44,42,44S1185.6,1807.2,1185.6,1781z"/>
		<path class="st10" d="M1326,1783.4h-89.8c1,24.8,19.2,41.6,44.2,41.6c13.2,0,25.4-4.8,33.4-14.6l5.8,6.6
			c-9.2,11.2-23.6,17-39.4,17c-31.6,0-53.8-22-53.8-53c0-31,21.4-53,50-53s49.8,21.6,49.8,52.6
			C1326.2,1781.4,1326,1782.4,1326,1783.4z M1236.4,1775.6h80c-1.4-22.6-17.8-38.8-40-38.8C1254.2,1736.8,1238,1752.8,1236.4,1775.6
			z"/>
		<path class="st10" d="M1528.8,1772.2v61h-10V1773c0-23.6-12.2-36-32.6-36c-23.6,0-38.2,15.8-38.2,40.6v55.6h-10V1773
			c0-23.6-12.2-36-32.6-36c-23.6,0-38.2,15.8-38.2,40.6v55.6h-10v-104.4h9.6v22.4c6.8-14.6,21-23.2,40-23.2
			c18.8,0,32.6,8.6,38.2,25.2c6.8-15.2,22-25.2,42.2-25.2C1512.4,1728,1528.8,1743,1528.8,1772.2z"/>
		<path class="st10" d="M1566.8,1695.4c0-4.4,3.6-8.2,8.2-8.2c4.6,0,8.2,3.6,8.2,8c0,4.6-3.6,8.2-8.2,8.2
			C1570.4,1703.4,1566.8,1699.8,1566.8,1695.4z M1570,1728.8h10v104.4h-10V1728.8z"/>
		<path class="st10" d="M1710.4,1783.4h-89.8c1,24.8,19.2,41.6,44.2,41.6c13.2,0,25.4-4.8,33.4-14.6l5.8,6.6
			c-9.2,11.2-23.6,17-39.4,17c-31.6,0-53.8-22-53.8-53c0-31,21.4-53,50-53s49.8,21.6,49.8,52.6
			C1710.6,1781.4,1710.4,1782.4,1710.4,1783.4z M1620.8,1775.6h80c-1.4-22.6-17.8-38.8-40-38.8
			C1638.6,1736.8,1622.4,1752.8,1620.8,1775.6z"/>
	</g>
</g>
</svg>
