<?xml version="1.0" encoding="utf-8"?>
<!-- Generator: Adobe Illustrator 25.2.3, SVG Export Plug-In . SVG Version: 6.00 Build 0)  -->
<svg version="1.1" xmlns="http://www.w3.org/2000/svg" xmlns:xlink="http://www.w3.org/1999/xlink" x="0px" y="0px"
	 viewBox="0 0 2000 2000" style="enable-background:new 0 0 2000 2000;" xml:space="preserve">
<style type="text/css">
	.st0{fill:#FD6210;}
	.st1{fill:none;stroke:#B6B6B6;stroke-width:10;stroke-linecap:round;}
	.st2{fill:#FFE9DD;}
	.st3{enable-background:new    ;}
	.st4{fill:#84429D;}
	.st5{fill:#C2A0CE;}
	.st6{fill:#F4A467;}
	.st7{fill:#EBDFEF;}
	.st8{fill:#FEEED6;}
	.st9{fill:#FEF5E7;}
	.st10{fill:#FEF4E4;}
	.st11{fill:#FFFFFF;}
	.st12{fill:#242424;}
	.st13{fill:#494949;}
	.st14{fill:#6D6D6D;}
	.st15{fill:none;stroke:#FEA576;stroke-width:40;stroke-miterlimit:10;}
	.st16{fill:none;stroke:#FEA576;stroke-width:40;stroke-miterlimit:10;stroke-dasharray:97.5349,97.5349;}
	.st17{display:none;}
	.st18{display:inline;}
	.st19{fill:none;stroke:#FFFFFF;stroke-width:40;stroke-miterlimit:10;}
	.st20{fill:none;stroke:#FFFFFF;stroke-width:40;stroke-miterlimit:10;stroke-dasharray:106.9172,106.9172;}
	.st21{fill:#70228D;}
	.st22{fill:#D6C0DE;}
	.st23{opacity:0.7;fill:#FFFFFF;}
</style>
<g id="Achtergrond">
	<polygon class="st0" points="2000,2000 1543,2000 0,2000 0,0 1709.8,0 2000,290 	"/>
	<g>
		<line class="st1" x1="1762.7" y1="66.1" x2="1946.9" y2="66.1"/>
		<line class="st1" x1="1762.7" y1="107.4" x2="1946.9" y2="107.4"/>
		<line class="st1" x1="1762.7" y1="148.6" x2="1946.9" y2="148.6"/>
		<line class="st1" x1="1762.7" y1="189.9" x2="1946.9" y2="189.9"/>
		<polygon class="st2" points="1999.8,290 1709.8,290 1709.8,0 		"/>
	</g>
</g>
<g id="Potje">
	<g>
		<g>
			<g>
				<g>
					<g>
						<g class="st3">
							<g>
								<path class="st4" d="M436.9,413.9c99.7,75.7,167.5,238.3,151.3,363c-8.1,62.8-36,104.1-74.3,120l804.6-334.1
									c38.4-15.9,66.2-57.2,74.3-120c16.1-124.7-51.6-287.3-151.3-363c-49.6-37.6-97.7-46.7-135.6-31.1L301.3,382.8
									C339.2,367.1,387.3,376.2,436.9,413.9z"/>
								<path class="st5" d="M589.8,568.5c30,71.9,41.9,146.7,33.6,210.6c-3,23.1-8.5,43.9-16.3,62.1l717.9-298.1
									c32.9-13.6,54.8-50.3,61.7-103.4c7.3-56.8-3.6-124-30.8-189.3c-27.2-65.2-67.1-120.1-112.5-154.6
									c-41.8-31.7-82.6-41.8-115-28.4L410.2,365.7c17.9,7.1,35.9,17.6,53.9,31.2C515.2,435.7,559.8,496.7,589.8,568.5z"/>
							</g>
							<g>
								<path class="st6" d="M227,502.6c-16.2,124.8,51.6,287.4,151.4,363.2c99.7,75.7,193.6,35.9,209.8-88.9
									c16.1-124.7-51.6-287.3-151.3-363C337.1,338.1,243.2,377.9,227,502.6z"/>
							</g>
						</g>
					</g>
					<g>
						<g class="st3">
							<g>
								<path class="st4" d="M353.2,436.4c105.7,80.3,177.5,252.5,160.4,384.8c-8.6,66.5-38.1,110.3-78.7,127.1l102.3-42.4
									c40.6-16.8,70.1-60.5,78.7-127.1c17.1-132.2-54.6-304.5-160.4-384.8C403,354.2,352,344.5,311.9,361.1l-102.3,42.4
									C249.7,386.9,300.7,396.6,353.2,436.4z"/>
							</g>
							<g>
								<path class="st7" d="M130.9,530.6c-17.1,132.2,54.6,304.5,160.3,384.7c105.7,80.3,205.2,38.1,222.3-94.1
									c17.1-132.2-54.6-304.5-160.4-384.8C247.5,356.2,148,398.4,130.9,530.6z"/>
							</g>
							<g>
								<path class="st5" d="M1031.1,176.4c-15.5,119.9,49.5,276,145.3,348.8c95.8,72.8,186,34.5,201.6-85.3
									c15.5-119.9-49.5-276-145.4-348.8C1136.9,18.3,1046.7,56.5,1031.1,176.4z"/>
							</g>
						</g>
					</g>
				</g>
				<path class="st8" d="M1036.6,332.9l-14.4,190.4c-2.2,28.8,21.7,54.3,53.1,56.7l2,0.2c31.4,2.4,58.8-19.2,61-48l14.4-190.4
					c2.2-28.8-21.7-54.3-53.1-56.7l-2-0.2C1066.3,282.5,1038.8,304.1,1036.6,332.9z"/>
				<path class="st9" d="M1042.9,362.8c-10.6,29.6,2.9,61.8,30.1,71.6l179.7,64.4c27.2,9.7,58.1-6.5,68.7-36.1l0.7-1.9
					c10.6-29.6-2.9-61.8-30.1-71.6l-179.7-64.4c-27.2-9.7-58.1,6.5-68.7,36.1L1042.9,362.8z"/>
				<path class="st10" d="M852.9,580.1c-19.9,20.9-17.6,55.8,5.1,77.5l1.5,1.4c22.8,21.7,57.7,22.4,77.6,1.5L1069,522.4
					c19.9-20.9,17.6-55.8-5.1-77.5l-1.5-1.4c-22.8-21.7-57.7-22.4-77.6-1.5L852.9,580.1z"/>
				<path class="st11" d="M643,474.7c35.6,56.9,113.7,209.9,32.4,356.1l615.9-256.7c0,0,115.4-175.5-30-367.6
					c-6.5-8.5-17.9-11.7-27.8-7.6L653.8,440.6C640.4,446.2,635.3,462.4,643,474.7z"/>
				<path class="st4" d="M919.9,728.5l106.9-44.6c0,0,70.2-184.2-64.5-371.9l-90.4,37.3C871.9,349.4,1022.3,544.4,919.9,728.5z"/>
			</g>
		</g>
		<path class="st12" d="M729.1,626.6c-54.8,28.1-84.8,106.4-67,174.9c17.8,68.5,76.7,101.3,131.6,73.2
			c54.8-28.1,84.8-106.3,67-174.8C842.8,631.3,783.9,598.5,729.1,626.6z"/>
		<path class="st13" d="M739.6,626.3c-54.8,28.1-84.8,106.4-67,174.9c17.8,68.5,76.7,101.3,131.6,73.2
			c54.8-28.1,84.8-106.3,67-174.8C853.3,630.9,794.4,598.2,739.6,626.3z"/>
		<path class="st14" d="M784.9,800.3c-22.1,11.3-45.8-2-53-29.5c-7.2-27.6,4.9-59.2,27-70.5c22.1-11.3,45.9,1.8,53,29.5
			C819,757.4,807,789,784.9,800.3z"/>
		<g>
			<path class="st12" d="M1196.4,419.1c-54.8,28.1-84.8,106.4-67,174.9c17.8,68.5,76.7,101.3,131.6,73.2
				c54.8-28.1,84.8-106.3,67-174.8C1310.1,423.8,1251.2,391.1,1196.4,419.1z"/>
			<path class="st13" d="M1206.9,418.8c-54.8,28.1-84.8,106.4-67,174.9c17.8,68.5,76.7,101.3,131.6,73.2
				c54.8-28.1,84.8-106.3,67-174.8C1320.6,423.5,1261.7,390.7,1206.9,418.8z"/>
			<path class="st14" d="M1252.2,592.8c-22.1,11.3-45.8-2-53-29.5c-7.2-27.6,4.9-59.2,27-70.5c22.1-11.3,45.9,1.8,53,29.5
				C1286.4,550,1274.3,581.5,1252.2,592.8z"/>
		</g>
	</g>
	<g>
		<g>
			<line class="st15" x1="10.6" y1="1273.7" x2="56.7" y2="1254.3"/>
			<line class="st16" x1="146.5" y1="1216.3" x2="1898.4" y2="475.9"/>
			<line class="st15" x1="1943.3" y1="456.9" x2="1989.4" y2="437.5"/>
		</g>
	</g>
</g>
<g id="Weg" class="st17">
	<g class="st18">
		<g>
			<line class="st19" x1="30.7" y1="1109.2" x2="81.2" y2="1087.4"/>
			<line class="st20" x1="179.4" y1="1045.1" x2="1701.3" y2="389.3"/>
			<line class="st19" x1="1750.4" y1="368.2" x2="1800.9" y2="346.4"/>
		</g>
	</g>
</g>
<g id="Pil">
	<g>
		<g>
			<g>
				<path class="st7" d="M1864.9,1155.3c-0.8,0.3-1.6,0.7-2.3,1.1C1863.3,1156,1864.1,1155.6,1864.9,1155.3z M1794.7,1526.6
					c-70.7,30.2-151.5,5.9-193.4-54.7c-55.2-79.4-23.9-192,66.4-232.4c9.1-4.1,197.1-84.3,197.4-84.4c16.4-7,33.1-6.7,50.5-1
					c0,0,0,0,0,0c80,27.1,142.9,160,111.8,245.5c0,0,0,0,0,0c-6.6,17.5-16.4,31.6-32.8,41
					C1994.8,1441.3,1981.3,1446.9,1794.7,1526.6z M1986,1444.7c0.6-0.2,1.2-0.4,1.8-0.6C1987.2,1444.3,1986.6,1444.5,1986,1444.7z"
					/>
				<path class="st21" d="M2060.9,1071.5c-64.9,27.7-129.7,55.4-194.6,83.2c16.3-6.4,32.7-6.1,49.4-0.5c0,0,0,0,0,0
					c83.2,27.6,142.1,165.7,111.8,245.5c0,0,0,0,0,0c-6.2,16.8-17,32.4-32.8,41c0,0,0,0,0,0c-1.4,0.8-2.9,1.5-4.3,2.2
					c64.6-27.6,129.2-55.2,193.8-82.8c99.1-42.5,129.6-169.2,58-249.2C2196.6,1060.1,2123.4,1044.7,2060.9,1071.5z"/>
			</g>
			<path class="st22" d="M1754.4,1488.5c176.9-75.6,223-95.2,234.5-100.3c-0.5,0.3-1.1,0.6-1.6,0.8c76.9-32.9,153.8-65.7,230.6-98.6
				c22.9-9.8,42.7-23.4,59.1-39.6c-11.3,46.5-43.6,88.3-92.7,109.3c-64.6,27.6-129.2,55.2-193.8,82.8c0.5-0.2,0.9-0.5,1.3-0.7
				c-9.6,4.3-48.4,20.8-197.1,84.3c-61.1,26.1-129.6,11.5-174.1-31.9C1662.9,1508.4,1710.3,1507.4,1754.4,1488.5z"/>
			<path class="st23" d="M1702.5,1272.1c-68.4,30.6-109.9,94-117,161.4c-21.6-72.6,12.6-155.4,87.4-188.8
				c0.7-0.3,392.9-168,393.1-168.1c36.2-12.9,69.5,3.7,32.9,26C2097.7,1103.3,1718.3,1265,1702.5,1272.1z"/>
		</g>
		<path class="st12" d="M1814.7,1411.7c-35.1,16.7-55.5,65.5-45.6,109c9.9,43.6,46.5,65.3,81.6,48.7c35.1-16.7,55.5-65.5,45.6-109
			C1886.4,1416.8,1849.8,1395,1814.7,1411.7z"/>
		<path class="st13" d="M1821.4,1411.7c-35.1,16.7-55.5,65.5-45.6,109c9.9,43.6,46.5,65.3,81.6,48.7c35.1-16.7,55.5-65.5,45.6-109
			C1893,1416.8,1856.5,1395,1821.4,1411.7z"/>
		<path class="st14" d="M1846.6,1522.3c-14.1,6.7-28.9-2.1-32.9-19.6c-4-17.5,4.2-37.2,18.3-43.9c14.2-6.7,28.9,2,32.9,19.6
			C1869,1495.9,1860.8,1515.6,1846.6,1522.3z"/>
	</g>
	<g>
		<g>
			<g>
				<path class="st7" d="M161.8,1361.3c-0.8,0.3-1.6,0.7-2.3,1.1C160.2,1362,161,1361.6,161.8,1361.3z M91.6,1732.6
					c-70.7,30.2-151.5,5.9-193.4-54.7c-55.2-79.4-23.9-192,66.4-232.4c9.1-4.1,197.1-84.3,197.4-84.4c16.4-7,33.1-6.7,50.5-1
					c0,0,0,0,0,0c80,27.1,142.9,160,111.8,245.5c0,0,0,0,0,0c-6.6,17.5-16.4,31.6-32.8,41C291.7,1647.3,278.2,1652.9,91.6,1732.6z
					 M282.9,1650.7c0.6-0.2,1.2-0.4,1.8-0.6C284.1,1650.3,283.5,1650.5,282.9,1650.7z"/>
				<path class="st21" d="M357.8,1277.5c-64.9,27.7-129.7,55.4-194.6,83.2c16.3-6.4,32.7-6.1,49.4-0.5c0,0,0,0,0,0
					c83.2,27.6,142.1,165.7,111.8,245.5c0,0,0,0,0,0c-6.2,16.8-17,32.4-32.8,41c0,0,0,0,0,0c-1.4,0.8-2.9,1.5-4.3,2.2
					c64.6-27.6,129.2-55.2,193.8-82.8c99.1-42.5,129.6-169.2,58-249.2C493.5,1266.1,420.3,1250.7,357.8,1277.5z"/>
			</g>
			<path class="st22" d="M51.3,1694.5c176.9-75.6,223-95.2,234.5-100.3c-0.5,0.3-1.1,0.6-1.6,0.8c76.9-32.9,153.8-65.7,230.6-98.6
				c22.9-9.8,42.7-23.4,59.1-39.6c-11.3,46.5-43.6,88.3-92.7,109.3c-64.6,27.6-129.2,55.2-193.8,82.8c0.5-0.2,0.9-0.5,1.3-0.7
				c-9.6,4.3-48.4,20.8-197.1,84.3c-61.1,26.1-129.6,11.5-174.1-31.9C-40.2,1714.4,7.2,1713.4,51.3,1694.5z"/>
			<path class="st23" d="M-0.6,1478.1c-68.4,30.6-109.9,94-117,161.4c-21.6-72.6,12.6-155.4,87.4-188.8
				c0.7-0.3,392.9-168,393.1-168.1c36.2-12.9,69.5,3.7,32.9,26C394.6,1309.3,15.2,1471-0.6,1478.1z"/>
		</g>
		<path class="st12" d="M118.3,1621.3c-35.1,16.7-55.5,65.5-45.6,109c9.9,43.6,46.5,65.3,81.6,48.7c35.1-16.7,55.5-65.5,45.6-109
			C189.9,1626.4,153.4,1604.6,118.3,1621.3z"/>
		<path class="st13" d="M124.9,1621.3c-35.1,16.7-55.5,65.5-45.6,109c9.9,43.6,46.5,65.3,81.6,48.7c35.1-16.7,55.5-65.5,45.6-109
			C196.5,1626.4,160,1604.6,124.9,1621.3z"/>
		<path class="st14" d="M150.2,1731.9c-14.1,6.7-28.9-2.1-32.9-19.6c-4-17.5,4.2-37.2,18.3-43.9c14.2-6.7,28.9,2,32.9,19.6
			C172.5,1705.5,164.3,1725.2,150.2,1731.9z"/>
		<path class="st12" d="M408.3,1500c-35.1,16.7-55.5,65.5-45.6,109c9.9,43.6,46.5,65.3,81.6,48.7c35.1-16.7,55.5-65.5,45.6-109
			C479.9,1505.1,443.4,1483.3,408.3,1500z"/>
		<path class="st13" d="M414.9,1500c-35.1,16.7-55.5,65.5-45.6,109c9.9,43.6,46.5,65.3,81.6,48.7c35.1-16.7,55.5-65.5,45.6-109
			C486.6,1505.1,450,1483.3,414.9,1500z"/>
		<path class="st14" d="M440.2,1610.6c-14.1,6.7-28.9-2.1-32.9-19.6c-4-17.5,4.2-37.2,18.3-43.9c14.2-6.7,28.9,2,32.9,19.6
			C462.6,1584.2,454.4,1603.9,440.2,1610.6z"/>
	</g>
	<g>
		<g>
			<g>
				<path class="st7" d="M1262.9,893.5c-0.8,0.3-1.6,0.7-2.3,1.1C1261.4,894.2,1262.1,893.8,1262.9,893.5z M1192.8,1264.8
					c-70.7,30.2-151.5,5.9-193.4-54.7c-55.2-79.4-23.9-192,66.4-232.4c9.1-4.1,197.1-84.3,197.4-84.4c16.4-7,33.1-6.7,50.5-1
					c0,0,0,0,0,0c80,27.1,142.9,160,111.8,245.5c0,0,0,0,0,0c-6.6,17.5-16.4,31.6-32.8,41
					C1392.8,1179.5,1379.4,1185.1,1192.8,1264.8z M1384,1182.9c0.6-0.2,1.2-0.4,1.8-0.6C1385.2,1182.5,1384.6,1182.7,1384,1182.9z"
					/>
				<path class="st21" d="M1458.9,809.6c-64.9,27.7-129.7,55.4-194.6,83.2c16.3-6.4,32.7-6.1,49.4-0.5c0,0,0,0,0,0
					c83.2,27.6,142.1,165.7,111.8,245.5c0,0,0,0,0,0c-6.2,16.8-17,32.4-32.8,41c0,0,0,0,0,0c-1.4,0.8-2.9,1.5-4.3,2.2
					c64.6-27.6,129.2-55.2,193.8-82.8c99.1-42.5,129.6-169.2,58-249.2C1594.7,798.3,1521.5,782.9,1458.9,809.6z"/>
			</g>
			<path class="st22" d="M1152.4,1226.7c176.9-75.6,223-95.2,234.5-100.3c-0.5,0.3-1.1,0.6-1.6,0.8c76.9-32.9,153.8-65.7,230.6-98.6
				c22.9-9.8,42.7-23.4,59.1-39.6c-11.3,46.5-43.6,88.3-92.7,109.3c-64.6,27.6-129.2,55.2-193.8,82.8c0.5-0.2,0.9-0.5,1.3-0.7
				c-9.6,4.3-48.4,20.8-197.1,84.3c-61.1,26.1-129.6,11.5-174.1-31.9C1060.9,1246.5,1108.3,1245.6,1152.4,1226.7z"/>
			<path class="st23" d="M1100.6,1010.3c-68.4,30.6-109.9,94-117,161.4c-21.6-72.6,12.6-155.4,87.4-188.8
				c0.7-0.3,392.9-168,393.1-168.1c36.2-12.9,69.5,3.7,32.9,26C1495.8,841.5,1116.4,1003.2,1100.6,1010.3z"/>
		</g>
		<path class="st12" d="M1216,1153.5c-35.1,16.7-55.5,65.5-45.6,109c9.9,43.6,46.5,65.3,81.6,48.7c35.1-16.7,55.5-65.5,45.6-109
			C1287.6,1158.6,1251.1,1136.8,1216,1153.5z"/>
		<path class="st13" d="M1222.6,1153.5c-35.1,16.7-55.5,65.5-45.6,109c9.9,43.6,46.5,65.3,81.6,48.7c35.1-16.7,55.5-65.5,45.6-109
			C1294.3,1158.6,1257.7,1136.8,1222.6,1153.5z"/>
		<path class="st14" d="M1247.9,1264.1c-14.1,6.7-28.9-2.1-32.9-19.6c-4-17.5,4.2-37.2,18.3-43.9c14.2-6.7,28.9,2,32.9,19.6
			C1270.3,1237.7,1262.1,1257.4,1247.9,1264.1z"/>
		<path class="st12" d="M1506.1,1032.2c-35.1,16.7-55.5,65.5-45.6,109c9.9,43.6,46.5,65.3,81.6,48.7c35.1-16.7,55.5-65.5,45.6-109
			C1577.7,1037.3,1541.2,1015.5,1506.1,1032.2z"/>
		<path class="st13" d="M1512.7,1032.2c-35.1,16.7-55.5,65.5-45.6,109c9.9,43.6,46.5,65.3,81.6,48.7c35.1-16.7,55.5-65.5,45.6-109
			C1584.3,1037.3,1547.8,1015.5,1512.7,1032.2z"/>
		<path class="st14" d="M1538,1142.8c-14.1,6.7-28.9-2.1-32.9-19.6c-4-17.5,4.2-37.2,18.3-43.9c14.2-6.7,28.9,2,32.9,19.6
			C1560.3,1116.4,1552.1,1136.1,1538,1142.8z"/>
	</g>
</g>
<g id="Teksten">
	<g>
		<path class="st11" d="M605.3,1603.2l-0.2-119.8l-58.6,101.2h-5l-58.6-100.8v119.4h-10v-140h8.6l62.6,108.2l62.6-108.2h8.4l0.2,140
			H605.3z"/>
		<path class="st11" d="M749.1,1553.4h-89.8c1,24.8,19.2,41.6,44.2,41.6c13.2,0,25.4-4.8,33.4-14.6l5.8,6.6
			c-9.2,11.2-23.6,17-39.4,17c-31.6,0-53.8-22-53.8-53c0-31,21.4-53,50-53c28.6,0,49.8,21.6,49.8,52.6
			C749.3,1551.4,749.1,1552.4,749.1,1553.4z M659.5,1545.6h80c-1.4-22.6-17.8-38.8-40-38.8C677.3,1506.8,661.1,1522.8,659.5,1545.6z
			"/>
		<path class="st11" d="M873.1,1454.8v148.4h-9.8v-24.6c-8.2,16.2-24,25.4-42.8,25.4c-29.4,0-51.6-21.8-51.6-53
			c0-31.4,22.2-53,51.6-53c18.6,0,34.2,9.2,42.6,25v-68.2H873.1z M863.1,1551c0-26.2-18-44-42-44s-42,17.8-42,44c0,26.2,18,44,42,44
			S863.1,1577.2,863.1,1551z"/>
		<path class="st11" d="M912.1,1465.4c0-4.4,3.6-8.2,8.2-8.2c4.6,0,8.2,3.6,8.2,8c0,4.6-3.6,8.2-8.2,8.2
			C915.7,1473.4,912.1,1469.8,912.1,1465.4z M915.3,1498.8h10v104.4h-10V1498.8z"/>
		<path class="st11" d="M956.1,1551c0-31.2,22.2-53,52.8-53c16.6,0,31,6.4,39.6,19.2l-7.4,5.4c-7.6-10.6-19.2-15.6-32.2-15.6
			c-24.6,0-42.6,17.6-42.6,44s18,44,42.6,44c13,0,24.6-5,32.2-15.6l7.4,5.4c-8.6,12.6-23,19.2-39.6,19.2
			C978.3,1604,956.1,1582,956.1,1551z"/>
		<path class="st11" d="M1075.3,1465.4c0-4.4,3.6-8.2,8.2-8.2c4.6,0,8.2,3.6,8.2,8c0,4.6-3.6,8.2-8.2,8.2
			C1078.9,1473.4,1075.3,1469.8,1075.3,1465.4z M1078.5,1498.8h10v104.4h-10V1498.8z"/>
		<path class="st11" d="M1091.9,1635.8l4-7.4c4.2,3.8,10.2,5.8,17,5.8c12.2,0,18.8-7.4,18.8-21v-114.4h10v114.8
			c0,17.6-10,29.2-28.2,29.2C1105.1,1642.8,1096.9,1640.6,1091.9,1635.8z M1128.5,1465.4c0-4.4,3.6-8.2,8.2-8.2c4.6,0,8.2,3.6,8.2,8
			c0,4.6-3.6,8.2-8.2,8.2C1132.1,1473.4,1128.5,1469.8,1128.5,1465.4z"/>
		<path class="st11" d="M1277.3,1542.2v61h-10V1543c0-23.6-12.6-36-33.8-36c-24.6,0-39.6,15.8-39.6,40.6v55.6h-10v-104.4h9.6v22.6
			c7-14.6,21.6-23.4,41.4-23.4C1260.3,1498,1277.3,1513,1277.3,1542.2z"/>
		<path class="st11" d="M1406.9,1553.4h-89.8c1,24.8,19.2,41.6,44.2,41.6c13.2,0,25.4-4.8,33.4-14.6l5.8,6.6
			c-9.2,11.2-23.6,17-39.4,17c-31.6,0-53.8-22-53.8-53c0-31,21.4-53,50-53s49.8,21.6,49.8,52.6
			C1407.1,1551.4,1406.9,1552.4,1406.9,1553.4z M1317.3,1545.6h80c-1.4-22.6-17.8-38.8-40-38.8
			C1335.1,1506.8,1318.9,1522.8,1317.3,1545.6z"/>
		<path class="st11" d="M1531.5,1542.2v61h-10V1543c0-23.6-12.6-36-33.8-36c-24.6,0-39.6,15.8-39.6,40.6v55.6h-10v-104.4h9.6v22.6
			c7-14.6,21.6-23.4,41.4-23.4C1514.5,1498,1531.5,1513,1531.5,1542.2z"/>
		<path class="st11" d="M591.7,1783.4h-89.8c1,24.8,19.2,41.6,44.2,41.6c13.2,0,25.4-4.8,33.4-14.6l5.8,6.6
			c-9.2,11.2-23.6,17-39.4,17c-31.6,0-53.8-22-53.8-53c0-31,21.4-53,50-53c28.6,0,49.8,21.6,49.8,52.6
			C591.9,1781.4,591.7,1782.4,591.7,1783.4z M502.1,1775.6h80c-1.4-22.6-17.8-38.8-40-38.8C519.9,1736.8,503.7,1752.8,502.1,1775.6z
			"/>
		<path class="st11" d="M716.3,1772.2v61h-10V1773c0-23.6-12.6-36-33.8-36c-24.6,0-39.6,15.8-39.6,40.6v55.6h-10v-104.4h9.6v22.6
			c7-14.6,21.6-23.4,41.4-23.4C699.3,1728,716.3,1743,716.3,1772.2z"/>
		<path class="st11" d="M892.7,1728.8l-47.2,104.4h-10.2l-47-104.4h10.6l41.6,93.4l42-93.4H892.7z"/>
		<path class="st11" d="M999.7,1783.4h-89.8c1,24.8,19.2,41.6,44.2,41.6c13.2,0,25.4-4.8,33.4-14.6l5.8,6.6
			c-9.2,11.2-23.6,17-39.4,17c-31.6,0-53.8-22-53.8-53c0-31,21.4-53,50-53c28.6,0,49.8,21.6,49.8,52.6
			C999.9,1781.4,999.7,1782.4,999.7,1783.4z M910.1,1775.6h80c-1.4-22.6-17.8-38.8-40-38.8C927.9,1736.8,911.7,1752.8,910.1,1775.6z
			"/>
		<path class="st11" d="M1080.3,1728v9.8c-0.8,0-1.6-0.2-2.4-0.2c-23.2,0-37,15.4-37,41.2v54.4h-10v-104.4h9.6v22.8
			C1046.9,1736.4,1060.7,1728,1080.3,1728z"/>
		<path class="st11" d="M1145.1,1777.4l-27.2,24.8v31h-10v-148.4h10v105l66.8-61h12.8l-45,42.2l49.4,62.2h-12.4L1145.1,1777.4z"/>
		<path class="st11" d="M1309.5,1783.4h-89.8c1,24.8,19.2,41.6,44.2,41.6c13.2,0,25.4-4.8,33.4-14.6l5.8,6.6
			c-9.2,11.2-23.6,17-39.4,17c-31.6,0-53.8-22-53.8-53c0-31,21.4-53,50-53s49.8,21.6,49.8,52.6
			C1309.7,1781.4,1309.5,1782.4,1309.5,1783.4z M1219.9,1775.6h80c-1.4-22.6-17.8-38.8-40-38.8
			C1237.7,1736.8,1221.5,1752.8,1219.9,1775.6z"/>
		<path class="st11" d="M1428.9,1783.4h-89.8c1,24.8,19.2,41.6,44.2,41.6c13.2,0,25.4-4.8,33.4-14.6l5.8,6.6
			c-9.2,11.2-23.6,17-39.4,17c-31.6,0-53.8-22-53.8-53c0-31,21.4-53,50-53s49.8,21.6,49.8,52.6
			C1429.1,1781.4,1428.9,1782.4,1428.9,1783.4z M1339.3,1775.6h80c-1.4-22.6-17.8-38.8-40-38.8
			C1357.1,1736.8,1340.9,1752.8,1339.3,1775.6z"/>
		<path class="st11" d="M1509.5,1728v9.8c-0.8,0-1.6-0.2-2.4-0.2c-23.2,0-37,15.4-37,41.2v54.4h-10v-104.4h9.6v22.8
			C1476.1,1736.4,1489.9,1728,1509.5,1728z"/>
	</g>
</g>
</svg>
