<?xml version="1.0" encoding="utf-8"?>
<!-- Generator: Adobe Illustrator 25.2.3, SVG Export Plug-In . SVG Version: 6.00 Build 0)  -->
<svg version="1.1" xmlns="http://www.w3.org/2000/svg" xmlns:xlink="http://www.w3.org/1999/xlink" x="0px" y="0px"
	 viewBox="0 0 2000 2000" style="enable-background:new 0 0 2000 2000;" xml:space="preserve">
<style type="text/css">
	.st0{fill:#D6C0DE;}
	.st1{fill:#EBDFEF;stroke:#B6B6B6;stroke-width:10;stroke-linecap:round;}
	.st2{fill:#EBDFEF;}
	.st3{clip-path:url(#SVGID_2_);}
	.st4{opacity:0.6;fill:#DDDDDD;}
	.st5{fill:#EAEAEA;}
	.st6{opacity:0.29;fill:#444444;}
	.st7{fill:#FFFFFF;}
	.st8{fill:#5ED9E0;}
	.st9{fill:#1ECAD3;}
	.st10{opacity:0.46;fill:#DDDDDD;}
	.st11{opacity:0.34;fill:#DBDBDB;}
	.st12{fill:#FFAB03;}
	.st13{clip-path:url(#SVGID_4_);}
	.st14{opacity:0.14;fill:#FFFFFF;}
	.st15{fill:#3ED2D9;}
	.st16{opacity:0.34;fill:#FFFFFF;}
	.st17{fill:#DDDDDD;}
	.st18{fill:#B6B6B6;}
	.st19{opacity:0.42;fill:#6D6D6D;}
	.st20{opacity:0.17;fill:#C1C1C1;}
	.st21{opacity:0.3;fill:#FFFFFF;}
	.st22{fill:#582916;}
	.st23{fill:#7EE1E6;}
	.st24{fill:#DFF7F9;}
	.st25{fill:#929292;}
	.st26{fill:#DBDBDB;}
	.st27{opacity:0.38;fill:#FFFFFF;}
	.st28{fill:#67ADC6;}
	.st29{fill:#939393;}
	.st30{opacity:0.21;fill:#582916;}
	.st31{opacity:0.43;fill:#FFFFFF;}
	.st32{opacity:0.8;fill:#FFFFFF;}
	.st33{opacity:0.6;fill:#DBDBDB;}
	.st34{opacity:0.5;fill:#FFFFFF;}
	.st35{fill:#9FE8EC;}
	.st36{fill:#8FCCC2;}
	.st37{opacity:0.3;fill:#582916;}
	.st38{fill:#BFF0F2;}
	.st39{fill:#C2A0CE;}
	.st40{fill:#9961AE;}
	.st41{fill:#AD81BE;}
	.st42{fill:#70228D;}
	.st43{fill:#ECF0F1;}
</style>
<g id="Achtergrond">
	<polygon class="st0" points="2000,2000 1543,2000 0,2000 0,0 1709.8,0 2000,290 	"/>
	<g>
		<line class="st1" x1="1762.9" y1="66.1" x2="1947.1" y2="66.1"/>
		<line class="st1" x1="1762.9" y1="107.4" x2="1947.1" y2="107.4"/>
		<line class="st1" x1="1762.9" y1="148.6" x2="1947.1" y2="148.6"/>
		<line class="st1" x1="1762.9" y1="189.9" x2="1947.1" y2="189.9"/>
		<polygon class="st2" points="2000,290 1710,290 1710,0 		"/>
	</g>
</g>
<g id="Medicijnen">
	<g>
		<g>
			<defs>
				<rect id="SVGID_1_" x="335.6" y="468.7" width="236.4" height="399.1"/>
			</defs>
			<clipPath id="SVGID_2_">
				<use xlink:href="#SVGID_1_"  style="overflow:visible;"/>
			</clipPath>
			<g class="st3">
				<path class="st4" d="M357.8,504.9c0.1,0,0.2,0,0.2,0l1.8-1.8l5.5-12.1h77.9H479h77.9l5.5,12.1l1.8,1.8c0,0,0.1,0,0.2,0H357.8z"
					/>
				<path class="st5" d="M357.9,504.8l1.8-1.8l5.5-12.1h77.9H479h77.9l5.5,12.1l1.8,1.8c0,0,3.2,0.7,3.2,4.2c0,3.5,0,7.3,0,11.8
					c0,4.5-2,5.2-2,5.2l-2.4,1.3c0,0,0,1.4,0,5.8c0,4.3-2.5,7.4-2.5,7.4l-7.4,10.1c0,0,0,244.8,0,303.4L540,866.3
					c0,0-37.2,10.4-78.9,10.4c-41.7,0-79.8-10.4-79.8-10.4L369,854c0-66.2,0-303.4,0-303.4l-7.4-10.1c0,0-2.5-3.1-2.5-7.4
					c0-4.3,0-5.8,0-5.8l-2.4-1.3c0,0-2-0.7-2-5.2c0-4.5,0-8.3,0-11.8C354.7,505.5,357.9,504.8,357.9,504.8z"/>
				<path class="st6" d="M390.6,736.6h54c2.3,0,4.1-1.8,4.1-4.1c0-2.3-1.8-4.1-4.1-4.1h-54c-2.3,0-4.1,1.8-4.1,4.1
					C386.5,734.8,388.4,736.6,390.6,736.6z"/>
				<path class="st7" d="M493.1,866.3l13.3-12.3c0-58.7,0-303.4,0-303.4l7.4-10.1c0,0,2.5-3.1,2.5-7.4c0-4.3,0-5.8,0-5.8l2.4-1.3
					c0,0,2-0.7,2-5.2c0-4.5,0-8.3,0-11.8c0-3.5-3.2-4.2-3.2-4.2l-1.8-1.8l-4.9-10.9h10V479c0-4.7-3.8-8.5-8.5-8.5H559
					c4.7,0,8.5,3.8,8.5,8.5v13.2h-10l4.9,10.9l1.8,1.8c0,0,3.2,0.7,3.2,4.2c0,3.5,0,7.3,0,11.8c0,4.5-2,5.2-2,5.2l-2.4,1.3
					c0,0,0,1.4,0,5.8c0,4.3-2.5,7.4-2.5,7.4l-7.4,10.1c0,0,0,244.8,0,303.4L540,866.3c0,0-37.2,10.4-78.9,10.4c-8,0-15.9-0.4-23.5-1
					C468.9,873.1,493.1,866.3,493.1,866.3z"/>
				<path class="st7" d="M493.1,866.3l13.3-12.3c0-58.7,0-303.4,0-303.4l7.4-10.1c0,0,2.5-3.1,2.5-7.4c0-4.3,0-5.8,0-5.8l2.4-1.3
					c0,0,2-0.7,2-5.2c0-4.5,0-8.3,0-11.8c0-3.5-3.2-4.2-3.2-4.2l-1.8-1.8l-4.9-10.9h10V479c0-4.7-3.8-8.5-8.5-8.5H559
					c4.7,0,8.5,3.8,8.5,8.5v13.2h-10l4.9,10.9l1.8,1.8c0,0,3.2,0.7,3.2,4.2c0,3.5,0,7.3,0,11.8c0,4.5-2,5.2-2,5.2l-2.4,1.3
					c0,0,0,1.4,0,5.8c0,4.3-2.5,7.4-2.5,7.4l-7.4,10.1c0,0,0,244.8,0,303.4L540,866.3c0,0-37.2,10.4-78.9,10.4c-8,0-15.9-0.4-23.5-1
					C468.9,873.1,493.1,866.3,493.1,866.3z"/>
				<path class="st4" d="M562.7,535.8c-0.7,2.8-2.1,4.6-2.1,4.6l-7.4,10.1c0,0,0,0.1,0,0.3H369c0-0.2,0-0.3,0-0.3l-7.4-10.1
					c0,0-1.4-1.8-2.1-4.6H562.7z"/>
				<path class="st4" d="M565.5,526l-1.9,1h-205l-1.9-1c0,0-1.7-0.6-2-4.3h212.8C567.2,525.4,565.5,526,565.5,526z"/>
				<polygon class="st8" points="506.7,580.8 517.3,580.8 517.3,602.5 517.3,628.8 517.3,713.2 369,713.2 369,640.1 369,602.5 
					369,580.8 				"/>
				<path class="st9" d="M369,603h105.2c8.1,0,14.7,6.6,14.7,14.7v6c0,8.1-6.6,14.7-14.7,14.7H369V603z"/>
				<path class="st5" d="M374.9,662.3c0,5.1,4.1,9.2,9.2,9.2H455c5.1,0,9.2-4.1,9.2-9.2l0,0c0-5.1-4.1-9.2-9.2-9.2h-70.8
					C379.1,653,374.9,657.2,374.9,662.3L374.9,662.3z"/>
				<polygon class="st4" points="359.7,503.1 359.8,503.1 365.3,490.9 443.2,490.9 479,490.9 556.9,490.9 562.4,503.1 562.5,503.1 
									"/>
				<polygon class="st10" points="359.7,503.1 359.8,503.1 365.3,490.9 443.2,490.9 479,490.9 556.9,490.9 562.4,503.1 562.5,503.1 
									"/>
				<path class="st5" d="M354.7,492.2V479c0-4.7,3.8-8.5,8.5-8.5H559c4.7,0,8.5,3.8,8.5,8.5v13.2H354.7z"/>
				<path class="st11" d="M493.1,866.3l13.3-12.3c0-58.7,0-303.4,0-303.4l7.4-10.1c0,0,2.5-3.1,2.5-7.4c0-4.3,0-5.8,0-5.8l2.4-1.3
					c0,0,2-0.7,2-5.2c0-4.5,0-8.3,0-11.8c0-3.5-3.2-4.2-3.2-4.2l-1.8-1.8l-4.9-10.9h10V479c0-4.7-3.8-8.5-8.5-8.5H559
					c4.7,0,8.5,3.8,8.5,8.5v13.2h-10l4.9,10.9l1.8,1.8c0,0,3.2,0.7,3.2,4.2c0,3.5,0,7.3,0,11.8c0,4.5-2,5.2-2,5.2l-2.4,1.3
					c0,0,0,1.4,0,5.8c0,4.3-2.5,7.4-2.5,7.4l-7.4,10.1c0,0,0,244.8,0,303.4L540,866.3c0,0-37.2,10.4-78.9,10.4c-8,0-15.9-0.4-23.5-1
					C468.9,873.1,493.1,866.3,493.1,866.3z"/>
				<path class="st4" d="M354.7,479c0-4.7,3.8-8.5,8.5-8.5h43.6c-4.7,0-8.5,3.8-8.5,8.5v13.2h10l-4.9,10.9l-1.8,1.8c0,0-0.1,0-0.2,0
					c0,0,0,0,0,0c-0.7,0.2-3.1,1.1-3.1,4.2c0,3.5,0,7.3,0,11.8c0,0.3,0,0.6,0,0.9c0,0,0,0,0,0c0.1,0.9,0.2,1.6,0.4,2.2c0,0,0,0,0,0
					c0,0.1,0.1,0.2,0.1,0.4c0,0,0,0,0,0.1c0,0.1,0.1,0.2,0.1,0.3c0,0,0,0,0,0.1c0,0.1,0.1,0.2,0.1,0.2c0,0,0,0,0,0.1
					c0,0.1,0.1,0.1,0.1,0.2c0,0,0,0,0,0.1c0,0.1,0.1,0.1,0.1,0.2c0,0,0,0,0,0c0,0,0.1,0.1,0.1,0.1c0,0,0,0,0,0c0,0,0.1,0.1,0.1,0.1
					c0,0,0,0,0,0c0,0,0.1,0.1,0.1,0.1c0,0,0,0,0,0c0,0,0.1,0,0.1,0.1c0,0,0,0,0,0c0,0,0,0,0.1,0c0,0,0,0,0,0c0,0,0,0,0,0
					c0,0,0,0,0,0l2.4,1.3c0,0,0,1.4,0,5.8c0,1,0.1,1.9,0.3,2.8l0,0c0.6,2.5,1.8,4.2,2.1,4.5c0,0,0,0,0,0c0,0,0.1,0.1,0.1,0.1
					l7.4,10.1c0,0,0,0.1,0,0.3c0,8.6,0,238.3,0,303.2l12.4,12.3c0,0,25.7,7,57.9,9.6c-7,0.5-14.3,0.9-21.8,0.9
					c-41.7,0-79.8-10.4-79.8-10.4L369,854c0-64.9,0-294.6,0-303.2c0-0.2,0-0.3,0-0.3l-7.4-10.1c0,0,0,0-0.1-0.1c0,0,0,0,0,0
					c-0.3-0.4-1.5-2.1-2.1-4.5l0,0c-0.2-0.9-0.3-1.8-0.3-2.8c0-4.3,0-5.8,0-5.8l-2.4-1.3c0,0,0,0,0,0c0,0,0,0,0,0c0,0,0,0,0,0
					c0,0,0,0-0.1,0c0,0,0,0,0,0c0,0-0.1,0-0.1-0.1c0,0,0,0,0,0c0,0-0.1,0-0.1-0.1c0,0,0,0,0,0c0,0-0.1-0.1-0.1-0.1c0,0,0,0,0,0
					c0,0-0.1-0.1-0.1-0.1c0,0,0,0,0,0c0-0.1-0.1-0.1-0.1-0.2c0,0,0,0,0-0.1c0-0.1-0.1-0.1-0.1-0.2c0,0,0,0,0-0.1
					c0-0.1-0.1-0.2-0.1-0.2c0,0,0,0,0-0.1c0-0.1-0.1-0.2-0.1-0.3c0,0,0,0,0-0.1c0-0.1-0.1-0.2-0.1-0.4c0,0,0,0,0,0
					c-0.2-0.6-0.3-1.3-0.4-2.2c0,0,0,0,0,0c0-0.3,0-0.6,0-0.9c0-4.5,0-8.3,0-11.8c0-3,2.4-4,3.1-4.2c0,0,0,0,0,0c0.1,0,0.2,0,0.2,0
					l1.8-1.8l4.9-10.9h-10V479z"/>
			</g>
		</g>
	</g>
	<g>
		<g>
			<g>
				<path class="st12" d="M1598.5,1211.8l-0.8,64.6c0,4.8-3.9,8.7-8.7,8.7h-120.7c-4.8,0-8.7-3.9-8.7-8.7l-0.8-64.6H1598.5z"/>
				<g>
					<defs>
						<path id="SVGID_3_" d="M1512.8,766.5h31.7h99.9l-6,39c0,0-3.4,2.7-4.1,6.7c-0.7,4-29.1,388.3-29.1,388.3s-0.4,11.3-7.3,11.3
							h0.7l-0.8,64.6c0,4.8-3.9,8.7-8.7,8.7h-120.7c-4.8,0-8.7-3.9-8.7-8.7l-0.8-64.6h0.7c-6.9,0-7.3-11.3-7.3-11.3
							s-28.5-384.4-29.1-388.3c-0.7-4-4.1-6.7-4.1-6.7l-6-39H1512.8z"/>
					</defs>
					<clipPath id="SVGID_4_">
						<use xlink:href="#SVGID_3_"  style="overflow:visible;"/>
					</clipPath>
					<g class="st13">
						<path class="st5" d="M1512.8,766.5h31.7h99.9l-6,39c0,0-3.4,2.7-4.1,6.7c-0.7,4-29.1,388.3-29.1,388.3s-0.4,11.3-7.3,11.3
							c-3.9,0-30.8,0-53.3,0c-17.1,0-31.7,0-31.7,0c-22.5,0-49.4,0-53.3,0c-6.9,0-7.3-11.3-7.3-11.3s-28.5-384.4-29.1-388.3
							c-0.7-4-4.1-6.7-4.1-6.7l-6-39H1512.8z"/>
						<path class="st14" d="M1565,1200.5c0,0,28.5-384.4,29.1-388.3c0.7-4,4.1-6.7,4.1-6.7l6-39h40.2l-6,39c0,0-3.4,2.7-4.1,6.7
							c-0.7,4-29.1,388.3-29.1,388.3s-0.4,11.3-7.3,11.3c-3.2,0-21.4,0-40.2,0C1564.6,1211.8,1565,1200.5,1565,1200.5z"/>
						<g>
							<path class="st15" d="M1427.5,869.1c-2.5-33.6-4.3-56-4.4-56.9c-0.7-4-4.1-6.7-4.1-6.7l-6-39h99.9h31.7h99.9l-6,39
								c0,0-3.4,2.7-4.1,6.7c-0.2,0.9-1.9,23.3-4.4,57l-101.2-43.4L1427.5,869.1z"/>
							<path class="st9" d="M1528.7,825.7l101.2,43.4c-0.5,6.7-1.1,13.9-1.6,21.4l-99.6-42.7l-99.6,42.7c-0.6-7.5-1.1-14.7-1.6-21.4
								L1528.7,825.7z"/>
						</g>
						<path class="st4" d="M1456.2,766.5l6,39c0,0,3.4,2.7,4.1,6.7c0.7,4,29.1,388.3,29.1,388.3s0.4,11.3,7.3,11.3
							c-19.8,0-39.9,0-43.2,0c-6.9,0-7.3-11.3-7.3-11.3s-28.5-384.4-29.1-388.3c-0.7-4-4.1-6.7-4.1-6.7l-6-39H1456.2z"/>
						<path class="st12" d="M1598.5,1211.8l-0.8,64.6c0,4.8-3.9,8.7-8.7,8.7h-120.7c-4.8,0-8.7-3.9-8.7-8.7l-0.8-64.6H1598.5z"/>
						<path class="st16" d="M1568.9,1276.4l0.8-64.6h28.8l-0.8,64.6c0,4.8-3.9,8.7-8.7,8.7h-28.8
							C1565,1285.1,1568.9,1281.2,1568.9,1276.4z"/>
						<rect x="1459.6" y="1264.2" class="st17" width="138.2" height="1.8"/>
						<path class="st17" d="M1493.8,1266v-19c0-9.6,7.8-17.4,17.4-17.4h34.8c9.6,0,17.4,7.8,17.4,17.4v19H1493.8z"/>
						<path class="st18" d="M1533.8,892.9c-8.2,0-14.8,6.6-14.8,14.8v169.9c0,8.2,6.6,14.8,14.8,14.8l0,0c8.2,0,14.8-6.6,14.8-14.8
							V907.7C1548.6,899.6,1541.9,892.9,1533.8,892.9L1533.8,892.9z"/>
						<path class="st19" d="M1504,925.3c-2.3,0-4.3,1.9-4.3,4.3v119.1c0,2.3,1.9,4.3,4.3,4.3l0,0c2.3,0,4.3-1.9,4.3-4.3V929.6
							C1508.2,927.2,1506.3,925.3,1504,925.3L1504,925.3z"/>
						<path class="st9" d="M1610.1,1133.4c-3,39.9-5,67.1-5,67.1s-0.4,11.3-7.3,11.3c-3.9,0-30.8,0-53.3,0c-17.1,0-31.7,0-31.7,0
							c-22.5,0-49.4,0-53.3,0c-6.9,0-7.3-11.3-7.3-11.3s-2-27.2-5-67.1l81.5,34.9L1610.1,1133.4z"/>
						<path class="st4" d="M1486.9,1211.8l0.8,64.6c0,4.8,3.9,8.7,8.7,8.7h-28.1c-4.8,0-8.7-3.9-8.7-8.7l-0.8-64.6H1486.9z"/>
						<rect x="1413" y="805.5" class="st20" width="225.4" height="5.3"/>
						<path class="st9" d="M1605.3,1199.3c-0.1,0.7-0.1,1.1-0.1,1.1s-0.4,11.3-7.3,11.3c-3.9,0-30.8,0-53.3,0c-17.1,0-31.7,0-31.7,0
							c-22.5,0-49.4,0-53.3,0c-6.9,0-7.3-11.3-7.3-11.3s0-0.4-0.1-1.1H1605.3z"/>
						<polygon class="st9" points="1528.7,1157.6 1611,1122.3 1612.2,1105.3 1528.7,1141.1 1445.1,1105.3 1446.4,1122.3 						"/>
						<path class="st21" d="M1565,1200.5c0,0,28.5-384.4,29.1-388.3c0.7-4,4.1-6.7,4.1-6.7l6-39h40.2l-6,39c0,0-3.4,2.7-4.1,6.7
							c-0.7,4-29.1,388.3-29.1,388.3s-0.4,11.3-7.3,11.3c-3.2,0-21.4,0-40.2,0C1564.6,1211.8,1565,1200.5,1565,1200.5z"/>
						<path class="st4" d="M1597.2,1279.5c-1.2,3.3-4.4,5.7-8.2,5.7h-120.7c-3.7,0-6.9-2.4-8.2-5.7H1597.2z"/>
						<polygon class="st21" points="1413.4,769.4 1413,766.5 1512.8,766.5 1544.5,766.5 1644.4,766.5 1643.9,769.4 						"/>
					</g>
				</g>
			</g>
			<path class="st7" d="M1578.9,1191.1c1.6,0,3-1.2,3.1-2.9l26.7-358.2c0.1-1.7-1.1-3.2-2.9-3.3c-1.7-0.1-3.2,1.2-3.3,2.8
				l-26.7,358.2c-0.1,1.7,1.1,3.2,2.8,3.3C1578.7,1191.1,1578.8,1191.1,1578.9,1191.1z"/>
		</g>
		<g>
			<g>
				<path class="st22" d="M1677.2,936.6h84.1h3.8v4.4c0,2.4-1.7,4.4-3.8,4.4h-84.1c-2.1,0-3.8-2-3.8-4.4v-4.4H1677.2z"/>
				<path class="st23" d="M1641,1010.9l36.1-42.5c0,0,2.1-2.6,2.1-6.5c0-3.9,0.1-27.1,0.1-27.1l35.6-3.4v-0.8l4.4,0.4l4.4-0.4v0.8
					l35.6,3.4c0,0,0.1,23.2,0.1,27.1c0,3.9,2.1,6.5,2.1,6.5l36.1,42.5c0,0,15.9,17.4,15.9,33.4c0,16,0,178.9,0,199.4
					c0,20.4-21.6,41.4-21.6,41.4c0,3.1-32.4,5.5-72.5,5.5c-40,0-72.5-2.5-72.5-5.5c0,0-21.6-21-21.6-41.4c0-20.4,0-183.4,0-199.4
					C1625.1,1028.3,1641,1010.9,1641,1010.9z"/>
				<path class="st24" d="M1759.5,1285c0,0,21.6-21,21.6-41.4c0-20.4,0-183.4,0-199.4c0-16-15.9-33.4-15.9-33.4l-36.1-42.5
					c0,0-2.1-2.6-2.1-6.5c0-3.9-0.1-27.1-0.1-27.1l-23.9-2.3l11.7-1.1v-0.8l4.4,0.4l4.4-0.4v0.8l35.6,3.4c0,0,0.1,23.2,0.1,27.1
					c0,3.9,2.1,6.5,2.1,6.5l36.1,42.5c0,0,15.9,17.4,15.9,33.4c0,16,0,178.9,0,199.4c0,20.4-21.6,41.4-21.6,41.4
					c0,3.1-32.4,5.5-72.5,5.5c-5.5,0-10.9-0.1-16.1-0.1C1735.4,1289.9,1759.5,1287.7,1759.5,1285z"/>
				<rect x="1667.6" y="933.2" class="st7" width="103.4" height="4.4"/>
				<path class="st25" d="M1761.3,945.4h-2c0,4.8,0,10.1,0,13.5h-80.1c0-3.4,0-8.7,0-13.5h-2c-2.1,0-3.8-2-3.8-4.4v-4.4h3.8h2.1
					c0-1.1,0-1.8,0-1.8l35.6-3.4v-0.8l4.4,0.4l4.4-0.4v0.8l35.6,3.4c0,0,0,0.7,0,1.8h2h3.8v4.4
					C1765.1,943.4,1763.4,945.4,1761.3,945.4z"/>
				<g>
					<path class="st26" d="M1679.4,870.4c4.3,0,30.5,0,38.6,0c0,0,0.9,0,2.4,0c8.2,0,34.4,0,38.6,0c5.1,0,7.9,7.7,7.9,7.7v58.4
						h-46.6h-2.4h-46.6v-58.4C1671.5,878.1,1674.4,870.4,1679.4,870.4z"/>
					<path class="st26" d="M1667.6,933.2c0,2.4,1.9,4.4,4.3,4.4h94.8c2.4,0,4.3-2,4.3-4.4l0,0c0-2.4-1.9-4.4-4.3-4.4h-94.8
						C1669.5,928.8,1667.6,930.8,1667.6,933.2L1667.6,933.2z"/>
					<rect x="1667.6" y="933.2" class="st26" width="103.4" height="4.4"/>
				</g>
				<path class="st7" d="M1720.4,931.7c-1.7,0-3.4,0-5.1,0V890c0-2.2,1.8-4,4-4c2.2,0,4,1.8,4,4v41.6
					C1722.3,931.7,1721.4,931.7,1720.4,931.7z"/>
				<path class="st7" d="M1738.5,931.7c-1.7,0-3.4,0-5.1,0V890c0-2.2,1.8-4,4-4c2.2,0,4,1.8,4,4v41.6
					C1740.3,931.7,1739.4,931.7,1738.5,931.7z"/>
				<path class="st7" d="M1756.9,931.7c-1.7,0-3.4,0-5.1,0V890c0-2.2,1.8-4,4-4s4,1.8,4,4v41.6
					C1758.8,931.7,1757.8,931.7,1756.9,931.7z"/>
				<path class="st7" d="M1667.6,933.2c0,2.4,1.9,4.4,4.3,4.4h94.8c2.4,0,4.3-2,4.3-4.4l0,0c0-2.4-1.9-4.4-4.3-4.4h-94.8
					C1669.5,928.8,1667.6,930.8,1667.6,933.2L1667.6,933.2z"/>
				<path class="st7" d="M1767,886.1c2.2,0,4,1.8,4,4v45c-0.9,0-1.9-3.4-2.8-3.4c-0.4,0-0.8,0-1.2,0V886.1z"/>
				<path class="st7" d="M1700,931.7c1.7,0,3.4,0,5.1,0V890c0-2.2-1.8-4-4-4c-2.2,0-4,1.8-4,4v41.6
					C1698.2,931.7,1699.1,931.7,1700,931.7z"/>
				<path class="st7" d="M1681.6,931.7c1.7,0,3.4,0,5.1,0V890c0-2.2-1.8-4-4-4c-2.2,0-4,1.8-4,4v41.6
					C1679.7,931.7,1680.7,931.7,1681.6,931.7z"/>
				<path class="st7" d="M1671.5,886.1c-2.2,0-4,1.8-4,4v45c0.9,0,1.9-3.4,2.8-3.4c0.4,0,0.8,0,1.2,0V886.1z"/>
				<path class="st27" d="M1671.5,878c0.4-0.9,3.2-7.6,7.9-7.6c4.3,0,30.5,0,38.6,0c0,0,0.9,0,2.4,0c8.2,0,34.4,0,38.6,0
					c4.7,0,7.6,6.7,7.9,7.6H1671.5z"/>
				<rect x="1667.6" y="933.2" class="st7" width="103.4" height="4.4"/>
				<rect x="1671.5" y="1076.5" class="st7" width="141.9" height="154.7"/>
				<rect x="1671.5" y="1202.3" class="st28" width="141.9" height="28.9"/>
				<path class="st9" d="M1712,1111.8c0,6.8,5.5,12.3,12.3,12.3h69.8c6.8,0,12.3-5.5,12.3-12.3l0,0c0-6.8-5.5-12.3-12.3-12.3h-69.8
					C1717.4,1099.5,1712,1105,1712,1111.8L1712,1111.8z"/>
				<path class="st29" d="M1736.4,1146.5h45.4c3.2,0,5.8-2.6,5.8-5.8s-2.6-5.8-5.8-5.8h-45.4c-3.2,0-5.7,2.6-5.7,5.8
					S1733.3,1146.5,1736.4,1146.5z"/>
				<path class="st29" d="M1736.4,1165.4h45.4c3.2,0,5.8-2.6,5.8-5.8c0-3.2-2.6-5.8-5.8-5.8h-45.4c-3.2,0-5.7,2.6-5.7,5.8
					C1730.7,1162.8,1733.3,1165.4,1736.4,1165.4z"/>
				<path class="st9" d="M1641,1010.9l36.1-42.5c0,0,2.1-2.6,2.1-6.5c0-3.9,0.1-27.1,0.1-27.1l35.6-3.4v-0.8l4.4,0.4l4.4-0.4v0.8
					l11.7,1.1l-23.9,2.3c0,0-0.1,23.2-0.1,27.1c0,3.9-2.1,6.5-2.1,6.5l-36.1,42.5c0,0-15.9,17.4-15.9,33.4c0,16,0,178.9,0,199.4
					c0,20.4,21.6,41.4,21.6,41.4c0,2.6,24.1,4.8,56.4,5.4c-5.2,0.1-10.6,0.1-16.1,0.1c-40,0-72.5-2.5-72.5-5.5
					c0,0-21.6-21-21.6-41.4c0-20.4,0-183.4,0-199.4C1625.1,1028.3,1641,1010.9,1641,1010.9z"/>
				<rect x="1671.5" y="1076.5" class="st30" width="109.7" height="154.7"/>
				<path class="st26" d="M1671.5,886.1v-8c0,0,2.9-7.7,7.9-7.7c4.3,0,30.5,0,38.6,0c0,0,0.4,0,1.2,0v67.3h-47.4h-4.3v-2.6
					c0,0-0.1,0-0.1,0v-45C1667.5,887.8,1669.3,886.1,1671.5,886.1z"/>
				<rect x="1667.6" y="933.2" class="st26" width="103.4" height="4.4"/>
			</g>
			<path class="st31" d="M1798.2,1059.7c2.4,0,4.3-1.9,4.3-4.3v-10.8c0-13-17.8-34.5-19.8-36.9c-1.5-1.8-4.2-2-6.1-0.5
				c-1.8,1.5-2,4.2-0.5,6.1c6.9,8.2,17.8,23.9,17.8,31.3v10.8C1793.9,1057.8,1795.8,1059.7,1798.2,1059.7z"/>
			<path class="st32" d="M1792.6,1038.9c-0.5-1.4-1.2-2.9-2-4.5c-3.3-5.8,3.4-11.4,5.9-7.1c1.4,2.5,2.7,5,3.7,7.5
				C1802.3,1040.4,1794.4,1043.9,1792.6,1038.9z"/>
		</g>
		<g>
			<g>
				<path class="st5" d="M1334.3,1050.4c0.4-11.5,1.1-29.1,1.5-34c0.6-6.6,4.7-7.9,4.7-7.9s6.4-3.4,9.9-5.2c3.5-1.8,4.2-6.9,4.2-6.9
					l6.6-60.1l4.9-5.1h11.4h3.7h11.4l4.9,5.1l6.6,60.1c0,0,0.7,5.1,4.2,6.9c3.5,1.8,9.9,5.2,9.9,5.2s4.1,1.3,4.7,7.9
					c0.4,4.8,1.1,22.5,1.5,34h2.4v13.9h-94.9v-13.9H1334.3z"/>
				<path class="st7" d="M1410.7,1050.4c-0.4-11.5-1.1-29.1-1.5-34c-0.6-6.6-4.7-7.9-4.7-7.9s-6.4-3.4-9.9-5.2
					c-3.5-1.8-4.2-6.9-4.2-6.9l-6.6-60.1l-4.9-5.1h2.2h11.4l4.9,5.1l6.6,60.1c0,0,0.7,5.1,4.2,6.9c3.5,1.8,9.9,5.2,9.9,5.2
					s4.1,1.3,4.7,7.9c0.4,4.8,1.1,22.5,1.5,34h2.4v13.9h-13.6v-13.9H1410.7z"/>
				<path class="st33" d="M1334.3,1050.4c0.4-11.5,1.1-29.1,1.5-34c0.6-6.6,4.7-7.9,4.7-7.9s6.4-3.4,9.9-5.2
					c3.5-1.8,4.2-6.9,4.2-6.9l6.6-60.1l4.9-5.1h11.4h2.2l-4.9,5.1l-6.6,60.1c0,0-0.7,5.1-4.2,6.9c-3.5,1.8-9.9,5.2-9.9,5.2
					s-4.1,1.3-4.7,7.9c-0.4,4.8-1.1,22.5-1.5,34h-2.4v13.9h-13.6v-13.9H1334.3z"/>
				<path class="st5" d="M1326.5,1127.2l16.6-13.1c0,0,4.7-3.3,4.7-8.2c0-3.5,0-9.1,0-11.9h-0.8c0,0-4.9,0-4.9-4.7
					c0-1.4,0-2.5,0-3.3c-2.2-0.2-8.2-1.5-8.2-8.5c0-8.6,0-10.1,0-10.1l3.4-3.1h16.5h50.6h16.5l3.4,3.1c0,0,0,1.4,0,10.1
					c0,7-5.9,8.3-8.2,8.5c0,0.8,0,1.9,0,3.3c0,4.7-4.9,4.7-4.9,4.7h-0.9c0,2.8,0,8.4,0,11.9c0,4.9,4.7,8.2,4.7,8.2l16.6,13.1
					c0,0,4.8,4.2,4.8,13.6c0,9.4,0,101.7,0,113.4c0,11.7-12.6,13.6-12.6,13.6h-35.5h-18.9h-35.5c0,0-12.6-2-12.6-13.6
					c0-11.7,0-104,0-113.4C1321.7,1131.4,1326.5,1127.2,1326.5,1127.2z"/>
				<path class="st7" d="M1411.8,1254.2c0-11.7,0-104,0-113.4c0-9.4-4.8-13.6-4.8-13.6l-16.6-13.1c0,0-4.7-3.3-4.7-8.2
					c0-3.5,0-9.1,0-11.9h0.9c0,0,4.9,0,4.9-4.7c0-1.4,0-2.5,0-3.3c2.2-0.2,8.2-1.5,8.2-8.5c0-8.6,0-10.1,0-10.1l-3.4-3.1h8.6h16.5
					l3.4,3.1c0,0,0,1.4,0,10.1c0,7-5.9,8.3-8.2,8.5c0,0.8,0,1.9,0,3.3c0,4.7-4.9,4.7-4.9,4.7h-0.9c0,2.8,0,8.4,0,11.9
					c0,4.9,4.7,8.2,4.7,8.2l16.6,13.1c0,0,4.8,4.2,4.8,13.6c0,9.4,0,101.7,0,113.4c0,11.7-12.6,13.6-12.6,13.6h-25.1
					C1399.1,1267.8,1411.8,1265.8,1411.8,1254.2z"/>
				<path class="st33" d="M1326.5,1127.2l16.6-13.1c0,0,4.7-3.3,4.7-8.2c0-3.5,0-9.1,0-11.9h-0.8c0,0-4.9,0-4.9-4.7
					c0-1.4,0-2.5,0-3.3c-2.2-0.2-8.2-1.5-8.2-8.5c0-8.6,0-10.1,0-10.1l3.4-3.1h16.5h7.5l-3.4,3.1c0,0,0,1.4,0,10.1
					c0,7,5.9,8.3,8.2,8.5c0,0.8,0,1.9,0,3.3c0,4.7,4.9,4.7,4.9,4.7h0.8c0,2.8,0,8.4,0,11.9c0,4.9-4.7,8.2-4.7,8.2l-16.6,13.1
					c0,0-4.8,4.2-4.8,13.6c0,9.4,0,101.7,0,113.4c0,11.7,12.6,13.6,12.6,13.6h-24.1c0,0-12.6-2-12.6-13.6c0-11.7,0-104,0-113.4
					C1321.7,1131.4,1326.5,1127.2,1326.5,1127.2z"/>
				<path class="st4" d="M1334.1,1076.3c0-7.6,0-8.9,0-8.9l3.4-3.1h16.5h50.6h16.5l3.4,3.1c0,0,0,1.3,0,8.9H1334.1z"/>
				<rect x="1331.9" y="1050.4" class="st34" width="94.9" height="7.5"/>
			</g>
			<path class="st9" d="M1367.6,1187.9h69.3v29.3h-69.3c-7.7,0-13.9-6.2-13.9-13.9v-1.4C1353.7,1194.1,1359.9,1187.9,1367.6,1187.9z
				"/>
			<path class="st35" d="M1386.1,1171.9c0,2.1,1.7,3.9,3.9,3.9h25.6c2.1,0,3.9-1.7,3.9-3.9v-25.6c0-2.2-1.7-3.9-3.9-3.9H1390
				c-2.1,0-3.9,1.7-3.9,3.9V1171.9z"/>
			<path class="st9" d="M1382,1156.3c-1.5,1.5-1.5,4,0,5.5l18.1,18.1c1.5,1.5,4,1.5,5.5,0l18.1-18.1c1.5-1.5,1.5-4,0-5.5l-18.1-18.1
				c-1.5-1.5-4-1.5-5.5,0L1382,1156.3z"/>
			<path class="st36" d="M1385.4,1233.6h34.9c2.4,0,4.4-2,4.4-4.4c0-2.4-2-4.4-4.4-4.4h-34.9c-2.4,0-4.4,2-4.4,4.4
				C1380.9,1231.6,1382.9,1233.6,1385.4,1233.6z"/>
			<path class="st16" d="M1411.8,1254.2c0-11.7,0-104,0-113.4c0-9.4-4.8-13.6-4.8-13.6l-0.2-0.2h25.1l0.2,0.2c0,0,4.8,4.2,4.8,13.6
				c0,9.4,0,101.7,0,113.4c0,11.7-12.6,13.6-12.6,13.6h-25.1C1399.1,1267.8,1411.8,1265.8,1411.8,1254.2z"/>
		</g>
	</g>
	<g>
		<path class="st23" d="M565.9,658.2c4.3-4.3,12.4-11.8,16.2-15.2c3.8-3.4,4-9,4-9v-15.1h-0.3c-1.6,0-2.9-1.3-2.9-2.9v-5.9
			c0-1.6,1.3-2.9,2.9-2.9h70.8c1.6,0,2.9,1.3,2.9,2.9v5.9c0,1.6-1.3,2.9-2.9,2.9h-0.2V634c0,0,0.3,5.6,4,9
			c3.8,3.4,11.9,10.9,16.2,15.2c4.3,4.3,4.6,10.7,4.6,10.7s0,168.8,0,178.2c0,9.4-11.7,15.7-11.7,15.7l0,0c0,2.7-21.6,4.9-48.3,4.9
			c-26.7,0-48.3-2.2-48.3-4.9c0,0,0,0,0,0c-1-0.5-11.6-6.7-11.6-15.7c0-9.4,0-178.2,0-178.2S561.6,662.5,565.9,658.2z"/>
		<path class="st37" d="M656.6,618.9h-0.2v6.3h-70.4v-6.3h-0.3c-1.6,0-2.9-1.3-2.9-2.9v-5.9c0-1.6,1.3-2.9,2.9-2.9h70.8
			c1.6,0,2.9,1.3,2.9,2.9v5.9C659.5,617.7,658.2,618.9,656.6,618.9z"/>
		<rect x="561.3" y="698.5" class="st38" width="105.5" height="115.2"/>
		<path class="st9" d="M574.7,738.7c0,6,4.9,11,10.9,11h16.1c6,0,10.9-4.9,10.9-11v-16.1c0-6-4.9-10.9-10.9-10.9h-16.1
			c-6,0-10.9,4.9-10.9,10.9V738.7z"/>
		<path class="st9" d="M576.3,797.3h34.9c2.4,0,4.4-2,4.4-4.4c0-2.4-2-4.4-4.4-4.4h-34.9c-2.4,0-4.4,2-4.4,4.4
			C571.8,795.4,573.8,797.3,576.3,797.3z"/>
		<path class="st7" d="M561.3,761c1.2-0.5,2.5-0.8,3.8-0.8h57.2c5.6,0,10.1,4.5,10.1,10.1c0,5.6-4.5,10.1-10.1,10.1h-57.2
			c-1.4,0-2.7-0.3-3.8-0.8V761z"/>
		<path class="st9" d="M565.9,658.2c4.3-4.3,12.4-11.8,16.2-15.2c3.8-3.4,4-9,4-9v-15.1h-0.3c-1.6,0-2.9-1.3-2.9-2.9v-5.9
			c0-1.6,1.3-2.9,2.9-2.9h22c-1.6,0-2.9,1.3-2.9,2.9v5.9c0,1.6,1.3,2.9,2.9,2.9h0.3V634c0,0-0.3,5.6-4,9
			c-3.8,3.4-11.9,10.9-16.2,15.2c-4.3,4.3-4.6,10.7-4.6,10.7s0,168.8,0,178.2c0,9,10.6,15.1,11.6,15.7c0,0,0,0,0,0
			c0,2.3,15.9,4.3,37.3,4.8c-3.5,0.1-7.2,0.1-11,0.1c-26.7,0-48.3-2.2-48.3-4.9c0,0,0,0,0,0c-1-0.5-11.6-6.7-11.6-15.7
			c0-9.4,0-178.2,0-178.2S561.6,662.5,565.9,658.2z"/>
		<path class="st31" d="M646.5,862.9c0,0,11.7-6.3,11.7-15.7c0-9.4,0-178.2,0-178.2s-0.3-6.4-4.6-10.7c-4.3-4.3-12.4-11.8-16.2-15.2
			c-3.8-3.4-4-9-4-9v-15.1h0.2c1.6,0,2.9-1.3,2.9-2.9v-5.9c0-1.6-1.3-2.9-2.9-2.9h23c1.6,0,2.9,1.3,2.9,2.9v5.9
			c0,1.6-1.3,2.9-2.9,2.9h-0.2V634c0,0,0.3,5.6,4,9c3.8,3.4,11.9,10.9,16.2,15.2c4.3,4.3,4.6,10.7,4.6,10.7s0,168.8,0,178.2
			c0,9.4-11.7,15.7-11.7,15.7c0,2.7-21.6,4.9-48.3,4.9c-4,0-7.8,0-11.5-0.1C630.8,867.1,646.5,865.2,646.5,862.9z"/>
		<path class="st26" d="M582.2,606c0-10.7,0-37.3,0-40.7c0-4.3,5.9-8.4,5.9-8.4H617h8.4h28.9c0,0,5.9,4.1,5.9,8.4
			c0-0.8,0,25.8,0,40.7c2,0.7,3.4,2.7,3.4,5.1v2h-84.8v-2C578.8,608.7,580.2,606.7,582.2,606z"/>
		<path class="st7" d="M622.1,609.1c-1,0-2,0-3.1,0v-33.4c0-1.3,1.1-2.4,2.4-2.4c1.3,0,2.4,1.1,2.4,2.4V609
			C623.2,609.1,622.6,609.1,622.1,609.1z"/>
		<path class="st7" d="M660.9,609.1c-1,0-2,0-3.1,0v-33.4c0-1.3,1.1-2.4,2.4-2.4c1.3,0,2.4,1.1,2.4,2.4V609
			C662,609.1,661.4,609.1,660.9,609.1z"/>
		<path class="st7" d="M642.3,609.1c-1,0-2,0-3.1,0v-33.4c0-1.3,1.1-2.4,2.4-2.4c1.3,0,2.4,1.1,2.4,2.4V609
			C643.4,609.1,642.8,609.1,642.3,609.1z"/>
		<path class="st7" d="M581.4,609.1c1,0,2,0,3.1,0v-33.4c0-1.3-1.1-2.4-2.4-2.4c-1.3,0-2.4,1.1-2.4,2.4V609
			C580.3,609.1,580.8,609.1,581.4,609.1z"/>
		<path class="st7" d="M600.5,609.1c1,0,2,0,3.1,0v-33.4c0-1.3-1.1-2.4-2.4-2.4c-1.3,0-2.4,1.1-2.4,2.4V609
			C599.4,609.1,599.9,609.1,600.5,609.1z"/>
		<path class="st7" d="M663,608.3c0.4,0.8,0.7,1.7,0.7,2.7v2h-84.8v-2c0-1,0.3-1.9,0.7-2.7H663z"/>
		<path class="st27" d="M582.6,563.2c1.4-3.5,5.5-6.3,5.5-6.3H617h8.4h28.9c0,0,4.1,2.9,5.5,6.3H582.6z"/>
		<path class="st26" d="M578.9,610.3c0-0.1,0.1-0.3,0.1-0.4c0-0.1,0-0.2,0.1-0.3c0.1-0.2,0.1-0.4,0.2-0.5c0,0,0-0.1,0-0.1
			c0.1-0.3,0.3-0.6,0.5-0.9v-32.3c0-1.3,1.1-2.4,2.4-2.4c0,0,0,0,0.1,0c0-4,0-7,0-8c0-4.3,5.9-8.4,5.9-8.4H617h4.4v53.8h42.3
			c0,0.1,0,0.3,0,0.4v2h-84.8v-2C578.8,610.8,578.9,610.6,578.9,610.3z"/>
		<path class="st31" d="M668.8,673.4c1.4,0,2.6-1.2,2.6-2.6v-4.9c0-3.8-2.5-6.5-3.1-7l-10.5-11.1c-1-1-2.6-1.1-3.7-0.1
			c-1.1,1-1.1,2.6-0.1,3.7l10.6,11.3l0,0c0,0,1.5,1.5,1.5,3.3v4.9C666.2,672.3,667.3,673.4,668.8,673.4z"/>
		<path class="st32" d="M663.8,661.7l-3.8-4c-2-2.1,1.4-6.2,3.3-4.1l4.2,4.5C669.9,660.6,666.1,664.3,663.8,661.7z"/>
	</g>
	<g>
		<path class="st9" d="M217.1,696.1c0,0,17.4-13.5,20.2-15.5c2.8-2,2.8-5.1,2.8-5.1l0-6.5c-2.1-0.8-3.6-2.8-3.6-5.2v-9h3.6v-0.3h5.1
			h157.3h5.1v0.3h3.6v9c0,2.4-1.5,4.4-3.6,5.2l0,6.5c0,0,0,3.1,2.8,5.1c2.8,2,20.2,15.5,20.2,15.5s4.3,2,4.3,8.7c0,6.7,0,108,0,117
			c0,8.2-21.6,22.5-25.4,24.9c0.3,0.1,0.4,0.2,0.4,0.4c0,2-38.3,3.6-85.6,3.6c-47.3,0-85.6-1.6-85.6-3.6c0,0-25.9-16.3-25.9-25.2
			c0-9,0-110.4,0-117C212.9,698.1,217.1,696.1,217.1,696.1z"/>
		<path class="st37" d="M407.7,669l0,5.8H240.1l0-5.8c-2.1-0.8-3.6-2.8-3.6-5.2v-9h3.6v-0.3h5.1h157.3h5.1v0.3h3.6v9
			C411.2,666.2,409.7,668.2,407.7,669z"/>
		<rect x="212.9" y="711.9" class="st5" width="194.8" height="83.5"/>
		<rect x="362.2" y="711.9" class="st9" width="45.5" height="83.5"/>
		<path class="st9" d="M235.5,744.4c0,6.6,5.4,12,12,12h68.1c6.6,0,12-5.4,12-12l0,0c0-6.6-5.4-12-12-12h-68.1
			C240.9,732.4,235.5,737.8,235.5,744.4L235.5,744.4z"/>
		<path class="st9" d="M249.5,772.7h64.1c1.9,0,3.5-1.6,3.5-3.5c0-1.9-1.6-3.5-3.5-3.5h-64.1c-1.9,0-3.5,1.6-3.5,3.5
			C246,771.2,247.6,772.7,249.5,772.7z"/>
		<rect x="374" y="734.4" class="st5" width="11.4" height="38.5"/>
		<path class="st31" d="M371.3,847c0-0.1-0.1-0.2-0.4-0.4c3.7-2.4,25.4-16.7,25.4-24.9c0-9,0-110.4,0-117c0-6.7-4.3-8.7-4.3-8.7
			s-17.4-13.5-20.2-15.5c-2.8-2-2.8-5.1-2.8-5.1l0-6.5c2.1-0.8,3.6-2.8,3.6-5.2v-9H369l0-0.3h33.5h5.1v0.3h3.6v9
			c0,2.4-1.5,4.4-3.6,5.2l0,6.5c0,0,0,3.1,2.8,5.1c2.8,2,20.2,15.5,20.2,15.5s4.3,2,4.3,8.7c0,6.7,0,108,0,117
			c0,8.2-21.6,22.5-25.4,24.9c0.3,0.1,0.4,0.2,0.4,0.4c0,2-38.3,3.6-85.6,3.6c-6.6,0-13.1,0-19.3-0.1
			C343,850.2,371.3,848.7,371.3,847z"/>
		<path class="st15" d="M217.1,696.1c0,0,17.4-13.5,20.2-15.5c2.8-2,2.8-5.1,2.8-5.1l0-6.5c-2.1-0.8-3.6-2.8-3.6-5.2v-9h3.6v-0.3
			h5.1h34.1l0,0.3h-3.6v9c0,2.4,1.5,4.4,3.6,5.2l0,6.5c0,0,0,3.1-2.8,5.1c-2.8,2-20.2,15.5-20.2,15.5s-4.3,2-4.3,8.7
			c0,6.7,0,108,0,117c0,9,25.9,25.2,25.9,25.2c0,1.7,28.2,3.2,66,3.5c-6.3,0.1-12.8,0.1-19.6,0.1c-47.3,0-85.6-1.6-85.6-3.6
			c0,0-25.9-16.3-25.9-25.2c0-9,0-110.4,0-117C212.9,698.1,217.1,696.1,217.1,696.1z"/>
		<g>
			<path class="st5" d="M234,641.6v-59.4c0-5.3,4.1-9.6,9.2-9.6h160.7c5.1,0,9.2,4.3,9.2,9.6v59.4H234z"/>
			<path class="st5" d="M229.7,643.7v-9.9c0-3.4,2.6-6.2,5.9-6.2h176.6c3.2,0,5.9,2.8,5.9,6.2v9.9H229.7z"/>
			<polygon class="st5" points="235.3,643.7 316.6,643.7 331.1,643.7 412.4,643.7 418.1,649.9 418.1,659.7 331.1,659.7 316.6,659.7 
				229.7,659.7 229.7,649.9 			"/>
			<polygon class="st4" points="229.7,649.9 235.3,643.7 316.6,643.7 331.1,643.7 412.4,643.7 418,649.9 			"/>
			<polygon class="st4" points="229.7,649.9 235.3,643.7 316.6,643.7 331.1,643.7 412.4,643.7 418,649.9 			"/>
		</g>
		<path class="st4" d="M320.5,633.1c0,1.7,1.3,3,3,3l0,0c1.7,0,3-1.3,3-3v-43.7c0-1.7-1.3-3-3-3l0,0c-1.7,0-3,1.3-3,3V633.1z"/>
		<path class="st4" d="M339.9,633.1c0,1.7,1.3,3,3,3l0,0c1.7,0,3-1.3,3-3v-43.7c0-1.7-1.3-3-3-3l0,0c-1.7,0-3,1.3-3,3V633.1z"/>
		<path class="st4" d="M359.2,633.1c0,1.7,1.3,3,3,3l0,0c1.7,0,3-1.3,3-3v-43.7c0-1.7-1.3-3-3-3l0,0c-1.7,0-3,1.3-3,3V633.1z"/>
		<path class="st4" d="M378.6,633.1c0,1.7,1.3,3,3,3l0,0c1.7,0,3-1.3,3-3v-43.7c0-1.7-1.3-3-3-3l0,0c-1.7,0-3,1.3-3,3V633.1z"/>
		<path class="st4" d="M397.9,633.1c0,1.7,1.3,3,3,3l0,0c1.7,0,3-1.3,3-3v-43.7c0-1.7-1.3-3-3-3l0,0c-1.7,0-3,1.3-3,3V633.1z"/>
		<path class="st4" d="M243.1,633.1c0,1.7,1.3,3,3,3l0,0c1.7,0,3-1.3,3-3v-43.7c0-1.7-1.3-3-3-3l0,0c-1.7,0-3,1.3-3,3V633.1z"/>
		<path class="st4" d="M262.5,633.1c0,1.7,1.3,3,3,3l0,0c1.7,0,3-1.3,3-3v-43.7c0-1.7-1.3-3-3-3l0,0c-1.7,0-3,1.3-3,3V633.1z"/>
		<path class="st4" d="M281.8,633.1c0,1.7,1.3,3,3,3l0,0c1.7,0,3-1.3,3-3v-43.7c0-1.7-1.3-3-3-3l0,0c-1.7,0-3,1.3-3,3V633.1z"/>
		<path class="st4" d="M301.2,633.1c0,1.7,1.3,3,3,3l0,0c1.7,0,3-1.3,3-3v-43.7c0-1.7-1.3-3-3-3l0,0c-1.7,0-3,1.3-3,3V633.1z"/>
		<path class="st5" d="M229.7,643.7v-9.9c0-3.4,2.6-6.2,5.9-6.2h176.6c3.2,0,5.9,2.8,5.9,6.2v9.9H229.7z"/>
		<path class="st4" d="M229.7,633c0.3-3.1,2.8-5.5,5.8-5.5h176.6c3,0,5.5,2.4,5.8,5.5H229.7z"/>
		<path class="st4" d="M229.7,633.8c0-0.2,0-0.5,0-0.7c0,0,0,0,0,0c0.1-0.8,0.3-1.5,0.6-2.1c0,0,0,0,0,0c0.2-0.3,0.3-0.6,0.5-0.9
			c0,0,0,0,0.1-0.1c0.2-0.3,0.4-0.5,0.7-0.7c0,0,0.1-0.1,0.1-0.1c0.2-0.2,0.5-0.4,0.8-0.6c0,0,0.1,0,0.1-0.1
			c0.3-0.2,0.5-0.3,0.8-0.4c0,0,0.1,0,0.1,0c0.2-0.1,0.4-0.1,0.5-0.2v-45.6c0-5.3,4.1-9.6,9.2-9.6h80.3v87.2h-6.9h-86.9v-9.8
			l0.1-0.1l5.6-6.2h-5.6V633.8z"/>
		<path class="st16" d="M234.1,581.5c0.4-5,4.3-8.9,9.1-8.9h160.7c4.8,0,8.8,3.9,9.1,8.9H234.1z"/>
		<path class="st16" d="M229.7,636.1v-2.4c0-0.2,0-0.5,0-0.7H418c0,0.2,0,0.5,0,0.7v2.4H229.7z"/>
		<path class="st16" d="M229.7,653.2v-2.4c0-0.2,0-0.5,0-0.7H418c0,0.2,0,0.5,0,0.7v2.4H229.7z"/>
		<path class="st34" d="M355.5,643.7V592c0-6.9,5.6-12.6,12.6-12.6h7.7c6.9,0,12.6,5.6,12.6,12.6v51.7H355.5z"/>
		<path class="st31" d="M418,726.7c1.4,0,2.6-1.2,2.6-2.6v-18.3c0-4.7-3.5-7.9-3.9-8.2l-11-9.8c-1.1-1-2.7-0.9-3.7,0.2
			c-1,1.1-0.9,2.7,0.2,3.7l11,9.9c0,0,2.2,1.9,2.2,4.3v18.3C415.4,725.5,416.6,726.7,418,726.7z"/>
		<path class="st7" d="M414.9,703.8c-0.6-1.4-1.6-2.3-1.7-2.3l-2.1-1.9c-4-3.4,0.7-6.4,3.8-3.6l1.7,1.6c0.3,0.3,2.3,2.1,3.3,4.9
			C421.1,705.6,416.1,706.6,414.9,703.8z"/>
		<rect x="355.5" y="649.9" class="st7" width="32.8" height="9.9"/>
	</g>
</g>
<g id="Mandjes">
	<path class="st2" d="M1566.5,625.1l-272.9,581.1c-0.9,1.9-0.1,4.2,1.8,5.1c0.5,0.2,1.1,0.4,1.6,0.4c1.4,0,2.8-0.8,3.5-2.2
		L1570,635.7"/>
	<path class="st2" d="M1570,635.7l269.4,573.7c0.9,1.9,3.2,2.7,5.1,1.8c1.9-0.9,2.7-3.2,1.8-5.1l-272.9-581.1"/>
	<path id="XMLID_4_" class="st39" d="M1856.8,1208.5c0,113.4-223.1,126.8-286.8,126.8c-63.8,0-286.8-13.4-286.8-126.8H1856.8z"/>
	<path class="st40" d="M1320.5,1208.5c26.5,93.4,224.4,105.1,283.9,105.1c40.6,0,145.6-5.4,216.7-38.6
		c-65.2,52.6-204.2,60.2-252.3,60.2c-63.8,0-286.8-13.4-286.8-126.8H1320.5z"/>
	<path class="st2" d="M451.6,233l-272.9,585c-0.9,1.9-0.1,4.2,1.9,5.1c0.5,0.2,1.1,0.4,1.6,0.4c1.4,0,2.8-0.8,3.5-2.2l269.4-577.5"
		/>
	<path class="st2" d="M455.1,243.7l269.4,577.5c0.9,1.9,3.2,2.7,5.1,1.9c1.9-0.9,2.8-3.2,1.9-5.1L458.6,233"/>
	<path id="XMLID_3_" class="st41" d="M741.9,816.4c0,113.4-223.1,126.8-286.8,126.8c-63.8,0-286.8-13.4-286.8-126.8H741.9z"/>
	<path class="st42" d="M206.9,816.4c26.5,93.4,224.4,105.1,283.9,105.1c40.6,0,145.6-5.4,216.7-38.6
		c-65.2,52.6-204.2,60.2-252.3,60.2c-63.8,0-286.8-13.4-286.8-126.8H206.9z"/>
</g>
<g id="Weegschaal">
	<path class="st39" d="M168.3,1509.2h1689.3c12.4,0,22.5,10.1,22.5,22.5l0,0c0,12.4-10.1,22.5-22.5,22.5H168.3
		c-12.4,0-22.5-10.1-22.5-22.5l0,0C145.8,1519.4,155.9,1509.2,168.3,1509.2z"/>
	<g>
		<path class="st43" d="M1574.4,624c-0.4-1.4-1.6-2.5-3.1-2.7c-1.5-0.2-2.9,0.4-3.8,1.6"/>
		<path class="st43" d="M1569.3,634"/>
		<polygon id="XMLID_114_" class="st41" points="462.8,263.5 998,492.5 1563,633.1 1570.3,611.3 470.2,241.6 		"/>
		<path class="st40" d="M733.4,1467.5h76.8c-8.2,0-14.9-6.7-14.9-14.9v-16.2c0-8.2,6.7-14.9,14.9-14.9h405.5
			c8.2,0,14.9,6.7,14.9,14.9v16.2c0,8.2-6.7,14.9-14.9,14.9h76.8c15.4,0,27.9,12.5,27.9,27.9v8.6c0,15.4-12.5,27.9-27.9,27.9H733.4
			c-15.4,0-27.9-12.5-27.9-27.9v-8.6C705.5,1479.9,718,1467.5,733.4,1467.5z"/>
		
			<rect id="XMLID_74_" x="986.1" y="365" transform="matrix(-1 -4.489932e-11 4.489932e-11 -1 2025.8228 1786.4777)" class="st40" width="53.6" height="1056.4"/>
		
			<rect x="986.1" y="365" transform="matrix(-1 -4.488244e-11 4.488244e-11 -1 1999.0337 1786.4777)" class="st42" width="26.8" height="1056.4"/>
		<g>
			<ellipse transform="matrix(0.153 -0.9882 0.9882 0.153 143.0489 657.539)" class="st40" cx="455.1" cy="245.3" rx="37" ry="37"/>
			<path class="st42" d="M460.8,209l-11.3,73.1c-20.2-3.1-34-22-30.9-42.2S440.6,205.8,460.8,209z"/>
		</g>
		<g>
			<circle class="st40" cx="1012.9" cy="365" r="59.9"/>
			<path class="st42" d="M1012.9,305.1v119.8c-33.1,0-59.9-26.8-59.9-59.9S979.8,305.1,1012.9,305.1z"/>
		</g>
		<g>
			
				<ellipse transform="matrix(0.153 -0.9882 0.9882 0.153 712.7374 2081.6731)" class="st40" cx="1570.7" cy="625.1" rx="37" ry="37"/>
			<path class="st42" d="M1576.4,588.7l-11.3,73.1c-20.2-3.1-34-22-30.9-42.2C1537.3,599.4,1556.2,585.6,1576.4,588.7z"/>
		</g>
		<path class="st42" d="M733.4,1467.5h76.8c-8.2,0-14.9-6.7-14.9-14.9v-16.2c0-8.2,6.7-14.9,14.9-14.9h202.7v110.3H733.4
			c-15.4,0-27.9-12.5-27.9-27.9v-8.6C705.5,1479.9,718,1467.5,733.4,1467.5z"/>
	</g>
	<g>
		<path class="st7" d="M406.8,1833.6l-0.2-119.8L348,1815h-5l-58.6-100.8v119.4h-10v-140h8.6l62.6,108.2l62.6-108.2h8.4l0.2,140
			H406.8z"/>
		<path class="st7" d="M550.6,1783.8h-89.8c1,24.8,19.2,41.6,44.2,41.6c13.2,0,25.4-4.8,33.4-14.6l5.8,6.6
			c-9.2,11.2-23.6,17-39.4,17c-31.6,0-53.8-22-53.8-53c0-31,21.4-53,50-53c28.6,0,49.8,21.6,49.8,52.6
			C550.8,1781.8,550.6,1782.8,550.6,1783.8z M461,1776h80c-1.4-22.6-17.8-38.8-40-38.8C478.8,1737.2,462.6,1753.2,461,1776z"/>
		<path class="st7" d="M674.6,1685.3v148.4h-9.8V1809c-8.2,16.2-24,25.4-42.8,25.4c-29.4,0-51.6-21.8-51.6-53
			c0-31.4,22.2-53,51.6-53c18.6,0,34.2,9.2,42.6,25v-68.2H674.6z M664.6,1781.4c0-26.2-18-44-42-44s-42,17.8-42,44
			c0,26.2,18,44,42,44S664.6,1807.6,664.6,1781.4z"/>
		<path class="st7" d="M713.6,1695.9c0-4.4,3.6-8.2,8.2-8.2c4.6,0,8.2,3.6,8.2,8c0,4.6-3.6,8.2-8.2,8.2
			C717.2,1703.9,713.6,1700.3,713.6,1695.9z M716.8,1729.2h10v104.4h-10V1729.2z"/>
		<path class="st7" d="M757.6,1781.4c0-31.2,22.2-53,52.8-53c16.6,0,31,6.4,39.6,19.2l-7.4,5.4c-7.6-10.6-19.2-15.6-32.2-15.6
			c-24.6,0-42.6,17.6-42.6,44s18,44,42.6,44c13,0,24.6-5,32.2-15.6l7.4,5.4c-8.6,12.6-23,19.2-39.6,19.2
			C779.8,1834.4,757.6,1812.4,757.6,1781.4z"/>
		<path class="st7" d="M876.8,1695.9c0-4.4,3.6-8.2,8.2-8.2c4.6,0,8.2,3.6,8.2,8c0,4.6-3.6,8.2-8.2,8.2
			C880.4,1703.9,876.8,1700.3,876.8,1695.9z M880,1729.2h10v104.4h-10V1729.2z"/>
		<path class="st7" d="M893.4,1866.2l4-7.4c4.2,3.8,10.2,5.8,17,5.8c12.2,0,18.8-7.4,18.8-21v-114.4h10V1844
			c0,17.6-10,29.2-28.2,29.2C906.6,1873.2,898.4,1871,893.4,1866.2z M930,1695.9c0-4.4,3.6-8.2,8.2-8.2c4.6,0,8.2,3.6,8.2,8
			c0,4.6-3.6,8.2-8.2,8.2C933.6,1703.9,930,1700.3,930,1695.9z"/>
		<path class="st7" d="M1078.8,1772.6v61h-10v-60.2c0-23.6-12.6-36-33.8-36c-24.6,0-39.6,15.8-39.6,40.6v55.6h-10v-104.4h9.6v22.6
			c7-14.6,21.6-23.4,41.4-23.4C1061.8,1728.5,1078.8,1743.5,1078.8,1772.6z"/>
		<path class="st7" d="M1224,1781.4c0,31.2-22.2,53-51.6,53c-18.8,0-34.6-9.4-42.8-25.4v24.6h-9.6v-148.4h10v67.8
			c8.4-15.6,24-24.6,42.4-24.6C1201.8,1728.5,1224,1750,1224,1781.4z M1214,1781.4c0-26.2-18.2-44-42.2-44c-24,0-42,17.8-42,44
			c0,26.2,18,44,42,44C1195.8,1825.4,1214,1807.6,1214,1781.4z"/>
		<path class="st7" d="M1330,1767.4v66.2h-9.6V1815c-6.6,12-19.4,19.4-37.6,19.4c-23.4,0-37.6-12-37.6-29.8c0-15.8,10-29.2,39-29.2
			h35.8v-8.4c0-19.4-10.6-29.8-31-29.8c-14.4,0-27.4,5.4-36,13.2l-5-7.2c10.4-9.2,25.6-14.8,41.8-14.8
			C1315.6,1728.5,1330,1741.7,1330,1767.4z M1320,1802.8v-19.6h-35.6c-21.6,0-29.2,9-29.2,21c0,13.6,10.6,22,29,22
			C1301.8,1826.2,1314,1817.8,1320,1802.8z"/>
		<path class="st7" d="M1371.2,1685.3h10v148.4h-10V1685.3z"/>
		<path class="st7" d="M1498.8,1767.4v66.2h-9.6V1815c-6.6,12-19.4,19.4-37.6,19.4c-23.4,0-37.6-12-37.6-29.8
			c0-15.8,10-29.2,39-29.2h35.8v-8.4c0-19.4-10.6-29.8-31-29.8c-14.4,0-27.4,5.4-36,13.2l-5-7.2c10.4-9.2,25.6-14.8,41.8-14.8
			C1484.4,1728.5,1498.8,1741.7,1498.8,1767.4z M1488.8,1802.8v-19.6h-35.6c-21.6,0-29.2,9-29.2,21c0,13.6,10.6,22,29,22
			C1470.6,1826.2,1482.8,1817.8,1488.8,1802.8z"/>
		<path class="st7" d="M1633.4,1772.6v61h-10v-60.2c0-23.6-12.6-36-33.8-36c-24.6,0-39.6,15.8-39.6,40.6v55.6h-10v-104.4h9.6v22.6
			c7-14.6,21.6-23.4,41.4-23.4C1616.4,1728.5,1633.4,1743.5,1633.4,1772.6z"/>
		<path class="st7" d="M1659.2,1821l4.6-8c8,6.8,22.2,12.6,37.6,12.6c22,0,30.8-7.8,30.8-19.6c0-30.4-69.2-8-69.2-49
			c0-15.8,13.2-28.6,39.6-28.6c13.2,0,27.6,4,35.8,10.2l-4.6,8c-8.8-6.4-20.2-9.4-31.4-9.4c-20.4,0-29.4,8.4-29.4,19.6
			c0,31.4,69.2,9.2,69.2,49c0,17-14.6,28.6-41.2,28.6C1683.8,1834.4,1667.4,1828.6,1659.2,1821z"/>
	</g>
</g>
</svg>
