<?xml version="1.0" encoding="utf-8"?>
<!-- Generator: Adobe Illustrator 25.2.3, SVG Export Plug-In . SVG Version: 6.00 Build 0)  -->
<svg version="1.1" xmlns="http://www.w3.org/2000/svg" xmlns:xlink="http://www.w3.org/1999/xlink" x="0px" y="0px"
	 viewBox="0 0 2000 2000" style="enable-background:new 0 0 2000 2000;" xml:space="preserve">
<style type="text/css">
	.st0{fill:#E31C79;}
	.st1{fill:#FFFFFF;}
	.st2{fill:none;stroke:#B6B6B6;stroke-width:10;stroke-linecap:round;}
	.st3{fill:#FBDFEC;}
	.st4{display:none;}
	.st5{display:inline;}
	.st6{fill:#F39EC6;}
	.st7{fill:none;stroke:#EF7DB2;stroke-width:41.8247;stroke-miterlimit:10;}
	.st8{fill:#D1D3D4;}
	.st9{fill:#D6C0DE;}
	.st10{fill:#84429D;}
	.st11{fill:#AD81BE;}
	.st12{fill:#70228D;}
	.st13{fill:#C1C1C1;}
	.st14{opacity:0.64;fill:#C1C1C1;}
	.st15{opacity:0.41;fill:#FFFFFF;}
	.st16{clip-path:url(#SVGID_2_);}
	.st17{opacity:0.66;fill:#C1C1C1;}
	.st18{clip-path:url(#SVGID_4_);}
	.st19{clip-path:url(#SVGID_6_);}
	.st20{clip-path:url(#SVGID_8_);}
	.st21{clip-path:url(#SVGID_10_);}
	.st22{clip-path:url(#SVGID_12_);}
	.st23{clip-path:url(#SVGID_14_);}
	.st24{clip-path:url(#SVGID_16_);}
	.st25{clip-path:url(#SVGID_18_);}
	.st26{clip-path:url(#SVGID_20_);}
	.st27{fill:#C2A0CE;}
	.st28{fill:#FF9782;}
	.st29{fill:#E66A5E;}
	.st30{fill:#71433F;}
	.st31{fill:#4B2C2A;}
	.st32{clip-path:url(#SVGID_22_);fill:#FFFFFF;}
	.st33{clip-path:url(#SVGID_22_);}
	.st34{fill:#E69690;}
	.st35{fill:#EAA8A3;}
	.st36{fill:#E2857E;}
	.st37{fill:#9961AE;}
	.st38{opacity:0.3;fill:#582916;}
	.st39{fill:#EAEAEA;}
	.st40{filter:url(#Adobe_OpacityMaskFilter);}
	.st41{mask:url(#SVGID_23_);fill:#70228D;}
	.st42{opacity:0.6;fill:#DDDDDD;}
	.st43{opacity:0.34;fill:#FFFFFF;}
	.st44{opacity:0.5;fill:#FFFFFF;}
	.st45{fill-rule:evenodd;clip-rule:evenodd;fill:#70228D;}
	.st46{fill-rule:evenodd;clip-rule:evenodd;fill:#FFFFFF;}
	.st47{fill-rule:evenodd;clip-rule:evenodd;fill:#DBDBDB;}
	.st48{fill:#EBDFEF;}
	.st49{fill:#E6E7E8;}
	.st50{fill:#F0F1F2;}
	.st51{fill:#DCDDDE;}
	.st52{fill:#CDCECF;}
	.st53{fill:#BBBCBD;}
	.st54{fill:#F1F2F2;}
	.st55{fill:#D7D8D9;}
	.st56{fill:#CACBCC;}
</style>
<g id="Achtergrond_2">
	<polygon class="st0" points="2000,2000 0,2000 0,0 1710,0 2000,290 	"/>
	<g>
		<path class="st1" d="M338.9,1833.1l-0.2-119.8l-58.6,101.2h-5l-58.6-100.8v119.4h-10v-140h8.6l62.6,108.2l62.6-108.2h8.4l0.2,140
			H338.9z"/>
		<path class="st1" d="M482.7,1783.3h-89.8c1,24.8,19.2,41.6,44.2,41.6c13.2,0,25.4-4.8,33.4-14.6l5.8,6.6
			c-9.2,11.2-23.6,17-39.4,17c-31.6,0-53.8-22-53.8-53c0-31,21.4-53,50-53c28.6,0,49.8,21.6,49.8,52.6
			C482.9,1781.3,482.7,1782.3,482.7,1783.3z M393.1,1775.5h80c-1.4-22.6-17.8-38.8-40-38.8C410.9,1736.7,394.7,1752.7,393.1,1775.5z
			"/>
		<path class="st1" d="M606.7,1684.7v148.4h-9.8v-24.6c-8.2,16.2-24,25.4-42.8,25.4c-29.4,0-51.6-21.8-51.6-53
			c0-31.4,22.2-53,51.6-53c18.6,0,34.2,9.2,42.6,25v-68.2H606.7z M596.7,1780.9c0-26.2-18-44-42-44s-42,17.8-42,44
			c0,26.2,18,44,42,44S596.7,1807.1,596.7,1780.9z"/>
		<path class="st1" d="M645.7,1695.3c0-4.4,3.6-8.2,8.2-8.2c4.6,0,8.2,3.6,8.2,8c0,4.6-3.6,8.2-8.2,8.2
			C649.3,1703.3,645.7,1699.7,645.7,1695.3z M648.9,1728.7h10v104.4h-10V1728.7z"/>
		<path class="st1" d="M689.7,1780.9c0-31.2,22.2-53,52.8-53c16.6,0,31,6.4,39.6,19.2l-7.4,5.4c-7.6-10.6-19.2-15.6-32.2-15.6
			c-24.6,0-42.6,17.6-42.6,44s18,44,42.6,44c13,0,24.6-5,32.2-15.6l7.4,5.4c-8.6,12.6-23,19.2-39.6,19.2
			C711.9,1833.9,689.7,1811.9,689.7,1780.9z"/>
		<path class="st1" d="M887.5,1766.9v66.2h-9.6v-18.6c-6.6,12-19.4,19.4-37.6,19.4c-23.4,0-37.6-12-37.6-29.8
			c0-15.8,10-29.2,39-29.2h35.8v-8.4c0-19.4-10.6-29.8-31-29.8c-14.4,0-27.4,5.4-36,13.2l-5-7.2c10.4-9.2,25.6-14.8,41.8-14.8
			C873.1,1727.9,887.5,1741.1,887.5,1766.9z M877.5,1802.3v-19.6h-35.6c-21.6,0-29.2,9-29.2,21c0,13.6,10.6,22,29,22
			C859.3,1825.7,871.5,1817.3,877.5,1802.3z"/>
		<path class="st1" d="M980.5,1826.5c-5.2,5-13.6,7.4-21.4,7.4c-18.4,0-28.4-10.8-28.4-28.4v-68.2h-19.2v-8.6h19.2v-22.8h10v22.8
			h33.2v8.6h-33.2v67.2c0,13.4,6.6,20.8,19.4,20.8c6.2,0,12-2,16.2-5.8L980.5,1826.5z"/>
		<path class="st1" d="M1005.1,1695.3c0-4.4,3.6-8.2,8.2-8.2c4.6,0,8.2,3.6,8.2,8c0,4.6-3.6,8.2-8.2,8.2
			C1008.7,1703.3,1005.1,1699.7,1005.1,1695.3z M1008.3,1728.7h10v104.4h-10V1728.7z"/>
		<path class="st1" d="M1148.7,1783.3h-89.8c1,24.8,19.2,41.6,44.2,41.6c13.2,0,25.4-4.8,33.4-14.6l5.8,6.6
			c-9.2,11.2-23.6,17-39.4,17c-31.6,0-53.8-22-53.8-53c0-31,21.4-53,50-53c28.6,0,49.8,21.6,49.8,52.6
			C1148.9,1781.3,1148.7,1782.3,1148.7,1783.3z M1059.1,1775.5h80c-1.4-22.6-17.8-38.8-40-38.8
			C1076.9,1736.7,1060.7,1752.7,1059.1,1775.5z"/>
		<path class="st1" d="M1283.9,1780.9c0,31.4-22.2,53-51.6,53c-18.4,0-34-9-42.4-24.6v62.6h-10v-143.2h9.6v24.6
			c8.2-16,24-25.4,42.8-25.4C1261.7,1727.9,1283.9,1749.7,1283.9,1780.9z M1273.9,1780.9c0-26.2-18.2-44-42.2-44
			c-24,0-42,17.8-42,44c0,26.2,18,44,42,44C1255.7,1824.9,1273.9,1807.1,1273.9,1780.9z"/>
		<path class="st1" d="M1364.3,1727.9v9.8c-0.8,0-1.6-0.2-2.4-0.2c-23.2,0-37,15.4-37,41.2v54.4h-10v-104.4h9.6v22.8
			C1330.9,1736.3,1344.7,1727.9,1364.3,1727.9z"/>
		<path class="st1" d="M1379.5,1780.9c0-31,22.2-53,52.2-53s52.2,22,52.2,53c0,31-22.2,53-52.2,53S1379.5,1811.9,1379.5,1780.9z
			 M1473.7,1780.9c0-26.2-18-44-42-44s-42,17.8-42,44c0,26.2,18,44,42,44S1473.7,1807.1,1473.7,1780.9z"/>
		<path class="st1" d="M1503.5,1780.9c0-31.2,22.2-53,52.8-53c16.6,0,31,6.4,39.6,19.2l-7.4,5.4c-7.6-10.6-19.2-15.6-32.2-15.6
			c-24.6,0-42.6,17.6-42.6,44s18,44,42.6,44c13,0,24.6-5,32.2-15.6l7.4,5.4c-8.6,12.6-23,19.2-39.6,19.2
			C1525.7,1833.9,1503.5,1811.9,1503.5,1780.9z"/>
		<path class="st1" d="M1712.3,1783.3h-89.8c1,24.8,19.2,41.6,44.2,41.6c13.2,0,25.4-4.8,33.4-14.6l5.8,6.6
			c-9.2,11.2-23.6,17-39.4,17c-31.6,0-53.8-22-53.8-53c0-31,21.4-53,50-53s49.8,21.6,49.8,52.6
			C1712.5,1781.3,1712.3,1782.3,1712.3,1783.3z M1622.7,1775.5h80c-1.4-22.6-17.8-38.8-40-38.8
			C1640.5,1736.7,1624.3,1752.7,1622.7,1775.5z"/>
		<path class="st1" d="M1728.1,1820.5l4.6-8c8,6.8,22.2,12.6,37.6,12.6c22,0,30.8-7.8,30.8-19.6c0-30.4-69.2-8-69.2-49
			c0-15.8,13.2-28.6,39.6-28.6c13.2,0,27.6,4,35.8,10.2l-4.6,8c-8.8-6.4-20.2-9.4-31.4-9.4c-20.4,0-29.4,8.4-29.4,19.6
			c0,31.4,69.2,9.2,69.2,49c0,17-14.6,28.6-41.2,28.6C1752.7,1833.9,1736.3,1828.1,1728.1,1820.5z"/>
	</g>
	<g>
		<line class="st2" x1="1762.7" y1="66.1" x2="1946.9" y2="66.1"/>
		<line class="st2" x1="1762.7" y1="107.4" x2="1946.9" y2="107.4"/>
		<line class="st2" x1="1762.7" y1="148.6" x2="1946.9" y2="148.6"/>
		<line class="st2" x1="1762.7" y1="189.9" x2="1946.9" y2="189.9"/>
	</g>
	<polygon class="st3" points="2000,290 1710,290 1710,0 	"/>
</g>
<g id="Pijlen" class="st4">
	<g class="st5">
		<g>
			<g>
				<path class="st6" d="M300.3,899.8c-1.4-43.6,3.5-87.4,14.8-130.9c12.5-48.5,32.5-94.8,59.6-138.6l-28.2-12.4
					c-28.7,46.1-49.8,94.9-63.1,146c-11.8,45.5-16.9,95.8-15.4,141.4L300.3,899.8z"/>
			</g>
			<polygon class="st6" points="386.5,589.3 293.9,608.6 413.3,661.1 			"/>
		</g>
		<g>
			<path class="st6" d="M799.9,333.3c52.7-14.5,107.6-24.4,164.2-29.5c63-5.7,125.7-5.2,187.4,1.4l6.4-24.8
				c-65.1-7.1-131.2-7.6-197.6-1.6c-59.1,5.3-122.1,17.1-177.2,32.3L799.9,333.3z"/>
			<polygon class="st6" points="1205.1,301.2 1153.1,238.5 1126,343.3 			"/>
		</g>
		<g>
			<path class="st6" d="M1644.6,529.8c34,34.6,63,72.3,86.6,112.7c26.3,45,45.1,91.6,56.1,139.5l32.2-2.9
				c-11.5-50.4-31.1-99.6-58.9-147.1c-24.7-42.2-58.5-85.3-94-121.5L1644.6,529.8z"/>
			<polygon class="st6" points="1808.7,820.5 1869.1,762.6 1732.9,774.8 			"/>
		</g>
		<g>
			<path class="st6" d="M1667.7,1217.1c-32,35.8-69.2,68.8-111.3,98.6c-46.9,33.3-98.2,61.4-153.3,84.1l13.3,23
				c58.1-23.9,112.2-53.5,161.7-88.5c44-31.2,86.4-69.4,119.8-106.8L1667.7,1217.1z"/>
			<polygon class="st6" points="1362.6,1427.4 1451.8,1454.7 1395.4,1357.3 			"/>
		</g>
		<g>
			<path class="st6" d="M836.4,1445.3c-53.6-12.4-105.5-29.5-155.1-51.3c-55.3-24.2-105.7-53.3-150.7-86.9l-23.8,17.1
				c47.4,35.5,100.4,66.2,158.7,91.8c51.8,22.7,111.7,42.1,167.8,55L836.4,1445.3z"/>
			<polygon class="st6" points="484.2,1285.8 479.2,1360.4 580,1288 			"/>
		</g>
	</g>
</g>
<g id="Ovaal">
	<ellipse class="st7" cx="1000" cy="872.8" rx="750.2" ry="529.2"/>
</g>
<g id="Pillen_strip" class="st4">
	<g class="st5">
		<g>
			<path class="st1" d="M1327.3,694.3l-198.7-144c-8.4-6.1-10.3-17.9-4.2-26.4l287.9-397.3c6.1-8.4,17.9-10.3,26.4-4.2l198.7,144
				c8.4,6.1,10.3,17.9,4.2,26.4l-287.9,397.3C1347.6,698.5,1335.8,700.4,1327.3,694.3z"/>
			<g>
				<path class="st8" d="M1252.3,588.7c-2.3-1.6-2.8-4.8-1.2-7l23.3-32.1c1.6-2.2,4.7-2.7,7-1c2.3,1.6,2.8,4.8,1.2,7l-23.3,32.1
					C1257.7,589.9,1254.6,590.4,1252.3,588.7z M1298.9,524.5c-2.3-1.6-2.8-4.8-1.2-7l23.3-32.1c1.6-2.2,4.7-2.7,7-1
					c2.3,1.6,2.8,4.8,1.2,7l-23.3,32.1C1304.2,525.7,1301.1,526.2,1298.9,524.5z M1345.4,460.4c-2.3-1.6-2.8-4.8-1.2-7l23.3-32.1
					c1.6-2.2,4.7-2.7,7-1c2.3,1.6,2.8,4.8,1.2,7l-23.3,32.1C1350.8,461.5,1347.6,462,1345.4,460.4z M1391.9,396.2
					c-2.3-1.6-2.8-4.8-1.2-7l23.3-32.1c1.6-2.2,4.7-2.7,7-1c2.3,1.6,2.8,4.8,1.2,7l-23.3,32.1
					C1397.3,397.3,1394.1,397.8,1391.9,396.2z M1438.4,332c-2.3-1.6-2.8-4.8-1.2-7l23.3-32.1c1.6-2.2,4.7-2.7,7-1
					c2.3,1.6,2.8,4.8,1.2,7l-23.3,32.1C1443.8,333.2,1440.7,333.6,1438.4,332z M1484.9,267.8c-2.3-1.6-2.8-4.8-1.2-7l23.3-32.1
					c1.6-2.2,4.7-2.7,7-1c2.3,1.6,2.8,4.8,1.2,7l-23.3,32.1C1490.3,269,1487.2,269.4,1484.9,267.8z"/>
			</g>
			<g>
				<g>
					<path class="st8" d="M1465.9,246.6c-11.5,15.9-33.7,19.5-49.5,8c-15.8-11.5-19.3-33.7-7.8-49.6s33.7-19.5,49.5-8
						C1473.9,208.5,1477.4,230.7,1465.9,246.6z"/>
					<path class="st8" d="M1586.3,333.9c-11.5,15.9-33.7,19.5-49.5,8c-15.8-11.5-19.3-33.7-7.8-49.6c11.5-15.9,33.7-19.5,49.5-8
						C1594.4,295.8,1597.9,318,1586.3,333.9z"/>
				</g>
				<g>
					<g>
						<path class="st9" d="M1403.6,192.7c-11.1,16.2-7.1,38.3,9,49.4c16.1,11.1,38.2,6.9,49.3-9.3c11.1-16.2,7.1-38.3-9-49.4
							C1436.8,172.4,1414.7,176.5,1403.6,192.7z"/>
						<path class="st10" d="M1467.7,206.5c1.5,8.8-0.2,18.3-5.7,26.3c-11.1,16.2-33.2,20.4-49.3,9.3c-8-5.5-12.9-13.6-14.7-22.4
							L1467.7,206.5z"/>
						<path class="st11" d="M1437.7,239.8c7.2-1.4,13.5-5.5,17.7-11.5c4.2-6.1,5.7-13.4,4.4-20.6c-1.3-7.2-5.4-13.5-11.4-17.6
							c-6-4.1-13.3-5.7-20.6-4.3c-7.2,1.4-13.5,5.5-17.7,11.5c-8.6,12.5-5.5,29.7,7,38.3C1423.2,239.7,1430.5,241.2,1437.7,239.8z"
							/>
						<polygon class="st12" points="1467.6,206.2 1458.6,203 1405.2,213.1 1397.9,219.3 1407.3,222.4 1460,212.5 						"/>
						<polygon class="st9" points="1467.6,206.2 1460,212.5 1407.3,222.4 1398,219.4 						"/>
					</g>
					<g>
						<path class="st9" d="M1524.1,280c-11.1,16.2-7.1,38.3,9,49.4c16.1,11.1,38.2,6.9,49.3-9.3c11.1-16.2,7.1-38.3-9-49.4
							C1557.2,259.6,1535.2,263.8,1524.1,280z"/>
						<path class="st10" d="M1588.1,293.8c1.5,8.8-0.2,18.3-5.7,26.3c-11.1,16.2-33.2,20.4-49.3,9.3c-8-5.5-12.9-13.6-14.7-22.4
							L1588.1,293.8z"/>
						<path class="st11" d="M1558.2,327.1c7.2-1.4,13.5-5.5,17.7-11.5c4.2-6.1,5.7-13.4,4.4-20.6c-1.3-7.2-5.4-13.5-11.4-17.6
							c-6-4.1-13.3-5.7-20.6-4.3c-7.2,1.4-13.5,5.5-17.7,11.5c-8.6,12.5-5.5,29.7,7,38.3C1543.7,326.9,1551,328.5,1558.2,327.1z"/>
						<polygon class="st10" points="1588.1,293.5 1579.1,290.3 1525.7,300.4 1518.4,306.6 1527.7,309.7 1580.5,299.8 						"/>
						<polygon class="st9" points="1588,293.5 1580.5,299.8 1527.7,309.7 1518.4,306.6 						"/>
					</g>
				</g>
			</g>
			<g>
				<g>
					<path class="st8" d="M1392.9,347.3c-11.5,15.9-33.7,19.5-49.5,8c-15.8-11.5-19.3-33.7-7.8-49.6c11.5-15.9,33.7-19.5,49.5-8
						C1401,309.2,1404.5,331.4,1392.9,347.3z"/>
					<path class="st8" d="M1513.4,434.6c-11.5,15.9-33.7,19.5-49.5,8c-15.8-11.5-19.3-33.7-7.8-49.6c11.5-15.9,33.7-19.5,49.5-8
						C1521.4,396.5,1524.9,418.6,1513.4,434.6z"/>
				</g>
				<g>
					<g>
						<path class="st9" d="M1330.7,293.4c-11.1,16.2-7.1,38.3,9,49.4c16.1,11.1,38.2,6.9,49.3-9.3c11.1-16.2,7.1-38.3-9-49.4
							C1363.9,273,1341.8,277.2,1330.7,293.4z"/>
						<path class="st10" d="M1394.7,307.2c1.5,8.8-0.2,18.3-5.7,26.3c-11.1,16.2-33.2,20.4-49.3,9.3c-8-5.5-12.9-13.6-14.7-22.4
							L1394.7,307.2z"/>
						<path class="st11" d="M1364.8,340.5c7.2-1.4,13.5-5.5,17.7-11.5c4.2-6.1,5.7-13.4,4.4-20.6c-1.3-7.2-5.4-13.5-11.4-17.6
							c-6-4.1-13.3-5.7-20.6-4.3c-7.2,1.4-13.5,5.5-17.7,11.5c-8.6,12.5-5.5,29.7,7,38.3C1350.3,340.3,1357.6,341.8,1364.8,340.5z"
							/>
						<polygon class="st10" points="1394.7,306.8 1385.7,303.7 1332.3,313.7 1325,320 1334.4,323.1 1387.1,313.1 						"/>
						<polygon class="st9" points="1394.6,306.9 1387.1,313.1 1334.4,323.1 1325.1,320 						"/>
					</g>
					<g>
						<path class="st9" d="M1451.1,380.7c-11.1,16.2-7.1,38.3,9,49.4c16.1,11.1,38.2,6.9,49.3-9.3c11.1-16.2,7.1-38.3-9-49.4
							C1484.3,360.3,1462.2,364.5,1451.1,380.7z"/>
						<path class="st10" d="M1515.2,394.5c1.5,8.8-0.2,18.3-5.7,26.3c-11.1,16.2-33.2,20.4-49.3,9.3c-8-5.5-12.9-13.6-14.7-22.4
							L1515.2,394.5z"/>
						<path class="st11" d="M1485.2,427.8c7.2-1.4,13.5-5.5,17.7-11.5c4.2-6.1,5.7-13.4,4.4-20.6c-1.3-7.2-5.4-13.5-11.4-17.6
							c-6-4.1-13.3-5.7-20.6-4.3c-7.2,1.4-13.5,5.5-17.7,11.5c-8.6,12.5-5.5,29.7,7,38.3C1470.7,427.6,1478,429.1,1485.2,427.8z"/>
						<polygon class="st10" points="1515.1,394.1 1506.1,390.9 1452.7,401 1445.5,407.3 1454.8,410.4 1507.5,400.4 						"/>
						<polygon class="st9" points="1515.1,394.2 1507.5,400.4 1454.8,410.4 1445.5,407.3 						"/>
					</g>
				</g>
			</g>
			<g>
				<g>
					<path class="st8" d="M1320,447.9c-11.5,15.9-33.7,19.5-49.5,8c-15.8-11.5-19.3-33.7-7.8-49.6c11.5-15.9,33.7-19.5,49.5-8
						C1328.1,409.8,1331.5,432,1320,447.9z"/>
					<path class="st8" d="M1440.5,535.2c-11.5,15.9-33.7,19.5-49.5,8c-15.8-11.5-19.3-33.7-7.8-49.6s33.7-19.5,49.5-8
						C1448.5,497.1,1452,519.3,1440.5,535.2z"/>
				</g>
				<g>
					<g>
						<path class="st9" d="M1257.7,394c-11.1,16.2-7.1,38.3,9,49.4c16.1,11.1,38.2,6.9,49.3-9.3c11.1-16.2,7.1-38.3-9-49.4
							C1290.9,373.7,1268.9,377.8,1257.7,394z"/>
						<path class="st10" d="M1321.8,407.8c1.5,8.8-0.2,18.3-5.7,26.3c-11.1,16.2-33.2,20.4-49.3,9.3c-8-5.5-12.9-13.6-14.7-22.4
							L1321.8,407.8z"/>
						<path class="st11" d="M1291.9,441.1c7.2-1.4,13.5-5.5,17.7-11.5c4.2-6.1,5.7-13.4,4.4-20.6c-1.3-7.2-5.4-13.5-11.4-17.6
							c-6-4.1-13.3-5.7-20.6-4.3c-7.2,1.4-13.5,5.5-17.7,11.5c-8.6,12.5-5.5,29.7,7,38.3C1277.4,440.9,1284.7,442.5,1291.9,441.1z"
							/>
						<polygon class="st10" points="1321.8,407.5 1312.8,404.3 1259.4,414.4 1252.1,420.6 1261.4,423.7 1314.2,413.8 						"/>
						<polygon class="st9" points="1321.7,407.5 1314.2,413.8 1261.4,423.7 1252.1,420.6 						"/>
					</g>
					<g>
						<path class="st9" d="M1378.2,481.3c-11.1,16.2-7.1,38.3,9,49.4c16.1,11.1,38.2,6.9,49.3-9.3c11.1-16.2,7.1-38.3-9-49.4
							C1411.4,460.9,1389.3,465.1,1378.2,481.3z"/>
						<path class="st10" d="M1442.3,495.1c1.5,8.8-0.2,18.3-5.7,26.3c-11.1,16.2-33.2,20.4-49.3,9.3c-8-5.5-12.9-13.6-14.7-22.4
							L1442.3,495.1z"/>
						<path class="st11" d="M1412.3,528.4c7.2-1.4,13.5-5.5,17.7-11.5c4.2-6.1,5.7-13.4,4.4-20.6c-1.3-7.2-5.4-13.5-11.4-17.6
							c-6-4.1-13.3-5.7-20.6-4.3c-7.2,1.4-13.5,5.5-17.7,11.5c-8.6,12.5-5.5,29.7,7,38.3C1397.8,528.2,1405.1,529.8,1412.3,528.4z"
							/>
						<polygon class="st10" points="1442.2,494.8 1433.2,491.6 1379.8,501.7 1372.5,507.9 1381.9,511 1434.6,501.1 						"/>
						<polygon class="st9" points="1442.2,494.8 1434.6,501.1 1381.9,511 1372.6,507.9 						"/>
					</g>
				</g>
			</g>
			<g>
				<g>
					<path class="st8" d="M1247.1,548.6c-11.5,15.9-33.7,19.5-49.5,8c-15.8-11.5-19.3-33.7-7.8-49.6c11.5-15.9,33.7-19.5,49.5-8
						C1255.1,510.5,1258.6,532.7,1247.1,548.6z"/>
					<path class="st8" d="M1367.5,635.8c-11.5,15.9-33.7,19.5-49.5,8c-15.8-11.5-19.3-33.7-7.8-49.6c11.5-15.9,33.7-19.5,49.5-8
						C1375.6,597.7,1379.1,619.9,1367.5,635.8z"/>
				</g>
				<g>
					<g>
						<path class="st9" d="M1184.8,494.7c-11.1,16.2-7.1,38.3,9,49.4c16.1,11.1,38.2,6.9,49.3-9.3c11.1-16.2,7.1-38.3-9-49.4
							C1218,474.3,1195.9,478.5,1184.8,494.7z"/>
						<path class="st10" d="M1248.9,508.5c1.5,8.8-0.2,18.3-5.7,26.3c-11.1,16.2-33.2,20.4-49.3,9.3c-8-5.5-12.9-13.6-14.7-22.4
							L1248.9,508.5z"/>
						<path class="st11" d="M1218.9,541.8c7.2-1.4,13.5-5.5,17.7-11.5c4.2-6.1,5.7-13.4,4.4-20.6c-1.3-7.2-5.4-13.5-11.4-17.6
							c-6-4.1-13.3-5.7-20.6-4.3c-7.2,1.4-13.5,5.5-17.7,11.5c-8.6,12.5-5.5,29.7,7,38.3C1204.4,541.6,1211.7,543.1,1218.9,541.8z"
							/>
						<polygon class="st10" points="1248.8,508.1 1239.8,505 1186.4,515 1179.1,521.3 1188.5,524.4 1241.2,514.4 						"/>
						<polygon class="st9" points="1248.8,508.2 1241.2,514.4 1188.5,524.4 1179.2,521.3 						"/>
					</g>
					<g>
						<path class="st9" d="M1305.3,581.9c-11.1,16.2-7.1,38.3,9,49.4c16.1,11.1,38.2,6.9,49.3-9.3c11.1-16.2,7.1-38.3-9-49.4
							C1338.4,561.6,1316.4,565.7,1305.3,581.9z"/>
						<path class="st10" d="M1369.3,595.8c1.5,8.8-0.2,18.3-5.7,26.3c-11.1,16.2-33.2,20.4-49.3,9.3c-8-5.5-12.9-13.6-14.7-22.4
							L1369.3,595.8z"/>
						<path class="st11" d="M1339.4,629c7.2-1.4,13.5-5.5,17.7-11.5c4.2-6.1,5.7-13.4,4.4-20.6c-1.3-7.2-5.4-13.5-11.4-17.6
							c-6-4.1-13.3-5.7-20.6-4.3c-7.2,1.4-13.5,5.5-17.7,11.5c-8.6,12.5-5.5,29.7,7,38.3C1324.9,628.9,1332.2,630.4,1339.4,629z"/>
						<polygon class="st10" points="1369.3,595.4 1360.3,592.2 1306.9,602.3 1299.6,608.6 1308.9,611.7 1361.7,601.7 						"/>
						<polygon class="st9" points="1369.2,595.5 1361.7,601.7 1308.9,611.7 1299.6,608.6 						"/>
					</g>
				</g>
			</g>
		</g>
	</g>
	<g class="st5">
		<path class="st13" d="M-92.5,1186.8c0,16-13,29-29,29h-511.9c-16,0-29-13-29-29V980.3c0-16,13-29,29-29h511.9c16,0,29,13,29,29
			V1186.8z"/>
		<path class="st14" d="M-134.3,1083.6c0,3.4-2.8,6.2-6.2,6.2h-483.4c-3.4,0-6.2-2.8-6.2-6.2l0,0c0-3.4,2.8-6.2,6.2-6.2h483.4
			C-137,1077.3-134.3,1080.1-134.3,1083.6L-134.3,1083.6z"/>
		<g>
			<g>
				<path class="st13" d="M-560.2,1036.7c-10.4,10.4-27.3,10.4-37.7,0c-10.4-10.4-10.4-27.3,0-37.7c10.4-10.4,27.3-10.4,37.7,0
					C-549.8,1009.4-549.8,1026.3-560.2,1036.7z"/>
				<path class="st15" d="M-565.8,996.7c-5.7-5.6-13.2-8.8-21.2-8.8c-8,0-15.5,3.1-21.2,8.8c-5.7,5.6-8.8,13.2-8.8,21.2
					c0,8,3.1,15.5,8.8,21.2c5.7,5.7,13.2,8.8,21.2,8.8c8,0,15.5-3.1,21.2-8.8C-554.1,1027.3-554.1,1008.3-565.8,996.7z"/>
				<g>
					<defs>
						<path id="SVGID_1_" d="M-568.1,1036.7c-10.4,10.4-27.3,10.4-37.7,0c-10.4-10.4-10.4-27.3,0-37.7c10.4-10.4,27.3-10.4,37.7,0
							C-557.7,1009.4-557.7,1026.3-568.1,1036.7z"/>
					</defs>
					<clipPath id="SVGID_2_">
						<use xlink:href="#SVGID_1_"  style="overflow:visible;"/>
					</clipPath>
					<g class="st16">
						<path class="st1" d="M-568.1,1036.7c-10.4,10.4-27.3,10.4-37.7,0c-10.4-10.4-10.4-27.3,0-37.7c10.4-10.4,27.3-10.4,37.7,0
							C-557.7,1009.4-557.7,1026.3-568.1,1036.7z"/>
						
							<rect x="-617.3" y="1016.8" transform="matrix(0.7071 -0.7071 0.7071 0.7071 -891.8047 -117.0057)" class="st17" width="60.3" height="2.4"/>
					</g>
				</g>
			</g>
			<g>
				<path class="st13" d="M-455.7,1036.7c-10.4,10.4-27.3,10.4-37.7,0c-10.4-10.4-10.4-27.3,0-37.7c10.4-10.4,27.3-10.4,37.7,0
					C-445.3,1009.4-445.3,1026.3-455.7,1036.7z"/>
				<path class="st15" d="M-461.2,996.7c-5.7-5.6-13.2-8.8-21.2-8.8c-8,0-15.5,3.1-21.2,8.8c-5.7,5.6-8.8,13.2-8.8,21.2
					c0,8,3.1,15.5,8.8,21.2c5.7,5.7,13.2,8.8,21.2,8.8c8,0,15.5-3.1,21.2-8.8C-449.6,1027.3-449.6,1008.3-461.2,996.7z"/>
				<g>
					<defs>
						<path id="SVGID_3_" d="M-463.5,1036.7c-10.4,10.4-27.3,10.4-37.7,0c-10.4-10.4-10.4-27.3,0-37.7c10.4-10.4,27.3-10.4,37.7,0
							C-453.1,1009.4-453.1,1026.3-463.5,1036.7z"/>
					</defs>
					<clipPath id="SVGID_4_">
						<use xlink:href="#SVGID_3_"  style="overflow:visible;"/>
					</clipPath>
					<g class="st18">
						<path class="st1" d="M-463.5,1036.7c-10.4,10.4-27.3,10.4-37.7,0c-10.4-10.4-10.4-27.3,0-37.7c10.4-10.4,27.3-10.4,37.7,0
							C-453.1,1009.4-453.1,1026.3-463.5,1036.7z"/>
						
							<rect x="-512.7" y="1016.8" transform="matrix(0.7058 -0.7084 0.7084 0.7058 -863.1124 -42.3881)" class="st17" width="60.3" height="2.4"/>
					</g>
				</g>
			</g>
			<g>
				<path class="st13" d="M-351.2,1036.7c-10.4,10.4-27.3,10.4-37.7,0c-10.4-10.4-10.4-27.3,0-37.7c10.4-10.4,27.3-10.4,37.7,0
					C-340.7,1009.4-340.7,1026.3-351.2,1036.7z"/>
				<path class="st15" d="M-356.7,996.7c-5.7-5.6-13.2-8.8-21.2-8.8c-8,0-15.5,3.1-21.2,8.8c-5.7,5.6-8.8,13.2-8.8,21.2
					c0,8,3.1,15.5,8.8,21.2c5.7,5.7,13.2,8.8,21.2,8.8c8,0,15.5-3.1,21.2-8.8C-345,1027.3-345,1008.3-356.7,996.7z"/>
				<g>
					<defs>
						<path id="SVGID_5_" d="M-359,1036.7c-10.4,10.4-27.3,10.4-37.7,0c-10.4-10.4-10.4-27.3,0-37.7c10.4-10.4,27.3-10.4,37.7,0
							C-348.6,1009.4-348.6,1026.3-359,1036.7z"/>
					</defs>
					<clipPath id="SVGID_6_">
						<use xlink:href="#SVGID_5_"  style="overflow:visible;"/>
					</clipPath>
					<g class="st19">
						<path class="st1" d="M-359,1036.7c-10.4,10.4-27.3,10.4-37.7,0c-10.4-10.4-10.4-27.3,0-37.7c10.4-10.4,27.3-10.4,37.7,0
							C-348.6,1009.4-348.6,1026.3-359,1036.7z"/>
						
							<rect x="-408.2" y="1016.8" transform="matrix(0.7058 -0.7084 0.7084 0.7058 -832.3567 31.6722)" class="st17" width="60.3" height="2.4"/>
					</g>
				</g>
			</g>
			<g>
				<path class="st13" d="M-246.6,1036.7c-10.4,10.4-27.3,10.4-37.7,0c-10.4-10.4-10.4-27.3,0-37.7c10.4-10.4,27.3-10.4,37.7,0
					C-236.2,1009.4-236.2,1026.3-246.6,1036.7z"/>
				<path class="st15" d="M-252.2,996.7c-5.7-5.6-13.2-8.8-21.2-8.8c-8,0-15.5,3.1-21.2,8.8c-5.7,5.6-8.8,13.2-8.8,21.2
					c0,8,3.1,15.5,8.8,21.2c5.7,5.7,13.2,8.8,21.2,8.8c8,0,15.5-3.1,21.2-8.8C-240.5,1027.3-240.5,1008.3-252.2,996.7z"/>
				<g>
					<defs>
						<path id="SVGID_7_" d="M-254.5,1036.7c-10.4,10.4-27.3,10.4-37.7,0c-10.4-10.4-10.4-27.3,0-37.7c10.4-10.4,27.3-10.4,37.7,0
							C-244,1009.4-244,1026.3-254.5,1036.7z"/>
					</defs>
					<clipPath id="SVGID_8_">
						<use xlink:href="#SVGID_7_"  style="overflow:visible;"/>
					</clipPath>
					<g class="st20">
						<path class="st1" d="M-254.5,1036.7c-10.4,10.4-27.3,10.4-37.7,0c-10.4-10.4-10.4-27.3,0-37.7c10.4-10.4,27.3-10.4,37.7,0
							C-244,1009.4-244,1026.3-254.5,1036.7z"/>
						
							<rect x="-303.6" y="1016.8" transform="matrix(0.7071 -0.7071 0.7071 0.7071 -799.9404 104.7744)" class="st17" width="60.3" height="2.4"/>
					</g>
				</g>
			</g>
			<g>
				<path class="st13" d="M-142.1,1036.7c-10.4,10.4-27.3,10.4-37.7,0c-10.4-10.4-10.4-27.3,0-37.7c10.4-10.4,27.3-10.4,37.7,0
					C-131.6,1009.4-131.6,1026.3-142.1,1036.7z"/>
				<path class="st15" d="M-147.6,996.7c-5.7-5.6-13.2-8.8-21.2-8.8s-15.5,3.1-21.2,8.8c-5.7,5.6-8.8,13.2-8.8,21.2
					c0,8,3.1,15.5,8.8,21.2c5.7,5.7,13.2,8.8,21.2,8.8s15.5-3.1,21.2-8.8C-135.9,1027.3-135.9,1008.3-147.6,996.7z"/>
				<g>
					<defs>
						<path id="SVGID_9_" d="M-149.9,1036.7c-10.4,10.4-27.3,10.4-37.7,0c-10.4-10.4-10.4-27.3,0-37.7c10.4-10.4,27.3-10.4,37.7,0
							C-139.5,1009.4-139.5,1026.3-149.9,1036.7z"/>
					</defs>
					<clipPath id="SVGID_10_">
						<use xlink:href="#SVGID_9_"  style="overflow:visible;"/>
					</clipPath>
					<g class="st21">
						<path class="st1" d="M-149.9,1036.7c-10.4,10.4-27.3,10.4-37.7,0c-10.4-10.4-10.4-27.3,0-37.7c10.4-10.4,27.3-10.4,37.7,0
							C-139.5,1009.4-139.5,1026.3-149.9,1036.7z"/>
						
							<rect x="-199.1" y="1016.8" transform="matrix(0.7058 -0.7084 0.7084 0.7058 -770.8452 179.7929)" class="st17" width="60.3" height="2.4"/>
					</g>
				</g>
			</g>
		</g>
		<g>
			<g>
				<path class="st13" d="M-560.2,1169c-10.4,10.4-27.3,10.4-37.7,0c-10.4-10.4-10.4-27.3,0-37.7c10.4-10.4,27.3-10.4,37.7,0
					C-549.8,1141.7-549.8,1158.6-560.2,1169z"/>
				<path class="st15" d="M-565.8,1129c-5.7-5.6-13.2-8.8-21.2-8.8c-8,0-15.5,3.1-21.2,8.8c-5.7,5.7-8.8,13.2-8.8,21.2
					c0,8,3.1,15.5,8.8,21.2c5.7,5.7,13.2,8.8,21.2,8.8c8,0,15.5-3.1,21.2-8.8C-554.1,1159.6-554.1,1140.6-565.8,1129z"/>
				<g>
					<defs>
						<path id="SVGID_11_" d="M-568.1,1169c-10.4,10.4-27.3,10.4-37.7,0c-10.4-10.4-10.4-27.3,0-37.7c10.4-10.4,27.3-10.4,37.7,0
							C-557.7,1141.7-557.7,1158.6-568.1,1169z"/>
					</defs>
					<clipPath id="SVGID_12_">
						<use xlink:href="#SVGID_11_"  style="overflow:visible;"/>
					</clipPath>
					<g class="st22">
						<path class="st1" d="M-568.1,1169c-10.4,10.4-27.3,10.4-37.7,0c-10.4-10.4-10.4-27.3,0-37.7c10.4-10.4,27.3-10.4,37.7,0
							C-557.7,1141.7-557.7,1158.6-568.1,1169z"/>
						
							<rect x="-617.3" y="1149.1" transform="matrix(0.7072 -0.707 0.707 0.7072 -985.1348 -78.3269)" class="st17" width="60.3" height="2.4"/>
					</g>
				</g>
			</g>
			<g>
				<path class="st13" d="M-455.7,1169c-10.4,10.4-27.3,10.4-37.7,0c-10.4-10.4-10.4-27.3,0-37.7c10.4-10.4,27.3-10.4,37.7,0
					C-445.3,1141.7-445.3,1158.6-455.7,1169z"/>
				<path class="st15" d="M-461.2,1129c-5.7-5.6-13.2-8.8-21.2-8.8c-8,0-15.5,3.1-21.2,8.8c-5.7,5.7-8.8,13.2-8.8,21.2
					c0,8,3.1,15.5,8.8,21.2c5.7,5.7,13.2,8.8,21.2,8.8c8,0,15.5-3.1,21.2-8.8C-449.6,1159.6-449.6,1140.6-461.2,1129z"/>
				<g>
					<defs>
						<path id="SVGID_13_" d="M-463.5,1169c-10.4,10.4-27.3,10.4-37.7,0c-10.4-10.4-10.4-27.3,0-37.7c10.4-10.4,27.3-10.4,37.7,0
							C-453.1,1141.7-453.1,1158.6-463.5,1169z"/>
					</defs>
					<clipPath id="SVGID_14_">
						<use xlink:href="#SVGID_13_"  style="overflow:visible;"/>
					</clipPath>
					<g class="st23">
						<path class="st1" d="M-463.5,1169c-10.4,10.4-27.3,10.4-37.7,0c-10.4-10.4-10.4-27.3,0-37.7c10.4-10.4,27.3-10.4,37.7,0
							C-453.1,1141.7-453.1,1158.6-463.5,1169z"/>
						
							<rect x="-512.7" y="1149.1" transform="matrix(0.7059 -0.7083 0.7083 0.7059 -956.626 -3.5529)" class="st17" width="60.3" height="2.4"/>
					</g>
				</g>
			</g>
			<g>
				<path class="st13" d="M-351.2,1169c-10.4,10.4-27.3,10.4-37.7,0c-10.4-10.4-10.4-27.3,0-37.7c10.4-10.4,27.3-10.4,37.7,0
					C-340.7,1141.7-340.7,1158.6-351.2,1169z"/>
				<path class="st15" d="M-356.7,1129c-5.7-5.6-13.2-8.8-21.2-8.8c-8,0-15.5,3.1-21.2,8.8c-5.7,5.7-8.8,13.2-8.8,21.2
					c0,8,3.1,15.5,8.8,21.2c5.7,5.7,13.2,8.8,21.2,8.8c8,0,15.5-3.1,21.2-8.8C-345,1159.6-345,1140.6-356.7,1129z"/>
				<g>
					<defs>
						<path id="SVGID_15_" d="M-359,1169c-10.4,10.4-27.3,10.4-37.7,0c-10.4-10.4-10.4-27.3,0-37.7c10.4-10.4,27.3-10.4,37.7,0
							C-348.6,1141.7-348.6,1158.6-359,1169z"/>
					</defs>
					<clipPath id="SVGID_16_">
						<use xlink:href="#SVGID_15_"  style="overflow:visible;"/>
					</clipPath>
					<g class="st24">
						<path class="st1" d="M-359,1169c-10.4,10.4-27.3,10.4-37.7,0c-10.4-10.4-10.4-27.3,0-37.7c10.4-10.4,27.3-10.4,37.7,0
							C-348.6,1141.7-348.6,1158.6-359,1169z"/>
						
							<rect x="-408.2" y="1149.1" transform="matrix(0.7059 -0.7083 0.7083 0.7059 -925.8839 70.4939)" class="st17" width="60.3" height="2.4"/>
					</g>
				</g>
			</g>
			<g>
				<path class="st13" d="M-246.6,1169c-10.4,10.4-27.3,10.4-37.7,0c-10.4-10.4-10.4-27.3,0-37.7c10.4-10.4,27.3-10.4,37.7,0
					C-236.2,1141.7-236.2,1158.6-246.6,1169z"/>
				<path class="st15" d="M-252.2,1129c-5.7-5.6-13.2-8.8-21.2-8.8c-8,0-15.5,3.1-21.2,8.8c-5.7,5.7-8.8,13.2-8.8,21.2
					c0,8,3.1,15.5,8.8,21.2c5.7,5.7,13.2,8.8,21.2,8.8c8,0,15.5-3.1,21.2-8.8C-240.5,1159.6-240.5,1140.6-252.2,1129z"/>
				<g>
					<defs>
						<path id="SVGID_17_" d="M-254.5,1169c-10.4,10.4-27.3,10.4-37.7,0c-10.4-10.4-10.4-27.3,0-37.7c10.4-10.4,27.3-10.4,37.7,0
							C-244,1141.7-244,1158.6-254.5,1169z"/>
					</defs>
					<clipPath id="SVGID_18_">
						<use xlink:href="#SVGID_17_"  style="overflow:visible;"/>
					</clipPath>
					<g class="st25">
						<path class="st1" d="M-254.5,1169c-10.4,10.4-27.3,10.4-37.7,0c-10.4-10.4-10.4-27.3,0-37.7c10.4-10.4,27.3-10.4,37.7,0
							C-244,1141.7-244,1158.6-254.5,1169z"/>
						
							<rect x="-303.6" y="1149.1" transform="matrix(0.7072 -0.707 0.707 0.7072 -893.3109 143.4127)" class="st17" width="60.3" height="2.4"/>
					</g>
				</g>
			</g>
			<g>
				<path class="st13" d="M-142.1,1169c-10.4,10.4-27.3,10.4-37.7,0c-10.4-10.4-10.4-27.3,0-37.7c10.4-10.4,27.3-10.4,37.7,0
					C-131.6,1141.7-131.6,1158.6-142.1,1169z"/>
				<path class="st15" d="M-147.6,1129c-5.7-5.6-13.2-8.8-21.2-8.8s-15.5,3.1-21.2,8.8c-5.7,5.7-8.8,13.2-8.8,21.2
					c0,8,3.1,15.5,8.8,21.2c5.7,5.7,13.2,8.8,21.2,8.8s15.5-3.1,21.2-8.8C-135.9,1159.6-135.9,1140.6-147.6,1129z"/>
				<g>
					<defs>
						<path id="SVGID_19_" d="M-149.9,1169c-10.4,10.4-27.3,10.4-37.7,0c-10.4-10.4-10.4-27.3,0-37.7c10.4-10.4,27.3-10.4,37.7,0
							C-139.5,1141.7-139.5,1158.6-149.9,1169z"/>
					</defs>
					<clipPath id="SVGID_20_">
						<use xlink:href="#SVGID_19_"  style="overflow:visible;"/>
					</clipPath>
					<g class="st26">
						<path class="st1" d="M-149.9,1169c-10.4,10.4-27.3,10.4-37.7,0c-10.4-10.4-10.4-27.3,0-37.7c10.4-10.4,27.3-10.4,37.7,0
							C-139.5,1141.7-139.5,1158.6-149.9,1169z"/>
						
							<rect x="-199.1" y="1149.1" transform="matrix(0.7059 -0.7083 0.7083 0.7059 -864.3994 218.5878)" class="st17" width="60.3" height="2.4"/>
					</g>
				</g>
			</g>
		</g>
		<path class="st13" d="M-630.1,1083.6c0,3.4,2.8,6.1,6.2,6.1h483.4c3.4,0,6.2-2.7,6.2-6.1H-630.1z"/>
		<path class="st15" d="M-630.1,1083.6c0,3.4,2.8,6.1,6.2,6.1h483.4c3.4,0,6.2-2.7,6.2-6.1H-630.1z"/>
	</g>
</g>
<g id="Person">
	<g>
		<circle class="st1" cx="1167.4" cy="379.9" r="212"/>
		<g>
			<path class="st27" d="M1259.4,363.5c-2-8.3-5.7-16.1-7.5-24.4c-0.7-3.3-0.8-7.9-0.8-12.4c0.2-3.1,0.2-6.1,0.2-9.2
				c0,0,0-0.1,0-0.1c0.2-2.8,0.1-4.8-0.2-6.4c-0.9-18.8-5.6-37.1-18.8-52.4c-6.9-8-16-14-26.3-16.3c-11.5-2.5-23.1,0-34.6-0.6
				c-22.5-13.6-55.7,6.2-68.3,30.2c-3.4,6.5-27.2,51.2-35.4,91.3c-4.6,22.4-2.3,43.1,6.2,55.6c14,20.3,37.5,15.1,42.4,14
				c5.4-1.2,10.6-0.9,15.7-3.6c8.4-4.4,13.2-13.1,13.4-22.2c0.1-5.1-4.6-7.4-8.6-6.7c-1.3-4.4-3.9-8.5-7.1-12.3
				c-5.4-6.4-10.4-11.8-13.5-19c0-0.1,0-0.2,0-0.4c-0.1-1.2-0.6-2.2-1.2-2.9c-0.2-0.6-0.4-1.2-0.6-1.8c-5-19.4,0.6-39.5,2.8-58.8
				c0.1-0.8,0-1.5-0.2-2.2c2.1-8.5,4.9-16.8,3.3-25.9c-0.1-0.7-0.3-1.2-0.6-1.8l36.1-1.2c7.6-0.3,9.9-9.5,6-13.6
				c4.1,0.4,8.2,1.3,12.2,2.9c5.1,1.9,9.5-2.1,10.1-6.7c12.8-0.2,25.2,0.4,34.9,10.6c11,11.5,14.4,26.9,15.6,42.4
				c-0.1,0.5-0.2,1-0.2,1.6c0,1.7,0.1,3.5,0.5,5.3c-0.8,12.2-7.7,27.6-10.4,32.6c-3.5,6.8-3.9,13.6-5.9,20.9
				c-1.9,7.1-6.1,13.1-10.6,18.7c-8.5,10.6-17.7,19.9-23.4,32.3c-0.3,0.5-0.5,1.1-0.8,1.7c-3.4,8.9,9.4,13.5,14.1,6.3
				c0.2,0.3,0.9,0.5,2.1,0.5c2.2,0.7,4.3,1.4,6.5,2.1c4.1,1.3,8.3,3,12.5,4c6.4,1.6,12.1,1.1,17.6-2.6c10.2-6.8,17.2-19.4,20.9-30.7
				C1261.8,389.7,1262.5,376.2,1259.4,363.5z"/>
			<path class="st28" d="M1204.3,468.5c-4-9.8-1.4-47,0.2-69.3c0.6-7.9-5.3-2.8-8.3,3.1c-0.1,0.1-0.2,0.2-0.4,0.3
				c-3.1-1-6.9,0.2-8.1,4.3c-0.2,0.6-0.3,1.1-0.5,1.7c-3.1-2.3-8.6-1.1-10.5,3.3c-0.4,0.9-0.7,1.7-1,2.6c-0.8-6-9.2-8.5-11.9-3.3
				c0-0.1,0-0.3,0-0.4c-0.5-4.2-5-6-8.5-4.9c-1.8-5.1-10.1-5-11.9,0.2c-0.7-0.3-1.4-0.5-2.1-0.5c0-0.7,0-1.3,0.1-2
				c0.1-0.2,0.2-0.4,0.3-0.6c0.6-1.6,0.6-2.8,0.5-4.5c-0.1-1.1-0.8-4.9-0.6-1c-0.5-8.7-12.6-9.7-12.9-0.6c0,0.8,0,1.6-0.1,2.3
				c-0.1,0.7-4.7,2.6-2,4.3c5,37.2,6.4,56.3,0,62.3c-6.1,5.8,15.6,21.2,16.2,12.1c0-0.6,0.1-1.2,0.1-1.8c1.3,0.7,2.9,0.8,4.4,0.5
				c0.1,0.2,0.2,0.5,0.3,0.7c1.9,3.9,6.2,4.4,9.2,2.5c2.5,3.8,7.6,4.2,10.3,1.4c3.1,3.3,8,2.2,10.1-1.3c3.2,1.6,8-0.5,9.5-4.4
				c0.6,0.3,1.3,0.5,2,0.5c3.2,3.7,9.9,4,11-2.1c0.1-0.6,0.8,0.8,0.8,0.8C1200.5,474.6,1204.3,468.6,1204.3,468.5z"/>
			<path class="st29" d="M1203.1,401.6c-5.1-0.3-10.4,0.9-15.5,1.9c-0.1,0.5-0.3,1.1-0.4,1.6c-0.8-0.6-1.7-0.9-2.7-1.1
				c-0.3,0.1-0.7,0.1-1.1,0.2c-1,0.2-2,0.3-3.1,0.4c-1.6,0.7-2.9,1.9-3.7,3.7c-0.4,0.9-0.7,1.7-1,2.6c-0.3-2.4-1.8-4.2-3.7-5.2
				c-2.5,0.3-5,0.6-7.6,0.9c-0.2,0.3-0.5,0.6-0.7,1c0-0.1,0-0.3,0-0.4c0-0.2-0.1-0.3-0.1-0.5c-2.5,0.3-5,0.5-7.6,0.7
				c-7.9,0.7-23.1-10.8-29.5-4.5c1.3,10.5,3.7,29,4,36.1c6.4,4.5,14.3,6.8,22.3,5.9c6.6-0.7,12.1-3.9,18.3-6.1
				c8.6-3,15.9-2,24.7-0.9c2.2,0.3,4.3,0.2,6.3-0.2c0.2-11.8,1.1-25.1,1.8-36.1C1203.6,401.6,1203.4,401.6,1203.1,401.6z"/>
			<path class="st28" d="M1228.8,330c0-2.8,0.1-5.5,0.4-8.3c-5-2.1-8.8-6.7-10.6-12.2c-6.7-20.8-22.6-38.3-44-43.9
				c-10.5-2.7-23.4-4.8-34-1.4c-10.2,3.3-17.5,13.2-28,15.3c-3.7,9-7.4,19.4-7.4,26.6l2,41.1c0,11.4,0.6,26.5,5.2,37
				c10.7,24.7,43.5,46.8,49,48.4c3.7,1.1,4.8,1.1,7.3,0.3c11.7-4,41.1-27.7,47.8-39.7c9-16.2,14.8-36.1,18.3-55.6
				C1231.7,336.7,1228.9,333.5,1228.8,330z"/>
			<path class="st30" d="M1185.8,393.9c-6.2,2.1-11.9,5.6-17.8,5.4c-6.2-0.2-11.4-3.9-17.5-4.8c-0.5-0.1-0.8-0.1-1.1,0.2
				c-0.6,0.6,0,2.2,0.9,2.6c14.3,7.1,21.6,8.5,36.4-0.8c0.3-0.2,0.4-0.6,0.5-1C1187.5,394.6,1186.7,393.6,1185.8,393.9z"/>
			<path class="st29" d="M1172.9,369.4c-4.1,0.4-9,0-11.8-3.6c-2.7-3.5-0.8-8-0.1-11.8c0.4-2.2-3-2.7-3.4-0.6
				c-1.1,5.4-2.8,10.5,1.3,15.1c3.6,4.1,9.2,4.7,14.3,4.3C1175.5,372.6,1175.1,369.2,1172.9,369.4z"/>
			<path class="st28" d="M1239.4,344.2c-3.7-8.9-12.2-6-15.3,1.4c-0.6,1.5-0.2,2.8,0.8,3.6c-2,5.1-3.6,10.7-5,15.9
				c-0.1,0.6-0.3,1.2-0.5,1.8c0,0,0,0,0,0c-1.3,1.4-1.2,3.2-0.4,4.5c0.2,1.3,0.7,2.5,1.9,3.4c3.2,2.3,7.5-0.4,10.1-2.3
				C1238.5,366.7,1243.2,353,1239.4,344.2z"/>
			<path class="st28" d="M1204.6,558.2c8-43,138.3-19.8,102.5-50c-16.4-13.9-35.4-18.4-55.4-22.9c-18-4-47-10.6-52.3-32.9
				c-2-8.6-14.5-5-12.4,3.7c0.4,1.6,0.9,3.1,1.4,4.6c-3.2-2.4-6.5-2.9-9.4-2c-4.3-0.9-8.5,0.6-11.1,3.8c-0.4-0.7-0.8-1.4-1.2-2.2
				c-4.1-6.4-13.5-9.3-19-2.6c-0.3,0.4-0.7,0.8-1,1.2c0.3-0.9,0.6-1.8,0.8-2.8c2-8.6-10.4-12.3-12.4-3.7
				c-5.2,22.3-34.3,28.9-52.3,32.9c-20,4.5-38.9,9-55.4,22.9c-35.8,30.2,67.2,1.9,75.2,44.9"/>
			<path class="st27" d="M1213.3,253.9c-11.8-8.3-26.5-11.5-40.8-10.6c-13.8,0.8-30.1,4.3-39.2,15.5c-1.6,2-1.2,4.9,0.2,6.9
				c-2.8,3.6-1.6,9.9,4.1,9.7c19.4-0.9,42.8-5.3,61.4,1.6c23.1,8.6,27.8,35.7,26.1,56.3c-0.6,6.7,10.3,9,11.8,2.2
				C1243.3,306.9,1239.9,272.6,1213.3,253.9z"/>
			<path class="st31" d="M1204.6,344.6c-0.2,3.5-2.2,6.2-4.4,6c-2.2-0.2-3.7-3.1-3.5-6.6c0.2-3.5,2.2-6.2,4.4-6
				C1203.2,338.2,1204.8,341.1,1204.6,344.6z"/>
			<path class="st31" d="M1139.8,342c-0.2,3.5-2.2,6.2-4.4,6c-2.2-0.2-3.7-3.1-3.5-6.6c0.2-3.5,2.2-6.2,4.4-6
				C1138.5,335.6,1140,338.5,1139.8,342z"/>
			<path class="st27" d="M1214.4,285.4c-0.6-0.7-1.1-1.4-1.6-2.1c-0.6-0.7-1.2-1.3-1.8-1.8c-0.7-0.8-1.4-1.5-2.1-2.3
				c-6.3-7.1-14.5-15.9-24.3-18c-5.8-1.2-10.9,1.6-12.3,6.4c-4.6-4.5-9.8-8.5-16.2-11.6c-8.9-4.3-17.5,8.6-8.5,13
				c17.6,8.6,24.2,23.9,34.9,39.1c4.6,6.6,10.1,12.8,17.2,16.8c7,4,20.6,5.6,26.3,11.6c5,5.3,7.5,1.8,8.6-4.7
				C1237.4,314.1,1225.8,298.4,1214.4,285.4z"/>
			<path class="st27" d="M1150,261.1c-2.7,2.2-5.2,4.7-7.5,7.3c0.3-0.8,0.5-1.6,0.7-2.4c0.7-2.7-1-5.5-3.9-5.7
				c-1.9-0.1-3.4,0.2-4.6,0.9c-1.9-0.9-4.5-0.6-5.5,1.3c-1.5-0.9-3.5-0.9-5.1,0.4c-1.4,1.3-0.1-8.6-1.2-7.1
				c-1.9-2.2-9,9.3-10.1,12.7c-2,6-11.1,31.1-9.5,45.3c0,0.8-0.1,1.6-0.1,2.4c0,1.3,0.5,2.4,1.3,3.2c-1.1,2.1-2.2,4.2-3.5,6.2
				c-1.8,2.8,0.2,6.4,3.4,6.7c13.2,1.2,28.3-5.2,31.8-19c1.9-7.3,1.1-15,3.4-22.3c2.9-9.4,8.6-17.2,16.2-23.4
				C1160.1,264,1154.3,257.6,1150,261.1z"/>
			<path class="st12" d="M1226.2,297c-1.1-1.9-4.2-0.3-3.1,1.6c6.1,10.4,9,21.7,8.6,33.8c-0.1,2.2,3.4,2.4,3.5,0.2
				C1235.6,319.9,1232.6,307.9,1226.2,297z"/>
			<path class="st12" d="M1112.8,287.3c1.2-1.9,4.2-0.2,3,1.7c-6.6,10.1-9.9,21.3-9.9,33.4c0,2.2-3.5,2.3-3.5,0
				C1102.4,309.8,1105.9,297.9,1112.8,287.3z"/>
			<path class="st12" d="M1229.8,331.5c-2.7-7.9-6.4-15.3-11.2-22.1c-1.3-1.8-3.8,0.5-2.6,2.3c4.4,6.4,7.9,13.2,10.4,20.6
				C1227.1,334.3,1230.5,333.6,1229.8,331.5z"/>
			<path class="st12" d="M1236,407.4c-4.4,6-8,12.5-10.6,19.4c-0.8,2.1,2.5,3.2,3.3,1.1c2.5-6.7,5.9-12.9,10.2-18.6
				C1240.2,407.5,1237.3,405.6,1236,407.4z"/>
			<path class="st12" d="M1108.1,418c-3.7-4.5-6.7-9.5-8.8-14.9c-0.8-2.1-3.9-0.5-3.1,1.6c2.2,5.7,5.3,10.9,9.3,15.6
				C1106.9,422,1109.5,419.7,1108.1,418z"/>
			<path class="st12" d="M1094.4,421.6c-4.8-3.6-8.2-8.5-9.9-14.3c-0.6-2.1-4-1.4-3.4,0.8c2,6.6,5.9,12.2,11.4,16.4
				C1094.3,425.8,1096.1,422.9,1094.4,421.6z"/>
			<path class="st12" d="M1167.9,592c60.8,0,115.6-25.6,154.2-66.7c-4-6.2-8.9-11.9-15-17.1c-14.2-12-30.2-17-47.2-21
				c-22.2,10.5-47,15.6-71.8,16.8c-36.4,1.7-76-0.9-108.7-18c-18.8,4.3-36.6,9-52.2,22.1c-5.8,4.9-10.5,10.3-14.4,16.1
				C1051.5,565.9,1106.6,592,1167.9,592z"/>
		</g>
	</g>
	<g>
		<defs>
			<circle id="SVGID_21_" cx="841.2" cy="1364.8" r="216.3"/>
		</defs>
		<clipPath id="SVGID_22_">
			<use xlink:href="#SVGID_21_"  style="overflow:visible;"/>
		</clipPath>
		<circle class="st32" cx="841.2" cy="1364.8" r="216.3"/>
		<g class="st33">
			<path class="st28" d="M882,1437.9c-4.5-11.1-1.6-53.5,0.2-78.8c0.7-9-6-3.1-9.5,3.5c-0.1,0.1-0.3,0.2-0.4,0.3
				c-3.6-1.1-7.9,0.2-9.2,4.9c-0.2,0.6-0.3,1.3-0.5,1.9c-3.5-2.6-9.8-1.3-11.9,3.8c-0.4,1-0.8,2-1.2,3c-0.9-6.8-10.5-9.7-13.5-3.8
				c0-0.1,0-0.3,0-0.4c-0.6-4.8-5.7-6.8-9.7-5.6c-2-5.7-11.5-5.7-13.6,0.3c-0.8-0.3-1.6-0.5-2.4-0.6c0-0.8,0-1.5,0.1-2.3
				c0.1-0.2,0.2-0.5,0.3-0.7c0.7-1.8,0.7-3.2,0.5-5.1c-0.1-1.2-0.9-5.6-0.7-1.1c-0.5-9.9-14.4-11-14.7-0.7c0,0.9,0,1.8-0.1,2.7
				c-0.1,0.8-5.4,3-2.3,4.8c5.7,42.3,7.3,64,0,70.8c-7,6.6,17.7,24.1,18.4,13.7c0-0.7,0.1-1.4,0.1-2c1.5,0.8,3.3,0.9,5,0.5
				c0.1,0.3,0.2,0.5,0.4,0.8c2.1,4.4,7.1,5,10.5,2.8c2.8,4.3,8.6,4.8,11.7,1.6c3.5,3.8,9.1,2.5,11.5-1.5c3.6,1.8,9.1-0.6,10.8-5
				c0.7,0.3,1.5,0.5,2.3,0.6c3.6,4.2,11.3,4.5,12.5-2.4c0.1-0.7,0.9,1,0.9,1C877.7,1444.8,882,1438,882,1437.9z"/>
			<path class="st34" d="M862.9,1369.2c0,0.2-0.1,0.4-0.1,0.5c-0.3-0.2-0.6-0.4-1-0.5c-1.1,0-2.2,0-3,0c-1.2,0-2.5,0-3.7,0
				c-1.8,0.8-3.4,2.2-4.3,4.3c-0.4,1-0.8,2-1.2,3c-0.9-6.8-10.5-9.7-13.5-3.8c0-0.1,0-0.3,0-0.4c-0.2-1.3-0.7-2.4-1.4-3.3
				c-0.3,0-0.7,0-1,0c-6.8-0.5-13.5-2.1-20.2-3.2c-0.2,0.4-0.4,0.7-0.6,1.2c-0.8-0.3-1.6-0.5-2.4-0.6c0-0.3,0-0.7,0-1
				c-1.5-0.2-3.1-0.4-4.6-0.4c-3.5-0.2-8.1-0.2-12,0.7c1.8,13.4,3.2,24.6,3.9,34c1.9,1.2,3.9,2.4,5.9,3.4c6.3,3.1,13,5,20,5.5
				c17.2,1.2,30.8-0.3,46.8-4.9c2.2-0.6,4.9-3.9,8.2-4.8c0.4-8,2.3-21,2.8-28.5C875.1,1369.2,868,1369.2,862.9,1369.2z"/>
			<path class="st11" d="M1017.9,1481.7c-18.7-15.8-59-31-81.7-36.1c-11.6-2.6-27.2-6.2-39.6-13.3c-6.6-4.5-4.4-13.6-5.7-23.7
				c-0.8-6-5.3-10.3-13.2-9.8c-22.9,1.6-44.6,2.4-67,2.5c-7.9,0-16.8-2.6-22.3,6.7c-4.2,7,2.8,15.9-5.2,24.6c0,0-0.1-0.1-0.1-0.1
				c-12.4,7-27.8,10.5-39.3,13.1c-22.7,5.1-25.5,20.3-44.2,36.1c-40.7,34.3-36.7,92.4-27.6,141.3c1.1,6,6.7,6.8,10.6,4.3
				c4,11.3,20.5,12.9,25.2,2c3.9,0.1,7.8-1.3,10.7-4.3c3.1,3.9,8,5.9,13.8,4.7c2.8-0.6,5.1-1.8,7.1-3.4c0,2.2,0.2,4.4,0.5,6.6
				c1.8,12.9,19.8,13.8,25.1,3.5c2.1-4,3.8-8.2,5.3-12.5c6,11.3,20.7,10.5,25.4-2.6c0.6-1.7,1.1-3.4,1.7-5.1
				c1.6,1.4,3.4,2.5,5.2,3.1c6.3,1.9,11.9-1.5,15.5-6.8c1.1-1.5,2-3.2,2.9-4.9c4,8.7,16.2,11.8,22.5,4.1c1.3,1.1,2.8,2,4.6,2.6
				c15.1,5,30.9,3.1,46.3,1c2.4-0.3,4.7-0.7,7-1.1c3,5.4,10.2,7.7,15.6,6.4c5.6-1.3,9.9-5.1,13.1-10.2c1.8,4.1,4.3,7.6,7.7,9.9
				c6.6,4.5,15.1,2.4,19.9-3.8c1.7,5.1,4.3,9.6,8.1,13.1c6.7,6.2,16,5.1,20.8-1.9c4.6,7,14.9,7.2,21,1.6c1.9-1.7,3.2-3.7,4.3-5.9
				c0.3,0.1,0.6,0.2,0.9,0.2c0.1,0.1,0.2,0.2,0.3,0.3c5.5,5,14,5.8,19.2,0.4c3,5.4,11.8,6.2,13.3-1.5
				C1054.5,1574.2,1058.6,1516.1,1017.9,1481.7z"/>
			<path class="st35" d="M907.8,1254.1c0-2.5-0.1-5.1-0.2-7.6c-2.8-4.6-16.7-14.6-68.5-17.1c-46.8-2.3-69.6,18-72.7,21.4
				c-0.7,3.6-1.1,7.1-1,10l4.6,46.5c0.6,12.9,2.2,30,8,41.7c13.6,27.4,45.7,49.1,52,50.6c4.3,1.1,15.5,2.2,22,0
				c13.2-4.6,37.8-32.3,44.7-46.3c9.3-19,16.9-55.2,19.8-77.6C913,1274.9,907.9,1263,907.8,1254.1z"/>
			<path class="st36" d="M850.5,1349.9c-4.7,0.7-10.2,0.5-13.6-3.4c-3.2-3.8-1.4-9-0.8-13.4c0.4-2.5-3.5-2.9-3.9-0.4
				c-0.9,6.2-2.5,12.1,2.3,17c4.3,4.4,10.7,4.8,16.5,4C853.6,1353.4,853,1349.6,850.5,1349.9z"/>
			<path class="st36" d="M861.7,1360.5c-5.5,1.2-11.9,6.8-17.7,7.4c-10.4,1.1-16.2-3.7-21.2-6.2c-4-2-1.8,2.5-1.1,3.4
				c11.7,15.7,29.4,13.7,40.8-1.9C862.8,1362.7,865.3,1359.7,861.7,1360.5z"/>
			<path class="st12" d="M811,1207.4c-3.4,1.5-28.9,25.7-30.9,25.5c-6.6-0.5-12.9,8-15.7,13c-5.1,9.4-4.1,11.2-2.8,21.5
				c0.7,5.2,2.6,34,5.1,37.2c3.5,4.5,9.5,3.4,11.9-1.6c2.2-4.7,1.9-36.2,3.8-42.6c3.9-12.8,17.9-19.6,30.9-25.2
				C819.1,1232.8,816.8,1205,811,1207.4z"/>
			<path class="st12" d="M919.1,1269.8c-0.1-2.1-3.3-2.8-3.9-0.5c-0.3,1.5-0.7,3-1,4.4c-0.1,0-0.2,0-0.3,0c-0.2-0.5-0.5-0.9-0.7-1.4
				c-1-1.9-5.7-2.5-7-5.6c-0.8-1.8-12.1-1.7-10-0.2c9.6,7,7.5,22.1,7.8,33.1c0.1,2.9-1,11.3,4.2,11.3c4.6,0,5.8-8.5,6.6-11.4
				C917.8,1289.7,919.8,1280,919.1,1269.8z"/>
			<path class="st35" d="M761.3,1309.3c4.7-9.9,14.2-6.1,17.3,2.4c0.6,1.7,3.9,10.3,2.8,11.1c2,5.9-0.4,5.2,0.9,11.2
				c0.1,0.6,0.3,1.3,0.4,2.1c0,0,0,0,0,0c1.4,1.7,1.2,3.7,0.2,5.2c-0.3,1.5-1,2.8-2.4,3.8c-3.7,2.4-8.6-0.8-11.3-3.2
				C761.1,1334.9,756.5,1319.2,761.3,1309.3z"/>
			<path class="st35" d="M914.8,1311c-4.7-9.9-14.2-6.1-17.3,2.4c-0.6,1.7,0,3.1,1.1,4c-2,5.9-3.4,12.3-4.7,18.4
				c-0.1,0.6-0.3,1.3-0.4,2.1c0,0,0,0,0,0c-1.4,1.7-1.2,3.7-0.2,5.2c0.3,1.5,1,2.8,2.4,3.8c3.7,2.4,8.6-0.8,11.3-3.2
				C914.9,1336.6,919.5,1320.8,914.8,1311z"/>
			<path class="st12" d="M928.7,1260.4c-3.5-19.2-15.2-57.1-43.2-73.4c-30-17.5-64.7,4.1-67.4,6.7c-23.2-1.7-45.8,9.6-57.5,30.7
				c-16,28.9-3.6,62.6,3.8,92.1c1.9,7.6,13.5,5.9,13.5-1.8c0-18.4,0.5-36.5,10.4-52.7c5.9-9.7,13.2-18.6,21.1-27
				c1.1,5.8,2.8,11.5,4.8,16.6c5.5,13.8,12,27.5,21.1,39.2c9,11.6,19.3,12.9,33.2,10.6c3.8-0.6,5.5-5.1,4.8-8.5
				c-2.8-13.7-5.9-27.4-9.6-40.9c3.7,1.5,4.8,6.7,5.9,9.8c2.3,6.4,3.7,13,5.7,19.5c3,9.8,8.3,17.7,18,21.7c6.3,2.6,19.7,6,26,2
				c3.1-1.9,4.8-5.5,5.6-9.5C931.6,1286.6,930.3,1269.5,928.7,1260.4z"/>
			<path class="st31" d="M876.5,1313.7c-0.1,4-2.1,7.1-4.6,7.1c-2.5,0-4.4-3.3-4.4-7.3c0.1-4,2.1-7.1,4.6-7.1
				C874.6,1306.5,876.6,1309.7,876.5,1313.7z"/>
			<path class="st31" d="M816,1314.5c-0.1,4-2.1,7.1-4.6,7.1c-2.5,0-4.4-3.3-4.4-7.3c0.1-4,2.1-7.1,4.6-7.1
				C814.1,1307.3,816.1,1310.6,816,1314.5z"/>
			<path class="st12" d="M812.6,1222.9c-2.9-4.8-5-9.8-6.5-15.2c-0.7-2.4-4.5-1.4-3.8,1c1.6,5.7,3.8,11.1,6.9,16.2
				C810.5,1227.1,813.9,1225.1,812.6,1222.9z"/>
			<path class="st37" d="M900.1,1273.5c-2.2-10.4-5.6-20.4-10.2-30c-1.1-2.3-4.5-0.3-3.4,2c4.4,9.3,7.6,19,9.8,29
				C896.8,1277.1,900.6,1276,900.1,1273.5z"/>
			<path class="st37" d="M910.1,1243.4c-2.6-11.4-6.9-22.2-12.7-32.4c-1.3-2.2-4.7-0.2-3.4,2c5.7,9.9,9.8,20.3,12.3,31.4
				C906.9,1246.9,910.6,1245.8,910.1,1243.4z"/>
			<path class="st12" d="M913.6,1260.4c-0.7-2.4-4.5-1.4-3.8,1c1.1,3.9,1.6,7.9,1.4,12c-0.1,2.5,3.8,2.5,3.9,0
				C915.3,1268.9,914.8,1264.6,913.6,1260.4z"/>
			<path class="st37" d="M765.5,1229.6c-1.8,4.5-2.8,9.1-3,14c-0.2,2.5,3.8,2.5,3.9,0c0.3-4.5,1.3-8.8,2.9-12.9
				C770.2,1228.3,766.4,1227.3,765.5,1229.6z"/>
			<path class="st12" d="M840.8,1455.8c17.2-0.3,49.6-3.9,61.3-20.6c-1.2-0.6-2.4-1.2-3.6-1.8c-3,4.1-7.5,7.3-12.7,9.8
				c-3.1-12.2,1.7-33.8-7-44.4c-0.3,0-0.7,0-1,0c-1.5,0.1-3,0.2-4.5,0.3c10.9,8.1,5.5,33.4,8.9,45.7c-6.7,2.7-14.2,4.4-21.4,5.5
				c-1.8-14.4,0.4-28.9-2.2-43.2c-0.5-2.5-4.2-1.4-3.8,1c2.6,14.1,0.5,28.5,2.1,42.7c-5.3,0.7-10.3,1-14.2,1.1
				c-4.2,0.1-8.5,0.1-12.8-0.1c-1-6-1.4-12-1.1-18.1c0.1-2.5-3.8-2.5-3.9,0c-0.2,6,0.2,12,1.1,17.9c-3.4-0.2-6.8-0.4-10.1-0.7
				c-0.9-14.8-2.6-29.9,1.8-44.3c0.7-2.4-3.1-3.5-3.8-1c-4.4,14.6-2.8,29.9-1.9,44.9c-4.4-0.5-11-2.1-16.8-4.9
				c0.8-4.8,1.3-9.6,1.3-14.5c0-2.5-3.9-2.5-3.9,0c0,4.2-0.3,8.4-1,12.6c-4.5-2.7-8.1-6.2-9.4-10.5c-1,0.6-2.1,1.1-3.1,1.6
				c2.8,7.1,10.2,12.8,16.7,16.1C808.4,1457.3,827,1456.1,840.8,1455.8z"/>
			<path class="st12" d="M870.5,1403.6c-1.4-2.1-4.8-0.1-3.4,2c3.4,5.2,3.1,11.2,2.7,17.1c-0.2,2.5,3.8,2.5,3.9,0
				C874.2,1416.1,874.3,1409.4,870.5,1403.6z"/>
			<path class="st12" d="M826,1409.4c-1.3,4.8-1.8,9.8-1.4,14.8c0.2,2.5,4.1,2.5,3.9,0c-0.4-4.7,0-9.2,1.3-13.7
				C830.5,1408,826.7,1406.9,826,1409.4z"/>
			<path class="st12" d="M796.1,1405.3c-3,6.2-4.3,12.8-3.5,19.7c0.3,2.5,4.2,2.5,3.9,0c-0.7-6.2,0.2-12.1,3-17.7
				C800.6,1405,797.2,1403,796.1,1405.3z"/>
			<path class="st12" d="M844.9,1422.8c-0.1,4.4-0.1,8.7-0.2,13.1c0,2.5,3.9,2.5,3.9,0c0.1-4.4,0.1-8.7,0.2-13.1
				C848.8,1420.2,844.9,1420.2,844.9,1422.8z"/>
			<path class="st12" d="M727.5,1502.4c-7.9,12.3,6.4,35.9,5.1,50.5c-0.2,2.5,3.7,2.5,3.9,0c1.2-13.9-13.2-36.8-5.7-48.5
				C732.3,1502.2,728.9,1500.3,727.5,1502.4z"/>
			<path class="st12" d="M963.8,1515.3c-0.9-2.4-4.7-1.3-3.8,1c3.8,10.3,24.5,31,24.7,42c0,2.5,4,2.5,3.9,0
				C988.4,1547,967.6,1526,963.8,1515.3z"/>
		</g>
	</g>
</g>
<g id="Potje">
	<g>
		<path class="st37" d="M1597.3,1230.8c0,0-23.7-18.3-27.4-21c-3.7-2.7-3.7-6.9-3.7-6.9l0-8.8c2.8-1.1,4.8-3.8,4.8-7.1v-12.2h-4.9
			v-0.4h-7h-213.8h-6.9v0.4h-4.9v12.2c0,3.3,2,6,4.8,7.1l0,8.8c0,0,0,4.2-3.7,6.9c-3.7,2.7-27.4,21-27.4,21s-5.8,2.7-5.8,11.8
			c0,9.1,0,146.9,0,159.1c0,11.2,29.4,30.6,34.5,33.8c-0.4,0.2-0.6,0.3-0.6,0.5c0,2.7,52.1,5,116.3,5c64.3,0,116.3-2.2,116.3-5
			c0,0,35.2-22.1,35.2-34.3c0-12.2,0-150,0-159.1C1603.1,1233.5,1597.3,1230.8,1597.3,1230.8z"/>
		<path class="st38" d="M1338.2,1194l0,7.9h227.9l0-7.9c2.8-1.1,4.8-3.8,4.8-7.1v-12.2h-4.9v-0.4h-7h-213.8h-6.9v0.4h-4.9v12.2
			C1333.4,1190.2,1335.4,1193,1338.2,1194z"/>
		<rect x="1338.2" y="1252.3" class="st39" width="264.9" height="113.6"/>
		<defs>
			<filter id="Adobe_OpacityMaskFilter" filterUnits="userSpaceOnUse" x="1301.2" y="1174.3" width="176.5" height="266.7">
				<feColorMatrix  type="matrix" values="1 0 0 0 0  0 1 0 0 0  0 0 1 0 0  0 0 0 1 0"/>
			</filter>
		</defs>
		<mask maskUnits="userSpaceOnUse" x="1301.2" y="1174.3" width="176.5" height="266.7" id="SVGID_23_">
			<g class="st40">
			</g>
		</mask>
		<path class="st41" d="M1387.6,1436c0-0.2,0.2-0.3,0.6-0.5c-5.1-3.3-34.5-22.7-34.5-33.8c0-12.2,0-150,0-159.1
			c0-9.1,5.8-11.8,5.8-11.8s23.7-18.3,27.4-21c3.7-2.7,3.7-6.9,3.7-6.9l0-8.8c-2.8-1.1-4.8-3.8-4.8-7.1v-12.2h4.9l0-0.4h-45.5h-6.9
			v0.4h-4.9v12.2c0,3.3,2,6,4.8,7.1l0,8.8c0,0,0,4.2-3.7,6.9c-3.7,2.7-27.4,21-27.4,21s-5.8,2.7-5.8,11.8c0,9.1,0,146.9,0,159.1
			c0,11.2,29.4,30.6,34.5,33.8c-0.4,0.2-0.6,0.3-0.6,0.5c0,2.7,52.1,5,116.3,5c9,0,17.8,0,26.2-0.1
			C1426.1,1440.3,1387.6,1438.4,1387.6,1436z"/>
		<path class="st12" d="M1597.3,1230.8c0,0-23.7-18.3-27.4-21c-3.7-2.7-3.7-6.9-3.7-6.9l0-8.8c2.8-1.1,4.8-3.8,4.8-7.1v-12.2h-4.9
			v-0.4h-7h-46.3l0,0.4h4.9v12.2c0,3.3-2,6-4.8,7.1l0,8.8c0,0,0,4.2,3.7,6.9c3.7,2.7,27.5,21,27.5,21s5.8,2.7,5.8,11.8
			c0,9.1,0,146.9,0,159.1c0,12.2-35.2,34.3-35.2,34.3c0,2.3-38.3,4.3-89.7,4.8c8.6,0.1,17.5,0.1,26.6,0.1c64.3,0,116.3-2.2,116.3-5
			c0,0,35.2-22.1,35.2-34.3c0-12.2,0-150,0-159.1C1603.1,1233.5,1597.3,1230.8,1597.3,1230.8z"/>
		<g>
			<path class="st39" d="M1574.3,1156.8v-80.7c0-7.2-5.6-13.1-12.5-13.1h-218.4c-6.9,0-12.5,5.9-12.5,13.1v80.7H1574.3z"/>
			<path class="st39" d="M1580.2,1159.6v-13.5c0-4.6-3.6-8.4-8-8.4h-240.1c-4.4,0-8,3.8-8,8.4v13.5H1580.2z"/>
			<polygon class="st39" points="1572.5,1159.6 1462,1159.6 1442.3,1159.6 1331.8,1159.6 1324.1,1168.1 1324.1,1181.4 
				1442.3,1181.4 1462,1181.4 1580.2,1181.4 1580.2,1168.1 			"/>
			<polygon class="st42" points="1580.1,1168 1572.5,1159.6 1462,1159.6 1442.3,1159.6 1331.8,1159.6 1324.2,1168 			"/>
			<polygon class="st42" points="1580.1,1168 1572.5,1159.6 1462,1159.6 1442.3,1159.6 1331.8,1159.6 1324.2,1168 			"/>
		</g>
		<path class="st42" d="M1456.7,1145.2c0,2.2-1.8,4.1-4.1,4.1l0,0c-2.2,0-4.1-1.8-4.1-4.1v-59.4c0-2.2,1.8-4.1,4.1-4.1l0,0
			c2.2,0,4.1,1.8,4.1,4.1V1145.2z"/>
		<path class="st42" d="M1430.4,1145.2c0,2.2-1.8,4.1-4.1,4.1l0,0c-2.2,0-4.1-1.8-4.1-4.1v-59.4c0-2.2,1.8-4.1,4.1-4.1l0,0
			c2.2,0,4.1,1.8,4.1,4.1V1145.2z"/>
		<path class="st42" d="M1404.1,1145.2c0,2.2-1.8,4.1-4.1,4.1l0,0c-2.2,0-4.1-1.8-4.1-4.1v-59.4c0-2.2,1.8-4.1,4.1-4.1l0,0
			c2.2,0,4.1,1.8,4.1,4.1V1145.2z"/>
		<path class="st42" d="M1377.7,1145.2c0,2.2-1.8,4.1-4.1,4.1l0,0c-2.3,0-4.1-1.8-4.1-4.1v-59.4c0-2.2,1.8-4.1,4.1-4.1l0,0
			c2.2,0,4.1,1.8,4.1,4.1V1145.2z"/>
		<path class="st42" d="M1351.4,1145.2c0,2.2-1.8,4.1-4.1,4.1l0,0c-2.2,0-4.1-1.8-4.1-4.1v-59.4c0-2.2,1.8-4.1,4.1-4.1l0,0
			c2.2,0,4.1,1.8,4.1,4.1V1145.2z"/>
		<path class="st42" d="M1561.9,1145.2c0,2.2-1.8,4.1-4.1,4.1l0,0c-2.2,0-4.1-1.8-4.1-4.1v-59.4c0-2.2,1.8-4.1,4.1-4.1l0,0
			c2.3,0,4.1,1.8,4.1,4.1V1145.2z"/>
		<path class="st42" d="M1535.6,1145.2c0,2.2-1.8,4.1-4.1,4.1l0,0c-2.3,0-4.1-1.8-4.1-4.1v-59.4c0-2.2,1.8-4.1,4.1-4.1l0,0
			c2.2,0,4.1,1.8,4.1,4.1V1145.2z"/>
		<path class="st42" d="M1509.3,1145.2c0,2.2-1.8,4.1-4.1,4.1l0,0c-2.2,0-4.1-1.8-4.1-4.1v-59.4c0-2.2,1.8-4.1,4.1-4.1l0,0
			c2.2,0,4.1,1.8,4.1,4.1V1145.2z"/>
		<path class="st42" d="M1483,1145.2c0,2.2-1.8,4.1-4.1,4.1l0,0c-2.3,0-4.1-1.8-4.1-4.1v-59.4c0-2.2,1.8-4.1,4.1-4.1l0,0
			c2.2,0,4.1,1.8,4.1,4.1V1145.2z"/>
		<path class="st39" d="M1580.2,1159.6v-13.5c0-4.6-3.6-8.4-8-8.4h-240.1c-4.4,0-8,3.8-8,8.4v13.5H1580.2z"/>
		<path class="st42" d="M1580.1,1145.1c-0.5-4.2-3.8-7.4-7.9-7.4h-240.1c-4.1,0-7.5,3.3-7.9,7.4H1580.1z"/>
		<path class="st42" d="M1580.2,1146.1c0-0.3,0-0.7-0.1-1c0,0,0,0,0,0c-0.1-1-0.4-2-0.9-2.9c0,0,0,0,0,0c-0.2-0.4-0.5-0.8-0.7-1.2
			c0,0,0-0.1-0.1-0.1c-0.3-0.4-0.6-0.7-0.9-1c0,0-0.1-0.1-0.1-0.1c-0.3-0.3-0.7-0.6-1-0.8c0,0-0.1-0.1-0.1-0.1
			c-0.4-0.2-0.7-0.4-1.1-0.6c-0.1,0-0.1,0-0.2-0.1c-0.2-0.1-0.5-0.2-0.7-0.2v-61.9c0-7.2-5.6-13.1-12.5-13.1h-109.2v118.5h9.4h118.2
			v-13.3l-0.1-0.1l-7.6-8.5h7.7V1146.1z"/>
		<path class="st43" d="M1574.2,1075c-0.5-6.8-5.9-12.1-12.4-12.1h-218.4c-6.6,0-11.9,5.3-12.4,12.1H1574.2z"/>
		<path class="st43" d="M1580.2,1149.3v-3.2c0-0.3,0-0.7-0.1-1h-256c0,0.3-0.1,0.6-0.1,1v3.2H1580.2z"/>
		<path class="st43" d="M1580.2,1172.6v-3.2c0-0.3,0-0.7-0.1-1h-256c0,0.3-0.1,0.6-0.1,1v3.2H1580.2z"/>
		<path class="st44" d="M1409.1,1159.6v-70.3c0-9.4-7.6-17.1-17.1-17.1h-10.4c-9.4,0-17.1,7.6-17.1,17.1v70.3H1409.1z"/>
		<rect x="1364.5" y="1168" class="st1" width="44.6" height="13.4"/>
		<path class="st12" d="M1553.3,1335h-87.1c-2.6,0-4.7-2.1-4.7-4.7c0-2.6,2.1-4.7,4.7-4.7h87.1c2.6,0,4.7,2.1,4.7,4.7
			C1558,1332.9,1555.9,1335,1553.3,1335z"/>
		<path class="st12" d="M1572.3,1296.6c0,9-7.3,16.3-16.3,16.3h-92.6c-9,0-16.3-7.3-16.3-16.3l0,0c0-9,7.3-16.3,16.3-16.3h92.6
			C1565,1280.3,1572.3,1287.6,1572.3,1296.6L1572.3,1296.6z"/>
	</g>
</g>
<g id="klembord">
	<g>
		<path class="st45" d="M210.3,914.2h229.5c10.9,0,19.8,8.9,19.8,19.8v301.7c0,10.9-8.9,19.8-19.8,19.8H210.3
			c-10.9,0-19.8-8.9-19.8-19.8V934C190.5,923.1,199.4,914.2,210.3,914.2z"/>
		<rect x="207.3" y="935.5" class="st46" width="235.5" height="298.7"/>
		<path class="st45" d="M279.9,906.3h17.1c0-13.8,11.2-24.9,24.9-24.9c13.8,0,24.9,11.2,24.9,24.9H364c18.2,0,33,14.9,33,33v13.1
			H246.9v-13.1l0,0C246.9,921.1,261.8,906.3,279.9,906.3L279.9,906.3z M322,889.5c-4.6,0-8.4,3.8-8.4,8.4c0,4.6,3.8,8.4,8.4,8.4
			c4.6,0,8.4-3.8,8.4-8.4C330.4,893.2,326.6,889.5,322,889.5L322,889.5z M397,939.3"/>
		<path class="st47" d="M234.7,994.7h52.7h2.2v2.2v52.7v2.2h-2.2h-52.7h-2.2v-2.2v-52.7v-2.2H234.7L234.7,994.7z M285.2,999.1h-48.3
			v48.3h48.3V999.1z"/>
		<path class="st47" d="M234.7,1075.7h52.7h2.2v2.2v52.7v2.2h-2.2h-52.7h-2.2v-2.2v-52.7v-2.2H234.7L234.7,1075.7z M285.2,1080.1
			h-48.3v48.3h48.3V1080.1z"/>
		<path class="st47" d="M234.7,1156.8h52.7h2.2v2.2v52.7v2.2h-2.2h-52.7h-2.2v-2.2V1159v-2.2H234.7L234.7,1156.8z M285.2,1161.2
			h-48.3v48.3h48.3V1161.2z"/>
		<polygon class="st45" points="240.2,1024.9 244.2,1020.9 254.4,1031.1 278,1007.4 282,1011.4 258.3,1035.1 254.4,1039.1 
			250.4,1035.1 		"/>
		<polygon class="st45" points="240.2,1103.4 244.2,1099.4 254.4,1109.6 278,1086 282,1090 258.3,1113.6 254.4,1117.6 250.4,1113.6 
					"/>
		<polygon class="st45" points="240.2,1187 244.2,1183 254.4,1193.2 278,1169.5 282,1173.5 258.3,1197.2 254.4,1201.1 250.4,1197.2 
					"/>
		<rect x="307.1" y="994.7" class="st47" width="97.9" height="10.7"/>
		<rect x="307.1" y="1017.9" class="st47" width="97.9" height="10.7"/>
		<rect x="307.1" y="1075.2" class="st47" width="97.9" height="10.7"/>
		<rect x="307.1" y="1098.4" class="st47" width="97.9" height="10.7"/>
		<rect x="307.1" y="1157.4" class="st47" width="97.9" height="10.7"/>
		<rect x="307.1" y="1180.6" class="st47" width="97.9" height="10.7"/>
	</g>
	<g>
		<path class="st45" d="M1606,596.4h229.5c10.9,0,19.8,8.9,19.8,19.8v301.7c0,10.9-8.9,19.8-19.8,19.8H1606
			c-10.9,0-19.8-8.9-19.8-19.8V616.2C1586.2,605.3,1595.1,596.4,1606,596.4z"/>
		<rect x="1603" y="617.7" class="st46" width="235.5" height="298.7"/>
		<path class="st45" d="M1675.7,588.5h17.1c0-13.8,11.2-24.9,24.9-24.9c13.8,0,24.9,11.2,24.9,24.9h17.1c18.2,0,33,14.9,33,33v13.1
			h-150.1v-13.1l0,0C1642.7,603.4,1657.5,588.5,1675.7,588.5L1675.7,588.5z M1717.7,571.7c-4.6,0-8.4,3.8-8.4,8.4s3.8,8.4,8.4,8.4
			c4.6,0,8.4-3.8,8.4-8.4S1722.4,571.7,1717.7,571.7L1717.7,571.7z M1792.8,621.5"/>
		<path class="st47" d="M1630.5,676.9h52.7h2.2v2.2v52.7v2.2h-2.2h-52.7h-2.2v-2.2v-52.7v-2.2H1630.5L1630.5,676.9z M1681,681.3
			h-48.3v48.3h48.3V681.3z"/>
		<path class="st47" d="M1630.5,757.9h52.7h2.2v2.2v52.7v2.2h-2.2h-52.7h-2.2v-2.2v-52.7v-2.2H1630.5L1630.5,757.9z M1681,762.4
			h-48.3v48.3h48.3V762.4z"/>
		<path class="st47" d="M1630.5,839h52.7h2.2v2.2v52.7v2.2h-2.2h-52.7h-2.2v-2.2v-52.7V839H1630.5L1630.5,839z M1681,843.4h-48.3
			v48.3h48.3V843.4z"/>
		<polygon class="st45" points="1635.9,707.1 1639.9,703.1 1650.1,713.3 1673.7,689.7 1677.7,693.7 1654.1,717.3 1650.1,721.3 
			1646.1,717.3 		"/>
		<rect x="1702.8" y="676.9" class="st47" width="97.9" height="10.7"/>
		<rect x="1702.8" y="700.1" class="st47" width="97.9" height="10.7"/>
		<rect x="1702.8" y="757.4" class="st47" width="97.9" height="10.7"/>
		<rect x="1702.8" y="780.6" class="st47" width="97.9" height="10.7"/>
		<rect x="1702.8" y="839.6" class="st47" width="97.9" height="10.7"/>
		<rect x="1702.8" y="862.8" class="st47" width="97.9" height="10.7"/>
	</g>
</g>
<g id="losse_pillen">
	<g>
		<g>
			<path class="st9" d="M648,628.3l-58.6,53.6c-17.2,15.8-18.4,42.5-2.6,59.7l4.1,4.5c15.8,17.2,42.5,18.4,59.7,2.6l58.6-53.6
				L648,628.3z"/>
			<path class="st37" d="M709.2,695.2l58.6-53.6c17.2-15.8,18.4-42.5,2.6-59.7l-4.1-4.5c-15.8-17.2-42.5-18.4-59.7-2.6L648,628.3
				L709.2,695.2z"/>
		</g>
		<path class="st48" d="M623.8,739l1.1,1.2c4.1,4.5,11.1,4.8,15.6,0.7l60.2-55.1l-16-17.5l-60.2,55.1
			C620,727.5,619.7,734.5,623.8,739z"/>
		<path class="st27" d="M744.9,613.3c4.5-4.1,11.5-3.8,15.6,0.7l1.1,1.2c4.1,4.5,3.8,11.5-0.7,15.6l-60.2,55.1l-16-17.5L744.9,613.3
			z"/>
		<g>
			<path class="st27" d="M601.5,695.1c-15.7,14.4-17.9,37.9-6.2,55c-1.5-1.2-3-2.5-4.4-3.9l-4.1-4.5c-15.8-17.2-14.6-44,2.6-59.7
				l58.6-53.6l12.1,13.2L601.5,695.1z"/>
			<path class="st12" d="M718.7,587.9l-58.6,53.6L648,628.3l58.6-53.6c17.2-15.8,44-14.6,59.7,2.6l4.1,4.5c1.4,1.5,2.4,3.1,3.5,4.7
				C758,573.4,734.4,573.5,718.7,587.9z"/>
		</g>
	</g>
	<g>
		<path class="st49" d="M559.5,395.9c-8.4-3.4-14-11.5-14-20.6v-69.6H432.8v69.6c0,9.1-5.5,17.2-14,20.6l-17,6.8
			c-11.9,4.7-19.7,16.3-19.7,29.1v166.1c0,10,8.1,18,18,18h178.1c10,0,18-8.1,18-18V431.8c0-12.8-7.8-24.3-19.7-29.1L559.5,395.9z"
			/>
		<path class="st50" d="M457.1,615.9c-10,0-18-8.1-18-18V431.8c0-12.8,7.8-24.3,19.7-29.1l17-6.8c8.4-3.4,14-11.5,14-20.6v-69.6h-41
			v69.6c0,9.1-5.5,17.2-14,20.6l-17,6.8c-11.9,4.7-19.7,16.3-19.7,29.1v166.1c0,10,8.1,18,18,18H457.1z"/>
		<path class="st51" d="M537.2,615.9c10,0,18-8.1,18-18V431.8c0-12.8-7.8-24.3-19.7-29.1l-17-6.8c-8.4-3.4-14-11.5-14-20.6v-69.6h41
			v69.6c0,9.1,5.5,17.2,14,20.6l17,6.8c11.9,4.7,19.7,16.3,19.7,29.1v166.1c0,10-8.1,18-18,18H537.2z"/>
		<path class="st52" d="M432.8,361.5c0.6,0.1,1.2,0.1,1.8,0.1h109.2c0.6,0,1.2,0,1.8-0.1v-57.8H432.8V361.5z"/>
		<path class="st53" d="M544.8,361.6c0.3,0,0.5,0,0.8,0v-55.9h-41v55.9H544.8z"/>
		<path class="st51" d="M489.8,361.6v-55.9h-41v55.8c0.6,0.1,1.2,0.1,1.8,0.1H489.8z"/>
		<path class="st49" d="M518.8,223.8l-13.2-121.3c-1-4.5-7.6-4.7-16.9-4.7c-9.3,0-15.8,0.2-16.9,4.7l-13.2,121.3H518.8z"/>
		<path class="st50" d="M481.4,97.9c-4.2,0-9.5,2.2-9.7,4.5l-13.2,121.3h13.9l6-120.1C478.3,100.1,481.4,97.9,481.4,97.9z"/>
		<path class="st51" d="M495.9,97.9c4.7,0,9.5,2.4,9.7,4.5l13.2,121.3h-13.9l-6-120.1C499,100.1,495.9,97.9,495.9,97.9z"/>
		<path class="st49" d="M434.5,223.8c-10.6,0-19.2,8.6-19.2,19.2v88.2c0,10.6,8.6,19.2,19.2,19.2h109.2c10.6,0,19.2-8.6,19.2-19.2
			V243c0-10.6-8.6-19.2-19.2-19.2H434.5z"/>
		<path class="st50" d="M490.8,350.4c-10.6,0-19.2-8.6-19.2-19.2V243c0-10.6,8.6-19.2,19.2-19.2h-40.2c-10.6,0-19.2,8.6-19.2,19.2
			v88.2c0,10.6,8.6,19.2,19.2,19.2H490.8z"/>
		<path class="st51" d="M503.5,350.4c10.6,0,19.2-8.6,19.2-19.2V243c0-10.6-8.6-19.2-19.2-19.2h40.2c10.6,0,19.2,8.6,19.2,19.2v88.2
			c0,10.6-8.6,19.2-19.2,19.2H503.5z"/>
		<rect x="440.9" y="447.1" class="st11" width="155.4" height="131.5"/>
		<rect x="555.2" y="447.1" class="st10" width="41" height="131.5"/>
		<rect x="453.7" y="460.8" class="st12" width="91.8" height="37.4"/>
		<rect x="453.7" y="524.1" class="st54" width="91.8" height="7.4"/>
		<rect x="453.7" y="539.2" class="st54" width="91.8" height="7.4"/>
		<path class="st54" d="M488.7,97.8c-9,0-15.2,0.2-16.8,4.2h33.5C504,97.9,497.6,97.8,488.7,97.8z"/>
		<polygon class="st54" points="459.1,218.7 458.5,223.8 518.8,223.8 518.3,218.7 		"/>
		<path class="st55" d="M416.8,338.7c2.9,6.9,9.7,11.7,17.7,11.7h109.2c8,0,14.8-4.8,17.7-11.7H416.8z"/>
		<path class="st49" d="M450.5,350.4h40.2c-8,0-14.8-4.8-17.7-11.7h-40.2C435.7,345.5,442.5,350.4,450.5,350.4z"/>
		<path class="st56" d="M521.2,338.7c-2.9,6.9-9.7,11.7-17.7,11.7h40.2c8,0,14.8-4.8,17.7-11.7H521.2z"/>
		<path class="st1" d="M452.5,301.7V241c0-1.8,0.1-3.6,0.4-5.4h-7.6c-3,0-5.4,2.4-5.4,5.4v37.2C440,287.7,444.7,296.5,452.5,301.7z"
			/>
		<path class="st1" d="M421.1,518.1v-85.7c0-7,1.5-13.7,4.3-19.8l-6.8,2.7c-7.1,2.8-11.6,9.5-11.6,17.1v55.2
			C406.9,499.3,412.1,510.4,421.1,518.1z"/>
	</g>
	<g>
		
			<ellipse transform="matrix(0.8744 -0.4852 0.4852 0.8744 -145.563 172.8356)" class="st54" cx="261.1" cy="367.6" rx="74.9" ry="74.9"/>
		<path class="st55" d="M335.4,358.5l-148.7,18.2c5,41.1,42.4,70.3,83.4,65.3C311.2,436.9,340.4,399.6,335.4,358.5z"/>
		<path class="st49" d="M196.6,375.5c-4.3-35.5,21-68,56.6-72.3c35.5-4.3,68,21,72.3,56.6c4.3,35.5-21,68-56.6,72.3
			C233.4,436.4,201,411,196.6,375.5z"/>
		<path class="st55" d="M335.4,358.5c-18.8,10.6-12.5,7.5-124.7,21.2c-6.9,0.9-18.5-1.7-24-3.1c0,0,2.2-1.2,6.1-3
			c13.7-6.3,11.4-5.2,16.4-5.7C319.3,354.5,315.3,352.9,335.4,358.5z"/>
		<path class="st54" d="M335.4,358.5l-148.7,18.2c5.5,1.4,17.1,4,24,3.1C322.9,366.1,316.6,369.1,335.4,358.5z"/>
	</g>
</g>
</svg>
