<?xml version="1.0" encoding="utf-8"?>
<!-- Generator: Adobe Illustrator 25.2.3, SVG Export Plug-In . SVG Version: 6.00 Build 0)  -->
<svg version="1.1" xmlns="http://www.w3.org/2000/svg" xmlns:xlink="http://www.w3.org/1999/xlink" x="0px" y="0px"
	 viewBox="0 0 2000 2000" style="enable-background:new 0 0 2000 2000;" xml:space="preserve">
<style type="text/css">
	.st0{fill:#C2A0CE;}
	.st1{fill:#FFFFFF;}
	.st2{fill:none;stroke:#B6B6B6;stroke-width:10;stroke-linecap:round;}
	.st3{fill:#D6C0DE;}
	.st4{fill:#EBDFEF;}
</style>
<g id="Layer_2">
	<rect class="st0" width="1711.5" height="2000"/>
</g>
<g id="Achtergrond">
	<rect x="290.7" y="288.5" class="st0" width="1711.5" height="1711.5"/>
	
		<image style="overflow:visible;" width="2000" height="2000" xlink:href="Monitor-voorschrijven.jpg"  transform="matrix(0.9628 0 0 0.9395 75.5268 120.9425)">
	</image>
	<polygon class="st1" points="1709.8,0 1999.8,0 1999.8,290 	"/>
	<g>
		<line class="st2" x1="1762.7" y1="66.1" x2="1946.9" y2="66.1"/>
		<line class="st2" x1="1762.7" y1="107.4" x2="1946.9" y2="107.4"/>
		<line class="st2" x1="1762.7" y1="148.6" x2="1946.9" y2="148.6"/>
		<line class="st2" x1="1762.7" y1="189.9" x2="1946.9" y2="189.9"/>
		<polygon class="st3" points="1999.8,290 1709.8,290 1709.8,0 		"/>
	</g>
	<g>
		<path class="st1" d="M766.5,289.9l-0.2-119.8l-58.6,101.2h-5l-58.6-100.8v119.4h-10v-140h8.6l62.6,108.2l62.6-108.2h8.4l0.2,140
			H766.5z"/>
		<path class="st1" d="M810.7,237.7c0-31,22.2-53,52.2-53s52.2,22,52.2,53s-22.2,53-52.2,53S810.7,268.7,810.7,237.7z M904.9,237.7
			c0-26.2-18-44-42-44s-42,17.8-42,44s18,44,42,44S904.9,263.9,904.9,237.7z"/>
		<path class="st1" d="M1039.5,228.9v61h-10v-60.2c0-23.6-12.6-36-33.8-36c-24.6,0-39.6,15.8-39.6,40.6v55.6h-10V185.5h9.6v22.6
			c7-14.6,21.6-23.4,41.4-23.4C1022.5,184.7,1039.5,199.7,1039.5,228.9z"/>
		<path class="st1" d="M1077.5,152.1c0-4.4,3.6-8.2,8.2-8.2s8.2,3.6,8.2,8c0,4.6-3.6,8.2-8.2,8.2S1077.5,156.5,1077.5,152.1z
			 M1080.7,185.5h10v104.4h-10V185.5z"/>
		<path class="st1" d="M1184.7,283.3c-5.2,5-13.6,7.4-21.4,7.4c-18.4,0-28.4-10.8-28.4-28.4v-68.2h-19.2v-8.6h19.2v-22.8h10v22.8
			h33.2v8.6h-33.2v67.2c0,13.4,6.6,20.8,19.4,20.8c6.2,0,12-2,16.2-5.8L1184.7,283.3z"/>
		<path class="st1" d="M1197.3,237.7c0-31,22.2-53,52.2-53c30,0,52.2,22,52.2,53s-22.2,53-52.2,53
			C1219.5,290.7,1197.3,268.7,1197.3,237.7z M1291.5,237.7c0-26.2-18-44-42-44s-42,17.8-42,44s18,44,42,44
			S1291.5,263.9,1291.5,237.7z"/>
		<path class="st1" d="M1382.1,184.7v9.8c-0.8,0-1.6-0.2-2.4-0.2c-23.2,0-37,15.4-37,41.2v54.4h-10V185.5h9.6v22.8
			C1348.7,193.1,1362.5,184.7,1382.1,184.7z"/>
		<path class="st1" d="M451.5,415.5l-47.2,104.4h-10.2l-47-104.4h10.6l41.6,93.4l42-93.4H451.5z"/>
		<path class="st1" d="M458.9,467.7c0-31,22.2-53,52.2-53s52.2,22,52.2,53s-22.2,53-52.2,53S458.9,498.7,458.9,467.7z M553.1,467.7
			c0-26.2-18-44-42-44s-42,17.8-42,44s18,44,42,44S553.1,493.9,553.1,467.7z"/>
		<path class="st1" d="M582.9,467.7c0-31,22.2-53,52.2-53s52.2,22,52.2,53s-22.2,53-52.2,53S582.9,498.7,582.9,467.7z M677.1,467.7
			c0-26.2-18-44-42-44s-42,17.8-42,44s18,44,42,44S677.1,493.9,677.1,467.7z"/>
		<path class="st1" d="M767.7,414.7v9.8c-0.8,0-1.6-0.2-2.4-0.2c-23.2,0-37,15.4-37,41.2v54.4h-10V415.5h9.6v22.8
			C734.3,423.1,748.1,414.7,767.7,414.7z"/>
		<path class="st1" d="M780.9,507.3l4.6-8c8,6.8,22.2,12.6,37.6,12.6c22,0,30.8-7.8,30.8-19.6c0-30.4-69.2-8-69.2-49
			c0-15.8,13.2-28.6,39.6-28.6c13.2,0,27.6,4,35.8,10.2l-4.6,8c-8.8-6.4-20.2-9.4-31.4-9.4c-20.4,0-29.4,8.4-29.4,19.6
			c0,31.4,69.2,9.2,69.2,49c0,17-14.6,28.6-41.2,28.6C805.5,520.7,789.1,514.9,780.9,507.3z"/>
		<path class="st1" d="M880.5,467.7c0-31.2,22.2-53,52.8-53c16.6,0,31,6.4,39.6,19.2l-7.4,5.4c-7.6-10.6-19.2-15.6-32.2-15.6
			c-24.6,0-42.6,17.6-42.6,44s18,44,42.6,44c13,0,24.6-5,32.2-15.6l7.4,5.4c-8.6,12.6-23,19.2-39.6,19.2
			C902.7,520.7,880.5,498.7,880.5,467.7z"/>
		<path class="st1" d="M1094.5,458.9v61h-10v-60.2c0-23.6-12.6-36-33.8-36c-24.6,0-39.6,15.8-39.6,40.6v55.6h-10V371.5h10v65.8
			c7.2-14.2,21.6-22.6,41-22.6C1077.5,414.7,1094.5,429.7,1094.5,458.9z"/>
		<path class="st1" d="M1185.1,414.7v9.8c-0.8,0-1.6-0.2-2.4-0.2c-23.2,0-37,15.4-37,41.2v54.4h-10V415.5h9.6v22.8
			C1151.7,423.1,1165.5,414.7,1185.1,414.7z"/>
		<path class="st1" d="M1209.5,382.1c0-4.4,3.6-8.2,8.2-8.2c4.6,0,8.2,3.6,8.2,8c0,4.6-3.6,8.2-8.2,8.2
			C1213.1,390.1,1209.5,386.5,1209.5,382.1z M1212.7,415.5h10v104.4h-10V415.5z"/>
		<path class="st1" d="M1226.1,552.5l4-7.4c4.2,3.8,10.2,5.8,17,5.8c12.2,0,18.8-7.4,18.8-21V415.5h10v114.8
			c0,17.6-10,29.2-28.2,29.2C1239.3,559.5,1231.1,557.3,1226.1,552.5z M1262.7,382.1c0-4.4,3.6-8.2,8.2-8.2c4.6,0,8.2,3.6,8.2,8
			c0,4.6-3.6,8.2-8.2,8.2C1266.3,390.1,1262.7,386.5,1262.7,382.1z"/>
		<path class="st1" d="M1401.9,415.5l-47.2,104.4h-10.2l-47-104.4h10.6l41.6,93.4l42-93.4H1401.9z"/>
		<path class="st1" d="M1508.9,470.1h-89.8c1,24.8,19.2,41.6,44.2,41.6c13.2,0,25.4-4.8,33.4-14.6l5.8,6.6
			c-9.2,11.2-23.6,17-39.4,17c-31.6,0-53.8-22-53.8-53s21.4-53,50-53s49.8,21.6,49.8,52.6C1509.1,468.1,1508.9,469.1,1508.9,470.1z
			 M1419.3,462.3h80c-1.4-22.6-17.8-38.8-40-38.8C1437.1,423.5,1420.9,439.5,1419.3,462.3z"/>
		<path class="st1" d="M1633.5,458.9v61h-10v-60.2c0-23.6-12.6-36-33.8-36c-24.6,0-39.6,15.8-39.6,40.6v55.6h-10V415.5h9.6v22.6
			c7-14.6,21.6-23.4,41.4-23.4C1616.5,414.7,1633.5,429.7,1633.5,458.9z"/>
	</g>
	<rect x="34.5" y="82" class="st0" width="102.5" height="1915"/>
	<polygon class="st4" points="1999.8,290 1709.8,290 1709.8,0 	"/>
</g>
</svg>
