<?xml version="1.0" encoding="utf-8"?>
<!-- Generator: Adobe Illustrator 25.2.3, SVG Export Plug-In . SVG Version: 6.00 Build 0)  -->
<svg version="1.1" xmlns="http://www.w3.org/2000/svg" xmlns:xlink="http://www.w3.org/1999/xlink" x="0px" y="0px"
	 viewBox="0 0 2000 2000" style="enable-background:new 0 0 2000 2000;" xml:space="preserve">
<style type="text/css">
	.st0{fill:#D6C0DE;}
	.st1{fill:none;stroke:#B6B6B6;stroke-width:10;stroke-linecap:round;}
	.st2{fill:#EBDFEF;}
	.st3{fill:#AD81BE;}
	.st4{fill:#FD6210;}
	.st5{fill:#FED2BB;}
	.st6{fill:#E2857E;}
	.st7{fill:#FFE9DD;}
	.st8{fill:#D87E7C;}
	.st9{fill:#EAA8A3;}
	.st10{fill:#FD7832;}
	.st11{fill:#2A3756;}
	.st12{fill:#702283;}
	.st13{fill:none;stroke:#1A1A1A;stroke-width:3.8442;stroke-linecap:round;stroke-miterlimit:10;}
	.st14{fill:none;stroke:#1A1A1A;stroke-width:3.1258;stroke-linecap:round;stroke-miterlimit:10;}
	.st15{fill:#FFFFFF;}
	.st16{fill:#111921;}
	.st17{fill:#1B2730;}
	.st18{enable-background:new    ;}
	.st19{fill:#DDDDDD;}
	.st20{opacity:0.34;fill:#AD81BE;}
	.st21{fill:#9961AE;}
	.st22{fill:#C2A0CE;stroke:#84429D;stroke-width:7.8144;stroke-miterlimit:10;}
	.st23{fill:none;stroke:#84429D;stroke-width:7.8144;stroke-miterlimit:10;}
	.st24{fill:#84429D;stroke:#84429D;stroke-width:7.8144;stroke-miterlimit:10;}
	.st25{fill:#70228D;}
</style>
<g id="Achtergrond">
	<polygon class="st0" points="2000,2000 0,2000 0,0 1710,0 2000,290 	"/>
	<g>
		<line class="st1" x1="1762.9" y1="66.1" x2="1947.1" y2="66.1"/>
		<line class="st1" x1="1762.9" y1="107.4" x2="1947.1" y2="107.4"/>
		<line class="st1" x1="1762.9" y1="148.6" x2="1947.1" y2="148.6"/>
		<line class="st1" x1="1762.9" y1="189.9" x2="1947.1" y2="189.9"/>
		<polygon class="st2" points="2000,290 1710,290 1710,0 		"/>
	</g>
</g>
<g id="Basis_pot">
</g>
<g id="meisje">
</g>
<g id="Pillen">
</g>
<g id="Schaduw">
</g>
<g id="Deksel">
	<g>
		<g>
			<g>
				<path class="st3" d="M1577.9,857.2v806.1c0,74.1-51.8,140.3-130.1,167.4c-39.9,13.7-82.5,27-116.9,35.2
					c-75.2,17.7-161.9,31.5-258.5,35.7c-21.6,1.1-43.8,1.5-66.5,1.4c-119-0.5-224.5-15.8-313.6-36.7c-34.5-8.1-77.4-21.7-117.9-35.5
					c-78.5-26.9-130.3-93.3-130.3-167.5V857.2c0-75.8,69.8-137.1,155.6-137.1h822.6C1508.3,720.1,1577.9,781.5,1577.9,857.2z"/>
				<path class="st0" d="M1574.7,857.2V1663c0,74.1-57.6,140.3-144.7,167.3c-44.4,13.7-91.8,27-130,35.2
					c-74.7,15.8-159.6,28.6-253.7,34c-93.1-5.5-177.5-18-251.6-33.6c-38.4-8.1-86.1-21.7-131.1-35.5
					c-87.3-26.9-144.9-93.3-144.9-167.5V857.2c0-75.7,77.6-137.1,173-137.1h710C1497.3,720.1,1574.7,781.4,1574.7,857.2z"/>
			</g>
		</g>
		<g id="female_1_">
			<g id="_x30_4_Front_1_">
				<g>
					<g id="hand_2_">
						<path class="st4" d="M997.3,975.5c-121.2,3.2-181.4,106.2-216.3,301.4c-21.2,118.8,63.6,115.9,107.6,89
							c0,0,47.2-140.1,51.8-196.1C945,1111.4,997.3,975.5,997.3,975.5z"/>
					</g>
					<g id="hand_1_">
						<path class="st4" d="M1106.1,985.2c0,0,114.1,8.2,154.5,306.6c18.2,134.3-92.2,70.5-92.2,70.5c-25.4-77.1-42-138.4-46.4-192.5
							C1117.3,1111.4,1106.1,985.2,1106.1,985.2z"/>
					</g>
					<path id="dress_1_" class="st4" d="M997.3,975.5c-36.4,2.3-118.7,61.9-129.9,99.9c-7.5,51.8-47.2,260.4-4.7,420.9l335.3-12.5
						c23.5-164.2-24.8-389.7-47.2-461.7c-11.8-37.9-68.7-41.7-88-46.6C1039.4,965.7,1028.2,973.6,997.3,975.5z"/>
				</g>
				<path class="st5" d="M1024.5,1216.4l5.4,213.9l3.3-206.5l113.9-87.9c0,0,83.1,318.9,47.6,396.1
					c-30.8,66.8-303.2,60.7-329.9-12.8c-34-93.7,43.5-374.6,43.5-374.6L1024.5,1216.4z"/>
			</g>
			<g id="leg_2_">
				<polygon class="st6" points="976.3,1607.1 919.3,1591.6 920.6,1518.5 981,1518.5 				"/>
				<path class="st7" d="M906.9,1163.4c1.6,30.1-4.1,60.5-3,90.6c-13.1,166.9-1,246.8,1.3,269.3l84.5,0.1
					c0.7-43.7,10.1-118.6,28.6-260.9c3.8-29.1,7.8-58.5,11.9-87.7C1032.9,1070.8,905,1064.1,906.9,1163.4z"/>
			</g>
			<g id="leg_1_">
				<polygon class="st6" points="1079.4,1607.7 1136.5,1592.1 1135.1,1519.1 1074.7,1519.1 				"/>
				<path class="st7" d="M1148.9,1156.9c-1.6,30.1,4.1,60.5,3,90.6c13.1,166.9,1,253.9-1.3,276.4l-84.5,0.1
					c-0.7-43.7-10.1-125.7-28.7-268c-3.8-29.1-7.8-58.5-11.9-87.7C1022.9,1064.2,1150.7,1057.5,1148.9,1156.9z"/>
			</g>
			<path class="st8" d="M997.3,966.5l1.6,44.3c0,0,48.6,37.3,80.4-11l-14.9-53.5L997.3,966.5z"/>
			<polygon class="st4" points="1180.1,1247.5 919.3,1287.5 890.8,1305.1 1204.2,1369.6 			"/>
			<path class="st9" d="M1145.1,1266.9c-27.3,2.9-48.1,18.9-46.3,35.9c0.5,4.9,2.9,9.4,6.7,13.2c3.8,3.8,72.8-4.6,80.1-0.2
				c8.4-6.5,13.2-14.8,12.3-23.3C1196.1,1275.5,1172.5,1264.1,1145.1,1266.9z"/>
			<polygon class="st10" points="1115.5,1276.5 872.1,1246.6 856.1,1378.9 1115.5,1315.5 			"/>
			<g id="_x30_2_Front_1_">
				<g id="head_1_">
					<path class="st8" d="M961.5,896.3c0,0-9.2-4.2-14.4,5.4c-5.2,9.6,3.8,41.3,20,39C983.4,938.3,961.5,896.3,961.5,896.3z"/>
					<path class="st8" d="M1086.6,878.1c0,0,7.6-6.6,15.3,1.1c7.7,7.7,8.1,40.7-8,43C1077.7,924.5,1086.6,878.1,1086.6,878.1z"/>
					<path class="st6" d="M1088,868.7c-5.3-36.3-38.1-55.8-74.3-50.5c-36.2,5.3-62.1,33.3-56.8,69.6c0,0,3.9,46.7,4.2,49
						c5,34.5,53.6,72.1,79.8,68.3c30.2-4.4,60.8-62.1,57-88.2C1097.7,914.6,1088,868.7,1088,868.7z"/>
					<path class="st11" d="M950.4,906.7c0,0-16-47.7-4.7-80.3c14.2-41,68.6-66.3,121.4-36.6c37.3,21,30,100.5,30,100.5l-123.9-19.7
						L950.4,906.7z"/>
				</g>
			</g>
			<path id="female_3_" class="st12" d="M1136.5,1570.9c-8.5-5.7-18.8-9-30.8-8.7c-10.6,0.3-20.4,3.4-28.2,8.5l-21.4,83.8l0.4,16.3
				c-0.1-0.1-0.1,0.5,0.3,1.4c12.1,5.5,30.6,8.7,51.3,8.1c22.7-0.6,42.6-5.7,54-12.8l-0.4-15.9L1136.5,1570.9z"/>
			<path id="female_2_" class="st12" d="M919.8,1570.9c8.5-5.7,18.8-9,30.8-8.7c10.6,0.3,20.4,3.4,28.2,8.5l21.4,83.8l-0.4,16.3
				c0.1-0.1,0.1,0.5-0.3,1.4c-12.1,5.5-30.6,8.7-51.3,8.1c-22.7-0.6-42.6-5.7-54-12.8l0.4-15.9L919.8,1570.9z"/>
		</g>
		<g>
			<path class="st13" d="M985.8,916.1c0,0,6.9,12.2,17,11.1c10.1-1.1,13.9-14.5,13.9-14.5"/>
			<path class="st13" d="M1037.9,910.4c0,0,6.9,12.2,17,11.1c10.1-1.1,13.9-14.5,13.9-14.5"/>
		</g>
		<g>
			<path class="st14" d="M1048.8,975.9c0,0-5.9-7-15.7-6.6c-9.8,0.4-14.3,7.8-14.3,7.8"/>
		</g>
		<path class="st15" d="M1001.3,936.1c0,0-10.9,17.5-10.9,23.5c0,6,4.9,10.9,10.9,10.9c6,0,10.9-4.9,10.9-10.9
			C1012.2,953.6,1001.3,936.1,1001.3,936.1L1001.3,936.1z"/>
		<g>
			<g>
				<path class="st16" d="M821,1713.7c-46,39-49.6,116.8-18.4,144.2c13.2,11.6,37.2,10.8,85.2,9.2c42.9-1.4,66.2-2.6,81.7-20.2
					c13.1-14.9,13.6-33.8,14-48c0.3-10,1.9-66.6-41.9-95.7C903.5,1677.9,852.1,1687.4,821,1713.7z"/>
				<path class="st17" d="M949.5,1791c-3.2,4.4-28.9-22.5-65.5-21c-38.8,1.7-63.2,34.1-66.8,30.1c-3.1-3.4,12.1-30,39.3-41.9
					c4-1.7,28.8-12.2,56.4-1.3C936.4,1766.3,952.1,1787.4,949.5,1791z"/>
			</g>
			<g>
				<path class="st16" d="M1058.9,1713.7c-46,39-49.6,116.8-18.4,144.2c13.2,11.6,37.2,10.8,85.2,9.2c42.9-1.4,66.2-2.6,81.7-20.2
					c13.1-14.9,13.6-33.8,14-48c0.3-10,1.9-66.6-41.9-95.7C1141.3,1677.9,1089.9,1687.4,1058.9,1713.7z"/>
				<path class="st17" d="M1187.3,1791c-3.2,4.4-28.9-22.5-65.5-21c-38.8,1.7-63.2,34.1-66.8,30.1c-3.1-3.4,12.1-30,39.3-41.9
					c4-1.7,28.8-12.2,56.4-1.3C1174.3,1766.3,1190,1787.4,1187.3,1791z"/>
			</g>
		</g>
		<g>
			<g>
				<g>
					<g class="st18">
						<path class="st19" d="M1238.6,1784.4c0,0.1,0,0.2-0.1,0.3c-0.5,1.5-1.2,3-2.2,4.5c-0.1,0.2-0.2,0.3-0.3,0.5
							c-0.9,1.4-2.1,2.8-3.4,4.1c-0.4,0.4-0.9,0.9-1.3,1.3c-0.9,0.9-2,1.7-3,2.6c-1.1,0.9-2.3,1.7-3.5,2.6c-0.9,0.6-1.9,1.2-2.8,1.8
							c-3,1.9-6.3,3.7-10,5.5c-0.1,0.1-0.2,0.1-0.3,0.2c-3.8,1.8-8.1,3.5-12.7,5.2c-1.2,0.4-2.4,0.9-3.6,1.3
							c-4.1,1.4-8.4,2.8-12.9,4.1c-0.7,0.2-1.4,0.4-2.1,0.6c-5.2,1.4-10.8,2.8-16.6,4c-1.9,0.4-3.9,0.8-5.8,1.2
							c-2.6,0.5-5.3,1.1-8,1.5c-2.2,0.4-4.5,0.8-6.8,1.2c-2.8,0.5-5.6,0.9-8.5,1.3c-1.8,0.3-3.7,0.5-5.6,0.8c-8,1.1-16.3,2-24.9,2.7
							c-1.4,0.1-2.8,0.2-4.3,0.3c-7.4,0.6-14.9,1-22.5,1.2c-1.3,0-2.5,0.1-3.8,0.2c-7.3,0.2-14.4,0.2-21.4,0.1
							c-1.9,0-3.8-0.1-5.8-0.1c-5.9-0.1-11.8-0.3-17.5-0.6c-1.2-0.1-2.5-0.1-3.7-0.2c-6.5-0.4-12.8-0.9-18.9-1.5
							c-1.6-0.2-3.1-0.4-4.7-0.5c-4.5-0.5-8.8-1.1-13.1-1.7c-1.7-0.3-3.5-0.5-5.1-0.8c-4.4-0.7-8.6-1.5-12.7-2.3c-1-0.2-2-0.4-3-0.6
							c-5-1-9.7-2.2-14.2-3.4c-1.1-0.3-2.1-0.6-3.1-0.9c-3.8-1.1-7.3-2.2-10.7-3.4c-1.4-0.5-2.8-1-4.1-1.5c-1-0.4-1.9-0.8-2.9-1.2
							c-1.9-0.8-3.7-1.6-5.4-2.4c-0.8-0.4-1.6-0.8-2.4-1.2c-2.1-1.1-4.2-2.3-6-3.4c-0.2-0.1-0.4-0.2-0.6-0.3c-2-1.3-3.7-2.6-5.3-4
							c-0.5-0.4-0.8-0.8-1.3-1.2c-1-1-2-2-2.8-3c-0.4-0.5-0.7-1-1.1-1.5c-0.7-1-1.2-2.1-1.7-3.1c-0.2-0.5-0.5-0.9-0.6-1.4
							c-0.5-1.5-0.9-3-0.9-4.6l1.7,60.6c0,1.6,0.4,3.1,0.9,4.6c0.2,0.5,0.4,0.9,0.6,1.4c0.5,1,1,2.1,1.7,3.1c0.3,0.5,0.7,1,1.1,1.5
							c0.8,1,1.7,2,2.8,3c0.4,0.4,0.8,0.8,1.3,1.2c1.6,1.4,3.3,2.7,5.3,4c0.2,0.1,0.4,0.2,0.6,0.3c1.8,1.2,3.8,2.3,6,3.4
							c0.8,0.4,1.6,0.8,2.4,1.2c1.7,0.8,3.5,1.6,5.4,2.4c0.9,0.4,1.9,0.8,2.9,1.2c0.7,0.3,1.3,0.5,2,0.8c0.6,0.2,1.4,0.4,2.1,0.7
							c3.4,1.2,6.9,2.3,10.7,3.4c0.7,0.2,1.3,0.5,2.1,0.7c0.3,0.1,0.7,0.2,1.1,0.3c4.5,1.2,9.2,2.4,14.2,3.4c0.2,0,0.4,0.1,0.6,0.1
							c0.8,0.2,1.7,0.3,2.4,0.4c4.1,0.8,8.3,1.6,12.7,2.3c0.8,0.1,1.4,0.3,2.2,0.4c0.9,0.1,2,0.2,2.9,0.4c4.2,0.6,8.6,1.2,13.1,1.7
							c1.1,0.1,2.1,0.3,3.2,0.4c0.5,0,1,0.1,1.4,0.1c6.1,0.6,12.4,1.1,18.9,1.5c0.3,0,0.6,0.1,1,0.1c0.9,0.1,1.9,0.1,2.8,0.1
							c5.7,0.3,11.6,0.5,17.5,0.6c1.1,0,2.1,0.1,3.2,0.1c0.8,0,1.7,0,2.6,0c7,0.1,14.2,0.1,21.4-0.1c0.6,0,1.2,0,1.8-0.1
							c0.7,0,1.3-0.1,2-0.1c7.7-0.3,15.2-0.7,22.5-1.2c0.9-0.1,1.9-0.1,2.8-0.2c0.5,0,0.9-0.1,1.4-0.2c8.5-0.7,16.8-1.6,24.8-2.7
							c0.7-0.1,1.5-0.1,2.2-0.2c1.2-0.2,2.3-0.4,3.4-0.5c2.9-0.4,5.7-0.9,8.5-1.3c2.3-0.4,4.6-0.8,6.8-1.2c2.7-0.5,5.4-1,8-1.5
							c1.4-0.3,2.8-0.5,4.1-0.8c0.6-0.1,1.1-0.3,1.7-0.4c5.8-1.3,11.3-2.6,16.6-4c0.7-0.2,1.4-0.4,2.1-0.6c4.6-1.3,8.8-2.7,12.9-4.1
							c1.2-0.4,2.4-0.9,3.6-1.3c4.5-1.7,8.8-3.4,12.6-5.2c0.1-0.1,0.2-0.1,0.3-0.2c3.7-1.8,7-3.6,10-5.5c0.4-0.2,0.9-0.5,1.3-0.7
							c0.6-0.4,1-0.8,1.5-1.1c1.2-0.9,2.4-1.7,3.5-2.6c0.5-0.4,1.1-0.8,1.6-1.2c0.5-0.5,1-1,1.5-1.4c0.5-0.4,0.9-0.9,1.3-1.3
							c0.3-0.3,0.6-0.5,0.8-0.8c0.9-1,1.7-2,2.4-3c0.1-0.1,0.1-0.2,0.2-0.3c0.1-0.2,0.2-0.3,0.3-0.5c0.4-0.6,0.8-1.2,1.1-1.8
							c0.4-0.8,0.8-1.7,1-2.5c0-0.1,0-0.1,0-0.2c0-0.1,0-0.2,0.1-0.3c0.2-0.7,0.4-1.3,0.5-2c0.1-0.8,0.2-1.7,0.2-2.5
							c0-0.1,0-0.2,0-0.3l0,0v0l-1.7-60.6C1239.4,1781.2,1239.1,1782.8,1238.6,1784.4z"/>
						<g>
							<path class="st15" d="M1070.8,1734.9c92.4-2.6,167.8,17.4,168.5,44.6c0.8,27.2-73.4,51.4-165.8,53.9s-167.9-17.4-168.7-44.6
								C904.1,1761.7,978.4,1737.5,1070.8,1734.9z"/>
						</g>
					</g>
				</g>
				<path class="st19" d="M1005.3,1746.4c53.8,22.4,107.7,44.8,161.5,67.3c-6.9,1.2-13.9,2.4-20.8,3.6
					c-52.6-22.3-105.2-44.5-157.9-66.8C993.8,1749.1,999.6,1747.8,1005.3,1746.4z"/>
			</g>
			<g>
				<g>
					<g class="st18">
						<path class="st19" d="M817.9,1661.8c0,0.1,0,0.2-0.1,0.3c-0.5,1.5-1.3,3-2.3,4.5c-0.1,0.2-0.2,0.3-0.3,0.5
							c-1,1.4-2.2,2.7-3.5,4c-0.4,0.4-0.9,0.8-1.4,1.2c-0.9,0.9-2,1.7-3.1,2.5c-1.1,0.8-2.3,1.7-3.6,2.5c-0.9,0.6-1.9,1.2-2.9,1.8
							c-3.1,1.8-6.4,3.5-10.1,5.2c-0.1,0-0.2,0.1-0.3,0.1c-3.9,1.7-8.2,3.3-12.8,4.8c-1.2,0.4-2.4,0.8-3.7,1.2
							c-4.1,1.3-8.5,2.6-13,3.7c-0.7,0.2-1.4,0.4-2.2,0.6c-5.3,1.3-10.9,2.5-16.7,3.6c-1.9,0.4-3.9,0.7-5.9,1.1
							c-2.6,0.5-5.3,0.9-8.1,1.3c-2.2,0.3-4.5,0.7-6.8,1c-2.8,0.4-5.6,0.7-8.5,1.1c-1.9,0.2-3.7,0.4-5.6,0.6
							c-8.1,0.8-16.4,1.5-24.9,2c-1.4,0.1-2.8,0.1-4.3,0.2c-7.4,0.3-14.9,0.6-22.6,0.6c-1.3,0-2.5,0.1-3.8,0.1
							c-7.3,0-14.4-0.2-21.4-0.4c-1.9-0.1-3.8-0.2-5.8-0.3c-5.9-0.3-11.8-0.7-17.5-1.1c-1.2-0.1-2.5-0.2-3.7-0.3
							c-6.5-0.6-12.7-1.3-18.9-2.1c-1.6-0.2-3.1-0.4-4.7-0.7c-4.4-0.6-8.8-1.3-13-2c-1.7-0.3-3.4-0.6-5.1-0.9
							c-4.3-0.8-8.6-1.7-12.6-2.6c-1-0.2-2-0.4-3-0.7c-4.9-1.2-9.6-2.5-14.1-3.8c-1.1-0.3-2-0.7-3.1-1c-3.7-1.2-7.3-2.4-10.6-3.7
							c-1.4-0.5-2.7-1-4-1.6c-1-0.4-1.9-0.8-2.8-1.2c-1.9-0.8-3.6-1.7-5.3-2.6c-0.8-0.4-1.6-0.8-2.3-1.2c-2.1-1.2-4.1-2.4-5.9-3.6
							c-0.2-0.1-0.4-0.2-0.5-0.3c-1.9-1.3-3.6-2.7-5.1-4.1c-0.4-0.4-0.8-0.8-1.2-1.3c-1-1-1.9-2-2.7-3.1c-0.4-0.5-0.7-1-1-1.5
							c-0.7-1-1.2-2.1-1.6-3.1c-0.2-0.5-0.4-0.9-0.6-1.4c-0.5-1.5-0.8-3.1-0.8-4.6v60.6c0,1.6,0.3,3.1,0.8,4.6
							c0.1,0.5,0.4,0.9,0.6,1.4c0.4,1.1,1,2.1,1.6,3.1c0.3,0.5,0.7,1,1,1.5c0.8,1,1.7,2.1,2.7,3.1c0.4,0.4,0.8,0.8,1.2,1.3
							c1.5,1.4,3.2,2.8,5.1,4.1c0.2,0.1,0.4,0.2,0.5,0.3c1.8,1.2,3.8,2.4,5.9,3.6c0.7,0.4,1.5,0.8,2.3,1.2c1.7,0.9,3.5,1.7,5.3,2.6
							c0.9,0.4,1.9,0.8,2.8,1.2c0.7,0.3,1.3,0.6,1.9,0.8c0.6,0.3,1.4,0.5,2.1,0.7c3.3,1.3,6.8,2.5,10.6,3.7c0.7,0.2,1.3,0.5,2,0.7
							c0.3,0.1,0.7,0.2,1.1,0.3c4.4,1.3,9.1,2.6,14.1,3.8c0.2,0,0.4,0.1,0.6,0.2c0.8,0.2,1.6,0.3,2.4,0.5c4.1,0.9,8.3,1.8,12.6,2.6
							c0.8,0.1,1.4,0.3,2.2,0.5c0.9,0.2,2,0.3,2.9,0.5c4.2,0.7,8.6,1.4,13,2c1.1,0.2,2.1,0.4,3.2,0.5c0.5,0.1,1,0.1,1.4,0.2
							c6.1,0.8,12.4,1.5,18.9,2.1c0.3,0,0.6,0.1,1,0.1c0.9,0.1,1.9,0.1,2.8,0.2c5.7,0.5,11.6,0.8,17.5,1.1c1.1,0.1,2.1,0.2,3.2,0.2
							c0.8,0,1.7,0,2.6,0.1c7,0.3,14.1,0.4,21.4,0.4c0.6,0,1.2,0,1.8,0c0.7,0,1.3-0.1,2-0.1c7.7-0.1,15.2-0.3,22.6-0.6
							c0.9,0,1.9,0,2.8-0.1c0.5,0,0.9-0.1,1.4-0.1c8.6-0.5,16.9-1.1,24.9-2c0.7-0.1,1.5-0.1,2.2-0.2c1.2-0.1,2.3-0.3,3.4-0.4
							c2.9-0.3,5.7-0.7,8.5-1.1c2.3-0.3,4.6-0.6,6.8-1c2.7-0.4,5.4-0.9,8.1-1.3c1.4-0.2,2.8-0.4,4.2-0.7c0.6-0.1,1.1-0.3,1.7-0.4
							c5.8-1.1,11.4-2.3,16.7-3.6c0.7-0.2,1.4-0.4,2.2-0.6c4.6-1.2,8.9-2.4,13-3.7c1.2-0.4,2.5-0.8,3.7-1.2
							c4.6-1.5,8.9-3.1,12.8-4.8c0.1-0.1,0.2-0.1,0.3-0.2c3.7-1.7,7-3.4,10.1-5.2c0.4-0.2,1-0.5,1.3-0.7c0.6-0.4,1-0.7,1.6-1.1
							c1.3-0.8,2.5-1.7,3.6-2.5c0.5-0.4,1.1-0.7,1.6-1.1c0.6-0.5,1-0.9,1.5-1.4c0.5-0.4,0.9-0.8,1.4-1.2c0.3-0.3,0.6-0.5,0.9-0.8
							c0.9-1,1.7-1.9,2.4-2.9c0.1-0.1,0.1-0.2,0.2-0.3c0.1-0.2,0.2-0.3,0.3-0.5c0.4-0.6,0.8-1.2,1.2-1.8c0.4-0.8,0.8-1.6,1.1-2.5
							c0-0.1,0-0.1,0.1-0.2c0-0.1,0-0.2,0.1-0.3c0.2-0.7,0.4-1.3,0.6-2c0.2-0.8,0.2-1.7,0.3-2.5c0-0.1,0-0.2,0-0.3l0,0v0V1657
							C818.7,1658.6,818.4,1660.2,817.9,1661.8z"/>
						<g>
							<path class="st15" d="M651.4,1607.7c92.4,0,167.2,22.1,167.2,49.2c0,27.2-74.8,49.3-167.2,49.3s-167.4-22.1-167.4-49.3
								C484.1,1629.8,559,1607.7,651.4,1607.7z"/>
						</g>
					</g>
				</g>
				<path class="st19" d="M585.7,1617.4c53.2,23.9,106.4,47.8,159.5,71.7c-7,1-13.9,2-20.9,3c-52-23.7-104-47.4-156-71.1
					C574.1,1619.8,579.9,1618.6,585.7,1617.4z"/>
			</g>
			<g>
				<g>
					<g class="st18">
						<path class="st19" d="M1002.4,1649.5c-0.1,0.1-0.1,0.2-0.1,0.3c-0.8,1.4-1.9,2.7-3.2,3.9c-0.1,0.1-0.3,0.3-0.4,0.4
							c-1.2,1.1-2.7,2.2-4.3,3.2c-0.5,0.3-1,0.6-1.6,0.9c-1.1,0.6-2.3,1.2-3.6,1.8c-1.3,0.6-2.6,1.2-4,1.7c-1,0.4-2.1,0.8-3.2,1.2
							c-3.4,1.1-7,2.2-11,3.1c-0.1,0-0.2,0.1-0.3,0.1c-4.1,0.9-8.7,1.6-13.5,2.2c-1.2,0.2-2.5,0.3-3.8,0.4c-4.3,0.5-8.8,0.8-13.5,1
							c-0.8,0-1.5,0.1-2.2,0.1c-5.4,0.2-11.2,0.2-17.1,0.2c-2,0-4-0.1-6-0.2c-2.7-0.1-5.4-0.2-8.2-0.3c-2.3-0.1-4.6-0.3-6.9-0.4
							c-2.8-0.2-5.7-0.4-8.6-0.7c-1.9-0.2-3.7-0.3-5.6-0.5c-8.1-0.8-16.3-1.8-24.8-3.1c-1.4-0.2-2.8-0.4-4.2-0.7
							c-7.3-1.1-14.7-2.4-22.2-3.9c-1.3-0.3-2.5-0.5-3.8-0.7c-7.1-1.5-14.1-3.1-20.9-4.7c-1.9-0.5-3.7-0.9-5.6-1.4
							c-5.8-1.5-11.4-3-16.9-4.6c-1.2-0.3-2.4-0.7-3.6-1c-6.2-1.9-12.2-3.8-18.1-5.8c-1.5-0.5-3-1.1-4.4-1.6
							c-4.2-1.5-8.4-3-12.3-4.6c-1.6-0.6-3.3-1.3-4.8-1.9c-4.1-1.7-8-3.4-11.8-5.1c-0.9-0.4-1.9-0.8-2.8-1.2
							c-4.6-2.2-8.9-4.3-13-6.6c-1-0.5-1.9-1.1-2.8-1.6c-3.4-1.9-6.6-3.8-9.6-5.8c-1.2-0.8-2.5-1.6-3.6-2.4
							c-0.9-0.6-1.7-1.2-2.5-1.8c-1.7-1.2-3.2-2.4-4.7-3.6c-0.7-0.6-1.4-1.1-2-1.7c-1.8-1.6-3.5-3.1-5-4.7c-0.1-0.1-0.3-0.3-0.5-0.4
							c-1.6-1.7-3-3.4-4.2-5.1c-0.4-0.5-0.6-1-1-1.5c-0.8-1.2-1.5-2.4-2-3.6c-0.3-0.6-0.5-1.1-0.7-1.7c-0.4-1.1-0.7-2.3-1-3.4
							c-0.1-0.5-0.2-1-0.3-1.5c-0.2-1.6-0.2-3.1,0.2-4.7l-12.2,59.4c-0.3,1.5-0.3,3.1-0.2,4.7c0.1,0.5,0.2,1,0.3,1.5
							c0.2,1.1,0.5,2.3,1,3.4c0.2,0.6,0.5,1.1,0.7,1.7c0.6,1.2,1.2,2.4,2,3.6c0.3,0.5,0.6,1,1,1.5c1.2,1.7,2.6,3.4,4.2,5.1
							c0.1,0.1,0.3,0.3,0.5,0.4c1.5,1.6,3.2,3.1,5,4.7c0.6,0.6,1.4,1.1,2,1.7c1.5,1.2,3,2.4,4.7,3.6c0.8,0.6,1.7,1.2,2.5,1.8
							c0.6,0.4,1.1,0.8,1.7,1.2c0.6,0.4,1.3,0.8,1.9,1.1c3,1.9,6.2,3.9,9.6,5.8c0.7,0.4,1.2,0.7,1.8,1.1c0.3,0.2,0.7,0.3,1,0.5
							c4.1,2.2,8.4,4.4,13,6.6c0.2,0.1,0.3,0.2,0.5,0.3c0.7,0.3,1.5,0.7,2.3,1c3.8,1.7,7.7,3.4,11.8,5.1c0.7,0.3,1.3,0.6,2.1,0.9
							c0.9,0.4,1.9,0.7,2.8,1c4,1.6,8.1,3.1,12.3,4.6c1,0.4,2,0.8,3.1,1.1c0.4,0.2,0.9,0.3,1.4,0.4c5.8,2,11.8,3.9,18.1,5.8
							c0.3,0.1,0.6,0.2,0.9,0.3c0.9,0.3,1.8,0.5,2.7,0.7c5.5,1.6,11.1,3.1,16.9,4.6c1.1,0.3,2,0.6,3.1,0.8c0.8,0.2,1.7,0.4,2.5,0.6
							c6.8,1.7,13.8,3.3,20.9,4.8c0.6,0.1,1.2,0.2,1.8,0.4c0.7,0.1,1.3,0.2,2,0.3c7.5,1.5,14.9,2.8,22.2,3.9
							c0.9,0.1,1.9,0.4,2.8,0.5c0.5,0.1,0.9,0.1,1.4,0.2c8.5,1.3,16.7,2.3,24.8,3.1c0.7,0.1,1.5,0.2,2.2,0.3
							c1.2,0.1,2.3,0.2,3.5,0.3c2.9,0.3,5.7,0.5,8.5,0.7c2.3,0.2,4.6,0.3,6.9,0.4c2.8,0.1,5.5,0.2,8.2,0.3c1.4,0,2.9,0.1,4.2,0.2
							c0.6,0,1.1,0,1.7,0c5.9,0.1,11.6,0.1,17.1-0.2c0.8,0,1.5-0.1,2.2-0.1c4.7-0.2,9.2-0.6,13.5-1c1.3-0.1,2.6-0.3,3.8-0.4
							c4.8-0.6,9.3-1.3,13.5-2.2c0.1,0,0.2-0.1,0.4-0.1c4-0.9,7.6-1.9,10.9-3c0.4-0.2,1-0.2,1.5-0.4c0.6-0.2,1.1-0.5,1.7-0.7
							c1.4-0.6,2.7-1.1,4-1.7c0.6-0.3,1.3-0.5,1.8-0.8c0.6-0.3,1.2-0.7,1.8-1.1c0.5-0.3,1.1-0.6,1.6-0.9c0.3-0.2,0.7-0.4,1-0.6
							c1.1-0.8,2.1-1.5,3-2.4c0.1-0.1,0.2-0.2,0.3-0.3c0.2-0.1,0.3-0.3,0.4-0.4c0.5-0.5,1-1,1.5-1.5c0.6-0.7,1.1-1.4,1.6-2.2
							c0-0.1,0.1-0.1,0.1-0.2c0.1-0.1,0.1-0.2,0.1-0.3c0.3-0.6,0.7-1.2,0.9-1.8c0.3-0.8,0.6-1.6,0.8-2.4c0-0.1,0-0.2,0.1-0.3l0,0v0
							l12.2-59.4C1003.8,1646.5,1003.2,1648.1,1002.4,1649.5z"/>
						<g>
							<path class="st15" d="M850.3,1563.1c90.5,18.6,159.4,55.3,153.9,81.9c-5.5,26.6-83.2,33.2-173.7,14.6
								c-90.5-18.6-159.5-55.3-154-82C681.9,1551,759.7,1544.5,850.3,1563.1z"/>
						</g>
					</g>
				</g>
				<path class="st19" d="M783.9,1559.3c47.3,34.1,94.6,68.2,141.9,102.3c-7-0.4-14.1-0.9-21.1-1.3c-46.2-33.7-92.3-67.4-138.5-101
					C772.1,1559.3,778,1559.3,783.9,1559.3z"/>
			</g>
			<g>
				<g>
					<g class="st18">
						<path class="st19" d="M984.4,1775.5c0,0.1-0.1,0.2-0.1,0.3c-0.6,1.5-1.5,2.9-2.5,4.4c-0.1,0.2-0.2,0.3-0.3,0.5
							c-1,1.3-2.3,2.6-3.7,3.9c-0.4,0.4-0.9,0.8-1.4,1.2c-1,0.8-2.1,1.6-3.2,2.4c-1.2,0.8-2.4,1.6-3.7,2.3c-0.9,0.6-1.9,1.1-3,1.6
							c-3.1,1.6-6.5,3.2-10.4,4.7c-0.1,0-0.2,0.1-0.3,0.1c-4,1.5-8.4,2.9-13,4.2c-1.2,0.3-2.5,0.7-3.7,1c-4.2,1.1-8.6,2.2-13.2,3.1
							c-0.7,0.2-1.4,0.3-2.2,0.5c-5.3,1.1-11,2-16.8,2.8c-1.9,0.3-3.9,0.5-5.9,0.8c-2.7,0.3-5.3,0.7-8.1,1c-2.2,0.2-4.5,0.4-6.8,0.7
							c-2.8,0.3-5.7,0.5-8.6,0.7c-1.9,0.1-3.7,0.2-5.6,0.4c-8.1,0.5-16.4,0.8-25,0.8c-1.4,0-2.8,0-4.3,0c-7.4,0-14.9-0.1-22.6-0.4
							c-1.3,0-2.5-0.1-3.8-0.1c-7.3-0.3-14.4-0.8-21.4-1.4c-1.9-0.2-3.8-0.3-5.7-0.5c-5.9-0.6-11.7-1.2-17.4-1.9
							c-1.2-0.2-2.5-0.3-3.7-0.4c-6.4-0.9-12.7-1.9-18.7-2.9c-1.6-0.3-3.1-0.6-4.6-0.9c-4.4-0.8-8.7-1.7-12.9-2.6
							c-1.7-0.4-3.4-0.8-5.1-1.2c-4.3-1-8.5-2.1-12.5-3.2c-1-0.3-2-0.5-3-0.8c-4.9-1.4-9.5-2.9-13.9-4.4c-1.1-0.4-2-0.8-3-1.1
							c-3.7-1.4-7.1-2.8-10.4-4.2c-1.3-0.6-2.7-1.2-3.9-1.8c-0.9-0.5-1.9-0.9-2.8-1.4c-1.8-0.9-3.6-1.9-5.2-2.8
							c-0.8-0.4-1.5-0.9-2.3-1.3c-2.1-1.3-4-2.6-5.7-3.9c-0.2-0.1-0.4-0.2-0.5-0.4c-1.9-1.4-3.5-2.9-4.9-4.4
							c-0.4-0.4-0.8-0.9-1.2-1.3c-1-1.1-1.8-2.1-2.5-3.2c-0.4-0.5-0.7-1-1-1.6c-0.6-1.1-1.1-2.1-1.5-3.2c-0.2-0.5-0.4-0.9-0.5-1.4
							c-0.4-1.5-0.7-3.1-0.6-4.6l-2.8,60.5c-0.1,1.6,0.2,3.1,0.6,4.6c0.1,0.5,0.3,0.9,0.5,1.4c0.4,1.1,0.9,2.1,1.5,3.2
							c0.3,0.5,0.6,1,1,1.6c0.7,1.1,1.6,2.1,2.5,3.2c0.4,0.4,0.7,0.9,1.2,1.3c1.5,1.5,3.1,2.9,4.9,4.4c0.2,0.1,0.4,0.2,0.5,0.4
							c1.7,1.3,3.7,2.6,5.7,3.9c0.7,0.4,1.5,0.9,2.3,1.3c1.7,1,3.4,1.9,5.2,2.8c0.9,0.5,1.8,0.9,2.8,1.4c0.6,0.3,1.2,0.6,1.9,0.9
							c0.6,0.3,1.4,0.5,2.1,0.8c3.3,1.4,6.7,2.8,10.4,4.2c0.7,0.3,1.3,0.6,2,0.8c0.3,0.1,0.7,0.2,1,0.3c4.4,1.5,9,3,13.9,4.4
							c0.2,0.1,0.4,0.1,0.6,0.2c0.8,0.2,1.6,0.4,2.4,0.6c4,1.1,8.2,2.2,12.5,3.2c0.8,0.2,1.4,0.4,2.2,0.6c0.9,0.2,2,0.4,2.9,0.6
							c4.2,0.9,8.5,1.8,12.9,2.6c1.1,0.2,2.1,0.5,3.2,0.7c0.5,0.1,1,0.1,1.4,0.2c6.1,1.1,12.3,2,18.7,2.9c0.3,0,0.6,0.1,0.9,0.1
							c0.9,0.1,1.8,0.2,2.7,0.3c5.7,0.7,11.5,1.4,17.4,1.9c1.1,0.1,2.1,0.3,3.2,0.4c0.8,0.1,1.7,0.1,2.6,0.2
							c7,0.6,14.1,1.1,21.4,1.4c0.6,0,1.2,0.1,1.8,0.1c0.7,0,1.3,0,2,0c7.7,0.3,15.2,0.4,22.6,0.4c0.9,0,1.9,0.1,2.8,0.1
							c0.5,0,1,0,1.4,0c8.6-0.1,16.9-0.4,25-0.8c0.7,0,1.5,0,2.3-0.1c1.2-0.1,2.3-0.2,3.5-0.3c2.9-0.2,5.7-0.4,8.5-0.7
							c2.3-0.2,4.6-0.4,6.9-0.7c2.8-0.3,5.4-0.6,8.1-1c1.4-0.2,2.8-0.3,4.2-0.5c0.6-0.1,1.1-0.2,1.7-0.3c5.8-0.8,11.5-1.8,16.8-2.8
							c0.8-0.1,1.4-0.3,2.2-0.5c4.6-1,9-2,13.2-3.1c1.3-0.3,2.5-0.7,3.7-1c4.6-1.3,9-2.7,13-4.2c0.1,0,0.2-0.1,0.3-0.1
							c3.8-1.5,7.2-3.1,10.3-4.7c0.4-0.2,1-0.4,1.4-0.6c0.6-0.3,1-0.7,1.6-1c1.3-0.8,2.5-1.5,3.7-2.3c0.5-0.4,1.2-0.7,1.6-1
							c0.6-0.4,1-0.9,1.6-1.3c0.5-0.4,1-0.8,1.4-1.2c0.3-0.3,0.6-0.5,0.9-0.7c1-0.9,1.8-1.8,2.6-2.8c0.1-0.1,0.1-0.2,0.2-0.3
							c0.1-0.2,0.2-0.3,0.3-0.5c0.4-0.6,0.9-1.2,1.2-1.8c0.5-0.8,0.9-1.6,1.2-2.4c0-0.1,0-0.1,0.1-0.2c0-0.1,0.1-0.2,0.1-0.3
							c0.2-0.7,0.5-1.3,0.6-2c0.2-0.8,0.3-1.6,0.4-2.5c0-0.1,0-0.2,0-0.3l0,0v0l2.8-60.5C985.4,1772.4,985,1774,984.4,1775.5z"/>
						<g>
							<path class="st15" d="M820.7,1713.9c92.3,4.2,166.1,29.7,164.8,56.8c-1.2,27.2-77,45.8-169.3,41.6
								c-92.3-4.2-166.2-29.7-164.9-56.9C652.5,1728.3,728.4,1709.7,820.7,1713.9z"/>
						</g>
					</g>
				</g>
				<path class="st19" d="M754.5,1720.5c52,26.3,104.1,52.6,156.1,78.9c-7,0.7-14,1.4-21,2c-50.9-26.1-101.7-52.1-152.6-78.2
					C742.9,1722.4,748.7,1721.5,754.5,1720.5z"/>
			</g>
			<g>
				<g>
					<g class="st18">
						<path class="st19" d="M1470.1,1730.9c0,0.1-0.1,0.2-0.1,0.3c-0.6,1.5-1.5,2.9-2.6,4.3c-0.1,0.2-0.2,0.3-0.4,0.5
							c-1.1,1.3-2.4,2.6-3.8,3.8c-0.5,0.4-0.9,0.8-1.4,1.2c-1,0.8-2.1,1.5-3.3,2.3c-1.2,0.8-2.4,1.5-3.7,2.3c-1,0.5-2,1.1-3,1.6
							c-3.2,1.6-6.6,3.1-10.5,4.5c-0.1,0-0.2,0.1-0.3,0.1c-4,1.4-8.4,2.7-13.1,4c-1.2,0.3-2.5,0.6-3.7,0.9c-4.2,1-8.6,2-13.3,2.9
							c-0.7,0.1-1.4,0.3-2.2,0.4c-5.3,1-11,1.8-16.9,2.5c-1.9,0.2-3.9,0.5-5.9,0.7c-2.7,0.3-5.4,0.6-8.1,0.8
							c-2.3,0.2-4.5,0.4-6.9,0.5c-2.8,0.2-5.7,0.4-8.6,0.5c-1.9,0.1-3.8,0.2-5.6,0.2c-8.1,0.3-16.4,0.4-25,0.3
							c-1.4,0-2.8-0.1-4.3-0.1c-7.4-0.1-14.9-0.4-22.5-0.9c-1.3-0.1-2.5-0.1-3.8-0.2c-7.3-0.5-14.3-1.1-21.3-1.9
							c-1.9-0.2-3.8-0.4-5.7-0.6c-5.9-0.7-11.7-1.4-17.4-2.3c-1.2-0.2-2.5-0.3-3.7-0.5c-6.4-1-12.6-2.1-18.7-3.3
							c-1.6-0.3-3.1-0.6-4.6-1c-4.4-0.9-8.7-1.9-12.9-2.9c-1.7-0.4-3.4-0.8-5.1-1.3c-4.3-1.1-8.4-2.3-12.4-3.5c-1-0.3-2-0.6-2.9-0.9
							c-4.8-1.5-9.4-3.1-13.8-4.7c-1-0.4-2-0.8-3-1.2c-3.6-1.4-7.1-2.9-10.3-4.4c-1.3-0.6-2.7-1.2-3.9-1.8c-0.9-0.5-1.8-0.9-2.7-1.4
							c-1.8-1-3.5-1.9-5.1-2.9c-0.8-0.5-1.5-0.9-2.2-1.4c-2-1.3-3.9-2.6-5.6-4c-0.2-0.1-0.4-0.2-0.5-0.4c-1.8-1.5-3.4-3-4.9-4.5
							c-0.4-0.4-0.8-0.9-1.1-1.3c-0.9-1.1-1.8-2.2-2.5-3.3c-0.3-0.5-0.7-1.1-0.9-1.6c-0.6-1.1-1.1-2.2-1.4-3.2
							c-0.2-0.5-0.4-1-0.5-1.4c-0.4-1.5-0.6-3.1-0.5-4.6l-4,60.5c-0.1,1.6,0.1,3.1,0.5,4.6c0.1,0.5,0.3,1,0.5,1.4
							c0.4,1.1,0.8,2.2,1.4,3.2c0.3,0.5,0.6,1.1,0.9,1.6c0.7,1.1,1.6,2.2,2.5,3.3c0.4,0.4,0.7,0.9,1.1,1.3c1.4,1.5,3,3,4.9,4.5
							c0.2,0.1,0.4,0.2,0.5,0.4c1.7,1.3,3.6,2.7,5.6,4c0.7,0.5,1.5,0.9,2.2,1.4c1.6,1,3.3,2,5.1,2.9c0.9,0.5,1.8,1,2.7,1.4
							c0.6,0.3,1.2,0.7,1.9,1c0.6,0.3,1.4,0.6,2,0.9c3.2,1.5,6.7,3,10.3,4.4c0.7,0.3,1.3,0.6,2,0.8c0.3,0.1,0.7,0.2,1,0.4
							c4.3,1.6,8.9,3.2,13.8,4.7c0.2,0.1,0.4,0.1,0.5,0.2c0.8,0.2,1.6,0.4,2.4,0.7c4,1.2,8.1,2.3,12.4,3.5c0.7,0.2,1.4,0.4,2.2,0.6
							c0.9,0.2,2,0.4,2.9,0.6c4.2,1,8.5,2,12.9,2.9c1.1,0.2,2.1,0.5,3.2,0.7c0.5,0.1,1,0.2,1.4,0.3c6,1.2,12.3,2.3,18.7,3.3
							c0.3,0.1,0.6,0.1,0.9,0.2c0.9,0.1,1.8,0.2,2.7,0.4c5.7,0.8,11.5,1.6,17.4,2.3c1.1,0.1,2.1,0.3,3.2,0.4
							c0.8,0.1,1.7,0.1,2.6,0.2c7,0.7,14.1,1.4,21.3,1.9c0.6,0,1.2,0.1,1.8,0.1c0.7,0,1.3,0,2,0.1c7.7,0.5,15.2,0.7,22.5,0.9
							c0.9,0,1.9,0.1,2.8,0.1c0.5,0,1,0,1.4,0c8.6,0.1,16.9,0,25-0.3c0.7,0,1.5,0,2.3,0c1.2-0.1,2.3-0.1,3.5-0.2
							c2.9-0.1,5.7-0.3,8.5-0.5c2.3-0.2,4.6-0.3,6.9-0.5c2.8-0.2,5.4-0.5,8.1-0.8c1.4-0.1,2.8-0.3,4.2-0.4c0.6-0.1,1.1-0.2,1.7-0.3
							c5.9-0.7,11.5-1.5,16.9-2.5c0.8-0.1,1.4-0.3,2.2-0.4c4.7-0.9,9.1-1.8,13.3-2.9c1.3-0.3,2.5-0.6,3.7-0.9
							c4.6-1.2,9.1-2.5,13.1-4c0.1,0,0.2-0.1,0.4-0.1c3.8-1.4,7.3-2.9,10.4-4.5c0.4-0.2,1-0.4,1.4-0.6c0.6-0.3,1-0.7,1.6-1
							c1.3-0.7,2.6-1.5,3.7-2.3c0.5-0.3,1.2-0.7,1.7-1c0.6-0.4,1.1-0.9,1.6-1.3c0.5-0.4,1-0.8,1.4-1.2c0.3-0.2,0.6-0.5,0.9-0.7
							c1-0.9,1.9-1.8,2.6-2.7c0.1-0.1,0.2-0.2,0.2-0.3c0.1-0.2,0.2-0.3,0.4-0.5c0.4-0.6,0.9-1.1,1.3-1.7c0.5-0.8,0.9-1.6,1.3-2.4
							c0-0.1,0-0.1,0.1-0.2c0-0.1,0.1-0.2,0.1-0.3c0.3-0.6,0.5-1.3,0.7-2c0.2-0.8,0.4-1.6,0.4-2.5c0-0.1,0-0.2,0-0.3l0,0v0l4-60.5
							C1471.1,1727.7,1470.7,1729.3,1470.1,1730.9z"/>
						<g>
							<path class="st15" d="M1307.6,1666c92.2,6.1,165.4,33,163.7,60.1c-1.8,27.1-77.9,44.3-170.1,38.2
								c-92.2-6.1-165.6-33-163.8-60.2C1139.1,1677.1,1215.4,1660,1307.6,1666z"/>
						</g>
					</g>
				</g>
				<path class="st19" d="M1241.3,1671.3c51.5,27.3,103,54.7,154.5,82c-7,0.5-14,1.1-21.1,1.6c-50.3-27.1-100.6-54.1-151-81.2
					C1229.6,1673,1235.5,1672.1,1241.3,1671.3z"/>
			</g>
			<g>
				<g>
					<g class="st18">
						<path class="st19" d="M1123.5,1456.2c0,0.1,0,0.2,0,0.3c-0.3,1.6-0.9,3.1-1.7,4.7c-0.1,0.2-0.2,0.4-0.3,0.5
							c-0.8,1.5-1.8,3-3,4.5c-0.4,0.5-0.8,0.9-1.2,1.4c-0.8,1-1.8,1.9-2.8,2.9c-1,1-2.1,2-3.2,2.9c-0.8,0.7-1.7,1.4-2.6,2.1
							c-2.8,2.2-5.9,4.3-9.4,6.5c-0.1,0.1-0.2,0.1-0.3,0.2c-3.6,2.2-7.7,4.3-12.1,6.4c-1.1,0.6-2.3,1.1-3.5,1.6
							c-3.9,1.8-8.1,3.6-12.5,5.4c-0.7,0.3-1.3,0.6-2.1,0.8c-5.1,2-10.5,3.9-16.1,5.7c-1.9,0.6-3.8,1.2-5.7,1.8
							c-2.6,0.8-5.2,1.6-7.8,2.3c-2.2,0.6-4.4,1.2-6.6,1.8c-2.7,0.7-5.5,1.5-8.3,2.2c-1.8,0.4-3.7,0.9-5.5,1.3
							c-7.9,1.9-16,3.6-24.5,5.2c-1.4,0.3-2.8,0.5-4.2,0.7c-7.3,1.3-14.7,2.5-22.3,3.5c-1.3,0.2-2.5,0.4-3.8,0.5
							c-7.2,0.9-14.3,1.7-21.3,2.3c-1.9,0.2-3.8,0.3-5.7,0.5c-5.9,0.5-11.8,0.9-17.5,1.1c-1.2,0.1-2.5,0.1-3.7,0.2
							c-6.5,0.3-12.8,0.4-19,0.4c-1.6,0-3.1,0-4.7-0.1c-4.5-0.1-8.9-0.2-13.2-0.4c-1.7-0.1-3.5-0.2-5.2-0.3c-4.4-0.3-8.7-0.6-12.8-1
							c-1-0.1-2.1-0.2-3-0.3c-5-0.5-9.8-1.2-14.4-2c-1.1-0.2-2.1-0.4-3.2-0.6c-3.8-0.7-7.5-1.5-11-2.3c-1.4-0.3-2.8-0.7-4.2-1.1
							c-1-0.3-2-0.6-3-0.9c-2-0.6-3.8-1.2-5.6-1.9c-0.8-0.3-1.7-0.6-2.5-0.9c-2.2-0.9-4.4-1.8-6.3-2.8c-0.2-0.1-0.4-0.2-0.6-0.3
							c-2.1-1.1-3.9-2.2-5.6-3.4c-0.5-0.4-0.9-0.7-1.4-1.1c-1.1-0.9-2.2-1.8-3.1-2.7c-0.4-0.5-0.8-0.9-1.2-1.4
							c-0.8-0.9-1.4-1.9-2-2.9c-0.3-0.4-0.5-0.9-0.8-1.3c-0.7-1.4-1.2-2.9-1.4-4.5l7.7,60.1c0.2,1.5,0.7,3,1.4,4.5
							c0.2,0.4,0.5,0.9,0.8,1.3c0.6,1,1.2,2,2,2.9c0.4,0.5,0.8,0.9,1.2,1.4c0.9,0.9,1.9,1.8,3.1,2.7c0.5,0.4,0.9,0.7,1.4,1.1
							c1.7,1.2,3.5,2.4,5.6,3.4c0.2,0.1,0.4,0.2,0.6,0.3c1.9,1,4,1.9,6.3,2.8c0.8,0.3,1.6,0.6,2.5,0.9c1.8,0.7,3.7,1.3,5.6,1.9
							c1,0.3,1.9,0.6,3,0.9c0.7,0.2,1.3,0.4,2,0.6c0.7,0.2,1.5,0.3,2.2,0.5c3.5,0.9,7.1,1.6,11,2.3c0.7,0.1,1.4,0.3,2.1,0.5
							c0.3,0.1,0.7,0.1,1.1,0.1c4.6,0.8,9.4,1.4,14.4,2c0.2,0,0.4,0.1,0.6,0.1c0.8,0.1,1.7,0.1,2.5,0.2c4.1,0.4,8.4,0.7,12.8,1
							c0.8,0,1.5,0.1,2.2,0.2c1,0,2,0,3,0.1c4.3,0.2,8.7,0.3,13.2,0.4c1.1,0,2.1,0.1,3.3,0.1c0.5,0,1,0,1.5,0c6.2,0,12.5-0.1,19-0.4
							c0.3,0,0.6,0,1,0c0.9,0,1.9-0.1,2.8-0.2c5.7-0.3,11.6-0.6,17.5-1.1c1.1-0.1,2.1-0.1,3.2-0.2c0.8-0.1,1.7-0.2,2.5-0.3
							c7-0.6,14.1-1.4,21.3-2.3c0.6-0.1,1.2-0.2,1.8-0.2c0.7-0.1,1.3-0.2,2-0.3c7.6-1,15-2.2,22.3-3.5c0.9-0.2,1.9-0.3,2.8-0.4
							c0.5-0.1,0.9-0.2,1.4-0.3c8.4-1.6,16.6-3.3,24.4-5.1c0.7-0.2,1.5-0.3,2.2-0.5c1.1-0.3,2.2-0.6,3.4-0.9
							c2.8-0.7,5.6-1.4,8.3-2.1c2.2-0.6,4.5-1.2,6.6-1.8c2.7-0.8,5.2-1.5,7.8-2.3c1.3-0.4,2.7-0.8,4-1.2c0.6-0.2,1.1-0.4,1.6-0.6
							c5.6-1.8,11-3.7,16.1-5.7c0.7-0.3,1.4-0.6,2.1-0.8c4.4-1.7,8.5-3.5,12.5-5.4c1.2-0.5,2.3-1.1,3.5-1.6
							c4.3-2.1,8.4-4.2,12.1-6.4c0.1-0.1,0.2-0.1,0.3-0.2c3.5-2.1,6.6-4.3,9.4-6.4c0.4-0.3,0.9-0.6,1.2-0.9c0.5-0.4,0.9-0.8,1.4-1.3
							c1.2-1,2.2-2,3.2-2.9c0.4-0.4,1-0.9,1.4-1.3c0.5-0.5,0.9-1,1.3-1.6c0.4-0.5,0.8-0.9,1.2-1.4c0.2-0.3,0.5-0.6,0.8-0.9
							c0.8-1.1,1.5-2.1,2.1-3.2c0.1-0.1,0.1-0.2,0.2-0.4c0.1-0.2,0.2-0.4,0.3-0.6c0.3-0.7,0.7-1.3,0.9-1.9c0.3-0.9,0.6-1.7,0.8-2.6
							c0-0.1,0-0.1,0-0.2c0-0.1,0-0.2,0-0.3c0.1-0.7,0.3-1.4,0.3-2.1c0.1-0.8,0-1.7-0.1-2.5c0-0.1,0-0.2,0-0.3l0,0v0l-7.7-60.1
							C1123.9,1452.9,1123.8,1454.5,1123.5,1456.2z"/>
						<g>
							<path class="st15" d="M951.5,1423.8c91.6-11.8,168.7,0.5,172.2,27.5c3.5,27-67.9,58.5-159.6,70.3
								c-91.6,11.8-168.8-0.5-172.3-27.5C788.4,1467.1,859.9,1435.6,951.5,1423.8z"/>
						</g>
					</g>
				</g>
				<path class="st19" d="M887.5,1441.8c55.8,16.9,111.6,33.8,167.4,50.7c-6.8,1.9-13.6,3.8-20.4,5.6
					c-54.6-16.9-109.2-33.7-163.8-50.6C876.4,1445.6,882,1443.7,887.5,1441.8z"/>
			</g>
			<g>
				<g>
					<g class="st18">
						<path class="st19" d="M1214.3,1627c0,0.1,0,0.2,0,0.3c-0.3,1.6-0.9,3.1-1.7,4.7c-0.1,0.2-0.2,0.4-0.3,0.5
							c-0.8,1.5-1.8,3-3,4.5c-0.4,0.5-0.8,0.9-1.2,1.4c-0.8,1-1.8,1.9-2.8,2.9c-1,1-2.1,2-3.2,2.9c-0.8,0.7-1.7,1.4-2.6,2.1
							c-2.8,2.2-5.9,4.3-9.4,6.5c-0.1,0.1-0.2,0.1-0.3,0.2c-3.6,2.2-7.7,4.3-12.1,6.4c-1.1,0.6-2.3,1.1-3.5,1.6
							c-3.9,1.8-8.1,3.6-12.5,5.4c-0.7,0.3-1.3,0.6-2.1,0.8c-5.1,2-10.5,3.9-16.1,5.7c-1.9,0.6-3.8,1.2-5.7,1.8
							c-2.6,0.8-5.2,1.6-7.8,2.3c-2.2,0.6-4.4,1.2-6.6,1.8c-2.7,0.7-5.5,1.5-8.3,2.2c-1.8,0.4-3.7,0.9-5.5,1.3
							c-7.9,1.9-16,3.6-24.5,5.2c-1.4,0.3-2.8,0.5-4.2,0.7c-7.3,1.3-14.7,2.5-22.3,3.5c-1.3,0.2-2.5,0.4-3.8,0.5
							c-7.2,0.9-14.3,1.7-21.3,2.3c-1.9,0.2-3.8,0.3-5.7,0.5c-5.9,0.5-11.8,0.9-17.5,1.1c-1.2,0.1-2.5,0.1-3.7,0.2
							c-6.5,0.3-12.8,0.4-19,0.4c-1.6,0-3.1,0-4.7-0.1c-4.5-0.1-8.9-0.2-13.2-0.4c-1.7-0.1-3.5-0.2-5.2-0.3c-4.4-0.3-8.7-0.6-12.8-1
							c-1-0.1-2.1-0.2-3-0.3c-5-0.5-9.8-1.2-14.4-2c-1.1-0.2-2.1-0.4-3.2-0.6c-3.8-0.7-7.5-1.5-11-2.3c-1.4-0.3-2.8-0.7-4.2-1.1
							c-1-0.3-2-0.6-3-0.9c-2-0.6-3.8-1.2-5.6-1.9c-0.8-0.3-1.7-0.6-2.5-0.9c-2.2-0.9-4.4-1.8-6.3-2.8c-0.2-0.1-0.4-0.2-0.6-0.3
							c-2.1-1.1-3.9-2.2-5.6-3.4c-0.5-0.4-0.9-0.7-1.4-1.1c-1.1-0.9-2.2-1.8-3.1-2.7c-0.4-0.5-0.8-0.9-1.2-1.4
							c-0.8-0.9-1.4-1.9-2-2.9c-0.3-0.4-0.5-0.9-0.8-1.3c-0.7-1.4-1.2-2.9-1.4-4.5l7.7,60.1c0.2,1.5,0.7,3,1.4,4.5
							c0.2,0.4,0.5,0.9,0.8,1.3c0.6,1,1.2,2,2,2.9c0.4,0.5,0.8,0.9,1.2,1.4c0.9,0.9,1.9,1.8,3.1,2.7c0.5,0.4,0.9,0.7,1.4,1.1
							c1.7,1.2,3.5,2.4,5.6,3.4c0.2,0.1,0.4,0.2,0.6,0.3c1.9,1,4,1.9,6.3,2.8c0.8,0.3,1.6,0.6,2.5,0.9c1.8,0.7,3.7,1.3,5.6,1.9
							c1,0.3,1.9,0.6,3,0.9c0.7,0.2,1.3,0.4,2,0.6c0.7,0.2,1.5,0.3,2.2,0.5c3.5,0.9,7.1,1.6,11,2.3c0.7,0.1,1.4,0.3,2.1,0.5
							c0.3,0.1,0.7,0.1,1.1,0.1c4.6,0.8,9.4,1.4,14.4,2c0.2,0,0.4,0.1,0.6,0.1c0.8,0.1,1.7,0.1,2.5,0.2c4.1,0.4,8.4,0.7,12.8,1
							c0.8,0,1.5,0.1,2.2,0.2c1,0,2,0,3,0.1c4.3,0.2,8.7,0.3,13.2,0.4c1.1,0,2.1,0.1,3.3,0.1c0.5,0,1,0,1.5,0c6.2,0,12.5-0.1,19-0.4
							c0.3,0,0.6,0,1,0c0.9,0,1.9-0.1,2.8-0.2c5.7-0.3,11.6-0.6,17.5-1.1c1.1-0.1,2.1-0.1,3.2-0.2c0.8-0.1,1.7-0.2,2.5-0.3
							c7-0.6,14.1-1.4,21.3-2.3c0.6-0.1,1.2-0.2,1.8-0.2c0.7-0.1,1.3-0.2,2-0.3c7.6-1,15-2.2,22.3-3.5c0.9-0.2,1.9-0.3,2.8-0.4
							c0.5-0.1,0.9-0.2,1.4-0.3c8.4-1.6,16.6-3.3,24.4-5.1c0.7-0.2,1.5-0.3,2.2-0.5c1.1-0.3,2.2-0.6,3.4-0.9
							c2.8-0.7,5.6-1.4,8.3-2.1c2.2-0.6,4.5-1.2,6.6-1.8c2.7-0.8,5.2-1.5,7.8-2.3c1.3-0.4,2.7-0.8,4-1.2c0.6-0.2,1.1-0.4,1.6-0.6
							c5.6-1.8,11-3.7,16.1-5.7c0.7-0.3,1.4-0.6,2.1-0.8c4.4-1.7,8.5-3.5,12.5-5.4c1.2-0.5,2.3-1.1,3.5-1.6
							c4.3-2.1,8.4-4.2,12.1-6.4c0.1-0.1,0.2-0.1,0.3-0.2c3.5-2.1,6.6-4.3,9.4-6.4c0.4-0.3,0.9-0.6,1.2-0.9c0.5-0.4,0.9-0.8,1.4-1.3
							c1.2-1,2.2-2,3.2-2.9c0.4-0.4,1-0.9,1.4-1.3c0.5-0.5,0.9-1,1.3-1.6c0.4-0.5,0.8-0.9,1.2-1.4c0.2-0.3,0.5-0.6,0.8-0.9
							c0.8-1.1,1.5-2.1,2.1-3.2c0.1-0.1,0.1-0.2,0.2-0.4c0.1-0.2,0.2-0.4,0.3-0.6c0.3-0.7,0.7-1.3,0.9-1.9c0.3-0.9,0.6-1.7,0.8-2.6
							c0-0.1,0-0.1,0-0.2c0-0.1,0-0.2,0-0.3c0.1-0.7,0.3-1.4,0.3-2.1c0.1-0.8,0-1.7-0.1-2.5c0-0.1,0-0.2,0-0.3l0,0v0l-7.7-60.1
							C1214.7,1623.7,1214.6,1625.3,1214.3,1627z"/>
						<g>
							<path class="st15" d="M1042.4,1594.6c91.6-11.8,168.7,0.5,172.2,27.5c3.5,27-67.9,58.5-159.6,70.3s-168.8-0.5-172.3-27.5
								C879.2,1637.9,950.7,1606.4,1042.4,1594.6z"/>
						</g>
					</g>
				</g>
				<path class="st19" d="M978.4,1612.6c55.8,16.9,111.6,33.8,167.4,50.7c-6.8,1.9-13.6,3.8-20.4,5.6
					c-54.6-16.9-109.2-33.7-163.8-50.6C967.2,1616.4,972.8,1614.5,978.4,1612.6z"/>
			</g>
			<g>
				<g>
					<g class="st18">
						<path class="st19" d="M766.7,1436.5c0,0.1,0,0.2,0,0.3c0,1.6-0.2,3.3-0.6,5c0,0.2-0.1,0.4-0.1,0.6c-0.4,1.6-1.1,3.3-1.9,5
							c-0.3,0.5-0.5,1.1-0.8,1.6c-0.6,1.1-1.3,2.3-2,3.4c-0.8,1.2-1.6,2.4-2.5,3.6c-0.7,0.9-1.4,1.8-2.1,2.7
							c-2.2,2.8-4.7,5.6-7.7,8.4c-0.1,0.1-0.1,0.2-0.2,0.2c-3,3-6.6,6-10.3,9c-1,0.8-2,1.6-3,2.4c-3.4,2.7-7,5.4-10.9,8.1
							c-0.6,0.4-1.2,0.9-1.8,1.3c-4.5,3.1-9.3,6.1-14.4,9.2c-1.7,1-3.4,2-5.1,3c-2.3,1.4-4.7,2.7-7.1,4.1c-2,1.1-4,2.2-6,3.3
							c-2.5,1.3-5,2.7-7.6,4c-1.7,0.9-3.4,1.7-5,2.5c-7.2,3.6-14.8,7.2-22.7,10.6c-1.3,0.6-2.6,1.1-3.9,1.7
							c-6.8,2.9-13.7,5.8-20.9,8.5c-1.2,0.5-2.4,0.9-3.6,1.4c-6.8,2.6-13.5,4.9-20.2,7.1c-1.8,0.6-3.7,1.2-5.5,1.8
							c-5.7,1.8-11.3,3.5-16.8,5.1c-1.2,0.3-2.4,0.7-3.6,1c-6.3,1.7-12.4,3.3-18.4,4.7c-1.6,0.4-3.1,0.7-4.6,1
							c-4.4,1-8.7,1.9-12.9,2.7c-1.7,0.3-3.4,0.6-5.1,0.9c-4.4,0.8-8.6,1.4-12.7,2c-1,0.1-2,0.3-3,0.4c-5,0.6-9.9,1.1-14.5,1.4
							c-1.1,0.1-2.2,0.1-3.2,0.1c-3.9,0.2-7.6,0.3-11.2,0.2c-1.4,0-2.9,0-4.3-0.1c-1,0-2.1-0.1-3.1-0.2c-2-0.1-4-0.3-5.9-0.5
							c-0.9-0.1-1.8-0.2-2.6-0.3c-2.4-0.4-4.7-0.8-6.8-1.3c-0.2,0-0.4-0.1-0.6-0.1c-2.3-0.6-4.3-1.3-6.3-2.1
							c-0.6-0.2-1.1-0.5-1.6-0.7c-1.3-0.6-2.5-1.2-3.6-1.9c-0.5-0.3-1-0.7-1.5-1.1c-1-0.7-1.8-1.5-2.6-2.4c-0.3-0.4-0.7-0.7-1-1.1
							c-1-1.3-1.8-2.6-2.4-4l21.3,56.8c0.5,1.5,1.4,2.8,2.4,4c0.3,0.4,0.7,0.7,1,1.1c0.8,0.8,1.6,1.6,2.6,2.4c0.5,0.4,1,0.7,1.5,1.1
							c1.1,0.7,2.3,1.3,3.6,1.9c0.5,0.2,1,0.5,1.6,0.7c1.9,0.8,4,1.5,6.3,2.1c0.2,0.1,0.4,0.1,0.6,0.1c2.1,0.5,4.4,0.9,6.8,1.3
							c0.8,0.1,1.7,0.2,2.6,0.3c1.9,0.2,3.9,0.4,5.9,0.5c1,0.1,2,0.1,3.1,0.2c0.7,0,1.4,0.1,2.1,0.1c0.7,0,1.5-0.1,2.2,0
							c3.6,0,7.3,0,11.2-0.2c0.8,0,1.4,0,2.2,0c0.3,0,0.7-0.1,1.1-0.1c4.6-0.3,9.5-0.7,14.5-1.4c0.2,0,0.4,0,0.6-0.1
							c0.8-0.1,1.7-0.3,2.5-0.4c4.1-0.6,8.4-1.2,12.7-2c0.8-0.1,1.5-0.2,2.2-0.3c0.9-0.2,2-0.4,2.9-0.6c4.2-0.8,8.5-1.7,12.9-2.7
							c1.1-0.2,2.1-0.4,3.2-0.7c0.5-0.1,0.9-0.3,1.4-0.4c6-1.4,12.1-3,18.4-4.7c0.3-0.1,0.6-0.1,0.9-0.2c0.9-0.2,1.8-0.6,2.6-0.8
							c5.5-1.6,11.1-3.3,16.8-5.1c1-0.3,2-0.6,3.1-0.9c0.8-0.3,1.6-0.6,2.4-0.8c6.7-2.2,13.4-4.5,20.2-7.1c0.6-0.2,1.1-0.4,1.7-0.6
							c0.6-0.2,1.2-0.5,1.9-0.8c7.2-2.7,14.1-5.6,20.9-8.5c0.8-0.4,1.8-0.7,2.6-1.1c0.5-0.2,0.9-0.4,1.3-0.6
							c7.9-3.4,15.4-7,22.6-10.6c0.7-0.3,1.4-0.6,2-1c1.1-0.5,2-1.1,3.1-1.6c2.6-1.3,5.1-2.6,7.6-4c2-1.1,4.1-2.2,6-3.3
							c2.4-1.4,4.8-2.7,7.1-4.1c1.2-0.7,2.5-1.4,3.7-2.1c0.5-0.3,1-0.6,1.5-0.9c5-3.1,9.9-6.1,14.4-9.2c0.6-0.4,1.2-0.9,1.8-1.3
							c3.9-2.7,7.5-5.4,10.9-8.1c1-0.8,2-1.6,3-2.4c3.7-3,7.2-6.1,10.3-9c0.1-0.1,0.2-0.2,0.3-0.3c2.9-2.9,5.4-5.7,7.6-8.4
							c0.3-0.4,0.7-0.8,1-1.1c0.4-0.5,0.7-1,1.1-1.6c0.9-1.2,1.7-2.4,2.5-3.6c0.3-0.5,0.8-1.1,1.1-1.6c0.4-0.6,0.6-1.2,0.9-1.8
							c0.3-0.6,0.6-1.1,0.8-1.6c0.2-0.3,0.4-0.7,0.5-1c0.5-1.2,0.9-2.4,1.3-3.6c0-0.1,0-0.3,0.1-0.4c0.1-0.2,0.1-0.4,0.1-0.6
							c0.2-0.7,0.3-1.4,0.4-2.1c0.1-0.9,0.2-1.8,0.2-2.7c0-0.1,0-0.1,0-0.2c0-0.1,0-0.2,0-0.3c0-0.7-0.1-1.4-0.2-2.1
							c-0.1-0.8-0.3-1.6-0.6-2.4c0-0.1-0.1-0.2-0.1-0.3l0,0v0l-21.3-56.8C766.3,1433.2,766.6,1434.8,766.7,1436.5z"/>
						<g>
							<path class="st15" d="M591.8,1444.2c86.5-32.4,164.4-38,173.9-12.6c9.5,25.5-52.8,72.4-139.3,104.8
								c-86.5,32.4-164.5,38-174,12.6C442.9,1523.6,505.3,1476.6,591.8,1444.2z"/>
						</g>
					</g>
				</g>
				<path class="st19" d="M533.6,1476.3c58.2,3.7,116.4,7.5,174.6,11.2c-6.2,3.4-12.4,6.8-18.5,10.1c-57-4-114-7.9-171-11.9
					C523.7,1482.6,528.6,1479.5,533.6,1476.3z"/>
			</g>
			<g>
				<g>
					<g class="st18">
						<path class="st19" d="M1549.6,1513.5c0,0.1,0,0.2,0.1,0.3c0.2,1.6,0.1,3.3-0.2,5c0,0.2,0,0.4-0.1,0.6
							c-0.3,1.7-0.8,3.4-1.5,5.2c-0.2,0.6-0.5,1.1-0.7,1.7c-0.5,1.2-1.1,2.4-1.8,3.6c-0.7,1.2-1.4,2.5-2.2,3.8
							c-0.6,0.9-1.2,1.9-1.9,2.8c-2,2.9-4.3,5.9-7,9c-0.1,0.1-0.1,0.2-0.2,0.3c-2.8,3.2-6.1,6.5-9.5,9.8c-0.9,0.9-1.9,1.7-2.8,2.6
							c-3.2,2.9-6.6,5.9-10.2,8.9c-0.6,0.5-1.1,1-1.7,1.4c-4.2,3.4-8.8,6.9-13.6,10.3c-1.6,1.1-3.2,2.3-4.9,3.4
							c-2.2,1.5-4.4,3.1-6.7,4.6c-1.9,1.3-3.8,2.5-5.7,3.8c-2.4,1.5-4.8,3.1-7.3,4.6c-1.6,1-3.2,2-4.8,2.9
							c-6.9,4.2-14.2,8.3-21.7,12.4c-1.2,0.7-2.5,1.3-3.8,2c-6.5,3.4-13.2,6.8-20.2,10.1c-1.2,0.6-2.3,1.1-3.4,1.7
							c-6.6,3.1-13.1,5.9-19.6,8.7c-1.8,0.8-3.5,1.5-5.3,2.2c-5.5,2.3-10.9,4.4-16.3,6.4c-1.2,0.4-2.3,0.9-3.5,1.3
							c-6.1,2.2-12.1,4.3-17.9,6.1c-1.5,0.5-3,0.9-4.5,1.4c-4.3,1.3-8.5,2.6-12.7,3.7c-1.7,0.5-3.4,0.9-5,1.3
							c-4.3,1.1-8.5,2.1-12.5,3c-1,0.2-2,0.5-3,0.7c-5,1-9.7,1.9-14.3,2.5c-1.1,0.2-2.1,0.3-3.2,0.4c-3.9,0.5-7.6,0.9-11.1,1.1
							c-1.4,0.1-2.9,0.2-4.3,0.3c-1,0-2.1,0.1-3.1,0.1c-2,0-4,0-5.9-0.1c-0.9,0-1.8-0.1-2.6-0.1c-2.4-0.2-4.7-0.4-6.9-0.8
							c-0.2,0-0.4,0-0.6-0.1c-2.3-0.4-4.4-0.9-6.4-1.6c-0.6-0.2-1.1-0.4-1.6-0.6c-1.3-0.5-2.6-1-3.7-1.6c-0.6-0.3-1.1-0.6-1.6-0.9
							c-1-0.7-2-1.4-2.8-2.2c-0.4-0.3-0.8-0.7-1.1-1c-1.1-1.2-2-2.4-2.7-3.8l25.7,54.9c0.7,1.4,1.6,2.7,2.7,3.8
							c0.3,0.4,0.7,0.7,1.1,1c0.8,0.8,1.8,1.5,2.8,2.2c0.5,0.3,1,0.6,1.6,0.9c1.1,0.6,2.4,1.2,3.7,1.6c0.6,0.2,1.1,0.4,1.6,0.6
							c2,0.6,4.1,1.2,6.4,1.6c0.2,0,0.4,0,0.6,0.1c2.1,0.3,4.4,0.6,6.9,0.8c0.8,0.1,1.7,0.1,2.6,0.1c1.9,0.1,3.9,0.1,5.9,0.1
							c1,0,2,0,3.1-0.1c0.7,0,1.4,0,2.1-0.1c0.7,0,1.5-0.2,2.2-0.2c3.6-0.2,7.3-0.6,11.2-1.1c0.7-0.1,1.4-0.1,2.1-0.2
							c0.3,0,0.7-0.1,1.1-0.2c4.6-0.7,9.4-1.5,14.3-2.5c0.2,0,0.4-0.1,0.6-0.1c0.8-0.2,1.6-0.4,2.4-0.6c4.1-0.9,8.2-1.9,12.5-3
							c0.7-0.2,1.4-0.3,2.2-0.5c0.9-0.2,1.9-0.6,2.8-0.8c4.1-1.1,8.4-2.4,12.7-3.7c1.1-0.3,2.1-0.6,3.1-0.9c0.4-0.1,0.9-0.3,1.4-0.5
							c5.9-1.9,11.8-3.9,17.9-6.1c0.3-0.1,0.6-0.2,0.9-0.3c0.8-0.3,1.7-0.7,2.6-1c5.4-2,10.8-4.1,16.3-6.4c1-0.4,2-0.7,3-1.2
							c0.8-0.3,1.6-0.7,2.3-1c6.5-2.7,13-5.6,19.6-8.7c0.6-0.3,1.1-0.5,1.7-0.8c0.6-0.3,1.2-0.6,1.8-0.9c6.9-3.3,13.6-6.7,20.2-10.1
							c0.8-0.4,1.7-0.8,2.5-1.3c0.4-0.2,0.8-0.5,1.3-0.7c7.6-4.1,14.8-8.2,21.7-12.4c0.6-0.4,1.3-0.7,2-1.1c1-0.6,1.9-1.2,2.9-1.9
							c2.5-1.5,4.9-3,7.2-4.6c1.9-1.3,3.9-2.5,5.8-3.8c2.3-1.5,4.5-3.1,6.7-4.6c1.1-0.8,2.4-1.6,3.5-2.4c0.5-0.4,0.9-0.7,1.4-1.1
							c4.8-3.5,9.3-6.9,13.6-10.3c0.6-0.5,1.1-1,1.7-1.4c3.7-3,7-6,10.2-8.9c1-0.9,1.9-1.8,2.8-2.6c3.5-3.3,6.7-6.6,9.5-9.8
							c0.1-0.1,0.2-0.2,0.2-0.3c2.7-3.1,4.9-6.1,7-9c0.3-0.4,0.7-0.8,0.9-1.2c0.4-0.6,0.6-1.1,0.9-1.6c0.8-1.3,1.5-2.5,2.2-3.8
							c0.3-0.6,0.7-1.1,1-1.7c0.3-0.7,0.5-1.3,0.8-1.9c0.2-0.6,0.5-1.1,0.7-1.7c0.1-0.4,0.3-0.7,0.4-1.1c0.4-1.3,0.7-2.5,1-3.7
							c0-0.1,0-0.3,0.1-0.4c0-0.2,0-0.4,0.1-0.6c0.1-0.7,0.2-1.4,0.3-2.1c0.1-0.9,0-1.8,0-2.7c0-0.1,0-0.1,0-0.2c0-0.1,0-0.2,0-0.3
							c-0.1-0.7-0.2-1.4-0.3-2c-0.2-0.8-0.5-1.6-0.8-2.4c0-0.1-0.1-0.2-0.1-0.3l0,0l0,0l-25.7-54.9
							C1549,1510.2,1549.4,1511.8,1549.6,1513.5z"/>
						<g>
							<path class="st15" d="M1376,1535.2c83.7-39.2,160.8-51,172.3-26.4c11.5,24.6-46.8,76.4-130.5,115.6
								c-83.7,39.2-160.9,51.1-172.5,26.4C1233.8,1626.2,1292.3,1574.4,1376,1535.2z"/>
						</g>
					</g>
				</g>
				<path class="st19" d="M1320.6,1571.8c58.3-0.9,116.6-1.9,174.9-2.8c-5.9,3.9-11.8,7.7-17.7,11.6c-57.1,0.6-114.3,1.2-171.4,1.8
					C1311.1,1578.9,1315.8,1575.4,1320.6,1571.8z"/>
			</g>
			<g>
				<g>
					<g class="st18">
						<path class="st19" d="M1327.9,1489.2c0,0.1,0,0.2,0,0.3c0,1.6-0.4,3.3-0.9,5c-0.1,0.2-0.1,0.4-0.2,0.6
							c-0.5,1.6-1.3,3.2-2.1,4.9c-0.3,0.5-0.6,1.1-0.9,1.6c-0.6,1.1-1.4,2.2-2.2,3.3c-0.8,1.1-1.7,2.3-2.7,3.5
							c-0.7,0.8-1.4,1.7-2.2,2.6c-2.4,2.6-5,5.3-8.1,8c-0.1,0.1-0.2,0.2-0.2,0.2c-3.2,2.8-6.9,5.6-10.7,8.5c-1,0.7-2.1,1.5-3.1,2.2
							c-3.5,2.5-7.3,5-11.3,7.5c-0.6,0.4-1.2,0.8-1.9,1.2c-4.6,2.8-9.6,5.6-14.8,8.4c-1.7,0.9-3.5,1.9-5.3,2.8
							c-2.4,1.2-4.8,2.5-7.3,3.7c-2,1-4.1,2-6.2,3c-2.6,1.2-5.2,2.4-7.8,3.6c-1.7,0.8-3.4,1.5-5.2,2.3c-7.4,3.2-15.1,6.4-23.2,9.4
							c-1.3,0.5-2.7,1-4,1.5c-6.9,2.6-14,5-21.3,7.4c-1.2,0.4-2.4,0.8-3.6,1.2c-6.9,2.2-13.8,4.2-20.6,6c-1.9,0.5-3.7,1-5.6,1.5
							c-5.8,1.5-11.4,2.9-17,4.2c-1.2,0.3-2.4,0.6-3.6,0.9c-6.3,1.4-12.5,2.6-18.6,3.7c-1.6,0.3-3.1,0.5-4.7,0.8
							c-4.4,0.7-8.8,1.4-13,2c-1.7,0.2-3.5,0.5-5.2,0.7c-4.4,0.5-8.7,1-12.8,1.3c-1,0.1-2.1,0.2-3,0.3c-5.1,0.4-9.9,0.6-14.5,0.6
							c-1.1,0-2.2,0-3.2,0c-3.9,0-7.6-0.1-11.2-0.4c-1.4-0.1-2.9-0.2-4.3-0.3c-1-0.1-2.1-0.2-3.1-0.3c-2-0.2-4-0.5-5.9-0.9
							c-0.9-0.1-1.8-0.3-2.6-0.5c-2.4-0.5-4.6-1-6.7-1.7c-0.2-0.1-0.4-0.1-0.6-0.2c-2.2-0.7-4.3-1.5-6.1-2.4c-0.6-0.3-1-0.6-1.6-0.8
							c-1.3-0.7-2.4-1.4-3.5-2.1c-0.5-0.4-1-0.7-1.5-1.1c-0.9-0.8-1.8-1.6-2.5-2.5c-0.3-0.4-0.7-0.8-1-1.2c-0.9-1.3-1.7-2.7-2.1-4.2
							l18.3,57.8c0.5,1.5,1.2,2.9,2.1,4.2c0.3,0.4,0.6,0.8,1,1.2c0.7,0.9,1.6,1.7,2.5,2.5c0.5,0.4,0.9,0.8,1.5,1.1
							c1.1,0.8,2.2,1.5,3.5,2.1c0.5,0.3,1,0.6,1.6,0.8c1.9,0.9,3.9,1.7,6.1,2.4c0.2,0.1,0.4,0.1,0.6,0.2c2.1,0.6,4.3,1.2,6.7,1.7
							c0.8,0.2,1.7,0.3,2.6,0.5c1.9,0.3,3.8,0.6,5.9,0.9c1,0.1,2,0.2,3.1,0.3c0.7,0.1,1.4,0.2,2.1,0.2c0.7,0.1,1.5,0,2.2,0.1
							c3.6,0.2,7.3,0.3,11.2,0.4c0.8,0,1.4,0.1,2.2,0.1c0.3,0,0.7,0,1.1,0c4.6-0.1,9.5-0.3,14.5-0.6c0.2,0,0.4,0,0.6,0
							c0.8-0.1,1.7-0.2,2.5-0.2c4.2-0.3,8.4-0.8,12.8-1.3c0.8-0.1,1.5-0.1,2.2-0.2c0.9-0.1,2-0.3,2.9-0.4c4.3-0.6,8.6-1.2,13-2
							c1.1-0.2,2.1-0.3,3.2-0.5c0.5-0.1,1-0.2,1.4-0.3c6.1-1.1,12.3-2.3,18.6-3.7c0.3-0.1,0.6-0.1,0.9-0.2c0.9-0.2,1.8-0.5,2.7-0.7
							c5.6-1.3,11.3-2.7,17-4.2c1-0.3,2.1-0.5,3.1-0.8c0.8-0.2,1.6-0.5,2.5-0.7c6.8-1.9,13.6-3.8,20.6-6c0.6-0.2,1.2-0.4,1.8-0.6
							c0.6-0.2,1.2-0.4,1.9-0.7c7.3-2.4,14.4-4.8,21.3-7.4c0.9-0.3,1.8-0.6,2.7-0.9c0.5-0.2,0.9-0.4,1.3-0.5c8-3,15.7-6.2,23.1-9.4
							c0.7-0.3,1.4-0.6,2.1-0.8c1.1-0.5,2.1-1,3.1-1.4c2.6-1.2,5.2-2.4,7.8-3.6c2.1-1,4.2-2,6.2-3c2.5-1.2,4.9-2.5,7.3-3.7
							c1.2-0.6,2.6-1.3,3.8-1.9c0.5-0.3,1-0.6,1.5-0.9c5.2-2.8,10.2-5.6,14.8-8.4c0.7-0.4,1.2-0.8,1.9-1.2c4-2.5,7.8-5,11.3-7.5
							c1.1-0.7,2.1-1.5,3.1-2.2c3.9-2.8,7.5-5.7,10.7-8.5c0.1-0.1,0.2-0.2,0.3-0.3c3.1-2.7,5.7-5.4,8.1-8c0.3-0.3,0.8-0.7,1.1-1.1
							c0.4-0.5,0.7-1,1.2-1.5c1-1.2,1.8-2.3,2.7-3.5c0.4-0.5,0.9-1,1.2-1.5c0.4-0.6,0.7-1.2,1-1.8c0.3-0.5,0.6-1.1,0.9-1.6
							c0.2-0.3,0.4-0.7,0.6-1c0.6-1.2,1.1-2.4,1.5-3.5c0-0.1,0.1-0.3,0.1-0.4c0.1-0.2,0.1-0.4,0.2-0.6c0.2-0.7,0.4-1.4,0.6-2.1
							c0.2-0.9,0.3-1.8,0.3-2.7c0-0.1,0-0.1,0-0.2c0-0.1,0-0.2,0-0.3c0-0.7,0-1.4-0.1-2.1c-0.1-0.8-0.3-1.7-0.5-2.5
							c0-0.1-0.1-0.2-0.1-0.3l0,0v0l-18.3-57.8C1327.8,1485.9,1328,1487.5,1327.9,1489.2z"/>
						<g>
							<path class="st15" d="M1153,1487.9c88.1-27.9,166.1-29.4,174.3-3.5c8.2,25.9-56.5,69.6-144.6,97.4
								c-88.1,27.9-166.2,29.4-174.4,3.5C1000.1,1559.4,1064.9,1515.7,1153,1487.9z"/>
						</g>
					</g>
				</g>
				<path class="st19" d="M1093.2,1516.9c57.9,6.7,115.8,13.5,173.7,20.2c-6.3,3.1-12.7,6.1-19,9.2c-56.7-6.9-113.4-13.8-170.1-20.8
					C1082.9,1522.7,1088,1519.8,1093.2,1516.9z"/>
			</g>
			<g>
				<g>
					<g class="st18">
						<path class="st19" d="M1569.2,1419c0,0.1-0.1,0.2-0.1,0.3c-0.8,1.4-1.8,2.7-3,4c-0.1,0.1-0.3,0.3-0.4,0.4
							c-1.2,1.2-2.6,2.3-4.2,3.4c-0.5,0.3-1,0.7-1.5,1c-1.1,0.7-2.3,1.3-3.5,1.9c-1.2,0.6-2.6,1.3-4,1.9c-1,0.4-2.1,0.8-3.2,1.2
							c-3.3,1.2-6.9,2.4-10.9,3.4c-0.1,0-0.2,0.1-0.3,0.1c-4.1,1-8.7,1.8-13.4,2.6c-1.2,0.2-2.5,0.4-3.8,0.5
							c-4.3,0.6-8.8,1.1-13.5,1.4c-0.8,0.1-1.5,0.1-2.2,0.2c-5.4,0.4-11.1,0.6-17,0.7c-2,0-4,0-6,0c-2.7,0-5.4,0-8.2-0.1
							c-2.3,0-4.6-0.1-6.9-0.2c-2.8-0.1-5.7-0.2-8.6-0.4c-1.9-0.1-3.7-0.2-5.6-0.4c-8.1-0.5-16.4-1.3-24.9-2.3
							c-1.4-0.2-2.8-0.4-4.2-0.5c-7.3-0.9-14.8-2-22.3-3.2c-1.3-0.2-2.5-0.4-3.8-0.6c-7.2-1.2-14.1-2.6-21-4.1
							c-1.9-0.4-3.8-0.8-5.6-1.2c-5.8-1.3-11.5-2.7-17-4.1c-1.2-0.3-2.4-0.6-3.6-0.9c-6.3-1.7-12.3-3.4-18.2-5.2
							c-1.5-0.5-3-1-4.5-1.5c-4.3-1.4-8.4-2.8-12.5-4.2c-1.6-0.6-3.3-1.2-4.9-1.8c-4.1-1.6-8.1-3.1-12-4.7c-0.9-0.4-1.9-0.8-2.8-1.2
							c-4.7-2-9-4.1-13.2-6.1c-1-0.5-1.9-1-2.9-1.5c-3.5-1.8-6.7-3.6-9.8-5.5c-1.2-0.7-2.5-1.5-3.7-2.2c-0.9-0.6-1.7-1.1-2.6-1.7
							c-1.7-1.1-3.3-2.3-4.8-3.5c-0.7-0.5-1.4-1.1-2.1-1.6c-1.9-1.5-3.6-3-5.2-4.5c-0.1-0.1-0.3-0.3-0.5-0.4
							c-1.7-1.7-3.1-3.3-4.4-4.9c-0.4-0.5-0.7-1-1-1.5c-0.8-1.2-1.5-2.3-2.1-3.5c-0.3-0.6-0.5-1.1-0.8-1.7c-0.5-1.1-0.8-2.3-1.1-3.4
							c-0.1-0.5-0.3-1-0.3-1.5c-0.2-1.6-0.3-3.1,0-4.7l-10.3,59.7c-0.3,1.5-0.2,3.1,0,4.7c0.1,0.5,0.2,1,0.3,1.5
							c0.3,1.1,0.6,2.2,1.1,3.4c0.2,0.6,0.5,1.1,0.8,1.7c0.6,1.2,1.3,2.3,2.1,3.5c0.3,0.5,0.6,1,1,1.5c1.3,1.6,2.7,3.3,4.4,4.9
							c0.1,0.1,0.3,0.3,0.5,0.4c1.6,1.5,3.3,3,5.2,4.5c0.7,0.5,1.4,1.1,2.1,1.6c1.5,1.2,3.1,2.3,4.8,3.5c0.8,0.6,1.7,1.1,2.6,1.7
							c0.6,0.4,1.1,0.8,1.8,1.2c0.6,0.4,1.3,0.7,1.9,1.1c3.1,1.8,6.3,3.7,9.8,5.5c0.7,0.3,1.2,0.7,1.9,1.1c0.3,0.2,0.7,0.3,1,0.5
							c4.2,2.1,8.5,4.1,13.2,6.1c0.2,0.1,0.3,0.2,0.5,0.2c0.7,0.3,1.6,0.6,2.3,0.9c3.8,1.6,7.8,3.2,12,4.7c0.7,0.3,1.4,0.6,2.1,0.8
							c0.9,0.3,1.9,0.6,2.8,1c4,1.4,8.2,2.9,12.5,4.2c1.1,0.3,2,0.7,3.1,1c0.4,0.1,0.9,0.3,1.4,0.4c5.9,1.8,12,3.6,18.2,5.2
							c0.3,0.1,0.6,0.2,0.9,0.3c0.9,0.2,1.8,0.4,2.7,0.6c5.6,1.4,11.2,2.8,17,4.1c1.1,0.2,2,0.5,3.1,0.7c0.8,0.2,1.7,0.3,2.5,0.5
							c6.9,1.5,13.9,2.9,21,4.1c0.6,0.1,1.2,0.2,1.8,0.3c0.7,0.1,1.3,0.2,2,0.3c7.6,1.3,15,2.3,22.3,3.2c0.9,0.1,1.9,0.3,2.8,0.4
							c0.5,0.1,1,0.1,1.4,0.1c8.5,1,16.8,1.7,24.9,2.3c0.7,0,1.5,0.2,2.2,0.2c1.2,0.1,2.3,0.1,3.5,0.2c2.9,0.2,5.7,0.3,8.5,0.4
							c2.3,0.1,4.6,0.2,6.9,0.2c2.8,0.1,5.5,0.1,8.2,0.1c1.4,0,2.9,0.1,4.2,0c0.6,0,1.1-0.1,1.7-0.1c5.9-0.1,11.6-0.3,17-0.7
							c0.8-0.1,1.5-0.1,2.2-0.2c4.7-0.4,9.2-0.9,13.5-1.4c1.3-0.2,2.6-0.4,3.8-0.5c4.7-0.7,9.3-1.6,13.4-2.6c0.1,0,0.2-0.1,0.4-0.1
							c4-1,7.5-2.1,10.8-3.4c0.4-0.2,1-0.3,1.4-0.5c0.6-0.2,1.1-0.5,1.7-0.8c1.4-0.6,2.7-1.2,4-1.9c0.6-0.3,1.2-0.5,1.8-0.8
							c0.6-0.4,1.1-0.7,1.7-1.1c0.5-0.3,1.1-0.7,1.6-1c0.3-0.2,0.7-0.4,1-0.6c1.1-0.8,2-1.6,2.9-2.4c0.1-0.1,0.2-0.2,0.3-0.3
							c0.1-0.1,0.3-0.3,0.4-0.5c0.5-0.5,1-1,1.4-1.6c0.6-0.7,1.1-1.5,1.5-2.2c0-0.1,0.1-0.1,0.1-0.2c0-0.1,0.1-0.2,0.1-0.3
							c0.3-0.6,0.6-1.2,0.9-1.9c0.3-0.8,0.5-1.6,0.7-2.4c0-0.1,0-0.2,0.1-0.3l0,0v0l10.3-59.7C1570.5,1416,1570,1417.5,1569.2,1419z
							"/>
						<g>
							<path class="st15" d="M1414.4,1337.3c91,15.8,161,50.3,156.4,77.1c-4.6,26.8-82.2,35.8-173.2,20
								c-91-15.8-161.1-50.3-156.5-77.2C1245.7,1330.5,1323.4,1321.5,1414.4,1337.3z"/>
						</g>
					</g>
				</g>
				<path class="st19" d="M1348,1335.6c48.3,32.6,96.6,65.3,145,97.9c-7-0.2-14.1-0.4-21.1-0.6c-47.2-32.2-94.4-64.5-141.5-96.7
					C1336.2,1336,1342.1,1335.8,1348,1335.6z"/>
			</g>
			<g>
				<g>
					<g class="st18">
						<path class="st19" d="M754.2,1446.2c-0.1,0.1-0.2,0.1-0.2,0.2c-1.3,0.9-2.9,1.6-4.6,2.1c-0.2,0.1-0.4,0.1-0.6,0.2
							c-1.6,0.5-3.4,0.8-5.3,1c-0.6,0.1-1.2,0.1-1.8,0.2c-1.3,0.1-2.6,0.1-4,0.1c-1.4,0-2.9-0.1-4.4-0.2c-1.1-0.1-2.2-0.2-3.4-0.4
							c-3.5-0.5-7.2-1.1-11.2-2.1c-0.1,0-0.2,0-0.3-0.1c-4.1-1-8.5-2.4-13.1-4c-1.2-0.4-2.4-0.9-3.6-1.3c-4.1-1.5-8.3-3.2-12.6-5
							c-0.7-0.3-1.4-0.6-2.1-0.9c-5-2.2-10.1-4.7-15.4-7.4c-1.7-0.9-3.5-1.8-5.3-2.8c-2.4-1.3-4.8-2.5-7.2-3.9c-2-1.1-4-2.2-6-3.4
							c-2.5-1.4-4.9-2.9-7.4-4.4c-1.6-1-3.2-2-4.8-3c-6.9-4.3-13.9-8.8-20.9-13.7c-1.2-0.8-2.3-1.6-3.5-2.5
							c-6-4.2-12.1-8.7-18.2-13.3c-1-0.8-2-1.5-3.1-2.3c-5.8-4.5-11.3-9-16.7-13.5c-1.5-1.2-2.9-2.5-4.4-3.7
							c-4.5-3.9-8.9-7.7-13.1-11.6c-0.9-0.8-1.9-1.7-2.8-2.5c-4.8-4.4-9.3-8.8-13.6-13.2c-1.1-1.1-2.2-2.3-3.3-3.4
							c-3.1-3.2-6.2-6.4-9-9.6c-1.2-1.3-2.4-2.6-3.5-3.9c-2.9-3.3-5.7-6.6-8.4-9.8c-0.6-0.8-1.3-1.6-2-2.3c-3.2-4-6.1-7.8-8.8-11.6
							c-0.6-0.9-1.2-1.8-1.8-2.7c-2.2-3.2-4.2-6.4-6.1-9.4c-0.7-1.2-1.5-2.5-2.2-3.7c-0.5-0.9-1-1.8-1.5-2.7c-1-1.8-1.8-3.6-2.6-5.3
							c-0.4-0.8-0.8-1.6-1.1-2.4c-1-2.2-1.8-4.4-2.5-6.4c-0.1-0.2-0.2-0.4-0.2-0.6c-0.7-2.2-1.2-4.4-1.5-6.4
							c-0.1-0.6-0.1-1.2-0.2-1.7c-0.2-1.4-0.3-2.8-0.2-4.1c0-0.6,0-1.2,0.1-1.8c0.1-1.2,0.3-2.4,0.6-3.5c0.1-0.5,0.2-1,0.4-1.5
							c0.6-1.5,1.2-2.9,2.2-4.1l-37.1,47.9c-1,1.2-1.6,2.6-2.2,4.1c-0.2,0.5-0.3,1-0.4,1.5c-0.3,1.1-0.5,2.3-0.6,3.5
							c-0.1,0.6-0.1,1.2-0.1,1.8c0,1.3,0.1,2.7,0.2,4.1c0.1,0.6,0.1,1.1,0.2,1.7c0.3,2,0.8,4.2,1.5,6.4c0.1,0.2,0.2,0.4,0.2,0.6
							c0.7,2.1,1.5,4.2,2.5,6.4c0.3,0.8,0.7,1.6,1.1,2.4c0.8,1.7,1.7,3.5,2.6,5.3c0.5,0.9,1,1.8,1.5,2.7c0.4,0.6,0.6,1.2,1,1.9
							c0.3,0.6,0.8,1.3,1.2,1.9c1.8,3.1,3.9,6.2,6.1,9.4c0.4,0.6,0.7,1.2,1.2,1.8c0.2,0.3,0.5,0.6,0.7,0.9c2.7,3.8,5.6,7.6,8.8,11.6
							c0.1,0.2,0.2,0.3,0.3,0.5c0.5,0.6,1.1,1.3,1.6,1.9c2.6,3.2,5.4,6.5,8.4,9.8c0.5,0.6,0.9,1.1,1.5,1.7c0.6,0.7,1.4,1.4,2,2.2
							c2.9,3.2,5.9,6.4,9,9.6c0.8,0.8,1.4,1.6,2.2,2.4c0.3,0.3,0.7,0.7,1,1c4.3,4.4,8.9,8.8,13.6,13.2c0.2,0.2,0.4,0.4,0.7,0.7
							c0.7,0.6,1.4,1.2,2.1,1.8c4.2,3.9,8.6,7.7,13.1,11.6c0.8,0.7,1.6,1.4,2.4,2.1c0.6,0.5,1.3,1.1,2,1.6c5.4,4.5,10.9,9,16.7,13.5
							c0.5,0.4,1,0.7,1.5,1.1c0.5,0.4,1.1,0.8,1.6,1.2c6.1,4.7,12.2,9.1,18.2,13.3c0.8,0.5,1.5,1.1,2.3,1.7c0.4,0.3,0.8,0.5,1.2,0.8
							c7.1,4.9,14,9.4,20.9,13.7c0.6,0.4,1.3,0.9,1.9,1.2c1,0.6,2,1.2,3,1.8c2.5,1.5,4.9,2.9,7.4,4.3c2,1.2,4,2.3,6,3.4
							c2.4,1.3,4.8,2.6,7.2,3.9c1.2,0.7,2.5,1.4,3.7,2c0.5,0.3,1,0.5,1.6,0.8c5.3,2.7,10.4,5.2,15.4,7.4c0.7,0.3,1.4,0.6,2.1,0.9
							c4.3,1.9,8.5,3.5,12.6,5c1.2,0.4,2.4,0.9,3.6,1.3c4.5,1.6,9,3,13.1,4c0.1,0,0.2,0,0.4,0.1c4,1,7.7,1.6,11.2,2.1
							c0.5,0.1,1,0.2,1.5,0.3c0.7,0.1,1.2,0,1.9,0.1c1.5,0.1,3,0.2,4.4,0.2c0.6,0,1.3,0.1,1.9,0.1c0.7,0,1.4-0.1,2-0.2
							c0.6,0,1.2-0.1,1.8-0.2c0.4,0,0.8,0,1.2-0.1c1.3-0.2,2.5-0.5,3.7-0.8c0.1,0,0.2-0.1,0.4-0.1c0.2-0.1,0.4-0.1,0.6-0.2
							c0.7-0.2,1.4-0.4,2-0.7c0.8-0.4,1.6-0.8,2.4-1.3c0.1,0,0.1-0.1,0.2-0.1c0.1-0.1,0.2-0.1,0.2-0.2c0.6-0.4,1.2-0.8,1.7-1.2
							c0.6-0.6,1.2-1.2,1.7-1.8c0.1-0.1,0.1-0.2,0.2-0.3l0,0l0,0l37.1-47.9C756.8,1444.2,755.6,1445.3,754.2,1446.2z"/>
						<g>
							<path class="st15" d="M655.7,1301.6c73.1,56.6,118.7,119.9,102.1,141.3c-16.7,21.5-89.4-6.8-162.4-63.4
								c-73.1-56.6-118.8-119.9-102.2-141.4C509.9,1216.6,582.7,1245,655.7,1301.6z"/>
						</g>
					</g>
				</g>
				<path class="st19" d="M597.8,1268.9c27.4,51.5,54.8,102.9,82.3,154.4c-6.1-3.5-12.2-7-18.4-10.4
					c-26.6-50.6-53.2-101.1-79.8-151.7C587.2,1263.8,592.5,1266.4,597.8,1268.9z"/>
			</g>
		</g>
		<path class="st20" d="M1422.3,720.1h-20.7c95.6,0,173,61.3,173,137.1V1663c0,74.1-57.6,140.3-144.7,167.3
			c-44.4,13.7-91.8,27-130,35.2c-74.7,15.8-159.6,28.6-253.7,34c-93.1-5.5-177.5-18-251.6-33.6c-38.4-8.1-86.1-21.7-131.1-35.5
			c-87.3-26.9-144.9-93.3-144.9-167.5V857.2c0-75.7,77.6-137.1,173-137.1h-92c-85.8,0-155.6,61.3-155.6,137.1v805.9
			c0,74.2,51.8,140.6,130.3,167.5c40.5,13.8,83.4,27.4,117.9,35.5c89.1,20.9,194.7,36.3,313.6,36.7c22.7,0.2,44.8-0.3,66.5-1.4
			c96.6-4.1,183.3-18,258.5-35.7c34.4-8.1,76.9-21.5,116.9-35.2c78.3-27,130.1-93.3,130.1-167.4V857.2
			C1577.9,781.5,1508.3,720.1,1422.3,720.1z"/>
		<path class="st20" d="M589.2,1723.1l-10.5-3.7c-26.3-9.3-26.3-26.3-26.3-41.8V879.2c0-15.5,8.1-22,26.3-18.7l10.5,2.1
			c22.3,7.8,22.3,21.2,22.3,36.6v798.4C611.5,1717.5,604.5,1727,589.2,1723.1z"/>
		<path class="st21" d="M1409.3,735c-342.2,30.2-449.3,29.3-791.5-0.9c-10.9-1-19.3-15.2-19.3-25.8c0-81,0-83.5,0-164.4h830.1v164.4
			C1428.6,718.9,1420.3,734,1409.3,735z"/>
		<path class="st22" d="M1507,648.1c-331.2,30.2-660.6,29.3-991.8-0.9c-10.6-1-18.7-15.2-18.7-25.8c0-81,0-83.5,0-164.4h1029.2
			v164.4C1525.6,632,1517.5,647.1,1507,648.1z"/>
		<path class="st21" d="M651,657.9c-45.3-3-90.6-6.6-135.9-10.7c-10.6-1-18.7-15.2-18.7-25.8c0-81,0-83.5,0-164.4h155.9"/>
		<path class="st22" d="M496.5,457"/>
		<path class="st22" d="M496.5,621.4"/>
		<g>
			<line class="st23" x1="1011.1" y1="670.3" x2="1011.1" y2="496.3"/>
			<line class="st23" x1="1062.5" y1="670.3" x2="1062.5" y2="493.9"/>
			<line class="st23" x1="1114" y1="670.3" x2="1114" y2="493.9"/>
			<line class="st23" x1="1165.4" y1="669.4" x2="1165.4" y2="493.9"/>
			<line class="st23" x1="1216.9" y1="666.7" x2="1216.9" y2="491.3"/>
			<line class="st23" x1="1268.4" y1="664.1" x2="1268.4" y2="488.6"/>
			<line class="st23" x1="1319.8" y1="663.2" x2="1319.8" y2="487.7"/>
			<line class="st24" x1="1371.3" y1="657.4" x2="1371.3" y2="481.9"/>
			<line class="st23" x1="1422.7" y1="655.2" x2="1422.7" y2="479.7"/>
			<line class="st23" x1="1474.2" y1="650.9" x2="1474.2" y2="475.5"/>
			<line class="st23" x1="548.1" y1="651.8" x2="548.1" y2="475.5"/>
			<line class="st23" x1="599.6" y1="656" x2="599.6" y2="479.7"/>
			<line class="st23" x1="651.1" y1="657.4" x2="651.1" y2="481.9"/>
			<line class="st23" x1="702.5" y1="663.2" x2="702.5" y2="487.7"/>
			<line class="st23" x1="754" y1="664.1" x2="754" y2="488.6"/>
			<line class="st23" x1="805.4" y1="666.7" x2="805.4" y2="491.3"/>
			<line class="st23" x1="856.9" y1="669.4" x2="856.9" y2="493.9"/>
			<line class="st23" x1="908.4" y1="669.4" x2="908.4" y2="493.9"/>
			<line class="st23" x1="959.8" y1="669.4" x2="959.8" y2="493.9"/>
		</g>
		<path class="st23" d="M1507,648.1c-331.2,30.2-660.6,29.3-991.8-0.9c-10.6-1-18.7-15.2-18.7-25.8c0-81,0-83.5,0-164.4h1029.2
			v164.4C1525.6,632,1517.5,647.1,1507,648.1z"/>
		<ellipse class="st25" cx="1011.1" cy="453.5" rx="518.6" ry="52.3"/>
	</g>
	<g>
		<path class="st15" d="M551,219.3c0-40.6,31-71,72.8-71c41.6,0,72.8,30.2,72.8,71s-31.2,71-72.8,71C582,290.3,551,259.9,551,219.3z
			 M686.2,219.3c0-35.4-26.8-61.6-62.4-61.6c-35.8,0-62.6,26.2-62.6,61.6c0,35.4,26.8,61.6,62.6,61.6
			C659.4,280.9,686.2,254.7,686.2,219.3z"/>
		<path class="st15" d="M832.8,237.1c0,31.4-22.2,53-51.6,53c-18.4,0-34-9-42.4-24.6v62.6h-10V184.9h9.6v24.6
			c8.2-16,24-25.4,42.8-25.4C810.6,184.1,832.8,205.9,832.8,237.1z M822.8,237.1c0-26.2-18.2-44-42.2-44c-24,0-42,17.8-42,44
			s18,44,42,44C804.6,281.1,822.8,263.3,822.8,237.1z"/>
		<path class="st15" d="M860.6,151.5c0-4.4,3.6-8.2,8.2-8.2c4.6,0,8.2,3.6,8.2,8c0,4.6-3.6,8.2-8.2,8.2
			C864.2,159.5,860.6,155.9,860.6,151.5z M863.8,184.9h10v104.4h-10V184.9z"/>
		<path class="st15" d="M904.6,237.1c0-31,22.2-53,52.2-53c30,0,52.2,22,52.2,53s-22.2,53-52.2,53
			C926.8,290.1,904.6,268.1,904.6,237.1z M998.8,237.1c0-26.2-18-44-42-44s-42,17.8-42,44s18,44,42,44S998.8,263.3,998.8,237.1z"/>
		<path class="st15" d="M1025.6,155.3c0-4,3-7.2,7-7.2s7,3.2,7,7.2c0,4-3,7-7,7S1025.6,159.1,1025.6,155.3z M1040,184.9h10v104.4
			h-10V184.9z M1050.4,155.3c0-4,3-7.2,7-7.2s7,3.2,7,7.2c0,4-3,7-7,7S1050.4,159.1,1050.4,155.3z"/>
		<path class="st15" d="M1185,140.9v148.4h-9.8v-24.6c-8.2,16.2-24,25.4-42.8,25.4c-29.4,0-51.6-21.8-51.6-53
			c0-31.4,22.2-53,51.6-53c18.6,0,34.2,9.2,42.6,25v-68.2H1185z M1175,237.1c0-26.2-18-44-42-44s-42,17.8-42,44s18,44,42,44
			S1175,263.3,1175,237.1z"/>
		<path class="st15" d="M1315.4,239.5h-89.8c1,24.8,19.2,41.6,44.2,41.6c13.2,0,25.4-4.8,33.4-14.6l5.8,6.6
			c-9.2,11.2-23.6,17-39.4,17c-31.6,0-53.8-22-53.8-53s21.4-53,50-53s49.8,21.6,49.8,52.6C1315.6,237.5,1315.4,238.5,1315.4,239.5z
			 M1225.8,231.7h80c-1.4-22.6-17.8-38.8-40-38.8C1243.6,192.9,1227.4,208.9,1225.8,231.7z"/>
		<path class="st15" d="M1440,228.3v61h-10v-60.2c0-23.6-12.6-36-33.8-36c-24.6,0-39.6,15.8-39.6,40.6v55.6h-10V184.9h9.6v22.6
			c7-14.6,21.6-23.4,41.4-23.4C1423,184.1,1440,199.1,1440,228.3z"/>
	</g>
</g>
</svg>
