<?xml version="1.0" encoding="utf-8"?>
<!-- Generator: Adobe Illustrator 25.2.3, SVG Export Plug-In . SVG Version: 6.00 Build 0)  -->
<svg version="1.1" xmlns="http://www.w3.org/2000/svg" xmlns:xlink="http://www.w3.org/1999/xlink" x="0px" y="0px"
	 viewBox="0 0 2000 2000" style="enable-background:new 0 0 2000 2000;" xml:space="preserve">
<style type="text/css">
	.st0{fill:#84429D;}
	.st1{fill:#EBDFEF;stroke:#B6B6B6;stroke-width:10;stroke-linecap:round;}
	.st2{fill:#EBDFEF;}
	.st3{fill:#C2A0CE;}
	.st4{fill:#EAA8A3;}
	.st5{fill:#E69690;}
	.st6{fill:#FFE9DD;}
	.st7{fill:#1ECAD3;}
	.st8{fill:#92D3E1;}
	.st9{fill:#5ED9E0;}
	.st10{fill:#0099B8;}
	.st11{fill:#EEB9B5;}
	.st12{fill:#9FE8EC;}
	.st13{fill:#B6E2EB;}
	.st14{fill:#71433F;}
	.st15{fill:#EEB9B5;stroke:#E2857E;stroke-width:5.0542;stroke-miterlimit:10;}
	.st16{fill:#A2E5E7;}
	.st17{fill:#FFFFFF;}
	.st18{fill:#5A485B;}
	.st19{fill:#D6C0DE;}
	.st20{fill:#AD81BE;}
</style>
<g id="Achtergrond">
	<polygon class="st0" points="2000,2000 0,2000 0,0 1710,0 2000,290 	"/>
	<g>
		<line class="st1" x1="1762.9" y1="66.1" x2="1947.1" y2="66.1"/>
		<line class="st1" x1="1762.9" y1="107.4" x2="1947.1" y2="107.4"/>
		<line class="st1" x1="1762.9" y1="148.6" x2="1947.1" y2="148.6"/>
		<line class="st1" x1="1762.9" y1="189.9" x2="1947.1" y2="189.9"/>
		<polygon class="st2" points="2000,290 1710,290 1710,0 		"/>
	</g>
</g>
<g id="Arm">
	<g>
		<path class="st3" d="M2249.6,1409.8c10.6,152.7,54.1,452.8,43.5,523.8c-4.5,30.2-4.1,57.8-2.2,79.5l-641.1-9
			c-0.6-29.6-2.4-70.6-7-123.5c-10.6-124.1,12.7-282.1,12.7-282.1l139.4-157.5c0,0,46.1-41.9,46.1-72.6s-28.6-119.8-62.6-160.1
			c-33.9-40.3-142.1-44.5-198.3-40.3c-56.2,4.2-115,50.4-115,50.4s10.6-71,37.1-140c26.5-68.9,145.3-249.2,240.7-335.1
			c51.2-46.1,115-87.2,137.2-101.1c4.6-2.9,10.7-2,14.3,2.1l108.3,123.8c8.6,9.8,18.6,18.4,29.6,25.3c31,19.5,94.8,53.9,131.5,33.6
			c45.9-25.4,63.9-53.5,66.5-57.8c0.2-0.3,0.6-0.5,1-0.4c7.8,2,14.5,3.9,85.9,22"/>
		<path class="st4" d="M1592.4,1122.5c-35.5,12.3-111.8,61-128.3,94.8c-57.3,117.3-174.2,432.4-188.2,478.8
			c-17,56.2-22.3,170.7,0,198.3c22.3,27.6,57.3,33.9,181.3,23.3c100.8-8.6,314.3-112.4,424.4-196c45.6-34.6,101.6-52.6,158.9-51.7
			c122.7,2-20.2-320.7-43.5-275.1S1840,1505.2,1840,1505.2l-97,33.4l144.2-219.5c12-17.2,19.6-38.1,7.9-55.4
			C1853,1201.9,1742.8,1070.5,1592.4,1122.5z"/>
		<path class="st5" d="M1555.3,1578.9l176.2-40.9l108-32.2l-121.5,42.1c0,0-212.5,78.8-216.7,94.7
			C1501.2,1626.6,1555.3,1578.9,1555.3,1578.9z"/>
		<path class="st5" d="M1494.1,1189.5c0,0-23.9,22.3-29.8,27.7c-0.2,0.2-0.6-0.1-0.5-0.4c2.4-4.6,10.4-18.9,22.5-34.5
			c12-15.5,65.7-66.8,113.5-74.2c47.7-7.4,89.4-4.2,115.6,4.2c29.7,9.5,44.5,12.7,124.1,80.6c62.9,53.7,61.5,101.4,58.1,119
			c-0.5,2.7-4.1,3.3-5.4,0.9c-17.8-31.5-100.3-171.4-174.6-189c-18.3-4.4-37.3-5.6-55.7-4.8
			C1599.4,1121.5,1539.9,1146.9,1494.1,1189.5z"/>
		<g>
			<polygon class="st6" points="1558.1,1487.7 1352.6,1230.6 1444.3,1147.3 1649.8,1404.4 			"/>
			<polygon class="st6" points="1679.3,1236.7 1385.1,1484.5 1323.2,1398.4 1617.4,1150.6 			"/>
		</g>
	</g>
	<path class="st4" d="M2270,713.2c-0.7,0.9-1.7,1.6-2.8,1.9c-4.4,1.3-16.7,5.4-26.5,14.1c-3.4,3-6.5,6.6-8.9,10.9
		c-5.5,9.7-2.5,24.9-0.8,39.8c0.3,2.6,0.6,5.3,0.8,7.9c3.2,46.7,64.5,113.3,29.7,164.4c-97.6,143.1-382.2-303.5-382.2-303.5
		c-2.7-4-3.8-4,3.6-8.3c19.6-11.2,117.5-91.5,114.1-205.3c-0.1-3.1,30.3,42.3,27.2,42.5"/>
</g>
<g id="Dametje_met_spuit">
	<g>
		<g>
			<g>
				<g>
					<g>
						<g>
							<g>
								<path class="st7" d="M814.8,667.5c0,46.8-4.1,75-9.9,101.4L775.1,887c-28.9,8.9-41,8.6-72.5-7
									c-3.3-24.8,6.2-201.3,6.2-209.7c0-4.1,18.3,1.7,18.4-2.4c0.8-30,1.6-60.8,8.7-89c23.5-19.1,31.2,1.7,49.5-6.1
									c16.5,24.4,19.3,39.3,25.8,67.9"/>
							</g>
						</g>
					</g>
				</g>
			</g>
		</g>
	</g>
	<g>
		<g>
			<g>
				<g>
					<g>
						<g>
							<g>
								<g>
									<g>
										<path class="st8" d="M733.3,1850.9c0,3.6-1.4,7.1-4.2,9.7c-3.6,3.4-8.8,4.5-13.5,2.8l-107.1-37.9
											c-12.9-4.6-21.6-16.8-21.6-30.6l10.4-51.5l63.3-25.5l0.5,53.6l68.5,70c1.9,1.9,3.1,4.2,3.6,6.7
											C733.2,1849.1,733.3,1850,733.3,1850.9z"/>
									</g>
								</g>
							</g>
						</g>
					</g>
				</g>
			</g>
		</g>
		<g>
			<g>
				<g>
					<g>
						<g>
							<g>
								<g>
									<g>
										<path class="st9" d="M690.7,829.4l60.8,486.6c0.9,13.3,0.4,26.6-1.7,39.8l-79.6,412.6c0,0-145.4,19.4-140.7-30.3
											c0,0,25.8-258.4,88.9-366.4L505.1,831.5L690.7,829.4z"/>
									</g>
								</g>
							</g>
						</g>
					</g>
				</g>
			</g>
		</g>
		<g>
			<g>
				<g>
					<g>
						<g>
							<g>
								<g>
									<g>
										<path class="st8" d="M272.7,1628.2l-3.2,54.4c0,0.8,0.2,1.5,0.7,2.1l65.3,76.4l4.7,5.6c4.9,5.8,4.6,14.2-0.4,19.6
											c-0.5,0.5-1,1-1.5,1.5c-4.3,3.5-10.2,4.3-15.2,2.1l-116-50.1c-9.3-4-16.3-11.6-19.6-20.8c-1.7-4.6-2.4-9.6-2.1-14.7
											l27.7-41.4c0.1-1.3-3.3-13.5-2-13.8l58.1-24C271,1624.7,272.8,1626.2,272.7,1628.2z"/>
									</g>
								</g>
							</g>
						</g>
					</g>
				</g>
			</g>
		</g>
		<g>
			<g>
				<g>
					<g>
						<g>
							<g>
								<g>
									<g>
										<path class="st7" d="M620,842.5c0,0-119.2,507.7-119.3,507.8L322,1719c-0.4,0.6-87.9,13.9-121.3-31.2
											c-0.7-0.9-29.5-31.8-29-32.8l189.6-340.9l60.4-349.7c-1.9-42.8,42.7-106.1,63.5-128.1L620,842.5z"/>
									</g>
								</g>
							</g>
						</g>
					</g>
				</g>
			</g>
		</g>
		<g>
			<g>
				<g>
					<g>
						<g>
							<g>
								<g>
									<g>
										<polygon class="st7" points="564.5,1057.7 690.7,829.4 586.1,867 										"/>
									</g>
								</g>
							</g>
						</g>
					</g>
				</g>
			</g>
		</g>
		<g>
			<g>
				<g>
					<g>
						<g>
							<g>
								<g>
									<g>
										<path class="st10" d="M733.3,1850.9c0,3.6-1.4,7.1-4.2,9.7c-3.6,3.4-8.8,4.5-13.5,2.8l-107.1-37.9
											c-12.9-4.6-21.6-16.8-21.6-30.6l3.5-16.2c24.6,23.8,2.2,21.1,126.9,69.8c4.8,1.9,10.3,1.1,15.8-0.3
											C733.2,1849.1,733.3,1850,733.3,1850.9z"/>
									</g>
								</g>
							</g>
						</g>
					</g>
				</g>
			</g>
		</g>
		<g>
			<g>
				<g>
					<g>
						<g>
							<g>
								<g>
									<g>
										<path class="st10" d="M335,1768.1c0.4-2.5,3.5-3.3,5.1-1.4l0,0c4.9,5.8,4.6,14.2-0.4,19.6c-0.5,0.5-1,1-1.5,1.5
											c-4.3,3.5-10.2,4.3-15.2,2.1l-116-50.1c-9.3-4-16.3-11.6-19.6-20.8c0.8,0.6,1.7,1.2,2.6,1.7c32.2,18.6,90,43.2,126.3,51.1
											c12.2,2.6,6,0.2,18.1-2.8C334.8,1768.9,334.9,1768.6,335,1768.1z"/>
									</g>
								</g>
							</g>
						</g>
					</g>
				</g>
			</g>
		</g>
	</g>
	<g>
		<g>
			<g>
				<g>
					<g>
						<g>
							<g>
								<g>
									<path class="st7" d="M674.6,598.6c7,0.9,14.1,2.2,21.1,3.8c0.9,0.1,1.8,0.2,2.7,0.3c6-1.4,12.1-2.9,18.1-4.4
										c8.7-3.2,17.7-5.8,27-7.8c8-3,16-6,24-8.9c6-2.7,12-5.6,17.8-8.6c-1.2-1.7-2.5-3.5-3.8-5.4c-24-34.8-49.9-93.4-85.5-117.3
										c-2.4-1.6-4.8-3-7.3-4.3c-23-12.1-49-10.4-55.5,19.1c-5.4,24.8,3.1,56.1,11.8,79.2C652.5,564.2,664.3,580.9,674.6,598.6z"
										/>
								</g>
							</g>
						</g>
					</g>
				</g>
			</g>
		</g>
		<g>
			<g>
				<g>
					<g>
						<g>
							<path class="st11" d="M386.1,545.5"/>
						</g>
					</g>
				</g>
			</g>
		</g>
		<g>
			<g>
				<g>
					<g>
						<g>
							<g>
								<g>
									<g>
										<g>
											<g>
												<g>
													<g>
														<g>
															<g>
																<g>
																	<g>
																		<g>
																			<g>
																				<g>
																					<g>
																						<g>
																							<g>
																								<g>
																									<g>
																										<g>
																											<g>
																												<path class="st11" d="M501.7,480c11.1,18.4,26.3,34.4,42.4,48.7c12.1,10.9,25.1,21.2,40.4,26.2
																													c15.3,5.1,33.4,4,45.9-6.3c10.1-8.4,15.1-21.7,15.7-34.9c0.6-13.1-2.8-26.1-7.3-38.5
																													c-4.7-12.9-10.7-25.5-17.8-37.3l-17.9,6.2L524.7,472L501.7,480z"/>
																											</g>
																										</g>
																									</g>
																								</g>
																							</g>
																						</g>
																					</g>
																				</g>
																			</g>
																		</g>
																	</g>
																</g>
															</g>
														</g>
													</g>
												</g>
											</g>
										</g>
									</g>
								</g>
							</g>
						</g>
					</g>
				</g>
			</g>
			<g>
				<g>
					<g>
						<g>
							<g>
								<g>
									<g>
										<g>
											<g>
												<g>
													<g>
														<g>
															<g>
																<g>
																	<g>
																		<g>
																			<g>
																				<g>
																					<g>
																						<g>
																							<g>
																								<g>
																									<g>
																										<g>
																											<g>
																												<path class="st12" d="M428.4,551.2l15.7,59.5L479.6,851c3.3,12.3,11.1,22.3,21.7,27.6
																													c28.5,14.3,97.2,21.3,179-13.7c12.7-5.4,24.2-76.8,27-91.4l25.6-134l0.5-2.7
																													c3.9-20.8,0.9-42.4-8.6-60.9L694.9,518v-31c-1.9-35,2.9-47.4-39-47.4l-37.5,6.4l-16.9-1.8L523,472
																													l-23,8l-44.7,15.7C434.1,503.1,422.2,527.7,428.4,551.2z"/>
																											</g>
																										</g>
																									</g>
																								</g>
																							</g>
																						</g>
																					</g>
																				</g>
																			</g>
																		</g>
																	</g>
																</g>
															</g>
														</g>
													</g>
												</g>
											</g>
										</g>
									</g>
								</g>
							</g>
						</g>
					</g>
				</g>
			</g>
			<g>
				<g>
					<g>
						<g>
							<g>
								<g>
									<g>
										<g>
											<g>
												<g>
													<g>
														<g>
															<g>
																<g>
																	<g>
																		<g>
																			<g>
																				<g>
																					<g>
																						<g>
																							<g>
																								<g>
																									<g>
																										<g>
																											<g>
																												<path class="st12" d="M449.1,566.7l15.7,59.5c7.9,9.9,15.7,19.7,23.7,29.6c16.7,20.8,34,42.2,57.2,53.2
																													c38.5,18.2,112.9,25.1,152,8.3c24.2-10.3,10.4-31.8,34-43.5c3.9-1.9,7.2-14.9,7.5-19.4
																													c0.6-11.2,0.3-9.5,0.6-11.2v-18.3c-7.9-57.3-3.1-36.8-8.1-54.2l-5.3-32.7l-10.9-34.5
																													c0-0.6-0.2-1.2-0.5-1.7c-15.2-22.6-9.1-44.4-49.5-52.4l-26.5,12.1l-16.9-1.8l-92.8,29.5l-8.7,6.2
																													l-44.7,15.7C454.8,518.6,443,543.2,449.1,566.7z"/>
																											</g>
																										</g>
																									</g>
																								</g>
																							</g>
																						</g>
																					</g>
																				</g>
																			</g>
																		</g>
																	</g>
																</g>
															</g>
														</g>
													</g>
												</g>
											</g>
										</g>
									</g>
								</g>
							</g>
						</g>
					</g>
				</g>
			</g>
		</g>
		<g>
			<g>
				<g>
					<g>
						<g>
							<path class="st11" d="M619.9,379.9c-0.2-7.2-6.1-12.9-13.2-12.9h-52.6c-6,0-11.2,4-12.8,9.7c0,0-9.7,89.1-9.7,96.1
								c0,26.4,27.3,30,60.6,30c33.2,0,38.1-11.5,38.1-37.9L619.9,379.9z"/>
						</g>
					</g>
				</g>
			</g>
		</g>
		<g>
			<g>
				<g>
					<g>
						<g>
							<g>
								<g>
									<path class="st13" d="M327.3,599.5c11.1,29.9,38,53.2,67.6,68.1c19.1-14.8,45-39.9,50.8-45.8c2.8-2.9,5.6-5.8,8.3-8.7
										c20.2-21.8,41.1-44.3,56.4-70c-10.4-18.3-18.3-38.1-23.8-58.5c-26.7,3.7-53.8,17.7-77.5,32.4"/>
								</g>
							</g>
						</g>
					</g>
				</g>
			</g>
		</g>
		<g>
			<g>
				<g>
					<g>
						<g>
							<g>
								<g>
									<g>
										<g>
											<path class="st10" d="M559.5,284.3c21.2,46,91.9,89.8,140.9,55.6c-14.7-16.5-15.4-40.6-19.1-62.4
												c-4.7-28.1-43-83.3-80.7-61.8c0,0-57.7,32.9-57.7,32.9S559.5,284.2,559.5,284.3z"/>
										</g>
									</g>
								</g>
							</g>
						</g>
					</g>
				</g>
			</g>
			<g>
				<g>
					<g>
						<g>
							<g>
								<g>
									<g>
										<g>
											<path class="st10" d="M499.2,248.4c7.6-5.5,19.6-5.4,24.5,2.7c-1.4-17.7,9.6-35,24.9-43c34.5-18.2,84.3-8,104.5,28.4
												c27.1,48.9,12.8,60.5-24.6,86.9c-29.3,20.7-58.6,52.1-96.7,51.6c-45.6-0.6-54.3-60.2-46.7-98.2c2-10,5.1-20.5,12.6-27.2
												C498.2,249.1,498.7,248.7,499.2,248.4z"/>
										</g>
									</g>
								</g>
							</g>
						</g>
					</g>
				</g>
			</g>
			<g>
				<g>
					<g>
						<g>
							<g>
								<g>
									<g>
										<g>
											
												<ellipse transform="matrix(0.5995 -0.8004 0.8004 0.5995 -81.3282 570.6533)" class="st11" cx="529.5" cy="366.6" rx="21.9" ry="29.4"/>
										</g>
									</g>
								</g>
							</g>
						</g>
					</g>
				</g>
			</g>
			<g>
				<g>
					<g>
						<g>
							<g>
								<g>
									<g>
										<g>
											<path class="st11" d="M567,306.3c33.7,2.5,69-7,93.5-29.3c16.7,112,7.5,136.2-25.7,154.7c-32.7,18.1-96.5-44.5-96.5-44.5
												l2.8-23.7C562.9,355.8,568.1,331.5,567,306.3z"/>
										</g>
									</g>
								</g>
							</g>
						</g>
					</g>
				</g>
			</g>
		</g>
		<g>
			<g>
				<g>
					<g>
						<g>
							<path class="st7" d="M543.3,243.6c8.8-23.3,15.7-48.3,11.5-72.8c-4.2-24.5-22-48.2-46.6-52.1c-23.1-3.7-46.5,11.3-57.7,31.9
								c-11.2,20.5-12.1,45.3-8.3,68.4c1.9,11.6,5.6,24,15.1,31c6.5,4.8,14.8,6.4,22.8,7.5c29.5,4.3,59.5,5.1,89.2,2.3L543.3,243.6z
								"/>
						</g>
					</g>
				</g>
			</g>
		</g>
	</g>
	<g id="XMLID_1_">
		<g>
			<g>
				<g>
					<g>
						<g>
							<g>
								<g>
									<path class="st11" d="M376.4,870.2c0,0,34.5-9.5,71.9-0.2c10.8,2.7,19.2,4.7,25.6,6.3c2.7,0.7,1.8,4.8-1.1,4.8l-35.1,0
										l60.4,19.2c6.2,2,7.1,10.2,1.6,14.7l-22.9,18.5c-13,7.8-28.1,10.1-41.6,6.3l-19.9-5.6c-19.2-5.4-36.1-16.1-48.8-30.9l0,0
										c-7.5-8.8-4.8-23.2,5.8-30.4L376.4,870.2z"/>
								</g>
							</g>
						</g>
					</g>
				</g>
			</g>
		</g>
	</g>
	<path class="st13" d="M409.1,517c-37.1,23.1-54.1,36.9-81.8,82.5"/>
	<g id="XMLID_2_">
		<g>
			<g>
				<g>
					<g>
						<g>
							<g>
								<g>
									<path class="st11" d="M721.2,913.1c0,0-35.6,3.6-67.1,25.7c-9.1,6.4-16.2,11.3-21.6,15.1c-2.3,1.6,0.1,5.1,2.7,4.1
										l-19.5-25.3l6.3,46c7.4,7.9,15.5,12.7,22.2,14.9l12.5,4.8c14.9,2.6,23.5,9.2,34.7,0.8l16.6-12.4c16-12,27.9-28,34.3-46.5
										l0,0c3.8-10.9-3.9-23.3-16.4-26.2L721.2,913.1z"/>
								</g>
							</g>
						</g>
					</g>
				</g>
			</g>
		</g>
	</g>
	<g>
		<g>
			<g>
				<g>
					<g>
						<g>
							<g>
								<g>
									<path class="st10" d="M559.5,284.3c21.2,46,91.9,89.8,140.9,55.6c-14.7-16.5-15.4-40.6-19.1-62.4
										c-4.7-28.1-43-83.3-80.7-61.8c0,0-57.7,32.9-57.7,32.9S559.5,284.2,559.5,284.3z"/>
								</g>
							</g>
						</g>
					</g>
				</g>
			</g>
		</g>
	</g>
	<ellipse class="st14" cx="608.2" cy="353.1" rx="6.6" ry="9.2"/>
	<ellipse class="st14" cx="644.1" cy="353.1" rx="6.6" ry="9.2"/>
	<g>
		<g>
			<g>
				<g>
					<g>
						<path class="st4" d="M622.7,375.1c-0.2-7.2-6.1-12.9-13.2-12.9h-52.6c-6,0-11.2,4-12.8,9.7l-5.3,20.3c-1,8.3-2,27.4-2,27.4
							c21.8,10.1,20.1,10.1,49.4,16.2c32.5,6.8,41.5,3.2,41.5-23.3L622.7,375.1z"/>
					</g>
				</g>
			</g>
		</g>
	</g>
	<g>
		<g>
			<g>
				<g>
					<g>
						<g>
							<g>
								<g>
									<path class="st7" d="M499.2,241.5c7.6-5.5,19.6-5.4,24.5,2.7c-1.4-17.7,9.6-35,24.9-43c34.5-18.2,84.3-8,104.5,28.4
										c27.1,48.9,12.8,60.5-24.6,86.9c-29.3,20.7-58.6,52.1-96.7,51.6c-45.6-0.6-54.3-60.2-46.7-98.2c2-10,5.1-20.5,12.6-27.2
										C498.2,242.2,498.7,241.8,499.2,241.5z"/>
								</g>
							</g>
						</g>
					</g>
				</g>
			</g>
		</g>
	</g>
	<g>
		<g>
			<g>
				<g>
					<g>
						<g>
							<g>
								<g>
									
										<ellipse transform="matrix(0.5995 -0.8004 0.8004 0.5995 -81.3282 570.6533)" class="st11" cx="529.5" cy="366.6" rx="21.9" ry="29.4"/>
								</g>
							</g>
						</g>
					</g>
				</g>
			</g>
		</g>
	</g>
	<g>
		<g>
			<g>
				<g>
					<g>
						<g>
							<g>
								<g>
									<path class="st11" d="M567,306.3c33.7,2.5,69-7,93.5-29.3c16.7,112,7.5,136.2-25.7,154.7c-32.7,18.1-96.5-44.5-96.5-44.5
										l2.8-23.7C562.9,355.8,568.1,331.5,567,306.3z"/>
								</g>
							</g>
						</g>
					</g>
				</g>
			</g>
		</g>
	</g>
	<ellipse class="st14" cx="608.2" cy="353.1" rx="6.6" ry="9.2"/>
	<ellipse class="st14" cx="644.1" cy="353.1" rx="6.6" ry="9.2"/>
	<g>
		<g>
			<g>
				<g>
					<g>
						<g>
							<g>
								<g>
									<path class="st7" d="M559.5,277.4c21.2,46,91.9,89.8,140.9,55.6c-14.7-16.5-15.4-40.6-19.1-62.4
										c-4.7-28.1-43-83.3-80.7-61.8c0,0-57.7,32.9-57.7,32.9S559.5,277.3,559.5,277.4z"/>
								</g>
							</g>
						</g>
					</g>
				</g>
			</g>
		</g>
	</g>
	<line class="st15" x1="642.9" y1="407.1" x2="620.2" y2="407.1"/>
</g>
<g id="Spuit">
	<g>
		<g>
			
				<ellipse transform="matrix(0.3895 -0.921 0.921 0.3895 -597.3326 -57.425)" class="st3" cx="-342" cy="421.8" rx="144.3" ry="63"/>
		</g>
		<g>
			<polygon class="st16" points="-265.4,298.1 -295,285.7 -315.8,298.9 			"/>
		</g>
		<g>
			<polygon class="st16" points="-369.6,566.7 -399.6,554.1 -398.6,542.3 -373.2,551.8 			"/>
		</g>
		<g>
			
				<ellipse transform="matrix(0.3895 -0.921 0.921 0.3895 -591.6673 -27.2093)" class="st17" cx="-316.4" cy="432.7" rx="144.3" ry="63"/>
		</g>
	</g>
	<g>
		
			<rect x="-140.6" y="263.2" transform="matrix(-0.401 0.9161 -0.9161 -0.401 405.5603 819.8141)" class="st18" width="150.7" height="558.6"/>
	</g>
	<g>
		<path class="st18" d="M-290.9,361.5c0,0-56.5,51.1-60.4,138.1L-290.9,361.5z"/>
	</g>
	<g>
		
			<ellipse transform="matrix(0.3895 -0.921 0.921 0.3895 -483.3333 592.9898)" class="st17" cx="205.6" cy="661.1" rx="186.8" ry="81.6"/>
	</g>
	<g>
		<polygon class="st17" points="154.8,845.9 128.6,831 142.5,825.3 		"/>
	</g>
	<g>
		<path class="st17" d="M1029.8,1096l-46.9-19.1c3.5-12.4,8.2-25.9,14-39.7c6.2-14.6,13-28.1,19.9-39.6l44.8,23.9
			c-3.4,11.8-7.9,24.4-13.4,37.4C1042.4,1072.4,1036.2,1085,1029.8,1096z"/>
	</g>
	<g>
		<polygon class="st7" points="1213.8,1131.2 1465.2,1241.4 1208.3,1142.3 		"/>
	</g>
	<g>
		
			<rect x="-86.3" y="272.5" transform="matrix(0.3945 -0.9189 0.9189 0.3945 -542.3455 254.9265)" class="st17" width="17.1" height="532.9"/>
	</g>
	<g>
		
			<ellipse transform="matrix(0.3895 -0.921 0.921 0.3895 -481.659 620.964)" class="st3" cx="227.6" cy="673.8" rx="186.8" ry="81.6"/>
	</g>
	<g id="XMLID_3_">
		<g>
			<g>
				<path class="st19" d="M957.2,1129L404.9,866.7l0.1-0.3c14.2,6,43.1-30.4,64.6-81.3c20.3-48,26.7-91.7,15.6-101.6l549.9,261.1
					L957.2,1129z"/>
			</g>
			<g>
				<path class="st17" d="M404.9,866.7l-198.8-94.4L284,588.1l197,93.6c-14.7-2.3-42.1,33.1-62.7,81.8c-21.5,50.9-27.5,97-13.3,103
					L404.9,866.7z"/>
			</g>
			<g>
				<path class="st19" d="M469.6,785.1c-21.5,50.9-50.4,87.3-64.6,81.3c-14.2-6-8.2-52.1,13.3-103c20.6-48.7,48-84.1,62.7-81.8
					l4.2,2C496.4,693.5,489.9,737.2,469.6,785.1z"/>
			</g>
		</g>
		<g>
			<g>
				<path class="st17" d="M481.1,681.3c0.7,0.1,1.4,0.3,2,0.6c0.8,0.4,1.6,0.9,2.3,1.5l-0.4,0.5c-0.7-0.6-1.4-1-2.2-1.4
					c-0.6-0.2-1.2-0.4-1.8-0.5L481.1,681.3z"/>
			</g>
		</g>
	</g>
	<g>
		
			<ellipse transform="matrix(0.3895 -0.921 0.921 0.3895 -476.8725 640.9926)" class="st17" cx="245.1" cy="680.2" rx="100" ry="27.9"/>
	</g>
	<g>
		
			<ellipse transform="matrix(0.3895 -0.921 0.921 0.3895 -346.8175 1550.5259)" class="st20" cx="996.1" cy="1036.9" rx="100" ry="27.9"/>
	</g>
	<g>
		<path class="st18" d="M893.2,984.5c0.1-0.3,0.2-0.5,0.3-0.8c13.7-29.6,30.1-54.9,45-69.6c1.9-1.8,4.9-1.8,6.7,0.1
			c1.8,1.9,1.8,4.9-0.1,6.7c-13.9,13.7-30,38.7-43.1,66.9c-1.1,2.4-3.9,3.4-6.3,2.3C893.7,989.1,892.6,986.7,893.2,984.5z"/>
	</g>
	<g>
		<path class="st18" d="M459.7,776.1c0.1-0.3,0.2-0.5,0.3-0.8c13.7-29.6,30.1-54.9,45-69.6c1.9-1.8,4.9-1.8,6.7,0.1
			c1.8,1.9,1.8,4.9-0.1,6.7c-13.9,13.7-30,38.7-43.1,66.9c-1.1,2.4-3.9,3.4-6.3,2.3C460.2,780.7,459.1,778.3,459.7,776.1z"/>
	</g>
	<g>
		<path class="st18" d="M606.5,844.9c0.1-0.3,0.2-0.5,0.3-0.8c13.7-29.6,30.1-54.9,45-69.6c1.9-1.8,4.9-1.8,6.7,0.1
			c1.8,1.9,1.8,4.9-0.1,6.7c-13.9,13.7-30,38.7-43.1,66.9c-1.1,2.4-3.9,3.4-6.3,2.3C607,849.4,605.9,847.1,606.5,844.9z"/>
	</g>
	<g>
		<path class="st18" d="M750.7,916.6c0.1-0.3,0.2-0.5,0.3-0.8c13.7-29.6,30.1-54.9,45-69.6c1.9-1.8,4.9-1.8,6.7,0.1
			c1.8,1.9,1.8,4.9-0.1,6.7c-13.9,13.7-30,38.7-43.1,66.9c-1.1,2.4-3.9,3.4-6.3,2.3C751.1,921.1,750.1,918.8,750.7,916.6z"/>
	</g>
	<g>
		<path class="st18" d="M842.6,912.7c0.1-0.5,0.3-0.9,0.6-1.4c8.7-13.2,17.5-23.7,25.4-30.6c2-1.7,5-1.5,6.7,0.5
			c1.7,2,1.5,5-0.5,6.7c-7.2,6.3-15.4,16.2-23.7,28.6c-1.4,2.2-4.4,2.8-6.6,1.3C842.9,916.7,842.1,914.6,842.6,912.7z"/>
	</g>
	<g>
		<path class="st18" d="M553.1,772.7c0.1-0.5,0.3-0.9,0.6-1.4c8.7-13.2,17.5-23.7,25.4-30.6c2-1.7,5-1.5,6.7,0.5
			c1.7,2,1.5,5-0.5,6.7c-7.2,6.3-15.4,16.2-23.7,28.6c-1.4,2.2-4.4,2.8-6.6,1.3C553.3,776.8,552.6,774.7,553.1,772.7z"/>
	</g>
	<g>
		<path class="st18" d="M697.9,842.6c0.1-0.5,0.3-0.9,0.6-1.4c8.7-13.2,17.5-23.7,25.4-30.6c2-1.7,5-1.5,6.7,0.5
			c1.7,2,1.5,5-0.5,6.7c-7.2,6.3-15.4,16.2-23.7,28.6c-1.4,2.2-4.4,2.8-6.6,1.3C698.1,846.6,697.4,844.5,697.9,842.6z"/>
	</g>
	<g>
		<path class="st17" d="M1175.1,1155l-145.3-59l-46.9-19.1l33.9-79.3l44.8,23.9l141.1,75.2c12.4,6.6,17.3,21.9,11.2,34.5l-5.4,11.1
			C1202.3,1154.6,1187.8,1160.2,1175.1,1155z"/>
	</g>
	<g>
		<path class="st17" d="M593.4,941.1c0.1-0.2,0.2-0.5,0.3-0.7c1.1-2.4,3.9-3.5,6.3-2.4l257.2,116.5c2.4,1.1,3.5,3.9,2.4,6.3
			c-1.1,2.4-3.9,3.4-6.3,2.4L596.1,946.6C593.9,945.6,592.8,943.3,593.4,941.1z"/>
	</g>
	<g>
		<path class="st17" d="M484.2,890.9c0.1-0.2,0.1-0.4,0.2-0.6c1-2.4,3.8-3.5,6.2-2.5l66.5,28.6c2.4,1,3.5,3.8,2.5,6.2
			c-1,2.4-3.8,3.5-6.2,2.5l-66.5-28.6C484.7,895.5,483.6,893.1,484.2,890.9z"/>
	</g>
	<path class="st11" d="M378.1,549.2c-31.5,38.9-132.5,119.5-132.2,170.2c0.2,36.4,29.2,57.9,49.3,84.1c6.4,8.4,12.8,16.7,19.2,25.1
		c24.4,31.8,48.4,62.3,75.5,91.8c3.8,4.1,6.2,5.1,13.1,7.7c13,5,30.2-8.3,25.9-23.5c-0.3-1-0.6-1.9-1-2.8
		c-5.9-13.8-11.1-27.8-17.5-41.3c-22.3-46.7-49.3-90.6-76.8-133.9c-0.8-1.3-1.6-2.6-2.5-4c46.1-39.6,91-82.4,129.4-129.2
		c10.1-12.4,20.1-25.5,24.2-41c6.5-24.7-10.7-50.2-37.2-52.2C422.4,498.3,392.9,530.9,378.1,549.2"/>
	<g>
		<g>
			<g>
				<g>
					<g>
						<g>
							<g>
								<path class="st7" d="M400,519.8c-36.2,24.4-52.6,38.9-78.6,85.5l-68.5,74.7c12.2,29.5,36.3,54.9,66.4,68.6
									c18.5-15.5,115.7-114,121.3-120.2c2.7-3,10.9-12.4,13.5-15.4c19.4-22.6,33.4-36.9,47.7-63.2c8.2-12.3,29.9-41.3,29.9-62.9
									c0-8.6,0-18,0-18c-8.5,2.1-24.1,9.7-36,12C469,485.6,423.1,504.2,400,519.8"/>
							</g>
						</g>
					</g>
				</g>
			</g>
		</g>
	</g>
	<g>
		<g>
			<g>
				<g>
					<g>
						<g>
							<g>
								<path class="st7" d="M250,769.1c15.2,32.4,24.6,52.7,56.4,77.9l50.9,61.4c22-8.4,53.7-10.4,65.6-35.2
									c-9.9-16.8-85.4-141.4-89.5-146.6c-2-2.5-10.4,9.8-12.4,7.4c-14.9-18-41.1-50.9-59.1-64.8c-12.9,13.9-17.5,17.6-20.3,34.3
									C238.6,740.5,240.3,748.4,250,769.1"/>
							</g>
						</g>
					</g>
				</g>
			</g>
		</g>
	</g>
</g>
<g id="Tekst">
	<g>
		<path class="st17" d="M943.9,150.7l-62.4,140h-10.2l-62.4-140h11.2l56.6,126.8l56.6-126.8H943.9z"/>
		<path class="st17" d="M1098.9,290.6l-0.2-119.8l-58.6,101.2h-5l-58.6-100.8v119.4h-10v-140h8.6l62.6,108.2l62.6-108.2h8.4l0.2,140
			H1098.9z"/>
		<path class="st17" d="M1157.7,150.7h10.2v140h-10.2V150.7z"/>
	</g>
</g>
</svg>
