<svg xmlns="http://www.w3.org/2000/svg" viewBox="0 0 1448.36 250"><defs><style>.cls-1{fill:#0b2a3a;}.cls-2{fill:#ffc600;}</style></defs><g id="Laag_2" data-name="Laag 2"><g id="Layer_1" data-name="Layer 1"><path class="cls-1" d="M59.43,76.59c23.1,0,37.66,11.21,46.2,24.44L85.87,111.74A31.66,31.66,0,0,0,59.43,97.68c-20.26,0-35,15.57-35,36.66S39.17,171,59.43,171c10.21,0,19.25-4.18,24.1-8.54V148.9H53.73V128.48H107v42.69c-11.39,12.72-27.29,21.09-47.54,21.09C26.78,192.26,0,169.5,0,134.34,0,99,26.78,76.59,59.43,76.59Z"/><path class="cls-1" d="M160.19,78.43H184v90.73h47.2v20.92h-71Z"/><path class="cls-1" d="M353.2,170.83H303.32l-7,19.25H270.17L313.36,78.43h29.8l43,111.65H360.23Zm-43.52-20.59h37L328.26,99Z"/><path class="cls-1" d="M435.06,156.27a48.94,48.94,0,0,0,35.49,15.07c13.05,0,19.41-6.2,19.41-12.56,0-8.37-9.71-11.21-22.6-14.23-18.24-4.18-41.68-9.2-41.68-34.15,0-18.58,16.07-33.65,42.35-33.65,17.75,0,32.48,5.36,43.53,15.57l-13.23,17.41a47.63,47.63,0,0,0-32-12.22c-10.71,0-16.4,4.69-16.4,11.38,0,7.54,9.37,9.88,22.26,12.89,18.41,4.19,41.85,9.71,41.85,34.49,0,20.42-14.57,35.82-44.7,35.82-21.42,0-36.82-7.2-47.2-17.74Z"/><path class="cls-1" d="M569.81,156.27a49,49,0,0,0,35.49,15.07c13.05,0,19.41-6.2,19.41-12.56,0-8.37-9.7-11.21-22.59-14.23-18.25-4.18-41.69-9.2-41.69-34.15,0-18.58,16.07-33.65,42.36-33.65,17.74,0,32.47,5.36,43.52,15.57l-13.22,17.41a47.65,47.65,0,0,0-32-12.22c-10.71,0-16.4,4.69-16.4,11.38,0,7.54,9.37,9.88,22.26,12.89,18.41,4.19,41.85,9.71,41.85,34.49,0,20.42-14.56,35.82-44.7,35.82-21.42,0-36.82-7.2-47.2-17.74Z"/><path class="cls-2" d="M930.35,150.07H912.94v40H889.17V78.43H941.4c23.27,0,37.5,15.23,37.5,36,0,19.75-12.39,30.3-24.44,33.15l25.1,42.51H952.28Zm7.53-51.22H912.94v30.8h24.94c9.54,0,16.74-6,16.74-15.4S947.42,98.85,937.88,98.85Z"/><path class="cls-2" d="M1071.69,149.24l-28.12,40.84h-28.29l40.51-57.25-38-54.4h28.29l25.61,38.17L1097,78.43h28.62l-38,54.24,40.52,57.41h-28.46Z"/><path class="cls-2" d="M733.22,78.59H757l11.32,35.7,11.32-35.7h23.91L784.8,130.48l11.32,30,28-82.09h28.15L807.6,190.08H786.06l-17.77-43.72-17.61,43.72H729L684.47,78.43h28l28.15,82.09,11-30Z"/><path class="cls-2" d="M1342.59,23.77a15.29,15.29,0,0,1,14.74,3.95l48,48.14-27.71,103.4-64.77,17.36,14.61,14.61,61-16.26a6.88,6.88,0,0,0,4.78-4.61l33.4-124.63L1369.12,8.18a28,28,0,0,0-27-7.23l-97.06,26a27.92,27.92,0,0,0-19.75,19.75l-2.45,9.14Z"/><path class="cls-2" d="M1440.18,79.24l-6.67-6.67-32.07,119.71a15.28,15.28,0,0,1-10.79,10.78L1325,220.57l-75.7-75.7L1266.7,79.8l-20.38,5.46-16.42,61a6.87,6.87,0,0,0,1.78,6.63l91.26,91.26L1401.65,223a27.92,27.92,0,0,0,19.75-19.75l26-97.07A27.93,27.93,0,0,0,1440.18,79.24Z"/><path class="cls-2" d="M1225.76,158.79a15.27,15.27,0,0,1-4-14.72l17.69-65.65L1342.9,50.71l47.71,47.71L1396,78.35,1351.4,33.64a6.91,6.91,0,0,0-6.64-1.78L1220.37,65.19l-21,78.59a27.93,27.93,0,0,0,7.22,27l71.06,71.06a28,28,0,0,0,27,7.23l9-2.42Z"/></g></g></svg>