<svg xmlns="http://www.w3.org/2000/svg" viewBox="0 0 83.26 87.64"><defs><style>.cls-1,.cls-2{fill:none;stroke-width:2px;}.cls-1{stroke:#e30613;stroke-miterlimit:10;}.cls-2{stroke:#20294e;stroke-linejoin:round;}</style></defs><g id="Laag_2" data-name="Laag 2"><g id="Laag_3" data-name="Laag 3"><circle class="cls-1" cx="38.3" cy="20.25" r="9.33"/><line class="cls-1" x1="45.27" y1="26.45" x2="53.51" y2="34.69"/><path class="cls-2" d="M8.89,22.64c1.4,4.93,4.74,10.63,9.16,15.64A47.08,47.08,0,0,0,29.38,47.8c-4.82-7.26-8.44-18.68-10-32.15a.56.56,0,0,0-.08-.24.47.47,0,0,0-.23-.17c-.4-.2-.8-.38-1.19-.55a14.88,14.88,0,0,0-5.61-1.37,4.29,4.29,0,0,0-2.85.86C8,15.49,7.76,18.65,8.89,22.64M65.21,38.28c4.42-5,7.76-10.71,9.16-15.64,1.13-4,.93-7.15-.55-8.46A4.29,4.29,0,0,0,71,13.32a14.88,14.88,0,0,0-5.61,1.37c-.4.17-.81.36-1.21.56l-.26.12C62.49,27.88,59.3,38.63,55,46c-.37.64-.75,1.25-1.14,1.84q.93-.54,1.89-1.17a49.48,49.48,0,0,0,9.44-8.35M40.83,86.64H19.37V77.08H34l2.15-9.49a8.6,8.6,0,0,1-2.28-10.25,26.64,26.64,0,0,1-4.24-1.41c-5.75-2.45-11.77-7-16.94-12.91S3.7,30.61,2,24.6C0,17.69,1,12.08,4.7,8.81,7.9,6,12.57,5.41,18,7.11a.52.52,0,0,0,.68-.52c-.08-1.84-.12-3.7-.12-5.59h46.1c0,1.89,0,3.75-.12,5.59a.45.45,0,0,0,.17.41.5.5,0,0,0,.49.11C70.68,5.41,75.35,6,78.56,8.81c3.71,3.27,4.67,8.88,2.7,15.79-1.7,6-5.5,12.55-10.68,18.42S59.39,53.48,53.64,55.93a26.64,26.64,0,0,1-4.24,1.41,8.6,8.6,0,0,1-2.28,10.25l2.15,9.49H63.89v9.56H40.83Z"/></g></g></svg>