<svg xmlns="http://www.w3.org/2000/svg" viewBox="0 0 100.04 87.74">
<defs>
<style>.cls-1,.cls-2,.cls-3{fill:none;stroke-miterlimit:10;stroke-width:2px;}.cls-1,.cls-2{stroke:#202a52;}.cls-2,.cls-3{stroke-linecap:round;}.cls-3{stroke:#e63214;}</style>
</defs>
<g>
<path class="cls-1" d="M25,51A25.92,25.92,0,0,1,35.72,29.9"/>
<path class="cls-1" d="M63.27,73.76A26,26,0,0,1,37.2,73"/>
<path class="cls-1" d="M65.41,29.43A25.93,25.93,0,0,1,76.85,51"/>
<circle class="cls-2" cx="19.3" cy="68.45" r="18.3"/>
<circle class="cls-2" cx="80.74" cy="68.45" r="18.3"/>
<circle class="cls-3" cx="50.64" cy="19.3" r="18.3"/>
<ellipse class="cls-3" cx="19.15" cy="61.95" rx="3.33" ry="3.96"/>
<path class="cls-3" d="M11.69,77.11v-3s0-4.22,7.61-4.22,7.61,4.22,7.61,4.22v3Z"/>
<ellipse class="cls-3" cx="81.03" cy="61.95" rx="3.33" ry="3.96"/>
<path class="cls-3" d="M73.58,77.11v-3s0-4.22,7.6-4.22,7.61,4.22,7.61,4.22v3Z"/>
<ellipse class="cls-2" cx="50.75" cy="12.56" rx="3.33" ry="3.96"/>
<path class="cls-2" d="M43.29,27.72v-3s0-4.22,7.61-4.22,7.61,4.22,7.61,4.22v3Z"/>
</g>
</svg>