<svg xmlns="http://www.w3.org/2000/svg" viewBox="0 0 63.18 86.6">
<defs>
<style>.cls-1,.cls-2{fill:none;stroke-linecap:round;stroke-linejoin:round;stroke-width:2px;}.cls-1{stroke:#202a52;}.cls-2{stroke:#e63214;}</style>
</defs>
<g>
<path class="cls-1" d="M35.41,60.27A40.56,40.56,0,0,1,6.74,79"/>
<path class="cls-1" d="M41.15,39.24a39.94,39.94,0,0,1-3.87,17.2"/>
<path class="cls-1" d="M54.53,22a28.55,28.55,0,0,1,5.74,17.21v17.2"/>
<path class="cls-1" d="M12.47,17.86a28.67,28.67,0,0,1,38.61.35"/>
<path class="cls-1" d="M2.91,41.15V39.24A28.55,28.55,0,0,1,8.65,22"/>
<path class="cls-1" d="M23.94,33.5a9.56,9.56,0,0,1,17.21,5.74"/>
<path class="cls-1" d="M1,60.27a21,21,0,0,0,21-21V37.32"/>
<path class="cls-2" d="M46.88,27.77a19,19,0,0,1,3.83,11.47V54.53A11.46,11.46,0,0,0,62.18,66"/>
<path class="cls-2" d="M23.94,22a16.61,16.61,0,0,1,7.65-1.91,19,19,0,0,1,11.47,3.82"/>
<path class="cls-2" d="M1,50.71A11.47,11.47,0,0,0,12.47,39.24a19.33,19.33,0,0,1,5.74-13.39"/>
<path class="cls-1" d="M43.85,65.52c3.71,5.64,8.14,9.71,14.5,11"/>
<path class="cls-1" d="M50.71,84.38A40.15,40.15,0,0,1,42,78.52a7.86,7.86,0,0,0-10-.4c-4.78,3.6-10.06,6.45-15.71,7.48"/>
<path class="cls-1" d="M23.21,60.27a30.48,30.48,0,0,0,8.38-21V37.32"/><path class="cls-1" d="M1,69.83a30.45,30.45,0,0,0,17.84-5.74"/>
<path class="cls-1" d="M20.12,2.91A38.19,38.19,0,0,1,31.59,1,38.17,38.17,0,0,1,60.65,14.38"/>
<path class="cls-1" d="M2.53,14.38A39.36,39.36,0,0,1,14.38,4.82"/>
</g>
</svg>