<svg xmlns="http://www.w3.org/2000/svg" viewBox="0 0 109.36 90.77"><defs><style>.cls-1,.cls-2,.cls-3,.cls-4,.cls-5,.cls-6{fill:none;}.cls-1,.cls-2,.cls-3,.cls-4{stroke:#20294e;}.cls-1{stroke-linejoin:round;}.cls-1,.cls-2,.cls-5,.cls-6{stroke-width:2.14px;}.cls-2,.cls-3,.cls-6{stroke-linecap:round;}.cls-2,.cls-3,.cls-4,.cls-5,.cls-6{stroke-miterlimit:10;}.cls-3,.cls-4{stroke-width:2.25px;}.cls-5,.cls-6{stroke:#e30613;}.cls-7{fill:#e30613;}</style></defs><g id="Laag_2" data-name="Laag 2"><g id="Laag_3" data-name="Laag 3"><rect class="cls-1" x="1.07" y="39.79" width="19.89" height="15.37"/><path class="cls-2" d="M4.12,39.79V35.27a6.9,6.9,0,0,1,13.79,0v4.52"/><rect class="cls-1" x="1.07" y="74.33" width="19.89" height="15.37"/><path class="cls-2" d="M4.12,74.33V69.82a6.9,6.9,0,1,1,13.79,0v4.51"/><rect class="cls-1" x="45.13" y="74.33" width="19.89" height="15.37"/><path class="cls-2" d="M48.17,74.33V69.82a6.9,6.9,0,0,1,13.8,0v4.51"/><polyline class="cls-1" points="65.01 44.27 65.01 55.15 45.13 55.15 45.13 39.79 56.86 39.79"/><path class="cls-3" d="M64,29.32V21.59a11.81,11.81,0,1,1,23.62,0v3.57"/><polyline class="cls-4" points="50.97 29.32 71.75 29.32 71.75 45.34"/><circle class="cls-5" cx="72.36" cy="23.3" r="22.22"/><line class="cls-5" x1="88.95" y1="38.06" x2="108.61" y2="57.71"/><line class="cls-6" x1="11.02" y1="49.82" x2="11.02" y2="47.3"/><circle class="cls-7" cx="11.02" cy="45.88" r="1.85"/><line class="cls-6" x1="11.02" y1="84.37" x2="11.02" y2="81.85"/><circle class="cls-7" cx="11.02" cy="80.43" r="1.85"/><line class="cls-6" x1="55.07" y1="49.82" x2="55.07" y2="47.3"/><circle class="cls-7" cx="55.07" cy="45.88" r="1.85"/><line class="cls-6" x1="55.07" y1="84.37" x2="55.07" y2="81.85"/><circle class="cls-7" cx="55.07" cy="80.43" r="1.85"/></g></g></svg>