<svg xmlns="http://www.w3.org/2000/svg" viewBox="0 0 106.03 87.98">
<defs>
<style>.cls-1,.cls-2,.cls-3,.cls-4,.cls-5{fill:none;stroke-width:2px;}.cls-1,.cls-2,.cls-3{stroke:#202a52;}.cls-1{stroke-linejoin:round;}.cls-2,.cls-5{stroke-linecap:round;}.cls-2,.cls-3,.cls-4,.cls-5{stroke-miterlimit:10;}.cls-4,.cls-5{stroke:#e63214;}.cls-6{fill:#e63214;}</style>
</defs>
<g>
<rect class="cls-1" x="1" y="38.56" width="19.29" height="14.91"/>
<path class="cls-2" d="M4,38.56V34.18a6.69,6.69,0,0,1,13.38,0v4.38"/>
<rect class="cls-1" x="1" y="72.07" width="19.29" height="14.91"/>
<path class="cls-2" d="M4,72.07V67.69a6.69,6.69,0,0,1,13.38,0v4.38"/>
<rect class="cls-1" x="41.47" y="72.07" width="19.29" height="14.91"/>
<path class="cls-2" d="M44.43,72.07V67.69a6.69,6.69,0,0,1,13.38,0v4.38"/>
<polyline class="cls-1" points="60.76 47.54 60.76 53.46 41.47 53.46 41.47 38.56 48.5 38.56"/>
<path class="cls-2" d="M59,30.39V22.25a12.43,12.43,0,0,1,24.86,0V26"/>
<polyline class="cls-3" points="45.26 30.39 67.14 30.39 67.14 47.24"/>
<circle class="cls-4" cx="67.14" cy="24.41" r="23.41"/>
<line class="cls-4" x1="84.62" y1="39.95" x2="105.32" y2="60.65"/>
<line class="cls-5" x1="10.65" y1="48.29" x2="10.65" y2="45.85"/>
<circle class="cls-6" cx="10.65" cy="44.47" r="1.79"/>
<line class="cls-5" x1="10.65" y1="81.8" x2="10.65" y2="79.36"/>
<circle class="cls-6" cx="10.65" cy="77.98" r="1.79"/>
<line class="cls-5" x1="51.12" y1="81.8" x2="51.12" y2="79.36"/>
<circle class="cls-6" cx="51.12" cy="77.98" r="1.79"/>
</g>
</svg>