<svg xmlns="http://www.w3.org/2000/svg" viewBox="0 0 108.98 87.45">
<defs>
<style>.cls-1,.cls-2{fill:none;stroke-miterlimit:10;stroke-width:2px;}.cls-1{stroke:#e63214;}.cls-2{stroke:#202a52;}</style>
</defs>
<g>
<circle class="cls-1" cx="51.4" cy="37.28" r="11.47"/>
<line class="cls-1" x1="59.97" y1="44.89" x2="70.11" y2="55.03"/>
<path class="cls-2" d="M28.4,23.14c5.16-5.77,5.93-16.77,4.86-21.85-3,.63-6.48,3.17-9,6.67"/>
<path class="cls-2" d="M19.77,21.24A26.09,26.09,0,0,0,14.21,5.13c-2.85,3.36-4.23,9.41-3.33,15"/>
<path class="cls-2" d="M12.63,32.33C11.17,27.83,4.85,24.71,1,23.47c0,6.85,1.78,20.88,13,22.15"/>
<path class="cls-2" d="M27.06,42.44c3.36-5.24,1.57-11.37-.87-14.54-5.67,3-12.53,12.8-4.87,19.11"/>
<path class="cls-2" d="M34,70c6-8-2.72-15.56-7.58-17.66-1,3-3,10.64,1.91,15.09"/>
<path class="cls-2" d="M19.6,56.72c-4.44-5.47-12.26-6.43-16.27-6.65.36,5.75,5.9,20.79,18.6,17.74"/>
<path class="cls-2" d="M16.55,75c4,6,15.85,16.77,31,8.32C44.2,72.24,22.7,73.21,16.55,75Z"/>
<path class="cls-2" d="M80.58,23.14c-5.16-5.77-5.94-16.77-4.87-21.85a18.51,18.51,0,0,1,9,6.67"/>
<path class="cls-2" d="M89.21,21.24A26.14,26.14,0,0,1,94.76,5.13c2.86,3.36,4.23,9.41,3.34,15"/>
<path class="cls-2" d="M96.35,32.33c1.45-4.5,7.77-7.62,11.63-8.86,0,6.85-1.79,20.88-13,22.15"/>
<path class="cls-2" d="M81.92,42.44c-3.36-5.24-1.57-11.37.86-14.54,5.68,3,12.54,12.8,4.88,19.11"/>
<path class="cls-2" d="M75,70c-6-8,2.72-15.56,7.59-17.66,1,3,3,10.64-1.91,15.09"/>
<path class="cls-2" d="M89.37,56.72c4.44-5.47,12.26-6.43,16.28-6.65-.36,5.75-5.91,20.79-18.6,17.74"/>
<path class="cls-2" d="M92.42,75c-4,6-15.84,16.77-31,8.32C64.78,72.24,86.28,73.21,92.42,75Z"/>
</g>
</svg>