<svg xmlns="http://www.w3.org/2000/svg" viewBox="0 0 88.15 88.07">
<defs>
<style>.cls-1,.cls-2{fill:none;stroke-miterlimit:10;stroke-width:2px;}.cls-1{stroke:#202a52;}.cls-2{stroke:#e63214;}</style>
</defs>
<g>
<path class="cls-1" d="M44.12,44,18.48,9.48A41.27,41.27,0,0,1,43.69,1Z"/>
<path class="cls-1" d="M44.12,44,19.18,79.1A42.35,42.35,0,0,1,3.06,31.15Z"/>
<path class="cls-1" d="M44.12,44,69.06,9A43,43,0,0,1,79.18,69,41.73,41.73,0,0,1,44.55,87.06Z"/>
<path class="cls-2" d="M49.05,5.75A38.72,38.72,0,0,1,61.26,9.48"/>
<path class="cls-2" d="M9.37,27.22a38.59,38.59,0,0,1,7.41-10.4"/>
<path class="cls-2" d="M38.33,82.21a35.49,35.49,0,0,1-12.12-4"/>
</g>
</svg>