<svg xmlns="http://www.w3.org/2000/svg" viewBox="0 0 92.72 92.05"><defs><style>.cls-1,.cls-2{fill:none;stroke-linecap:round;stroke-linejoin:round;stroke-width:2px;}.cls-1{stroke:#e30613;}.cls-2{stroke:#20294e;}</style></defs><g id="Laag_2" data-name="Laag 2"><g id="Laag_3" data-name="Laag 3"><path class="cls-1" d="M12.09,27.66a36.27,36.27,0,0,1,10.3-12.54"/><path class="cls-1" d="M24.65,76.71a36.38,36.38,0,0,1-11.34-12"/><path class="cls-1" d="M52.08,7.34A36.75,36.75,0,0,1,79.6,26.8"/><path class="cls-2" d="M48.8,48,87.69,29.82a42.9,42.9,0,0,1-20.75,57,41.54,41.54,0,0,1-40.87-2.5Z"/><path class="cls-2" d="M46.58,39.73,25.49,7.25A37.39,37.39,0,0,1,46.58,1Z"/><path class="cls-2" d="M41.13,46.14,4.89,63A38.59,38.59,0,0,1,4.6,29.87Z"/></g></g></svg>