<svg xmlns="http://www.w3.org/2000/svg" viewBox="0 0 93.12 95.28"><defs><style>.cls-1,.cls-2{fill:none;stroke-miterlimit:10;stroke-width:2px;}.cls-1{stroke:#20294e;}.cls-2{stroke:#e30613;}</style></defs><g id="Laag_2" data-name="Laag 2"><g id="Laag_3" data-name="Laag 3"><path class="cls-1" d="M62.56,43l6.93-.21L70,31.06l-6.89-.77a27.76,27.76,0,0,0-3.18-8.64l4.76-5L56.73,8l-5.42,4.33A28.09,28.09,0,0,0,43,8.44l-.21-6.92L31.06,1l-.77,6.88a28,28,0,0,0-8.64,3.18l-5-4.75L8,14.27l4.33,5.43a28,28,0,0,0-3.88,8.35l-6.92.21L1,39.94l6.88.78a28.11,28.11,0,0,0,3.18,8.64l-4.75,5L14.27,63l5.43-4.32a27.7,27.7,0,0,0,8.35,3.87l.21,6.93L39.94,70l.78-6.89a28.09,28.09,0,0,0,8.64-3.17l5,4.75L63,56.73l-4.32-5.42A27.82,27.82,0,0,0,62.56,43Zm-29.7-2.32a5.53,5.53,0,1,1,7.34-2.7A5.52,5.52,0,0,1,32.86,40.64Z"/><path class="cls-2" d="M52.39,73.71l-4.08,1.63,2.26,7.06,4.26-1A17.59,17.59,0,0,0,58.6,85.8l-1.73,4,6.59,3.39,2.28-3.75a17.64,17.64,0,0,0,5.81.49L73.18,94l7.06-2.26-1-4.26a17.59,17.59,0,0,0,4.44-3.77l4,1.73,3.39-6.58-3.75-2.29a17.61,17.61,0,0,0,.49-5.81l4.07-1.63-2.26-7.05-4.26,1a17.82,17.82,0,0,0-3.77-4.45l1.73-4-6.58-3.39L74.45,55M69.64,75.89a3.5,3.5,0,1,1,3.78-3.2A3.52,3.52,0,0,1,69.64,75.89Z"/></g></g></svg>