<svg xmlns="http://www.w3.org/2000/svg" viewBox="0 0 111.36 85.21">
<defs>
<style>.cls-1,.cls-2{fill:none;stroke-linecap:round;stroke-linejoin:round;stroke-width:2px;}.cls-1{stroke:#202a52;}.cls-2{stroke:#e63214;}</style>
</defs>
<g>
<polyline class="cls-1" points="13.39 37.56 1 37.56 1 1 71.29 1 71.29 17.85"/>
<line class="cls-2" x1="11.47" y1="20.37" x2="11.47" y2="28.35"/>
<line class="cls-2" x1="17.55" y1="18.07" x2="17.55" y2="20.46"/>
<line class="cls-2" x1="23.64" y1="15.69" x2="23.64" y2="20.46"/>
<line class="cls-2" x1="29.72" y1="13.01" x2="29.72" y2="20.46"/>
<line class="cls-2" x1="35.8" y1="11.94" x2="35.8" y2="20.46"/>
<line class="cls-2" x1="41.89" y1="10.96" x2="41.89" y2="20.46"/>
<line class="cls-2" x1="47.97" y1="9.43" x2="47.97" y2="20.46"/>
<line class="cls-2" x1="54.05" y1="7.74" x2="54.05" y2="20.46"/>
<line class="cls-2" x1="60.14" y1="5.27" x2="60.14" y2="20.46"/>
<polyline class="cls-1" points="33.83 61.56 20.54 61.56 20.54 25 90.83 25 90.83 41.03"/>
<rect class="cls-1" x="40.07" y="47.64" width="70.29" height="36.56"/>
<polyline class="cls-2" points="27.92 48.58 33.89 42.61 40.07 40.1 46.29 34.89 50.97 40.05 54.62 37.29 65.98 40.53 82.43 32.3"/>
<path class="cls-2" d="M76.22,65.76,87,59.55a12.42,12.42,0,0,1-4.55,17,11.8,11.8,0,0,1-6.21,1.67Z"/>
<path class="cls-2" d="M76.22,65.76,65.46,59.55a12.42,12.42,0,0,1,17-4.55A11.84,11.84,0,0,1,87,59.55Z"/>
<path class="cls-2" d="M76.22,65.76V78.19A12.44,12.44,0,0,1,63.79,65.76a11.91,11.91,0,0,1,1.67-6.21Z"/>
</g>
</svg>