<svg xmlns="http://www.w3.org/2000/svg" viewBox="0 0 125.89 94.43"><defs><style>.cls-1,.cls-2{fill:none;stroke-linecap:round;stroke-miterlimit:10;stroke-width:2px;}.cls-1{stroke:#20294e;}.cls-2{stroke:#e30613;}</style></defs><g id="Laag_2" data-name="Laag 2"><g id="Laag_3" data-name="Laag 3"><polyline class="cls-1" points="124.89 2.75 104.43 23.97 63.05 50.92 56.08 62.98 43.24 44.34 15.41 57.78"/><line class="cls-1" x1="7.76" y1="93.43" x2="1" y2="93.43"/><line class="cls-1" x1="36.74" y1="93.43" x2="29.98" y2="93.43"/><line class="cls-1" x1="65.72" y1="93.43" x2="58.96" y2="93.43"/><line class="cls-1" x1="94.69" y1="93.43" x2="87.93" y2="93.43"/><line class="cls-1" x1="123.67" y1="93.43" x2="116.91" y2="93.43"/><line class="cls-1" x1="7.76" y1="70.32" x2="1" y2="70.32"/><line class="cls-1" x1="7.76" y1="47.22" x2="1" y2="47.22"/><line class="cls-1" x1="7.76" y1="24.11" x2="1" y2="24.11"/><line class="cls-1" x1="7.76" y1="1" x2="1" y2="1"/><polyline class="cls-2" points="124.79 37.95 103.69 50.39 62.19 65.37 54.65 72.69 43.74 60.1 16.16 67.18"/></g></g></svg>