<svg xmlns="http://www.w3.org/2000/svg" viewBox="0 0 86.51 88.51">
<defs>
<style>.cls-1,.cls-2{fill:none;stroke-miterlimit:10;stroke-width:2px;}.cls-1{stroke:#202a52;}.cls-2{stroke:#e63214;}</style>
</defs>
<g>
<path class="cls-1" d="M58.09,39.91l6.42-.19L65,28.88l-6.38-.72a25.78,25.78,0,0,0-3-8L60,15.46l-7.35-8-5,4a25.59,25.59,0,0,0-7.74-3.59l-.19-6.43L28.88,1l-.72,6.38a25.78,25.78,0,0,0-8,2.95L15.46,6l-8,7.35,4,5a25.59,25.59,0,0,0-3.59,7.74l-6.43.2L1,37.11l6.38.72a25.78,25.78,0,0,0,2.95,8L6,50.53l7.35,8,5-4a25.85,25.85,0,0,0,7.74,3.6l.2,6.42L37.11,65l.72-6.38a25.78,25.78,0,0,0,8-3L50.53,60l8-7.35-4-5A25.85,25.85,0,0,0,58.09,39.91ZM30.55,37.76a5.13,5.13,0,1,1,6.8-2.5A5.13,5.13,0,0,1,30.55,37.76Z"/>
<path class="cls-2" d="M48.65,68.42l-3.78,1.52L47,76.48l4-1a16.4,16.4,0,0,0,3.49,4.13l-1.6,3.74,6.11,3.14L61,83.05a16.47,16.47,0,0,0,5.39.45l1.51,3.77,6.54-2.09-1-4a16.19,16.19,0,0,0,4.12-3.5l3.75,1.61,3.14-6.11L81,71.11a16.14,16.14,0,0,0,.45-5.38l3.78-1.51-2.09-6.54-4,1a16.2,16.2,0,0,0-3.49-4.13l1.6-3.74-6.1-3.14L69.11,51.1M64.65,70.44a3.25,3.25,0,1,1,3.51-3A3.25,3.25,0,0,1,64.65,70.44Z"/>
</g>
</svg>